<?xml version="1.0" encoding="UTF-8"?>
<svg version="1.1" xmlns="http://www.w3.org/2000/svg" width="62" height="62">
<path d="M0 0 C7.35937772 4.85049895 10.76811539 10.13206684 12.75 18.8125 C13.88071748 27.60462099 12.85547605 34.48949395 7.75 41.8125 C3.75763058 46.85141286 -0.97772688 51.02805433 -7.25 52.8125 C-11.30550758 53.25563292 -15.18889846 53.14305478 -19.25 52.8125 C-20.14460938 52.74160156 -21.03921875 52.67070313 -21.9609375 52.59765625 C-28.68186111 51.67740671 -32.80006315 48.87216377 -37.25 43.8125 C-41.04377639 38.30540524 -41.87989383 31.80590455 -40.84765625 25.26171875 C-38.30733347 15.596467 -32.57721956 7.37836178 -24.25 1.8125 C-15.95621125 -2.50225966 -8.77798846 -3.20734194 0 0 Z " fill="#B84FE8" transform="translate(45.25,5.1875)"/>
<path d="M0 0 C5.88199458 4.33021209 8.42392017 9.96198835 10 17 C10.28877409 21.02886426 10.25315171 24.97066868 10 29 C9.34 29 8.68 29 8 29 C7.896875 29.639375 7.79375 30.27875 7.6875 30.9375 C7.460625 31.618125 7.23375 32.29875 7 33 C6.01 33.33 5.02 33.66 4 34 C4.23396484 33.14728516 4.23396484 33.14728516 4.47265625 32.27734375 C5.74884628 27.21484157 6.4156252 23.15692038 5 18 C2.7614704 14.84947686 1.53688242 14.12389594 -2.25 13.25 C-3.1575 13.1675 -4.065 13.085 -5 13 C-4.505 15.97 -4.505 15.97 -4 19 C-4.721875 18.319375 -5.44375 17.63875 -6.1875 16.9375 C-8.77420167 14.74932312 -8.77420167 14.74932312 -11.5 15.0625 C-14.22987402 16.08620276 -16.51078979 17.49337277 -19 19 C-19.99 19 -20.98 19 -22 19 C-22.103125 19.61875 -22.20625 20.2375 -22.3125 20.875 C-23 23 -23 23 -26 25 C-28.1875 24.625 -28.1875 24.625 -30 24 C-30.71484375 22.328125 -30.71484375 22.328125 -31 20 C-29.56640625 17.421875 -29.56640625 17.421875 -27.5625 14.75 C-26.90378906 13.85796875 -26.24507812 12.9659375 -25.56640625 12.046875 C-25.04949219 11.37140625 -24.53257813 10.6959375 -24 10 C-27.21203935 12.49825283 -30.17493137 15.0702992 -33 18 C-31.59718164 13.53648705 -29.35914958 11.1911921 -26 8 C-25.34 7.01 -24.68 6.02 -24 5 C-30.71107076 9.09658414 -34.43098173 13.52750771 -37 21 C-37.60525521 24.05789384 -37.84869681 26.87306745 -38 30 C-39.98 30.66 -41.96 31.32 -44 32 C-43.95935312 21.6756922 -40.79506182 12.75864573 -33.75 5.0625 C-24.42714024 -3.42981546 -11.15261778 -7.35058899 0 0 Z " fill="#D162FC" transform="translate(48,7)"/>
<path d="M0 0 C3.95679828 -0.46009282 5.54625856 -0.33274372 8.8125 2.0625 C11.44768441 5.60117621 11.92425675 7.60689145 12 12 C11.51373037 14.44565021 10.82107572 16.63337 10 19 C9.34 19 8.68 19 8 19 C7.9175 19.721875 7.835 20.44375 7.75 21.1875 C6.63957582 25.35159068 4.76844412 27.88155895 1.09765625 30.203125 C-2.64578079 32.18289431 -4.64090797 33 -9 33 C-9 32.01 -9 31.02 -9 30 C-6.03 29.67 -3.06 29.34 0 29 C-0.99 28.01 -1.98 27.02 -3 26 C-2 24 -1 22 0 20 C-0.99 20.99 -1.98 21.98 -3 23 C-3.99 22.67 -4.98 22.34 -6 22 C-5.175 21.030625 -4.35 20.06125 -3.5 19.0625 C-0.89460392 16.52977999 -0.89460392 16.52977999 -1 15 C-2.65 16.98 -4.3 18.96 -6 21 C-6.66 20.67 -7.32 20.34 -8 20 C-8 19.34 -8 18.68 -8 18 C-8.66 17.67 -9.32 17.34 -10 17 C-9.67 16.67 -9.34 16.34 -9 16 C-9.99 15.01 -10.98 14.02 -12 13 C-11.72285156 12.46890625 -11.44570313 11.9378125 -11.16015625 11.390625 C-10.79792969 10.68421875 -10.43570313 9.9778125 -10.0625 9.25 C-9.70285156 8.55390625 -9.34320313 7.8578125 -8.97265625 7.140625 C-8.04441818 5.09775567 -7.46833422 3.18884624 -7 1 C-2.25 1.75 -2.25 1.75 0 4 C0 2.68 0 1.36 0 0 Z " fill="#312D36" transform="translate(43,20)"/>
<path d="M0 0 C6.52514406 4.64289097 9.32996491 9.13565292 11 17 C11.28411679 21.02886919 11.25313838 24.97088071 11 29 C10.34 29 9.68 29 9 29 C8.896875 29.639375 8.79375 30.27875 8.6875 30.9375 C8.460625 31.618125 8.23375 32.29875 8 33 C7.01 33.33 6.02 33.66 5 34 C5.23396484 33.14728516 5.23396484 33.14728516 5.47265625 32.27734375 C6.74884628 27.21484157 7.4156252 23.15692038 6 18 C3.7614704 14.84947686 2.53688242 14.12389594 -1.25 13.25 C-2.61125 13.12625 -2.61125 13.12625 -4 13 C-3.67 14.98 -3.34 16.96 -3 19 C-3.721875 18.319375 -4.44375 17.63875 -5.1875 16.9375 C-7.77420167 14.74932312 -7.77420167 14.74932312 -10.5 15.0625 C-13.22987402 16.08620276 -15.51078979 17.49337277 -18 19 C-18.99 19 -19.98 19 -21 19 C-21.103125 19.61875 -21.20625 20.2375 -21.3125 20.875 C-22 23 -22 23 -25 25 C-27.1875 24.625 -27.1875 24.625 -29 24 C-29.67578125 22.26171875 -29.67578125 22.26171875 -30 20 C-28.85546875 17.89453125 -28.85546875 17.89453125 -27.1875 15.8125 C-26.64480469 15.11769531 -26.10210938 14.42289063 -25.54296875 13.70703125 C-24 12 -24 12 -22 11 C-21.67 11.66 -21.34 12.32 -21 13 C-18.16997104 12.09953624 -15.45744017 11.23525495 -12.8125 9.875 C-11 9 -11 9 -8 9 C-8.33 8.01 -8.66 7.02 -9 6 C-4.78121808 5.80377759 -1.82989106 6.19769832 2 8 C0.68 6.35 -0.64 4.7 -2 3 C-1.34 2.01 -0.68 1.02 0 0 Z " fill="#C968F6" transform="translate(47,7)"/>
<path d="M0 0 C-1.51515152 3.78787879 -1.51515152 3.78787879 -4 4.875 C-6.34687631 5.9199192 -6.34687631 5.9199192 -7.25 9.125 C-7.4975 10.07375 -7.745 11.0225 -8 12 C-5.69 9.36 -3.38 6.72 -1 4 C-0.34 4.33 0.32 4.66 1 5 C0.51789062 5.60585938 0.03578125 6.21171875 -0.4609375 6.8359375 C-4.94239597 12.78072935 -7.3281902 17.57276947 -8 25 C-8.06960938 25.69738281 -8.13921875 26.39476563 -8.2109375 27.11328125 C-8.37214805 29.18876491 -8.37214805 29.18876491 -8 32 C-7.01 32.66 -6.02 33.32 -5 34 C-4.38125 35.134375 -3.7625 36.26875 -3.125 37.4375 C-1.21245173 40.87009597 0.22886598 42.52433886 4 44 C7.32685696 44.51614831 10.63974485 44.81078175 14 45 C14 45.33 14 45.66 14 46 C-5.34965205 46.59844285 -5.34965205 46.59844285 -12.4375 40.75 C-15.46824653 37.79287484 -17.6669939 35.08788539 -19 31 C-18.6875 28.125 -18.6875 28.125 -18 26 C-17.01 25.67 -16.02 25.34 -15 25 C-14.92523437 24.23816406 -14.85046875 23.47632812 -14.7734375 22.69140625 C-13.62057958 13.63808084 -10.94767497 7.67851531 -4.25 1.4375 C-2 0 -2 0 0 0 Z " fill="#2F2A3D" transform="translate(24,12)"/>
<path d="M0 0 C0.33 0 0.66 0 1 0 C0.66290194 6.51722911 -0.44225737 9.32539218 -5 14 C-1.63408134 12.55746343 0.51047079 10.66735273 3 8 C1.6302836 11.99500618 -0.25722422 14.80009492 -3 18 C-2.01 18.33 -1.02 18.66 0 19 C0 19.66 0 20.32 0 21 C-2.95664519 22.4783226 -5.74229737 22.06032783 -9 22 C-9 22.99 -9 23.98 -9 25 C-6.03 24.34 -3.06 23.68 0 23 C-0.33 23.66 -0.66 24.32 -1 25 C-1.66 25 -2.32 25 -3 25 C-3 25.66 -3 26.32 -3 27 C-4.79133978 27.05391993 -6.58313899 27.09275571 -8.375 27.125 C-9.37273438 27.14820312 -10.37046875 27.17140625 -11.3984375 27.1953125 C-14 27 -14 27 -16 25 C-14.35 24.67 -12.7 24.34 -11 24 C-11.33 23.01 -11.66 22.02 -12 21 C-13.65 20.67 -15.3 20.34 -17 20 C-17 19.67 -17 19.34 -17 19 C-15.02 19 -13.04 19 -11 19 C-11 18.34 -11 17.68 -11 17 C-12.6256807 17.30893932 -14.25052748 17.6222695 -15.875 17.9375 C-16.77992187 18.11152344 -17.68484375 18.28554688 -18.6171875 18.46484375 C-20.99956317 18.89963701 -20.99956317 18.89963701 -23 20 C-22.67 17.69 -22.34 15.38 -22 13 C-17.25 13.875 -17.25 13.875 -15 15 C-15.7763932 11.9254644 -15.7763932 11.9254644 -18 10 C-14.68885166 8.87119943 -11.41021743 7.78697325 -8 7 C-8 7.99 -8 8.98 -8 10 C-7.34 10.66 -6.68 11.32 -6 12 C-2.44992282 8.0949151 -1.18180084 5.02265357 0 0 Z " fill="#C64AFC" transform="translate(43,28)"/>
<path d="M0 0 C0.928125 0.495 1.85625 0.99 2.8125 1.5 C5.86527516 3.21289852 5.86527516 3.21289852 9 3 C8.18181818 11.18181818 8.18181818 11.18181818 6 15 C5.896875 15.61875 5.79375 16.2375 5.6875 16.875 C4.05207886 21.92993806 0.4860502 24.98191948 -4.0625 27.375 C-7.14443796 28.87630047 -8.35874929 29 -12 29 C-12 28.01 -12 27.02 -12 26 C-9.03 25.67 -6.06 25.34 -3 25 C-3.99 24.01 -4.98 23.02 -6 22 C-5 20 -4 18 -3 16 C-3.99 16.99 -4.98 17.98 -6 19 C-6.99 18.67 -7.98 18.34 -9 18 C-7.76302083 16.53515625 -6.52604167 15.0703125 -5.2890625 13.60546875 C-4.10798901 12.1344954 -3.04641471 10.56962206 -2 9 C-2 9.66 -2 10.32 -2 11 C-1.34 11 -0.68 11 0 11 C0 7.37 0 3.74 0 0 Z " fill="#352D3D" transform="translate(46,24)"/>
<path d="M0 0 C0.92833174 2.54130813 1.10700327 3.69853886 0.1875 6.2890625 C-0.204375 7.05992188 -0.59625 7.83078125 -1 8.625 C-2.18770786 10.89351475 -2.18770786 10.89351475 -3 13 C-2.67 13.66 -2.34 14.32 -2 15 C-5.6441774 17.4294516 -7.71241272 17.16179575 -12 17 C-12 17.66 -12 18.32 -12 19 C-12.99 18.67 -13.98 18.34 -15 18 C-15.33 18.33 -15.66 18.66 -16 19 C-17.98 19.99 -17.98 19.99 -20 21 C-19.67 16.71 -19.34 12.42 -19 8 C-17.68 8.66 -16.36 9.32 -15 10 C-12.8522367 10.00478037 -12.8522367 10.00478037 -11 9 C-10.72671875 8.37867188 -10.4534375 7.75734375 -10.171875 7.1171875 C-8.66756282 4.39939684 -7.11338057 3.65831001 -4.375 2.25 C-3.14910156 1.60804687 -3.14910156 1.60804687 -1.8984375 0.953125 C-0.95871094 0.48132813 -0.95871094 0.48132813 0 0 Z " fill="#D158FF" transform="translate(35,21)"/>
<path d="M0 0 C-0.2475 0.5775 -0.495 1.155 -0.75 1.75 C-0.8325 2.4925 -0.915 3.235 -1 4 C0.85432087 6.27144074 0.85432087 6.27144074 3 8 C2.67 8.66 2.34 9.32 2 10 C-0.475 9.505 -0.475 9.505 -3 9 C-3 8.34 -3 7.68 -3 7 C-4.65 7.33 -6.3 7.66 -8 8 C-8 8.66 -8 9.32 -8 10 C-9.24176695 10.70226141 -10.49385599 11.38629109 -11.75 12.0625 C-12.44609375 12.44535156 -13.1421875 12.82820313 -13.859375 13.22265625 C-16.36140628 14.1312406 -17.5332355 13.88336837 -20 13 C-20.33 13.66 -20.66 14.32 -21 15 C-21.66 13.35 -22.32 11.7 -23 10 C-22.01 9.01 -21.02 8.02 -20 7 C-19.01 7.33 -18.02 7.66 -17 8 C-13.87064083 7.26248906 -13.87064083 7.26248906 -11 6 C-10.67 5.34 -10.34 4.68 -10 4 C-10.99 3.67 -11.98 3.34 -13 3 C-13 2.01 -13 1.02 -13 0 C-11.58456585 -0.19658808 -10.16755969 -0.38187546 -8.75 -0.5625 C-7.96109375 -0.66691406 -7.1721875 -0.77132813 -6.359375 -0.87890625 C-3.99467126 -1.00027349 -2.2488963 -0.69633257 0 0 Z " fill="#C74DF9" transform="translate(47,6)"/>
<path d="M0 0 C0.99 0.33 1.98 0.66 3 1 C3 1.99 3 2.98 3 4 C1.35546875 5.38671875 1.35546875 5.38671875 -0.8125 6.6875 C-1.52019531 7.12449219 -2.22789063 7.56148437 -2.95703125 8.01171875 C-5 9 -5 9 -8 9 C-8.1546875 9.928125 -8.1546875 9.928125 -8.3125 10.875 C-9 13 -9 13 -12 15 C-14.1875 14.625 -14.1875 14.625 -16 14 C-16.67578125 12.26171875 -16.67578125 12.26171875 -17 10 C-15.85546875 7.89453125 -15.85546875 7.89453125 -14.1875 5.8125 C-13.64480469 5.11769531 -13.10210938 4.42289063 -12.54296875 3.70703125 C-11 2 -11 2 -9 1 C-8.67 1.66 -8.34 2.32 -8 3 C-3.92035719 1.69844994 -3.92035719 1.69844994 0 0 Z " fill="#CE50FE" transform="translate(34,17)"/>
<path d="M0 0 C-0.75 1.875 -0.75 1.875 -2 4 C-2.66 4.268125 -3.32 4.53625 -4 4.8125 C-6.35891759 5.91812607 -6.35891759 5.91812607 -7.0625 9.1875 C-7.371875 10.445625 -7.68125 11.70375 -8 13 C-8.495 14.051875 -8.99 15.10375 -9.5 16.1875 C-11.75045456 21.16820146 -12.25062467 26.63094614 -13 32 C-15.475 32.495 -15.475 32.495 -18 33 C-18.33 31.02 -18.66 29.04 -19 27 C-18.35804687 26.78472656 -17.71609375 26.56945312 -17.0546875 26.34765625 C-14.73861384 25.16190722 -14.73861384 25.16190722 -14.3828125 22.49609375 C-14.29773438 21.48675781 -14.21265625 20.47742188 -14.125 19.4375 C-13.072556 11.67921812 -9.92457691 6.72517394 -4.25 1.4375 C-2 0 -2 0 0 0 Z " fill="#C045F9" transform="translate(24,12)"/>
<path d="M0 0 C6.70459519 4.93654267 6.70459519 4.93654267 7.9375 9.375 C7.958125 10.24125 7.97875 11.1075 8 12 C4.25 13.125 4.25 13.125 2 12 C-0.20266316 11.61212744 -2.41224568 11.26290505 -4.625 10.9375 C-5.81351563 10.76089844 -7.00203125 10.58429687 -8.2265625 10.40234375 C-9.14179687 10.26957031 -10.05703125 10.13679688 -11 10 C-10.01 9.67 -9.02 9.34 -8 9 C-8.33 8.01 -8.66 7.02 -9 6 C-4.78121808 5.80377759 -1.82989106 6.19769832 2 8 C0.68 6.35 -0.64 4.7 -2 3 C-1.34 2.01 -0.68 1.02 0 0 Z " fill="#CD8DF3" transform="translate(47,7)"/>
<path d="M0 0 C1.32 0.66 2.64 1.32 4 2 C4 1.34 4 0.68 4 0 C5.65 0.33 7.3 0.66 9 1 C9 2.32 9 3.64 9 5 C6.69 4.34 4.38 3.68 2 3 C1.67 5.31 1.34 7.62 1 10 C1.33 9.34 1.66 8.68 2 8 C4.75078884 7.08307039 6.35948913 6.89113917 9.1875 6.9375 C11.0746875 6.9684375 11.0746875 6.9684375 13 7 C13 7.66 13 8.32 13 9 C12.34 9.66 11.68 10.32 11 11 C11.33 11.99 11.66 12.98 12 14 C8.62537285 13.45276317 6.91765 12.9451 4 11 C4 11.66 4 12.32 4 13 C2.0625 12.1875 2.0625 12.1875 0 11 C-0.33 10.01 -0.66 9.02 -1 8 C-1.99 8.495 -1.99 8.495 -3 9 C-3.75 6.75 -3.75 6.75 -4 4 C-2.0625 1.6875 -2.0625 1.6875 0 0 Z " fill="#A933EA" transform="translate(19,38)"/>
<path d="M0 0 C0.92833174 2.54130813 1.10700327 3.69853886 0.1875 6.2890625 C-0.204375 7.05992188 -0.59625 7.83078125 -1 8.625 C-2.18770786 10.89351475 -2.18770786 10.89351475 -3 13 C-2.67 13.66 -2.34 14.32 -2 15 C-5.22791555 17.1519437 -6.28400809 17.20086443 -10 17 C-8.68 15.68 -7.36 14.36 -6 13 C-7.65 12.01 -9.3 11.02 -11 10 C-10.37788522 6.88942612 -9.49883588 5.33742098 -6.86328125 3.5546875 C-4.59986587 2.31105268 -2.3248716 1.12416631 0 0 Z " fill="#CC45FD" transform="translate(35,21)"/>
<path d="M0 0 C3.3 0 6.6 0 10 0 C10 0.33 10 0.66 10 1 C7.03 1 4.06 1 1 1 C1 1.99 1 2.98 1 4 C2.98 4 4.96 4 7 4 C6.505 4.474375 6.01 4.94875 5.5 5.4375 C3.88457803 6.75923698 3.88457803 6.75923698 4 8 C1.36 8.66 -1.28 9.32 -4 10 C-4 9.34 -4 8.68 -4 8 C-9.09210286 11.56320845 -13.22660027 15.04741286 -17 20 C-17 16.80290967 -16.64929047 15.66583428 -15 13 C-13.1953125 11.3671875 -13.1953125 11.3671875 -11.125 9.875 C-10.44695313 9.37742187 -9.76890625 8.87984375 -9.0703125 8.3671875 C-7.1024405 7.06764939 -5.13146316 6.00360373 -3 5 C-4.65 4.67 -6.3 4.34 -8 4 C-6 2 -6 2 -2.875 1.875 C-1.92625 1.91625 -0.9775 1.9575 0 2 C0 1.34 0 0.68 0 0 Z " fill="#D48CF4" transform="translate(33,5)"/>
<path d="M0 0 C1.65 0 3.3 0 5 0 C5.391875 0.9075 5.78375 1.815 6.1875 2.75 C8.40798082 6.73155182 10.93860016 8.96930008 15 11 C15 11.66 15 12.32 15 13 C11.71758059 13.5744234 9.68486643 13.46038244 6.890625 11.58203125 C0.54328806 6.14973011 0.54328806 6.14973011 -1 2 C-0.67 1.34 -0.34 0.68 0 0 Z " fill="#2E2C2F" transform="translate(7,43)"/>
<path d="M0 0 C0.598125 0.495 1.19625 0.99 1.8125 1.5 C3.97029994 3.28276418 3.97029994 3.28276418 7 3 C7 2.01 7 1.02 7 0 C7.66 0.33 8.32 0.66 9 1 C9.625 3.0625 9.625 3.0625 10 5 C8.68 5.33 7.36 5.66 6 6 C9.63 6.33 13.26 6.66 17 7 C17 6.34 17 5.68 17 5 C18.32 5.66 19.64 6.32 21 7 C16.01828125 9.97949686 10.62664443 9.64518856 5 9 C2.48022628 7.93072333 1.06903584 6.83914297 -1 5 C-0.67 3.35 -0.34 1.7 0 0 Z " fill="#B93EF7" transform="translate(23,48)"/>
<path d="M0 0 C6 0 6 0 8.875 2.5 C9.57625 3.325 10.2775 4.15 11 5 C10.01 5.99 9.02 6.98 8 8 C5 7 5 7 4 6 C3.67 8.97 3.34 11.94 3 15 C2.34 15 1.68 15 1 15 C0.67 10.05 0.34 5.1 0 0 Z " fill="#2D2933" transform="translate(43,20)"/>
<path d="M0 0 C0.66 0.33 1.32 0.66 2 1 C2.625 3.5625 2.625 3.5625 3 6 C1.02 6 -0.96 6 -3 6 C-3 6.99 -3 7.98 -3 9 C-0.03 8.34 2.94 7.68 6 7 C5.67 7.66 5.34 8.32 5 9 C4.34 9 3.68 9 3 9 C3 9.66 3 10.32 3 11 C1.20866022 11.05391993 -0.58313899 11.09275571 -2.375 11.125 C-3.37273438 11.14820313 -4.37046875 11.17140625 -5.3984375 11.1953125 C-8 11 -8 11 -10 9 C-8.35 8.67 -6.7 8.34 -5 8 C-5.33 7.01 -5.66 6.02 -6 5 C-7.65 4.67 -9.3 4.34 -11 4 C-11 3.67 -11 3.34 -11 3 C-9.1128125 3.0928125 -9.1128125 3.0928125 -7.1875 3.1875 C-3.83041021 3.23632922 -3.83041021 3.23632922 -1 1.5 C-0.67 1.005 -0.34 0.51 0 0 Z " fill="#D075F9" transform="translate(37,44)"/>
<path d="M0 0 C0.66 0.33 1.32 0.66 2 1 C1.51789062 1.60585938 1.03578125 2.21171875 0.5390625 2.8359375 C-3.41302986 8.07850899 -5.79175847 12.22259354 -6.61328125 18.7734375 C-7.02736341 21.1575469 -7.82422217 22.89799719 -9 25 C-9.66 24.67 -10.32 24.34 -11 24 C-11.86919833 16.32208141 -9.22663826 11.33500817 -5 5 C-3.41946613 3.10499298 -1.88279709 1.60591517 0 0 Z " fill="#3B2D4F" transform="translate(23,16)"/>
<path d="M0 0 C-0.2475 0.5775 -0.495 1.155 -0.75 1.75 C-0.8325 2.4925 -0.915 3.235 -1 4 C0.85432087 6.27144074 0.85432087 6.27144074 3 8 C2.67 8.66 2.34 9.32 2 10 C-1 8 -1 8 -3 6 C-5.06874034 5.3574765 -5.06874034 5.3574765 -7 5 C-7 4.34 -7 3.68 -7 3 C-8.98 3 -10.96 3 -13 3 C-13 2.01 -13 1.02 -13 0 C-11.58456585 -0.19658808 -10.16755969 -0.38187546 -8.75 -0.5625 C-7.96109375 -0.66691406 -7.1721875 -0.77132813 -6.359375 -0.87890625 C-3.99467126 -1.00027349 -2.2488963 -0.69633257 0 0 Z " fill="#CC68F6" transform="translate(47,6)"/>
<path d="M0 0 C1.98 1.32 3.96 2.64 6 4 C2.6261161 7.67157953 -0.35796619 10.12343314 -5 12 C-6.32 12 -7.64 12 -9 12 C-9 11.01 -9 10.02 -9 9 C-4.545 8.505 -4.545 8.505 0 8 C-0.99 7.01 -1.98 6.02 -3 5 C-1.125 1.125 -1.125 1.125 0 0 Z " fill="#413074" transform="translate(43,41)"/>
<path d="M0 0 C-1.50769231 3.76923077 -1.50769231 3.76923077 -4 4.9375 C-6.80548247 6.42791256 -6.94629517 8.03645516 -8 11 C-9.0209375 12.670625 -9.0209375 12.670625 -10.0625 14.375 C-12.16169897 17.92568971 -12.66623486 20.91137702 -13 25 C-13.33 25 -13.66 25 -14 25 C-14.60915385 17.44649231 -13.28843061 12.30463306 -9 6 C-3.44135189 0 -3.44135189 0 0 0 Z " fill="#503672" transform="translate(24,12)"/>
<path d="M0 0 C0.99 0.33 1.98 0.66 3 1 C3 1.99 3 2.98 3 4 C1.35546875 5.421875 1.35546875 5.421875 -0.8125 6.75 C-1.52019531 7.19859375 -2.22789063 7.6471875 -2.95703125 8.109375 C-5 9 -5 9 -8 8 C-6.49860488 3.79609368 -3.82724957 2.10889262 0 0 Z " fill="#D184F8" transform="translate(34,17)"/>
<path d="M0 0 C2.12563103 0.11376617 4.2505261 0.24135631 6.375 0.375 C8.15003906 0.47941406 8.15003906 0.47941406 9.9609375 0.5859375 C13 1 13 1 15 3 C12.36 3 9.72 3 7 3 C7.33 4.98 7.66 6.96 8 9 C7.21625 8.360625 6.4325 7.72125 5.625 7.0625 C3.20460719 5.01857687 3.20460719 5.01857687 1 4 C0.375 1.9375 0.375 1.9375 0 0 Z " fill="#D267FF" transform="translate(36,17)"/>
<path d="M0 0 C0.99 0 1.98 0 3 0 C2.67 3.96 2.34 7.92 2 12 C0.02 12.66 -1.96 13.32 -4 14 C-3.57284915 11.00994406 -3.02444026 9.04008203 -1.4375 6.4375 C0.33865668 3.89739071 0.33865668 3.89739071 0 0 Z " fill="#CE59FC" transform="translate(8,25)"/>
<path d="M0 0 C1.32 0.66 2.64 1.32 4 2 C4 1.34 4 0.68 4 0 C5.65 0.33 7.3 0.66 9 1 C9 2.32 9 3.64 9 5 C6.69 4.34 4.38 3.68 2 3 C2 4.32 2 5.64 2 7 C1.01 6.67 0.02 6.34 -1 6 C-1.66 6.99 -2.32 7.98 -3 9 C-3.75 6.75 -3.75 6.75 -4 4 C-2.0625 1.6875 -2.0625 1.6875 0 0 Z " fill="#AD3CEC" transform="translate(19,38)"/>
<path d="M0 0 C2.64 0.33 5.28 0.66 8 1 C7.6875 2.875 7.6875 2.875 7 5 C4 7 4 7 1.8125 6.625 C1.214375 6.41875 0.61625 6.2125 0 6 C-1.125 2.25 -1.125 2.25 0 0 Z " fill="#D171FE" transform="translate(18,25)"/>
<path d="M0 0 C1.0326802 2.78823655 1.04509293 3.8677274 0.0625 6.75 C-0.288125 7.4925 -0.63875 8.235 -1 9 C-3.97 8.505 -3.97 8.505 -7 8 C-6.875 6.25 -6.875 6.25 -6 4 C-2.9375 1.75 -2.9375 1.75 0 0 Z " fill="#A22BE4" transform="translate(35,21)"/>
<path d="M0 0 C-0.61875 0.28875 -1.2375 0.5775 -1.875 0.875 C-4.13325765 1.93720042 -4.13325765 1.93720042 -6 4 C-6 3.34 -6 2.68 -6 2 C-11.09210286 5.56320845 -15.22660027 9.04741286 -19 14 C-19 10.8004847 -18.65211678 9.66721047 -17 7 C-15.16015625 5.33203125 -15.16015625 5.33203125 -13.0625 3.8125 C-12.37285156 3.30332031 -11.68320312 2.79414063 -10.97265625 2.26953125 C-7.30621659 -0.09005863 -4.24889008 -0.09441978 0 0 Z " fill="#CF76F6" transform="translate(35,11)"/>
<path d="M0 0 C0.33 0 0.66 0 1 0 C1.3125 2.6875 1.3125 2.6875 1 6 C-1.3125 8.6875 -1.3125 8.6875 -4 11 C-4.598125 11.598125 -5.19625 12.19625 -5.8125 12.8125 C-6.204375 13.204375 -6.59625 13.59625 -7 14 C-7.99 13.67 -8.98 13.34 -10 13 C-8.76302083 11.53515625 -7.52604167 10.0703125 -6.2890625 8.60546875 C-5.10798901 7.1344954 -4.04641471 5.56962206 -3 4 C-3 4.66 -3 5.32 -3 6 C-2.34 6 -1.68 6 -1 6 C-0.67 4.02 -0.34 2.04 0 0 Z " fill="#5C357D" transform="translate(47,29)"/>
<path d="M0 0 C0.33 0.99 0.66 1.98 1 3 C1.99 3.33 2.98 3.66 4 4 C3.01 4.66 2.02 5.32 1 6 C0.67 6.99 0.34 7.98 0 9 C-1 12 -1 12 -4 14 C-3.71572583 12.41532272 -3.42225182 10.8322943 -3.125 9.25 C-2.96257813 8.36828125 -2.80015625 7.4865625 -2.6328125 6.578125 C-2.03203736 4.13052256 -1.22002883 2.19400143 0 0 Z " fill="#9B37E2" transform="translate(8,21)"/>
<path d="M0 0 C0.66 0.33 1.32 0.66 2 1 C0.89966185 2.60679516 -0.20542664 4.21033793 -1.3125 5.8125 C-1.92738281 6.70582031 -2.54226562 7.59914063 -3.17578125 8.51953125 C-4.67715037 10.56100746 -6.14785401 12.28462787 -8 14 C-8.33 13.34 -8.66 12.68 -9 12 C-8.06692579 10.55962331 -7.12834923 9.12281015 -6.1875 7.6875 C-5.66542969 6.88699219 -5.14335937 6.08648437 -4.60546875 5.26171875 C-3.19610151 3.2762598 -1.77903343 1.6508148 0 0 Z " fill="#46355E" transform="translate(23,16)"/>
<path d="M0 0 C0.99 0.33 1.98 0.66 3 1 C4.33599181 4.00598158 5.14345053 6.09147996 4.625 9.375 C4.41875 9.91125 4.2125 10.4475 4 11 C1.11670417 7.744666 -0.63331529 5.40021656 -1 1 C-0.67 0.67 -0.34 0.34 0 0 Z " fill="#252426" transform="translate(12,40)"/>
<path d="M0 0 C0.66 0.33 1.32 0.66 2 1 C2 2.32 2 3.64 2 5 C0.68 5.33 -0.64 5.66 -2 6 C-2 6.66 -2 7.32 -2 8 C-2.99 8 -3.98 8 -5 8 C-5.33 7.01 -5.66 6.02 -6 5 C-6.66 4.34 -7.32 3.68 -8 3 C-7.05125 2.690625 -6.1025 2.38125 -5.125 2.0625 C-2.13919592 1.12605258 -2.13919592 1.12605258 0 0 Z " fill="#C25EFC" transform="translate(33,35)"/>
<path d="M0 0 C0.99 0 1.98 0 3 0 C3.08097324 2.27024968 3.13917704 4.54132075 3.1875 6.8125 C3.22230469 8.07707031 3.25710937 9.34164062 3.29296875 10.64453125 C3 14 3 14 1.48828125 15.94921875 C0.99714844 16.29597656 0.50601563 16.64273438 0 17 C-1 15 -1 15 0 11.875 C1.33400624 7.65064689 0.75867096 4.32442449 0 0 Z " fill="#D04DFE" transform="translate(53,24)"/>
<path d="M0 0 C0.33 0 0.66 0 1 0 C1.28571429 7.42857143 1.28571429 7.42857143 -1 11 C-2.32 10.67 -3.64 10.34 -5 10 C-3.35 6.7 -1.7 3.4 0 0 Z " fill="#242328" transform="translate(36,24)"/>
<path d="M0 0 C1.32 0.66 2.64 1.32 4 2 C0.5233662 4.14336161 -2.21229195 4.21277626 -6.25 4.125 C-7.32765625 4.10695313 -8.4053125 4.08890625 -9.515625 4.0703125 C-10.33546875 4.04710937 -11.1553125 4.02390625 -12 4 C-10 2 -10 2 -7.6171875 1.8046875 C-6.71226563 1.82789063 -5.80734375 1.85109375 -4.875 1.875 C-3.50988281 1.90207031 -3.50988281 1.90207031 -2.1171875 1.9296875 C-1.41851562 1.95289063 -0.71984375 1.97609375 0 2 C0 1.34 0 0.68 0 0 Z " fill="#9E3FD4" transform="translate(40,53)"/>
<path d="M0 0 C0.66 0.99 1.32 1.98 2 3 C2.8353125 3.99 2.8353125 3.99 3.6875 5 C4.120625 5.66 4.55375 6.32 5 7 C4.67 7.99 4.34 8.98 4 10 C0.26115668 7.34345343 -1.64978174 5.41889613 -3 1 C-2.01 0.67 -1.02 0.34 0 0 Z " fill="#50357D" transform="translate(11,43)"/>
<path d="M0 0 C0.99 0.495 0.99 0.495 2 1 C3.46125461 9.10332103 3.46125461 9.10332103 2 13 C1.34 13 0.68 13 0 13 C0 8.71 0 4.42 0 0 Z " fill="#131513" transform="translate(44,22)"/>
<path d="M0 0 C0.66 0.66 1.32 1.32 2 2 C4.57061311 2.64767793 4.57061311 2.64767793 7 3 C6.01 4.485 6.01 4.485 5 6 C3.68 5.67 2.36 5.34 1 5 C0.67 5.66 0.34 6.32 0 7 C-0.66 5.35 -1.32 3.7 -2 2 C-1.34 1.34 -0.68 0.68 0 0 Z " fill="#B533F1" transform="translate(26,14)"/>
<path d="M0 0 C0.89203125 0.10183594 1.7840625 0.20367187 2.703125 0.30859375 C3.37859375 0.39238281 4.0540625 0.47617187 4.75 0.5625 C4.75 0.8925 4.75 1.2225 4.75 1.5625 C1.78 1.5625 -1.19 1.5625 -4.25 1.5625 C-4.25 2.2225 -4.25 2.8825 -4.25 3.5625 C-7.22 3.0675 -7.22 3.0675 -10.25 2.5625 C-9.25 0.5625 -9.25 0.5625 -7.515625 -0.08984375 C-4.88480179 -0.49353904 -2.64068309 -0.31271247 0 0 Z " fill="#CE67FA" transform="translate(37.25,3.4375)"/>
<path d="M0 0 C1.98 0 3.96 0 6 0 C6.33 1.32 6.66 2.64 7 4 C6.01 4.66 5.02 5.32 4 6 C2.68 5.34 1.36 4.68 0 4 C0 2.68 0 1.36 0 0 Z " fill="#393742" transform="translate(44,39)"/>
<path d="M0 0 C0.33 0.66 0.66 1.32 1 2 C2.32 1.67 3.64 1.34 5 1 C4.6875 3.375 4.6875 3.375 4 6 C3.01 6.66 2.02 7.32 1 8 C0.67 7.01 0.34 6.02 0 5 C-0.66 4.67 -1.32 4.34 -2 4 C-1.34 2.68 -0.68 1.36 0 0 Z " fill="#4A376F" transform="translate(35,33)"/>
<path d="M0 0 C1.65 1.32 3.3 2.64 5 4 C3.625 6.5 3.625 6.5 2 9 C1.34 9 0.68 9 0 9 C0 6.03 0 3.06 0 0 Z " fill="#A842F4" transform="translate(16,29)"/>
<path d="M0 0 C0.66 0.33 1.32 0.66 2 1 C2.625 3.5625 2.625 3.5625 3 6 C0.69 6 -1.62 6 -4 6 C-3.6875 4.125 -3.6875 4.125 -3 2 C-2.01 1.34 -1.02 0.68 0 0 Z " fill="#CE92F2" transform="translate(37,44)"/>
<path d="M0 0 C0 3.39593478 -0.52165948 4.06619881 -2.5 6.6875 C-2.9640625 7.31011719 -3.428125 7.93273438 -3.90625 8.57421875 C-4.2671875 9.04472656 -4.628125 9.51523437 -5 10 C-4.01 10.33 -3.02 10.66 -2 11 C-2 11.66 -2 12.32 -2 13 C-2.99 13.33 -3.98 13.66 -5 14 C-6.2109375 11.80078125 -6.2109375 11.80078125 -7 9 C-5.6640625 6.54296875 -5.6640625 6.54296875 -3.625 4.1875 C-2.95726562 3.39730469 -2.28953125 2.60710938 -1.6015625 1.79296875 C-1.07304688 1.20128906 -0.54453125 0.60960937 0 0 Z " fill="#B74BF4" transform="translate(45,36)"/>
<path d="M0 0 C0.7734375 0.61875 0.7734375 0.61875 1.5625 1.25 C-4.9375 5.25 -4.9375 5.25 -9.4375 5.25 C-9.4375 4.59 -9.4375 3.93 -9.4375 3.25 C-3.0375 -0.93461538 -3.0375 -0.93461538 0 0 Z " fill="#BF49F2" transform="translate(27.4375,5.75)"/>
<path d="M0 0 C0.33 0.66 0.66 1.32 1 2 C3.01669827 3.13350534 3.01669827 3.13350534 5 4 C3.66666667 6.66666667 2.33333333 9.33333333 1 12 C-0.26237731 9.47524538 -0.09856404 7.68799534 -0.0625 4.875 C-0.05347656 3.96492188 -0.04445312 3.05484375 -0.03515625 2.1171875 C-0.02355469 1.41851563 -0.01195312 0.71984375 0 0 Z " fill="#553676" transform="translate(36,21)"/>
<path d="M0 0 C0 0.99 0 1.98 0 3 C-3.37097383 4.49821059 -5.20442119 5 -9 5 C-9 4.01 -9 3.02 -9 2 C-6.03 1.34 -3.06 0.68 0 0 Z " fill="#36323E" transform="translate(43,48)"/>
<path d="M0 0 C0.66 0 1.32 0 2 0 C1.566875 0.928125 1.566875 0.928125 1.125 1.875 C-0.41711805 6.15866124 -1.18398547 10.52928212 -2 15 C-2.33 15 -2.66 15 -3 15 C-3.35050464 9.158256 -3.16727335 5.1468192 0 0 Z " fill="#322E37" transform="translate(13,22)"/>
<path d="M0 0 C-0.33 1.65 -0.66 3.3 -1 5 C-2.65 5.33 -4.3 5.66 -6 6 C-6.33 5.01 -6.66 4.02 -7 3 C-5.40442685 -0.19114631 -3.35905282 0 0 0 Z " fill="#8631CF" transform="translate(12,39)"/>
<path d="M0 0 C-0.99 0.33 -1.98 0.66 -3 1 C-2.67 2.98 -2.34 4.96 -2 7 C-4.43929746 5.07423885 -6.80090595 3.19909405 -9 1 C-5.92677456 0.08941469 -3.19902639 -0.08886184 0 0 Z " fill="#7E3BBC" transform="translate(46,19)"/>
<path d="M0 0 C2.97 0 5.94 0 9 0 C6 3 6 3 2.8125 3.1875 C1.4203125 3.0946875 1.4203125 3.0946875 0 3 C0 2.01 0 1.02 0 0 Z " fill="#D650FF" transform="translate(34,6)"/>
<path d="M0 0 C-0.495 0.474375 -0.99 0.94875 -1.5 1.4375 C-3.11542197 2.75923698 -3.11542197 2.75923698 -3 4 C-5.31 4.33 -7.62 4.66 -10 5 C-9.6875 3.0625 -9.6875 3.0625 -9 1 C-5.8035914 -0.06546953 -3.34252724 -0.07427838 0 0 Z " fill="#D3AAED" transform="translate(40,9)"/>
<path d="M0 0 C2.97 0.495 2.97 0.495 6 1 C6.33 2.32 6.66 3.64 7 5 C4.625 4.75 4.625 4.75 2 4 C0.6875 1.9375 0.6875 1.9375 0 0 Z " fill="#7231A6" transform="translate(24,47)"/>
<path d="M0 0 C1.65 0 3.3 0 5 0 C5 1.32 5 2.64 5 4 C2.36 4 -0.28 4 -3 4 C-1.68 3.67 -0.36 3.34 1 3 C0.67 2.01 0.34 1.02 0 0 Z " fill="#D293F0" transform="translate(30,40)"/>
<path d="M0 0 C1.32 0.66 2.64 1.32 4 2 C4 2.66 4 3.32 4 4 C2.02 4.33 0.04 4.66 -2 5 C-1.34 3.35 -0.68 1.7 0 0 Z " fill="#323233" transform="translate(47,35)"/>
<path d="M0 0 C0 0.99 0 1.98 0 3 C-1.66666667 3 -3.33333333 3 -5 3 C-5.33 2.01 -5.66 1.02 -6 0 C-3.50907189 -1.24546405 -2.58919267 -0.7767578 0 0 Z " fill="#282727" transform="translate(53,24)"/>
<path d="M0 0 C2 3 2 3 1.625 5.1875 C1.41875 5.785625 1.2125 6.38375 1 7 C0.01 7 -0.98 7 -2 7 C-2.125 4.625 -2.125 4.625 -2 2 C-1.34 1.34 -0.68 0.68 0 0 Z " fill="#CF74FE" transform="translate(11,17)"/>
<path d="M0 0 C0.66 0.99 1.32 1.98 2 3 C1.34 4.32 0.68 5.64 0 7 C-0.99 6.34 -1.98 5.68 -3 5 C-1.125 1.125 -1.125 1.125 0 0 Z " fill="#56367F" transform="translate(43,41)"/>
<path d="M0 0 C0.99 0.99 1.98 1.98 3 3 C-0.22791555 5.1519437 -1.28400809 5.20086443 -5 5 C-3.35 3.35 -1.7 1.7 0 0 Z " fill="#8C31DA" transform="translate(30,33)"/>
<path d="M0 0 C1.65 0 3.3 0 5 0 C3.6875 2 3.6875 2 2 4 C1.01 4 0.02 4 -1 4 C-0.67 2.68 -0.34 1.36 0 0 Z " fill="#CE87FD" transform="translate(25,33)"/>
<path d="M0 0 C2.31 0 4.62 0 7 0 C4.64722731 2.72426311 2.37503669 3.8141763 -1 5 C-0.67 3.35 -0.34 1.7 0 0 Z " fill="#B144F6" transform="translate(25,9)"/>
</svg>
