<?xml version="1.0" encoding="UTF-8"?>
<svg version="1.1" xmlns="http://www.w3.org/2000/svg" width="62" height="62">
<path d="M0 0 C7.2243945 6.4456455 11.92530396 13.42129934 13.30078125 23.12109375 C13.62451798 31.58936505 11.79528976 40.61836328 6 47 C0.08564325 52.07875038 -5.40667612 53.89686245 -13.17578125 53.44921875 C-20.77210585 52.24095135 -26.33226752 48.00786006 -31 42 C-36.68403199 32.46786366 -37.97443579 24.01000435 -37 13 C-34.99920726 6.11834964 -31.10277478 0.78292951 -25 -3 C-16.77886716 -6.56766142 -7.20347383 -5.28720992 0 0 Z " fill="#824F11" transform="translate(46,8)"/>
<path d="M0 0 C8.23987509 4.56880234 13.80971824 12.13649134 16.54296875 21.03515625 C18.38673846 29.23931275 17.13342661 38.45303695 13.125 45.875 C9.80292378 50.64019388 5.5267322 53.57219192 0.125 55.625 C-6.3450033 56.70749733 -12.3435972 56.32079289 -18.0625 52.9609375 C-22.88362579 49.4074353 -27.34842358 45.12401928 -29.875 39.625 C-29.875 38.305 -29.875 36.985 -29.875 35.625 C-28.39 35.13 -28.39 35.13 -26.875 34.625 C-25.885 35.285 -24.895 35.945 -23.875 36.625 C-22.885 36.625 -21.895 36.625 -20.875 36.625 C-20.215 35.635 -19.555 34.645 -18.875 33.625 C-18.875 35.275 -18.875 36.925 -18.875 38.625 C-15.47585025 37.49195008 -14.82245549 36.49981525 -12.875 33.625 C-12.875 35.935 -12.875 38.245 -12.875 40.625 C-10.895 40.13 -10.895 40.13 -8.875 39.625 C-8.875 38.635 -8.875 37.645 -8.875 36.625 C-8.070625 36.50125 -7.26625 36.3775 -6.4375 36.25 C-5.591875 36.04375 -4.74625 35.8375 -3.875 35.625 C-3.545 34.965 -3.215 34.305 -2.875 33.625 C-2.875 37.0648759 -3.33941758 39.05771292 -5.72265625 41.58203125 C-7.73308262 43.32298248 -9.76793753 45.00270589 -11.875 46.625 C-4.9960931 45.29616763 -4.9960931 45.29616763 0.1875 41 C1.63003289 35.8068816 2.85947997 30.8284399 1.125 25.625 C-0.89008358 24.89176204 -0.89008358 24.89176204 -2.875 24.625 C-2.875 26.605 -2.875 28.585 -2.875 30.625 C-3.865 30.625 -4.855 30.625 -5.875 30.625 C-6.205 26.995 -6.535 23.365 -6.875 19.625 C-5.555 19.625 -4.235 19.625 -2.875 19.625 C-2.545 17.975 -2.215 16.325 -1.875 14.625 C1.37643483 17.25711391 3.06770278 20.64545073 4.125 24.625 C4.35948942 27.97624465 4.3071405 31.27226563 4.125 34.625 C4.785 34.625 5.445 34.625 6.125 34.625 C6.125 33.965 6.125 33.305 6.125 32.625 C8.435 32.955 10.745 33.285 13.125 33.625 C13.01707179 30.7207107 13.01707179 30.7207107 12.125 27.625 C9.68190423 25.70755407 9.68190423 25.70755407 7.125 24.625 C6.795 25.285 6.465 25.945 6.125 26.625 C5.465 24.315 4.805 22.005 4.125 19.625 C5.115 19.295 6.105 18.965 7.125 18.625 C3.58215254 12.27314586 3.58215254 12.27314586 -1.875 7.625 C-1.875 9.275 -1.875 10.925 -1.875 12.625 C-6.495 11.635 -11.115 10.645 -15.875 9.625 C-15.215 9.295 -14.555 8.965 -13.875 8.625 C-13.875 7.635 -13.875 6.645 -13.875 5.625 C-13.215 5.295 -12.555 4.965 -11.875 4.625 C-12.865 3.635 -13.855 2.645 -14.875 1.625 C-12.30219572 -3.52060856 -4.46408901 -1.89790611 0 0 Z " fill="#CB7D1B" transform="translate(41.875,5.375)"/>
<path d="M0 0 C-0.99 0.66 -1.98 1.32 -3 2 C-3.66 2.66 -4.32 3.32 -5 4 C-4.34 5.32 -3.68 6.64 -3 8 C-3.99 8 -4.98 8 -6 8 C-6 8.99 -6 9.98 -6 11 C-2.04 12.32 1.92 13.64 6 15 C6 13.35 6 11.7 6 10 C8.89104992 11.29598789 11.03018393 12.49296136 13 15 C14.1875 18.1875 14.1875 18.1875 15 21 C14.34 21.66 13.68 22.32 13 23 C13.65589738 24.98264795 13.65589738 24.98264795 15 27 C17.50447516 28.21869929 17.50447516 28.21869929 20 29 C21 30 21 30 21.0625 33.0625 C21.041875 34.031875 21.02125 35.00125 21 36 C18.69 35.67 16.38 35.34 14 35 C14 35.66 14 36.32 14 37 C13.34 37 12.68 37 12 37 C11.97421875 36.38253906 11.9484375 35.76507813 11.921875 35.12890625 C11.49051026 28.68784636 9.96932108 23.71766942 7 18 C6.67 19.65 6.34 21.3 6 23 C4.35 22.67 2.7 22.34 1 22 C1.33 24.31 1.66 26.62 2 29 C0.68 29 -0.64 29 -2 29 C-2.25136719 28.38511719 -2.50273437 27.77023438 -2.76171875 27.13671875 C-4.82795182 23.57132605 -8.28120013 22.48322076 -12 21 C-13.65740715 20.62331656 -15.32345271 20.27942455 -17 20 C-19.3125 18.9375 -19.3125 18.9375 -21 18 C-20.01 16.35 -19.02 14.7 -18 13 C-19.32 13 -20.64 13 -22 13 C-20.61575819 7.77064203 -17.36032362 4.92159336 -13 2 C-8.54192949 0.27934121 -4.75991794 -0.23219112 0 0 Z " fill="#C4660A" transform="translate(34,3)"/>
<path d="M0 0 C5.47550908 3.07528592 9.86931654 7.25809823 13.125 12.625 C14.10125257 17.00847069 14.30049411 21.14639041 14.125 25.625 C13.465 24.965 12.805 24.305 12.125 23.625 C12.125 22.635 12.125 21.645 12.125 20.625 C11.34125 20.5425 10.5575 20.46 9.75 20.375 C7.125 19.625 7.125 19.625 6 17.875 C5.71125 17.1325 5.4225 16.39 5.125 15.625 C3.21303176 12.06178646 1.52085861 9.84987288 -1.875 7.625 C-1.875 9.275 -1.875 10.925 -1.875 12.625 C-6.495 11.635 -11.115 10.645 -15.875 9.625 C-15.215 9.295 -14.555 8.965 -13.875 8.625 C-13.875 7.635 -13.875 6.645 -13.875 5.625 C-13.215 5.295 -12.555 4.965 -11.875 4.625 C-12.865 3.635 -13.855 2.645 -14.875 1.625 C-12.30219572 -3.52060856 -4.46408901 -1.89790611 0 0 Z " fill="#D1801E" transform="translate(41.875,5.375)"/>
<path d="M0 0 C2.89104992 1.29598789 5.03018393 2.49296136 7 5 C8.1875 8.1875 8.1875 8.1875 9 11 C8.34 11.66 7.68 12.32 7 13 C7.65589738 14.98264795 7.65589738 14.98264795 9 17 C11.50447516 18.21869929 11.50447516 18.21869929 14 19 C15 20 15 20 15.0625 23.0625 C15.041875 24.031875 15.02125 25.00125 15 26 C12.69 25.67 10.38 25.34 8 25 C8 25.66 8 26.32 8 27 C7.34 27 6.68 27 6 27 C5.97421875 26.38253906 5.9484375 25.76507813 5.921875 25.12890625 C5.49051026 18.68784636 3.96932108 13.71766942 1 8 C0.67 9.65 0.34 11.3 0 13 C-4.75 12.125 -4.75 12.125 -7 11 C-7.33 10.01 -7.66 9.02 -8 8 C-9.86022072 6.76722873 -9.86022072 6.76722873 -12.0625 5.8125 C-12.79597656 5.46832031 -13.52945312 5.12414062 -14.28515625 4.76953125 C-14.85105469 4.51558594 -15.41695312 4.26164062 -16 4 C-16 3.67 -16 3.34 -16 3 C-10.22192976 2.7641604 -5.48675196 3.13216954 0 5 C0 3.35 0 1.7 0 0 Z " fill="#BE660C" transform="translate(40,13)"/>
<path d="M0 0 C0.33 0 0.66 0 1 0 C1 1.65 1 3.3 1 5 C4.39914975 3.86695008 5.05254451 2.87481525 7 0 C7 2.31 7 4.62 7 7 C8.32 6.67 9.64 6.34 11 6 C11 5.01 11 4.02 11 3 C11.804375 2.87625 12.60875 2.7525 13.4375 2.625 C14.283125 2.41875 15.12875 2.2125 16 2 C16.33 1.34 16.66 0.68 17 0 C17 3.27175308 16.4920736 5.38521478 14.43359375 7.95703125 C11.16139651 11.10115815 8.47811024 13.44760037 3.8125 13.625 C-0.02725374 12.99553217 -1.93490656 12.31953017 -5 10 C-5.928125 9.360625 -6.85625 8.72125 -7.8125 8.0625 C-8.534375 7.381875 -9.25625 6.70125 -10 6 C-10 4.68 -10 3.36 -10 2 C-9.01 1.67 -8.02 1.34 -7 1 C-6.01 1.66 -5.02 2.32 -4 3 C-3.01 3 -2.02 3 -1 3 C-0.67 2.01 -0.34 1.02 0 0 Z " fill="#D28923" transform="translate(22,39)"/>
<path d="M0 0 C5.47550908 3.07528592 9.86931654 7.25809823 13.125 12.625 C14.10125257 17.00847069 14.30049411 21.14639041 14.125 25.625 C11.36276722 22.86276722 11.54643709 20.41793383 11.125 16.625 C10.465 16.625 9.805 16.625 9.125 16.625 C8.691875 15.573125 8.25875 14.52125 7.8125 13.4375 C6.48629459 10.33039018 4.9417024 7.47981805 3.125 4.625 C3.125 5.285 3.125 5.945 3.125 6.625 C2.11179687 6.39103516 2.11179687 6.39103516 1.078125 6.15234375 C0.18609375 5.95769531 -0.7059375 5.76304688 -1.625 5.5625 C-2.94757812 5.26666016 -2.94757812 5.26666016 -4.296875 4.96484375 C-6.82846619 4.4678679 -6.82846619 4.4678679 -9.0625 5.1875 C-9.660625 5.331875 -10.25875 5.47625 -10.875 5.625 C-13.125 3.6875 -13.125 3.6875 -14.875 1.625 C-12.30219572 -3.52060856 -4.46408901 -1.89790611 0 0 Z M-13.875 5.625 C-10.875 6.625 -10.875 6.625 -10.875 6.625 Z " fill="#D2892A" transform="translate(41.875,5.375)"/>
<path d="M0 0 C2.475 0.495 2.475 0.495 5 1 C6.57849902 7.31399607 5.16790315 11.90849167 2.9375 17.8125 C-0.98928785 22.24597016 -8.25588458 23.58970604 -14 24 C-14.99 23.34 -15.98 22.68 -17 22 C-16.33613281 21.91363281 -15.67226563 21.82726562 -14.98828125 21.73828125 C-9.16509776 20.81167249 -5.71988335 19.91984572 -2 15 C-0.9458482 11.83754459 -0.68724328 9.13051782 -0.4375 5.8125 C-0.35371094 4.72582031 -0.26992188 3.63914063 -0.18359375 2.51953125 C-0.09271484 1.27236328 -0.09271484 1.27236328 0 0 Z " fill="#2C2A20" transform="translate(39,30)"/>
<path d="M0 0 C0.66 0 1.32 0 2 0 C1.8453125 1.6396875 1.8453125 1.6396875 1.6875 3.3125 C1.790625 4.529375 1.89375 5.74625 2 7 C4.60658315 9.1134458 6.8255959 9.9418653 10 11 C10.33 10.01 10.66 9.02 11 8 C11.99 8.33 12.98 8.66 14 9 C14.125 11.375 14.125 11.375 14 14 C12.66666667 15.33333333 11.33333333 16.66666667 10 18 C9.67 17.34 9.34 16.68 9 16 C8.13375 16.309375 8.13375 16.309375 7.25 16.625 C4.45629531 17.09061745 3.41342162 16.36760558 1 15 C0.34 15 -0.32 15 -1 15 C-1.33 15.66 -1.66 16.32 -2 17 C-3.45184478 12.46298506 -4.23509196 8.81938524 -4 4 C-3.67 4.66 -3.34 5.32 -3 6 C-2.01 6 -1.02 6 0 6 C0 4.02 0 2.04 0 0 Z " fill="#AB6004" transform="translate(13,26)"/>
<path d="M0 0 C3.49550835 3.49550835 4.11771677 8.31915363 4.5 13.125 C3.97879023 17.16437573 3.89305335 17.58457338 1 20 C0.01 20.66 -0.98 21.32 -2 22 C-4.475 21.01 -4.475 21.01 -7 20 C-7 19.34 -7 18.68 -7 18 C-4.69 18.33 -2.38 18.66 0 19 C-0.10792821 16.0957107 -0.10792821 16.0957107 -1 13 C-3.44309577 11.08255407 -3.44309577 11.08255407 -6 10 C-6.33 10.66 -6.66 11.32 -7 12 C-7.66 9.69 -8.32 7.38 -9 5 C-5.88365565 5 -3.88144034 5.10575989 -1 6 C-0.67 6.33 -0.34 6.66 0 7 C0 4.69 0 2.38 0 0 Z " fill="#C26105" transform="translate(55,20)"/>
<path d="M0 0 C3.11373372 1.49920512 6.12228205 3.08152136 9 5 C9 5.66 9 6.32 9 7 C10.8871875 6.87625 10.8871875 6.87625 12.8125 6.75 C16.71651337 6.74309024 16.71651337 6.74309024 19 8.8125 C20 11 20 11 20 14 C24.29 13.34 28.58 12.68 33 12 C27.60102931 16.04922802 23.55584387 15.7424894 17 15 C10.75259129 13.23007645 6.03503582 8.97290901 2 4 C1.29297816 2.68761959 0.6137169 1.35851897 0 0 Z " fill="#BA640D" transform="translate(13,46)"/>
<path d="M0 0 C1.65 0 3.3 0 5 0 C4.835 0.61875 4.67 1.2375 4.5 1.875 C3.92365356 3.96063386 3.92365356 3.96063386 4 6 C5.98 6 7.96 6 10 6 C10.66 7.32 11.32 8.64 12 10 C8.7 9.67 5.4 9.34 2 9 C2 11.31 2 13.62 2 16 C1.01 16 0.02 16 -1 16 C-3.12551114 11.74897771 -2.43325054 6.32682977 -1 1.9375 C-0.67 1.298125 -0.34 0.65875 0 0 Z " fill="#A35C00" transform="translate(11,16)"/>
<path d="M0 0 C0.66 0 1.32 0 2 0 C2.23074219 0.55429687 2.46148437 1.10859375 2.69921875 1.6796875 C4.71942729 6.40471888 4.71942729 6.40471888 8.6875 9.4375 C9.450625 9.623125 10.21375 9.80875 11 10 C12 11 12 11 12.0625 14.0625 C12.041875 15.031875 12.02125 16.00125 12 17 C9.69 16.67 7.38 16.34 5 16 C5 16.66 5 17.32 5 18 C4.34 18 3.68 18 3 18 C2.92652344 16.98679687 2.92652344 16.98679687 2.8515625 15.953125 C2.77679688 15.06109375 2.70203125 14.1690625 2.625 13.25 C2.55539063 12.36828125 2.48578125 11.4865625 2.4140625 10.578125 C2.13321917 8.00691324 2.13321917 8.00691324 0.9609375 5.921875 C0 4 0 4 0 0 Z " fill="#996200" transform="translate(43,22)"/>
<path d="M0 0 C0.66 0 1.32 0 2 0 C2 0.66 2 1.32 2 2 C2.763125 1.979375 3.52625 1.95875 4.3125 1.9375 C7 2 7 2 10 3 C12.33006911 3.35543427 14.66327016 3.6913753 17 4 C17 7 17 7 16 9 C7.30278884 9.44223108 7.30278884 9.44223108 3 6 C0 2.5862069 0 2.5862069 0 0 Z " fill="#D59A36" transform="translate(14,43)"/>
<path d="M0 0 C3.32532111 2.69192661 4.52454943 6.06546515 6 10 C6 10.99 6 11.98 6 13 C5.34 13 4.68 13 4 13 C3.67 12.34 3.34 11.68 3 11 C0.97536745 10.34786708 0.97536745 10.34786708 -1 10 C-1 11.98 -1 13.96 -1 16 C-1.99 16 -2.98 16 -4 16 C-4.33 12.37 -4.66 8.74 -5 5 C-3.68 5 -2.36 5 -1 5 C-0.67 3.35 -0.34 1.7 0 0 Z " fill="#D39755" transform="translate(40,20)"/>
<path d="M0 0 C-0.99 0.66 -1.98 1.32 -3 2 C-3.66 2.66 -4.32 3.32 -5 4 C-4.34 5.32 -3.68 6.64 -3 8 C-4.41433206 8.2236337 -5.83167618 8.42826476 -7.25 8.625 C-8.03890625 8.74101562 -8.8278125 8.85703125 -9.640625 8.9765625 C-12.32152459 9.00319395 -13.72694089 8.36592084 -16 7 C-15.76171875 5.109375 -15.76171875 5.109375 -15 3 C-10.42464984 0.41853928 -5.19488998 -0.39960692 0 0 Z " fill="#C97213" transform="translate(34,3)"/>
<path d="M0 0 C2.66666667 0.66666667 5.33333333 1.33333333 8 2 C9.125 5.75 9.125 5.75 8 8 C0.88059701 10.55223881 0.88059701 10.55223881 -3 9 C-3 6 -3 6 -1 4 C-0.3574765 1.93125966 -0.3574765 1.93125966 0 0 Z " fill="#D7A043" transform="translate(44,44)"/>
<path d="M0 0 C1.85546875 0.94921875 1.85546875 0.94921875 2.85546875 3.94921875 C3.51546875 3.94921875 4.17546875 3.94921875 4.85546875 3.94921875 C6.85546875 6.94921875 6.85546875 6.94921875 6.48046875 9.13671875 C6.17109375 10.03390625 6.17109375 10.03390625 5.85546875 10.94921875 C4.86546875 10.61921875 3.87546875 10.28921875 2.85546875 9.94921875 C2.54222656 9.31371094 2.22898437 8.67820312 1.90625 8.0234375 C0.08384303 4.4260468 -3.53164758 3.39019547 -7.14453125 1.94921875 C-8.8019384 1.57253531 -10.46798396 1.2286433 -12.14453125 0.94921875 C-14.45703125 -0.11328125 -14.45703125 -0.11328125 -16.14453125 -1.05078125 C-10.30192268 -2.99831744 -5.69167081 -1.80188573 0 0 Z " fill="#BC5901" transform="translate(29.14453125,22.05078125)"/>
<path d="M0 0 C0.33 0 0.66 0 1 0 C1 1.65 1 3.3 1 5 C4.39914975 3.86695008 5.05254451 2.87481525 7 0 C6.67 2.31 6.34 4.62 6 7 C4.56260487 7.02712066 3.12506137 7.04645067 1.6875 7.0625 C0.48673828 7.07990234 0.48673828 7.07990234 -0.73828125 7.09765625 C-3.171775 6.99258312 -5.20432006 6.79567994 -7 5 C-7.66 5.66 -8.32 6.32 -9 7 C-9.33 5.35 -9.66 3.7 -10 2 C-9.01 1.67 -8.02 1.34 -7 1 C-6.01 1.66 -5.02 2.32 -4 3 C-3.01 3 -2.02 3 -1 3 C-0.67 2.01 -0.34 1.02 0 0 Z " fill="#CC7C1D" transform="translate(22,39)"/>
<path d="M0 0 C0.12375 0.639375 0.2475 1.27875 0.375 1.9375 C0.684375 2.9584375 0.684375 2.9584375 1 4 C1.66 4.33 2.32 4.66 3 5 C3 3.68 3 2.36 3 1 C3.99 1 4.98 1 6 1 C5.67 2.65 5.34 4.3 5 6 C3.35 6.33 1.7 6.66 0 7 C0 7.99 0 8.98 0 10 C-1.32 10.33 -2.64 10.66 -4 11 C-4.6875 9.3125 -4.6875 9.3125 -5 7 C-3.6007781 4.20155619 -2.21208617 2.21208617 0 0 Z " fill="#AC6407" transform="translate(33,35)"/>
<path d="M0 0 C1.0828125 0.495 1.0828125 0.495 2.1875 1 C5.01697427 2.00603529 7.02895466 2.16977402 10 2 C9.36086933 7.43261068 6.9413193 11.38223392 2.75 14.875 C1.88375 15.431875 1.88375 15.431875 1 16 C0.34 15.67 -0.32 15.34 -1 15 C-0.55527344 14.52949219 -0.11054687 14.05898438 0.34765625 13.57421875 C1.19650391 12.64029297 1.19650391 12.64029297 2.0625 11.6875 C2.63097656 11.07261719 3.19945312 10.45773438 3.78515625 9.82421875 C4.38650391 8.92123047 4.38650391 8.92123047 5 8 C4.67 7.01 4.34 6.02 4 5 C1.98491642 4.26676204 1.98491642 4.26676204 0 4 C0 2.68 0 1.36 0 0 Z " fill="#9D641E" transform="translate(47,42)"/>
<path d="M0 0 C2.729442 1.22405356 5.37461918 2.56736834 8 4 C8 4.66 8 5.32 8 6 C8.66 6 9.32 6 10 6 C9.67 7.32 9.34 8.64 9 10 C9 9.34 9 8.68 9 8 C8.34 8 7.68 8 7 8 C6.608125 7.525625 6.21625 7.05125 5.8125 6.5625 C3.13387641 4.25334174 0.43923968 4.32445657 -3 4 C-3 3.34 -3 2.68 -3 2 C-4.423125 2.2784375 -4.423125 2.2784375 -5.875 2.5625 C-9 3 -9 3 -11 2 C-6.93406947 -0.9896548 -4.84458217 -1.42487711 0 0 Z " fill="#D17D1D" transform="translate(25,18)"/>
<path d="M0 0 C9.90551181 -0.58267717 9.90551181 -0.58267717 14 3 C14.8125 5.1875 14.8125 5.1875 15 7 C14.01 7.495 14.01 7.495 13 8 C10.46875 6.85546875 10.46875 6.85546875 7.5 5.1875 C6.5203125 4.64480469 5.540625 4.10210937 4.53125 3.54296875 C2 2 2 2 0 0 Z " fill="#3C3733" transform="translate(24,16)"/>
<path d="M0 0 C0.33 0 0.66 0 1 0 C1 2.64 1 5.28 1 8 C-1.31 8.33 -3.62 8.66 -6 9 C-6.33 8.34 -6.66 7.68 -7 7 C-8.32 7 -9.64 7 -11 7 C-11 6.01 -11 5.02 -11 4 C-8 4 -5 4 -2 4 C-1.34 2.68 -0.68 1.36 0 0 Z " fill="#CE6B0C" transform="translate(57,36)"/>
<path d="M0 0 C2.475 0.495 2.475 0.495 5 1 C5.625 3.875 5.625 3.875 6 7 C4 9 4 9 0 11 C0 7.37 0 3.74 0 0 Z " fill="#383634" transform="translate(39,30)"/>
<path d="M0 0 C2.375 0.3125 2.375 0.3125 5 1 C7 4 7 4 7 7 C11.29 6.34 15.58 5.68 20 5 C15.72523739 8.20607196 14.91248027 8.37377101 9.875 8.25 C8.82054687 8.23453125 7.76609375 8.2190625 6.6796875 8.203125 C4 8 4 8 2 7 C2 5.68 2 4.36 2 3 C1.34 2.67 0.68 2.34 0 2 C0 1.34 0 0.68 0 0 Z " fill="#8E5013" transform="translate(26,53)"/>
<path d="M0 0 C-0.165 0.804375 -0.33 1.60875 -0.5 2.4375 C-1.03191839 4.7284443 -1.03191839 4.7284443 -1 6 C1.475 6.99 1.475 6.99 4 8 C4 8.33 4 8.66 4 9 C1.36 9 -1.28 9 -4 9 C-4.33 8.01 -4.66 7.02 -5 6 C-5.66 5.34 -6.32 4.68 -7 4 C-6.67 3.01 -6.34 2.02 -6 1 C-3.90006779 0.25486277 -2.22568901 0 0 0 Z " fill="#CE6B0D" transform="translate(37,51)"/>
<path d="M0 0 C4.875 2.875 4.875 2.875 6 4 C6.23481693 6.18292774 6.41363323 8.37203174 6.5625 10.5625 C6.64628906 11.76003906 6.73007812 12.95757812 6.81640625 14.19140625 C6.87699219 15.11824219 6.93757813 16.04507812 7 17 C4.23776722 14.23776722 4.42143709 11.79293383 4 8 C3.34 8 2.68 8 2 8 C1.01 5.69 0.02 3.38 -1 1 C-0.67 0.67 -0.34 0.34 0 0 Z " fill="#D8AA76" transform="translate(49,14)"/>
<path d="M0 0 C0.66 0 1.32 0 2 0 C2.33 4.62 2.66 9.24 3 14 C2.01 14 1.02 14 0 14 C-1.17635297 11.64729407 -1.13359359 10.179248 -1.125 7.5625 C-1.12757812 6.78003906 -1.13015625 5.99757813 -1.1328125 5.19140625 C-1 3 -1 3 0 0 Z " fill="#714915" transform="translate(10,18)"/>
<path d="M0 0 C0.66 0 1.32 0 2 0 C1.7168444 2.08450717 1.42314331 4.16758367 1.125 6.25 C0.96257813 7.41015625 0.80015625 8.5703125 0.6328125 9.765625 C0.08179569 12.58193313 -0.55796482 14.55217557 -2 17 C-3.45184478 12.46298506 -4.23509196 8.81938524 -4 4 C-3.67 4.66 -3.34 5.32 -3 6 C-2.01 6 -1.02 6 0 6 C0 4.02 0 2.04 0 0 Z " fill="#BE6106" transform="translate(13,26)"/>
<path d="M0 0 C0.66 0 1.32 0 2 0 C5.02341105 4.91304295 5.87278382 9.33257262 5 15 C4.34 15.66 3.68 16.32 3 17 C2.95101562 16.39671875 2.90203125 15.7934375 2.8515625 15.171875 C2.77679688 14.37265625 2.70203125 13.5734375 2.625 12.75 C2.55539063 11.96109375 2.48578125 11.1721875 2.4140625 10.359375 C2.11458412 7.97917099 2.11458412 7.97917099 0.9609375 5.953125 C0 4 0 4 0 0 Z " fill="#6B4A20" transform="translate(43,22)"/>
<path d="M0 0 C0.33 0 0.66 0 1 0 C1.7230444 7.10993658 1.7230444 7.10993658 -0.3359375 9.64453125 C-2 11 -2 11 -5 13 C-7.475 12.01 -7.475 12.01 -10 11 C-10 10.34 -10 9.68 -10 9 C-7.69 9.33 -5.38 9.66 -3 10 C-2.67 7.69 -2.34 5.38 -2 3 C-1.34 3 -0.68 3 0 3 C0 2.01 0 1.02 0 0 Z " fill="#BC5E04" transform="translate(58,29)"/>
<path d="M0 0 C1.32 0.33 2.64 0.66 4 1 C4.33 2.65 4.66 4.3 5 6 C5.66 6 6.32 6 7 6 C7.33 7.32 7.66 8.64 8 10 C5.625 9.75 5.625 9.75 3 9 C1.03456852 6.24839593 0.54999399 3.29996391 0 0 Z " fill="#D1751B" transform="translate(46,16)"/>
<path d="M0 0 C2.00240549 0.31856451 4.00211562 0.65421232 6 1 C7.11375 1.185625 7.11375 1.185625 8.25 1.375 C10 2 10 2 12 5 C11.625 7.1875 11.625 7.1875 11 9 C10.01 8.67 9.02 8.34 8 8 C7.731875 7.38125 7.46375 6.7625 7.1875 6.125 C5.48423076 3.07704451 3.1262325 2.35923152 0 1 C0 0.67 0 0.34 0 0 Z " fill="#A56308" transform="translate(24,24)"/>
<path d="M0 0 C4.75 -0.125 4.75 -0.125 7 1 C6.67 2.65 6.34 4.3 6 6 C5.01 6.33 4.02 6.66 3 7 C3 6.01 3 5.02 3 4 C1.68 4 0.36 4 -1 4 C-0.67 2.68 -0.34 1.36 0 0 Z " fill="#BF5D04" transform="translate(13,12)"/>
<path d="M0 0 C2.475 0.99 2.475 0.99 5 2 C4.34 3.98 3.68 5.96 3 8 C1.68 7.67 0.36 7.34 -1 7 C-0.67 4.69 -0.34 2.38 0 0 Z " fill="#9D5903" transform="translate(13,33)"/>
<path d="M0 0 C2.86299506 2.86299506 2.99421225 4.65852284 3.0625 8.6875 C3.041875 9.780625 3.02125 10.87375 3 12 C2.34 12 1.68 12 1 12 C0.67 12.99 0.34 13.98 0 15 C0 10.05 0 5.1 0 0 Z " fill="#D3852F" transform="translate(55,20)"/>
<path d="M0 0 C0.33 0.99 0.66 1.98 1 3 C-0.4375 5.6875 -0.4375 5.6875 -2 8 C-3.65 7.67 -5.3 7.34 -7 7 C-6.34 6.67 -5.68 6.34 -5 6 C-5 5.01 -5 4.02 -5 3 C-3.35 2.67 -1.7 2.34 0 2 C0 1.34 0 0.68 0 0 Z " fill="#CF7C20" transform="translate(38,39)"/>
<path d="M0 0 C0.33 0 0.66 0 1 0 C1 1.65 1 3.3 1 5 C4.39914975 3.86695008 5.05254451 2.87481525 7 0 C6.67 2.31 6.34 4.62 6 7 C3.69 7 1.38 7 -1 7 C-1.33 6.34 -1.66 5.68 -2 5 C-1.0625 2.375 -1.0625 2.375 0 0 Z " fill="#CB6C0D" transform="translate(22,39)"/>
<path d="M0 0 C6.15234375 0.5859375 6.15234375 0.5859375 8 1 C8.33 1.66 8.66 2.32 9 3 C7.3125 4.125 7.3125 4.125 5 5 C2.25 4.125 2.25 4.125 0 3 C0 2.01 0 1.02 0 0 Z " fill="#584024" transform="translate(14,28)"/>
<path d="M0 0 C0.66 0.33 1.32 0.66 2 1 C1.67 2.65 1.34 4.3 1 6 C-0.65 6 -2.3 6 -4 6 C-2.84826645 3.53199953 -1.95216435 1.95216435 0 0 Z " fill="#342D2E" transform="translate(42,38)"/>
<path d="M0 0 C1.65 0.33 3.3 0.66 5 1 C5.33 1.99 5.66 2.98 6 4 C3.69 3.67 1.38 3.34 -1 3 C-1 3.66 -1 4.32 -1 5 C-1.66 4.67 -2.32 4.34 -3 4 C-2.01 2.68 -1.02 1.36 0 0 Z " fill="#89550B" transform="translate(49,35)"/>
<path d="M0 0 C1.5 1.3125 1.5 1.3125 3 3 C3 3.99 3 4.98 3 6 C1.68 6.33 0.36 6.66 -1 7 C-1.625 5.1875 -1.625 5.1875 -2 3 C-1.34 2.01 -0.68 1.02 0 0 Z " fill="#955E05" transform="translate(30,39)"/>
<path d="M0 0 C1.64666203 0.1135629 3.29236082 0.24117381 4.9375 0.375 C5.85402344 0.44460937 6.77054688 0.51421875 7.71484375 0.5859375 C8.84599609 0.79089844 8.84599609 0.79089844 10 1 C10.33 1.66 10.66 2.32 11 3 C9.35 2.67 7.7 2.34 6 2 C6 2.66 6 3.32 6 4 C4.68 3.67 3.36 3.34 2 3 C2 2.34 2 1.68 2 1 C1.34 0.67 0.68 0.34 0 0 Z " fill="#734A14" transform="translate(13,25)"/>
<path d="M0 0 C0.33 0 0.66 0 1 0 C1 2.64 1 5.28 1 8 C-0.32 8.33 -1.64 8.66 -3 9 C-2.01 6.03 -1.02 3.06 0 0 Z " fill="#D79D47" transform="translate(57,36)"/>
<path d="M0 0 C1.32 0.33 2.64 0.66 4 1 C3.67 3.64 3.34 6.28 3 9 C2.01 9 1.02 9 0 9 C0 6 0 3 0 0 Z " fill="#D38C34" transform="translate(36,27)"/>
<path d="M0 0 C2 0.25 2 0.25 4 1 C4.33 1.99 4.66 2.98 5 4 C3.02 4 1.04 4 -1 4 C-1 1 -1 1 0 0 Z " fill="#966001" transform="translate(18,22)"/>
<path d="M0 0 C2.475 0.495 2.475 0.495 5 1 C4.34 2.32 3.68 3.64 3 5 C2.34 5 1.68 5 1 5 C0.67 3.35 0.34 1.7 0 0 Z " fill="#86520D" transform="translate(39,30)"/>
<path d="M0 0 C0.99 0 1.98 0 3 0 C3.33 3.63 3.66 7.26 4 11 C1.6870518 8.6870518 1.50419025 7.52095125 0.875 4.375 C0.70742188 3.55773437 0.53984375 2.74046875 0.3671875 1.8984375 C0.24601562 1.27195312 0.12484375 0.64546875 0 0 Z " fill="#DAD9CF" transform="translate(52,20)"/>
<path d="M0 0 C2.31 0 4.62 0 7 0 C7.33 1.32 7.66 2.64 8 4 C2.25 2.25 2.25 2.25 0 0 Z " fill="#332E31" transform="translate(24,16)"/>
<path d="M0 0 C0.33 0.99 0.66 1.98 1 3 C-1.31 3.33 -3.62 3.66 -6 4 C-5.67 3.01 -5.34 2.02 -5 1 C-2 0 -2 0 0 0 Z " fill="#CE7F1C" transform="translate(26,4)"/>
<path d="M0 0 C0.99 0 1.98 0 3 0 C2.67 1.65 2.34 3.3 2 5 C0.68 4.34 -0.64 3.68 -2 3 C-1.34 2.01 -0.68 1.02 0 0 Z " fill="#724915" transform="translate(21,31)"/>
</svg>
