<?xml version="1.0" encoding="UTF-8"?>
<svg version="1.1" xmlns="http://www.w3.org/2000/svg" width="62" height="62">
<path d="M0 0 C7.32258031 5.73071503 11.948769 12.63406429 13.2578125 21.984375 C13.58562404 29.7207273 11.880488 36.32183397 7.14453125 42.51171875 C0.78357154 49.38053951 -6.31775764 52.70349893 -15.6484375 53.28125 C-24.1604736 53.1738426 -30.92870515 50.25287846 -37.07421875 44.390625 C-43.0792179 37.89465107 -46.11006695 31.13516647 -46.125 22.25 C-45.36140153 14.10032175 -41.87487853 7.58729725 -35.9375 2 C-24.68917138 -6.89176734 -12.11167701 -6.78253913 0 0 Z " fill="#A6930C" transform="translate(49.125,7.75)"/>
<path d="M0 0 C4.52210841 3.53904136 8.76023549 7.81203412 10.875 13.25 C10.38 14.735 10.38 14.735 9.875 16.25 C8.885 14.93 7.895 13.61 6.875 12.25 C3.80469143 14.29687238 2.09428194 16.34197539 -0.125 19.25 C-0.640625 18.363125 -1.15625 17.47625 -1.6875 16.5625 C-4.18858825 12.85490087 -7.10508704 10.23870958 -11.125 8.25 C-16.84812044 7.40213031 -21.86740647 9.07249882 -27.125 11.25 C-27.455 11.58 -27.785 11.91 -28.125 12.25 C-27.609375 11.91355469 -27.09375 11.57710937 -26.5625 11.23046875 C-23.24147302 9.89460694 -20.6751376 10.25035866 -17.125 10.5625 C-15.908125 10.66175781 -14.69125 10.76101562 -13.4375 10.86328125 C-6.76468299 11.64230116 -6.76468299 11.64230116 -4.640625 13.66015625 C-3.46875 15.19010417 -2.296875 16.72005208 -1.125 18.25 C-1.455 18.91 -1.785 19.57 -2.125 20.25 C-2.846875 19.445625 -3.56875 18.64125 -4.3125 17.8125 C-7.18542273 15.19494818 -8.2923123 14.25 -12.125 14.25 C-13.79919438 15.2373454 -15.46551852 16.23812105 -17.125 17.25 C-20.1875 17.375 -20.1875 17.375 -23.125 17.25 C-24.46283393 17.56478446 -25.79703709 17.89587656 -27.125 18.25 C-28.445 18.25 -29.765 18.25 -31.125 18.25 C-32.8761573 19.6666747 -32.8761573 19.6666747 -34.125 21.25 C-34.125 20.26 -34.125 19.27 -34.125 18.25 C-38.20464281 19.55155006 -38.20464281 19.55155006 -42.125 21.25 C-42.785 20.92 -43.445 20.59 -44.125 20.25 C-44.79112336 13.85521576 -43.12136907 10.23024674 -39.125 5.25 C-28.36539183 -6.62926282 -13.43721708 -7.52484156 0 0 Z " fill="#B7A314" transform="translate(49.125,7.75)"/>
<path d="M0 0 C0.33 1.32 0.66 2.64 1 4 C3.38564077 3.42415568 5.66682784 2.77772405 8 2 C8.99 2 9.98 2 11 2 C11.33 2.66 11.66 3.32 12 4 C12.99 2.68 13.98 1.36 15 0 C15.969375 0.185625 16.93875 0.37125 17.9375 0.5625 C18.948125 0.706875 19.95875 0.85125 21 1 C21.33 0.67 21.66 0.34 22 0 C23.66617115 -0.04063832 25.33388095 -0.042721 27 0 C27.33 1.32 27.66 2.64 28 4 C29.65 4 31.3 4 33 4 C32.01 4.33 31.02 4.66 30 5 C31.32 5.33 32.64 5.66 34 6 C34.66 5.01 35.32 4.02 36 3 C38.475 3.495 38.475 3.495 41 4 C41 6.64 41 9.28 41 12 C41.33 11.34 41.66 10.68 42 10 C42.99 10.33 43.98 10.66 45 11 C46 14 46 14 45.5625 16.4375 C43.2338707 20.25645205 40.11623395 21.48745334 36 23 C30.20841339 24.39427085 24.83487771 23.76311278 19 23 C18.67 21.68 18.34 20.36 18 19 C16.35 19.33 14.7 19.66 13 20 C12.01 18.02 11.02 16.04 10 14 C7.69 14.66 5.38 15.32 3 16 C0.43559607 13.04705002 -0.97779326 11.35663003 -1.04296875 7.375 C-0.77869004 4.89430387 -0.4462094 2.45415169 0 0 Z " fill="#9F8101" transform="translate(4,24)"/>
<path d="M0 0 C5.07398794 0.60199857 8.03355864 2.97419906 11.6875 6.4375 C12.71843268 7.74706313 13.72775741 9.0749025 14.6875 10.4375 C15.1 9.798125 15.5125 9.15875 15.9375 8.5 C17.90888812 6.17657828 18.80503816 6.01399237 21.6875 5.4375 C22.0175 4.7775 22.3475 4.1175 22.6875 3.4375 C23.70101664 5.09598177 24.69870795 6.76415961 25.6875 8.4375 C26.22890625 9.3346875 26.22890625 9.3346875 26.78125 10.25 C27.92744306 13.0166729 27.88353646 15.20396885 27.8125 18.1875 C27.79445312 19.17234375 27.77640625 20.1571875 27.7578125 21.171875 C27.73460937 21.91953125 27.71140625 22.6671875 27.6875 23.4375 C27.0275 23.4375 26.3675 23.4375 25.6875 23.4375 C25.1925 24.9225 25.1925 24.9225 24.6875 26.4375 C23.0375 26.4375 21.3875 26.4375 19.6875 26.4375 C19.6875 25.7775 19.6875 25.1175 19.6875 24.4375 C18.6975 24.7675 17.7075 25.0975 16.6875 25.4375 C16.1925 23.9525 16.1925 23.9525 15.6875 22.4375 C14.6975 21.7775 13.7075 21.1175 12.6875 20.4375 C12.0275 20.7675 11.3675 21.0975 10.6875 21.4375 C10.3575 19.1275 10.0275 16.8175 9.6875 14.4375 C8.3675 14.1075 7.0475 13.7775 5.6875 13.4375 C4.6975 14.9225 4.6975 14.9225 3.6875 16.4375 C2.6975 16.1075 1.7075 15.7775 0.6875 15.4375 C0.3575 16.0975 0.0275 16.7575 -0.3125 17.4375 C-0.3125 16.4475 -0.3125 15.4575 -0.3125 14.4375 C-0.9725 14.1075 -1.6325 13.7775 -2.3125 13.4375 C-1.99861748 10.40330233 -1.45449636 9.5558303 0.9375 7.5625 C3.6875 6.4375 3.6875 6.4375 6.4375 7.0625 C8.6875 8.4375 8.6875 8.4375 9.6875 11.4375 C10.6775 11.4375 11.6675 11.4375 12.6875 11.4375 C12.0275 10.81875 11.3675 10.2 10.6875 9.5625 C8.6875 7.4375 8.6875 7.4375 8.6875 5.4375 C8.0584375 5.44910156 7.429375 5.46070313 6.78125 5.47265625 C2.57540875 5.51699494 -1.36402651 5.49194278 -5.5 4.6875 C-10.48627771 4.36053097 -12.26570708 5.65532987 -16.3125 8.4375 C-15.24411852 5.33919371 -14.36858991 4.47115395 -11.5 2.75 C-7.57009507 1.13180385 -4.19191427 0.55364905 0 0 Z " fill="#9E8100" transform="translate(34.3125,14.5625)"/>
<path d="M0 0 C17.58124521 0.07529441 17.58124521 0.07529441 25.25390625 7.32421875 C27.83999665 10.16149674 29.46680676 12.74628594 31.0234375 16.265625 C30.5284375 17.750625 30.5284375 17.750625 30.0234375 19.265625 C29.0334375 17.945625 28.0434375 16.625625 27.0234375 15.265625 C23.95312893 17.31249738 22.24271944 19.35760039 20.0234375 22.265625 C19.5078125 21.37875 18.9921875 20.491875 18.4609375 19.578125 C14.36710269 13.50894332 8.87380358 10.87656541 1.94140625 9.0390625 C0.0234375 8.265625 0.0234375 8.265625 -1.9765625 5.265625 C-2.95751998 4.24693838 -3.95358328 3.24210517 -4.9765625 2.265625 C-2.9765625 0.265625 -2.9765625 0.265625 0 0 Z " fill="#C8C07D" transform="translate(28.9765625,4.734375)"/>
<path d="M0 0 C1.11375 0.7425 1.11375 0.7425 2.25 1.5 C5.06318188 3.31923475 5.06318188 3.31923475 9 3 C9.66 2.34 10.32 1.68 11 1 C10.43584703 6.92360616 8.18653966 10.81346034 4 15 C1.68043092 15.61287697 -0.64296818 16.0144199 -3.00390625 16.4375 C-3.66261719 16.623125 -4.32132813 16.80875 -5 17 C-5.33 17.66 -5.66 18.32 -6 19 C-6.66 19 -7.32 19 -8 19 C-8 17.35 -8 15.7 -8 14 C-8.763125 14.350625 -9.52625 14.70125 -10.3125 15.0625 C-16.19893375 16.55905095 -22.08747171 16.65058511 -27.48828125 13.58984375 C-29.42038379 12.138193 -31.23722415 10.65165531 -33 9 C-30 8 -30 8 -27 8 C-27 8.66 -27 9.32 -27 10 C-26.01 9.67 -25.02 9.34 -24 9 C-22.47348957 9.18766275 -20.95248955 9.42243762 -19.4375 9.6875 C-14.21830034 10.31594989 -10.73521 9.10583378 -6.03125 6.91015625 C-4 6 -4 6 -2 6 C-1.34 4.02 -0.68 2.04 0 0 Z " fill="#B4A011" transform="translate(50,37)"/>
<path d="M0 0 C1.485 0.99 1.485 0.99 3 2 C5.05709596 2.24055468 5.05709596 2.24055468 7.1875 2.125 C8.445625 2.08375 9.70375 2.0425 11 2 C11 2.66 11 3.32 11 4 C11.66 3.34 12.32 2.68 13 2 C13.99 2 14.98 2 16 2 C16.66 1.34 17.32 0.68 18 0 C19.65 0.66 21.3 1.32 23 2 C22.814375 2.61875 22.62875 3.2375 22.4375 3.875 C21.76313824 6.04160178 21.76313824 6.04160178 23 8 C23.66 7.67 24.32 7.34 25 7 C25 7.99 25 8.98 25 10 C25.99 10 26.98 10 28 10 C28.33 9.01 28.66 8.02 29 7 C29.12375 7.94875 29.2475 8.8975 29.375 9.875 C29.71687177 13.08667191 29.71687177 13.08667191 32 15 C30.20909747 15.19466332 28.41723495 15.38051213 26.625 15.5625 C25.12839844 15.71912109 25.12839844 15.71912109 23.6015625 15.87890625 C21 16 21 16 19 15 C19 14.34 19 13.68 19 13 C17.35 13.33 15.7 13.66 14 14 C13.01 12.02 12.02 10.04 11 8 C8.69 8.66 6.38 9.32 4 10 C0 4.5 0 4.5 0 0 Z " fill="#9A7800" transform="translate(3,30)"/>
<path d="M0 0 C0.99 0 1.98 0 3 0 C3 1.98 3 3.96 3 6 C3.33 5.34 3.66 4.68 4 4 C4.99 4.33 5.98 4.66 7 5 C8 8 8 8 7.5625 10.4375 C5.2338707 14.25645205 2.11623395 15.48745334 -2 17 C-7.79158661 18.39427085 -13.16512229 17.76311278 -19 17 C-18.67 16.34 -18.34 15.68 -18 15 C-15.49609375 14.5859375 -15.49609375 14.5859375 -12.4375 14.375 C-11.42558594 14.30023438 -10.41367187 14.22546875 -9.37109375 14.1484375 C-8.58863281 14.09945312 -7.80617188 14.05046875 -7 14 C-7.33 12.02 -7.66 10.04 -8 8 C-7.360625 7.731875 -6.72125 7.46375 -6.0625 7.1875 C-3.66868314 6.11332248 -3.66868314 6.11332248 -3 3 C-2.67 3 -2.34 3 -2 3 C-2 5.97 -2 8.94 -2 12 C-1.34 12 -0.68 12 0 12 C-0.33 9.03 -0.66 6.06 -1 3 C-0.34 3.33 0.32 3.66 1 4 C0.67 2.68 0.34 1.36 0 0 Z " fill="#916F04" transform="translate(42,30)"/>
<path d="M0 0 C0 0.33 0 0.66 0 1 C-6.27 1 -12.54 1 -19 1 C-19 1.99 -19 2.98 -19 4 C-18.01 4.33 -17.02 4.66 -16 5 C-15.67 5.99 -15.34 6.98 -15 8 C-13.68 8.66 -12.36 9.32 -11 10 C-14.63 10.66 -18.26 11.32 -22 12 C-22.33 11.01 -22.66 10.02 -23 9 C-24.2065625 9.2784375 -24.2065625 9.2784375 -25.4375 9.5625 C-26.283125 9.706875 -27.12875 9.85125 -28 10 C-29 9 -29 9 -29.0625 6.4375 C-29.041875 5.633125 -29.02125 4.82875 -29 4 C-28.360625 3.71125 -27.72125 3.4225 -27.0625 3.125 C-24.84793921 2.17176549 -24.84793921 2.17176549 -24 0 C-16.46708264 -3.56822401 -7.65794359 -2.72282439 0 0 Z " fill="#B9A731" transform="translate(45,5)"/>
<path d="M0 0 C0.66 0.33 1.32 0.66 2 1 C1.67 2.65 1.34 4.3 1 6 C1.66 6 2.32 6 3 6 C3.33 5.01 3.66 4.02 4 3 C6.64 2.67 9.28 2.34 12 2 C6.2348339 8.46397411 0.74663007 10.29768606 -7.62109375 10.94921875 C-10.51554892 11.01100515 -13.18513881 10.66667765 -16 10 C-16 9.67 -16 9.34 -16 9 C-14.6078125 8.566875 -14.6078125 8.566875 -13.1875 8.125 C-9.90208333 7.1125 -9.90208333 7.1125 -7 5 C-11.455 4.01 -11.455 4.01 -16 3 C-16 2.67 -16 2.34 -16 2 C-15.26394531 2.02320313 -14.52789063 2.04640625 -13.76953125 2.0703125 C-12.30580078 2.09738281 -12.30580078 2.09738281 -10.8125 2.125 C-9.36810547 2.15980469 -9.36810547 2.15980469 -7.89453125 2.1953125 C-4.86989467 1.99122096 -2.77853992 1.14212867 0 0 Z " fill="#928211" transform="translate(41,50)"/>
<path d="M0 0 C5.82653696 0.69128405 9.72047292 4.0806117 13.421875 8.515625 C14.6875 10.4375 14.6875 10.4375 14.6875 12.4375 C15.3475 12.4375 16.0075 12.4375 16.6875 12.4375 C16.6875 11.7775 16.6875 11.1175 16.6875 10.4375 C18.6675 10.4375 20.6475 10.4375 22.6875 10.4375 C22.0275 11.4275 21.3675 12.4175 20.6875 13.4375 C19.3675 13.4375 18.0475 13.4375 16.6875 13.4375 C16.3575 15.0875 16.0275 16.7375 15.6875 18.4375 C15.0275 18.1075 14.3675 17.7775 13.6875 17.4375 C13.378125 16.32375 13.06875 15.21 12.75 14.0625 C11.74196657 10.62332713 11.25852741 9.65793276 8.6875 7.4375 C8.6875 6.7775 8.6875 6.1175 8.6875 5.4375 C8.0584375 5.44910156 7.429375 5.46070313 6.78125 5.47265625 C2.57540875 5.51699494 -1.36402651 5.49194278 -5.5 4.6875 C-10.48627771 4.36053097 -12.26570708 5.65532987 -16.3125 8.4375 C-15.24411852 5.33919371 -14.36858991 4.47115395 -11.5 2.75 C-7.57009507 1.13180385 -4.19191427 0.55364905 0 0 Z " fill="#907C1D" transform="translate(34.3125,14.5625)"/>
<path d="M0 0 C8.12715629 0.1910229 8.12715629 0.1910229 11.5625 3.375 C13 6 13 6 13 9 C12.01 9.66 11.02 10.32 10 11 C8.63360658 12.6396721 7.29486821 14.30327614 6 16 C5.54625 14.9275 5.0925 13.855 4.625 12.75 C3.49911463 10.11937683 2.32079794 7.53999604 1 5 C0.34 5 -0.32 5 -1 5 C-0.67 3.35 -0.34 1.7 0 0 Z " fill="#C8B643" transform="translate(43,11)"/>
<path d="M0 0 C0.928125 0.45375 1.85625 0.9075 2.8125 1.375 C3.1425 2.365 3.4725 3.355 3.8125 4.375 C5.81266466 5.58382096 5.81266466 5.58382096 7.8125 6.375 C7.4825 7.695 7.1525 9.015 6.8125 10.375 C6.4 9.900625 5.9875 9.42625 5.5625 8.9375 C3.630315 7.21233482 2.33057725 6.80915125 -0.1875 6.375 C-1.1775 7.86 -1.1775 7.86 -2.1875 9.375 C-3.1775 9.045 -4.1675 8.715 -5.1875 8.375 C-5.5175 9.035 -5.8475 9.695 -6.1875 10.375 C-6.1875 9.385 -6.1875 8.395 -6.1875 7.375 C-6.8475 7.045 -7.5075 6.715 -8.1875 6.375 C-7.82310417 3.73313021 -7.30454411 2.50504902 -5.5 0.5 C-3.1875 -0.625 -3.1875 -0.625 0 0 Z " fill="#AD9409" transform="translate(40.1875,21.625)"/>
<path d="M0 0 C2.31 0.66 4.62 1.32 7 2 C6.67 3.65 6.34 5.3 6 7 C5.39671875 7.19335938 4.7934375 7.38671875 4.171875 7.5859375 C3.37265625 7.84632812 2.5734375 8.10671875 1.75 8.375 C0.96109375 8.63023438 0.1721875 8.88546875 -0.640625 9.1484375 C-2.86627958 9.95173667 -4.90931672 10.89711662 -7 12 C-7.3125 9.8125 -7.3125 9.8125 -7 7 C-4.625 4.3125 -4.625 4.3125 -2 2 C-1.34 1.34 -0.68 0.68 0 0 Z " fill="#C9BD76" transform="translate(49,44)"/>
<path d="M0 0 C0.66 0.66 1.32 1.32 2 2 C2.66 1.67 3.32 1.34 4 1 C4 1.99 4 2.98 4 4 C4.99 4 5.98 4 7 4 C7.33 3.01 7.66 2.02 8 1 C8.12375 1.94875 8.2475 2.8975 8.375 3.875 C8.71687177 7.08667191 8.71687177 7.08667191 11 9 C9.20909747 9.19466332 7.41723495 9.38051213 5.625 9.5625 C4.12839844 9.71912109 4.12839844 9.71912109 2.6015625 9.87890625 C0 10 0 10 -2 9 C-2 8.34 -2 7.68 -2 7 C-3.65 7.33 -5.3 7.66 -7 8 C-6.25 6.0625 -6.25 6.0625 -5 4 C-3.67405895 3.63837971 -2.34061543 3.30271961 -1 3 C-0.67 2.01 -0.34 1.02 0 0 Z " fill="#8B6905" transform="translate(24,36)"/>
<path d="M0 0 C1.05574219 0.45826172 1.05574219 0.45826172 2.1328125 0.92578125 C9.17794908 3.5653079 16.63705035 4.67339765 24 3 C23.26171875 4.9453125 23.26171875 4.9453125 22 7 C16.69220567 8.88096989 11.09872959 8.11645379 6 6 C3.77570882 4.46956956 1.96990794 2.87381487 0 1 C0 0.67 0 0.34 0 0 Z " fill="#C1B437" transform="translate(17,45)"/>
<path d="M0 0 C4.92307692 4.30769231 4.92307692 4.30769231 5.3125 7.8125 C5.1578125 8.8953125 5.1578125 8.8953125 5 10 C4.34 10 3.68 10 3 10 C3 10.66 3 11.32 3 12 C2.34 12 1.68 12 1 12 C0.67 12.66 0.34 13.32 0 14 C-2 10.25 -2 10.25 -2 8 C-2.99 7.67 -3.98 7.34 -5 7 C-5.33 7.66 -5.66 8.32 -6 9 C-5.42415568 6.61435923 -4.77772405 4.33317216 -4 2 C-2.68 2 -1.36 2 0 2 C0 1.34 0 0.68 0 0 Z " fill="#B29709" transform="translate(56,18)"/>
<path d="M0 0 C0 3.63 0 7.26 0 11 C-0.99 10.67 -1.98 10.34 -3 10 C-3.33 9.34 -3.66 8.68 -4 8 C-6.32156597 7.59270772 -8.6568787 7.25561323 -11 7 C-11 5.02 -11 3.04 -11 1 C-10.01 1 -9.02 1 -8 1 C-7.34 1.99 -6.68 2.98 -6 4 C-5.01 3.67 -4.02 3.34 -3 3 C-3 2.34 -3 1.68 -3 1 C-1 0 -1 0 0 0 Z " fill="#A58801" transform="translate(62,27)"/>
<path d="M0 0 C2.53894983 1.85274718 3.42937089 3.22119466 5 6 C4.67 6.66 4.34 7.32 4 8 C3.278125 7.195625 2.55625 6.39125 1.8125 5.5625 C-1.01010816 2.99079034 -2.23872509 2.10165608 -6 2 C-6.66 2.66 -7.32 3.32 -8 4 C-9.8125 3.6875 -9.8125 3.6875 -12 3 C-15.47252823 2.24427046 -15.47252823 2.24427046 -19 2 C-19 1.34 -19 0.68 -19 0 C-12.76890819 -3.1155459 -6.51316065 -1.81871073 0 0 Z " fill="#C8B75B" transform="translate(43,20)"/>
<path d="M0 0 C1.485 0.99 1.485 0.99 3 2 C5.05709596 2.24055468 5.05709596 2.24055468 7.1875 2.125 C8.445625 2.08375 9.70375 2.0425 11 2 C10.67 4.31 10.34 6.62 10 9 C8.02 9.33 6.04 9.66 4 10 C0 4.5 0 4.5 0 0 Z " fill="#694719" transform="translate(3,30)"/>
<path d="M0 0 C2 1 2 1 2 1 Z M-26 2 C-25.01 2 -24.02 2 -23 2 C-23 2.66 -23 3.32 -23 4 C-22.01 3.67 -21.02 3.34 -20 3 C-18.39062614 3.13573033 -16.78566022 3.32928153 -15.1875 3.5625 C-10.89062476 4.06359332 -8.04656048 3.67784215 -4 2 C-3.01 2 -2.02 2 -1 2 C-1.25 3.875 -1.25 3.875 -2 6 C-4.0625 7.25 -4.0625 7.25 -6 8 C-6 7.34 -6 6.68 -6 6 C-7.299375 6.20625 -8.59875 6.4125 -9.9375 6.625 C-14.79717044 7.16325464 -19.44000189 6.88955524 -24 5 C-24.66 4.01 -25.32 3.02 -26 2 Z " fill="#B9A916" transform="translate(46,43)"/>
<path d="M0 0 C0.33 1.32 0.66 2.64 1 4 C3.38564077 3.42415568 5.66682784 2.77772405 8 2 C8.99 2 9.98 2 11 2 C10.67 3.98 10.34 5.96 10 8 C8.52168779 8.19412181 7.04230684 8.38012131 5.5625 8.5625 C4.73878906 8.66691406 3.91507812 8.77132812 3.06640625 8.87890625 C2.38449219 8.91886719 1.70257812 8.95882812 1 9 C0 8 0 8 -0.09765625 6.15234375 C-0.06510417 4.1015625 -0.03255208 2.05078125 0 0 Z " fill="#977300" transform="translate(4,24)"/>
<path d="M0 0 C0.556875 0.66 1.11375 1.32 1.6875 2 C3.84062308 4.25492211 3.84062308 4.25492211 6.75 4.25 C7.4925 4.1675 8.235 4.085 9 4 C9.33 3.01 9.66 2.02 10 1 C10.66 2.98 11.32 4.96 12 7 C10.8125 8.5 10.8125 8.5 9 10 C6.3125 10.1875 6.3125 10.1875 4 10 C3.67 9.01 3.34 8.02 3 7 C2.34 7 1.68 7 1 7 C0.67 4.69 0.34 2.38 0 0 Z " fill="#A68C00" transform="translate(4,35)"/>
<path d="M0 0 C2.31 0 4.62 0 7 0 C7.33 1.32 7.66 2.64 8 4 C7.01 4.66 6.02 5.32 5 6 C3.63360658 7.6396721 2.29486821 9.30327614 1 11 C-0.20272819 8.59454362 -0.10071472 7.05003047 -0.0625 4.375 C-0.05347656 3.55773437 -0.04445312 2.74046875 -0.03515625 1.8984375 C-0.02355469 1.27195312 -0.01195312 0.64546875 0 0 Z " fill="#C2AA2A" transform="translate(48,16)"/>
<path d="M0 0 C0.33 0.99 0.66 1.98 1 3 C1.53625 2.649375 2.0725 2.29875 2.625 1.9375 C5.77513726 0.69402477 7.76902047 1.13840546 11 2 C11.33 2.66 11.66 3.32 12 4 C11.34 4.66 10.68 5.32 10 6 C8.33333333 6 6.66666667 6 5 6 C4.01 6.66 3.02 7.32 2 8 C1.34 7.67 0.68 7.34 0 7 C0 4.69 0 2.38 0 0 Z " fill="#A88B00" transform="translate(5,21)"/>
<path d="M0 0 C1 3 1 3 0.22265625 5.04296875 C-0.16019531 5.75066406 -0.54304688 6.45835938 -0.9375 7.1875 C-1.31777344 7.90292969 -1.69804688 8.61835937 -2.08984375 9.35546875 C-2.39019531 9.89816406 -2.69054688 10.44085938 -3 11 C-5.19669092 7.70496362 -6.74903907 4.75288279 -8 1 C-5.69 1.33 -3.38 1.66 -1 2 C-0.67 1.34 -0.34 0.68 0 0 Z " fill="#AC990B" transform="translate(60,38)"/>
<path d="M0 0 C-0.11409593 1.45922693 -0.24165544 2.91740598 -0.375 4.375 C-0.44460937 5.18710937 -0.51421875 5.99921875 -0.5859375 6.8359375 C-1 9 -1 9 -3 11 C-3.99 8.03 -4.98 5.06 -6 2 C-3 0 -3 0 0 0 Z " fill="#7F5F07" transform="translate(19,32)"/>
<path d="M0 0 C0.33 1.32 0.66 2.64 1 4 C3.64 4 6.28 4 9 4 C9.33 5.65 9.66 7.3 10 9 C3.61657459 8.39779006 3.61657459 8.39779006 1.0625 6.75 C-0.35440053 4.41628148 -0.21718696 2.67863922 0 0 Z " fill="#957300" transform="translate(50,30)"/>
<path d="M0 0 C1.67542976 0.28604898 3.34385343 0.61781233 5 1 C-1.41752969 4.56529427 -6.93586546 3.8915898 -14 3 C-13.67 2.34 -13.34 1.68 -13 1 C-11.71802734 1.01740234 -11.71802734 1.01740234 -10.41015625 1.03515625 C-8.75306641 1.04869141 -8.75306641 1.04869141 -7.0625 1.0625 C-5.40927734 1.07990234 -5.40927734 1.07990234 -3.72265625 1.09765625 C-1.08552366 1.31262571 -1.08552366 1.31262571 0 0 Z " fill="#A48800" transform="translate(37,44)"/>
<path d="M0 0 C0.66 1.32 1.32 2.64 2 4 C0.875 6 0.875 6 -1 8 C-4.1875 8.25 -4.1875 8.25 -7 8 C-6.25 6.0625 -6.25 6.0625 -5 4 C-3.67405895 3.63837971 -2.34061543 3.30271961 -1 3 C-0.67 2.01 -0.34 1.02 0 0 Z M3 1 C3.33 1.99 3.66 2.98 4 4 C3.34 4 2.68 4 2 4 C2.33 3.01 2.66 2.02 3 1 Z " fill="#7D5A0A" transform="translate(24,36)"/>
<path d="M0 0 C0.99 1.32 1.98 2.64 3 4 C2.67 4.66 2.34 5.32 2 6 C-1.5 6.5 -1.5 6.5 -5 7 C-5.33 7.66 -5.66 8.32 -6 9 C-5.42415568 6.61435923 -4.77772405 4.33317216 -4 2 C-2.68 2 -1.36 2 0 2 C0 1.34 0 0.68 0 0 Z " fill="#B8A210" transform="translate(56,18)"/>
<path d="M0 0 C3.47263143 0.56373887 4.91317065 1.60850967 7.125 4.3125 C7.87136719 5.20388672 7.87136719 5.20388672 8.6328125 6.11328125 C10.03038488 8.04193114 11.13896858 9.77640856 12 12 C11.67 12.99 11.34 13.98 11 15 C10.62488281 14.30132812 10.24976563 13.60265625 9.86328125 12.8828125 C9.35152344 11.97273438 8.83976562 11.06265625 8.3125 10.125 C7.81363281 9.22007813 7.31476562 8.31515625 6.80078125 7.3828125 C4.74206948 4.65870365 3.22878211 3.95708362 0 3 C0 2.01 0 1.02 0 0 Z " fill="#D0CCA1" transform="translate(48,9)"/>
<path d="M0 0 C0.66 0.33 1.32 0.66 2 1 C1.01 2.485 1.01 2.485 0 4 C0.165 4.66 0.33 5.32 0.5 6 C0.665 6.66 0.83 7.32 1 8 C0.01 9.485 0.01 9.485 -1 11 C-1.99 11 -2.98 11 -4 11 C-3.56179109 6.44262737 -3.14958831 3.42346555 0 0 Z " fill="#AE960C" transform="translate(10,13)"/>
<path d="M0 0 C2.31 0.66 4.62 1.32 7 2 C6.67 3.65 6.34 5.3 6 7 C5.236875 6.505 4.47375 6.01 3.6875 5.5 C1.07636249 3.75631692 1.07636249 3.75631692 -2 4 C-1.34 2.68 -0.68 1.36 0 0 Z " fill="#C5B74C" transform="translate(49,44)"/>
<path d="M0 0 C2.4375 0.375 2.4375 0.375 5 1 C5.33 1.66 5.66 2.32 6 3 C-1.42857143 5.42857143 -1.42857143 5.42857143 -5 4 C-5 3.34 -5 2.68 -5 2 C-3.35 2 -1.7 2 0 2 C0 1.34 0 0.68 0 0 Z " fill="#9D8802" transform="translate(35,15)"/>
<path d="M0 0 C1.2065625 0.0309375 1.2065625 0.0309375 2.4375 0.0625 C-1.87019231 4.98557692 -1.87019231 4.98557692 -5.375 5.375 C-6.4578125 5.2203125 -6.4578125 5.2203125 -7.5625 5.0625 C-7.8925 4.0725 -8.2225 3.0825 -8.5625 2.0625 C-7.3559375 1.8459375 -7.3559375 1.8459375 -6.125 1.625 C-3.22295593 0.98796594 -2.96966232 0.07243079 0 0 Z " fill="#AA9903" transform="translate(32.5625,53.9375)"/>
<path d="M0 0 C-0.99 1.485 -0.99 1.485 -2 3 C-5.625 3.1875 -5.625 3.1875 -9 3 C-9 2.01 -9 1.02 -9 0 C-5.62182575 -0.84454356 -3.32534757 -1.10844919 0 0 Z " fill="#C7BA5B" transform="translate(41,49)"/>
<path d="M0 0 C-4.625 4.875 -4.625 4.875 -8 6 C-8.33 4.68 -8.66 3.36 -9 2 C-5.86501708 0.14223235 -3.62528568 -0.20140476 0 0 Z " fill="#A09715" transform="translate(53,52)"/>
<path d="M0 0 C0.598125 0.165 1.19625 0.33 1.8125 0.5 C4.25988354 1.05940195 5.63996734 0.75858193 8 0 C8.33 0.66 8.66 1.32 9 2 C7.2984375 2.433125 7.2984375 2.433125 5.5625 2.875 C4.386875 3.24625 3.21125 3.6175 2 4 C1.67 4.66 1.34 5.32 1 6 C0.34 6 -0.32 6 -1 6 C-1.042721 4.33388095 -1.04063832 2.66617115 -1 1 C-0.67 0.67 -0.34 0.34 0 0 Z " fill="#C4B739" transform="translate(43,50)"/>
<path d="M0 0 C0.99 0 1.98 0 3 0 C2.67 3.3 2.34 6.6 2 10 C1.01 9.34 0.02 8.68 -1 8 C-1.1875 5.375 -1.1875 5.375 -1 3 C-0.01 3.495 -0.01 3.495 1 4 C0.67 2.68 0.34 1.36 0 0 Z " fill="#876506" transform="translate(42,30)"/>
<path d="M0 0 C1.65 0 3.3 0 5 0 C5.33 1.65 5.66 3.3 6 5 C5.38125 4.814375 4.7625 4.62875 4.125 4.4375 C1.95839822 3.76313824 1.95839822 3.76313824 0 5 C0 3.35 0 1.7 0 0 Z " fill="#936E02" transform="translate(27,31)"/>
<path d="M0 0 C0 1.32 0 2.64 0 4 C-2.31 4 -4.62 4 -7 4 C-7 3.34 -7 2.68 -7 2 C-4 0 -4 0 0 0 Z " fill="#8B6205" transform="translate(14,28)"/>
<path d="M0 0 C1.98 0.66 3.96 1.32 6 2 C6 2.99 6 3.98 6 5 C3 6 3 6 0 5 C0 3.35 0 1.7 0 0 Z " fill="#916D02" transform="translate(20,30)"/>
<path d="M0 0 C1.98 0 3.96 0 6 0 C7.24546405 2.49092811 6.7767578 3.41080733 6 6 C5.01 5.67 4.02 5.34 3 5 C2.67 4.34 2.34 3.68 2 3 C1.34 2.67 0.68 2.34 0 2 C0 1.34 0 0.68 0 0 Z " fill="#C9BD72" transform="translate(25,7)"/>
<path d="M0 0 C0.556875 0.66 1.11375 1.32 1.6875 2 C3.84062308 4.25492211 3.84062308 4.25492211 6.75 4.25 C7.4925 4.1675 8.235 4.085 9 4 C5.93882432 6.62386487 5.26826873 7 1 7 C0.67 4.69 0.34 2.38 0 0 Z " fill="#937602" transform="translate(4,35)"/>
<path d="M0 0 C2.4375 0.75 2.4375 0.75 5 2 C5.8125 4.125 5.8125 4.125 6 6 C5.38125 5.649375 4.7625 5.29875 4.125 4.9375 C3.073125 4.4734375 3.073125 4.4734375 2 4 C1.01 4.495 1.01 4.495 0 5 C0 3.35 0 1.7 0 0 Z " fill="#A68A00" transform="translate(45,31)"/>
<path d="M0 0 C1.65 0.33 3.3 0.66 5 1 C5 1.99 5 2.98 5 4 C2.69 3.67 0.38 3.34 -2 3 C-1.34 2.01 -0.68 1.02 0 0 Z " fill="#B7A20E" transform="translate(26,21)"/>
<path d="M0 0 C0.99 0.33 1.98 0.66 3 1 C3.6875 3.0625 3.6875 3.0625 4 5 C2.02 5.99 2.02 5.99 0 7 C-0.38133299 5.0085944 -0.71325582 3.00720923 -1 1 C-0.67 0.67 -0.34 0.34 0 0 Z " fill="#B7B00D" transform="translate(19,13)"/>
<path d="M0 0 C0 0.99 0 1.98 0 3 C-0.99 3 -1.98 3 -3 3 C-3.33 3.99 -3.66 4.98 -4 6 C-4.66 4.68 -5.32 3.36 -6 2 C-3 0 -3 0 0 0 Z " fill="#8C6703" transform="translate(19,32)"/>
<path d="M0 0 C0 0.99 0 1.98 0 3 C-0.66 3.66 -1.32 4.32 -2 5 C-2.99 5 -3.98 5 -5 5 C-5 3.68 -5 2.36 -5 1 C-2 0 -2 0 0 0 Z " fill="#9D7B00" transform="translate(19,29)"/>
<path d="M0 0 C0.8353125 0.556875 0.8353125 0.556875 1.6875 1.125 C-1.68347383 2.62321059 -3.51692119 3.125 -7.3125 3.125 C-7.3125 2.465 -7.3125 1.805 -7.3125 1.125 C-2.88173077 -1.09038462 -2.88173077 -1.09038462 0 0 Z " fill="#C2B130" transform="translate(31.3125,18.875)"/>
<path d="M0 0 C3.68802044 1.22934015 4.72356973 2.93859378 7 6 C6.67 6.66 6.34 7.32 6 8 C3.69 6.02 1.38 4.04 -1 2 C-0.67 1.34 -0.34 0.68 0 0 Z " fill="#CED0B3" transform="translate(41,15)"/>
</svg>
