<?xml version="1.0" encoding="UTF-8"?>
<svg version="1.1" xmlns="http://www.w3.org/2000/svg" width="62" height="62">
<path d="M0 0 C5.67606875 4.26066229 9.60351111 10.78272563 11 17.7109375 C11.97476595 27.30468656 9.51490881 35.32882177 3.65234375 42.94140625 C-2.00412769 49.12406108 -9.11364942 52.35217341 -17.45703125 52.93359375 C-26.37242111 52.81352116 -33.14028068 50.08314961 -39.72265625 44.1484375 C-45.32786723 38.34387801 -47.30365197 32.32346703 -48.15234375 24.40234375 C-47.17960852 15.32348164 -44.2614128 8.43807869 -37.77734375 1.90234375 C-26.31063636 -7.17362156 -12.39480171 -7.6548116 0 0 Z " fill="#929400" transform="translate(50.77734375,8.09765625)"/>
<path d="M0 0 C3.87431674 2.1264012 7.44673715 4.21832989 9.07421875 8.51953125 C9.11546875 9.07640625 9.15671875 9.63328125 9.19921875 10.20703125 C6.55921875 10.20703125 3.91921875 10.20703125 1.19921875 10.20703125 C2.18921875 14.16703125 3.17921875 18.12703125 4.19921875 22.20703125 C3.20921875 22.86703125 2.21921875 23.52703125 1.19921875 24.20703125 C-0.81300172 23.57821235 -2.81354857 22.91084282 -4.80078125 22.20703125 C-5.79078125 22.53703125 -6.78078125 22.86703125 -7.80078125 23.20703125 C-9.81984933 23.30119903 -11.84202438 23.33694317 -13.86328125 23.33203125 C-14.92675781 23.33460937 -15.99023438 23.3371875 -17.0859375 23.33984375 C-19.80078125 23.20703125 -19.80078125 23.20703125 -21.80078125 22.20703125 C-22.46078125 22.86703125 -23.12078125 23.52703125 -23.80078125 24.20703125 C-25.12078125 23.54703125 -26.44078125 22.88703125 -27.80078125 22.20703125 C-28.13078125 23.19703125 -28.46078125 24.18703125 -28.80078125 25.20703125 C-29.80078125 22.20703125 -29.80078125 22.20703125 -28.42578125 19.33203125 C-25.54328873 15.24338938 -21.20595084 13.334314 -16.80078125 11.20703125 C-21.97365228 12.18505068 -21.97365228 12.18505068 -26.80078125 14.20703125 C-28.25449519 17.03369725 -29.01105529 19.90794471 -29.92578125 22.95703125 C-31.80078125 26.20703125 -31.80078125 26.20703125 -33.66796875 26.91015625 C-37.02894061 27.37798384 -39.58007748 27.28059917 -42.80078125 26.20703125 C-43.38267585 18.06050681 -41.0779282 12.95359912 -36.17578125 6.51953125 C-27.05720209 -3.67182192 -12.03335158 -5.4837979 0 0 Z " fill="#9BA304" transform="translate(46.80078125,5.79296875)"/>
<path d="M0 0 C-0.68707031 0.37511719 -1.37414062 0.75023438 -2.08203125 1.13671875 C-3.43361328 1.90435547 -3.43361328 1.90435547 -4.8125 2.6875 C-5.70582031 3.18636719 -6.59914063 3.68523438 -7.51953125 4.19921875 C-10.28035383 6.20353247 -11.51723534 7.95072649 -13 11 C-13 11.66 -13 12.32 -13 13 C-12.67 12.34 -12.34 11.68 -12 11 C-9.33333333 11 -6.66666667 11 -4 11 C-2.59041016 10.98259766 -2.59041016 10.98259766 -1.15234375 10.96484375 C0.43900391 10.95130859 0.43900391 10.95130859 2.0625 10.9375 C3.12597656 10.92589844 4.18945312 10.91429687 5.28515625 10.90234375 C8 11 8 11 10 12 C10 12.99 10 13.98 10 15 C10.66 15 11.32 15 12 15 C12.33 14.01 12.66 13.02 13 12 C13 12.99 13 13.98 13 15 C14.32 14.67 15.64 14.34 17 14 C16.52060632 18.71403788 16.03165952 22.66579301 14 27 C12.68 26.67 11.36 26.34 10 26 C9.505 24.02 9.505 24.02 9 22 C7.35 22.33 5.7 22.66 4 23 C5.32 23.33 6.64 23.66 8 24 C7.01 24.33 6.02 24.66 5 25 C5 25.99 5 26.98 5 28 C3.39318359 28.07347656 3.39318359 28.07347656 1.75390625 28.1484375 C0.35674361 28.22345294 -1.0403905 28.2990013 -2.4375 28.375 C-3.14455078 28.4059375 -3.85160156 28.436875 -4.58007812 28.46875 C-6.39239188 28.57280629 -8.19817988 28.77919892 -10 29 C-10.33 29.66 -10.66 30.32 -11 31 C-13.12046792 27.46588679 -13.53199289 24.05606165 -14 20 C-16.16343011 22.03268602 -16.16343011 22.03268602 -18 25 C-20.80561762 25.28056176 -22.46578263 25.26710868 -25 24 C-25.6875 22.0625 -25.6875 22.0625 -26 20 C-25.67 19.34 -25.34 18.68 -25 18 C-25.99 18.33 -26.98 18.66 -28 19 C-28 16.69 -28 14.38 -28 12 C-27.319375 12.495 -26.63875 12.99 -25.9375 13.5 C-22.40534991 15.30365111 -19.91363009 15.23021353 -16 15 C-15.9175 14.319375 -15.835 13.63875 -15.75 12.9375 C-14.35977895 7.49246756 -12.2890398 3.47002683 -7.5 0.5 C-3.91667688 -1.03570991 -3.42363192 -1.14121064 0 0 Z " fill="#898B00" transform="translate(31,17)"/>
<path d="M0 0 C6.39550393 4.23466474 6.39550393 4.23466474 7.53515625 7.390625 C7.59703125 7.968125 7.65890625 8.545625 7.72265625 9.140625 C5.08265625 9.140625 2.44265625 9.140625 -0.27734375 9.140625 C1.20765625 15.080625 1.20765625 15.080625 2.72265625 21.140625 C1.73265625 20.2125 0.74265625 19.284375 -0.27734375 18.328125 C-4.04266752 15.07100444 -7.55456387 13.63202917 -12.27734375 12.140625 C-11.28734375 11.150625 -10.29734375 10.160625 -9.27734375 9.140625 C-10.04820313 9.10324219 -10.8190625 9.06585938 -11.61328125 9.02734375 C-12.61617187 8.96160156 -13.6190625 8.89585938 -14.65234375 8.828125 C-15.65007813 8.77011719 -16.6478125 8.71210938 -17.67578125 8.65234375 C-18.53429688 8.48347656 -19.3928125 8.31460937 -20.27734375 8.140625 C-20.93734375 7.150625 -21.59734375 6.160625 -22.27734375 5.140625 C-25.34290973 4.40719072 -25.34290973 4.40719072 -28.27734375 4.140625 C-28.27734375 3.150625 -28.27734375 2.160625 -28.27734375 1.140625 C-26.95734375 1.140625 -25.63734375 1.140625 -24.27734375 1.140625 C-24.27734375 0.480625 -24.27734375 -0.179375 -24.27734375 -0.859375 C-16.08970498 -3.77053545 -7.7127824 -4.49780329 0 0 Z " fill="#D6D9D7" transform="translate(48.27734375,6.859375)"/>
<path d="M0 0 C1.32 0.33 2.64 0.66 4 1 C3.01 2.485 3.01 2.485 2 4 C2.66 5.32 3.32 6.64 4 8 C5.65 7.67 7.3 7.34 9 7 C9.33 5.68 9.66 4.36 10 3 C10.99 3 11.98 3 13 3 C14.87620422 6.16609462 15.09662822 8.35832401 15 12 C21.7000772 16.73742832 27.81119117 18.37242606 36 17 C37.67923233 16.02124744 39.34859635 15.02500916 41 14 C41.66 14.33 42.32 14.66 43 15 C40.11764873 16.94391132 37.2436446 18.85602819 34.25 20.625 C31.90851813 21.93505485 31.90851813 21.93505485 30 24 C31.98 24.33 33.96 24.66 36 25 C36 25.33 36 25.66 36 26 C26.7981232 27.48417368 18.7575581 26.95092218 10.88671875 21.5546875 C6.26123591 17.74321303 1.38294533 12.99276308 0 7 C-0.07646165 4.6679198 -0.09143299 2.33154122 0 0 Z " fill="#889903" transform="translate(4,34)"/>
<path d="M0 0 C0.33 0.66 0.66 1.32 1 2 C1.99 1.67 2.98 1.34 4 1 C4.69140625 2.77734375 4.69140625 2.77734375 5 5 C1.93266169 9.55690835 -2.82776021 13.27592007 -8 15 C-11.35065155 15.22169725 -14.64836195 15.17884235 -18 15 C-14.28685474 9.89442527 -10.79782471 7.44573251 -5 5 C-10.63076019 8.75384013 -16.38336331 8.81381093 -23 8 C-25.91166926 6.98982903 -27.51910227 5.92958712 -30 4 C-30.33 3.01 -30.66 2.02 -31 1 C-29.7625 0.979375 -28.525 0.95875 -27.25 0.9375 C-26.55390625 0.92589844 -25.8578125 0.91429687 -25.140625 0.90234375 C-23 1 -23 1 -21.01953125 1.49609375 C-18.76137849 2.05953999 -16.76225367 2.13286719 -14.4375 2.125 C-13.67308594 2.12757812 -12.90867187 2.13015625 -12.12109375 2.1328125 C-9.81001505 2.07907384 -9.81001505 2.07907384 -7 1 C-5 1 -3 1 -1 1 C-0.67 0.67 -0.34 0.34 0 0 Z " fill="#A2B400" transform="translate(51,44)"/>
<path d="M0 0 C1.63001953 0.01353516 1.63001953 0.01353516 3.29296875 0.02734375 C4.12441406 0.03894531 4.95585938 0.05054688 5.8125 0.0625 C5.8125 0.3925 5.8125 0.7225 5.8125 1.0625 C0.8625 1.7225 -4.0875 2.3825 -9.1875 3.0625 C-9.1875 3.7225 -9.1875 4.3825 -9.1875 5.0625 C-10.12722656 5.33513672 -10.12722656 5.33513672 -11.0859375 5.61328125 C-11.90320313 5.86464844 -12.72046875 6.11601562 -13.5625 6.375 C-14.78066406 6.74044922 -14.78066406 6.74044922 -16.0234375 7.11328125 C-18.51934629 7.97618185 -18.51934629 7.97618185 -20.1875 11.0625 C-17.3190587 13.16482344 -17.3190587 13.16482344 -14.1875 14.0625 C-12.68362546 19.32133174 -14.03028186 22.24878765 -16.51953125 26.94140625 C-18.42764541 29.36788398 -19.29805161 29.84324449 -22.3125 30.25 C-26.1875 30.0625 -26.1875 30.0625 -29.1875 29.0625 C-29.7693946 20.91597556 -27.46464695 15.80906787 -22.5625 9.375 C-16.83472035 2.97336392 -8.39135935 -0.09022967 0 0 Z " fill="#A6B20C" transform="translate(33.1875,2.9375)"/>
<path d="M0 0 C0.33 0 0.66 0 1 0 C0.7201206 7.486774 -0.47649871 13.36270688 -4 20 C-4.99 19.34 -5.98 18.68 -7 18 C-8.32 18 -9.64 18 -11 18 C-11.69480469 17.98839844 -12.38960937 17.97679688 -13.10546875 17.96484375 C-15.07017802 17.93904081 -17.03538528 17.9677932 -19 18 C-19.33 18.33 -19.66 18.66 -20 19 C-21.92578125 19.16796875 -21.92578125 19.16796875 -24.3125 19.1875 C-25.09238281 19.20167969 -25.87226562 19.21585938 -26.67578125 19.23046875 C-29.2032668 18.97984413 -30.81718031 18.26373772 -33 17 C-30.36 17 -27.72 17 -25 17 C-25 16.01 -25 15.02 -25 14 C-24.34 13.67 -23.68 13.34 -23 13 C-23.99 12.67 -24.98 12.34 -26 12 C-25.67 11.34 -25.34 10.68 -25 10 C-23.35 10 -21.7 10 -20 10 C-19.67 11.65 -19.34 13.3 -19 15 C-17.68 14.67 -16.36 14.34 -15 14 C-14.67 12.02 -14.34 10.04 -14 8 C-13.01 7.67 -12.02 7.34 -11 7 C-10.34 6.67 -9.68 6.34 -9 6 C-6.19184563 4.59592281 -4.1575985 4 -1 4 C-0.67 2.68 -0.34 1.36 0 0 Z " fill="#888A00" transform="translate(61,28)"/>
<path d="M0 0 C1.32 0.33 2.64 0.66 4 1 C3.01 2.485 3.01 2.485 2 4 C2.66 5.32 3.32 6.64 4 8 C5.65 7.67 7.3 7.34 9 7 C9.33 5.68 9.66 4.36 10 3 C10.99 3 11.98 3 13 3 C14.41216074 5.38302124 15.01545674 6.69086514 14.875 9.5 C14.7525427 12.19338484 14.7525427 12.19338484 17 14.3125 C17.66 14.869375 18.32 15.42625 19 16 C18.67 16.66 18.34 17.32 18 18 C17.01 17.34 16.02 16.68 15 16 C14.67 16.66 14.34 17.32 14 18 C12.68 18 11.36 18 10 18 C9.67 18.66 9.34 19.32 9 20 C0.11223192 10.42307343 0.11223192 10.42307343 -0.125 3.1875 C-0.063125 1.6096875 -0.063125 1.6096875 0 0 Z " fill="#8C9507" transform="translate(4,34)"/>
<path d="M0 0 C-1.01320313 0.51046875 -1.01320313 0.51046875 -2.046875 1.03125 C-7.42891963 3.95559795 -11.08523636 6.27890454 -13.46875 12.0390625 C-14.19550267 14.72163485 -14.13146549 17.23922477 -14 20 C-14.66 20.66 -15.32 21.32 -16 22 C-16.66 22.99 -17.32 23.98 -18 25 C-20.80561762 25.28056176 -22.46578263 25.26710868 -25 24 C-25.6875 22.0625 -25.6875 22.0625 -26 20 C-25.67 19.34 -25.34 18.68 -25 18 C-25.99 18.33 -26.98 18.66 -28 19 C-28 16.69 -28 14.38 -28 12 C-27.319375 12.495 -26.63875 12.99 -25.9375 13.5 C-22.40534991 15.30365111 -19.91363009 15.23021353 -16 15 C-15.9175 14.319375 -15.835 13.63875 -15.75 12.9375 C-14.35977895 7.49246756 -12.2890398 3.47002683 -7.5 0.5 C-3.91667688 -1.03570991 -3.42363192 -1.14121064 0 0 Z " fill="#576605" transform="translate(31,17)"/>
<path d="M0 0 C1.2375 -0.020625 2.475 -0.04125 3.75 -0.0625 C4.44609375 -0.07410156 5.1421875 -0.08570313 5.859375 -0.09765625 C8 0 8 0 9.98046875 0.49609375 C12.23862151 1.05953999 14.23774633 1.13286719 16.5625 1.125 C17.32691406 1.12757812 18.09132813 1.13015625 18.87890625 1.1328125 C21.18998495 1.07907384 21.18998495 1.07907384 24 0 C25.66621616 -0.03874921 27.33394172 -0.0450286 29 0 C28 3 28 3 24.6875 5.1875 C18.77363535 7.94233983 11.89890319 8.36395078 5.7109375 6.19921875 C2.50942115 4.49306086 1.16404422 3.49213266 0 0 Z " fill="#A1B009" transform="translate(20,45)"/>
<path d="M0 0 C0.33 0.99 0.66 1.98 1 3 C1.99 3.33 2.98 3.66 4 4 C3.34 4.66 2.68 5.32 2 6 C3.11375 5.95875 4.2275 5.9175 5.375 5.875 C9 6 9 6 11 8 C9.60350318 12.8004578 9.60350318 12.8004578 8 15 C4.24108034 16.44875029 0.81241288 16.27080429 -3 15 C-3.3152595 9.01006953 -2.68219822 5.36439644 0 0 Z " fill="#99A202" transform="translate(7,17)"/>
<path d="M0 0 C0.33 0.99 0.66 1.98 1 3 C2.3921875 2.8453125 2.3921875 2.8453125 3.8125 2.6875 C4.864375 2.790625 5.91625 2.89375 7 3 C8.875 5.5 8.875 5.5 10 8 C5.05 10.475 5.05 10.475 0 13 C-0.33 11.68 -0.66 10.36 -1 9 C-3.97 8.505 -3.97 8.505 -7 8 C-6.875 6.25 -6.875 6.25 -6 4 C-2.9375 1.75 -2.9375 1.75 0 0 Z " fill="#ADBD3C" transform="translate(19,8)"/>
<path d="M0 0 C1.9375 0.75 1.9375 0.75 4 2 C4.75 4.125 4.75 4.125 5 6 C2.36 6 -0.28 6 -3 6 C-2.01 9.96 -1.02 13.92 0 18 C-0.99 17.071875 -1.98 16.14375 -3 15.1875 C-6.76532377 11.93037944 -10.27722012 10.49140417 -15 9 C-12 7 -12 7 -8.8125 7.375 C-7.884375 7.58125 -6.95625 7.7875 -6 8 C-6.33 6.02 -6.66 4.04 -7 2 C-4.69 2 -2.38 2 0 2 C0 1.34 0 0.68 0 0 Z " fill="#C4C88E" transform="translate(51,10)"/>
<path d="M0 0 C1.65 0 3.3 0 5 0 C6.60080151 4.00200378 5.29279692 7.04556236 4 11 C5.32 11.33 6.64 11.66 8 12 C7.01 12.33 6.02 12.66 5 13 C5 13.99 5 14.98 5 16 C3.39318359 16.07347656 3.39318359 16.07347656 1.75390625 16.1484375 C0.35674361 16.22345294 -1.0403905 16.2990013 -2.4375 16.375 C-3.14455078 16.4059375 -3.85160156 16.436875 -4.58007812 16.46875 C-6.39239188 16.57280629 -8.19817988 16.77919892 -10 17 C-10.33 17.66 -10.66 18.32 -11 19 C-12.76462683 15.91190305 -13 14.76687864 -13 11 C-12.34 11 -11.68 11 -11 11 C-10.67 10.34 -10.34 9.68 -10 9 C-10 10.65 -10 12.3 -10 14 C-8.02 14 -6.04 14 -4 14 C-4.20625 13.29875 -4.4125 12.5975 -4.625 11.875 C-5.07850357 8.39813928 -4.27540277 6.22601877 -3 3 C-2.67 3 -2.34 3 -2 3 C-1.61866701 4.9914056 -1.28674418 6.99279077 -1 9 C-1.33 9.33 -1.66 9.66 -2 10 C-0.35 10.33 1.3 10.66 3 11 C3.33 8.03 3.66 5.06 4 2 C2.68 1.67 1.36 1.34 0 1 C0 0.67 0 0.34 0 0 Z " fill="#777D00" transform="translate(31,29)"/>
<path d="M0 0 C5.75 1.75 5.75 1.75 8 4 C8 4.99 8 5.98 8 7 C5.69 7 3.38 7 1 7 C1.66 9.31 2.32 11.62 3 14 C2.319375 13.71125 1.63875 13.4225 0.9375 13.125 C-2.32893093 11.87402645 -5.62846123 10.92552045 -9 10 C-9 9.34 -9 8.68 -9 8 C-8.01 8 -7.02 8 -6 8 C-6 7.34 -6 6.68 -6 6 C-5.34 6 -4.68 6 -4 6 C-4 5.34 -4 4.68 -4 4 C-2.70766393 2.62689293 -1.37562854 1.28965176 0 0 Z " fill="#D6D9CC" transform="translate(43,5)"/>
<path d="M0 0 C1.54429579 2.90690972 1.75620978 5.75332369 2.0625 9 C0.94875 8.690625 0.94875 8.690625 -0.1875 8.375 C-3.26080841 7.95591249 -4.36536866 8.38050989 -6.9375 10 C-9.23383824 6.55549263 -9.47766485 4.06187717 -9.9375 0 C-2.57303531 -1.32801822 -2.57303531 -1.32801822 0 0 Z " fill="#AAB112" transform="translate(57.9375,16)"/>
<path d="M0 0 C0.81210937 0.44472656 0.81210937 0.44472656 1.640625 0.8984375 C4.30186114 2.14093517 6.91015574 2.88123126 9.75 3.625 C11.22726563 4.01558594 11.22726563 4.01558594 12.734375 4.4140625 C13.85585938 4.70410156 13.85585938 4.70410156 15 5 C15 5.33 15 5.66 15 6 C14.31292969 5.96519531 13.62585938 5.93039063 12.91796875 5.89453125 C11.56638672 5.85392578 11.56638672 5.85392578 10.1875 5.8125 C8.84751953 5.76029297 8.84751953 5.76029297 7.48046875 5.70703125 C4.58352485 6.04918998 3.77444972 6.75393573 2 9 C4.475 9.99 4.475 9.99 7 11 C4.26980214 12.06528748 3.20701188 12.07998186 0.421875 11.00390625 C-0.45984375 10.52824219 -1.3415625 10.05257812 -2.25 9.5625 C-3.14203125 9.08941406 -4.0340625 8.61632813 -4.953125 8.12890625 C-5.62859375 7.75636719 -6.3040625 7.38382813 -7 7 C-7 6.01 -7 5.02 -7 4 C-4.69 3.34 -2.38 2.68 0 2 C0 1.34 0 0.68 0 0 Z " fill="#7B8B09" transform="translate(21,48)"/>
<path d="M0 0 C-0.99 0.495 -0.99 0.495 -2 1 C-2.33 1.99 -2.66 2.98 -3 4 C-4.98567708 3.93489583 -6.97135417 3.86979167 -8.95703125 3.8046875 C-11.31359719 3.86745538 -11.31359719 3.86745538 -14 6 C-17.1875 5.125 -17.1875 5.125 -20 4 C-14.13783158 -2.38364966 -7.8935869 -2.53983467 0 0 Z " fill="#A7B407" transform="translate(42,20)"/>
<path d="M0 0 C0.33 0.99 0.66 1.98 1 3 C3.91652174 3.16681109 3.91652174 3.16681109 7 3 C7.66 2.34 8.32 1.68 9 1 C8.45660208 5.56454251 7.20536179 8.9728176 5 13 C4.01 12.34 3.02 11.68 2 11 C0.68 11 -0.64 11 -2 11 C-2.99 10.67 -3.98 10.34 -5 10 C-4 7 -4 7 -2.5 5.5625 C-0.75814029 3.74806281 -0.42144987 2.44440923 0 0 Z " fill="#A0AE06" transform="translate(52,35)"/>
<path d="M0 0 C0.66 0.66 1.32 1.32 2 2 C-4.0831351 6.42409826 -9.57228212 6.90096437 -17 6 C-19.36328125 4.9765625 -19.36328125 4.9765625 -21 4 C-20.67 3.01 -20.34 2.02 -20 1 C-18.71416016 1.26876953 -18.71416016 1.26876953 -17.40234375 1.54296875 C-8.31271749 3.24418569 -8.31271749 3.24418569 0 0 Z " fill="#B2C04F" transform="translate(45,46)"/>
<path d="M0 0 C1.63001953 0.01353516 1.63001953 0.01353516 3.29296875 0.02734375 C4.12441406 0.03894531 4.95585938 0.05054688 5.8125 0.0625 C5.8125 0.3925 5.8125 0.7225 5.8125 1.0625 C0.8625 1.7225 -4.0875 2.3825 -9.1875 3.0625 C-9.1875 3.7225 -9.1875 4.3825 -9.1875 5.0625 C-10.10982422 5.30033203 -10.10982422 5.30033203 -11.05078125 5.54296875 C-16.29451458 6.99826715 -16.29451458 6.99826715 -20.25 10.5625 C-21.36306172 13.08566439 -21.36306172 13.08566439 -21.1875 16.0625 C-21.8475 16.0625 -22.5075 16.0625 -23.1875 16.0625 C-23.1875 15.4025 -23.1875 14.7425 -23.1875 14.0625 C-23.8475 13.7325 -24.5075 13.4025 -25.1875 13.0625 C-18.88768816 4.60748938 -10.67063794 -0.11473804 0 0 Z " fill="#8F9D09" transform="translate(33.1875,2.9375)"/>
<path d="M0 0 C0.33 0.99 0.66 1.98 1 3 C1.66 3.33 2.32 3.66 3 4 C3.33333333 5.66666667 3.66666667 7.33333333 4 9 C4.66 9.33 5.32 9.66 6 10 C3.125 10.1875 3.125 10.1875 0 10 C-0.66 9.01 -1.32 8.02 -2 7 C-5.06556598 6.26656572 -5.06556598 6.26656572 -8 6 C-8 5.01 -8 4.02 -8 3 C-6.68 3 -5.36 3 -4 3 C-4 2.34 -4 1.68 -4 1 C-2 0 -2 0 0 0 Z " fill="#C1C38E" transform="translate(28,5)"/>
<path d="M0 0 C1.32 0.33 2.64 0.66 4 1 C3.01 2.485 3.01 2.485 2 4 C2.66 5.32 3.32 6.64 4 8 C7.93075644 7.42547254 7.93075644 7.42547254 11 5 C11.33 6.65 11.66 8.3 12 10 C9 11 9 11 5 11 C4.34 11.66 3.68 12.32 3 13 C0.33409063 8.44573816 -0.31563182 5.26053037 0 0 Z " fill="#858A02" transform="translate(4,34)"/>
<path d="M0 0 C0.33 0.66 0.66 1.32 1 2 C1.99 1.67 2.98 1.34 4 1 C4.6875 2.8125 4.6875 2.8125 5 5 C3.8125 6.625 3.8125 6.625 2 8 C-0.26171875 8.29296875 -0.26171875 8.29296875 -2.6875 8.1875 C-3.89986328 8.14689453 -3.89986328 8.14689453 -5.13671875 8.10546875 C-5.75160156 8.07066406 -6.36648437 8.03585938 -7 8 C-6.02133662 6.85373678 -5.04205413 5.70800212 -4.0625 4.5625 C-3.51722656 3.92441406 -2.97195312 3.28632812 -2.41015625 2.62890625 C-1.63204305 1.73008851 -0.84063472 0.84063472 0 0 Z " fill="#B1BB48" transform="translate(51,44)"/>
<path d="M0 0 C2.0625 0.4375 2.0625 0.4375 4 1 C4.66 0.67 5.32 0.34 6 0 C6 2.31 6 4.62 6 7 C2.37471432 7.20140476 0.13498292 6.85776765 -3 5 C-3.33 5.99 -3.66 6.98 -4 8 C-4.33 7.01 -4.66 6.02 -5 5 C-3 2 -3 2 0 0 Z " fill="#9AA204" transform="translate(55,23)"/>
<path d="M0 0 C2.5 2.3125 2.5 2.3125 5 5 C5 5.99 5 6.98 5 8 C4.01 7.34 3.02 6.68 2 6 C1.67 6.66 1.34 7.32 1 8 C-0.32 8 -1.64 8 -3 8 C-3.33 8.66 -3.66 9.32 -4 10 C-5 9 -5 9 -5.0625 5.9375 C-5.041875 4.968125 -5.02125 3.99875 -5 3 C-4.360625 2.690625 -3.72125 2.38125 -3.0625 2.0625 C-1.06389179 1.1654837 -1.06389179 1.1654837 0 0 Z " fill="#A2B402" transform="translate(17,44)"/>
<path d="M0 0 C1.62463842 -0.05395478 3.24978541 -0.09277195 4.875 -0.125 C6.23238281 -0.15980469 6.23238281 -0.15980469 7.6171875 -0.1953125 C10 0 10 0 12 2 C11.05898438 2.24234375 10.11796875 2.4846875 9.1484375 2.734375 C7.90320313 3.06953125 6.65796875 3.4046875 5.375 3.75 C4.14523438 4.07484375 2.91546875 4.3996875 1.6484375 4.734375 C-2.20245138 6.07022939 -4.74050845 7.61304926 -8 10 C-8.66 9.67 -9.32 9.34 -10 9 C-6.53258866 6.04250209 -3.13126473 3.92151848 1 2 C0.67 1.34 0.34 0.68 0 0 Z " fill="#869404" transform="translate(29,15)"/>
<path d="M0 0 C0.66 0.33 1.32 0.66 2 1 C1.34 2.65 0.68 4.3 0 6 C-1.258125 6.185625 -2.51625 6.37125 -3.8125 6.5625 C-4.87404297 6.71912109 -4.87404297 6.71912109 -5.95703125 6.87890625 C-8 7 -8 7 -11 6 C-11 4.68 -11 3.36 -11 2 C-4.25 1.875 -4.25 1.875 -2 3 C-2 2.34 -2 1.68 -2 1 C-1.34 0.67 -0.68 0.34 0 0 Z " fill="#939400" transform="translate(15,26)"/>
<path d="M0 0 C1.0725 0.2475 2.145 0.495 3.25 0.75 C2.899375 1.36875 2.54875 1.9875 2.1875 2.625 C1.878125 3.32625 1.56875 4.0275 1.25 4.75 C1.58 5.41 1.91 6.07 2.25 6.75 C-4.375 6 -4.375 6 -7.75 3.75 C-5.15187156 0.32047046 -4.43092205 -0.2953948 0 0 Z " fill="#95AD01" transform="translate(29.75,53.25)"/>
<path d="M0 0 C0.33 0 0.66 0 1 0 C0.52060632 4.71403788 0.03165952 8.66579301 -2 13 C-3.32 12.67 -4.64 12.34 -6 12 C-5.67 9.03 -5.34 6.06 -5 3 C-3.68 3.66 -2.36 4.32 -1 5 C-0.67 3.35 -0.34 1.7 0 0 Z " fill="#747C00" transform="translate(47,31)"/>
<path d="M0 0 C-1.01320313 0.51046875 -1.01320313 0.51046875 -2.046875 1.03125 C-8.26577955 4.41030796 -11.82525555 7.16709325 -14 14 C-14.76754832 16.81448914 -14.76754832 16.81448914 -15 19 C-15.33 19 -15.66 19 -16 19 C-16.68415698 12.56892443 -14.94963601 8.12465272 -11 3 C-7.46132324 -0.02525267 -4.56643142 -1.4988287 0 0 Z " fill="#31322E" transform="translate(31,17)"/>
<path d="M0 0 C1.9375 0.75 1.9375 0.75 4 2 C4.75 4.125 4.75 4.125 5 6 C3.68 6 2.36 6 1 6 C1 5.34 1 4.68 1 4 C-1.76276177 4.52268466 -4.3260876 5.10869587 -7 6 C-7 4.68 -7 3.36 -7 2 C-4.69 2 -2.38 2 0 2 C0 1.34 0 0.68 0 0 Z " fill="#C5C4B1" transform="translate(51,10)"/>
<path d="M0 0 C5.4 0.6 5.4 0.6 7.875 2.25 C9.37422891 4.58213386 9.22023906 6.28371825 9 9 C7.0625 8.25 7.0625 8.25 5 7 C4.25 4.875 4.25 4.875 4 3 C2.68 3 1.36 3 0 3 C0 2.01 0 1.02 0 0 Z " fill="#A1AD08" transform="translate(40,21)"/>
<path d="M0 0 C0.33 0 0.66 0 1 0 C1 1.65 1 3.3 1 5 C5.95 5 10.9 5 16 5 C16 5.66 16 6.32 16 7 C14.39318359 7.07347656 14.39318359 7.07347656 12.75390625 7.1484375 C11.35674361 7.22345294 9.9596095 7.2990013 8.5625 7.375 C7.85544922 7.4059375 7.14839844 7.436875 6.41992188 7.46875 C4.60760812 7.57280629 2.80182012 7.77919892 1 8 C0.67 8.66 0.34 9.32 0 10 C-1.76462683 6.91190305 -2 5.76687864 -2 2 C-1.34 2 -0.68 2 0 2 C0 1.34 0 0.68 0 0 Z " fill="#5A6907" transform="translate(20,38)"/>
<path d="M0 0 C1.65 0.33 3.3 0.66 5 1 C1.57611908 4.82669043 -1.00724943 6.72278474 -6 8 C-6.33 7.01 -6.66 6.02 -7 5 C-5.02 5 -3.04 5 -1 5 C-0.67 3.35 -0.34 1.7 0 0 Z " fill="#869521" transform="translate(47,51)"/>
<path d="M0 0 C1.39195915 4.17587745 -0.17676781 6.13474776 -2 10 C-2.66 9.34 -3.32 8.68 -4 8 C-3.67 7.34 -3.34 6.68 -3 6 C-4.65 5.67 -6.3 5.34 -8 5 C-7.67 4.01 -7.34 3.02 -7 2 C-5.02 2 -3.04 2 -1 2 C-0.67 1.34 -0.34 0.68 0 0 Z " fill="#979F02" transform="translate(60,36)"/>
<path d="M0 0 C-3.48147523 2.32098349 -4.94765127 2 -9 2 C-9.66 2.66 -10.32 3.32 -11 4 C-12.98821313 4.39764263 -14.98944339 4.73775349 -17 5 C-12.39490347 -0.07558627 -6.63943244 -1.82584392 0 0 Z " fill="#B0C149" transform="translate(39,19)"/>
<path d="M0 0 C0.33 0.99 0.66 1.98 1 3 C2.98 3 4.96 3 7 3 C7.66 4.32 8.32 5.64 9 7 C7.4221875 6.5359375 7.4221875 6.5359375 5.8125 6.0625 C2.87247604 5.24314906 -0.00161623 4.54516069 -3 4 C-2.67 3.01 -2.34 2.02 -2 1 C-1.34 0.67 -0.68 0.34 0 0 Z " fill="#B6BB66" transform="translate(19,8)"/>
<path d="M0 0 C0.33 0.99 0.66 1.98 1 3 C1.99 3.33 2.98 3.66 4 4 C2.625 5.5 2.625 5.5 1 7 C0.34 7 -0.32 7 -1 7 C-0.67 7.99 -0.34 8.98 0 10 C-0.99 10 -1.98 10 -3 10 C-2.49287967 6.28111761 -1.88391785 3.26545761 0 0 Z " fill="#8F9C0C" transform="translate(7,17)"/>
<path d="M0 0 C0.33 1.65 0.66 3.3 1 5 C-1.97 5 -4.94 5 -8 5 C-8 4.34 -8 3.68 -8 3 C-6.68 3 -5.36 3 -4 3 C-4 2.34 -4 1.68 -4 1 C-2 0 -2 0 0 0 Z " fill="#C1C2B3" transform="translate(28,5)"/>
<path d="M0 0 C1 1.6875 1 1.6875 1 3.6875 C0.01 3.6875 -0.98 3.6875 -2 3.6875 C-2 3.0275 -2 2.3675 -2 1.6875 C-4.64 1.6875 -7.28 1.6875 -10 1.6875 C-10 1.0275 -10 0.3675 -10 -0.3125 C-2.52908757 -1.65971372 -2.52908757 -1.65971372 0 0 Z " fill="#B3BD4E" transform="translate(58,16.3125)"/>
<path d="M0 0 C0.99 0.33 1.98 0.66 3 1 C3.33 3.31 3.66 5.62 4 8 C2.35 8.33 0.7 8.66 -1 9 C-0.67 6.03 -0.34 3.06 0 0 Z " fill="#929500" transform="translate(37,29)"/>
<path d="M0 0 C3.63 0 7.26 0 11 0 C10.01 0.33 9.02 0.66 8 1 C8 1.66 8 2.32 8 3 C7.34 3 6.68 3 6 3 C5.67 3.99 5.34 4.98 5 6 C4.34 5.67 3.68 5.34 3 5 C3 4.01 3 3.02 3 2 C2.01 1.34 1.02 0.68 0 0 Z " fill="#CACCAB" transform="translate(31,4)"/>
<path d="M0 0 C1.32 0.33 2.64 0.66 4 1 C4 2.32 4 3.64 4 5 C1.36 5 -1.28 5 -4 5 C-2.68 3.35 -1.36 1.7 0 0 Z " fill="#BEBC76" transform="translate(48,47)"/>
<path d="M0 0 C2.125 0.9375 2.125 0.9375 4 2 C3.67 2.99 3.34 3.98 3 5 C1.02 5 -0.96 5 -3 5 C-2.625 3.0625 -2.625 3.0625 -2 1 C-1.34 0.67 -0.68 0.34 0 0 Z " fill="#AAC336" transform="translate(43,51)"/>
<path d="M0 0 C8.57142857 -0.14285714 8.57142857 -0.14285714 12 1 C11.67 1.66 11.34 2.32 11 3 C10.05125 2.79375 9.1025 2.5875 8.125 2.375 C7.09375 2.25125 6.0625 2.1275 5 2 C4.34 2.66 3.68 3.32 3 4 C1.97895449 3.02149805 0.9793879 2.02019573 0 1 C0 0.67 0 0.34 0 0 Z " fill="#99A200" transform="translate(20,45)"/>
<path d="M0 0 C1.65 0 3.3 0 5 0 C5.33 1.32 5.66 2.64 6 4 C3.69 4 1.38 4 -1 4 C-0.67 2.68 -0.34 1.36 0 0 Z " fill="#DCDED8" transform="translate(45,8)"/>
<path d="M0 0 C0.66 0.33 1.32 0.66 2 1 C1.25 3.4375 1.25 3.4375 0 6 C-2.125 6.8125 -2.125 6.8125 -4 7 C-4 5.68 -4 4.36 -4 3 C-3.34 3 -2.68 3 -2 3 C-2 2.34 -2 1.68 -2 1 C-1.34 0.67 -0.68 0.34 0 0 Z " fill="#848800" transform="translate(15,26)"/>
<path d="M0 0 C0.99 0.66 1.98 1.32 3 2 C3.99 2.33 4.98 2.66 6 3 C5.67 3.99 5.34 4.98 5 6 C4.34 6 3.68 6 3 6 C3 5.34 3 4.68 3 4 C1.35 4 -0.3 4 -2 4 C-2 3.34 -2 2.68 -2 2 C-1.34 2 -0.68 2 0 2 C0 1.34 0 0.68 0 0 Z " fill="#AFBC0A" transform="translate(13,14)"/>
<path d="M0 0 C0.99 0 1.98 0 3 0 C4.4606285 2.64738916 5 3.89448334 5 7 C4.01 7.33 3.02 7.66 2 8 C1.34 5.36 0.68 2.72 0 0 Z " fill="#909D00" transform="translate(14,37)"/>
<path d="M0 0 C-0.66 0 -1.32 0 -2 0 C-2.33 0.99 -2.66 1.98 -3 3 C-5.31 3 -7.62 3 -10 3 C-9 1 -9 1 -6.6875 -0.1875 C-3.88010429 -1.03624754 -2.698065 -0.99928333 0 0 Z " fill="#A9B215" transform="translate(42,21)"/>
<path d="M0 0 C0.66 0.66 1.32 1.32 2 2 C1.01 3.485 1.01 3.485 0 5 C-0.66 5 -1.32 5 -2 5 C-2.33 5.66 -2.66 6.32 -3 7 C-3.33 5.35 -3.66 3.7 -4 2 C-2.68 2 -1.36 2 0 2 C0 1.34 0 0.68 0 0 Z " fill="#9AB224" transform="translate(16,47)"/>
<path d="M0 0 C0.78375 0.474375 1.5675 0.94875 2.375 1.4375 C3.88948678 2.33898023 5.4235897 3.21179485 7 4 C3.535 5.485 3.535 5.485 0 7 C0 4.69 0 2.38 0 0 Z " fill="#717608" transform="translate(3,29)"/>
<path d="M0 0 C0.66 0.33 1.32 0.66 2 1 C2 1.66 2 2.32 2 3 C4.31 3 6.62 3 9 3 C9 3.33 9 3.66 9 4 C4.545 4.495 4.545 4.495 0 5 C-0.33 3.68 -0.66 2.36 -1 1 C-0.67 0.67 -0.34 0.34 0 0 Z " fill="#6E7A09" transform="translate(31,56)"/>
<path d="M0 0 C2.64 0 5.28 0 8 0 C7.67 0.99 7.34 1.98 7 3 C4.69 2.34 2.38 1.68 0 1 C0 0.67 0 0.34 0 0 Z " fill="#B2BA01" transform="translate(48,18)"/>
</svg>
