<?xml version="1.0" encoding="UTF-8"?>
<svg version="1.1" xmlns="http://www.w3.org/2000/svg" width="62" height="62">
<path d="M0 0 C6.24675681 4.69918777 9.70932358 11.12673643 10.91015625 18.75 C11.77432509 28.58195867 9.14292078 36.82139409 3.16015625 44.625 C-2.61045892 50.77167773 -9.16503109 54.31334582 -17.58984375 54.875 C-25.17754857 54.72043564 -30.57816635 51.69390812 -36.078125 46.59375 C-41.76178263 40.24216808 -43.23797487 32.92871695 -43.10546875 24.625 C-42.21334675 14.5492692 -37.35832506 7.19300879 -29.83984375 0.625 C-21.02989571 -5.63087136 -9.18471905 -5.25694489 0 0 Z " fill="#689E00" transform="translate(47.83984375,6.375)"/>
<path d="M0 0 C0 0.33 0 0.66 0 1 C-1.01707031 1.02126953 -1.01707031 1.02126953 -2.0546875 1.04296875 C-10.07610681 1.45403871 -16.94682873 3.16925886 -22.921875 8.81640625 C-24.92937578 11.1059131 -26.63688515 13.2737703 -28 16 C-26.35 16.33 -24.7 16.66 -23 17 C-23 17.66 -23 18.32 -23 19 C-20.60280568 19.67958603 -20.60280568 19.67958603 -18 20 C-17.34 19.34 -16.68 18.68 -16 18 C-13.875 18.375 -13.875 18.375 -12 19 C-12.66 20.0725 -13.32 21.145 -14 22.25 C-16.69601088 27.68067425 -16.98629643 33.05714608 -16 39 C-14.62313574 41.68541083 -13.29459083 42.91885948 -11 45 C-10.401875 45.61875 -9.80375 46.2375 -9.1875 46.875 C-8.795625 47.24625 -8.40375 47.6175 -8 48 C-12.87362847 47.54663921 -15.39042389 46.2910841 -19 43 C-19.33 43.99 -19.66 44.98 -20 46 C-22.0625 46.6875 -22.0625 46.6875 -24 47 C-23.67 48.98 -23.34 50.96 -23 53 C-28.86223042 50.50030435 -31.99196164 45.42845606 -34.375 39.6875 C-36.14494381 29.2448315 -35.27123664 20.06515603 -29.046875 11.2265625 C-20.46965938 0.99988234 -13.0674829 -0.72709333 0 0 Z " fill="#629803" transform="translate(40,3)"/>
<path d="M0 0 C3.78555535 2.4758904 6.68627655 4.9968182 9.18359375 8.80078125 C9.18359375 9.46078125 9.18359375 10.12078125 9.18359375 10.80078125 C7.53359375 11.13078125 5.88359375 11.46078125 4.18359375 11.80078125 C4.84359375 13.78078125 5.50359375 15.76078125 6.18359375 17.80078125 C5.16265625 17.27484375 5.16265625 17.27484375 4.12109375 16.73828125 C-1.5457091 14.92972715 -7.32672769 16.93429054 -12.81640625 18.80078125 C-13.14640625 19.46078125 -13.47640625 20.12078125 -13.81640625 20.80078125 C-16.37890625 21.42578125 -16.37890625 21.42578125 -18.81640625 21.80078125 C-17.37386968 18.43486259 -15.48375898 16.29031046 -12.81640625 13.80078125 C-15.47549675 11.62743744 -15.47549675 11.62743744 -17.69140625 11.80078125 C-21.00060274 13.35805019 -22.60562288 15.91448074 -24.81640625 18.80078125 C-27.28440672 17.6490477 -28.8642419 16.7529456 -30.81640625 14.80078125 C-32.88514659 14.15825775 -32.88514659 14.15825775 -34.81640625 13.80078125 C-27.2326855 2.08318919 -14.18441036 -6.03968652 0 0 Z " fill="#FAFDF9" transform="translate(45.81640625,5.19921875)"/>
<path d="M0 0 C0.99 0.33 1.98 0.66 3 1 C2.60144168 7.37693314 -2.01122039 12.16037886 -6.5 16.3125 C-13.12688399 20.78564669 -18.97966692 22.82519673 -27 22 C-31.38773909 20.88382076 -34.39838556 19.90242166 -37 16 C-37.125 13.3125 -37.125 13.3125 -37 11 C-35.68 10.67 -34.36 10.34 -33 10 C-32.67 8.68 -32.34 7.36 -32 6 C-30.88625 6.99 -30.88625 6.99 -29.75 8 C-27.02757055 10.39211447 -27.02757055 10.39211447 -23 10 C-22.37609375 9.67257813 -21.7521875 9.34515625 -21.109375 9.0078125 C-18.37383133 7.70083052 -16.26472197 7.80322091 -13.25 7.875 C-12.26515625 7.89304687 -11.2803125 7.91109375 -10.265625 7.9296875 C-9.14414062 7.96449219 -9.14414062 7.96449219 -8 8 C-8 7.34 -8 6.68 -8 6 C-7.05125 5.566875 -6.1025 5.13375 -5.125 4.6875 C-1.79958063 3.20697799 -1.79958063 3.20697799 0 0 Z " fill="#7BAF08" transform="translate(53,39)"/>
<path d="M0 0 C-0.99 0.33 -1.98 0.66 -3 1 C-2.01 1.66 -1.02 2.32 0 3 C-0.9590625 3.37125 -0.9590625 3.37125 -1.9375 3.75 C-4.18741541 4.81562433 -4.18741541 4.81562433 -4.75 7.125 C-4.8325 7.74375 -4.915 8.3625 -5 9 C-4.01 9.33 -3.02 9.66 -2 10 C-1.67 9.01 -1.34 8.02 -1 7 C3.12551775 5.49259928 6.63966176 4.88215302 11 5 C12.34164079 4.7018576 13.67851173 4.37756808 15 4 C15.33 4 15.66 4 16 4 C16 2.68 16 1.36 16 0 C17.98 0 19.96 0 22 0 C23.99785435 4.1205746 24.17835515 7.45194365 24 12 C22.00045254 12.04254356 19.99958364 12.04080783 18 12 C17.67 11.67 17.34 11.34 17 11 C16.01 11.495 16.01 11.495 15 12 C14.67 12.99 14.34 13.98 14 15 C14 13.35 14 11.7 14 10 C13.01 11.485 13.01 11.485 12 13 C12 12.34 12 11.68 12 11 C11.34 11 10.68 11 10 11 C9.67 13.31 9.34 15.62 9 18 C6.50935112 18.68707555 4.62113708 19 2 19 C2 16.69 2 14.38 2 12 C0.02 12 -1.96 12 -4 12 C-4.061875 12.61875 -4.12375 13.2375 -4.1875 13.875 C-5 16 -5 16 -7.5625 17.25 C-8.366875 17.4975 -9.17125 17.745 -10 18 C-10.34833144 13.12335991 -9.41685712 10.22949995 -7 6 C-9.16874252 6.50603992 -10.99967627 6.99983813 -13 8 C-10.75373981 2.28224679 -6.06506476 -1.81951943 0 0 Z " fill="#71B104" transform="translate(34,16)"/>
<path d="M0 0 C5.35709552 0.33481847 9.209884 3.43984609 13 7 C14.5 9.875 14.5 9.875 15 12 C13.35 12.33 11.7 12.66 10 13 C10.66 14.98 11.32 16.96 12 19 C10.9790625 18.4740625 10.9790625 18.4740625 9.9375 17.9375 C4.27069715 16.1289459 -1.51032144 18.13350929 -7 20 C-7.33 20.66 -7.66 21.32 -8 22 C-10.5625 22.625 -10.5625 22.625 -13 23 C-11.55746343 19.63408134 -9.66735273 17.48952921 -7 15 C-7.99 14.34 -8.98 13.68 -10 13 C-8.9375 11.5 -8.9375 11.5 -7 10 C-3.3125 9.8125 -3.3125 9.8125 0 10 C0 6.7 0 3.4 0 0 Z " fill="#A5C542" transform="translate(40,4)"/>
<path d="M0 0 C0 0.33 0 0.66 0 1 C-1.01707031 1.02126953 -1.01707031 1.02126953 -2.0546875 1.04296875 C-10.07610681 1.45403871 -16.94682873 3.16925886 -22.921875 8.81640625 C-24.92937578 11.1059131 -26.63688515 13.2737703 -28 16 C-26.35 16.33 -24.7 16.66 -23 17 C-23 17.66 -23 18.32 -23 19 C-22.01 19.33 -21.02 19.66 -20 20 C-19.75 25.625 -19.75 25.625 -22 29 C-22.66 29 -23.32 29 -24 29 C-24.33 29.99 -24.66 30.98 -25 32 C-25.99 32 -26.98 32 -28 32 C-28 32.33 -28 32.66 -28 33 C-29.65 33 -31.3 33 -33 33 C-34.10236309 17.50567441 -34.10236309 17.50567441 -28.7734375 10.86328125 C-19.76806019 1.40168438 -13.02498881 -0.52883413 0 0 Z " fill="#75AC0B" transform="translate(40,3)"/>
<path d="M0 0 C0.99 0.33 1.98 0.66 3 1 C2.61900297 7.09595254 -1.69438276 11.2762975 -5.46484375 15.73046875 C-8.03241952 17.85378205 -10.81721549 17.18015761 -14 17 C-11.125 13.125 -11.125 13.125 -10 12 C-10.77085938 12.03480469 -11.54171875 12.06960937 -12.3359375 12.10546875 C-13.33882812 12.13253906 -14.34171875 12.15960938 -15.375 12.1875 C-16.87160156 12.23970703 -16.87160156 12.23970703 -18.3984375 12.29296875 C-19.25695313 12.19628906 -20.11546875 12.09960938 -21 12 C-21.66 11.01 -22.32 10.02 -23 9 C-19.68929162 7.99890485 -16.69915231 7.89643866 -13.25 7.9375 C-12.26515625 7.94652344 -11.2803125 7.95554687 -10.265625 7.96484375 C-9.14414062 7.98224609 -9.14414062 7.98224609 -8 8 C-8 7.34 -8 6.68 -8 6 C-7.05125 5.566875 -6.1025 5.13375 -5.125 4.6875 C-1.79958063 3.20697799 -1.79958063 3.20697799 0 0 Z " fill="#9DC536" transform="translate(53,39)"/>
<path d="M0 0 C0.33 0 0.66 0 1 0 C1 3.3 1 6.6 1 10 C2.15302939 8.92192378 2.15302939 8.92192378 3.25 7 C5.43503914 4.50281241 6.78918364 4.48162245 10 4 C10.99 3.34 11.98 2.68 13 2 C13.33 3.65 13.66 5.3 14 7 C14.99 7 15.98 7 17 7 C17.66 6.34 18.32 5.68 19 5 C20.32 5.66 21.64 6.32 23 7 C21.71034824 8.37562854 20.37310707 9.70766393 19 11 C18.34 11 17.68 11 17 11 C17 11.66 17 12.32 17 13 C11.72 13.66 6.44 14.32 1 15 C-0.49403054 12.01193893 -1.79310745 9.10343799 -3 6 C-2.01 6 -1.02 6 0 6 C0 4.02 0 2.04 0 0 Z " fill="#589200" transform="translate(28,34)"/>
<path d="M0 0 C0.61875 0.7425 0.61875 0.7425 1.25 1.5 C3.12202338 3.43386092 3.12202338 3.43386092 7 3 C7.33 2.34 7.66 1.68 8 1 C8.61875 1.495 9.2375 1.99 9.875 2.5 C11.83880904 4.19222773 11.83880904 4.19222773 14 4 C14 4.66 14 5.32 14 6 C13.48050781 6.23074219 12.96101563 6.46148438 12.42578125 6.69921875 C7.71458958 8.90241929 4.45626853 11.1116979 1 15 C0.2575 14.360625 -0.485 13.72125 -1.25 13.0625 C-3.78795462 11.15903404 -5.01785181 10.60535059 -8 10 C-7.04367001 8.70684939 -6.08486149 7.41553147 -5.125 6.125 C-4.59132813 5.40570312 -4.05765625 4.68640625 -3.5078125 3.9453125 C-2 2 -2 2 0 0 Z " fill="#EFF5EC" transform="translate(19,9)"/>
<path d="M0 0 C-0.99 0.33 -1.98 0.66 -3 1 C-2.01 1.66 -1.02 2.32 0 3 C-0.9590625 3.37125 -0.9590625 3.37125 -1.9375 3.75 C-4.18741541 4.81562433 -4.18741541 4.81562433 -4.75 7.125 C-4.8325 7.74375 -4.915 8.3625 -5 9 C-4.01 9.33 -3.02 9.66 -2 10 C-1.67 9.01 -1.34 8.02 -1 7 C2.91390601 5.52305434 5.99434629 4.39773852 10 6 C7.3534665 8.6465335 4.43778736 9.59941997 1 11 C1.66 11 2.32 11 3 11 C2.67 11.99 2.34 12.98 2 14 C2 13.34 2 12.68 2 12 C0.02 12 -1.96 12 -4 12 C-4.061875 12.61875 -4.12375 13.2375 -4.1875 13.875 C-5 16 -5 16 -7.5625 17.25 C-8.366875 17.4975 -9.17125 17.745 -10 18 C-10.34833144 13.12335991 -9.41685712 10.22949995 -7 6 C-9.16874252 6.50603992 -10.99967627 6.99983813 -13 8 C-10.75373981 2.28224679 -6.06506476 -1.81951943 0 0 Z " fill="#82B908" transform="translate(34,16)"/>
<path d="M0 0 C0.5775 0.226875 1.155 0.45375 1.75 0.6875 C1.09 1.76 0.43 2.8325 -0.25 3.9375 C-2.94601088 9.36817425 -3.23629643 14.74464608 -2.25 20.6875 C-0.87313574 23.37291083 0.45540917 24.60635948 2.75 26.6875 C3.348125 27.30625 3.94625 27.925 4.5625 28.5625 C4.954375 28.93375 5.34625 29.305 5.75 29.6875 C0.86987721 29.23353509 -1.93009012 28.36631905 -5.25 24.6875 C-8.5680709 18.13802423 -8.37814288 12.35638052 -7.18359375 5.25390625 C-5.84769311 1.58157689 -4.0931836 -0.56849772 0 0 Z " fill="#343731" transform="translate(26.25,21.3125)"/>
<path d="M0 0 C4.5 3 4.5 3 9 6 C7.35 6.66 5.7 7.32 4 8 C3.7226499 11.18490007 3.7226499 11.18490007 6 14 C3.23648399 15.12587689 2.1585785 15.05900595 -0.6875 14 C-3 12 -3 12 -3.8125 8.3125 C-3.874375 7.219375 -3.93625 6.12625 -4 5 C-2.68 4.67 -1.36 4.34 0 4 C0 2.68 0 1.36 0 0 Z " fill="#7FAB12" transform="translate(20,45)"/>
<path d="M0 0 C1.50156874 3.00313748 1.09281204 5.79067522 1.0625 9.125 C1.05347656 10.40632813 1.04445313 11.68765625 1.03515625 13.0078125 C1.02355469 13.99523438 1.01195312 14.98265625 1 16 C0.236875 15.835 -0.52625 15.67 -1.3125 15.5 C-4.03596236 14.90854604 -4.03596236 14.90854604 -7 15 C-7.66 14.34 -8.32 13.68 -9 13 C-8.625 10.375 -8.625 10.375 -8 8 C-5.92446352 7.4465236 -4.15634036 7 -2 7 C-2 5.02 -2 3.04 -2 1 C-1.34 0.67 -0.68 0.34 0 0 Z " fill="#5B9600" transform="translate(18,31)"/>
<path d="M0 0 C0.66 0 1.32 0 2 0 C2.33 0.99 2.66 1.98 3 3 C2.01 3 1.02 3 0 3 C0 6.63 0 10.26 0 14 C0.99 14.33 1.98 14.66 3 15 C1.68 15.33 0.36 15.66 -1 16 C-1.33 14.35 -1.66 12.7 -2 11 C-3.33333333 14 -3.33333333 14 -2 17 C-5.875 15.25 -5.875 15.25 -7 13 C-7.07065617 10.95944995 -7.08421976 8.91665743 -7.0625 6.875 C-7.05347656 5.77929688 -7.04445313 4.68359375 -7.03515625 3.5546875 C-7.02355469 2.71164063 -7.01195313 1.86859375 -7 1 C-6.67 2.32 -6.34 3.64 -6 5 C-2.37206002 3.13433512 -2.37206002 3.13433512 0 0 Z " fill="#699901" transform="translate(30,29)"/>
<path d="M0 0 C3.37462715 0.54723683 5.08235 1.0549 8 3 C8.4375 5.375 8.4375 5.375 8 8 C6.3125 10.375 6.3125 10.375 4 12 C1.25 11.75 1.25 11.75 -1 11 C-0.835 10.113125 -0.67 9.22625 -0.5 8.3125 C-0.07004243 5.46403108 0.08441035 2.86995198 0 0 Z " fill="#D2DBD6" transform="translate(40,4)"/>
<path d="M0 0 C2.34391133 3.51586699 3.35906449 6.1020877 2.5625 10.3125 C2.376875 10.869375 2.19125 11.42625 2 12 C0.68 12.33 -0.64 12.66 -2 13 C-1.67 14.98 -1.34 16.96 -1 19 C-3.88461151 17.70689829 -6.12852073 16.58442376 -8 14 C-8.6875 10.3125 -8.6875 10.3125 -9 7 C-8.38125 7.350625 -7.7625 7.70125 -7.125 8.0625 C-6.42375 8.371875 -5.7225 8.68125 -5 9 C-4.34 8.67 -3.68 8.34 -3 8 C-3 8.66 -3 9.32 -3 10 C-1.68 10 -0.36 10 1 10 C0.67 6.7 0.34 3.4 0 0 Z " fill="#6E9B0E" transform="translate(18,37)"/>
<path d="M0 0 C0.77601562 -0.00515625 1.55203125 -0.0103125 2.3515625 -0.015625 C4.375 0.25 4.375 0.25 6.375 2.25 C5.30378906 2.58773438 4.23257813 2.92546875 3.12890625 3.2734375 C1.73164325 3.72356249 0.33451469 4.17410496 -1.0625 4.625 C-2.12307617 4.95757812 -2.12307617 4.95757812 -3.20507812 5.296875 C-5.0312189 5.89102606 -6.83077032 6.56549619 -8.625 7.25 C-8.955 7.91 -9.285 8.57 -9.625 9.25 C-12.1875 9.875 -12.1875 9.875 -14.625 10.25 C-11.83240622 3.73394784 -7.14017074 -0.04776034 0 0 Z " fill="#B4C297" transform="translate(41.625,16.75)"/>
<path d="M0 0 C0.33 0.99 0.66 1.98 1 3 C2.11375 2.938125 3.2275 2.87625 4.375 2.8125 C6.169375 2.9053125 6.169375 2.9053125 8 3 C8.99 4.485 8.99 4.485 10 6 C8.35 7.65 6.7 9.3 5 11 C4.2575 10.360625 3.515 9.72125 2.75 9.0625 C0.2888879 7.21666593 -1.03466926 6.43930826 -4 6 C-2.68 4.02 -1.36 2.04 0 0 Z " fill="#D5DAD5" transform="translate(15,13)"/>
<path d="M0 0 C0 0.66 0 1.32 0 2 C0.99 2.33 1.98 2.66 3 3 C3 4.98 3 6.96 3 9 C2.01 9.495 2.01 9.495 1 10 C0.67 9.01 0.34 8.02 0 7 C-3.51190809 5.77030122 -3.51190809 5.77030122 -7 5 C-7.66 5.99 -8.32 6.98 -9 8 C-8.67 5.69 -8.34 3.38 -8 1 C-2.25 -1.125 -2.25 -1.125 0 0 Z " fill="#A6BF6D" transform="translate(17,20)"/>
<path d="M0 0 C0.66 0.33 1.32 0.66 2 1 C2.3403125 2.8253125 2.3403125 2.8253125 2.6875 4.6875 C3.80017144 9.79107563 6.86862445 12.0837349 11 15 C8 16 8 16 5 14.875 C0.68006833 12.1750427 -0.57130124 9.68181823 -1.8125 4.8125 C-1.874375 3.884375 -1.93625 2.95625 -2 2 C-1.34 1.34 -0.68 0.68 0 0 Z " fill="#2E2C2B" transform="translate(21,35)"/>
<path d="M0 0 C-0.99 0.33 -1.98 0.66 -3 1 C-2.01 1.66 -1.02 2.32 0 3 C-0.61875 3.2475 -1.2375 3.495 -1.875 3.75 C-4.43826229 5.25780134 -4.84433904 6.30345776 -6 9 C-6.98879205 10.67334039 -7.98648336 12.34151823 -9 14 C-9.33 13.34 -9.66 12.68 -10 12 C-9.06553465 9.96855359 -8.06775224 7.96466413 -7 6 C-9.16874252 6.50603992 -10.99967627 6.99983813 -13 8 C-10.75373981 2.28224679 -6.06506476 -1.81951943 0 0 Z " fill="#6DA605" transform="translate(34,16)"/>
<path d="M0 0 C0.66 1.32 1.32 2.64 2 4 C1.01 4.33 0.02 4.66 -1 5 C-1.33 5.99 -1.66 6.98 -2 8 C-2.99 8 -3.98 8 -5 8 C-5 8.33 -5 8.66 -5 9 C-6.65 9 -8.3 9 -10 9 C-10 7.68 -10 6.36 -10 5 C-9.34 5 -8.68 5 -8 5 C-8 4.34 -8 3.68 -8 3 C-7.34 3 -6.68 3 -6 3 C-6 2.34 -6 1.68 -6 1 C-4.02 0.67 -2.04 0.34 0 0 Z " fill="#70B504" transform="translate(17,27)"/>
<path d="M0 0 C0.66 0 1.32 0 2 0 C1.09709202 5.13963002 -2.04370544 8.73547404 -6 12 C-9.9375 12.5 -9.9375 12.5 -13 12 C-10.78934188 8.35891604 -8.28590125 6.94746761 -4.64453125 5.015625 C-2.53102949 3.71037451 -1.38134113 2.03566061 0 0 Z " fill="#A2BA4D" transform="translate(52,44)"/>
<path d="M0 0 C3.3 0.33 6.6 0.66 10 1 C7.43692012 3.56307988 6.06154996 4.46922502 3 6 C2.67 6.66 2.34 7.32 2 8 C0.35 8 -1.3 8 -3 8 C-2.34099246 4.92463146 -1.46132217 2.92264434 0 0 Z " fill="#8FC708" transform="translate(31,52)"/>
<path d="M0 0 C0.33 0 0.66 0 1 0 C1.33 1.65 1.66 3.3 2 5 C4.31 5 6.62 5 9 5 C8.67 5.66 8.34 6.32 8 7 C7.34 7 6.68 7 6 7 C6 7.66 6 8.32 6 9 C0.72 9.66 -4.56 10.32 -10 11 C-10 10.01 -10 9.02 -10 8 C-9.04287109 7.92652344 -9.04287109 7.92652344 -8.06640625 7.8515625 C-7.24011719 7.77679688 -6.41382813 7.70203125 -5.5625 7.625 C-4.73878906 7.55539063 -3.91507813 7.48578125 -3.06640625 7.4140625 C-2.04353516 7.20910156 -2.04353516 7.20910156 -1 7 C-0.67 6.34 -0.34 5.68 0 5 C-0.99 4.67 -1.98 4.34 -3 4 C-2.01 3.67 -1.02 3.34 0 3 C0 2.01 0 1.02 0 0 Z " fill="#71AB01" transform="translate(39,38)"/>
<path d="M0 0 C0.66 0 1.32 0 2 0 C2 0.66 2 1.32 2 2 C5.465 1.505 5.465 1.505 9 1 C8.67 4.63 8.34 8.26 8 12 C7.34 11.67 6.68 11.34 6 11 C6 10.01 6 9.02 6 8 C5.195625 7.79375 4.39125 7.5875 3.5625 7.375 C2.2940625 6.694375 2.2940625 6.694375 1 6 C0.1875 2.875 0.1875 2.875 0 0 Z " fill="#669700" transform="translate(50,26)"/>
<path d="M0 0 C2.0625 0.4375 2.0625 0.4375 4 1 C4.83241855 4.32967418 5.2757381 6.75266665 4 10 C2 11 2 11 -1 11 C-0.67 8.36 -0.34 5.72 0 3 C-0.66 3 -1.32 3 -2 3 C-1 1 -1 1 0 0 Z " fill="#71AB01" transform="translate(37,24)"/>
<path d="M0 0 C3.35620271 1.38877354 5.07298728 2.91677965 7 6 C7 6.66 7 7.32 7 8 C6.01 8 5.02 8 4 8 C3.67 7.34 3.34 6.68 3 6 C2.401875 6.350625 1.80375 6.70125 1.1875 7.0625 C-1 8 -1 8 -4 7 C-3.34 6.01 -2.68 5.02 -2 4 C-1.34 4 -0.68 4 0 4 C0 2.68 0 1.36 0 0 Z " fill="#9EBD68" transform="translate(48,8)"/>
<path d="M0 0 C2.64 0.33 5.28 0.66 8 1 C5.31166973 4.47901564 2.19171325 5.10668406 -2 6 C-4.693646 6.14598431 -7.29874304 6.09478095 -10 6 C-10 5.67 -10 5.34 -10 5 C-7.69 5 -5.38 5 -3 5 C-2.67 4.01 -2.34 3.02 -2 2 C-1.34 2 -0.68 2 0 2 C0 1.34 0 0.68 0 0 Z " fill="#6E9211" transform="translate(36,55)"/>
<path d="M0 0 C0.66 0 1.32 0 2 0 C2.33 0.99 2.66 1.98 3 3 C2.01 3 1.02 3 0 3 C0 6.63 0 10.26 0 14 C0.99 14.33 1.98 14.66 3 15 C1.68 15.33 0.36 15.66 -1 16 C-2.4783226 13.04335481 -2.06032783 10.25770263 -2 7 C-3.32 7 -4.64 7 -6 7 C-6 6.34 -6 5.68 -6 5 C-4.34467377 3.98133771 -2.67739862 2.98189187 -1 2 C-0.67 1.34 -0.34 0.68 0 0 Z " fill="#73B004" transform="translate(30,29)"/>
<path d="M0 0 C3.61029169 0 6.55806676 0.96092582 10 2 C10 2.66 10 3.32 10 4 C8.02 4 6.04 4 4 4 C4 4.66 4 5.32 4 6 C3.34 6 2.68 6 2 6 C2 6.66 2 7.32 2 8 C1.34 8 0.68 8 0 8 C0 5.36 0 2.72 0 0 Z " fill="#8FC008" transform="translate(7,24)"/>
<path d="M0 0 C1.26237731 2.52475462 1.09856404 4.31200466 1.0625 7.125 C1.05347656 8.03507812 1.04445313 8.94515625 1.03515625 9.8828125 C1.02355469 10.58148438 1.01195312 11.28015625 1 12 C0.34 12 -0.32 12 -1 12 C-1.33 12.66 -1.66 13.32 -2 14 C-2.33 13.67 -2.66 13.34 -3 13 C-2.96216483 10.99764659 -2.84524147 8.996489 -2.6875 7 C-2.60886719 5.906875 -2.53023437 4.81375 -2.44921875 3.6875 C-2.30097656 2.800625 -2.15273437 1.91375 -2 1 C-1.34 0.67 -0.68 0.34 0 0 Z " fill="#5A7400" transform="translate(18,31)"/>
<path d="M0 0 C1.98 0 3.96 0 6 0 C5.40138258 2.35171131 4.73075648 4.6859378 4 7 C3.01 7.495 3.01 7.495 2 8 C0.4375 5.6875 0.4375 5.6875 -1 3 C-0.67 2.01 -0.34 1.02 0 0 Z " fill="#8DBD02" transform="translate(50,16)"/>
<path d="M0 0 C3.31234673 0.40559348 4.64580297 1.14420274 7.0625 3.375 C5.65050422 3.76722105 4.23257236 4.13811059 2.8125 4.5 C2.02359375 4.70882813 1.2346875 4.91765625 0.421875 5.1328125 C-2.3578071 5.41814411 -3.59637549 4.82477894 -5.9375 3.375 C-4.05554105 0.86572141 -3.17650531 0.40551132 0 0 Z " fill="#90C31A" transform="translate(35.9375,13.625)"/>
<path d="M0 0 C0.66 0 1.32 0 2 0 C3.125 7.75 3.125 7.75 2 10 C0.68 10 -0.64 10 -2 10 C-2.17942163 6.05272412 -2.09350689 3.4019487 0 0 Z " fill="#EBF3EB" transform="translate(38,4)"/>
<path d="M0 0 C1.98 0 3.96 0 6 0 C5.34 2.64 4.68 5.28 4 8 C2.68 8 1.36 8 0 8 C0 6.68 0 5.36 0 4 C0.66 3.67 1.32 3.34 2 3 C2 2.34 2 1.68 2 1 C1.34 0.67 0.68 0.34 0 0 Z " fill="#6DA100" transform="translate(30,28)"/>
<path d="M0 0 C1.32 0.66 2.64 1.32 4 2 C4.3125 4.25 4.3125 4.25 4 7 C1.5 9.3125 1.5 9.3125 -1 11 C-1.08927756 7.78600767 -0.8534403 5.0937211 0 2 C0 1.34 0 0.68 0 0 Z " fill="#BDC5AA" transform="translate(44,5)"/>
<path d="M0 0 C1.98 0.99 3.96 1.98 6 3 C5.67 3.99 5.34 4.98 5 6 C5 5.34 5 4.68 5 4 C4.34 4 3.68 4 3 4 C2.67 6.31 2.34 8.62 2 11 C1.67 11 1.34 11 1 11 C0.896875 10.21625 0.79375 9.4325 0.6875 8.625 C0.22404978 5.66954819 0.22404978 5.66954819 -3 4 C-2.01 4 -1.02 4 0 4 C-0.33 3.01 -0.66 2.02 -1 1 C-0.67 0.67 -0.34 0.34 0 0 Z " fill="#79B208" transform="translate(41,23)"/>
<path d="M0 0 C0.79921875 0.01804687 1.5984375 0.03609375 2.421875 0.0546875 C3.02515625 0.07789062 3.6284375 0.10109375 4.25 0.125 C4.25 0.455 4.25 0.785 4.25 1.125 C3.00283203 1.43244141 3.00283203 1.43244141 1.73046875 1.74609375 C0.10044922 2.15021484 0.10044922 2.15021484 -1.5625 2.5625 C-3.18091797 2.96275391 -3.18091797 2.96275391 -4.83203125 3.37109375 C-6.8240843 3.88577412 -8.79811524 4.47437175 -10.75 5.125 C-10.75 5.785 -10.75 6.445 -10.75 7.125 C-11.41 6.795 -12.07 6.465 -12.75 6.125 C-8.76669417 1.85717233 -5.9284756 -0.17436693 0 0 Z " fill="#DEE5DD" transform="translate(41.75,16.875)"/>
<path d="M0 0 C0.93423645 3.01031744 1.04449911 3.86650268 0 7 C-2.5625 8.1875 -2.5625 8.1875 -5 9 C-4.5206753 4.68607774 -3.2542015 2.83430453 0 0 Z " fill="#84B816" transform="translate(29,25)"/>
<path d="M0 0 C-1.65 0.33 -3.3 0.66 -5 1 C-5.061875 1.61875 -5.12375 2.2375 -5.1875 2.875 C-6 5 -6 5 -8.4375 6.1875 C-9.283125 6.455625 -10.12875 6.72375 -11 7 C-11.99 7.495 -11.99 7.495 -13 8 C-10.75373981 2.28224679 -6.06506476 -1.81951943 0 0 Z " fill="#5C7F06" transform="translate(34,16)"/>
<path d="M0 0 C0.53625 0.37125 1.0725 0.7425 1.625 1.125 C0.965 2.445 0.305 3.765 -0.375 5.125 C-0.9525 4.650625 -1.53 4.17625 -2.125 3.6875 C-4.30082084 2.1765133 -5.80102448 1.58463849 -8.375 1.125 C-2.95961538 -1.09038462 -2.95961538 -1.09038462 0 0 Z " fill="#C4CDBD" transform="translate(19.375,17.875)"/>
<path d="M0 0 C-2.39763185 2.39763185 -3.33273498 2.34280586 -6.625 2.625 C-7.44226562 2.69976563 -8.25953125 2.77453125 -9.1015625 2.8515625 C-9.72804687 2.90054687 -10.35453125 2.94953125 -11 3 C-11 2.34 -11 1.68 -11 1 C-3.57142857 -1.42857143 -3.57142857 -1.42857143 0 0 Z " fill="#99C218" transform="translate(44,22)"/>
<path d="M0 0 C0.66 0 1.32 0 2 0 C1.40312566 3.34249629 0.26396123 5.46436342 -2 8 C-2.66 8 -3.32 8 -4 8 C-3.40312566 4.65750371 -2.26396123 2.53563658 0 0 Z " fill="#ACBA75" transform="translate(52,44)"/>
<path d="M0 0 C0.33 0 0.66 0 1 0 C1 4.33333333 1 8.66666667 1 13 C-1 12 -1 12 -2.125 8.9375 C-2.41375 7.968125 -2.7025 6.99875 -3 6 C-2.01 6 -1.02 6 0 6 C0 4.02 0 2.04 0 0 Z " fill="#508B00" transform="translate(28,34)"/>
<path d="M0 0 C0.99 0.33 1.98 0.66 3 1 C2.67 2.65 2.34 4.3 2 6 C0.35 6 -1.3 6 -3 6 C-2 4 -1 2 0 0 Z " fill="#96C318" transform="translate(53,39)"/>
<path d="M0 0 C0.66 0.33 1.32 0.66 2 1 C0.68775452 4.93673644 -0.91910327 7.22719294 -4 10 C-3.43454163 6.04179141 -2.19097652 3.3340947 0 0 Z " fill="#6CAB01" transform="translate(11,14)"/>
<path d="M0 0 C1.65 0 3.3 0 5 0 C2.87330165 2.33936818 0.93775144 3.80653848 -2 5 C-2.99 5 -3.98 5 -5 5 C-5 4.34 -5 3.68 -5 3 C-3.68 3 -2.36 3 -1 3 C-0.67 2.01 -0.34 1.02 0 0 Z " fill="#86C501" transform="translate(36,53)"/>
<path d="M0 0 C3.3 0.33 6.6 0.66 10 1 C5.88348273 3.05825864 5.13191749 3.34008135 1 2 C0.67 1.34 0.34 0.68 0 0 Z " fill="#A4C648" transform="translate(30,48)"/>
<path d="M0 0 C2 1 2 1 2.75 2.875 C3 5 3 5 1 8 C0.34 7.67 -0.32 7.34 -1 7 C-0.67 4.69 -0.34 2.38 0 0 Z " fill="#6EA602" transform="translate(44,27)"/>
<path d="M0 0 C3 1 6 2 9 3 C8 4 8 4 6.15234375 4.09765625 C4.1015625 4.06510417 2.05078125 4.03255208 0 4 C0 2.68 0 1.36 0 0 Z " fill="#DDE9EB" transform="translate(16,12)"/>
<path d="M0 0 C1.65 1.65 3.3 3.3 5 5 C3.0625 5.5625 3.0625 5.5625 1 6 C0 5 0 5 -0.0625 2.4375 C-0.041875 1.633125 -0.02125 0.82875 0 0 Z " fill="#B0C183" transform="translate(16,50)"/>
<path d="M0 0 C0.99 0.99 1.98 1.98 3 3 C1.68 4.65 0.36 6.3 -1 8 C-1.66 7.01 -2.32 6.02 -3 5 C-2.01 4.67 -1.02 4.34 0 4 C0 2.68 0 1.36 0 0 Z " fill="#86C501" transform="translate(20,45)"/>
<path d="M0 0 C-1.44253657 3.36591866 -3.33264727 5.51047079 -6 8 C-5.62403791 5.21788056 -5.32681541 3.4120716 -3.5625 1.1875 C-2 0 -2 0 0 0 Z " fill="#84C204" transform="translate(18,9)"/>
<path d="M0 0 C1.32 0.33 2.64 0.66 4 1 C4 1.99 4 2.98 4 4 C2.02 4 0.04 4 -2 4 C-1.34 2.68 -0.68 1.36 0 0 Z " fill="#8FBB03" transform="translate(46,20)"/>
</svg>
