<?xml version="1.0" encoding="UTF-8"?>
<svg version="1.1" xmlns="http://www.w3.org/2000/svg" width="62" height="62">
<path d="M0 0 C2.58298578 2.09670239 4.43720657 4.14995048 6.28515625 6.921875 C6.28515625 7.911875 6.28515625 8.901875 6.28515625 9.921875 C6.88328125 10.14875 7.48140625 10.375625 8.09765625 10.609375 C11.73836546 12.79380053 12.97713693 15.99781705 14.28515625 19.921875 C15.53777675 37.04786682 15.53777675 37.04786682 10.28515625 43.921875 C7.66015625 45.171875 7.66015625 45.171875 5.28515625 45.921875 C4.57267893 47.5694788 3.91115242 49.23951029 3.28515625 50.921875 C-0.33067893 54.8992937 -2.06001114 56.78397228 -7.46484375 57.234375 C-11.84787747 57.14011621 -14.43287307 55.73070116 -17.71484375 52.921875 C-18.53597656 52.25414062 -19.35710938 51.58640625 -20.203125 50.8984375 C-27.45175439 44.7512641 -30.47810613 40.19463763 -31.58984375 30.671875 C-32.02182374 22.67564963 -31.04849413 15.36289297 -25.90234375 8.984375 C-23.14624531 6.11885329 -20.11373175 3.99076335 -16.71484375 1.921875 C-16.01359375 1.365 -15.31234375 0.808125 -14.58984375 0.234375 C-10.17151974 -2.85845181 -4.65170274 -2.92453293 0 0 Z " fill="#639B02" transform="translate(39.71484375,4.078125)"/>
<path d="M0 0 C3.41254763 2.42815889 5.67680763 4.51521145 8 8 C8 8.99 8 9.98 8 11 C8.598125 11.226875 9.19625 11.45375 9.8125 11.6875 C13.45320921 13.87192553 14.69198068 17.07594205 16 21 C17.24995283 38.08951896 17.24995283 38.08951896 12 45 C9.25 46.5625 9.25 46.5625 7 47 C1.22740525 42.25364431 1.22740525 42.25364431 -0.625 40.1875 C-2.2017478 38.56425342 -2.2017478 38.56425342 -6 39 C-6.495 36.525 -6.495 36.525 -7 34 C-4.525 33.505 -4.525 33.505 -2 33 C-2 31.68 -2 30.36 -2 29 C-3.65 28.67 -5.3 28.34 -7 28 C-6.67 26.68 -6.34 25.36 -6 24 C-4.68 24.33 -3.36 24.66 -2 25 C0.86005509 19.23845282 0.86005509 19.23845282 0 13 C0.33 12.67 0.66 12.34 1 12 C-3.7897321 11.76571687 -3.7897321 11.76571687 -8 14 C-8.70125 14.165 -9.4025 14.33 -10.125 14.5 C-10.74375 14.665 -11.3625 14.83 -12 15 C-12.33 15.66 -12.66 16.32 -13 17 C-11.68 17 -10.36 17 -9 17 C-9.66 21.29 -10.32 25.58 -11 30 C-11.99 29.34 -12.98 28.68 -14 28 C-15.32 28 -16.64 28 -18 28 C-18.66 28.99 -19.32 29.98 -20 31 C-21.88649506 27.73007522 -22.67972144 24.76327304 -23 21 C-22.01 19.515 -22.01 19.515 -21 18 C-20.34 18.99 -19.68 19.98 -19 21 C-18.82984375 20.34773438 -18.6596875 19.69546875 -18.484375 19.0234375 C-16.99933252 13.66780556 -15.53309784 9.33089412 -12 5 C-11.34 5 -10.68 5 -10 5 C-9.71125 4.360625 -9.4225 3.72125 -9.125 3.0625 C-7.02625482 -0.78519951 -4.05448105 -0.46782474 0 0 Z " fill="#89C50F" transform="translate(38,3)"/>
<path d="M0 0 C0.66 0 1.32 0 2 0 C2.33 0.66 2.66 1.32 3 2 C4.97888961 2.72693904 6.97954558 3.39816251 9 4 C9 4.33 9 4.66 9 5 C7.02 5 5.04 5 3 5 C3.33 6.65 3.66 8.3 4 10 C5.65 9.67 7.3 9.34 9 9 C9.40992187 9.49371094 9.81984375 9.98742188 10.2421875 10.49609375 C10.78101562 11.13675781 11.31984375 11.77742188 11.875 12.4375 C12.67550781 13.39462891 12.67550781 13.39462891 13.4921875 14.37109375 C14.9222757 16.10805004 14.9222757 16.10805004 17 17 C16.49607061 21.40938215 15.0379639 23.78843816 12 27 C8.94833072 29.28875196 5.77168712 29.43251297 2 29.30078125 C-1.35640715 28.79600908 -3.50082588 27.13888128 -6 25 C-6.82113281 24.33226563 -7.64226563 23.66453125 -8.48828125 22.9765625 C-13.50760397 18.71994439 -17.26681379 15.43754878 -19 9 C-19.1875 6.0625 -19.1875 6.0625 -19 4 C-13.02227038 5.46623557 -10.63443428 6.51808128 -7.3125 11.5625 C-6 14 -6 14 -6 16 C-3.69 15.34 -1.38 14.68 1 14 C0.67 9.38 0.34 4.76 0 0 Z " fill="#7FBD01" transform="translate(28,32)"/>
<path d="M0 0 C4.24437785 6.36656677 3.54170469 13.63432095 3 21 C2.16395545 24.39415914 1.12222113 27.20653321 -1 30 C-3.75 31.5625 -3.75 31.5625 -6 32 C-11.77259475 27.25364431 -11.77259475 27.25364431 -13.625 25.1875 C-15.2017478 23.56425342 -15.2017478 23.56425342 -19 24 C-19.33 22.35 -19.66 20.7 -20 19 C-19.236875 18.855625 -18.47375 18.71125 -17.6875 18.5625 C-14.91827092 18.0367406 -14.91827092 18.0367406 -12 17 C-12 13.37 -12 9.74 -12 6 C-10.35 5.67 -8.7 5.34 -7 5 C-6.34 4.01 -5.68 3.02 -5 2 C-2.375 1.8125 -2.375 1.8125 0 2 C0 1.34 0 0.68 0 0 Z " fill="#6EAC02" transform="translate(51,18)"/>
<path d="M0 0 C-0.59039062 0.28359375 -1.18078125 0.5671875 -1.7890625 0.859375 C-10.7790446 5.49731629 -13.61661146 12.95284382 -17 22 C-17.66 21.67 -18.32 21.34 -19 21 C-19 24.11227195 -18.54372951 26.94152152 -18 30 C-17.34 29.67 -16.68 29.34 -16 29 C-16.495 31.475 -16.495 31.475 -17 34 C-21.875 29.25 -21.875 29.25 -23 27 C-25.02463255 26.34786708 -25.02463255 26.34786708 -27 26 C-26.5030408 18.91833143 -25.18950715 13.92371489 -19.75 8.9375 C-18.8425 8.298125 -17.935 7.65875 -17 7 C-16.35417969 6.49210938 -15.70835938 5.98421875 -15.04296875 5.4609375 C-9.85994217 1.40298348 -6.6759829 -0.18544397 0 0 Z " fill="#67AC06" transform="translate(36,2)"/>
<path d="M0 0 C0.33 0.33 0.66 0.66 1 1 C3.01594582 1.23427778 5.038474 1.41336124 7.0625 1.5625 C8.16722656 1.64628906 9.27195312 1.73007812 10.41015625 1.81640625 C11.26480469 1.87699219 12.11945312 1.93757813 13 2 C11.38221298 6.40274459 9.6415276 8.95127922 6 12 C2.61687262 13.12770913 1.42069294 13.14023098 -2 12 C-2 11.34 -2 10.68 -2 10 C-2.61875 9.9175 -3.2375 9.835 -3.875 9.75 C-6 9 -6 9 -7.25 7.125 C-8 5 -8 5 -8 2 C-4.77786243 -0.14809171 -3.72224599 -0.29386153 0 0 Z " fill="#7BBC03" transform="translate(32,48)"/>
<path d="M0 0 C2.05078125 0.03255208 4.1015625 0.06510417 6.15234375 0.09765625 C5.16234375 1.58265625 5.16234375 1.58265625 4.15234375 3.09765625 C4.47544558 4.43350583 4.80960028 5.7667108 5.15234375 7.09765625 C4.59375 9.23828125 4.59375 9.23828125 3.71484375 11.34765625 C3.42738281 12.0540625 3.13992187 12.76046875 2.84375 13.48828125 C2.61558594 14.019375 2.38742188 14.55046875 2.15234375 15.09765625 C0.50234375 14.76765625 -1.14765625 14.43765625 -2.84765625 14.09765625 C-2.84765625 15.08765625 -2.84765625 16.07765625 -2.84765625 17.09765625 C-1.52765625 17.42765625 -0.20765625 17.75765625 1.15234375 18.09765625 C1.15234375 19.08765625 1.15234375 20.07765625 1.15234375 21.09765625 C-0.49765625 21.09765625 -2.14765625 21.09765625 -3.84765625 21.09765625 C-4.17765625 20.10765625 -4.50765625 19.11765625 -4.84765625 18.09765625 C-5.50765625 18.09765625 -6.16765625 18.09765625 -6.84765625 18.09765625 C-6.87463814 16.47274671 -6.89404382 14.84770992 -6.91015625 13.22265625 C-6.92175781 12.31773438 -6.93335938 11.4128125 -6.9453125 10.48046875 C-6.84765625 8.09765625 -6.84765625 8.09765625 -5.84765625 6.09765625 C-7.16765625 6.09765625 -8.48765625 6.09765625 -9.84765625 6.09765625 C-9.16015625 4.16015625 -9.16015625 4.16015625 -7.84765625 2.09765625 C-5.28515625 1.41015625 -5.28515625 1.41015625 -2.84765625 1.09765625 C-1.84765625 0.09765625 -1.84765625 0.09765625 0 0 Z " fill="#527104" transform="translate(34.84765625,13.90234375)"/>
<path d="M0 0 C1.875 1.3125 1.875 1.3125 3 3 C3 3.99 3 4.98 3 6 C2.443125 6.268125 1.88625 6.53625 1.3125 6.8125 C-1.09305121 7.99530663 -1.09305121 7.99530663 -3.5625 9.6875 C-4.7690625 10.3371875 -4.7690625 10.3371875 -6 11 C-6.99 10.67 -7.98 10.34 -9 10 C-9 13.63 -9 17.26 -9 21 C-9.99 21 -10.98 21 -12 21 C-12 20.01 -12 19.02 -12 18 C-13.65 17.67 -15.3 17.34 -17 17 C-16.67 15.68 -16.34 14.36 -16 13 C-14.02 13.495 -14.02 13.495 -12 14 C-9.08480449 8.23647361 -9.08480449 8.23647361 -10 2 C-6.60268371 -0.09065618 -3.95730595 -0.42098999 0 0 Z " fill="#6DB405" transform="translate(48,14)"/>
<path d="M0 0 C0.33 0.66 0.66 1.32 1 2 C2.32 2 3.64 2 5 2 C4.34 6.29 3.68 10.58 3 15 C2.01 14.34 1.02 13.68 0 13 C-1.32 13 -2.64 13 -4 13 C-4.99 14.485 -4.99 14.485 -6 16 C-7.88649506 12.73007522 -8.67972144 9.76327304 -9 6 C-8.34 5.01 -7.68 4.02 -7 3 C-6.01 4.485 -6.01 4.485 -5 6 C-4.67 4.35 -4.34 2.7 -4 1 C-3.01 1 -2.02 1 -1 1 C-0.67 0.67 -0.34 0.34 0 0 Z " fill="#82BD22" transform="translate(24,18)"/>
<path d="M0 0 C0.66 0 1.32 0 2 0 C2.33 0.66 2.66 1.32 3 2 C4.97888961 2.72693904 6.97954558 3.39816251 9 4 C9 4.33 9 4.66 9 5 C7.02 5 5.04 5 3 5 C3.33 6.65 3.66 8.3 4 10 C5.65 9.67 7.3 9.34 9 9 C9.40992188 9.48210938 9.81984375 9.96421875 10.2421875 10.4609375 C10.78101563 11.09257813 11.31984375 11.72421875 11.875 12.375 C12.67550781 13.31472656 12.67550781 13.31472656 13.4921875 14.2734375 C14.61432007 15.55836651 15.79371975 16.79371975 17 18 C15.06280622 18.05406122 13.12518079 18.09282025 11.1875 18.125 C10.10855469 18.14820312 9.02960937 18.17140625 7.91796875 18.1953125 C5 18 5 18 2 16 C0.04239892 10.85998862 -0.23143718 5.43877365 0 0 Z " fill="#2D302E" transform="translate(28,32)"/>
<path d="M0 0 C2.475 0.495 2.475 0.495 5 1 C5 1.99 5 2.98 5 4 C6.65 4 8.3 4 10 4 C10.28875 4.639375 10.5775 5.27875 10.875 5.9375 C11.82823451 8.15206079 11.82823451 8.15206079 14 9 C14.309375 9.66 14.61875 10.32 14.9375 11 C15.8891846 13.34608221 15.8891846 13.34608221 19 14 C19 14.66 19 15.32 19 16 C19.99 16.33 20.98 16.66 22 17 C16.42740042 16.58465096 13.5336392 15.38704434 9.3125 11.75 C8.40113281 10.98171875 7.48976563 10.2134375 6.55078125 9.421875 C4.08692671 7.08253378 1.97803343 4.76090849 0 2 C0 1.34 0 0.68 0 0 Z " fill="#252725" transform="translate(11,44)"/>
<path d="M0 0 C3.06664684 4.59997027 3.45312499 8.58357566 3 14 C2 17 2 17 1 19 C0.34 19 -0.32 19 -1 19 C-1 16.69 -1 14.38 -1 12 C-1.99 13.485 -1.99 13.485 -3 15 C-3 12.36 -3 9.72 -3 7 C-4.32 6.67 -5.64 6.34 -7 6 C-7 4 -7 4 -5 2 C-2.375 1.875 -2.375 1.875 0 2 C0 1.34 0 0.68 0 0 Z " fill="#60A303" transform="translate(51,18)"/>
<path d="M0 0 C0.33 0 0.66 0 1 0 C1.5174036 6.07949232 0.2938802 10.80867425 -3 16 C-5.5 17.75 -5.5 17.75 -8 18 C-10.3125 16.625 -10.3125 16.625 -12 15 C-10.82033319 11.46099956 -10.28094347 11.39155301 -7.125 9.75 C-2.68829119 7.14999323 -1.51872732 4.84094332 0 0 Z " fill="#90C712" transform="translate(53,32)"/>
<path d="M0 0 C0.99 0.33 1.98 0.66 3 1 C3.75 2.9375 3.75 2.9375 4 5 C3.67 5.66 3.34 6.32 3 7 C2.34 6.67 1.68 6.34 1 6 C1 9.11227195 1.45627049 11.94152152 2 15 C2.66 14.67 3.32 14.34 4 14 C3.67 15.65 3.34 17.3 3 19 C-1.875 14.25 -1.875 14.25 -3 12 C-5.02463255 11.34786708 -5.02463255 11.34786708 -7 11 C-6.42415568 8.61435923 -5.77772405 6.33317216 -5 4 C-2.4375 2.8125 -2.4375 2.8125 0 2 C0 1.34 0 0.68 0 0 Z " fill="#75BB01" transform="translate(16,17)"/>
<path d="M0 0 C3.37592733 1.73911408 4.36608502 4.73025629 6.0625 8.0625 C5.0725 8.0625 4.0825 8.0625 3.0625 8.0625 C3.0625 9.0525 3.0625 10.0425 3.0625 11.0625 C-2.55884251 9.59606282 -2.55884251 9.59606282 -4.3125 7.125 C-4.9375 5.0625 -4.9375 5.0625 -4.9375 2.0625 C-1.9375 0.0625 -1.9375 0.0625 0 0 Z " fill="#ACCE8A" transform="translate(28.9375,47.9375)"/>
<path d="M0 0 C0.33 0 0.66 0 1 0 C1.18451025 9.41002278 1.18451025 9.41002278 0 14 C0.66 14.33 1.32 14.66 2 15 C-4.28571429 20.57142857 -4.28571429 20.57142857 -8 21 C-7.67 20.34 -7.34 19.68 -7 19 C-6.34 19 -5.68 19 -5 19 C-5.16371094 18.46890625 -5.32742187 17.9378125 -5.49609375 17.390625 C-6.11356377 14.46123236 -6.09501925 11.74177064 -6.0625 8.75 C-6.04896484 7.13351563 -6.04896484 7.13351563 -6.03515625 5.484375 C-6.02355469 4.66453125 -6.01195312 3.8446875 -6 3 C-5.67 3 -5.34 3 -5 3 C-4.92652344 4.04800781 -4.92652344 4.04800781 -4.8515625 5.1171875 C-4.77679688 6.02726562 -4.70203125 6.93734375 -4.625 7.875 C-4.55539063 8.77992187 -4.48578125 9.68484375 -4.4140625 10.6171875 C-4.20431868 13.17941903 -4.20431868 13.17941903 -2 15 C-2.33 14.01 -2.66 13.02 -3 12 C-3.06802967 10.27204648 -3.08495645 8.54164635 -3.0625 6.8125 C-3.05347656 5.91144531 -3.04445313 5.01039062 -3.03515625 4.08203125 C-3.02355469 3.39496094 -3.01195312 2.70789063 -3 2 C-2.67 2 -2.34 2 -2 2 C-1.67 3.65 -1.34 5.3 -1 7 C-0.67 4.69 -0.34 2.38 0 0 Z " fill="#76BA12" transform="translate(50,23)"/>
<path d="M0 0 C0.99 0.66 1.98 1.32 3 2 C2.71758359 3.46015291 2.42373386 4.91809793 2.125 6.375 C1.96257813 7.18710937 1.80015625 7.99921875 1.6328125 8.8359375 C1 11 1 11 -1 13 C-3.625 12.625 -3.625 12.625 -6 12 C-5.43958106 7.23643901 -3.41302403 3.41302403 0 0 Z " fill="#69AA03" transform="translate(37,16)"/>
<path d="M0 0 C-0.99 1.65 -1.98 3.3 -3 5 C-4.32 4.34 -5.64 3.68 -7 3 C-6.67 3.99 -6.34 4.98 -6 6 C-7.57116296 7.72827926 -8.79261323 8.90634146 -10.9375 9.875 C-13.70696212 11.3856157 -15.14796931 13.48652977 -17 16 C-16.46968862 11.4923533 -14.74778884 8.58045212 -12 5 C-11.34 5 -10.68 5 -10 5 C-9.566875 4.0409375 -9.566875 4.0409375 -9.125 3.0625 C-6.99029742 -0.85112139 -4.08058807 -0.08870844 0 0 Z " fill="#A7CE61" transform="translate(38,3)"/>
<path d="M0 0 C2.90802461 2.21928194 4.95312762 3.92969143 7 7 C7 7.99 7 8.98 7 10 C4.75 10.75 4.75 10.75 2 11 C-0.3125 9.375 -0.3125 9.375 -2 7 C-2.375 4.375 -2.375 4.375 -2 2 C-1.34 1.34 -0.68 0.68 0 0 Z " fill="#6EB703" transform="translate(39,4)"/>
<path d="M0 0 C1.875 0.3125 1.875 0.3125 4 1 C6.00293347 4.00440021 6.49271626 5.70993945 7.125 9.1875 C7.29257812 10.08855469 7.46015625 10.98960938 7.6328125 11.91796875 C7.75398438 12.60503906 7.87515625 13.29210938 8 14 C4.48544441 13.05012011 3.22444814 12.34054201 1.1875 9.25 C-0.03316827 5.90922369 -0.25163055 3.5228277 0 0 Z " fill="#313531" transform="translate(21,33)"/>
<path d="M0 0 C0.99 0.66 1.98 1.32 3 2 C2.67 2.66 2.34 3.32 2 4 C1.34 3.67 0.68 3.34 0 3 C0 6.63 0 10.26 0 14 C-0.99 14 -1.98 14 -3 14 C-3 13.01 -3 12.02 -3 11 C-4.65 10.67 -6.3 10.34 -8 10 C-7.67 8.68 -7.34 7.36 -7 6 C-5.02 6.495 -5.02 6.495 -3 7 C-2.01 4.69 -1.02 2.38 0 0 Z " fill="#A1C961" transform="translate(39,21)"/>
<path d="M0 0 C0.33 0 0.66 0 1 0 C1.2757817 2.43707088 1.52131492 4.87095049 1.75 7.3125 C1.87181641 8.34793945 1.87181641 8.34793945 1.99609375 9.40429688 C2.171875 11.42578125 2.171875 11.42578125 2 15 C0.015625 16.98046875 0.015625 16.98046875 -2 18 C-3.7327403 11.64661892 -2.21467206 6.05343697 0 0 Z " fill="#5EA302" transform="translate(43,27)"/>
<path d="M0 0 C0.66 0 1.32 0 2 0 C4.84450614 3.71973879 5.3227506 6.37390802 5 11 C4.2575 10.34 3.515 9.68 2.75 9 C0.02757055 6.60788553 0.02757055 6.60788553 -4 7 C-4.33 5.35 -4.66 3.7 -5 2 C-3.35 1.67 -1.7 1.34 0 1 C0 0.67 0 0.34 0 0 Z " fill="#7EBA0B" transform="translate(36,35)"/>
<path d="M0 0 C0 0.99 0 1.98 0 3 C-2.99833285 5.46921528 -4.40259059 6.05635938 -8.3125 5.6875 C-9.199375 5.460625 -10.08625 5.23375 -11 5 C-10.34 4.67 -9.68 4.34 -9 4 C-9 3.01 -9 2.02 -9 1 C-5.8035914 -0.06546953 -3.34252724 -0.07427838 0 0 Z " fill="#8FBB40" transform="translate(41,55)"/>
<path d="M0 0 C0.33 0 0.66 0 1 0 C0.8858134 1.93816735 0.75826577 3.87555099 0.625 5.8125 C0.55539063 6.89144531 0.48578125 7.97039063 0.4140625 9.08203125 C0 12 0 12 -2 15 C-3.88649506 11.73007522 -4.67972144 8.76327304 -5 5 C-4.34 4.01 -3.68 3.02 -3 2 C-2.01 3.485 -2.01 3.485 -1 5 C-0.67 3.35 -0.34 1.7 0 0 Z " fill="#A9D05F" transform="translate(20,19)"/>
<path d="M0 0 C1.67542976 0.28604898 3.34385343 0.61781233 5 1 C4.67 4.3 4.34 7.6 4 11 C3.67 11 3.34 11 3 11 C3 9.35 3 7.7 3 6 C1.68 6 0.36 6 -1 6 C-1.042721 4.33388095 -1.04063832 2.66617115 -1 1 C-0.67 0.67 -0.34 0.34 0 0 Z " fill="#DFE4DC" transform="translate(23,22)"/>
<path d="M0 0 C3.08236365 2.78407039 3.95206337 3.80825346 5 8 C7.64 7.34 10.28 6.68 13 6 C13 6.66 13 7.32 13 8 C12.030625 8.268125 11.06125 8.53625 10.0625 8.8125 C9.051875 9.204375 8.04125 9.59625 7 10 C6.67 10.99 6.34 11.98 6 13 C4.99491199 11.21118264 3.99607264 9.41885304 3 7.625 C2.1646875 6.12839844 2.1646875 6.12839844 1.3125 4.6015625 C0 2 0 2 0 0 Z " fill="#8DC512" transform="translate(17,40)"/>
<path d="M0 0 C-0.58265625 0.26554688 -1.1653125 0.53109375 -1.765625 0.8046875 C-4.06174228 2.03302996 -5.80356018 3.40314939 -7.75 5.125 C-8.36359375 5.66382813 -8.9771875 6.20265625 -9.609375 6.7578125 C-10.06828125 7.16773438 -10.5271875 7.57765625 -11 8 C-11.99 7.01 -12.98 6.02 -14 5 C-9.15144747 0.82485754 -6.3124233 -0.17534509 0 0 Z " fill="#7FBB0E" transform="translate(36,2)"/>
<path d="M0 0 C0.66 0 1.32 0 2 0 C2.33 0.66 2.66 1.32 3 2 C4.97888961 2.72693904 6.97954558 3.39816251 9 4 C9 4.33 9 4.66 9 5 C7.02 5 5.04 5 3 5 C3.33 5.99 3.66 6.98 4 8 C3.01 8.33 2.02 8.66 1 9 C-0.4783226 6.04335481 -0.06032783 3.25770263 0 0 Z " fill="#2E5529" transform="translate(28,32)"/>
<path d="M0 0 C0.33 0 0.66 0 1 0 C1.10251672 5.12583611 1.03590199 9.94997778 0 15 C-0.66 15 -1.32 15 -2 15 C-3.00496852 11.98509443 -3.10335303 9.95818308 -3.0625 6.8125 C-3.05347656 5.91144531 -3.04445312 5.01039062 -3.03515625 4.08203125 C-3.02355469 3.39496094 -3.01195312 2.70789063 -3 2 C-2.67 2 -2.34 2 -2 2 C-1.67 3.65 -1.34 5.3 -1 7 C-0.67 4.69 -0.34 2.38 0 0 Z " fill="#80BE1A" transform="translate(50,23)"/>
<path d="M0 0 C1.875 0.8125 1.875 0.8125 4 2 C4.7425 2.37125 5.485 2.7425 6.25 3.125 C6.8275 3.41375 7.405 3.7025 8 4 C8 4.99 8 5.98 8 7 C6.68 7 5.36 7 4 7 C3.34 6.01 2.68 5.02 2 4 C-0.05925139 3.27617533 -0.05925139 3.27617533 -2 3 C-2 2.34 -2 1.68 -2 1 C-1.34 0.67 -0.68 0.34 0 0 Z " fill="#558000" transform="translate(12,41)"/>
<path d="M0 0 C3.624581 1.20819367 3.40170957 1.80341913 5 5 C5.99 5.33 6.98 5.66 8 6 C8 6.66 8 7.32 8 8 C8.99 8.33 9.98 8.66 11 9 C4.375 8.25 4.375 8.25 1 6 C0.3125 2.875 0.3125 2.875 0 0 Z " fill="#263420" transform="translate(22,52)"/>
<path d="M0 0 C0.33 0 0.66 0 1 0 C1.20086443 3.71599191 1.1519437 4.77208445 -1 8 C-4.125 8.1875 -4.125 8.1875 -7 8 C-7 7.34 -7 6.68 -7 6 C-5.33720673 4.9935725 -3.67016516 3.99414593 -2 3 C-1.34 2.01 -0.68 1.02 0 0 Z " fill="#ADCC8D" transform="translate(51,40)"/>
<path d="M0 0 C1.98 0 3.96 0 6 0 C5.67 1.65 5.34 3.3 5 5 C3.0625 5.5625 3.0625 5.5625 1 6 C0 5 0 5 -0.0625 2.4375 C-0.041875 1.633125 -0.02125 0.82875 0 0 Z " fill="#5FA402" transform="translate(9,28)"/>
<path d="M0 0 C0.66 0.33 1.32 0.66 2 1 C0.35 2.98 -1.3 4.96 -3 7 C-4.65 6.67 -6.3 6.34 -8 6 C-7.3125 4.0625 -7.3125 4.0625 -6 2 C-3.4375 1.3125 -3.4375 1.3125 -1 1 C-0.67 0.67 -0.34 0.34 0 0 Z " fill="#5F9103" transform="translate(33,14)"/>
<path d="M0 0 C-1.98 2.31 -3.96 4.62 -6 7 C-6.99 5.68 -7.98 4.36 -9 3 C-7.14340032 -0.71319936 -3.69365381 -0.09982848 0 0 Z " fill="#91C53D" transform="translate(47,14)"/>
<path d="M0 0 C0.66 0 1.32 0 2 0 C2.66 4.29 3.32 8.58 4 13 C3.01 12.67 2.02 12.34 1 12 C-0.61729417 8.32433144 -0.06546005 3.92760325 0 0 Z " fill="#589A01" transform="translate(45,26)"/>
<path d="M0 0 C0.33 0 0.66 0 1 0 C1.33 1.65 1.66 3.3 2 5 C3.65 4.67 5.3 4.34 7 4 C7.33 5.32 7.66 6.64 8 8 C5.66705225 8.04241723 3.33297433 8.04092937 1 8 C0 7 0 7 -0.0625 3.4375 C-0.041875 2.303125 -0.02125 1.16875 0 0 Z " fill="#3E6515" transform="translate(8,28)"/>
<path d="M0 0 C1.32 0 2.64 0 4 0 C3.67 1.65 3.34 3.3 3 5 C1.68 5.33 0.36 5.66 -1 6 C-1.625 4.125 -1.625 4.125 -2 2 C-1.34 1.34 -0.68 0.68 0 0 Z " fill="#6FB602" transform="translate(17,10)"/>
<path d="M0 0 C0.66 0.33 1.32 0.66 2 1 C1.67 2.65 1.34 4.3 1 6 C-1.97 5.505 -1.97 5.505 -5 5 C-5 4.01 -5 3.02 -5 2 C-2.625 0.9375 -2.625 0.9375 0 0 Z " fill="#71B606" transform="translate(36,23)"/>
<path d="M0 0 C1.98 0 3.96 0 6 0 C5.34 1.65 4.68 3.3 4 5 C3.01 5 2.02 5 1 5 C0.67 3.35 0.34 1.7 0 0 Z " fill="#91C611" transform="translate(39,50)"/>
<path d="M0 0 C0 0.99 0 1.98 0 3 C-4.75 4.125 -4.75 4.125 -7 3 C-6.67 2.01 -6.34 1.02 -6 0 C-3 -1 -3 -1 0 0 Z " fill="#67B008" transform="translate(46,11)"/>
<path d="M0 0 C1.98 0 3.96 0 6 0 C6.33 1.65 6.66 3.3 7 5 C4.11424181 4.60196439 3.17810487 4.20990931 1.25 1.9375 C0.8375 1.298125 0.425 0.65875 0 0 Z " fill="#161816" transform="translate(33,43)"/>
<path d="M0 0 C2.0625 0.4375 2.0625 0.4375 4 1 C4 1.99 4 2.98 4 4 C2.68 4.33 1.36 4.66 0 5 C-0.5625 3.0625 -0.5625 3.0625 -1 1 C-0.67 0.67 -0.34 0.34 0 0 Z " fill="#96C923" transform="translate(32,27)"/>
<path d="M0 0 C1.32 0.66 2.64 1.32 4 2 C3.34 2 2.68 2 2 2 C2 2.66 2 3.32 2 4 C3.65 4 5.3 4 7 4 C5.02 4.99 5.02 4.99 3 6 C1.68 5.01 0.36 4.02 -1 3 C-0.67 2.01 -0.34 1.02 0 0 Z " fill="#8FC33A" transform="translate(42,44)"/>
<path d="M0 0 C0.66 0 1.32 0 2 0 C2 0.66 2 1.32 2 2 C3.65 1.67 5.3 1.34 7 1 C7.33 1.66 7.66 2.32 8 3 C5.03 3.66 2.06 4.32 -1 5 C-0.67 3.35 -0.34 1.7 0 0 Z " fill="#333432" transform="translate(30,40)"/>
<path d="M0 0 C2.64 0.33 5.28 0.66 8 1 C7.01 2.485 7.01 2.485 6 4 C3.375 4.1875 3.375 4.1875 1 4 C0.67 2.68 0.34 1.36 0 0 Z " fill="#64A002" transform="translate(31,38)"/>
<path d="M0 0 C1.98 0.66 3.96 1.32 6 2 C6 2.99 6 3.98 6 5 C4.35 5 2.7 5 1 5 C0.67 3.35 0.34 1.7 0 0 Z " fill="#6AAF01" transform="translate(30,30)"/>
<path d="M0 0 C3.01305957 0.38878188 4.39685311 1.26456874 7 3 C7 3.66 7 4.32 7 5 C4 4 1 3 -2 2 C-1.34 1.34 -0.68 0.68 0 0 Z " fill="#6CAE02" transform="translate(11,39)"/>
<path d="M0 0 C0.99 0.66 1.98 1.32 3 2 C3 3.32 3 4.64 3 6 C0.36 5.34 -2.28 4.68 -5 4 C-5 3.67 -5 3.34 -5 3 C-3.35 2.67 -1.7 2.34 0 2 C0 1.34 0 0.68 0 0 Z " fill="#518D02" transform="translate(15,33)"/>
<path d="M0 0 C2.01920337 1.30406884 4.01924973 2.63823419 6 4 C6 4.33 6 4.66 6 5 C3.03 4.67 0.06 4.34 -3 4 C-2.01 3.34 -1.02 2.68 0 2 C0 1.34 0 0.68 0 0 Z " fill="#272921" transform="translate(39,45)"/>
<path d="M0 0 C1.65 0 3.3 0 5 0 C3.68 0.33 2.36 0.66 1 1 C1 3.31 1 5.62 1 8 C0.01 8 -0.98 8 -2 8 C-1.34 5.36 -0.68 2.72 0 0 Z " fill="#6AAE04" transform="translate(20,30)"/>
<path d="M0 0 C1.32 0.66 2.64 1.32 4 2 C3.67 2.99 3.34 3.98 3 5 C1.68 4.67 0.36 4.34 -1 4 C-0.67 2.68 -0.34 1.36 0 0 Z " fill="#8EC707" transform="translate(10,24)"/>
<path d="M0 0 C1.98 0 3.96 0 6 0 C4.515 2.475 4.515 2.475 3 5 C2.01 4.34 1.02 3.68 0 3 C0 2.01 0 1.02 0 0 Z " fill="#9DCD4C" transform="translate(32,3)"/>
</svg>
