<?xml version="1.0" encoding="UTF-8"?>
<svg version="1.1" xmlns="http://www.w3.org/2000/svg" width="62" height="62">
<path d="M0 0 C2.12713391 2.08981577 3.7229668 4.30469491 5 7 C5 7.99 5 8.98 5 10 C5.7425 9.896875 6.485 9.79375 7.25 9.6875 C10 10 10 10 12.1875 11.9375 C16.7885795 19.71173778 17.40226738 30.02326281 15.359375 38.73046875 C13.4825 44.5175 13.4825 44.5175 12 46 C10.33382885 46.04063832 8.66611905 46.042721 7 46 C6.82984375 46.61488281 6.6596875 47.22976562 6.484375 47.86328125 C4.53276956 54.37209302 4.53276956 54.37209302 2.25 57.0625 C-1.05529366 58.43970569 -3.45512069 58.43533606 -7 58 C-9.9375 56.125 -9.9375 56.125 -12 54 C-12 53.34 -12 52.68 -12 52 C-13.0725 51.938125 -14.145 51.87625 -15.25 51.8125 C-19 51 -19 51 -21.25 48.9375 C-27.02711648 39.24019734 -28.2984205 28.45433892 -25.8125 17.4375 C-24.5703127 13.2409213 -23.46066782 9.86741048 -20 7 C-18.00448218 6.64080679 -16.00451121 6.30503431 -14 6 C-12.89163577 4.11683841 -12.89163577 4.11683841 -12 2 C-7.92662318 -1.37508365 -5.00657637 -1.60925669 0 0 Z " fill="#6EA402" transform="translate(37,3)"/>
<path d="M0 0 C0.33 0 0.66 0 1 0 C1 1.65 1 3.3 1 5 C5.64586892 4.51515724 5.64586892 4.51515724 10 3 C13 6.75 13 6.75 13 9 C13.66 9 14.32 9 15 9 C15 8.01 15 7.02 15 6 C16.875 6.3125 16.875 6.3125 19 7 C19.99 8.485 19.99 8.485 21 10 C21.66 9.67 22.32 9.34 23 9 C23 10.32 23 11.64 23 13 C23.60328125 13.00257812 24.2065625 13.00515625 24.828125 13.0078125 C27.34092354 13.12939953 29.56911363 13.33970734 32 14 C34.375 16.9375 34.375 16.9375 36 20 C36.99 20.66 37.98 21.32 39 22 C37.35 22 35.7 22 34 22 C33.82984375 22.61488281 33.6596875 23.22976562 33.484375 23.86328125 C31.53276956 30.37209302 31.53276956 30.37209302 29.25 33.0625 C25.94470634 34.43970569 23.54487931 34.43533606 20 34 C17.0625 32.125 17.0625 32.125 15 30 C15 29.34 15 28.68 15 28 C13.9275 27.938125 12.855 27.87625 11.75 27.8125 C8 27 8 27 5.75 24.9375 C0.89296327 16.78461692 0.38154855 9.3676747 0 0 Z " fill="#6CA502" transform="translate(10,27)"/>
<path d="M0 0 C1 2 1 2 0.5 4.3125 C-0.04064844 7.21848539 0.27033934 9.16243077 1 12 C-0.98 12.99 -0.98 12.99 -3 14 C-3 12.68 -3 11.36 -3 10 C-4.32 10 -5.64 10 -7 10 C-6.773125 10.598125 -6.54625 11.19625 -6.3125 11.8125 C-6.209375 12.534375 -6.10625 13.25625 -6 14 C-7.375 15.5 -7.375 15.5 -9 17 C-9.71447643 19.10332891 -9.71447643 19.10332891 -10 21 C-8.68 21 -7.36 21 -6 21 C-5.34 20.34 -4.68 19.68 -4 19 C-4 23.29 -4 27.58 -4 32 C-4.33 30.68 -4.66 29.36 -5 28 C-6.65 28 -8.3 28 -10 28 C-10 29.98 -10 31.96 -10 34 C-10.66 34 -11.32 34 -12 34 C-13.04625409 32.70264493 -14.04701223 31.36733028 -15 30 C-15.33 29.67 -15.66 29.34 -16 29 C-16 29.33 -16 29.66 -16 30 C-18.64 30 -21.28 30 -24 30 C-24.36926593 22.5599754 -24.64078635 15.35486323 -19.5859375 9.30859375 C-18 8 -18 8 -14.9375 7.5625 C-13.968125 7.376875 -12.99875 7.19125 -12 7 C-10.89163577 5.11683841 -10.89163577 5.11683841 -10 3 C-6.58630532 0.41666348 -4.2638099 -0.36546942 0 0 Z " fill="#6BA201" transform="translate(35,2)"/>
<path d="M0 0 C3.99772332 3.55353184 5.21064049 8.34991726 5.6875 13.5 C6.13475921 21.12522403 5.68704678 27.42963974 2.6875 34.5 C1.0375 34.17 -0.6125 33.84 -2.3125 33.5 C-1.72446203 30.47580475 -1.08571882 27.48241547 -0.3125 24.5 C-1.3025 23.84 -2.2925 23.18 -3.3125 22.5 C-3.72093923 19.78796348 -3.44586867 17.2562858 -3.3125 14.5 C-3.9725 14.5 -4.6325 14.5 -5.3125 14.5 C-5.3125 16.48 -5.3125 18.46 -5.3125 20.5 C-8.6125 19.84 -11.9125 19.18 -15.3125 18.5 C-15.3125 17.84 -15.3125 17.18 -15.3125 16.5 C-8.5625 15.375 -8.5625 15.375 -6.3125 16.5 C-6.333125 15.2625 -6.35375 14.025 -6.375 12.75 C-6.38016681 9.8359175 -6.24265558 7.29046673 -5.3125 4.5 C-6.9625 4.83 -8.6125 5.16 -10.3125 5.5 C-10.3125 4.18 -10.3125 2.86 -10.3125 1.5 C-3.08736911 -0.66753927 -3.08736911 -0.66753927 0 0 Z " fill="#71A508" transform="translate(47.3125,13.5)"/>
<path d="M0 0 C1 2 1 2 0.5 4.3125 C-0.04064844 7.21848539 0.27033934 9.16243077 1 12 C-0.98 12.99 -0.98 12.99 -3 14 C-3 12.68 -3 11.36 -3 10 C-4.32 10 -5.64 10 -7 10 C-6.6596875 10.8971875 -6.6596875 10.8971875 -6.3125 11.8125 C-6.209375 12.534375 -6.10625 13.25625 -6 14 C-7.375 15.5 -7.375 15.5 -9 17 C-9.71447643 19.10332891 -9.71447643 19.10332891 -10 21 C-8.68 21 -7.36 21 -6 21 C-5.34 20.34 -4.68 19.68 -4 19 C-4 23.29 -4 27.58 -4 32 C-4.33 30.68 -4.66 29.36 -5 28 C-6.65 28 -8.3 28 -10 28 C-10 29.98 -10 31.96 -10 34 C-10.66 34 -11.32 34 -12 34 C-11.22095672 14.99544419 -11.22095672 14.99544419 -9 7 C-9.66 6.67 -10.32 6.34 -11 6 C-10.03628506 3.59071265 -9.34789837 2.23992991 -7.1875 0.75 C-4.67678635 -0.11081611 -2.63651351 -0.14647297 0 0 Z " fill="#83B70E" transform="translate(35,2)"/>
<path d="M0 0 C3.53586014 3.17320782 5.58578031 5.16743695 6 10 C6.99 10.33 7.98 10.66 9 11 C6.36 11.66 3.72 12.32 1 13 C1.33 13.66 1.66 14.32 2 15 C3.32 15 4.64 15 6 15 C5.67 16.65 5.34 18.3 5 20 C2.36 20 -0.28 20 -3 20 C-3.33 21.98 -3.66 23.96 -4 26 C-4.33 26 -4.66 26 -5 26 C-5.33 24.35 -5.66 22.7 -6 21 C-7.65 20.67 -9.3 20.34 -11 20 C-10.45276317 16.62537285 -9.9451 14.91765 -8 12 C-8 11.01 -8 10.02 -8 9 C-6.68 9 -5.36 9 -4 9 C-4 10.32 -4 11.64 -4 13 C-3.01 12.34 -2.02 11.68 -1 11 C-1.20625 10.113125 -1.4125 9.22625 -1.625 8.3125 C-2.02550239 4.7747289 -1.56683516 3.13367033 0 0 Z " fill="#428E06" transform="translate(36,3)"/>
<path d="M0 0 C1.875 0.3125 1.875 0.3125 4 1 C4.66 1.99 5.32 2.98 6 4 C6.66 3.67 7.32 3.34 8 3 C8 4.32 8 5.64 8 7 C8.60328125 7.00257812 9.2065625 7.00515625 9.828125 7.0078125 C12.34092354 7.12939953 14.56911363 7.33970734 17 8 C19.375 10.9375 19.375 10.9375 21 14 C21.99 14.66 22.98 15.32 24 16 C6.56053519 16.60600457 6.56053519 16.60600457 2 13 C0.431832 8.72710188 0 4.52789742 0 0 Z " fill="#294529" transform="translate(25,33)"/>
<path d="M0 0 C7.36363636 -0.49090909 7.36363636 -0.49090909 10.1875 1.6875 C11.0846875 2.8321875 11.0846875 2.8321875 12 4 C12.825 4.763125 13.65 5.52625 14.5 6.3125 C16.55629851 8.5230209 17.69059632 10.09433305 19.0625 12.6875 C20.91180917 15.84922212 21.6069469 16.90937579 25 18 C20.83783725 18.32644414 18.63686538 18.40650982 15.0625 16.125 C13 14 13 14 13 12 C11.9275 11.938125 10.855 11.87625 9.75 11.8125 C6 11 6 11 3.6875 8.8125 C1.955217 5.92536167 0.90313438 3.23623152 0 0 Z " fill="#1D1F1B" transform="translate(12,43)"/>
<path d="M0 0 C5.61 0.33 11.22 0.66 17 1 C14.25 9.75 14.25 9.75 12 12 C9.125 12.4375 9.125 12.4375 6 12 C3.34270483 9.34270483 1.39713433 6.49283582 0 3 C0 2.01 0 1.02 0 0 Z " fill="#AECB8B" transform="translate(27,48)"/>
<path d="M0 0 C0.33 0 0.66 0 1 0 C1.33 1.98 1.66 3.96 2 6 C2.99 5.67 3.98 5.34 5 5 C5.66 8.96 6.32 12.92 7 17 C7.99 16.67 8.98 16.34 10 16 C10.28571429 24.57142857 10.28571429 24.57142857 8 28 C6.35 27.67 4.7 27.34 3 27 C3.58803797 23.97580475 4.22678118 20.98241547 5 18 C4.01 17.34 3.02 16.68 2 16 C1.59156077 13.28796348 1.86663133 10.7562858 2 8 C1.34 8 0.68 8 0 8 C0 9.98 0 11.96 0 14 C-3.3 13.34 -6.6 12.68 -10 12 C-10 11.34 -10 10.68 -10 10 C-3.25 8.875 -3.25 8.875 -1 10 C-1.020625 8.72125 -1.04125 7.4425 -1.0625 6.125 C-1.125 2.25 -1.125 2.25 0 0 Z " fill="#8DB817" transform="translate(42,20)"/>
<path d="M0 0 C0.33 0.66 0.66 1.32 1 2 C1.99 2 2.98 2 4 2 C3.67 6.29 3.34 10.58 3 15 C0 13 0 13 -1 12 C-1 12.33 -1 12.66 -1 13 C-3.64 13 -6.28 13 -9 13 C-9 9.7 -9 6.4 -9 3 C-6.36 3.66 -3.72 4.32 -1 5 C-0.67 3.35 -0.34 1.7 0 0 Z " fill="#87AE02" transform="translate(20,19)"/>
<path d="M0 0 C0.33 0 0.66 0 1 0 C1 1.65 1 3.3 1 5 C5.64586892 4.51515724 5.64586892 4.51515724 10 3 C12.85825008 6.23106531 13.40490107 8.78230858 14 13 C12.03897046 12.77211278 10.08109495 12.51694943 8.125 12.25 C7.03445312 12.11078125 5.94390625 11.9715625 4.8203125 11.828125 C2 11 2 11 0.625 9.15625 C-0.26689051 6.07922774 -0.1223515 3.18113895 0 0 Z " fill="#2C791A" transform="translate(10,27)"/>
<path d="M0 0 C0.98120464 3.05263664 0.98120464 4.94736336 0 8 C1.32 8 2.64 8 4 8 C4.66 7.34 5.32 6.68 6 6 C6 10.29 6 14.58 6 19 C5.67 17.68 5.34 16.36 5 15 C3.35 15 1.7 15 0 15 C0 16.98 0 18.96 0 21 C-0.66 21 -1.32 21 -2 21 C-1.85924795 18.06217531 -1.7126162 15.12484829 -1.5625 12.1875 C-1.52318359 11.35412109 -1.48386719 10.52074219 -1.44335938 9.66210938 C-1.40146484 8.85966797 -1.35957031 8.05722656 -1.31640625 7.23046875 C-1.27974854 6.49207764 -1.24309082 5.75368652 -1.20532227 4.99291992 C-1 3 -1 3 0 0 Z " fill="#C2D1AA" transform="translate(25,15)"/>
<path d="M0 0 C0.495 0.37125 0.99 0.7425 1.5 1.125 C1.17 2.775 0.84 4.425 0.5 6.125 C-0.49 6.455 -1.48 6.785 -2.5 7.125 C-3.23323796 9.14008358 -3.23323796 9.14008358 -3.5 11.125 C-3.83 11.125 -4.16 11.125 -4.5 11.125 C-4.83 8.815 -5.16 6.505 -5.5 4.125 C-7.15 4.455 -8.8 4.785 -10.5 5.125 C-10.5 3.805 -10.5 2.485 -10.5 1.125 C-3.11538462 -1.09038462 -3.11538462 -1.09038462 0 0 Z " fill="#6EA400" transform="translate(47.5,13.875)"/>
<path d="M0 0 C1.32 0 2.64 0 4 0 C4.75 2.1875 4.75 2.1875 5 5 C3.0625 7.8125 3.0625 7.8125 1 10 C0.64808594 9.04867187 0.64808594 9.04867187 0.2890625 8.078125 C-0.82290908 5.81749261 -0.82290908 5.81749261 -3.1640625 5.171875 C-4.38222656 4.96304688 -4.38222656 4.96304688 -5.625 4.75 C-6.44226562 4.60046875 -7.25953125 4.4509375 -8.1015625 4.296875 C-8.72804687 4.19890625 -9.35453125 4.1009375 -10 4 C-10 3.01 -10 2.02 -10 1 C-2.25 0.875 -2.25 0.875 0 2 C0 1.34 0 0.68 0 0 Z " fill="#81B10B" transform="translate(43,36)"/>
<path d="M0 0 C3.53586014 3.17320782 5.58578031 5.16743695 6 10 C6.99 10.33 7.98 10.66 9 11 C5.37 11.66 1.74 12.32 -2 13 C-1.67 11.68 -1.34 10.36 -1 9 C-1.185625 8.360625 -1.37125 7.72125 -1.5625 7.0625 C-2.16452755 4.22437012 -1.21266333 2.56799293 0 0 Z " fill="#679B00" transform="translate(36,3)"/>
<path d="M0 0 C0 2.31 0 4.62 0 7 C-2.97 7 -5.94 7 -9 7 C-8.67 4.69 -8.34 2.38 -8 0 C-4.71023192 -1.09658936 -3.28696233 -0.79953138 0 0 Z " fill="#70A500" transform="translate(41,23)"/>
<path d="M0 0 C1.32 0 2.64 0 4 0 C4 1.32 4 2.64 4 4 C4.66 4.33 5.32 4.66 6 5 C4.68 7.31 3.36 9.62 2 12 C0.35 11.67 -1.3 11.34 -3 11 C-2.45276317 7.62537285 -1.9451 5.91765 0 3 C0 2.01 0 1.02 0 0 Z " fill="#659200" transform="translate(28,12)"/>
<path d="M0 0 C7.36363636 -0.49090909 7.36363636 -0.49090909 10.1875 1.6875 C11.0846875 2.8321875 11.0846875 2.8321875 12 4 C12.9075 4.9075 13.815 5.815 14.75 6.75 C15.4925 7.4925 16.235 8.235 17 9 C16.67 9.66 16.34 10.32 16 11 C13.1875 10.3125 13.1875 10.3125 10 9 C9.2575 7.7315625 9.2575 7.7315625 8.5 6.4375 C7.17490035 3.65091244 7.17490035 3.65091244 3.8125 3.1875 C2.4203125 3.0946875 2.4203125 3.0946875 1 3 C0.67 2.01 0.34 1.02 0 0 Z " fill="#2D4C28" transform="translate(12,43)"/>
<path d="M0 0 C5.3414216 -0.43782144 5.3414216 -0.43782144 8 0 C9.8125 2.375 9.8125 2.375 11 5 C11.99 5.66 12.98 6.32 14 7 C6.01007787 7.7833257 6.01007787 7.7833257 1.9375 4.625 C0 2 0 2 0 0 Z " fill="#1A1E1A" transform="translate(35,42)"/>
<path d="M0 0 C1.875 0.25 1.875 0.25 4 1 C6.35535899 4.17973464 6.17494335 7.15124621 6 11 C5.01 11 4.02 11 3 11 C2.67 11.66 2.34 12.32 2 13 C1.66307215 11.39658445 1.33058907 9.79223445 1 8.1875 C0.814375 7.29417969 0.62875 6.40085937 0.4375 5.48046875 C0 3 0 3 0 0 Z " fill="#323D32" transform="translate(25,33)"/>
<path d="M0 0 C1.2065625 0.0309375 1.2065625 0.0309375 2.4375 0.0625 C1.7775 2.0425 1.1175 4.0225 0.4375 6.0625 C-0.2225 6.0625 -0.8825 6.0625 -1.5625 6.0625 C-1.2325 8.3725 -0.9025 10.6825 -0.5625 13.0625 C-1.5525 13.7225 -2.5425 14.3825 -3.5625 15.0625 C-3.5625 12.0925 -3.5625 9.1225 -3.5625 6.0625 C-4.2225 5.7325 -4.8825 5.4025 -5.5625 5.0625 C-3.15007962 0.07683121 -3.15007962 0.07683121 0 0 Z " fill="#93BB1F" transform="translate(29.5625,2.9375)"/>
<path d="M0 0 C0.99 0.33 1.98 0.66 3 1 C3.625 2.99609375 3.625 2.99609375 4 5.4375 C4.31571619 7.8428046 4.31571619 7.8428046 5 10 C5.99 10.66 6.98 11.32 8 12 C6.35 12.33 4.7 12.66 3 13 C2.7525 12.21625 2.505 11.4325 2.25 10.625 C0.84610901 7.67682892 -0.00675737 7.0975223 -3 6 C-2.505 5.566875 -2.01 5.13375 -1.5 4.6875 C0.33218192 3.00259517 0.33218192 3.00259517 0 0 Z " fill="#8EB808" transform="translate(23,36)"/>
<path d="M0 0 C3.3 0 6.6 0 10 0 C9.34 2.31 8.68 4.62 8 7 C4.59679258 5.98823563 3.24274669 5.35156418 1.1875 2.375 C0.795625 1.59125 0.40375 0.8075 0 0 Z " fill="#87B203" transform="translate(34,49)"/>
<path d="M0 0 C0.33 0 0.66 0 1 0 C1.17942163 3.94727588 1.09350689 6.5980513 -1 10 C-2.65 9.67 -4.3 9.34 -6 9 C-5.75 6.625 -5.75 6.625 -5 4 C-3 2.8125 -3 2.8125 -1 2 C-0.67 1.34 -0.34 0.68 0 0 Z " fill="#A7C87E" transform="translate(51,38)"/>
<path d="M0 0 C0.66 0 1.32 0 2 0 C2.125 7.75 2.125 7.75 1 10 C-1.97 9.67 -4.94 9.34 -8 9 C-8 8.34 -8 7.68 -8 7 C-5.64561267 5.57055055 -4.51967567 4.91338739 -1.75 5.375 C-1.1725 5.58125 -0.595 5.7875 0 6 C0 4.02 0 2.04 0 0 Z " fill="#5C9B03" transform="translate(42,28)"/>
<path d="M0 0 C0.33 0 0.66 0 1 0 C1 1.65 1 3.3 1 5 C5.64586892 4.51515724 5.64586892 4.51515724 10 3 C10.99 4.32 11.98 5.64 13 7 C12.67 7.66 12.34 8.32 12 9 C11.34 9 10.68 9 10 9 C9.67 8.34 9.34 7.68 9 7 C8.34 7.66 7.68 8.32 7 9 C4.69 8.34 2.38 7.68 0 7 C0 4.69 0 2.38 0 0 Z " fill="#598D08" transform="translate(10,27)"/>
<path d="M0 0 C1.48828125 1.11328125 1.48828125 1.11328125 3 3 C3.29296875 5.91796875 3.29296875 5.91796875 3.1875 9.1875 C3.14689453 10.81751953 3.14689453 10.81751953 3.10546875 12.48046875 C3.07066406 13.31191406 3.03585938 14.14335938 3 15 C2.01 14.34 1.02 13.68 0 13 C0 11 0 11 1 10 C0.505 9.54625 0.01 9.0925 -0.5 8.625 C-2 7 -2 7 -2 5 C-1.34 5 -0.68 5 0 5 C0 3.35 0 1.7 0 0 Z " fill="#85B60A" transform="translate(50,24)"/>
<path d="M0 0 C2.31 0.66 4.62 1.32 7 2 C7.33 3.32 7.66 4.64 8 6 C5.36 6 2.72 6 0 6 C0 4.02 0 2.04 0 0 Z " fill="#90BA01" transform="translate(11,26)"/>
<path d="M0 0 C3.3 0 6.6 0 10 0 C9.34 1.32 8.68 2.64 8 4 C6.02 4 4.04 4 2 4 C1.34 2.68 0.68 1.36 0 0 Z " fill="#91BB21" transform="translate(31,56)"/>
<path d="M0 0 C0.66 0 1.32 0 2 0 C3.125 3.75 3.125 3.75 2 6 C1.34 6 0.68 6 0 6 C0 6.66 0 7.32 0 8 C-2.5 9.625 -2.5 9.625 -5 11 C-4.67 8.69 -4.34 6.38 -4 4 C-2.68 4 -1.36 4 0 4 C0 2.68 0 1.36 0 0 Z " fill="#459002" transform="translate(48,16)"/>
<path d="M0 0 C0.99 0 1.98 0 3 0 C3.75 2.1875 3.75 2.1875 4 5 C2.0625 7.8125 2.0625 7.8125 0 10 C-1.60339848 6.88228073 -2.18974141 5.60988311 -1.125 2.1875 C-0.75375 1.465625 -0.3825 0.74375 0 0 Z " fill="#6FA500" transform="translate(44,36)"/>
<path d="M0 0 C0.33 0 0.66 0 1 0 C1 3.3 1 6.6 1 10 C-2.3 9.34 -5.6 8.68 -9 8 C-9 7.34 -9 6.68 -9 6 C-2.25 4.875 -2.25 4.875 0 6 C0 4.02 0 2.04 0 0 Z " fill="#B4CC85" transform="translate(41,24)"/>
<path d="M0 0 C0.66 0 1.32 0 2 0 C2.66 0.66 3.32 1.32 4 2 C4.99 2 5.98 2 7 2 C7 2.99 7 3.98 7 5 C4.03 5 1.06 5 -2 5 C-1 1 -1 1 0 0 Z " fill="#91BC04" transform="translate(34,25)"/>
<path d="M0 0 C0.7425 0.78375 1.485 1.5675 2.25 2.375 C4.54433318 4.56504531 6.12158858 5.82731386 9 7 C2.6 7.49230769 2.6 7.49230769 -0.4375 5 C-0.953125 4.34 -1.46875 3.68 -2 3 C-1.34 2.67 -0.68 2.34 0 2 C0 1.34 0 0.68 0 0 Z " fill="#262622" transform="translate(28,54)"/>
<path d="M0 0 C1.2380014 3.57644848 0.74926071 6.33694766 0 10 C-3 8 -3 8 -3.6875 4.875 C-3.790625 3.92625 -3.89375 2.9775 -4 2 C-3.01 2 -2.02 2 -1 2 C-0.67 1.34 -0.34 0.68 0 0 Z " fill="#9EC534" transform="translate(23,24)"/>
<path d="M0 0 C1.65 0 3.3 0 5 0 C5.33 0.66 5.66 1.32 6 2 C5.0625 4.625 5.0625 4.625 4 7 C3.34 6.67 2.68 6.34 2 6 C1.01 6.495 1.01 6.495 0 7 C0.50603992 4.83125748 0.99983813 3.00032373 2 1 C1.34 0.67 0.68 0.34 0 0 Z " fill="#7EB205" transform="translate(30,2)"/>
<path d="M0 0 C1.5625 1.25 1.5625 1.25 3 3 C2.6875 5.1875 2.6875 5.1875 2 7 C0.68 7 -0.64 7 -2 7 C-1.125 2.25 -1.125 2.25 0 0 Z " fill="#6BA400" transform="translate(46,13)"/>
<path d="M0 0 C0.33 0.99 0.66 1.98 1 3 C1.66 3 2.32 3 3 3 C2.67 4.32 2.34 5.64 2 7 C0.68 6.67 -0.64 6.34 -2 6 C-1.125 1.125 -1.125 1.125 0 0 Z " fill="#49950E" transform="translate(27,17)"/>
<path d="M0 0 C1.13643966 3.40931897 0.86747764 4.00335456 -0.4375 7.1875 C-0.86869141 8.26064453 -0.86869141 8.26064453 -1.30859375 9.35546875 C-1.53675781 9.89816406 -1.76492187 10.44085938 -2 11 C-2.33 11 -2.66 11 -3 11 C-3.32613618 6.32538149 -2.70582788 3.83325617 0 0 Z " fill="#589B00" transform="translate(26,8)"/>
<path d="M0 0 C0 3 0 3 -2 6 C-2 5.01 -2 4.02 -2 3 C-3.98 3.33 -5.96 3.66 -8 4 C-8 3.34 -8 2.68 -8 2 C-5.36 1.34 -2.72 0.68 0 0 Z " fill="#9AC227" transform="translate(45,13)"/>
<path d="M0 0 C2.4375 0.75 2.4375 0.75 5 2 C5.8125 4.125 5.8125 4.125 6 6 C4.68 6 3.36 6 2 6 C2 4.68 2 3.36 2 2 C1.01 1.67 0.02 1.34 -1 1 C-0.67 0.67 -0.34 0.34 0 0 Z " fill="#151715" transform="translate(23,51)"/>
<path d="M0 0 C0.99 0.33 1.98 0.66 3 1 C3 2.98 3 4.96 3 7 C1.68 6.01 0.36 5.02 -1 4 C-0.67 2.68 -0.34 1.36 0 0 Z " fill="#649E00" transform="translate(23,36)"/>
<path d="M0 0 C2.625 -0.1875 2.625 -0.1875 5 0 C4.34 1.32 3.68 2.64 3 4 C1.35 3.67 -0.3 3.34 -2 3 C-1.34 2.01 -0.68 1.02 0 0 Z " fill="#83AD02" transform="translate(17,10)"/>
<path d="M0 0 C2.49361571 1.20381448 4.68143083 2.45428722 7 4 C5.02 4.33 3.04 4.66 1 5 C0.67 3.35 0.34 1.7 0 0 Z " fill="#A4C464" transform="translate(34,52)"/>
</svg>
