<?xml version="1.0" encoding="UTF-8"?>
<svg version="1.1" xmlns="http://www.w3.org/2000/svg" width="62" height="62">
<path d="M0 0 C3.125 1.125 3.125 1.125 4.125 3.1640625 C4.41375 3.97617188 4.7025 4.78828125 5 5.625 C5.83430254 8.102163 5.83430254 8.102163 7.125 10.125 C9.05229107 10.78871591 9.05229107 10.78871591 11.1875 10.75 C12.486875 10.87375 13.78625 10.9975 15.125 11.125 C19.57351033 18.30001667 19.28788383 26.72302276 19.25 34.9375 C19.25580078 36.22430664 19.25580078 36.22430664 19.26171875 37.53710938 C19.26042969 38.35630859 19.25914063 39.17550781 19.2578125 40.01953125 C19.25668457 40.76050049 19.25555664 41.50146973 19.25439453 42.26489258 C19.125 44.125 19.125 44.125 18.125 46.125 C15.80343403 46.53229228 13.4681213 46.86938677 11.125 47.125 C10.96064453 48.04732422 10.96064453 48.04732422 10.79296875 48.98828125 C10.55513672 50.20064453 10.55513672 50.20064453 10.3125 51.4375 C10.16167969 52.23800781 10.01085937 53.03851563 9.85546875 53.86328125 C9.03607859 56.4003235 8.207885 57.49065707 6.125 59.125 C3.6875 59.625 3.6875 59.625 1.125 59.125 C0.50625 58.3 -0.1125 57.475 -0.75 56.625 C-1.45125 55.8 -2.1525 54.975 -2.875 54.125 C-4.009375 54.125 -5.14375 54.125 -6.3125 54.125 C-9.875 54.125 -9.875 54.125 -12.453125 52.078125 C-18.52110144 44.67910856 -19.22507505 33.37274291 -19.3125 24.0625 C-19.3225708 23.37317383 -19.3326416 22.68384766 -19.34301758 21.97363281 C-19.25703402 16.9560956 -18.27571446 13.45281858 -15.875 9.125 C-13.9375 7.9609375 -13.9375 7.9609375 -11.875 7.5 C-8.35090746 6.47617786 -8.35090746 6.47617786 -6 3.5 C-5.62875 2.71625 -5.2575 1.9325 -4.875 1.125 C-2.875 0.125 -2.875 0.125 0 0 Z " fill="#28BF2C" transform="translate(31.875,1.875)"/>
<path d="M0 0 C1.65 0 3.3 0 5 0 C4.34 6.93 3.68 13.86 3 21 C3.66 21 4.32 21 5 21 C5 22.98 5 24.96 5 27 C4.34 27 3.68 27 3 27 C3 29.31 3 31.62 3 34 C0 33 0 33 -2 30 C-7.1693489 30.40556131 -7.1693489 30.40556131 -12 32 C-12.66 31.67 -13.32 31.34 -14 31 C-14.08172936 28.4784979 -14.14083373 25.95970083 -14.1875 23.4375 C-14.22520508 22.38079102 -14.22520508 22.38079102 -14.26367188 21.30273438 C-14.33518283 16.13010858 -13.56411748 12.53474261 -11 8 C-9.0625 6.8359375 -9.0625 6.8359375 -7 6.375 C-2.91013706 5.19050418 -2.10297014 3.7052331 0 0 Z " fill="#29B423" transform="translate(27,3)"/>
<path d="M0 0 C1.22589844 0.01353516 1.22589844 0.01353516 2.4765625 0.02734375 C3.41628906 0.04474609 3.41628906 0.04474609 4.375 0.0625 C8.09715685 7.99231242 8.52320484 15.33062537 8.4375 24 C8.43298828 24.87462891 8.42847656 25.74925781 8.42382812 26.65039062 C8.41214834 28.78779047 8.39421689 30.92515463 8.375 33.0625 C7.385 33.0625 6.395 33.0625 5.375 33.0625 C4.385 30.7525 3.395 28.4425 2.375 26.0625 C-2.575 26.5575 -2.575 26.5575 -7.625 27.0625 C-7.295 25.7425 -6.965 24.4225 -6.625 23.0625 C-5.305 23.0625 -3.985 23.0625 -2.625 23.0625 C-2.625 22.4025 -2.625 21.7425 -2.625 21.0625 C-3.594375 21.083125 -4.56375 21.10375 -5.5625 21.125 C-8.625 21.0625 -8.625 21.0625 -9.625 20.0625 C-9.69679964 18.54321962 -9.70892007 17.02082518 -9.6875 15.5 C-9.67847656 14.67371094 -9.66945312 13.84742188 -9.66015625 12.99609375 C-9.64855469 12.35800781 -9.63695312 11.71992188 -9.625 11.0625 C-9.295 12.0525 -8.965 13.0425 -8.625 14.0625 C-5.325 14.0625 -2.025 14.0625 1.375 14.0625 C1.375 10.4325 1.375 6.8025 1.375 3.0625 C-1.265 3.0625 -3.905 3.0625 -6.625 3.0625 C-6.625 2.4025 -6.625 1.7425 -6.625 1.0625 C-4.21954362 -0.14022819 -2.67503047 -0.03821472 0 0 Z " fill="#3DC047" transform="translate(42.625,12.9375)"/>
<path d="M0 0 C2.75 -0.0625 2.75 -0.0625 6 1 C7.86151967 3.81149873 9.13320492 6.74204608 10 10 C9.67 10.66 9.34 11.32 9 12 C8.34 12 7.68 12 7 12 C7 12.66 7 13.32 7 14 C9.64 13.67 12.28 13.34 15 13 C16.82675419 16.65350838 15.45509168 21.05587212 15 25 C11.7 25 8.4 25 5 25 C5 20.71 5 16.42 5 12 C4.67 14.64 4.34 17.28 4 20 C3.01 20.33 2.02 20.66 1 21 C0.6309795 7.3667426 0.6309795 7.3667426 3 1 C2.01 0.67 1.02 0.34 0 0 Z " fill="#2CAD22" transform="translate(29,2)"/>
<path d="M0 0 C4.455 0.99 4.455 0.99 9 2 C9 2.66 9 3.32 9 4 C7.68 4.33 6.36 4.66 5 5 C5 5.66 5 6.32 5 7 C5.92232422 6.82210937 5.92232422 6.82210937 6.86328125 6.640625 C9.27864109 6.25540014 11.55318459 5.97823118 14 6 C17.13838804 8.5309581 17.87916596 12.20640788 19 16 C7.47835991 17.33257403 7.47835991 17.33257403 2 16 C-0.27141454 10.60539047 -0.20413361 5.73842251 0 0 Z " fill="#252C24" transform="translate(31,32)"/>
<path d="M0 0 C0.33 0.99 0.66 1.98 1 3 C1.928125 3 2.85625 3 3.8125 3 C7 4 7 4 7.99609375 5.70703125 C8.74106835 7.78755618 9.37835561 9.87982212 10 12 C10.63960014 13.3465266 11.289999 14.68922893 12 16 C9.75 16.3125 9.75 16.3125 7 16 C6.071875 14.7625 6.071875 14.7625 5.125 13.5 C4.42375 12.675 3.7225 11.85 3 11 C1.865625 11 0.73125 11 -0.4375 11 C-4 11 -4 11 -6.875 8.875 C-9.17089833 5.76878461 -9.73409107 3.81136138 -10 0 C-6.42355152 -1.2380014 -3.66305234 -0.74926071 0 0 Z " fill="#191A19" transform="translate(26,45)"/>
<path d="M0 0 C2.56824006 3.85236009 1.82735049 6.36441166 1.125 10.6875 C1.02058594 11.38939453 0.91617187 12.09128906 0.80859375 12.81445312 C0.54966196 14.54458829 0.27622343 16.27254118 0 18 C-0.99 18 -1.98 18 -3 18 C-3.66 17.34 -4.32 16.68 -5 16 C-5.99 16 -6.98 16 -8 16 C-10 12.25 -10 12.25 -10 10 C-11.32 9.67 -12.64 9.34 -14 9 C-12.33003428 5.26713546 -11.46321353 4.17686335 -7.5625 2.6875 C-4 2 -4 2 0 2 C0 1.34 0 0.68 0 0 Z " fill="#2AB72C" transform="translate(28,6)"/>
<path d="M0 0 C1.65 0 3.3 0 5 0 C4.34 6.93 3.68 13.86 3 21 C3.66 21 4.32 21 5 21 C5 22.98 5 24.96 5 27 C4.34 27 3.68 27 3 27 C3 29.31 3 31.62 3 34 C0 33 0 33 -1.6875 30.375 C-3.12813149 26.67051902 -3.23634374 23.93906235 -3 20 C-2.01 20.33 -1.02 20.66 0 21 C0.66 15.72 1.32 10.44 2 5 C0.68 5 -0.64 5 -2 5 C-1.34 3.35 -0.68 1.7 0 0 Z " fill="#89CC88" transform="translate(27,3)"/>
<path d="M0 0 C3.23490776 0.55774272 4.97855006 1.37211508 7 4 C7 4.99 7 5.98 7 7 C9.97 7.33 12.94 7.66 16 8 C15.125 16.75 15.125 16.75 14 19 C10.13995876 17.53584643 8.73327733 15.7141657 7 12 C6.3125 8.1875 6.3125 8.1875 6 5 C5.34 5 4.68 5 4 5 C4 4.34 4 3.68 4 3 C2.68 2.67 1.36 2.34 0 2 C0 1.34 0 0.68 0 0 Z " fill="#97CB96" transform="translate(26,41)"/>
<path d="M0 0 C1.22589844 0.01353516 1.22589844 0.01353516 2.4765625 0.02734375 C3.41628906 0.04474609 3.41628906 0.04474609 4.375 0.0625 C7.05719822 5.42689644 7.6902595 9.07256953 7.375 15.0625 C5.725 15.0625 4.075 15.0625 2.375 15.0625 C2.045 11.4325 1.715 7.8025 1.375 4.0625 C-2.5845774 2.90080958 -2.5845774 2.90080958 -6.625 3.0625 C-6.625 2.4025 -6.625 1.7425 -6.625 1.0625 C-4.21954362 -0.14022819 -2.67503047 -0.03821472 0 0 Z " fill="#59CA5E" transform="translate(42.625,12.9375)"/>
<path d="M0 0 C0.66 0.33 1.32 0.66 2 1 C2.33 2.65 2.66 4.3 3 6 C-1.95 5.67 -6.9 5.34 -12 5 C-12.66 3.35 -13.32 1.7 -14 0 C-12.42074025 -0.39180108 -10.83631206 -0.76280736 -9.25 -1.125 C-8.36828125 -1.33382812 -7.4865625 -1.54265625 -6.578125 -1.7578125 C-3.63047436 -2.03471301 -2.47479537 -1.53867712 0 0 Z " fill="#2FA31C" transform="translate(27,34)"/>
<path d="M0 0 C0.33 0 0.66 0 1 0 C1.33 3.3 1.66 6.6 2 10 C-1.3 9.67 -4.6 9.34 -8 9 C-8 9.66 -8 10.32 -8 11 C-8.99 10.67 -9.98 10.34 -11 10 C-11 7.03 -11 4.06 -11 1 C-10.67 1.99 -10.34 2.98 -10 4 C-6.7 4 -3.4 4 0 4 C0 2.68 0 1.36 0 0 Z " fill="#A7CFA7" transform="translate(44,23)"/>
<path d="M0 0 C2.56824006 3.85236009 1.82735049 6.36441166 1.125 10.6875 C1.02058594 11.38939453 0.91617187 12.09128906 0.80859375 12.81445312 C0.54966196 14.54458829 0.27622343 16.27254118 0 18 C-0.99 18 -1.98 18 -3 18 C-3.33 17.01 -3.66 16.02 -4 15 C-4.66 14.67 -5.32 14.34 -6 14 C-5.67 13.01 -5.34 12.02 -5 11 C-2.9375 10.3125 -2.9375 10.3125 -1 10 C-1.33 8.35 -1.66 6.7 -2 5 C-3.65 4.67 -5.3 4.34 -7 4 C-4 2 -4 2 0 2 C0 1.34 0 0.68 0 0 Z " fill="#2EBE2E" transform="translate(28,6)"/>
<path d="M0 0 C2.31 0.33 4.62 0.66 7 1 C7 1.66 7 2.32 7 3 C5.68 3.33 4.36 3.66 3 4 C3 4.66 3 5.32 3 6 C7.455 5.505 7.455 5.505 12 5 C12.66 6.32 13.32 7.64 14 9 C12.906875 8.814375 11.81375 8.62875 10.6875 8.4375 C7.06375867 7.7421932 7.06375867 7.7421932 4 9 C3.01 10.485 3.01 10.485 2 12 C1.34 8.04 0.68 4.08 0 0 Z " fill="#23A927" transform="translate(33,33)"/>
<path d="M0 0 C1.65 0 3.3 0 5 0 C4.34 6.93 3.68 13.86 3 21 C3.66 21 4.32 21 5 21 C5 21.66 5 22.32 5 23 C4.01 22.67 3.02 22.34 2 22 C1.02959578 16.06975197 1.10683731 10.93609666 2 5 C0.68 5 -0.64 5 -2 5 C-1.34 3.35 -0.68 1.7 0 0 Z " fill="#78CB7A" transform="translate(27,3)"/>
<path d="M0 0 C2.8125 0 2.8125 0 6 1 C7.47217222 3.52289906 8.18182585 6.20953849 9 9 C9.63960014 10.3465266 10.289999 11.68922893 11 13 C8.6875 13.25 8.6875 13.25 6 13 C4.1875 11 4.1875 11 3 9 C3.66 8.34 4.32 7.68 5 7 C4.34 5.68 3.68 4.36 3 3 C2.01 3 1.02 3 0 3 C0 2.01 0 1.02 0 0 Z " fill="#243426" transform="translate(27,48)"/>
<path d="M0 0 C0.66 0 1.32 0 2 0 C2.66 4.29 3.32 8.58 4 13 C4.66 13 5.32 13 6 13 C6 13.99 6 14.98 6 16 C4.68 16 3.36 16 2 16 C-0.27141454 10.60539047 -0.20413361 5.73842251 0 0 Z " fill="#2C4330" transform="translate(31,32)"/>
<path d="M0 0 C0.66 0 1.32 0 2 0 C2.474375 0.495 2.94875 0.99 3.4375 1.5 C4.99969942 3.34626591 4.99969942 3.34626591 8 3 C8.33 3.99 8.66 4.98 9 6 C4.545 7.485 4.545 7.485 0 9 C-1 8 -1 8 -1.125 4.5 C-1 1 -1 1 0 0 Z " fill="#59CA61" transform="translate(15,26)"/>
<path d="M0 0 C1.65 0.33 3.3 0.66 5 1 C4.85892253 2.45880109 4.71197585 3.91703551 4.5625 5.375 C4.48128906 6.18710937 4.40007813 6.99921875 4.31640625 7.8359375 C4 10 4 10 3 12 C-0.80666984 10.55609075 -2.26602582 8.65047197 -4 5 C-3.67 4.34 -3.34 3.68 -3 3 C-2.34 3.33 -1.68 3.66 -1 4 C-1 5.32 -1 6.64 -1 8 C-0.01 8 0.98 8 2 8 C1.43260132 3.87026372 1.43260132 3.87026372 0 0 Z " fill="#5AC65D" transform="translate(37,48)"/>
<path d="M0 0 C0.495 0.165 0.99 0.33 1.5 0.5 C3.81142214 0.96228443 5.71912142 1.03452491 8.0625 1 C12 1 12 1 15 2 C15 2.66 15 3.32 15 4 C15.66 4 16.32 4 17 4 C16.67 4.99 16.34 5.98 16 7 C14.0625 6.625 14.0625 6.625 12 6 C11.67 5.34 11.34 4.68 11 4 C7.29882394 3.15882362 3.78728969 2.88860913 0 3 C0 2.01 0 1.02 0 0 Z " fill="#209C2A" transform="translate(15,42)"/>
<path d="M0 0 C0 1.98 0 3.96 0 6 C-2.31 6.33 -4.62 6.66 -7 7 C-7 6.34 -7 5.68 -7 5 C-7.66 4.67 -8.32 4.34 -9 4 C-7.68 3.67 -6.36 3.34 -5 3 C-5 2.34 -5 1.68 -5 1 C-3 0 -3 0 0 0 Z " fill="#0F8633" transform="translate(44,17)"/>
<path d="M0 0 C5.94 0.99 5.94 0.99 12 2 C11.67 2.99 11.34 3.98 11 5 C8.03 5 5.06 5 2 5 C1.34 3.35 0.68 1.7 0 0 Z " fill="#16762C" transform="translate(13,34)"/>
<path d="M0 0 C2.78637633 4.1795645 1.79562512 6.14668677 1 11 C0.01 11 -0.98 11 -2 11 C-2 9.02 -2 7.04 -2 5 C-3.65 4.67 -5.3 4.34 -7 4 C-4 2 -4 2 0 2 C0 1.34 0 0.68 0 0 Z " fill="#249E2A" transform="translate(28,6)"/>
<path d="M0 0 C0.33 0.99 0.66 1.98 1 3 C-1.01822917 2.90234375 -3.03645833 2.8046875 -5.0546875 2.70703125 C-5.69664063 2.80371094 -6.33859375 2.90039062 -7 3 C-7.66 3.99 -8.32 4.98 -9 6 C-9.33 4.02 -9.66 2.04 -10 0 C-6.42355152 -1.2380014 -3.66305234 -0.74926071 0 0 Z " fill="#2B2D2B" transform="translate(26,45)"/>
<path d="M0 0 C0.66 0.99 1.32 1.98 2 3 C1.67 3.99 1.34 4.98 1 6 C0.34 5.01 -0.32 4.02 -1 3 C-4.3 3.33 -7.6 3.66 -11 4 C-11 3.01 -11 2.02 -11 1 C-3.52173913 -0.39130435 -3.52173913 -0.39130435 0 0 Z " fill="#6BCC6D" transform="translate(46,36)"/>
<path d="M0 0 C1.30150781 3.90452342 0.62254053 7.20460309 0.0625 11.1875 C-0.03740234 11.93708984 -0.13730469 12.68667969 -0.24023438 13.45898438 C-0.48739641 15.30681482 -0.74289611 17.1535266 -1 19 C-1.99 18.34 -2.98 17.68 -4 17 C-3.34 17 -2.68 17 -2 17 C-2 15.02 -2 13.04 -2 11 C-2.66 10.67 -3.32 10.34 -4 10 C-3.34 9.67 -2.68 9.34 -2 9 C-1.5720382 7.13690908 -1.5720382 7.13690908 -1.4375 5 C-1.09589041 1.09589041 -1.09589041 1.09589041 0 0 Z " fill="#4DC555" transform="translate(34,13)"/>
<path d="M0 0 C0.99 0.495 0.99 0.495 2 1 C2.73075648 3.3140622 3.40138258 5.64828869 4 8 C3.34 8 2.68 8 2 8 C1.67 9.65 1.34 11.3 1 13 C0.67 13 0.34 13 0 13 C0 8.71 0 4.42 0 0 Z " fill="#21B32C" transform="translate(46,13)"/>
<path d="M0 0 C3 1 3 1 4 2 C5.32 2 6.64 2 8 2 C8 2.99 8 3.98 8 5 C5.69 5.33 3.38 5.66 1 6 C0 1.125 0 1.125 0 0 Z " fill="#181A17" transform="translate(40,42)"/>
<path d="M0 0 C1.32 0 2.64 0 4 0 C4.33 0.99 4.66 1.98 5 3 C3.35 4.32 1.7 5.64 0 7 C-1.125 2.25 -1.125 2.25 0 0 Z " fill="#26B926" transform="translate(14,16)"/>
<path d="M0 0 C3.63 0.33 7.26 0.66 11 1 C11 1.66 11 2.32 11 3 C7.7 3.33 4.4 3.66 1 4 C0.67 2.68 0.34 1.36 0 0 Z " fill="#4BC650" transform="translate(14,38)"/>
<path d="M0 0 C2.97 0 5.94 0 9 0 C9.33 0.66 9.66 1.32 10 2 C6.7 2.66 3.4 3.32 0 4 C0 2.68 0 1.36 0 0 Z " fill="#24BD28" transform="translate(35,15)"/>
<path d="M0 0 C2.97 0.495 2.97 0.495 6 1 C6 2.65 6 4.3 6 6 C5.34 6 4.68 6 4 6 C4 6.66 4 7.32 4 8 C3.34 8 2.68 8 2 8 C2.33 5.69 2.66 3.38 3 1 C2.01 0.67 1.02 0.34 0 0 Z " fill="#29B92C" transform="translate(29,2)"/>
<path d="M0 0 C3.3 0 6.6 0 10 0 C10 0.66 10 1.32 10 2 C3.375 3 3.375 3 0 3 C0 2.01 0 1.02 0 0 Z " fill="#62CB67" transform="translate(34,27)"/>
<path d="M0 0 C0.33 0 0.66 0 1 0 C1.12375 0.804375 1.2475 1.60875 1.375 2.4375 C1.58125 3.283125 1.7875 4.12875 2 5 C2.66 5.33 3.32 5.66 4 6 C4 7.32 4 8.64 4 10 C3.34 10 2.68 10 2 10 C1.67 11.32 1.34 12.64 1 14 C0.04738513 9.23692563 -0.08333357 4.8333472 0 0 Z " fill="#CDD5CE" transform="translate(28,20)"/>
<path d="M0 0 C0 1.65 0 3.3 0 5 C-0.99 5.495 -0.99 5.495 -2 6 C-2.40729228 8.32156597 -2.74438677 10.6568787 -3 13 C-3.33 13 -3.66 13 -4 13 C-4 9.04 -4 5.08 -4 1 C-1 0 -1 0 0 0 Z " fill="#33C338" transform="translate(17,21)"/>
<path d="M0 0 C0.99 0.66 1.98 1.32 3 2 C3 2.66 3 3.32 3 4 C1.35 4.33 -0.3 4.66 -2 5 C-2.33 4.34 -2.66 3.68 -3 3 C-5.52733235 2.34444881 -5.52733235 2.34444881 -8 2 C-4.75366476 -0.1642235 -3.75698557 -0.37569856 0 0 Z " fill="#2A352B" transform="translate(45,40)"/>
<path d="M0 0 C0.33 0 0.66 0 1 0 C1 3.96 1 7.92 1 12 C0.01 12 -0.98 12 -2 12 C-1.44687265 7.97007218 -0.8441938 3.97977076 0 0 Z " fill="#8FC98F" transform="translate(50,34)"/>
<path d="M0 0 C0.66 0.66 1.32 1.32 2 2 C3.31747324 2.69748583 4.64914193 3.36959957 6 4 C4.02 4.99 2.04 5.98 0 7 C-1 6 -1 6 -1.125 3.5 C-1 1 -1 1 0 0 Z " fill="#70CC71" transform="translate(15,28)"/>
<path d="M0 0 C2.475 0.495 2.475 0.495 5 1 C4.67 3.97 4.34 6.94 4 10 C3.67 10 3.34 10 3 10 C2.01 6.7 1.02 3.4 0 0 Z " fill="#4BC056" transform="translate(37,48)"/>
<path d="M0 0 C0.66 0 1.32 0 2 0 C2.6875 3.3125 2.6875 3.3125 3 7 C2.01 7.99 1.02 8.98 0 10 C0 6.7 0 3.4 0 0 Z " fill="#1A662E" transform="translate(31,32)"/>
<path d="M0 0 C0.99 0 1.98 0 3 0 C2.34 3.3 1.68 6.6 1 10 C-1.56687367 6.1496895 -0.83288724 4.41430237 0 0 Z " fill="#2DBF31" transform="translate(48,32)"/>
<path d="M0 0 C0.99 0.33 1.98 0.66 3 1 C3 2.98 3 4.96 3 7 C2.01 7.33 1.02 7.66 0 8 C0 5.36 0 2.72 0 0 Z " fill="#217B1E" transform="translate(30,15)"/>
<path d="M0 0 C1.32 0.33 2.64 0.66 4 1 C4 2.65 4 4.3 4 6 C2.68 6.33 1.36 6.66 0 7 C0 4.69 0 2.38 0 0 Z " fill="#59CA62" transform="translate(24,23)"/>
<path d="M0 0 C2.475 0.495 2.475 0.495 5 1 C5 2.65 5 4.3 5 6 C4.01 6 3.02 6 2 6 C0 2.25 0 2.25 0 0 Z " fill="#15A349" transform="translate(18,16)"/>
<path d="M0 0 C0.33 0.99 0.66 1.98 1 3 C-1.64 3.33 -4.28 3.66 -7 4 C-6.67 3.01 -6.34 2.02 -6 1 C-4.02 0.67 -2.04 0.34 0 0 Z " fill="#29C12A" transform="translate(23,32)"/>
<path d="M0 0 C2.875 0.1875 2.875 0.1875 6 1 C7.375 3.5625 7.375 3.5625 8 6 C5.0280615 4.87548273 2.66559313 3.77706209 0 2 C0 1.34 0 0.68 0 0 Z " fill="#34C439" transform="translate(17,26)"/>
<path d="M0 0 C0.66 0 1.32 0 2 0 C2 2.31 2 4.62 2 7 C0.68 6.67 -0.64 6.34 -2 6 C-1.34 4.02 -0.68 2.04 0 0 Z " fill="#84CB86" transform="translate(48,21)"/>
<path d="M0 0 C2.97 0 5.94 0 9 0 C8.01 0.495 8.01 0.495 7 1 C6.67 1.66 6.34 2.32 6 3 C3.03 2.505 3.03 2.505 0 2 C0 1.34 0 0.68 0 0 Z " fill="#44C450" transform="translate(36,32)"/>
<path d="M0 0 C2.31 0 4.62 0 7 0 C7 0.66 7 1.32 7 2 C4.36 2.66 1.72 3.32 -1 4 C-0.67 2.68 -0.34 1.36 0 0 Z " fill="#51C056" transform="translate(17,10)"/>
<path d="M0 0 C3.26954202 0.56371414 4.82575883 1.49962266 7 4 C6.67 4.66 6.34 5.32 6 6 C5.34 5.67 4.68 5.34 4 5 C4 4.34 4 3.68 4 3 C2.68 2.67 1.36 2.34 0 2 C0 1.34 0 0.68 0 0 Z " fill="#64CB67" transform="translate(26,41)"/>
<path d="M0 0 C0.99 0.33 1.98 0.66 3 1 C2.67 2.32 2.34 3.64 2 5 C0.68 5 -0.64 5 -2 5 C-1.34 3.35 -0.68 1.7 0 0 Z " fill="#4FC457" transform="translate(27,3)"/>
</svg>
