<?xml version="1.0" encoding="UTF-8"?>
<svg version="1.1" xmlns="http://www.w3.org/2000/svg" width="62" height="62">
<path d="M0 0 C2.625 0.375 2.625 0.375 5 1 C5.66 3.97 6.32 6.94 7 10 C10.63 10 14.26 10 18 10 C18.64881448 12.54093855 19.29412899 15.08268273 19.9375 17.625 C20.21110352 18.69427734 20.21110352 18.69427734 20.49023438 19.78515625 C22.0668967 26.03447237 23.13450001 31.89499953 23.0625 38.375 C23.05347656 39.43460938 23.04445312 40.49421875 23.03515625 41.5859375 C23.02355469 42.38257813 23.01195312 43.17921875 23 44 C16.375 46 16.375 46 13 46 C13.12568359 47.17369141 13.12568359 47.17369141 13.25390625 48.37109375 C13.35574219 49.38300781 13.45757812 50.39492188 13.5625 51.4375 C13.66691406 52.44683594 13.77132812 53.45617188 13.87890625 54.49609375 C13.91886719 55.32238281 13.95882812 56.14867187 14 57 C13 58 13 58 10.4375 58.0625 C9.633125 58.041875 8.82875 58.02125 8 58 C7.34 56.35 6.68 54.7 6 53 C4.515 53.495 4.515 53.495 3 54 C1.60560336 54.06665376 0.20830125 54.08538199 -1.1875 54.0625 C-2.445625 54.041875 -3.70375 54.02125 -5 54 C-8.94475422 46.24651757 -10.55479823 38.54760786 -12 30 C-12.1340625 29.22269531 -12.268125 28.44539063 -12.40625 27.64453125 C-14.53530776 13.30296164 -14.53530776 13.30296164 -11 8 C-8.8359375 7.48828125 -8.8359375 7.48828125 -6.375 7.3125 C-5.14910156 7.21388672 -5.14910156 7.21388672 -3.8984375 7.11328125 C-3.27195312 7.07589844 -2.64546875 7.03851562 -2 7 C-2.04125 6.21625 -2.0825 5.4325 -2.125 4.625 C-2 2 -2 2 0 0 Z " fill="#108F3B" transform="translate(28,2)"/>
<path d="M0 0 C0.33 0 0.66 0 1 0 C2.32594359 5.96674616 2.0884587 11.92583615 2 18 C-4.625 20 -4.625 20 -8 20 C-7.91621094 20.78246094 -7.83242188 21.56492187 -7.74609375 22.37109375 C-7.64425781 23.38300781 -7.54242188 24.39492188 -7.4375 25.4375 C-7.33308594 26.44683594 -7.22867188 27.45617187 -7.12109375 28.49609375 C-7.08113281 29.32238281 -7.04117188 30.14867188 -7 31 C-8 32 -8 32 -10.5625 32.0625 C-11.366875 32.041875 -12.17125 32.02125 -13 32 C-13.66 30.35 -14.32 28.7 -15 27 C-15.99 27.33 -16.98 27.66 -18 28 C-19.39439664 28.06665376 -20.79169875 28.08538199 -22.1875 28.0625 C-24.0746875 28.0315625 -24.0746875 28.0315625 -26 28 C-27.32 25.03 -28.64 22.06 -30 19 C-25.60171741 16.8008587 -22.81449408 16.48144941 -18 16 C-18 14.35 -18 12.7 -18 11 C-16.35 11.33 -14.7 11.66 -13 12 C-13 8.7 -13 5.4 -13 2 C-12.01 2.99 -11.02 3.98 -10 5 C-7.47342233 5.14634071 -7.47342233 5.14634071 -4.8125 4.6875 C-3.91144531 4.56761719 -3.01039062 4.44773437 -2.08203125 4.32421875 C-1.39496094 4.21722656 -0.70789063 4.11023437 0 4 C0 2.68 0 1.36 0 0 Z " fill="#1FA637" transform="translate(49,28)"/>
<path d="M0 0 C2.625 0.375 2.625 0.375 5 1 C5.66 3.97 6.32 6.94 7 10 C10.63 10 14.26 10 18 10 C20.1254968 16.99642696 21.35890842 22.7021954 21 30 C19.18885568 30.36103536 17.37603177 30.71365504 15.5625 31.0625 C14.04849609 31.35833984 14.04849609 31.35833984 12.50390625 31.66015625 C11.67761719 31.77230469 10.85132812 31.88445313 10 32 C9.67 31.67 9.34 31.34 9 31 C8.34 32.32 7.68 33.64 7 35 C4 34 4 34 3.05078125 32.328125 C1.66829057 28.43666975 0.60642202 25.19816517 1 21 C1.99 21.33 2.98 21.66 4 22 C4 16.72 4 11.44 4 6 C0.10540926 7.68377223 0.10540926 7.68377223 -2 10 C-2 9.34 -2 8.68 -2 8 C-2.66 8 -3.32 8 -4 8 C-4 8.66 -4 9.32 -4 10 C-7.22791555 12.1519437 -8.28400809 12.20086443 -12 12 C-11.67 10.68 -11.34 9.36 -11 8 C-6.545 7.505 -6.545 7.505 -2 7 C-2.04125 6.21625 -2.0825 5.4325 -2.125 4.625 C-2 2 -2 2 0 0 Z " fill="#24B33F" transform="translate(28,2)"/>
<path d="M0 0 C3.37884168 3.13749585 3.57200952 6.54889904 4 11 C4.66 11 5.32 11 6 11 C5.67 12.32 5.34 13.64 5 15 C3.35 15 1.7 15 0 15 C-0.66 13.35 -1.32 11.7 -2 10 C-2.99 10.33 -3.98 10.66 -5 11 C-6.39439664 11.06665376 -7.79169875 11.08538199 -9.1875 11.0625 C-11.0746875 11.0315625 -11.0746875 11.0315625 -13 11 C-14.32 8.03 -15.64 5.06 -17 2 C-11.75135221 -0.6243239 -5.69498037 -2.11527842 0 0 Z " fill="#2F3D2F" transform="translate(36,45)"/>
<path d="M0 0 C0.226875 0.61875 0.45375 1.2375 0.6875 1.875 C2.44813176 4.72554666 3.77425149 5.19356287 7 6 C10.22828237 5.69912284 10.22828237 5.69912284 13 5 C13 4.34 13 3.68 13 3 C13.99 3.33 14.98 3.66 16 4 C16 6.97 16 9.94 16 13 C14.18885568 13.36103536 12.37603177 13.71365504 10.5625 14.0625 C9.55316406 14.25972656 8.54382813 14.45695312 7.50390625 14.66015625 C6.67761719 14.77230469 5.85132813 14.88445313 5 15 C4.67 14.67 4.34 14.34 4 14 C3.34 15.32 2.68 16.64 2 18 C-1 17 -1 17 -1.94921875 15.328125 C-3.33170943 11.43666975 -4.39357798 8.19816517 -4 4 C-3.01 4 -2.02 4 -1 4 C-0.67 2.68 -0.34 1.36 0 0 Z " fill="#9ACF99" transform="translate(33,19)"/>
<path d="M0 0 C2.875 -0.125 2.875 -0.125 6 0 C6.66 0.66 7.32 1.32 8 2 C8.99 1.67 9.98 1.34 11 1 C11.33 3.64 11.66 6.28 12 9 C10.35 9.33 8.7 9.66 7 10 C7.33 10.66 7.66 11.32 8 12 C9.65 12 11.3 12 13 12 C13 12.99 13 13.98 13 15 C10.69 15 8.38 15 6 15 C5.67 15.66 5.34 16.32 5 17 C3.68 16.67 2.36 16.34 1 16 C0.14701624 12.32612505 -0.10789471 8.9552607 -0.0625 5.1875 C-0.05347656 4.21167969 -0.04445313 3.23585938 -0.03515625 2.23046875 C-0.02355469 1.49441406 -0.01195313 0.75835938 0 0 Z " fill="#2EA922" transform="translate(17,27)"/>
<path d="M0 0 C2.625 0.375 2.625 0.375 5 1 C5.66 3.97 6.32 6.94 7 10 C10.63 10 14.26 10 18 10 C17.67 10.99 17.34 11.98 17 13 C12.59085217 14.10228696 8.51617599 14.07654536 4 14 C4 11.36 4 8.72 4 6 C1.53199953 7.15173355 -0.04783565 8.04783565 -2 10 C-2 9.34 -2 8.68 -2 8 C-2.66 8 -3.32 8 -4 8 C-4 8.66 -4 9.32 -4 10 C-7.22791555 12.1519437 -8.28400809 12.20086443 -12 12 C-11.67 10.68 -11.34 9.36 -11 8 C-6.545 7.505 -6.545 7.505 -2 7 C-2.04125 6.21625 -2.0825 5.4325 -2.125 4.625 C-2 2 -2 2 0 0 Z " fill="#40B346" transform="translate(28,2)"/>
<path d="M0 0 C2 4 2 4 3.4375 7.625 C4.73671038 11.20148477 4.73671038 11.20148477 8 13 C8 13.99 8 14.98 8 16 C6.68 16.33 5.36 16.66 4 17 C3.67 18.32 3.34 19.64 3 21 C-0.96 21.33 -4.92 21.66 -9 22 C-8.505 20.515 -8.505 20.515 -8 19 C-6.22265625 18.234375 -6.22265625 18.234375 -4.0625 17.75 C-3.35222656 17.57984375 -2.64195313 17.4096875 -1.91015625 17.234375 C0 17 0 17 2 18 C1.67 17.34 1.34 16.68 1 16 C-1.52733235 15.34444881 -1.52733235 15.34444881 -4 15 C-4 14.34 -4 13.68 -4 13 C-2.68 12.67 -1.36 12.34 0 12 C0 8.04 0 4.08 0 0 Z " fill="#23912C" transform="translate(28,24)"/>
<path d="M0 0 C0.66 1.32 1.32 2.64 2 4 C3.11375 3.34 4.2275 2.68 5.375 2 C8.75 0 8.75 0 11 0 C13.09491746 3.40424088 13.49573145 6.03414842 13 10 C11 12.375 11 12.375 9 14 C8.34 13.34 7.68 12.68 7 12 C7 11.01 7 10.02 7 9 C5.35 9.33 3.7 9.66 2 10 C-0.4294516 6.3558226 -0.16179575 4.28758728 0 0 Z " fill="#13A14A" transform="translate(15,13)"/>
<path d="M0 0 C0.33 2.97 0.66 5.94 1 9 C-1.21295616 10.10647808 -2.54672699 10.19588368 -5 10.25 C-6.051875 10.28867187 -6.051875 10.28867187 -7.125 10.328125 C-7.74375 10.21984375 -8.3625 10.1115625 -9 10 C-11 7 -11 7 -10.625 4.3125 C-10.41875 3.549375 -10.2125 2.78625 -10 2 C-6.38026598 0.68373308 -3.90432869 0 0 0 Z " fill="#171917" transform="translate(32,46)"/>
<path d="M0 0 C2 1.25 2 1.25 4 3 C4 4.32 4 5.64 4 7 C3.01 7 2.02 7 1 7 C0.7525 7.804375 0.505 8.60875 0.25 9.4375 C-1 12 -1 12 -3 12.9375 C-3.99 12.9684375 -3.99 12.9684375 -5 13 C-5.66 12.34 -6.32 11.68 -7 11 C-9.06874034 10.3574765 -9.06874034 10.3574765 -11 10 C-11 11.65 -11 13.3 -11 15 C-11.33 15 -11.66 15 -12 15 C-12.33 11.04 -12.66 7.08 -13 3 C-12.34 2.67 -11.68 2.34 -11 2 C-11 3.32 -11 4.64 -11 6 C-9.35 5.67 -7.7 5.34 -6 5 C-5.34 6.32 -4.68 7.64 -4 9 C-1.47740939 7.02579865 -1.0070192 6.03254358 -0.3125 2.8125 C-0.209375 1.884375 -0.10625 0.95625 0 0 Z " fill="#2BB62C" transform="translate(28,17)"/>
<path d="M0 0 C3.38407306 6.0429876 4.3891982 11.19292882 3 18 C1.109375 17.734375 1.109375 17.734375 -1 17 C-3.43315632 13.11421304 -4.42634867 8.54771913 -4 4 C-3.01 4 -2.02 4 -1 4 C-0.67 2.68 -0.34 1.36 0 0 Z " fill="#A6D1A5" transform="translate(33,19)"/>
<path d="M0 0 C0.625 3.0625 0.625 3.0625 1 6 C-6.42857143 8.42857143 -6.42857143 8.42857143 -10 7 C-10 4.69 -10 2.38 -10 0 C-2.25 -1.125 -2.25 -1.125 0 0 Z " fill="#262626" transform="translate(50,40)"/>
<path d="M0 0 C2.875 -0.125 2.875 -0.125 6 0 C6.66 0.66 7.32 1.32 8 2 C8.99 1.67 9.98 1.34 11 1 C11 2.98 11 4.96 11 7 C4.375 9.125 4.375 9.125 1 8 C0.67 5.36 0.34 2.72 0 0 Z " fill="#72CC73" transform="translate(17,27)"/>
<path d="M0 0 C2.99693138 0.99897713 4.02709413 1.65130253 6 4 C6 4.66 6 5.32 6 6 C6.66 6 7.32 6 8 6 C7.67 7.32 7.34 8.64 7 10 C4.625 10.1875 4.625 10.1875 2 10 C-0.4294516 6.3558226 -0.16179575 4.28758728 0 0 Z " fill="#1D3621" transform="translate(34,50)"/>
<path d="M0 0 C0.33 0 0.66 0 1 0 C1.33 2.64 1.66 5.28 2 8 C-0.31243792 8.02685412 -2.6249627 8.04632841 -4.9375 8.0625 C-6.22527344 8.07410156 -7.51304688 8.08570313 -8.83984375 8.09765625 C-12 8 -12 8 -13 7 C-13.04063832 5.33382885 -13.042721 3.66611905 -13 2 C-12.61199219 2.50144531 -12.22398438 3.00289062 -11.82421875 3.51953125 C-10.07024209 5.24891882 -10.07024209 5.24891882 -7.51953125 5.07421875 C-6.62621094 4.94660156 -5.73289062 4.81898437 -4.8125 4.6875 C-3.91144531 4.56761719 -3.01039062 4.44773437 -2.08203125 4.32421875 C-1.39496094 4.21722656 -0.70789062 4.11023437 0 4 C0 2.68 0 1.36 0 0 Z " fill="#2AAB28" transform="translate(49,28)"/>
<path d="M0 0 C0.66 0.33 1.32 0.66 2 1 C2 3.97 2 6.94 2 10 C-0.97 10 -3.94 10 -7 10 C-7 9.34 -7 8.68 -7 8 C-6.030625 7.195625 -5.06125 6.39125 -4.0625 5.5625 C-0.80624673 3.29315623 -0.80624673 3.29315623 0 0 Z " fill="#ABCAAA" transform="translate(47,22)"/>
<path d="M0 0 C0.66 0.99 1.32 1.98 2 3 C1.67 4.32 1.34 5.64 1 7 C-4.94 7.495 -4.94 7.495 -11 8 C-10.67 7.01 -10.34 6.02 -10 5 C-8.22265625 4.234375 -8.22265625 4.234375 -6.0625 3.75 C-4.99708984 3.49476562 -4.99708984 3.49476562 -3.91015625 3.234375 C-2 3 -2 3 0 4 C0 2.68 0 1.36 0 0 Z " fill="#0F842F" transform="translate(30,38)"/>
<path d="M0 0 C1 1 1 1 1.0625 4.5625 C1.041875 5.696875 1.02125 6.83125 1 8 C-1 5 -1 5 -1 3 C-4.63 3.66 -8.26 4.32 -12 5 C-11.67 3.68 -11.34 2.36 -11 1 C-7.26835686 0.12196632 -3.83319229 -0.17423601 0 0 Z " fill="#61CA65" transform="translate(50,35)"/>
<path d="M0 0 C1.32 0 2.64 0 4 0 C4.125 3.375 4.125 3.375 4 7 C3.34 7.66 2.68 8.32 2 9 C2 7.02 2 5.04 2 3 C-2.95 5.475 -2.95 5.475 -8 8 C-8 6.68 -8 5.36 -8 4 C-4.91190305 2.23537317 -3.76687864 2 0 2 C0 1.34 0 0.68 0 0 Z " fill="#26BF27" transform="translate(24,10)"/>
<path d="M0 0 C2.25 0 2.25 0 5 1 C8.23411464 5.32937391 9.54096782 9.59032178 9 15 C7 13 7 13 6.1875 9.5625 C4.79914903 5.3974471 3.73531454 4.96595502 0 3 C0 2.01 0 1.02 0 0 Z " fill="#66CB6A" transform="translate(32,41)"/>
<path d="M0 0 C1.32 0 2.64 0 4 0 C4.33 2.97 4.66 5.94 5 9 C4.01 9.66 3.02 10.32 2 11 C0.57741188 7.17679443 -0.24042276 4.08718695 0 0 Z " fill="#70CD6E" transform="translate(29,23)"/>
<path d="M0 0 C0.99 0.33 1.98 0.66 3 1 C4.33106622 1.34227417 5.66400079 1.67751743 7 2 C7 2.66 7 3.32 7 4 C3.78548731 5.60725635 0.56387464 5.05748185 -3 5 C-3.33 4.01 -3.66 3.02 -4 2 C-2.68 1.67 -1.36 1.34 0 1 C0 0.67 0 0.34 0 0 Z " fill="#1D1E1D" transform="translate(26,51)"/>
<path d="M0 0 C0 1.98 0 3.96 0 6 C-2.31 6.66 -4.62 7.32 -7 8 C-7.33 7.34 -7.66 6.68 -8 6 C-7.01 6 -6.02 6 -5 6 C-4.67 4.35 -4.34 2.7 -4 1 C-1 0 -1 0 0 0 Z " fill="#63CC67" transform="translate(28,28)"/>
<path d="M0 0 C3.3 0 6.6 0 10 0 C10 0.66 10 1.32 10 2 C7.03 2.66 4.06 3.32 1 4 C0.67 2.68 0.34 1.36 0 0 Z " fill="#1A682A" transform="translate(36,18)"/>
<path d="M0 0 C0.33 0.66 0.66 1.32 1 2 C-0.04800781 2.30744141 -0.04800781 2.30744141 -1.1171875 2.62109375 C-2.02726562 2.89050781 -2.93734375 3.15992188 -3.875 3.4375 C-4.77992187 3.70433594 -5.68484375 3.97117188 -6.6171875 4.24609375 C-8.98275381 4.92613826 -8.98275381 4.92613826 -11 6 C-11.33 4.68 -11.66 3.36 -12 2 C-8.04 1.34 -4.08 0.68 0 0 Z " fill="#323332" transform="translate(31,44)"/>
<path d="M0 0 C1.32 0 2.64 0 4 0 C4 2.64 4 5.28 4 8 C3.34 8 2.68 8 2 8 C-0.1519437 4.77208445 -0.20086443 3.71599191 0 0 Z " fill="#177F24" transform="translate(22,16)"/>
<path d="M0 0 C3.34606235 1.11535412 4.66514068 2.42360351 7 5 C7 5.33 7 5.66 7 6 C4.625 6.1875 4.625 6.1875 2 6 C0 3 0 3 0 0 Z " fill="#1B1C1B" transform="translate(34,54)"/>
<path d="M0 0 C0.33 0.99 0.66 1.98 1 3 C-1.31 3 -3.62 3 -6 3 C-6.33 3.66 -6.66 4.32 -7 5 C-7.99 4.67 -8.98 4.34 -10 4 C-7.93243723 1.2027092 -6.85559629 0.97307727 -3.3125 0.3125 C-2.219375 0.209375 -1.12625 0.10625 0 0 Z " fill="#63CB69" transform="translate(29,39)"/>
<path d="M0 0 C0.33 0.99 0.66 1.98 1 3 C-1.31 4.32 -3.62 5.64 -6 7 C-6.99 6.01 -7.98 5.02 -9 4 C-3.375 2 -3.375 2 0 2 C0 1.34 0 0.68 0 0 Z " fill="#68CC6A" transform="translate(46,22)"/>
<path d="M0 0 C-0.33 0.99 -0.66 1.98 -1 3 C-5.455 3.495 -5.455 3.495 -10 4 C-9.67 3.01 -9.34 2.02 -9 1 C-6.03421164 -0.16513114 -3.15436364 -0.08762121 0 0 Z " fill="#60C962" transform="translate(46,12)"/>
<path d="M0 0 C1.32 0 2.64 0 4 0 C4 1.98 4 3.96 4 6 C3.67 5.34 3.34 4.68 3 4 C2.01 4 1.02 4 0 4 C-0.33 4.66 -0.66 5.32 -1 6 C-1.042721 4.33388095 -1.04063832 2.66617115 -1 1 C-0.67 0.67 -0.34 0.34 0 0 Z " fill="#5DC262" transform="translate(28,2)"/>
<path d="M0 0 C1.875 0.3125 1.875 0.3125 4 1 C4.66 1.99 5.32 2.98 6 4 C2.25 5.125 2.25 5.125 0 4 C0 2.68 0 1.36 0 0 Z " fill="#1BA136" transform="translate(32,44)"/>
<path d="M0 0 C-1.98 0 -3.96 0 -6 0 C-6.33 0.99 -6.66 1.98 -7 3 C-8.32 3 -9.64 3 -11 3 C-10.67 2.01 -10.34 1.02 -10 0 C-3.68421053 -2.45614035 -3.68421053 -2.45614035 0 0 Z " fill="#21AE32" transform="translate(30,43)"/>
<path d="M0 0 C0 0.66 0 1.32 0 2 C-2.97 2.66 -5.94 3.32 -9 4 C-9 3.01 -9 2.02 -9 1 C-2.25 0 -2.25 0 0 0 Z " fill="#2DC22F" transform="translate(46,22)"/>
<path d="M0 0 C0.99 0 1.98 0 3 0 C3 1.32 3 2.64 3 4 C2.01 4 1.02 4 0 4 C-0.33 5.32 -0.66 6.64 -1 8 C-1.04241723 5.66705225 -1.04092937 3.33297433 -1 1 C-0.67 0.67 -0.34 0.34 0 0 Z " fill="#16A847" transform="translate(29,8)"/>
<path d="M0 0 C-0.3125 1.9375 -0.3125 1.9375 -1 4 C-1.99 4.33 -2.98 4.66 -4 5 C-4.33 3.68 -4.66 2.36 -5 1 C-3 0 -3 0 0 0 Z " fill="#24BF24" transform="translate(22,22)"/>
<path d="M0 0 C0.33 0 0.66 0 1 0 C1.33 2.64 1.66 5.28 2 8 C0.02 7.34 -1.96 6.68 -4 6 C-3.67 5.34 -3.34 4.68 -3 4 C-2.01 4 -1.02 4 0 4 C0 2.68 0 1.36 0 0 Z " fill="#23B43F" transform="translate(49,28)"/>
<path d="M0 0 C1.32 0 2.64 0 4 0 C3.67 1.65 3.34 3.3 3 5 C2.01 5 1.02 5 0 5 C0 3.35 0 1.7 0 0 Z " fill="#5BCB64" transform="translate(29,23)"/>
</svg>
