<?xml version="1.0" encoding="UTF-8"?>
<svg version="1.1" xmlns="http://www.w3.org/2000/svg" width="62" height="62">
<path d="M0 0 C3.35827222 1.5803634 4.74540032 4.63906035 6.125 8 C6.125 8.99 6.125 9.98 6.125 11 C7.3625 10.5875 8.6 10.175 9.875 9.75 C11.984375 9.046875 11.984375 9.046875 14.125 9 C17.98470735 11.81156664 19.03962805 14.9434827 20.3125 19.4375 C20.63605469 20.54996094 20.95960937 21.66242187 21.29296875 22.80859375 C22.54607454 27.61510753 23.24749905 31.83257855 23.1875 36.8125 C23.17847656 37.78832031 23.16945312 38.76414063 23.16015625 39.76953125 C23.14855469 40.50558594 23.13695312 41.24164063 23.125 42 C20.485 42.99 17.845 43.98 15.125 45 C15.17720703 46.03060547 15.17720703 46.03060547 15.23046875 47.08203125 C15.25753906 47.98308594 15.28460938 48.88414063 15.3125 49.8125 C15.36470703 51.15248047 15.36470703 51.15248047 15.41796875 52.51953125 C15.125 55 15.125 55 13.78125 56.84375 C12.125 58 12.125 58 9.4375 57.6875 C8.2928125 57.3471875 8.2928125 57.3471875 7.125 57 C6.795 55.68 6.465 54.36 6.125 53 C4.51625 53.495 4.51625 53.495 2.875 54 C-0.875 55 -0.875 55 -4.875 55 C-8.00791389 45.18798034 -10.59920464 35.32530176 -12.75 25.25 C-12.9771167 24.21488281 -13.2042334 23.17976563 -13.43823242 22.11328125 C-13.6416626 21.13230469 -13.84509277 20.15132812 -14.0546875 19.140625 C-14.32901611 17.83399902 -14.32901611 17.83399902 -14.60888672 16.50097656 C-14.89938518 13.77082406 -14.54531512 11.64919935 -13.875 9 C-12.59625 8.79375 -11.3175 8.5875 -10 8.375 C-7.79186083 7.91180776 -7.79186083 7.91180776 -5.875 7 C-4.41141935 4.02812283 -4.41141935 4.02812283 -3.875 1 C-1.875 0 -1.875 0 0 0 Z " fill="#1EA05B" transform="translate(29.875,2)"/>
<path d="M0 0 C2.50298434 2.93828597 3.46930939 5.17902761 4 9 C3.01 9.33 2.02 9.66 1 10 C1.66 10.66 2.32 11.32 3 12 C3.66 11.34 4.32 10.68 5 10 C5.84311119 13.22669416 6.67273868 16.45670918 7.5 19.6875 C7.73847656 20.59951172 7.97695313 21.51152344 8.22265625 22.45117188 C8.44824219 23.33740234 8.67382812 24.22363281 8.90625 25.13671875 C9.11572266 25.94842529 9.32519531 26.76013184 9.54101562 27.59643555 C10.02272289 30.118993 10.07974843 32.43808183 10 35 C8.73160474 35.50615298 7.46016898 36.00469099 6.1875 36.5 C5.47980469 36.7784375 4.77210937 37.056875 4.04296875 37.34375 C2 38 2 38 -1 38 C-1 40.31 -1 42.62 -1 45 C-4.05884213 40.41173681 -4.82083362 35.25776464 -6.08666992 29.93286133 C-6.55558201 27.96651014 -7.03777763 26.00377251 -7.52148438 24.04101562 C-9.20639402 17.03307931 -10.57580866 10.20279018 -11 3 C-7.34920174 1.38935371 -3.9492568 0.55105909 0 0 Z " fill="#2EA876" transform="translate(26,9)"/>
<path d="M0 0 C1.75 0.0625 1.75 0.0625 4 1 C6.44727466 4.2161819 8 6.92394904 8 11 C9.2375 10.5875 10.475 10.175 11.75 9.75 C15.65781103 8.80578464 15.65781103 8.80578464 18.3125 10.3125 C21.75772549 15.7993406 23.50110822 21.48559318 23 28 C22.36191406 28.12117188 21.72382812 28.24234375 21.06640625 28.3671875 C20.24011719 28.53476562 19.41382812 28.70234375 18.5625 28.875 C17.32693359 29.11863281 17.32693359 29.11863281 16.06640625 29.3671875 C15.38449219 29.57601563 14.70257813 29.78484375 14 30 C13.67 30.66 13.34 31.32 13 32 C8.35300795 30.61660269 8.35300795 30.61660269 6.8125 27.92578125 C6.544375 27.06339844 6.27625 26.20101563 6 25.3125 C5.68675781 24.33796875 5.37351562 23.3634375 5.05078125 22.359375 C4.70402344 21.25078125 4.35726562 20.1421875 4 19 C3.54022313 17.69091771 3.07515217 16.38368568 2.60546875 15.078125 C2.13238976 13.73973268 1.65972954 12.40119227 1.1875 11.0625 C0.95611328 10.42417236 0.72472656 9.78584473 0.48632812 9.12817383 C-0.67059443 5.74829443 -1.383794 3.38732395 0 0 Z " fill="#1AA563" transform="translate(28,2)"/>
<path d="M0 0 C2.2917514 3.4376271 3.51305124 6.92922951 4.8125 10.8125 C5.07603271 11.58988525 5.33956543 12.36727051 5.61108398 13.16821289 C8.03765705 20.59114446 9.69192638 28.14549659 11.0871582 35.82543945 C11.99860682 41.17955369 11.99860682 41.17955369 15.62890625 44.9375 C16.80259766 45.4634375 16.80259766 45.4634375 18 46 C18.38692581 49.15989415 18.43060128 51.13879744 17 54 C15.68 53.67 14.36 53.34 13 53 C13 52.34 13 51.68 13 51 C12.32453125 51.2165625 11.6490625 51.433125 10.953125 51.65625 C10.06109375 51.9346875 9.1690625 52.213125 8.25 52.5 C7.36828125 52.7784375 6.4865625 53.056875 5.578125 53.34375 C3 54 3 54 -1 54 C-1.33 50.37 -1.66 46.74 -2 43 C-0.9275 42.855625 0.145 42.71125 1.25 42.5625 C3.92599819 42.16110027 6.39881191 41.68482607 9 41 C8.54315719 35.60925487 7.77161222 30.36522281 6.6875 25.0625 C6.46449219 23.96035156 6.24148437 22.85820312 6.01171875 21.72265625 C5.25886143 18.87202209 5.25886143 18.87202209 2.89453125 17.62109375 C2.26933594 17.41613281 1.64414062 17.21117188 1 17 C1 16.01 1 15.02 1 14 C1.66 13.67 2.32 13.34 3 13 C1.31192092 8.76915097 1.31192092 8.76915097 -2 6 C-1.34 4.02 -0.68 2.04 0 0 Z " fill="#1A211C" transform="translate(26,3)"/>
<path d="M0 0 C2.71843438 3.62457917 3.41789544 4.80884715 4 9 C3.01 9.33 2.02 9.66 1 10 C1.66 10.66 2.32 11.32 3 12 C3.66 11.34 4.32 10.68 5 10 C5.80967438 12.91482778 6.21845993 14.46113217 5.0625 17.3125 C4.711875 17.869375 4.36125 18.42625 4 19 C3.34 17.68 2.68 16.36 2 15 C0.88625 15.020625 -0.2275 15.04125 -1.375 15.0625 C-5 15 -5 15 -7 14 C-7 15.32 -7 16.64 -7 18 C-7.66 18 -8.32 18 -9 18 C-9.36590746 16.27327966 -9.71722195 14.54346345 -10.0625 12.8125 C-10.35833984 11.36810547 -10.35833984 11.36810547 -10.66015625 9.89453125 C-11 7 -11 7 -10 2 C-6.7 1.34 -3.4 0.68 0 0 Z " fill="#139548" transform="translate(26,9)"/>
<path d="M0 0 C2.28227285 3.42340927 2.48558005 5.13518095 2.3828125 9.12109375 C2 11 2 11 -0.1875 13.0625 C-3.31226501 14.10408834 -4.89406547 13.97615085 -8 13 C-8.53190541 11.56656 -9.05015258 10.12804633 -9.5625 8.6875 C-9.85253906 7.88699219 -10.14257812 7.08648437 -10.44140625 6.26171875 C-11 4 -11 4 -10 1 C-6.625 0.875 -6.625 0.875 -3 1 C-2.34 1.66 -1.68 2.32 -1 3 C-0.67 2.01 -0.34 1.02 0 0 Z " fill="#55BB89" transform="translate(31,24)"/>
<path d="M0 0 C0.66 0.33 1.32 0.66 2 1 C2 1.99 2 2.98 2 4 C2.62648437 3.855625 3.25296875 3.71125 3.8984375 3.5625 C4.71570312 3.376875 5.53296875 3.19125 6.375 3 C7.18710937 2.814375 7.99921875 2.62875 8.8359375 2.4375 C11 2 11 2 13 2 C14.35439668 4.70879335 14.06501451 7.00933268 14 10 C13.36191406 10.12117188 12.72382812 10.24234375 12.06640625 10.3671875 C11.24011719 10.53476562 10.41382813 10.70234375 9.5625 10.875 C8.32693359 11.11863281 8.32693359 11.11863281 7.06640625 11.3671875 C6.38449219 11.57601563 5.70257813 11.78484375 5 12 C4.67 12.66 4.34 13.32 4 14 C1.525 13.01 1.525 13.01 -1 12 C-1.08159574 7.83861737 -0.98248524 4.0527516 0 0 Z " fill="#F4F9F2" transform="translate(37,20)"/>
<path d="M0 0 C0.33 0 0.66 0 1 0 C1.98248524 4.0527516 2.08159574 7.83861737 2 12 C-4.4 15.07692308 -4.4 15.07692308 -7.4375 14.6875 C-7.953125 14.460625 -8.46875 14.23375 -9 14 C-9.33 11.69 -9.66 9.38 -10 7 C-8.906875 6.855625 -7.81375 6.71125 -6.6875 6.5625 C-3.06877013 6.11711896 -3.06877013 6.11711896 0 5 C0 3.35 0 1.7 0 0 Z " fill="#11904C" transform="translate(33,30)"/>
<path d="M0 0 C0.33 0 0.66 0 1 0 C1.33 3.3 1.66 6.6 2 10 C1.2575 9.814375 0.515 9.62875 -0.25 9.4375 C-2.87997926 8.83163504 -2.87997926 8.83163504 -4.9375 9.5 C-7.79617948 10.19301321 -10.15109983 9.58272958 -13 9 C-13.33 7.68 -13.66 6.36 -14 5 C-12.68 5.33 -11.36 5.66 -10 6 C-9.67 5.01 -9.34 4.02 -9 3 C-4.545 2.505 -4.545 2.505 0 2 C0 1.34 0 0.68 0 0 Z " fill="#5CBD8D" transform="translate(51,28)"/>
<path d="M0 0 C0.66 2.31 1.32 4.62 2 7 C0.5422647 7.335939 -0.91621106 7.66866624 -2.375 8 C-3.59316406 8.2784375 -3.59316406 8.2784375 -4.8359375 8.5625 C-7 9 -7 9 -9 9 C-9.33 6.36 -9.66 3.72 -10 1 C-3.71428571 -1.42857143 -3.71428571 -1.42857143 0 0 Z " fill="#2BA866" transform="translate(48,15)"/>
<path d="M0 0 C2.3593008 3.5389512 3.60086919 7.18765114 4.9375 11.1875 C5.33509521 12.37351807 5.33509521 12.37351807 5.74072266 13.58349609 C8.23255949 21.27342401 9.76124498 29.02415625 11 37 C10.34 36.67 9.68 36.34 9 36 C8.10734682 32.40313277 7.35940109 28.8109406 6.67578125 25.16992188 C5.89261145 20.64402652 5.89261145 20.64402652 2.8671875 17.46484375 C2.25101563 17.31144531 1.63484375 17.15804688 1 17 C1 16.01 1 15.02 1 14 C1.66 13.67 2.32 13.34 3 13 C1.31192092 8.76915097 1.31192092 8.76915097 -2 6 C-1.34 4.02 -0.68 2.04 0 0 Z " fill="#2C3B2F" transform="translate(26,3)"/>
<path d="M0 0 C0.99 1.32 1.98 2.64 3 4 C2.67 4.66 2.34 5.32 2 6 C0.33871537 6.35919668 -1.32900023 6.68911632 -3 7 C-3.70125 7.350625 -4.4025 7.70125 -5.125 8.0625 C-7 9 -7 9 -10 9 C-10.33 7.02 -10.66 5.04 -11 3 C-7.34920174 1.38935371 -3.9492568 0.55105909 0 0 Z " fill="#18A46E" transform="translate(26,9)"/>
<path d="M0 0 C0 0.66 0 1.32 0 2 C-4.75 4 -4.75 4 -7 4 C-6.938125 5.11375 -6.938125 5.11375 -6.875 6.25 C-7.00752565 9.16556435 -7.6550777 10.46838155 -9 13 C-9.37668344 14.65740715 -9.72057545 16.32345271 -10 18 C-12.73704754 15.26295246 -13.16182449 12.73955226 -14 9 C-13.625 6.5625 -13.625 6.5625 -13 5 C-13 5.99 -13 6.98 -13 8 C-12.01 7.67 -11.02 7.34 -10 7 C-10 5.02 -10 3.04 -10 1 C-3.375 -1.125 -3.375 -1.125 0 0 Z " fill="#55BB88" transform="translate(46,12)"/>
<path d="M0 0 C0.33 0.66 0.66 1.32 1 2 C0.175 2.433125 -0.65 2.86625 -1.5 3.3125 C-2.325 3.869375 -3.15 4.42625 -4 5 C-4 5.99 -4 6.98 -4 8 C-5.98 8.99 -5.98 8.99 -8 10 C-5.03 10.495 -5.03 10.495 -2 11 C-5.08809695 12.76462683 -6.23312136 13 -10 13 C-10.33 9.37 -10.66 5.74 -11 2 C-9.9275 1.855625 -8.855 1.71125 -7.75 1.5625 C-5.08337051 1.16250558 -2.58600271 0.72408076 0 0 Z " fill="#282B28" transform="translate(35,44)"/>
<path d="M0 0 C0.33 0 0.66 0 1 0 C1 1.65 1 3.3 1 5 C-0.26839526 5.50615298 -1.53983102 6.00469099 -2.8125 6.5 C-3.87404297 6.91765625 -3.87404297 6.91765625 -4.95703125 7.34375 C-7 8 -7 8 -10 8 C-10 10.31 -10 12.62 -10 15 C-12.98479194 10.52281208 -14 6.36175907 -14 1 C-13.34 1 -12.68 1 -12 1 C-11.34 2.32 -10.68 3.64 -10 5 C-6.62294375 4.46274105 -3.303314 3.88935377 0 3 C0 2.01 0 1.02 0 0 Z " fill="#119345" transform="translate(35,39)"/>
<path d="M0 0 C3.65316671 1.24976756 4.78065836 1.67098753 7 5 C7.30078125 7.15625 7.30078125 7.15625 7.3125 9.5 C7.32925781 10.2734375 7.34601562 11.046875 7.36328125 11.84375 C6.91365325 14.51250974 6.17088615 15.42070604 4 17 C1.3125 16.6875 1.3125 16.6875 -1 16 C-1.33 14.68 -1.66 13.36 -2 12 C-1.01 11.67 -0.02 11.34 1 11 C1.33 11.66 1.66 12.32 2 13 C2.99 13.33 3.98 13.66 5 14 C5.35240188 9.96820791 5.35240188 9.96820791 5 6 C2.59141286 4.1375562 2.59141286 4.1375562 0 3 C0 2.01 0 1.02 0 0 Z " fill="#1F5432" transform="translate(38,43)"/>
<path d="M0 0 C1.98 0.99 3.96 1.98 6 3 C6.125 8.75 6.125 8.75 5 11 C3.68 10.67 2.36 10.34 1 10 C1 9.34 1 8.68 1 8 C-0.32 8.33 -1.64 8.66 -3 9 C-2.67 8.34 -2.34 7.68 -2 7 C-1.34 7 -0.68 7 0 7 C0 4.69 0 2.38 0 0 Z " fill="#272726" transform="translate(38,46)"/>
<path d="M0 0 C-0.33 1.65 -0.66 3.3 -1 5 C-3.64 5.66 -6.28 6.32 -9 7 C-9 4.69 -9 2.38 -9 0 C-5.62182575 -0.84454356 -3.32534757 -1.10844919 0 0 Z " fill="#292E29" transform="translate(53,40)"/>
<path d="M0 0 C2.20161997 2.20161997 2.29468629 3.09058096 3 6 C5.0072908 9.0109362 5.83884224 9.63016497 9 11 C8.360625 11.12375 7.72125 11.2475 7.0625 11.375 C6.381875 11.58125 5.70125 11.7875 5 12 C4.67 12.66 4.34 13.32 4 14 C1.525 13.01 1.525 13.01 -1 12 C-1.08159574 7.83861737 -0.98248524 4.0527516 0 0 Z " fill="#C0D2C4" transform="translate(37,20)"/>
<path d="M0 0 C1.8125 0 1.8125 0 4 1 C5.7608986 3.25904755 6.76967308 5.35707551 8 8 C7.67 8.99 7.34 9.98 7 11 C6.34 9.02 5.68 7.04 5 5 C4.01 5.495 4.01 5.495 3 6 C3 7.32 3 8.64 3 10 C2.34 10 1.68 10 1 10 C0.63883954 8.5225254 0.28624952 7.04295325 -0.0625 5.5625 C-0.25972656 4.73878906 -0.45695312 3.91507812 -0.66015625 3.06640625 C-0.82837891 2.04353516 -0.82837891 2.04353516 -1 1 C-0.67 0.67 -0.34 0.34 0 0 Z " fill="#4FB582" transform="translate(28,2)"/>
<path d="M0 0 C0.33 0 0.66 0 1 0 C1 1.65 1 3.3 1 5 C-5.4 8.07692308 -5.4 8.07692308 -8.4375 7.6875 C-8.953125 7.460625 -9.46875 7.23375 -10 7 C-10.33 5.68 -10.66 4.36 -11 3 C-7.37 3 -3.74 3 0 3 C0 2.01 0 1.02 0 0 Z " fill="#52B988" transform="translate(34,37)"/>
<path d="M0 0 C-0.33 1.65 -0.66 3.3 -1 5 C-2.98 5 -4.96 5 -7 5 C-7.33 3.68 -7.66 2.36 -8 1 C-5.29120665 -0.35439668 -2.99066732 -0.06501451 0 0 Z " fill="#8EC8A9" transform="translate(30,31)"/>
<path d="M0 0 C2.99332739 0.9977758 3.94766315 1.7522025 6 4 C5.01 5.485 5.01 5.485 4 7 C2.0546875 7.29296875 2.0546875 7.29296875 -0.125 7.1875 C-1.40375 7.125625 -2.6825 7.06375 -4 7 C-3.34 6.21625 -2.68 5.4325 -2 4.625 C0.20201441 2.28487188 0.20201441 2.28487188 0 0 Z " fill="#141614" transform="translate(30,48)"/>
<path d="M0 0 C0.66 0.99 1.32 1.98 2 3 C0.35 3 -1.3 3 -3 3 C-3 3.66 -3 4.32 -3 5 C-4.32 5.33 -5.64 5.66 -7 6 C-7.66 5.01 -8.32 4.02 -9 3 C-5.81237635 0.87491756 -3.73487777 0.4979837 0 0 Z " fill="#51B985" transform="translate(26,9)"/>
<path d="M0 0 C0.33 0.66 0.66 1.32 1 2 C2.65821773 2.37309899 4.32577014 2.70700977 6 3 C7 4 7 4 7.0625 6.5625 C7.041875 7.366875 7.02125 8.17125 7 9 C6.67 8.34 6.34 7.68 6 7 C5.360625 6.855625 4.72125 6.71125 4.0625 6.5625 C2 6 2 6 0 3 C0 2.01 0 1.02 0 0 Z " fill="#6BC296" transform="translate(37,38)"/>
<path d="M0 0 C2.64 0 5.28 0 8 0 C8.33 0.99 8.66 1.98 9 3 C2.25 4.125 2.25 4.125 0 3 C0 2.01 0 1.02 0 0 Z " fill="#4EB786" transform="translate(20,25)"/>
<path d="M0 0 C0.66 0 1.32 0 2 0 C3.85776765 3.13498292 4.20140476 5.37471432 4 9 C1 8 1 8 -0.25 6.1875 C-1.11637742 3.66056586 -0.88492145 2.47778006 0 0 Z " fill="#119340" transform="translate(31,7)"/>
<path d="M0 0 C0.66 0 1.32 0 2 0 C4.3992233 4.64849515 4.19957409 8.91086074 4 14 C1.01520806 9.52281208 0 5.36175907 0 0 Z " fill="#179B5D" transform="translate(21,40)"/>
<path d="M0 0 C2.64 0 5.28 0 8 0 C8.33 0.99 8.66 1.98 9 3 C4.545 3.495 4.545 3.495 0 4 C0 2.68 0 1.36 0 0 Z " fill="#6BC693" transform="translate(21,28)"/>
<path d="M0 0 C3.65316671 1.24976756 4.78065836 1.67098753 7 5 C7.07905064 7.33199388 7.08798769 9.66832622 7 12 C6.67 12 6.34 12 6 12 C5.938125 11.071875 5.87625 10.14375 5.8125 9.1875 C5.33156102 5.8059981 5.33156102 5.8059981 2.4375 4.3125 C1.633125 3.879375 0.82875 3.44625 0 3 C0 2.01 0 1.02 0 0 Z " fill="#12974C" transform="translate(38,43)"/>
<path d="M0 0 C0.33 1.32 0.66 2.64 1 4 C0.278125 3.814375 -0.44375 3.62875 -1.1875 3.4375 C-4.12826973 2.98004693 -6.14103058 3.26483643 -9 4 C-8.67 3.01 -8.34 2.02 -8 1 C-5.07175348 0.02391783 -3.04386724 -0.08226668 0 0 Z " fill="#79C69C" transform="translate(52,34)"/>
<path d="M0 0 C3.63 0.66 7.26 1.32 11 2 C11 2.33 11 2.66 11 3 C7.7 3.33 4.4 3.66 1 4 C0.67 2.68 0.34 1.36 0 0 Z " fill="#14A35D" transform="translate(23,37)"/>
<path d="M0 0 C-0.33 0.66 -0.66 1.32 -1 2 C-3.06640625 2.4140625 -3.06640625 2.4140625 -5.5625 2.625 C-6.38878906 2.69976562 -7.21507812 2.77453125 -8.06640625 2.8515625 C-9.02353516 2.92503906 -9.02353516 2.92503906 -10 3 C-10 2.01 -10 1.02 -10 0 C-6.30458414 -0.95024979 -3.69541586 -0.95024979 0 0 Z " fill="#15A365" transform="translate(53,33)"/>
<path d="M0 0 C0.33 1.32 0.66 2.64 1 4 C-7.03571429 3.0625 -7.03571429 3.0625 -11 2 C-9.5422647 1.664061 -8.08378894 1.33133376 -6.625 1 C-5.40683594 0.7215625 -5.40683594 0.7215625 -4.1640625 0.4375 C-2 0 -2 0 0 0 Z " fill="#C9DECE" transform="translate(50,22)"/>
<path d="M0 0 C0 0.66 0 1.32 0 2 C-1.65 2.66 -3.3 3.32 -5 4 C-5.99 2.68 -6.98 1.36 -8 0 C-4.71303767 -0.79953138 -3.28976808 -1.09658936 0 0 Z " fill="#4EB481" transform="translate(46,12)"/>
<path d="M0 0 C1.98 0.495 1.98 0.495 4 1 C4 1.99 4 2.98 4 4 C2 5 2 5 -1 6 C-0.67 4.02 -0.34 2.04 0 0 Z " fill="#117C33" transform="translate(25,14)"/>
<path d="M0 0 C1.65 0 3.3 0 5 0 C4.01 1.485 4.01 1.485 3 3 C2.83286431 5.62531524 2.83286431 5.62531524 3 8 C2.01 7.34 1.02 6.68 0 6 C-0.1875 2.875 -0.1875 2.875 0 0 Z " fill="#6CC495" transform="translate(36,13)"/>
<path d="M0 0 C1.74627478 2.61941217 2.38722388 4.03824877 3 7 C0 7 0 7 -2 6 C-1.34 4.02 -0.68 2.04 0 0 Z " fill="#197839" transform="translate(26,3)"/>
<path d="M0 0 C0.66 0.33 1.32 0.66 2 1 C2.625 4.0625 2.625 4.0625 3 7 C2.01 7 1.02 7 0 7 C-0.38133299 5.0085944 -0.71325582 3.00720923 -1 1 C-0.67 0.67 -0.34 0.34 0 0 Z " fill="#37A26E" transform="translate(16,11)"/>
<path d="M0 0 C2.31 0 4.62 0 7 0 C7 0.99 7 1.98 7 3 C5.02 3 3.04 3 1 3 C0.67 2.01 0.34 1.02 0 0 Z " fill="#73C59B" transform="translate(23,40)"/>
<path d="M0 0 C2 2 2 2 2.125 4.625 C2.08375 5.40875 2.0425 6.1925 2 7 C1.01 7 0.02 7 -1 7 C-0.67 4.69 -0.34 2.38 0 0 Z " fill="#38AD78" transform="translate(21,33)"/>
<path d="M0 0 C2 3 2 3 2 7 C0.68 6.67 -0.64 6.34 -2 6 C-1.34 4.02 -0.68 2.04 0 0 Z " fill="#4CB686" transform="translate(31,24)"/>
</svg>
