<?xml version="1.0" encoding="UTF-8"?>
<svg version="1.1" xmlns="http://www.w3.org/2000/svg" width="62" height="62">
<path d="M0 0 C3.25 1.75 3.25 1.75 6 4 C7.2065625 4.928125 7.2065625 4.928125 8.4375 5.875 C9.7059375 6.926875 9.7059375 6.926875 11 8 C11.56976563 8.43054687 12.13953125 8.86109375 12.7265625 9.3046875 C18.42573778 13.7912723 21.48091739 18.90495214 23 26 C22.9261412 44.09540686 22.9261412 44.09540686 19 51 C15.68593372 54.01278753 13.84231254 54.92738685 9.375 55.3125 C6 55 6 55 3.875 54.4375 C1.91601819 53.81718822 1.91601819 53.81718822 -0.3125 54.6875 C-3.60795086 55.07069196 -5.4720051 54.17823862 -8.23828125 52.4140625 C-16.56537801 45.73022874 -21.1214546 34.24661129 -23 24 C-23.44973332 18.78309347 -22.93398556 15.40097834 -20 11 C-19.319375 10.835 -18.63875 10.67 -17.9375 10.5 C-17.298125 10.335 -16.65875 10.17 -16 10 C-15.690625 9.071875 -15.38125 8.14375 -15.0625 7.1875 C-12.61956383 -0.14130851 -6.96434718 -1.23262782 0 0 Z " fill="#21A5A0" transform="translate(33,3)"/>
<path d="M0 0 C4.27240116 4.7471124 6.13024241 11.15284795 6.25 17.5 C4.6875 20.375 4.6875 20.375 2.25 22.5 C-1 23.3125 -1 23.3125 -3.75 23.5 C-4.41 22.18 -5.07 20.86 -5.75 19.5 C-6.41 19.83 -7.07 20.16 -7.75 20.5 C-9.3125 19.25 -9.3125 19.25 -10.75 17.5 C-10.5540625 16.93023437 -10.358125 16.36046875 -10.15625 15.7734375 C-9.541009 12.33045424 -11.05056653 10.39645996 -12.6875 7.375 C-15.75 1.66856492 -15.75 1.66856492 -15.75 -0.5 C-4.8248503 -2.63173653 -4.8248503 -2.63173653 0 0 Z " fill="#1FA1A0" transform="translate(40.75,23.5)"/>
<path d="M0 0 C4.46012127 -0.39645522 4.46012127 -0.39645522 6.80859375 1.328125 C15.33493573 11.38798173 19.04402694 22.38784826 22 35 C22.33132114 36.33383477 22.66353219 37.6674542 23 39 C23.66 39 24.32 39 25 39 C24.11721782 42.8842416 23.33480634 44.70412463 20.3125 47.375 C15.98996159 49.49549054 12.52703627 49.66892137 7.875 48.4375 C5.37703091 47.85464055 3.45920181 48.38519955 1 49 C1.64453125 48.79632813 2.2890625 48.59265625 2.953125 48.3828125 C5.31153872 47.1332065 5.31153872 47.1332065 5.609375 44.1796875 C5.65578125 43.08914062 5.7021875 41.99859375 5.75 40.875 C5.80671875 39.77929688 5.8634375 38.68359375 5.921875 37.5546875 C5.94765625 36.71164063 5.9734375 35.86859375 6 35 C6.66 35.66 7.32 36.32 8 37 C11.00293071 37.06948565 11.00293071 37.06948565 14 36 C16.15986606 33.27606178 17.04367754 31.7817159 16.84765625 28.2734375 C13.98998641 17.72422845 10.30007497 9.10005868 1.5390625 2.2421875 C1.03117187 1.83226562 0.52328125 1.42234375 0 1 C0 0.67 0 0.34 0 0 Z " fill="#333237" transform="translate(29,9)"/>
<path d="M0 0 C3.13925841 0.16549632 4.67364644 0.72773483 7.09765625 2.75 C11.38056025 7.65447854 15.36013618 12.56966784 17 19 C16.67 19.99 16.34 20.98 16 22 C14.35 19.03 12.7 16.06 11 13 C10.01 13.495 10.01 13.495 9 14 C10.31061591 18.23429756 11.94356259 22.07407404 14 26 C13.34 26 12.68 26 12 26 C12 26.99 12 27.98 12 29 C12.99 29 13.98 29 15 29 C15.33 28.34 15.66 27.68 16 27 C16.66 27.66 17.32 28.32 18 29 C17.625 31.625 17.625 31.625 17 34 C15.125 34.625 15.125 34.625 13 35 C12.34 34.34 11.68 33.68 11 33 C11.33 32.34 11.66 31.68 12 31 C11.236875 30.896875 10.47375 30.79375 9.6875 30.6875 C6.63025639 29.90541443 5.95161014 29.41289981 4 27 C2.578125 24.00390625 2.578125 24.00390625 1.25 20.5625 C0.80140625 19.42941406 0.3528125 18.29632813 -0.109375 17.12890625 C-0.98585565 14.04969133 -1.13208226 12.89891584 0 10 C0.185625 9.2575 0.37125 8.515 0.5625 7.75 C0.7790625 6.88375 0.7790625 6.88375 1 6 C-0.32 6.99 -1.64 7.98 -3 9 C-2.25 2.25 -2.25 2.25 0 0 Z " fill="#0F110E" transform="translate(15,18)"/>
<path d="M0 0 C0.99 0 1.98 0 3 0 C3 1.65 3 3.3 3 5 C3.99 4.67 4.98 4.34 6 4 C5.5978125 5.5778125 5.5978125 5.5778125 5.1875 7.1875 C4.37269808 13.50221491 7.07768001 19.50844239 10 25 C12.36669259 27.17140558 13.92962453 27.97654151 17 29 C17.33 29.99 17.66 30.98 18 32 C18.99 32 19.98 32 21 32 C21.33 30.35 21.66 28.7 22 27 C21.34 27 20.68 27 20 27 C19.01 27 18.02 27 17 27 C17.3403125 26.195625 17.3403125 26.195625 17.6875 25.375 C18.14582161 21.89175578 16.69434151 20.02560983 15 17 C11.93150685 11.52054795 11.93150685 11.52054795 12.3125 8.625 C12.539375 8.08875 12.76625 7.5525 13 7 C13.33 7.99 13.66 8.98 14 10 C14.66 9.34 15.32 8.68 16 8 C16.67595315 9.41225926 17.34040059 10.83002905 18 12.25 C18.37125 13.03890625 18.7425 13.8278125 19.125 14.640625 C20 17 20 17 20 21 C21.98 21.66 23.96 22.32 26 23 C25.34 27.29 24.68 31.58 24 36 C20.875 36.8125 20.875 36.8125 17 37 C8.37596828 31.89598123 4.01210218 21.19077331 1 12 C0.04206838 7.93190078 -0.08198985 4.18148234 0 0 Z " fill="#24908C" transform="translate(10,20)"/>
<path d="M0 0 C2.475 0.99 2.475 0.99 5 2 C5 2.66 5 3.32 5 4 C5.763125 4 6.52625 4 7.3125 4 C10 5 10 5 11.875 8 C13.96256919 14.40344258 14.02069833 25.95860333 11 32 C10.34 32 9.68 32 9 32 C6.25662443 25.96769121 4.63105968 19.96760351 3.0625 13.5234375 C2.07169103 10.23774011 0.77400592 7.8987359 -1 5 C-0.6875 2.1875 -0.6875 2.1875 0 0 Z " fill="#36A7A3" transform="translate(43,16)"/>
<path d="M0 0 C0.66 0.66 1.32 1.32 2 2 C3.96690374 2.67292501 3.96690374 2.67292501 6.125 3.125 C7.40375 3.41375 8.6825 3.7025 10 4 C10.33 5.32 10.66 6.64 11 8 C9.68 8.33 8.36 8.66 7 9 C7.66 10.32 8.32 11.64 9 13 C9.33 12.67 9.66 12.34 10 12 C11.69141656 12.08963062 13.37959602 12.24577676 15.0625 12.4375 C15.98160156 12.53933594 16.90070312 12.64117187 17.84765625 12.74609375 C18.55792969 12.82988281 19.26820312 12.91367187 20 13 C20.33 12.34 20.66 11.68 21 11 C22.5625 13.375 22.5625 13.375 24 16 C23.67 16.66 23.34 17.32 23 18 C22.64550781 17.49210937 22.29101562 16.98421875 21.92578125 16.4609375 C19.98490621 14.67007761 19.98490621 14.67007761 16.85546875 15.1015625 C15.64503906 15.27429687 14.43460938 15.44703125 13.1875 15.625 C6.54944476 16.29289468 6.54944476 16.29289468 3.9921875 14.9296875 C3.52039062 14.45789062 3.04859375 13.98609375 2.5625 13.5 C1.716875 12.675 0.87125 11.85 0 11 C-3.78673743 11.0508054 -3.78673743 11.0508054 -7 12 C-6.25 7.25 -6.25 7.25 -4 5 C-3.01 5 -2.02 5 -1 5 C-0.67 3.35 -0.34 1.7 0 0 Z " fill="#1CA7A1" transform="translate(18,8)"/>
<path d="M0 0 C1.32 0 2.64 0 4 0 C3.45276317 3.37462715 2.9451 5.08235 1 8 C1.45375 7.54625 1.9075 7.0925 2.375 6.625 C3.58333333 5.41666667 4.79166667 4.20833333 6 3 C5.93993922 4.45947705 5.8511311 5.91779272 5.75 7.375 C5.68039063 8.59316406 5.68039063 8.59316406 5.609375 9.8359375 C5 12 5 12 3.171875 13.27734375 C-0.55343987 14.51688197 -4.34130236 14.43906702 -8.125 13.4375 C-10.62296909 12.85464055 -12.54079819 13.38519955 -15 14 C-14.38125 13.7525 -13.7625 13.505 -13.125 13.25 C-10.61104784 11.77120461 -10.1465949 10.62078835 -9 8 C-8.34 7.34 -7.68 6.68 -7 6 C-6.01 6.33 -5.02 6.66 -4 7 C-2.08895362 5.08895362 -1.17661659 2.40439042 0 0 Z " fill="#2B2E31" transform="translate(45,44)"/>
<path d="M0 0 C5.77268023 -0.46181442 8.46025696 0.44715762 13 4 C14.2065625 4.928125 14.2065625 4.928125 15.4375 5.875 C16.283125 6.57625 17.12875 7.2775 18 8 C18.60457031 8.48855469 19.20914063 8.97710937 19.83203125 9.48046875 C20.46496094 10.00253906 21.09789063 10.52460938 21.75 11.0625 C22.34296875 11.54847656 22.9359375 12.03445313 23.546875 12.53515625 C25 14 25 14 26 17 C24.68 17 23.36 17 22 17 C21.67 16.34 21.34 15.68 21 15 C17.2236068 14.7018576 17.2236068 14.7018576 15 16 C14.64808594 15.46890625 14.29617187 14.9378125 13.93359375 14.390625 C10.44550283 9.39983172 7.4923591 6.63633237 2 4 C2 3.01 2 2.02 2 1 C1.34 0.67 0.68 0.34 0 0 Z " fill="#29A9A9" transform="translate(26,3)"/>
<path d="M0 0 C0.99 1.485 0.99 1.485 2 3 C2.66 2.34 3.32 1.68 4 1 C4.67595315 2.41225926 5.34040059 3.83002905 6 5.25 C6.37125 6.03890625 6.7425 6.8278125 7.125 7.640625 C8 10 8 10 8 14 C9.98 14.66 11.96 15.32 14 16 C13.34 20.29 12.68 24.58 12 29 C8.75 29.75 8.75 29.75 5 30 C2.5625 28.0625 2.5625 28.0625 1 26 C3.64 26.66 6.28 27.32 9 28 C9.33 25.36 9.66 22.72 10 20 C9.34 20 8.68 20 8 20 C7.01 20 6.02 20 5 20 C5.22558594 19.46375 5.45117188 18.9275 5.68359375 18.375 C6.14632268 14.90167669 4.73315767 13.03067151 3.0625 10 C0 4.4191344 0 4.4191344 0 0 Z " fill="#286662" transform="translate(22,27)"/>
<path d="M0 0 C2.80022965 1.40011482 3.59666964 3.12517321 4.875 5.9375 C5.0625 8.75 5.0625 8.75 4.875 10.9375 C4.215 10.9375 3.555 10.9375 2.875 10.9375 C2.875 11.5975 2.875 12.2575 2.875 12.9375 C0.565 12.9375 -1.745 12.9375 -4.125 12.9375 C-4.63115298 11.66910474 -5.12969099 10.39766898 -5.625 9.125 C-5.9034375 8.41730469 -6.181875 7.70960937 -6.46875 6.98046875 C-7.125 4.9375 -7.125 4.9375 -7.125 1.9375 C-4.65255385 0.76995599 -2.75862072 -0.0811359 0 0 Z " fill="#F4F9F4" transform="translate(38.125,23.0625)"/>
<path d="M0 0 C1.2065625 0.0309375 1.2065625 0.0309375 2.4375 0.0625 C3.0975 1.3825 3.7575 2.7025 4.4375 4.0625 C3.7775 4.0625 3.1175 4.0625 2.4375 4.0625 C2.4375 5.0525 2.4375 6.0425 2.4375 7.0625 C3.4275 7.0625 4.4175 7.0625 5.4375 7.0625 C5.7675 6.4025 6.0975 5.7425 6.4375 5.0625 C7.0975 5.7225 7.7575 6.3825 8.4375 7.0625 C8.0625 9.6875 8.0625 9.6875 7.4375 12.0625 C5.5625 12.6875 5.5625 12.6875 3.4375 13.0625 C2.7775 12.4025 2.1175 11.7425 1.4375 11.0625 C1.7675 10.4025 2.0975 9.7425 2.4375 9.0625 C1.65375 8.93875 0.87 8.815 0.0625 8.6875 C-2.5625 8.0625 -2.5625 8.0625 -4.5625 6.0625 C-3.83457637 0.09352625 -3.83457637 0.09352625 0 0 Z " fill="#1C1E1C" transform="translate(24.5625,39.9375)"/>
<path d="M0 0 C2.97 0.99 5.94 1.98 9 3 C9.33 4.98 9.66 6.96 10 9 C9.34 9 8.68 9 8 9 C7.67 10.32 7.34 11.64 7 13 C4 12 4 12 2.83203125 10.0390625 C2.49558594 9.24242187 2.15914062 8.44578125 1.8125 7.625 C1.46832031 6.83351563 1.12414063 6.04203125 0.76953125 5.2265625 C0 3 0 3 0 0 Z " fill="#B8CEC9" transform="translate(44,18)"/>
<path d="M0 0 C2.78799769 -0.4745528 4.29594622 -0.66621615 7 0 C10.29535144 2.37765863 13.15278158 5.10758763 16 8 C15.67 8.66 15.34 9.32 15 10 C12.36 10 9.72 10 7 10 C6.67 10.66 6.34 11.32 6 12 C5.01 10.35 4.02 8.7 3 7 C4.32 6.34 5.64 5.68 7 5 C7 4.01 7 3.02 7 2 C4.69 1.67 2.38 1.34 0 1 C0 0.67 0 0.34 0 0 Z " fill="#1C6361" transform="translate(21,10)"/>
<path d="M0 0 C2.475 0.99 2.475 0.99 5 2 C4.67 2.66 4.34 3.32 4 4 C3.01 3.34 2.02 2.68 1 2 C2.65 5.96 4.3 9.92 6 14 C6.66 14 7.32 14 8 14 C8.33 13.01 8.66 12.02 9 11 C9.66 11 10.32 11 11 11 C11.33 10.34 11.66 9.68 12 9 C12.33 11.97 12.66 14.94 13 18 C12.01 18 11.02 18 10 18 C9.67 18.66 9.34 19.32 9 20 C8.34 19.67 7.68 19.34 7 19 C7 18.01 7 17.02 7 16 C6.01 16 5.02 16 4 16 C3.35089846 14.41800369 2.70585306 12.83434276 2.0625 11.25 C1.70285156 10.36828125 1.34320313 9.4865625 0.97265625 8.578125 C0.1401654 6.37152274 -0.60110667 4.32267001 -1 2 C-0.67 1.34 -0.34 0.68 0 0 Z " fill="#3AB3AE" transform="translate(43,16)"/>
<path d="M0 0 C4.09416511 2.8994514 6.17980728 5.56625501 8.375 10.0625 C8.89835937 11.10535156 9.42171875 12.14820313 9.9609375 13.22265625 C11 16 11 16 10 19 C8.35 16.03 6.7 13.06 5 10 C4.01 10.495 4.01 10.495 3 11 C2.34 9.68 1.68 8.36 1 7 C-0.32 7 -1.64 7 -3 7 C-3 5.35 -3 3.7 -3 2 C-2.34 2 -1.68 2 -1 2 C-0.67 1.34 -0.34 0.68 0 0 Z " fill="#324744" transform="translate(21,21)"/>
<path d="M0 0 C1.32 0 2.64 0 4 0 C3.58565093 4.83407252 1.62206046 6.89537674 -2 10 C-5 11 -5 11 -8 11 C-8.99 11.7734375 -8.99 11.7734375 -10 12.5625 C-10.66 13.036875 -11.32 13.51125 -12 14 C-12.99 13.67 -13.98 13.34 -15 13 C-14.071875 12.87625 -14.071875 12.87625 -13.125 12.75 C-10.83647371 12.20051917 -10.83647371 12.20051917 -9.875 10.0625 C-9.58625 9.381875 -9.2975 8.70125 -9 8 C-8.34 7.34 -7.68 6.68 -7 6 C-6.01 6.33 -5.02 6.66 -4 7 C-2.08895362 5.08895362 -1.17661659 2.40439042 0 0 Z " fill="#171917" transform="translate(45,44)"/>
<path d="M0 0 C1.99097846 2.98646769 2.94124926 5.59687262 4 9 C3.21625 9.268125 2.4325 9.53625 1.625 9.8125 C-1.28114923 10.84814432 -1.28114923 10.84814432 -3 14 C-4.32 10.7 -5.64 7.4 -7 4 C-5.02 3.67 -3.04 3.34 -1 3 C-0.67 2.01 -0.34 1.02 0 0 Z " fill="#1F2120" transform="translate(22,31)"/>
<path d="M0 0 C0.66 0.66 1.32 1.32 2 2 C3.96690374 2.67292501 3.96690374 2.67292501 6.125 3.125 C7.40375 3.41375 8.6825 3.7025 10 4 C10.33 5.32 10.66 6.64 11 8 C8.50907189 9.24546405 7.58919267 8.7767578 5 8 C5 8.66 5 9.32 5 10 C4.34 10 3.68 10 3 10 C2.67 9.34 2.34 8.68 2 8 C0.68 8 -0.64 8 -2 8 C-2.33 7.01 -2.66 6.02 -3 5 C-2.34 5 -1.68 5 -1 5 C-0.67 3.35 -0.34 1.7 0 0 Z " fill="#1EA9A7" transform="translate(18,8)"/>
<path d="M0 0 C-2.35953094 2.35953094 -3.77895617 2.49141413 -7 3 C-6.34 5.31 -5.68 7.62 -5 10 C-6.32 10 -7.64 10 -9 10 C-13 3.25 -13 3.25 -13 1 C-8.60563789 0.14256349 -4.47427924 -0.08948558 0 0 Z " fill="#37AAA6" transform="translate(38,22)"/>
<path d="M0 0 C3.6528046 3.6528046 4.40523922 8.98701628 5 14 C3.5625 17.6875 3.5625 17.6875 1 20 C-2.25 20.875 -2.25 20.875 -5 21 C-5.33 19.68 -5.66 18.36 -6 17 C-2.04 16.505 -2.04 16.505 2 16 C1.34 10.72 0.68 5.44 0 0 Z " fill="#1F9B97" transform="translate(42,26)"/>
<path d="M0 0 C0.66 0.66 1.32 1.32 2 2 C1.7578125 4.8203125 1.7578125 4.8203125 1.125 8.125 C0.92132813 9.22070312 0.71765625 10.31640625 0.5078125 11.4453125 C0.34023438 12.28835937 0.17265625 13.13140625 0 14 C-3.25 14.75 -3.25 14.75 -7 15 C-9.4375 13.0625 -9.4375 13.0625 -11 11 C-8.36 11.66 -5.72 12.32 -3 13 C-2.86722656 12.22914062 -2.73445313 11.45828125 -2.59765625 10.6640625 C-2.42105469 9.66117188 -2.24445312 8.65828125 -2.0625 7.625 C-1.80146484 6.12839844 -1.80146484 6.12839844 -1.53515625 4.6015625 C-1 2 -1 2 0 0 Z " fill="#15957E" transform="translate(34,42)"/>
<path d="M0 0 C1.2065625 0.0309375 1.2065625 0.0309375 2.4375 0.0625 C3.0975 1.3825 3.7575 2.7025 4.4375 4.0625 C3.7775 4.0625 3.1175 4.0625 2.4375 4.0625 C2.1075 4.7225 1.7775 5.3825 1.4375 6.0625 C1.4375 5.4025 1.4375 4.7425 1.4375 4.0625 C0.7775 4.0625 0.1175 4.0625 -0.5625 4.0625 C-0.2325 5.3825 0.0975 6.7025 0.4375 8.0625 C-0.5525 8.0625 -1.5425 8.0625 -2.5625 8.0625 C-3.2225 7.4025 -3.8825 6.7425 -4.5625 6.0625 C-3.83457637 0.09352625 -3.83457637 0.09352625 0 0 Z " fill="#141614" transform="translate(24.5625,39.9375)"/>
<path d="M0 0 C4.56609638 1.92790736 6.89955414 3.44903397 9 8 C9 8.66 9 9.32 9 10 C5.55729549 8.46990911 2.81074178 6.5068778 0 4 C-0.33 3.01 -0.66 2.02 -1 1 C-0.67 0.67 -0.34 0.34 0 0 Z " fill="#17A09A" transform="translate(32,3)"/>
<path d="M0 0 C0.66 0 1.32 0 2 0 C2.33 1.32 2.66 2.64 3 4 C3.66 4 4.32 4 5 4 C4.39816251 6.02045442 3.72693904 8.02111039 3 10 C2.01 10.495 2.01 10.495 1 11 C1 9.02 1 7.04 1 5 C0.01 6.485 0.01 6.485 -1 8 C-1.66 8 -2.32 8 -3 8 C-2.5359375 7.13375 -2.5359375 7.13375 -2.0625 6.25 C-1.07416636 4.15705816 -0.4831387 2.25464725 0 0 Z " fill="#333B4A" transform="translate(49,44)"/>
<path d="M0 0 C2.67576692 1.00617682 3.7785108 1.54214546 5.046875 4.1640625 C5.27890625 4.97617187 5.5109375 5.78828125 5.75 6.625 C5.99234375 7.44226563 6.2346875 8.25953125 6.484375 9.1015625 C6.73960938 10.04128906 6.73960938 10.04128906 7 11 C6.01 11 5.02 11 4 11 C3.32591692 9.73308493 2.66099503 8.46129251 2 7.1875 C1.62875 6.47980469 1.2575 5.77210937 0.875 5.04296875 C0 3 0 3 0 0 Z " fill="#EDF2EC" transform="translate(44,18)"/>
<path d="M0 0 C2.625 0.375 2.625 0.375 5 1 C2.375 5.875 2.375 5.875 -1 7 C-1.66 7.66 -2.32 8.32 -3 9 C-2.25 2.25 -2.25 2.25 0 0 Z " fill="#2D2E2F" transform="translate(15,18)"/>
<path d="M0 0 C1.98 0 3.96 0 6 0 C6.226875 0.556875 6.45375 1.11375 6.6875 1.6875 C8.35896766 4.63246684 10.55276352 6.68156544 13 9 C9.06764531 9 7.97035951 7.45054659 5 5 C4.01 4.67 3.02 4.34 2 4 C2 3.01 2 2.02 2 1 C1.34 0.67 0.68 0.34 0 0 Z " fill="#35B0AC" transform="translate(26,3)"/>
<path d="M0 0 C5.875 4.625 5.875 4.625 7 8 C5.68 8 4.36 8 3 8 C2.67 7.34 2.34 6.68 2 6 C1.01 5.67 0.02 5.34 -1 5 C-0.67 3.35 -0.34 1.7 0 0 Z " fill="#07B8B6" transform="translate(45,12)"/>
<path d="M0 0 C-2.6465335 2.6465335 -5.56221264 3.59941997 -9 5 C-9 4.34 -9 3.68 -9 3 C-10.32 2.34 -11.64 1.68 -13 1 C-8.60563789 0.14256349 -4.47427924 -0.08948558 0 0 Z " fill="#55BAB4" transform="translate(38,22)"/>
<path d="M0 0 C0.99 0.33 1.98 0.66 3 1 C3 1.66 3 2.32 3 3 C1.35546875 4.32421875 1.35546875 4.32421875 -0.8125 5.6875 C-1.52019531 6.14511719 -2.22789063 6.60273437 -2.95703125 7.07421875 C-5 8 -5 8 -8 7 C-7.38125 6.9175 -6.7625 6.835 -6.125 6.75 C-3.83647371 6.20051917 -3.83647371 6.20051917 -2.875 4.0625 C-2.58625 3.381875 -2.2975 2.70125 -2 2 C-1.34 1.34 -0.68 0.68 0 0 Z " fill="#1E1F1D" transform="translate(38,50)"/>
<path d="M0 0 C0.99 0.33 1.98 0.66 3 1 C3.33 1.99 3.66 2.98 4 4 C4.99 4.33 5.98 4.66 7 5 C7 5.66 7 6.32 7 7 C1.25 6.125 1.25 6.125 -1 5 C-0.67 3.35 -0.34 1.7 0 0 Z " fill="#23A8A1" transform="translate(24,48)"/>
<path d="M0 0 C0.33 0.99 0.66 1.98 1 3 C3.31 3 5.62 3 8 3 C8 2.34 8 1.68 8 1 C8.99 1 9.98 1 11 1 C10.67 1.99 10.34 2.98 10 4 C8.35 4 6.7 4 5 4 C4.67 4.66 4.34 5.32 4 6 C2.0625 5.6875 2.0625 5.6875 0 5 C-0.33 4.01 -0.66 3.02 -1 2 C-0.67 1.34 -0.34 0.68 0 0 Z " fill="#30B3B0" transform="translate(33,33)"/>
<path d="M0 0 C3.32637022 2.69277589 4.58473125 6.03724749 6 10 C5.67 10.99 5.34 11.98 5 13 C4.15615325 11.58957044 3.32530504 10.17135868 2.5 8.75 C2.0359375 7.96109375 1.571875 7.1721875 1.09375 6.359375 C0 4 0 4 0 0 Z " fill="#1E211F" transform="translate(26,27)"/>
<path d="M0 0 C3.36720387 1.39332574 4.9859524 2.9789286 7 6 C6.01 7.485 6.01 7.485 5 9 C4.16094435 7.87926138 3.32892169 6.75325453 2.5 5.625 C2.0359375 4.99851562 1.571875 4.37203125 1.09375 3.7265625 C0 2 0 2 0 0 Z " fill="#1E8A8B" transform="translate(17,44)"/>
<path d="M0 0 C0.66 0.66 1.32 1.32 2 2 C5.08347826 2.16681109 5.08347826 2.16681109 8 2 C7.67 2.66 7.34 3.32 7 4 C5.35 4 3.7 4 2 4 C1.87625 4.804375 1.7525 5.60875 1.625 6.4375 C1.41875 7.283125 1.2125 8.12875 1 9 C0.01 9.495 0.01 9.495 -1 10 C-0.67 6.7 -0.34 3.4 0 0 Z " fill="#28414A" transform="translate(35,44)"/>
<path d="M0 0 C0 0.99 0 1.98 0 3 C-2.35438733 4.42944945 -3.48032433 5.08661261 -6.25 4.625 C-6.8275 4.41875 -7.405 4.2125 -8 4 C-8 3.34 -8 2.68 -8 2 C-2.25 0 -2.25 0 0 0 Z " fill="#88C7B7" transform="translate(44,39)"/>
<path d="M0 0 C0.33 0 0.66 0 1 0 C1 1.65 1 3.3 1 5 C0.34 5 -0.32 5 -1 5 C-1 5.66 -1 6.32 -1 7 C-3.31 7 -5.62 7 -8 7 C-7.67 6.34 -7.34 5.68 -7 5 C-5.125 4.4375 -5.125 4.4375 -3 4 C-2.01 3.67 -1.02 3.34 0 3 C0 2.01 0 1.02 0 0 Z " fill="#B4CCC6" transform="translate(42,29)"/>
<path d="M0 0 C0.99 0.99 1.98 1.98 3 3 C2 4 2 4 -1.0625 4.0625 C-2.031875 4.041875 -3.00125 4.02125 -4 4 C-4.33 4.66 -4.66 5.32 -5 6 C-5.66 4.68 -6.32 3.36 -7 2 C-4.69 2.33 -2.38 2.66 0 3 C0 2.01 0 1.02 0 0 Z " fill="#0C827E" transform="translate(32,16)"/>
<path d="M0 0 C2.50037734 2.17424117 3.43628586 3.73045798 4 7 C3.46375 6.525625 2.9275 6.05125 2.375 5.5625 C-0.42842836 3.71813924 -2.69620258 3.37543153 -6 3 C-5.34 2.34 -4.68 1.68 -4 1 C-1.875 1.375 -1.875 1.375 0 2 C0 1.34 0 0.68 0 0 Z " fill="#18ACAD" transform="translate(38,19)"/>
<path d="M0 0 C1.64666203 0.1135629 3.29236082 0.24117381 4.9375 0.375 C5.85402344 0.44460937 6.77054688 0.51421875 7.71484375 0.5859375 C8.84599609 0.79089844 8.84599609 0.79089844 10 1 C10.33 1.66 10.66 2.32 11 3 C7.75 3.75 7.75 3.75 4 4 C1.5625 2.0625 1.5625 2.0625 0 0 Z " fill="#215D60" transform="translate(23,53)"/>
<path d="M0 0 C0.99 0.33 1.98 0.66 3 1 C4.1875 4.0625 4.1875 4.0625 5 7 C4.01 7 3.02 7 2 7 C0.5393715 4.35261084 0 3.10551666 0 0 Z " fill="#20A39E" transform="translate(14,37)"/>
<path d="M0 0 C1.74627478 2.61941217 2.38722388 4.03824877 3 7 C2.01 7.33 1.02 7.66 0 8 C-0.38063221 5.6739143 -0.71269945 3.33944736 -1 1 C-0.67 0.67 -0.34 0.34 0 0 Z " fill="#353948" transform="translate(45,26)"/>
<path d="M0 0 C2.25 -0.3125 2.25 -0.3125 5 0 C7.3125 2.5 7.3125 2.5 9 5 C5.22454612 3.90931332 2.52956528 3.0916909 0 0 Z " fill="#2F2E31" transform="translate(29,9)"/>
<path d="M0 0 C2.3125 0.1875 2.3125 0.1875 4 1 C4 1.66 4 2.32 4 3 C1.03 3.66 -1.94 4.32 -5 5 C-2.75 2.4375 -2.75 2.4375 0 0 Z " fill="#179594" transform="translate(24,3)"/>
<path d="M0 0 C1.65 0.33 3.3 0.66 5 1 C4.34 2.32 3.68 3.64 3 5 C1.68 5 0.36 5 -1 5 C-1.33 4.01 -1.66 3.02 -2 2 C-1.34 2 -0.68 2 0 2 C0 1.34 0 0.68 0 0 Z " fill="#38B3AC" transform="translate(17,11)"/>
<path d="M0 0 C0.33 0.99 0.66 1.98 1 3 C-0.98 3.66 -2.96 4.32 -5 5 C-5 3.68 -5 2.36 -5 1 C-3.35 0.67 -1.7 0.34 0 0 Z " fill="#23A9A8" transform="translate(43,36)"/>
</svg>
