<?xml version="1.0" encoding="UTF-8"?>
<svg version="1.1" xmlns="http://www.w3.org/2000/svg" width="62" height="62">
<path d="M0 0 C10.78618408 6.07948557 17.71433904 15.22786942 21.4375 26.9375 C22.90960317 32.82591266 22.55139891 38.25916068 20.4375 43.9375 C17.71878517 48.0122323 15.15348159 51.36550614 10.4375 52.9375 C-7.16651497 55.09422225 -7.16651497 55.09422225 -12.9375 51.28125 C-13.741875 50.61609375 -13.741875 50.61609375 -14.5625 49.9375 C-15.160625 49.4734375 -15.75875 49.009375 -16.375 48.53125 C-23.87314499 41.93805355 -28.09663641 32.34312431 -28.8125 22.5 C-28.52835002 18.45086274 -27.59138221 16.43557278 -25.5625 12.9375 C-25.2221875 12.21175781 -24.881875 11.48601563 -24.53125 10.73828125 C-19.32082585 0.08859676 -11.33604778 -3.38092653 0 0 Z " fill="#01C7C8" transform="translate(36.5625,4.0625)"/>
<path d="M0 0 C3.69815705 1.11968423 5.59847529 2.89128967 8.2578125 5.68359375 C8.5878125 6.67359375 8.9178125 7.66359375 9.2578125 8.68359375 C10.25234814 9.68902841 11.25283747 10.68859366 12.2578125 11.68359375 C13.42578125 13.5859375 13.42578125 13.5859375 14.4453125 15.62109375 C14.78949219 16.29011719 15.13367188 16.95914063 15.48828125 17.6484375 C16.2578125 19.68359375 16.2578125 19.68359375 16.2578125 23.68359375 C9.76933793 22.51566833 7.09928676 19.94627277 3.2578125 14.68359375 C3.2578125 15.34359375 3.2578125 16.00359375 3.2578125 16.68359375 C2.2678125 16.35359375 1.2778125 16.02359375 0.2578125 15.68359375 C-0.0721875 14.69359375 -0.4021875 13.70359375 -0.7421875 12.68359375 C-0.4470568 15.93003141 -0.17186569 18.11641854 1.8203125 20.74609375 C5.95542533 24.03297831 10.22652724 27.00649866 15.2578125 28.68359375 C13.3828125 32.55859375 13.3828125 32.55859375 12.2578125 33.68359375 C10.59164135 33.72423207 8.92393155 33.72631475 7.2578125 33.68359375 C6.9278125 32.69359375 6.5978125 31.70359375 6.2578125 30.68359375 C6.9178125 30.68359375 7.5778125 30.68359375 8.2578125 30.68359375 C7.9278125 29.69359375 7.5978125 28.70359375 7.2578125 27.68359375 C4.2878125 28.01359375 1.3178125 28.34359375 -1.7421875 28.68359375 C-2.87542213 26.98071177 -3.99840985 25.27100852 -5.1171875 23.55859375 C-5.74367188 22.60726562 -6.37015625 21.6559375 -7.015625 20.67578125 C-10.31258823 14.96203954 -11.36972579 10.16815606 -10.7421875 3.68359375 C-8.1094287 -1.00958498 -4.85614784 -0.77730419 0 0 Z " fill="#28362D" transform="translate(21.7421875,19.31640625)"/>
<path d="M0 0 C3.98481322 1.32827107 4.31677934 2.87186837 6.1875 6.5625 C8.70243579 11.76003396 9.65836034 15.29421038 9 21 C8.34 21 7.68 21 7 21 C6.67 19.02 6.34 17.04 6 15 C6.05220703 15.87011719 6.05220703 15.87011719 6.10546875 16.7578125 C6.28744524 22.009134 5.83377711 25.39511219 3 30 C2.34 30 1.68 30 1 30 C0.67 28.02 0.34 26.04 0 24 C-0.66 24 -1.32 24 -2 24 C-2.33 25.32 -2.66 26.64 -3 28 C-3.33 26.68 -3.66 25.36 -4 24 C-5.98 23.67 -7.96 23.34 -10 23 C-6.25 21.875 -6.25 21.875 -4 23 C-4.34227572 20.02934491 -4.34227572 20.02934491 -5 17 C-5.66 16.67 -6.32 16.34 -7 16 C-7.71727778 14.35448038 -8.38325228 12.68577711 -9 11 C-9.33 10.34 -9.66 9.68 -10 9 C-10.99 9.495 -10.99 9.495 -12 10 C-12.309375 9.05125 -12.61875 8.1025 -12.9375 7.125 C-13.87394742 4.13919592 -13.87394742 4.13919592 -15 2 C-14.360625 2.20625 -13.72125 2.4125 -13.0625 2.625 C-8.81699155 3.14485818 -5.0727903 2.22856898 -1 1 C-0.67 0.67 -0.34 0.34 0 0 Z " fill="#06BABA" transform="translate(42,20)"/>
<path d="M0 0 C10.78618408 6.07948557 17.71433904 15.22786942 21.4375 26.9375 C22.95112197 32.99198787 21.88477795 37.99289553 20.4375 43.9375 C20.1075 43.9375 19.7775 43.9375 19.4375 43.9375 C17.4375 35.9375 15.4375 27.9375 13.4375 19.9375 C12.7775 19.9375 12.1175 19.9375 11.4375 19.9375 C11.086875 19.091875 10.73625 18.24625 10.375 17.375 C7.07793248 11.52536409 3.21822564 7.27558986 -3.1875 4.9375 C-6.66931532 3.96967337 -9.07360589 3.7745353 -12.5625 4.9375 C-14.22916667 5.27083333 -15.89583333 5.60416667 -17.5625 5.9375 C-17.5625 6.5975 -17.5625 7.2575 -17.5625 7.9375 C-15.9125 8.2675 -14.2625 8.5975 -12.5625 8.9375 C-12.5625 9.2675 -12.5625 9.5975 -12.5625 9.9375 C-15.8625 10.2675 -19.1625 10.5975 -22.5625 10.9375 C-22.30166266 7.11188563 -22.04830286 5.41017306 -19.25 2.6875 C-12.71647748 -1.56688676 -7.54861564 -2.25134151 0 0 Z " fill="#02D0D2" transform="translate(36.5625,4.0625)"/>
<path d="M0 0 C3.23696067 -0.56646812 5.28552851 -0.48452664 8.0390625 1.3828125 C11.73769027 4.58274888 15.27631567 7.9144735 18 12 C18 12.99 18 13.98 18 15 C18.66 15 19.32 15 20 15 C21.01540138 17.82861813 22.0123739 20.66168714 23 23.5 C23.28617188 24.29148437 23.57234375 25.08296875 23.8671875 25.8984375 C25.67544214 31.15098668 26.55784525 35.43954252 26 41 C24.79296875 43.05859375 24.79296875 43.05859375 23.1875 44.4375 C22.66542969 44.91058594 22.14335938 45.38367187 21.60546875 45.87109375 C17.7676678 48.56969344 13.20584684 48.43521288 8.6875 48.75 C7.94048828 48.81832031 7.19347656 48.88664062 6.42382812 48.95703125 C1.43601464 49.29860232 -1.61615059 48.70418692 -6 46 C-5.01 45.505 -5.01 45.505 -4 45 C-3.34 45.33 -2.68 45.66 -2 46 C1.67329964 46.13357453 4.49852959 46.1671568 8 45 C9.01754868 43.1346755 9.01754868 43.1346755 9.6875 40.9375 C9.93886719 40.20402344 10.19023438 39.47054687 10.44921875 38.71484375 C10.63097656 38.14894531 10.81273438 37.58304688 11 37 C11.66 37.33 12.32 37.66 13 38 C13 38.99 13 39.98 13 41 C15.18675699 40.15054284 15.18675699 40.15054284 16.1171875 37.86328125 C17.15384946 34.50101037 17.19595073 31.69956107 17.125 28.1875 C17.09792969 26.44533203 17.09792969 26.44533203 17.0703125 24.66796875 C17.04710938 23.78753906 17.02390625 22.90710938 17 22 C19.4294516 25.6441774 19.16179575 27.71241272 19 32 C19.66 32 20.32 32 21 32 C19.71433886 21.7812106 15.42718198 12.25034432 8 5 C5.41300691 3.45747515 2.77370447 2.17004903 0 1 C0 0.67 0 0.34 0 0 Z " fill="#2D3131" transform="translate(30,9)"/>
<path d="M0 0 C1.33333333 2 2.66666667 4 4 6 C3.67 4.02 3.34 2.04 3 0 C5.21016098 2.21016098 6.47547692 4.60343586 7.98046875 7.3203125 C9.10057 9.16569004 10.44085477 10.51881203 12 12 C12 12.66 12 13.32 12 14 C14.97 14.495 14.97 14.495 18 15 C18.33 15.99 18.66 16.98 19 18 C19.33 17.01 19.66 16.02 20 15 C20.66 15 21.32 15 22 15 C21.60304363 16.62992692 21.18167507 18.25392235 20.75 19.875 C20.51796875 20.77992187 20.2859375 21.68484375 20.046875 22.6171875 C19 25 19 25 17.09765625 26.30078125 C12.19851183 27.93382939 7.43237861 27.36312384 2.77734375 25.19921875 C-0.78862353 22.7931705 -3.37159955 19.36339389 -6 16 C-4.33333333 16 -2.66666667 16 -1 16 C-0.67 16.66 -0.34 17.32 0 18 C2.97 17.67 5.94 17.34 9 17 C10 21 10 21 9 24 C13.82442184 22.73053486 13.82442184 22.73053486 17 19 C16.28199219 18.90332031 15.56398438 18.80664062 14.82421875 18.70703125 C11.57657833 17.89399817 9.54014634 16.61459658 6.8125 14.6875 C5.95269531 14.09324219 5.09289062 13.49898437 4.20703125 12.88671875 C1.96541676 10.97043592 0.97219137 9.75543743 0 7 C-0.0777346 4.66796188 -0.08967728 2.33160941 0 0 Z " fill="#0B95A8" transform="translate(20,29)"/>
<path d="M0 0 C2 2 2 2 2.875 5.875 C4.40266655 12.29814345 8.74169061 14.62872566 14.09765625 17.94921875 C16.11772319 19.14028869 16.11772319 19.14028869 19 20 C17.125 23.875 17.125 23.875 16 25 C14.33382885 25.04063832 12.66611905 25.042721 11 25 C10.67 24.01 10.34 23.02 10 22 C10.66 22 11.32 22 12 22 C11.67 21.01 11.34 20.02 11 19 C8.03 19.33 5.06 19.66 2 20 C0.81940783 18.2803109 -0.34398979 16.54880898 -1.5 14.8125 C-2.1496875 13.84957031 -2.799375 12.88664062 -3.46875 11.89453125 C-5.05122341 8.90317208 -5.33964475 7.31760144 -5 4 C-3.35 3.34 -1.7 2.68 0 2 C0 1.34 0 0.68 0 0 Z " fill="#171918" transform="translate(18,28)"/>
<path d="M0 0 C6.46042831 2.78466738 9.67631728 8.78359207 12.3125 15.0625 C15.20044628 23.0013314 14.97209526 28.89974094 13 37 C12.67 37 12.34 37 12 37 C10 29 8 21 6 13 C5.34 13 4.68 13 4 13 C1.65167242 8.50754724 0 5.07851026 0 0 Z " fill="#0FD3DD" transform="translate(44,11)"/>
<path d="M0 0 C1.9375 0.8125 1.9375 0.8125 4 2 C4.33 2.99 4.66 3.98 5 5 C5.99453564 6.00543466 6.99502497 7.00499991 8 8 C9.16796875 9.90234375 9.16796875 9.90234375 10.1875 11.9375 C10.53167969 12.60652344 10.87585937 13.27554688 11.23046875 13.96484375 C12 16 12 16 12 20 C6.42657477 18.99678346 3.65114634 17.36123673 0.1640625 12.8671875 C-1.50117919 10.19609513 -2 8.1402557 -2 5 C-1.0625 2.125 -1.0625 2.125 0 0 Z " fill="#162118" transform="translate(26,23)"/>
<path d="M0 0 C1.125 3.75 1.125 3.75 0 6 C1.32 6.66 2.64 7.32 4 8 C-0.03950619 12.42422106 -4.60941468 12.35267375 -10.3125 12.75 C-11.43301758 12.85248047 -11.43301758 12.85248047 -12.57617188 12.95703125 C-17.56398536 13.29860232 -20.61615059 12.70418692 -25 10 C-24.34 9.67 -23.68 9.34 -23 9 C-22.34 9.33 -21.68 9.66 -21 10 C-17.32670036 10.13357453 -14.50147041 10.1671568 -11 9 C-9.98245132 7.1346755 -9.98245132 7.1346755 -9.3125 4.9375 C-9.06113281 4.20402344 -8.80976562 3.47054687 -8.55078125 2.71484375 C-8.36902344 2.14894531 -8.18726562 1.58304688 -8 1 C-7.34 1.33 -6.68 1.66 -6 2 C-6 2.99 -6 3.98 -6 5 C-4.02 3.35 -2.04 1.7 0 0 Z " fill="#29282A" transform="translate(49,45)"/>
<path d="M0 0 C0.33 0.66 0.66 1.32 1 2 C1.66 1.67 2.32 1.34 3 1 C7.53113746 0.85143812 11.57882704 0.89470676 16 2 C16 2.99 16 3.98 16 5 C15.13375 4.67 14.2675 4.34 13.375 4 C9.37741711 2.815531 5.94375543 1.96333044 2.125 4 C0.28751986 7.26663135 0.42117194 10.40877646 1 14 C2.10658918 17.12234789 3.52466202 20.03806192 5 23 C5.67834587 24.66194738 6.35199575 26.32598903 7 28 C6.34 28.33 5.68 28.66 5 29 C5 28.34 5 27.68 5 27 C4.01 27 3.02 27 2 27 C-1.35734564 19.83245745 -3.56594613 14.06473231 -3 6 C-1.5 2.5625 -1.5 2.5625 0 0 Z " fill="#05B8BA" transform="translate(11,17)"/>
<path d="M0 0 C1.15822266 0.82757813 1.15822266 0.82757813 2.33984375 1.671875 C4.96895327 3.74473531 7.24582339 5.90267726 9.5 8.375 C8.84 9.695 8.18 11.015 7.5 12.375 C6.72076172 11.65183594 6.72076172 11.65183594 5.92578125 10.9140625 C-1.34148866 4.33187718 -5.76749124 3.03483465 -15.5 3.375 C-15.17 2.385 -14.84 1.395 -14.5 0.375 C-9.1153299 -2.31733505 -5.08712657 -3.63622076 0 0 Z " fill="#167273" transform="translate(33.5,9.625)"/>
<path d="M0 0 C2 3 2 3 4 6 C3.67 4.02 3.34 2.04 3 0 C5.21016098 2.21016098 6.47547692 4.60343586 7.98046875 7.3203125 C9.10057 9.16569004 10.44085477 10.51881203 12 12 C12 12.66 12 13.32 12 14 C14.97 14.495 14.97 14.495 18 15 C18 15.99 18 16.98 18 18 C11.62167351 16.94837628 5.24669455 14.51101156 0.875 9.625 C-0.2278552 6.31643441 -0.2036861 3.46266377 0 0 Z " fill="#1E717C" transform="translate(20,29)"/>
<path d="M0 0 C3 5.75 3 5.75 3 8 C0 10 0 10 -2.046875 9.87890625 C-4.6403158 8.71185789 -5.10906394 7.50460613 -6.25 4.9375 C-6.58515625 4.20402344 -6.9203125 3.47054688 -7.265625 2.71484375 C-7.50796875 2.14894531 -7.7503125 1.58304688 -8 1 C-5.07175348 0.02391783 -3.04386724 -0.08226668 0 0 Z " fill="#D5E2DB" transform="translate(43,24)"/>
<path d="M0 0 C4.84255237 2.06937704 7.39872516 5.51421025 10 10 C10.71184793 12.44783838 10.89294335 14.4306405 11 17 C7.23255791 15.74418597 6.82751263 14.08118234 5.05078125 10.69921875 C4.03337338 8.80162315 4.03337338 8.80162315 1.75 7.4375 C0.88375 6.7259375 0.88375 6.7259375 0 6 C-0.25 2.8125 -0.25 2.8125 0 0 Z " fill="#1ADEE4" transform="translate(44,11)"/>
<path d="M0 0 C3.23696067 -0.56646812 5.28552851 -0.48452664 8.0390625 1.3828125 C11.73769027 4.58274888 15.27631567 7.9144735 18 12 C18 12.99 18 13.98 18 15 C18.66 15 19.32 15 20 15 C20.33 16.32 20.66 17.64 21 19 C19.18359375 18.80078125 19.18359375 18.80078125 17 18 C15.47265625 15.85546875 15.47265625 15.85546875 14.0625 13.1875 C10.44952277 6.83083329 6.60729382 4.07315992 0 1 C0 0.67 0 0.34 0 0 Z " fill="#384370" transform="translate(30,9)"/>
<path d="M0 0 C2.4375 0.375 2.4375 0.375 5 1 C5.33 1.66 5.66 2.32 6 3 C10.455 2.505 10.455 2.505 15 2 C16 6 16 6 15 8 C12.03 7.505 12.03 7.505 9 7 C9.33 7.99 9.66 8.98 10 10 C6.82028869 8.62442924 4.95149011 7.10041354 2.75 4.4375 C1.96882812 3.50744141 1.96882812 3.50744141 1.171875 2.55859375 C0 1 0 1 0 0 Z " fill="#1197A8" transform="translate(14,44)"/>
<path d="M0 0 C1.875 0.1875 1.875 0.1875 4 1 C6.53124675 5.17655714 6.16019214 9.27433194 6 14 C5.34 14 4.68 14 4 14 C3.67 12.02 3.34 10.04 3 8 C3 8.99 3 9.98 3 11 C1.02 11.66 -0.96 12.32 -3 13 C-3 10 -3 10 -1 7 C-0.34 7 0.32 7 1 7 C0.67 4.69 0.34 2.38 0 0 Z " fill="#03B6BA" transform="translate(45,27)"/>
<path d="M0 0 C1.32 0.66 2.64 1.32 4 2 C3.835 3.093125 3.67 4.18625 3.5 5.3125 C2.93281816 8.87525873 2.93281816 8.87525873 3 12 C4.9375006 14.18777466 4.9375006 14.18777466 7 16 C3 16 3 16 0.8125 13.875 C-1.18513531 10.7063371 -1.84460512 8.72947703 -2 5 C-1.0625 2.125 -1.0625 2.125 0 0 Z " fill="#101211" transform="translate(26,23)"/>
<path d="M0 0 C2.61382886 3.92074329 2.29386386 7.44511017 2 12 C0 14 0 14 -3.125 14.125 C-4.548125 14.063125 -4.548125 14.063125 -6 14 C-5.65066406 13.32453125 -5.30132812 12.6490625 -4.94140625 11.953125 C-4.48636719 11.06109375 -4.03132813 10.1690625 -3.5625 9.25 C-3.11003906 8.36828125 -2.65757813 7.4865625 -2.19140625 6.578125 C-1.16544602 4.35801434 -0.48491397 2.38555381 0 0 Z " fill="#2E374A" transform="translate(54,38)"/>
<path d="M0 0 C3 1 3 1 4.25 2.875 C5 5 5 5 4 8 C3.01 7.34 2.02 6.68 1 6 C1 5.34 1 4.68 1 4 C-1.97 4.66 -4.94 5.32 -8 6 C-8.66 5.01 -9.32 4.02 -10 3 C-9.04287109 2.80083984 -9.04287109 2.80083984 -8.06640625 2.59765625 C-7.24011719 2.42105469 -6.41382813 2.24445312 -5.5625 2.0625 C-4.73878906 1.88847656 -3.91507813 1.71445312 -3.06640625 1.53515625 C-1.02338796 1.19247006 -1.02338796 1.19247006 0 0 Z " fill="#22E6EE" transform="translate(42,20)"/>
<path d="M0 0 C5.29397231 0.30542148 8.13397287 1.36827755 12 5 C11.34 6.32 10.68 7.64 10 9 C9.54109375 8.59007812 9.0821875 8.18015625 8.609375 7.7578125 C7.68898438 6.94957031 7.68898438 6.94957031 6.75 6.125 C6.14671875 5.59132813 5.5434375 5.05765625 4.921875 4.5078125 C3.02581254 3.0202513 1.18709995 1.99677564 -1 1 C-0.67 0.67 -0.34 0.34 0 0 Z " fill="#00B7C0" transform="translate(33,7)"/>
<path d="M0 0 C3.31529273 0.98562757 4.74949379 1.65447419 6.8125 4.5 C8 7 8 7 8 9 C2.25 7.25 2.25 7.25 0 5 C-0.125 2.375 -0.125 2.375 0 0 Z " fill="#21524D" transform="translate(28,27)"/>
<path d="M0 0 C0.99 0.33 1.98 0.66 3 1 C3 1.66 3 2.32 3 3 C3.66 3.66 4.32 4.32 5 5 C4.01 6.485 4.01 6.485 3 8 C0.375 8.1875 0.375 8.1875 -2 8 C-1.47731534 5.23723823 -0.89130413 2.6739124 0 0 Z " fill="#0D130E" transform="translate(22,40)"/>
<path d="M0 0 C1.32 1.65 2.64 3.3 4 5 C5.98 4.67 7.96 4.34 10 4 C10 4.66 10 5.32 10 6 C9.34 6 8.68 6 8 6 C7.896875 6.639375 7.79375 7.27875 7.6875 7.9375 C7.460625 8.618125 7.23375 9.29875 7 10 C6.01 10.33 5.02 10.66 4 11 C0 4.5 0 4.5 0 0 Z " fill="#08D6DD" transform="translate(36,28)"/>
<path d="M0 0 C1.32 0.66 2.64 1.32 4 2 C2.515 4.475 2.515 4.475 1 7 C-0.875 6.6875 -0.875 6.6875 -3 6 C-3.66 5.01 -4.32 4.02 -5 3 C-3.35 2.67 -1.7 2.34 0 2 C0 1.34 0 0.68 0 0 Z " fill="#02B7BB" transform="translate(32,14)"/>
<path d="M0 0 C0.99 0.33 1.98 0.66 3 1 C2.01 1.495 2.01 1.495 1 2 C1 2.66 1 3.32 1 4 C2.65 4.33 4.3 4.66 6 5 C6 5.33 6 5.66 6 6 C2.7 6.33 -0.6 6.66 -4 7 C-4 5.68 -4 4.36 -4 3 C-2.1875 1.1875 -2.1875 1.1875 0 0 Z " fill="#0BDBE1" transform="translate(18,8)"/>
<path d="M0 0 C0 3 0 3 -1 5 C-5.57139965 6.2799919 -9.15662859 6.34030776 -13.5625 4.5625 C-14.366875 4.046875 -15.17125 3.53125 -16 3 C-15.34 2.67 -14.68 2.34 -14 2 C-13.34 2.33 -12.68 2.66 -12 3 C-6.97381517 3.3793347 -4.10111964 2.98263247 0 0 Z " fill="#282935" transform="translate(40,52)"/>
<path d="M0 0 C0.26218749 3.14624993 0.24754367 4.61837017 -1.5 7.3125 C-2.2425 8.1478125 -2.2425 8.1478125 -3 9 C-6 4.375 -6 4.375 -6 1 C-1.125 0 -1.125 0 0 0 Z " fill="#1D1E1D" transform="translate(22,38)"/>
<path d="M0 0 C-0.33 1.65 -0.66 3.3 -1 5 C-6.75 3.25 -6.75 3.25 -9 1 C-3.375 -1.125 -3.375 -1.125 0 0 Z " fill="#176662" transform="translate(30,47)"/>
<path d="M0 0 C-0.35049575 3.24208567 -0.56221181 4.61527704 -3.0625 6.8125 C-3.701875 7.204375 -4.34125 7.59625 -5 8 C-5.66 5.69 -6.32 3.38 -7 1 C-4.50935112 0.31292445 -2.62113708 0 0 0 Z " fill="#11E6F1" transform="translate(48,38)"/>
<path d="M0 0 C2.64 0.33 5.28 0.66 8 1 C8 1.66 8 2.32 8 3 C7.34 3 6.68 3 6 3 C6 3.66 6 4.32 6 5 C4.35 5.33 2.7 5.66 1 6 C0.67 4.02 0.34 2.04 0 0 Z " fill="#117960" transform="translate(12,25)"/>
<path d="M0 0 C3.18141867 -0.46557346 5.25343123 -0.50963377 7.95703125 1.3359375 C9.6935608 2.84258024 11.369718 4.37936464 13 6 C12.01 6.33 11.02 6.66 10 7 C8.28125 6.07421875 8.28125 6.07421875 6.5 4.6875 C5.9121875 4.23761719 5.324375 3.78773437 4.71875 3.32421875 C4.1515625 2.88722656 3.584375 2.45023438 3 2 C2.01 1.34 1.02 0.68 0 0 Z " fill="#2C312D" transform="translate(30,9)"/>
<path d="M0 0 C0.75 1.75 0.75 1.75 1 4 C-1.31787009 7.00464642 -3.2273236 8.46104623 -7 9 C-3.375 2.25 -3.375 2.25 0 0 Z " fill="#1A1C1C" transform="translate(49,45)"/>
<path d="M0 0 C2.60018816 3.90028225 2.15085514 7.47434569 2 12 C1.01 12.495 1.01 12.495 0 13 C0 11.68 0 10.36 0 9 C-0.99 9.33 -1.98 9.66 -3 10 C-2.21302675 6.58978257 -1.12880057 3.31114834 0 0 Z " fill="#11845F" transform="translate(54,38)"/>
<path d="M0 0 C1.32 0 2.64 0 4 0 C3.67 2.31 3.34 4.62 3 7 C0.525 6.01 0.525 6.01 -2 5 C-1.34 3.35 -0.68 1.7 0 0 Z " fill="#0C0F0B" transform="translate(16,20)"/>
<path d="M0 0 C3.057952 1.73559438 5.63379989 3.38472619 8 6 C7.34 7.32 6.68 8.64 6 10 C5.401875 9.071875 4.80375 8.14375 4.1875 7.1875 C2.54727155 4.79745282 1.1281083 2.91529747 -1 1 C-0.67 0.67 -0.34 0.34 0 0 Z " fill="#06AEB6" transform="translate(35,12)"/>
<path d="M0 0 C0 0.66 0 1.32 0 2 C0.66 2.33 1.32 2.66 2 3 C0.453125 3.12375 0.453125 3.12375 -1.125 3.25 C-5.52975387 4.10253301 -7.48512937 5.34241489 -11 8 C-9.94434467 4.71573897 -8.38339648 3.42848444 -5.5 1.75 C-2 0 -2 0 0 0 Z " fill="#08B0B4" transform="translate(26,3)"/>
<path d="M0 0 C1.31554985 0.4495045 2.62738358 0.90989716 3.9375 1.375 C5.03384766 1.75785156 5.03384766 1.75785156 6.15234375 2.1484375 C8 3 8 3 9 5 C6.25 5.25 6.25 5.25 3 5 C0.625 3 0.625 3 -1 1 C-0.67 0.67 -0.34 0.34 0 0 Z " fill="#04BFBF" transform="translate(23,50)"/>
<path d="M0 0 C2.5 1.25 2.5 1.25 5 3 C5 4.32 5 5.64 5 7 C5.99 7 6.98 7 8 7 C8 8.32 8 9.64 8 11 C4.50892621 9.83630874 4.14777237 9.11026462 2.3125 6.0625 C1.87550781 5.35222656 1.43851563 4.64195313 0.98828125 3.91015625 C0 2 0 2 0 0 Z " fill="#BDE5E0" transform="translate(47,17)"/>
<path d="M0 0 C2.475 0.495 2.475 0.495 5 1 C5.33 2.32 5.66 3.64 6 5 C4.68 5.33 3.36 5.66 2 6 C1.34 4.02 0.68 2.04 0 0 Z " fill="#EAF1E7" transform="translate(36,26)"/>
<path d="M0 0 C1 3 1 3 -0.4375 6.1875 C-1.2109375 7.5796875 -1.2109375 7.5796875 -2 9 C-2.66 9 -3.32 9 -4 9 C-4.33 7.68 -4.66 6.36 -5 5 C-4.34 5 -3.68 5 -3 5 C-2.67 4.01 -2.34 3.02 -2 2 C-1.34 2 -0.68 2 0 2 C0 1.34 0 0.68 0 0 Z " fill="#08AEB4" transform="translate(47,41)"/>
<path d="M0 0 C3 1 3 1 4.25 2.875 C5 5 5 5 4 8 C2 6.25 2 6.25 0 4 C0 2.68 0 1.36 0 0 Z " fill="#2CD4D8" transform="translate(42,20)"/>
<path d="M0 0 C1.98 0.66 3.96 1.32 6 2 C6 5 6 5 4.5 6.6875 C4.005 7.120625 3.51 7.55375 3 8 C2.690625 7.05125 2.38125 6.1025 2.0625 5.125 C1.12605258 2.13919592 1.12605258 2.13919592 0 0 Z " fill="#02ABB8" transform="translate(27,22)"/>
<path d="M0 0 C1.95582488 2.93373731 3.56224304 5.78216298 5 9 C4.67 9.66 4.34 10.32 4 11 C2 9.4375 2 9.4375 0 7 C-0.25 3.25 -0.25 3.25 0 0 Z " fill="#138D88" transform="translate(20,29)"/>
<path d="M0 0 C1.32 0 2.64 0 4 0 C3.67 1.65 3.34 3.3 3 5 C2.01 5 1.02 5 0 5 C0 3.35 0 1.7 0 0 Z " fill="#0A0D0A" transform="translate(16,32)"/>
<path d="M0 0 C2.1519437 3.22791555 2.20086443 4.28400809 2 8 C1.01 8 0.02 8 -1 8 C-1.93065133 5.39417629 -2.14917407 4.35801776 -1.0625 1.75 C-0.711875 1.1725 -0.36125 0.595 0 0 Z " fill="#04C0C0" transform="translate(56,28)"/>
<path d="M0 0 C0.66 0.33 1.32 0.66 2 1 C2.625 3.5625 2.625 3.5625 3 6 C1.35 6.33 -0.3 6.66 -2 7 C-1.34 4.69 -0.68 2.38 0 0 Z " fill="#24422B" transform="translate(41,46)"/>
<path d="M0 0 C2.00720923 0.28674418 4.0085944 0.61866701 6 1 C6 1.99 6 2.98 6 4 C1.25 3.25 1.25 3.25 -1 1 C-0.67 0.67 -0.34 0.34 0 0 Z " fill="#2C332E" transform="translate(32,43)"/>
<path d="M0 0 C0.99 0.33 1.98 0.66 3 1 C3.125 3.875 3.125 3.875 3 7 C2.34 7.66 1.68 8.32 1 9 C0.67 6.03 0.34 3.06 0 0 Z " fill="#03CBCF" transform="translate(55,39)"/>
</svg>
