<?xml version="1.0" encoding="UTF-8"?>
<svg version="1.1" xmlns="http://www.w3.org/2000/svg" width="62" height="62">
<path d="M0 0 C8.85756754 5.05179311 15.20128141 12.40541559 18.8671875 21.83203125 C20.21134409 28.91940235 20.60592993 35.2456433 16.859375 41.640625 C12.06270831 48.31861904 6.8740492 50.48098067 -1.14453125 52.0625 C-6.84954017 52.74440047 -12.00633475 52.27002383 -17.4453125 50.45703125 C-18.1053125 49.79703125 -18.7653125 49.13703125 -19.4453125 48.45703125 C-20.3321875 47.94140625 -21.2190625 47.42578125 -22.1328125 46.89453125 C-27.38932221 43.44615756 -31.1500101 38.10395355 -33.8828125 32.51953125 C-35.09830813 25.90183284 -35.08915221 19.71875687 -32.4453125 13.45703125 C-31.9915625 12.28140625 -31.5378125 11.10578125 -31.0703125 9.89453125 C-28.13976093 3.69528755 -25.18761489 0.71773645 -18.8671875 -1.8125 C-12.18461934 -3.82804878 -6.31556776 -2.78396523 0 0 Z M-6.4453125 3.45703125 C-6.4453125 4.11703125 -6.4453125 4.77703125 -6.4453125 5.45703125 C-5.7853125 5.12703125 -5.1253125 4.79703125 -4.4453125 4.45703125 C-5.1053125 4.12703125 -5.7653125 3.79703125 -6.4453125 3.45703125 Z M-24.4453125 22.45703125 C-24.1153125 23.11703125 -23.7853125 23.77703125 -23.4453125 24.45703125 C-23.1153125 23.79703125 -22.7853125 23.13703125 -22.4453125 22.45703125 C-23.1053125 22.45703125 -23.7653125 22.45703125 -24.4453125 22.45703125 Z M-28.4453125 23.45703125 C-28.4453125 24.44703125 -28.4453125 25.43703125 -28.4453125 26.45703125 C-27.7853125 25.79703125 -27.1253125 25.13703125 -26.4453125 24.45703125 C-27.1053125 24.12703125 -27.7653125 23.79703125 -28.4453125 23.45703125 Z M-22.4453125 23.45703125 C-22.1153125 24.44703125 -21.7853125 25.43703125 -21.4453125 26.45703125 C-21.1153125 25.46703125 -20.7853125 24.47703125 -20.4453125 23.45703125 C-21.1053125 23.45703125 -21.7653125 23.45703125 -22.4453125 23.45703125 Z M-21.4453125 26.45703125 C-20.7853125 27.11703125 -20.1253125 27.77703125 -19.4453125 28.45703125 C-19.4453125 27.79703125 -19.4453125 27.13703125 -19.4453125 26.45703125 C-20.1053125 26.45703125 -20.7653125 26.45703125 -21.4453125 26.45703125 Z M-5.4453125 26.45703125 C-5.1153125 28.10703125 -4.7853125 29.75703125 -4.4453125 31.45703125 C-3.4553125 31.45703125 -2.4653125 31.45703125 -1.4453125 31.45703125 C-1.4453125 30.46703125 -1.4453125 29.47703125 -1.4453125 28.45703125 C-2.1053125 28.45703125 -2.7653125 28.45703125 -3.4453125 28.45703125 C-3.4453125 27.79703125 -3.4453125 27.13703125 -3.4453125 26.45703125 C-4.1053125 26.45703125 -4.7653125 26.45703125 -5.4453125 26.45703125 Z M9.5546875 26.45703125 C10.5546875 29.45703125 10.5546875 29.45703125 10.5546875 29.45703125 Z M9.5546875 30.45703125 C10.5546875 33.45703125 10.5546875 33.45703125 10.5546875 33.45703125 Z M-14.4453125 31.45703125 C-13.4453125 33.45703125 -13.4453125 33.45703125 -13.4453125 33.45703125 Z M11.5546875 38.45703125 C12.5546875 40.45703125 12.5546875 40.45703125 12.5546875 40.45703125 Z M11.5546875 41.45703125 C12.5546875 43.45703125 12.5546875 43.45703125 12.5546875 43.45703125 Z M8.5546875 43.45703125 C8.5546875 44.44703125 8.5546875 45.43703125 8.5546875 46.45703125 C9.2146875 45.79703125 9.8746875 45.13703125 10.5546875 44.45703125 C9.8946875 44.12703125 9.2346875 43.79703125 8.5546875 43.45703125 Z " fill="#2782F3" transform="translate(41.4453125,5.54296875)"/>
<path d="M0 0 C6.51354079 0.06024858 9.6284364 0.97648705 14.3125 5.4375 C13.3225 4.1175 12.3325 2.7975 11.3125 1.4375 C11.9725 1.1075 12.6325 0.7775 13.3125 0.4375 C14.4850131 1.38867134 15.65037015 2.34867009 16.8125 3.3125 C17.78703125 4.11300781 17.78703125 4.11300781 18.78125 4.9296875 C19.2865625 5.42726563 19.791875 5.92484375 20.3125 6.4375 C20.3125 7.0975 20.3125 7.7575 20.3125 8.4375 C20.9725 8.4375 21.6325 8.4375 22.3125 8.4375 C26.54803548 13.3348379 28.03862238 18.99084215 28.3125 25.4375 C27.6525 26.0975 26.9925 26.7575 26.3125 27.4375 C25.3225 23.4775 24.3325 19.5175 23.3125 15.4375 C22.9825 15.4375 22.6525 15.4375 22.3125 15.4375 C22.3125 17.4175 22.3125 19.3975 22.3125 21.4375 C21.3225 21.7675 20.3325 22.0975 19.3125 22.4375 C18.9825 23.0975 18.6525 23.7575 18.3125 24.4375 C17.57 23.81875 16.8275 23.2 16.0625 22.5625 C13.52686809 20.44479849 13.52686809 20.44479849 11.1875 19.4375 C8.7771302 18.15196944 7.74077372 16.74994317 6.3125 14.4375 C6.19390625 13.76847656 6.0753125 13.09945313 5.953125 12.41015625 C5.63601562 11.43369141 5.63601562 11.43369141 5.3125 10.4375 C-0.46247569 7.7019852 -6.74910017 5.74828003 -13.1875 6.875 C-13.6825 7.060625 -14.1775 7.24625 -14.6875 7.4375 C-14.3575 6.7775 -14.0275 6.1175 -13.6875 5.4375 C-13.0275 5.4375 -12.3675 5.4375 -11.6875 5.4375 C-11.3575 4.7775 -11.0275 4.1175 -10.6875 3.4375 C-10.0275 3.1075 -9.3675 2.7775 -8.6875 2.4375 C-5.87122371 -0.37877629 -3.93096953 0.07101645 0 0 Z " fill="#379FFD" transform="translate(26.6875,12.5625)"/>
<path d="M0 0 C8.85756754 5.05179311 15.20128141 12.40541559 18.8671875 21.83203125 C19.72606367 26.36065106 20.12564347 30.86419429 19.5546875 35.45703125 C18.8946875 36.11703125 18.2346875 36.77703125 17.5546875 37.45703125 C17.0596875 33.99203125 17.0596875 33.99203125 16.5546875 30.45703125 C15.8946875 30.45703125 15.2346875 30.45703125 14.5546875 30.45703125 C14.40773437 29.68359375 14.26078125 28.91015625 14.109375 28.11328125 C12.10490434 18.80516463 8.74813661 11.78277317 0.5546875 6.45703125 C-4.4536403 4.370228 -8.27174142 3.73250756 -13.4453125 5.45703125 C-15.46487061 5.45703125 -17.48456728 5.4555321 -19.50390625 5.42578125 C-21.61033219 5.4596875 -23.44632917 5.79070347 -25.4453125 6.45703125 C-25.4453125 4.20703125 -25.4453125 4.20703125 -24.4453125 1.45703125 C-17.00976836 -4.48002313 -8.2589911 -3.64064561 0 0 Z " fill="#3AAAFE" transform="translate(41.4453125,5.54296875)"/>
<path d="M0 0 C0 0.66 0 1.32 0 2 C1.485 1.7834375 1.485 1.7834375 3 1.5625 C7.61826413 1.55313232 10.00102017 3.98441881 13.20703125 7.06640625 C17.95146107 12.18294822 20.86404291 17.32915847 21.125 24.375 C21.08375 25.24125 21.0425 26.1075 21 27 C21.66 27 22.32 27 23 27 C24.15626962 29.94323175 24.90501609 31.89719236 25 35 C22.56131601 40.33822165 18.21667013 44.44087881 13 47 C7.3920067 48.45858122 1.80622215 49.31384985 -4 49 C-3.67 48.01 -3.34 47.02 -3 46 C-2.37351562 45.97421875 -1.74703125 45.9484375 -1.1015625 45.921875 C-0.28429688 45.86515625 0.53296875 45.8084375 1.375 45.75 C2.18710937 45.70359375 2.99921875 45.6571875 3.8359375 45.609375 C6.166345 45.21899471 6.166345 45.21899471 7.1640625 43.078125 C7.43992187 42.39234375 7.71578125 41.7065625 8 41 C9.33333333 39.66666667 10.66666667 38.33333333 12 37 C12.33 37.66 12.66 38.32 13 39 C15.40990104 32.11175931 15.40990104 32.11175931 17 25 C17.66 25.99 18.32 26.98 19 28 C18.74279326 26.41439607 18.46861201 24.83154076 18.1875 23.25 C18.03667969 22.36828125 17.88585937 21.4865625 17.73046875 20.578125 C16.94333232 17.79999644 15.77635698 16.23869646 14 14 C14 13.34 14 12.68 14 12 C13.34 12 12.68 12 12 12 C10.33333333 10 8.66666667 8 7 6 C6.34 6 5.68 6 5 6 C5.99 7.32 6.98 8.64 8 10 C4.00499382 8.6302836 1.19990508 6.74277578 -2 4 C-2.99 4.495 -2.99 4.495 -4 5 C-4.99 4.34 -5.98 3.68 -7 3 C-4.49955934 -0.00052879 -4.2621484 0 0 0 Z M18 35 C19 37 19 37 19 37 Z M18 38 C19 40 19 40 19 40 Z M15 40 C15 40.99 15 41.98 15 43 C15.66 42.34 16.32 41.68 17 41 C16.34 40.67 15.68 40.34 15 40 Z " fill="#344363" transform="translate(35,9)"/>
<path d="M0 0 C-0.33 2.97 -0.66 5.94 -1 9 C-1.66 9 -2.32 9 -3 9 C-2.649375 9.721875 -2.29875 10.44375 -1.9375 11.1875 C-1 14 -1 14 -1.5625 16.5625 C-2.27366581 19.06813674 -2.27366581 19.06813674 -0.75 21.3125 C0.95474193 23.34706779 0.95474193 23.34706779 4 23 C6.05123653 23.94348457 7.9910873 25.0297363 9.96484375 26.125 C12.24324482 27.26332207 12.24324482 27.26332207 16 27 C15.01 26.34 14.02 25.68 13 25 C14 24 14 24 16.5625 23.9375 C17.7690625 23.9684375 17.7690625 23.9684375 19 24 C19.75 25.75 19.75 25.75 20 28 C17.81228945 31.06279477 16.43885938 31.89872476 12.75 32.75 C11.8425 32.8325 10.935 32.915 10 33 C9.67 32.01 9.34 31.02 9 30 C8.1028125 30.2475 8.1028125 30.2475 7.1875 30.5 C3.31499245 31.38514458 2.13808449 31.08182785 -1.375 29 C-5.29744002 26.07690776 -8.05969639 22.49757012 -10 18 C-10 16.68 -10 15.36 -10 14 C-9.01 14 -8.02 14 -7 14 C-7.28875 13.4225 -7.5775 12.845 -7.875 12.25 C-8.431875 11.13625 -8.431875 11.13625 -9 10 C-9.61875 9.01 -9.61875 9.01 -10.25 8 C-11 6 -11 6 -10.375 3.875 C-7.57741182 0.06010703 -4.54058668 -0.25225482 0 0 Z M-5 8 C-4.67 8.66 -4.34 9.32 -4 10 C-3.67 9.34 -3.34 8.68 -3 8 C-3.66 8 -4.32 8 -5 8 Z " fill="#131516" transform="translate(22,20)"/>
<path d="M0 0 C3.598 3.598 3.598 3.598 4 7 C3.81013915 9.15450789 3.53065509 11.30203846 3.1875 13.4375 C3.01605469 14.54996094 2.84460938 15.66242187 2.66796875 16.80859375 C2.05407008 19.74166516 1.21055354 22.26731584 0 25 C-0.66 24.01 -1.32 23.02 -2 22 C-2.33 22.99 -2.66 23.98 -3 25 C-6.40805369 29.68607383 -10.61958646 30.07599338 -16 31 C-17.423125 31.3403125 -17.423125 31.3403125 -18.875 31.6875 C-21 32 -21 32 -24 31 C-25.33333333 29.66666667 -26.66666667 28.33333333 -28 27 C-26.865625 26.87625 -25.73125 26.7525 -24.5625 26.625 C-23.386875 26.41875 -22.21125 26.2125 -21 26 C-20.67 25.34 -20.34 24.68 -20 24 C-18.68 24.33 -17.36 24.66 -16 25 C-16 25.99 -16 26.98 -16 28 C-13.20866129 27.21791649 -10.55518097 26.38293093 -8 25 C-6.86559222 22.42919865 -6.86559222 22.42919865 -7 20 C-7.61488281 20.04640625 -8.22976562 20.0928125 -8.86328125 20.140625 C-10.07564453 20.19476563 -10.07564453 20.19476563 -11.3125 20.25 C-12.11300781 20.29640625 -12.91351563 20.3428125 -13.73828125 20.390625 C-16 20 -16 20 -17.79296875 17.984375 C-18.19128906 17.32953125 -18.58960938 16.6746875 -19 16 C-17.96939453 16.05220703 -17.96939453 16.05220703 -16.91796875 16.10546875 C-15.56638672 16.14607422 -15.56638672 16.14607422 -14.1875 16.1875 C-13.29417969 16.22230469 -12.40085937 16.25710937 -11.48046875 16.29296875 C-8.95213026 16.20712709 -8.95213026 16.20712709 -7.17578125 14.61328125 C-5.80367139 13.06333239 -5.80367139 13.06333239 -6 11 C-5.38125 10.855625 -4.7625 10.71125 -4.125 10.5625 C-1.96741678 10.06847775 -1.96741678 10.06847775 0 9 C0 6.03 0 3.06 0 0 Z " fill="#1D6AE0" transform="translate(48,25)"/>
<path d="M0 0 C5.75 1.625 5.75 1.625 8 5 C9.47670448 8.30086883 10.38937403 11.4380152 11 15 C11.33 14.67 11.66 14.34 12 14 C12.99 13.34 13.98 12.68 15 12 C16.34771696 14.21976911 17.04398726 15.50147776 16.8125 18.125 C16 20 16 20 13 22 C8.86204464 22.30094221 5.44651205 22.51860496 2 20 C1.67 19.01 1.34 18.02 1 17 C0.34 16.38125 -0.32 15.7625 -1 15.125 C-3.35892076 12.61864669 -3.83735807 11.41548051 -4 8 C-3.1875 4.75 -3.1875 4.75 -2 2 C-1.34 1.67 -0.68 1.34 0 1 C0 0.67 0 0.34 0 0 Z " fill="#343F5D" transform="translate(26,20)"/>
<path d="M0 0 C1.258125 -0.01675781 2.51625 -0.03351562 3.8125 -0.05078125 C4.864375 0.06910156 5.91625 0.18898438 7 0.3125 C9 3.3125 9 3.3125 9 6.3125 C8.34 6.9725 7.68 7.6325 7 8.3125 C10.22071258 12.26768176 10.22071258 12.26768176 13.6875 16 C15 17.3125 15 17.3125 17 20.3125 C16.67 21.3025 16.34 22.2925 16 23.3125 C15.5875 22.85875 15.175 22.405 14.75 21.9375 C13.0906223 20.23093376 13.0906223 20.23093376 11 19.375 C8.51575516 18.05524493 7.47128459 16.69457981 6 14.3125 C5.88140625 13.64347656 5.7628125 12.97445313 5.640625 12.28515625 C5.32351562 11.30869141 5.32351562 11.30869141 5 10.3125 C-0.77497569 7.5769852 -7.06160017 5.62328003 -13.5 6.75 C-13.995 6.935625 -14.49 7.12125 -15 7.3125 C-14.67 6.6525 -14.34 5.9925 -14 5.3125 C-13.34 5.3125 -12.68 5.3125 -12 5.3125 C-11.67 4.6525 -11.34 3.9925 -11 3.3125 C-10.34 2.9825 -9.68 2.6525 -9 2.3125 C-6.12699457 -0.56050543 -3.9965678 0.01228453 0 0 Z " fill="#2C8FF7" transform="translate(27,12.6875)"/>
<path d="M0 0 C6.83156662 3.57766877 10.40573422 10.90637096 12.62109375 17.984375 C13.07367935 20.39194377 13.16922118 22.67563804 13.1875 25.125 C13.20167969 25.99382813 13.21585938 26.86265625 13.23046875 27.7578125 C13 30 13 30 11 32 C10.67 29.69 10.34 27.38 10 25 C9.34 25 8.68 25 8 25 C7.77957031 23.83984375 7.77957031 23.83984375 7.5546875 22.65625 C6.18736623 16.30685007 4.66729922 11.66740062 0.40234375 6.71875 C-1.07306515 4.9104494 -2.03031242 3.11568199 -3 1 C-2.01 0.67 -1.02 0.34 0 0 Z " fill="#50A6F7" transform="translate(48,11)"/>
<path d="M0 0 C0.33 0 0.66 0 1 0 C1.07347656 1.28197266 1.07347656 1.28197266 1.1484375 2.58984375 C1.22320312 3.69457031 1.29796875 4.79929687 1.375 5.9375 C1.44460937 7.03964844 1.51421875 8.14179687 1.5859375 9.27734375 C1.72257812 10.17582031 1.85921875 11.07429688 2 12 C2.66 12.33 3.32 12.66 4 13 C4.33 12.01 4.66 11.02 5 10 C5.33 10.99 5.66 11.98 6 13 C4.92578125 14.75390625 4.92578125 14.75390625 3.3125 16.5625 C2.79300781 17.16191406 2.27351563 17.76132812 1.73828125 18.37890625 C-3.60294731 23.36005198 -11.67992309 23.88745502 -18.6875 24.125 C-19.450625 24.08375 -20.21375 24.0425 -21 24 C-20.505 22.515 -20.505 22.515 -20 21 C-19.37351563 20.97421875 -18.74703125 20.9484375 -18.1015625 20.921875 C-17.28429688 20.86515625 -16.46703125 20.8084375 -15.625 20.75 C-14.81289063 20.70359375 -14.00078125 20.6571875 -13.1640625 20.609375 C-10.833655 20.21899471 -10.833655 20.21899471 -9.8359375 18.078125 C-9.56007813 17.39234375 -9.28421875 16.7065625 -9 16 C-7.66666667 14.66666667 -6.33333333 13.33333333 -5 12 C-4.67 12.66 -4.34 13.32 -4 14 C-1.59009896 7.11175931 -1.59009896 7.11175931 0 0 Z M1 13 C2 15 2 15 2 15 Z M-2 15 C-2 15.99 -2 16.98 -2 18 C-1.34 17.34 -0.68 16.68 0 16 C-0.66 15.67 -1.32 15.34 -2 15 Z " fill="#28282E" transform="translate(52,34)"/>
<path d="M0 0 C2.875 -0.1875 2.875 -0.1875 6 0 C6.66 0.99 7.32 1.98 8 3 C7.34 3.66 6.68 4.32 6 5 C4.82298963 9.41378889 4.87941126 11.96078336 7 16 C9.29347461 19.74600852 11.50268506 23.30207133 15 26 C18.64721696 26.80765878 18.64721696 26.80765878 22 27 C21.34 27.66 20.68 28.32 20 29 C14.80969863 28.64310305 10.27045218 26.92831007 6 24 C5.2575 23.67 4.515 23.34 3.75 23 C2 22 2 22 1 19 C2.4375 15.8125 2.4375 15.8125 4 13 C3.34 13 2.68 13 2 13 C2.14042877 11.35369672 2.28749329 9.70795821 2.4375 8.0625 C2.51871094 7.14597656 2.59992187 6.22945312 2.68359375 5.28515625 C3 3 3 3 4 2 C2.68 1.34 1.36 0.68 0 0 Z " fill="#2F4F87" transform="translate(18,19)"/>
<path d="M0 0 C-0.33 2.97 -0.66 5.94 -1 9 C-1.66 9 -2.32 9 -3 9 C-2.649375 9.721875 -2.29875 10.44375 -1.9375 11.1875 C-1 14 -1 14 -1.5625 16.5 C-2.2832573 19.14189513 -2.2832573 19.14189513 -0.5625 21.8125 C0.2109375 22.8953125 0.2109375 22.8953125 1 24 C-2.875 23.125 -2.875 23.125 -4 22 C-4.07179964 20.48071962 -4.08392007 18.95832518 -4.0625 17.4375 C-4.05347656 16.61121094 -4.04445313 15.78492188 -4.03515625 14.93359375 C-4.02355469 14.29550781 -4.01195312 13.65742187 -4 13 C-4.99 13 -5.98 13 -7 13 C-10.2 8.2 -10.2 8.2 -11 6 C-10.22852759 3.37699379 -9.43709256 2.30144315 -7.1875 0.75 C-4.67678635 -0.11081611 -2.63651351 -0.14647297 0 0 Z M-5 8 C-4.67 8.66 -4.34 9.32 -4 10 C-3.67 9.34 -3.34 8.68 -3 8 C-3.66 8 -4.32 8 -5 8 Z " fill="#1A1C1B" transform="translate(22,20)"/>
<path d="M0 0 C0.9796875 0.00515625 1.959375 0.0103125 2.96875 0.015625 C3.9484375 0.01046875 4.928125 0.0053125 5.9375 0 C8.46875 0.265625 8.46875 0.265625 10.46875 2.265625 C9.80875 2.265625 9.14875 2.265625 8.46875 2.265625 C8.46875 3.255625 8.46875 4.245625 8.46875 5.265625 C3.42865476 5.89283685 -1.4480441 6.265625 -6.53125 6.265625 C-8.79691343 6.70504023 -8.79691343 6.70504023 -10.53125 7.265625 C-10.20125 6.605625 -9.87125 5.945625 -9.53125 5.265625 C-8.87125 5.265625 -8.21125 5.265625 -7.53125 5.265625 C-7.20125 4.605625 -6.87125 3.945625 -6.53125 3.265625 C-5.87125 2.935625 -5.21125 2.605625 -4.53125 2.265625 C-2.53125 0.265625 -2.53125 0.265625 0 0 Z " fill="#33A2FF" transform="translate(22.53125,12.734375)"/>
<path d="M0 0 C0.33 0.66 0.66 1.32 1 2 C0.67 2.99 0.34 3.98 0 5 C0.86625 4.67 1.7325 4.34 2.625 4 C5.95718275 3.01268659 8.55159538 2.83579026 12 3 C11.67 3.99 11.34 4.98 11 6 C8.69 6.33 6.38 6.66 4 7 C3.67 7.99 3.34 8.98 3 10 C1.25 10.625 1.25 10.625 -1 11 C-1.9075 11.185625 -2.815 11.37125 -3.75 11.5625 C-4.4925 11.706875 -5.235 11.85125 -6 12 C-5.43958106 7.23643901 -3.41302403 3.41302403 0 0 Z " fill="#2B93F6" transform="translate(16,7)"/>
<path d="M0 0 C1.2065625 0.0309375 1.2065625 0.0309375 2.4375 0.0625 C3.1875 1.8125 3.1875 1.8125 3.4375 4.0625 C1.24978945 7.12529477 -0.12364062 7.96122476 -3.8125 8.8125 C-4.72 8.895 -5.6275 8.9775 -6.5625 9.0625 C-6.8925 8.0725 -7.2225 7.0825 -7.5625 6.0625 C-8.160625 6.2275 -8.75875 6.3925 -9.375 6.5625 C-11.5625 7.0625 -11.5625 7.0625 -14.5625 7.0625 C-14.8925 6.0725 -15.2225 5.0825 -15.5625 4.0625 C-13.5825 4.0625 -11.6025 4.0625 -9.5625 4.0625 C-9.5625 3.4025 -9.5625 2.7425 -9.5625 2.0625 C-6.5925 2.3925 -3.6225 2.7225 -0.5625 3.0625 C-1.5525 2.4025 -2.5425 1.7425 -3.5625 1.0625 C-2.5625 0.0625 -2.5625 0.0625 0 0 Z " fill="#181817" transform="translate(38.5625,43.9375)"/>
<path d="M0 0 C2 3 2 3 1.75 5.5625 C1 8 1 8 -1 10 C-2.14795006 8.5433323 -3.29329419 7.08461063 -4.4375 5.625 C-5.39462891 4.40683594 -5.39462891 4.40683594 -6.37109375 3.1640625 C-8 1 -8 1 -9 -1 C-5.25055078 -2.04151367 -3.26054893 -2.24865443 0 0 Z " fill="#85B9F2" transform="translate(46,23)"/>
<path d="M0 0 C2.79883656 1.51552722 4.97682414 3.55554588 7 6 C7.9375 9.875 7.9375 9.875 8 13 C-0.36628849 5.94975689 -0.36628849 5.94975689 -3 3 C-3 2.34 -3 1.68 -3 1 C-2.01 0.67 -1.02 0.34 0 0 Z " fill="#6DADFB" transform="translate(48,11)"/>
<path d="M0 0 C0.33 0 0.66 0 1 0 C1 1.98 1 3.96 1 6 C1.66 6 2.32 6 3 6 C3.38922918 7.28745036 3.76098036 8.58019597 4.125 9.875 C4.33382812 10.59429687 4.54265625 11.31359375 4.7578125 12.0546875 C4.83773437 12.69664063 4.91765625 13.33859375 5 14 C4.34 14.66 3.68 15.32 3 16 C1.68 16 0.36 16 -1 16 C-2.49697302 10.31150252 -1.3348044 5.58190932 0 0 Z " fill="#3B438C" transform="translate(55,30)"/>
<path d="M0 0 C1.19109375 0.27457031 1.19109375 0.27457031 2.40625 0.5546875 C4.5 1.125 4.5 1.125 6.5 2.125 C6.5 2.785 6.5 3.445 6.5 4.125 C3.47562661 5.6371867 0.83758466 5.29763369 -2.5 5.125 C-4.9375 4.125 -4.9375 4.125 -6.5 3.125 C-6.5 2.135 -6.5 1.145 -6.5 0.125 C-3.89908727 -1.17545636 -2.7944464 -0.66232009 0 0 Z " fill="#1A1C1A" transform="translate(34.5,36.875)"/>
<path d="M0 0 C4.92980953 2.00844092 8.09403383 5.64105074 11 10 C10.67 10.99 10.34 11.98 10 13 C9.5875 12.54625 9.175 12.0925 8.75 11.625 C7.0906223 9.91843376 7.0906223 9.91843376 5 9.0625 C2.50632058 7.73773281 1.4264868 6.42502756 0 4 C0 2.68 0 1.36 0 0 Z " fill="#1A75EB" transform="translate(33,23)"/>
<path d="M0 0 C0.99 0 1.98 0 3 0 C4.51708428 9.41002278 4.51708428 9.41002278 2 14 C-0.01416086 12.33612799 -0.93853441 11.17494052 -1.8125 8.6875 C-2.04338126 5.37820199 -1.20992935 3.06040952 0 0 Z " fill="#191A19" transform="translate(24,22)"/>
<path d="M0 0 C-0.33 2.97 -0.66 5.94 -1 9 C-2.32 8.67 -3.64 8.34 -5 8 C-5 6.68 -5 5.36 -5 4 C-6.65 4 -8.3 4 -10 4 C-7.16124653 -0.25813021 -4.8137938 -0.13010254 0 0 Z " fill="#202427" transform="translate(22,20)"/>
<path d="M0 0 C0 0.66 0 1.32 0 2 C0.99 2.33 1.98 2.66 3 3 C4.38671875 4.62890625 4.38671875 4.62890625 5.6875 6.5625 C6.34298828 7.52349609 6.34298828 7.52349609 7.01171875 8.50390625 C7.50091797 9.24447266 7.50091797 9.24447266 8 10 C4.00499382 8.6302836 1.19990508 6.74277578 -2 4 C-2.99 4.495 -2.99 4.495 -4 5 C-4.99 4.34 -5.98 3.68 -7 3 C-4.49955934 -0.00052879 -4.2621484 0 0 0 Z " fill="#365E93" transform="translate(35,9)"/>
<path d="M0 0 C1.32 0.33 2.64 0.66 4 1 C4 1.99 4 2.98 4 4 C2.02 4 0.04 4 -2 4 C-2 4.66 -2 5.32 -2 6 C-0.35 6.33 1.3 6.66 3 7 C-0.01031744 7.93423645 -0.86650268 8.04449911 -4 7 C-5.33333333 5.66666667 -6.66666667 4.33333333 -8 3 C-6.865625 2.87625 -5.73125 2.7525 -4.5625 2.625 C-3.386875 2.41875 -2.21125 2.2125 -1 2 C-0.67 1.34 -0.34 0.68 0 0 Z " fill="#304D81" transform="translate(28,49)"/>
<path d="M0 0 C4.875 4.75 4.875 4.75 6 7 C7.32 5.68 8.64 4.36 10 3 C10 4.98 10 6.96 10 9 C9.01 9.33 8.02 9.66 7 10 C6.67 10.66 6.34 11.32 6 12 C2 5.25 2 5.25 2 3 C1.34 3 0.68 3 0 3 C0 2.01 0 1.02 0 0 Z " fill="#49ADFE" transform="translate(39,25)"/>
<path d="M0 0 C3.61290323 3.61290323 3.61290323 3.61290323 4 7 C3.72949547 9.00946222 3.40632091 11.01354224 3 13 C1.35 12.67 -0.3 12.34 -2 12 C-2 11.34 -2 10.68 -2 10 C-1.34 9.67 -0.68 9.34 0 9 C0 6.03 0 3.06 0 0 Z " fill="#2C67B6" transform="translate(48,25)"/>
<path d="M0 0 C2.875 -0.1875 2.875 -0.1875 6 0 C6.66 0.99 7.32 1.98 8 3 C7.34 3.66 6.68 4.32 6 5 C5.59952556 7.32275177 5.2602896 9.65739357 5 12 C4.01 12.33 3.02 12.66 2 13 C2.14042877 11.35369672 2.28749329 9.70795821 2.4375 8.0625 C2.51871094 7.14597656 2.59992187 6.22945312 2.68359375 5.28515625 C3 3 3 3 4 2 C2.68 1.34 1.36 0.68 0 0 Z " fill="#344374" transform="translate(18,19)"/>
<path d="M0 0 C2.475 0.495 2.475 0.495 5 1 C4.34 3.97 3.68 6.94 3 10 C-0.00617269 6.99382731 0.40414684 4.17618402 0 0 Z " fill="#4BA6FD" transform="translate(46,37)"/>
<path d="M0 0 C0.99 0.66 1.98 1.32 3 2 C3.1875 4.625 3.1875 4.625 3 7 C1 8 1 8 -0.9453125 7.44140625 C-1.66460937 7.15136719 -2.38390625 6.86132812 -3.125 6.5625 C-3.84945312 6.27503906 -4.57390625 5.98757812 -5.3203125 5.69140625 C-5.87460937 5.46324219 -6.42890625 5.23507813 -7 5 C-6.01 4.67 -5.02 4.34 -4 4 C-3.34 4.33 -2.68 4.66 -2 5 C-1.67 4.34 -1.34 3.68 -1 3 C-1.33 2.67 -1.66 2.34 -2 2 C-1.34 1.34 -0.68 0.68 0 0 Z " fill="#2B4B88" transform="translate(40,32)"/>
<path d="M0 0 C1.32 0.33 2.64 0.66 4 1 C4.1953125 7.0546875 4.1953125 7.0546875 4 9 C3.34 9.66 2.68 10.32 2 11 C1.664061 9.5422647 1.33133376 8.08378894 1 6.625 C0.814375 5.81289063 0.62875 5.00078125 0.4375 4.1640625 C0 2 0 2 0 0 Z " fill="#53A7FA" transform="translate(57,32)"/>
<path d="M0 0 C4.29 0 8.58 0 13 0 C12.67 0.66 12.34 1.32 12 2 C3.89667897 3.46125461 3.89667897 3.46125461 0 2 C0 1.34 0 0.68 0 0 Z " fill="#278BFA" transform="translate(26,53)"/>
<path d="M0 0 C0.66 0 1.32 0 2 0 C2.99 2.64 3.98 5.28 5 8 C4.34 8.66 3.68 9.32 3 10 C2.67 9.01 2.34 8.02 2 7 C1.34 7.99 0.68 8.98 0 10 C0 6.7 0 3.4 0 0 Z " fill="#32529C" transform="translate(44,40)"/>
<path d="M0 0 C0.80967438 2.91482778 1.21845993 4.46113217 0.0625 7.3125 C-0.4634375 8.1478125 -0.4634375 8.1478125 -1 9 C-1.33 7.68 -1.66 6.36 -2 5 C-3.32 4.67 -4.64 4.34 -6 4 C-6 3.34 -6 2.68 -6 2 C-2.25 0 -2.25 0 0 0 Z " fill="#191B18" transform="translate(18,32)"/>
<path d="M0 0 C3.08031355 2.50328511 3.64066484 4.71098698 4.3125 8.5625 C4.49425781 9.53316406 4.67601562 10.50382812 4.86328125 11.50390625 C4.93095703 12.73947266 4.93095703 12.73947266 5 14 C4.34 14.66 3.68 15.32 3 16 C2.79503906 15.15695313 2.59007812 14.31390625 2.37890625 13.4453125 C2.10949219 12.34960938 1.84007812 11.25390625 1.5625 10.125 C1.29566406 9.03445312 1.02882812 7.94390625 0.75390625 6.8203125 C0.1213522 4.07515279 0.1213522 4.07515279 -1 2 C-0.67 1.34 -0.34 0.68 0 0 Z " fill="#2E95FD" transform="translate(50,24)"/>
<path d="M0 0 C4.92980953 2.00844092 8.09403383 5.64105074 11 10 C7 10 7 10 5.33203125 8.57421875 C4.83058594 7.95160156 4.32914063 7.32898437 3.8125 6.6875 C3.04873047 5.76517578 3.04873047 5.76517578 2.26953125 4.82421875 C1 3 1 3 0 0 Z " fill="#3AA0FE" transform="translate(13,42)"/>
<path d="M0 0 C1.53125 1.81640625 1.53125 1.81640625 3 4 C2.835 4.969375 2.67 5.93875 2.5 6.9375 C1.68239014 10.06614917 1.68239014 10.06614917 3.4375 12.875 C3.953125 13.57625 4.46875 14.2775 5 15 C1.125 14.125 1.125 14.125 0 13 C-0.07258946 10.81360547 -0.08373783 8.62499611 -0.0625 6.4375 C-0.05347656 5.23996094 -0.04445313 4.04242188 -0.03515625 2.80859375 C-0.02355469 1.88175781 -0.01195313 0.95492188 0 0 Z " fill="#243D5C" transform="translate(18,29)"/>
<path d="M0 0 C3.875 4.75 3.875 4.75 5 7 C3.02 7.33 1.04 7.66 -1 8 C-2.2077558 4.37673261 -1.54311128 3.35853631 0 0 Z " fill="#2D5FAE" transform="translate(28,29)"/>
<path d="M0 0 C2 3.75 2 3.75 2 6 C0.68 5.67 -0.64 5.34 -2 5 C-1.67 6.32 -1.34 7.64 -1 9 C-1.66 9 -2.32 9 -3 9 C-3.33 6.36 -3.66 3.72 -4 1 C-2.68 1.33 -1.36 1.66 0 2 C0 1.34 0 0.68 0 0 Z " fill="#238AF9" transform="translate(59,27)"/>
<path d="M0 0 C0.556875 0.28875 1.11375 0.5775 1.6875 0.875 C4.08494645 2.0413253 6.51596939 3.0339881 9 4 C8.34 5.65 7.68 7.3 7 9 C4.04070881 6.24479785 1.96318174 3.53372712 0 0 Z " fill="#CFD7D8" transform="translate(39,24)"/>
<path d="M0 0 C3.68754757 0.49831724 5.60490662 1.10067643 8 4 C4.23375329 5.25541557 2.62811066 4.37061958 -1 3 C-0.67 2.01 -0.34 1.02 0 0 Z " fill="#328EED" transform="translate(37,7)"/>
<path d="M0 0 C0 0.99 0 1.98 0 3 C-2.64 3 -5.28 3 -8 3 C-8 2.34 -8 1.68 -8 1 C-8.66 0.67 -9.32 0.34 -10 0 C-6.30581799 -1.231394 -3.7943739 -0.64432764 0 0 Z " fill="#3199FE" transform="translate(38,4)"/>
<path d="M0 0 C0.66 0 1.32 0 2 0 C2.38922918 1.28745036 2.76098036 2.58019597 3.125 3.875 C3.33382812 4.59429687 3.54265625 5.31359375 3.7578125 6.0546875 C3.83773437 6.69664063 3.91765625 7.33859375 4 8 C3.34 8.66 2.68 9.32 2 10 C0.4375 8.375 0.4375 8.375 -1 6 C-0.6875 2.75 -0.6875 2.75 0 0 Z " fill="#285BB5" transform="translate(56,36)"/>
<path d="M0 0 C0.33 0.66 0.66 1.32 1 2 C1.66 2 2.32 2 3 2 C3.66 3.65 4.32 5.3 5 7 C3.68 7 2.36 7 1 7 C-0.0625 5.1875 -0.0625 5.1875 -1 3 C-0.67 2.01 -0.34 1.02 0 0 Z " fill="#326BCB" transform="translate(20,35)"/>
<path d="M0 0 C1.9375 0.5 1.9375 0.5 4 2 C4.68790422 4.69658452 4.81946464 7.2017019 5 10 C1.55783328 7.3401439 1.00495326 4.09711714 0 0 Z " fill="#1B66D7" transform="translate(7,34)"/>
<path d="M0 0 C2.86724686 0.57344937 3.8614515 0.8614515 6 3 C5.67 3.99 5.34 4.98 5 6 C2.5 4.6875 2.5 4.6875 0 3 C0 2.01 0 1.02 0 0 Z " fill="#363842" transform="translate(31,31)"/>
<path d="M0 0 C0.99 0.33 1.98 0.66 3 1 C3.33 3.31 3.66 5.62 4 8 C2.35 6.35 0.7 4.7 -1 3 C-0.67 2.01 -0.34 1.02 0 0 Z " fill="#BDCFD9" transform="translate(52,16)"/>
<path d="M0 0 C2.50812014 2.50812014 3.87644802 4.62934407 5 8 C3.35 7.67 1.7 7.34 0 7 C0 4.69 0 2.38 0 0 Z " fill="#324B7C" transform="translate(10,26)"/>
<path d="M0 0 C2.97 0.33 5.94 0.66 9 1 C9 1.66 9 2.32 9 3 C7.02 3.33 5.04 3.66 3 4 C2.01 2.68 1.02 1.36 0 0 Z " fill="#2B5FB1" transform="translate(29,41)"/>
<path d="M0 0 C0.33 0 0.66 0 1 0 C1.33 3.3 1.66 6.6 2 10 C0.68 10 -0.64 10 -2 10 C-1.85950482 8.52031676 -1.71245174 7.04125484 -1.5625 5.5625 C-1.48128906 4.73878906 -1.40007813 3.91507813 -1.31640625 3.06640625 C-1 1 -1 1 0 0 Z " fill="#333040" transform="translate(52,34)"/>
<path d="M0 0 C0.99 0.99 1.98 1.98 3 3 C2.34 4.65 1.68 6.3 1 8 C0.01 7.01 -0.98 6.02 -2 5 C-1.34 3.35 -0.68 1.7 0 0 Z " fill="#202020" transform="translate(25,28)"/>
<path d="M0 0 C4.41889613 1.35021826 6.34345343 3.26115668 9 7 C5.07353523 5.69117841 2.72225079 4.1255472 0 1 C0 0.67 0 0.34 0 0 Z " fill="#333F5C" transform="translate(34,12)"/>
<path d="M0 0 C-0.33 0.99 -0.66 1.98 -1 3 C-4.3 3.33 -7.6 3.66 -11 4 C-6.75040461 0.81280346 -5.10723071 0 0 0 Z " fill="#262B38" transform="translate(28,10)"/>
<path d="M0 0 C2.6486859 3.19668988 4.93992341 6.39486597 7 10 C3.21282653 8.51218185 1.22592999 6.38011591 -1 3 C-0.67 2.01 -0.34 1.02 0 0 Z " fill="#2D6DCC" transform="translate(22,31)"/>
<path d="M0 0 C0.99 0 1.98 0 3 0 C3 1.98 3 3.96 3 6 C1.68 5.67 0.36 5.34 -1 5 C-0.67 3.35 -0.34 1.7 0 0 Z " fill="#303137" transform="translate(18,23)"/>
<path d="M0 0 C1.98 0.99 1.98 0.99 4 2 C4 2.66 4 3.32 4 4 C5.32 4.66 6.64 5.32 8 6 C8 6.66 8 7.32 8 8 C3.79373966 6.49776416 2.26099979 3.71449966 0 0 Z " fill="#2C4F93" transform="translate(12,44)"/>
<path d="M0 0 C0.99 0.33 1.98 0.66 3 1 C0.25 5.875 0.25 5.875 -2 7 C-1.125 1.125 -1.125 1.125 0 0 Z " fill="#1E201E" transform="translate(50,44)"/>
<path d="M0 0 C1.65 0 3.3 0 5 0 C5.625 1.875 5.625 1.875 6 4 C5.34 4.66 4.68 5.32 4 6 C4 5.34 4 4.68 4 4 C1.525 3.01 1.525 3.01 -1 2 C-0.67 1.34 -0.34 0.68 0 0 Z " fill="#2C2C39" transform="translate(36,44)"/>
<path d="M0 0 C0.99 0.33 1.98 0.66 3 1 C3 1.66 3 2.32 3 3 C3.66 3 4.32 3 5 3 C5.33 4.65 5.66 6.3 6 8 C1.125 3.375 1.125 3.375 0 0 Z " fill="#A0C5EC" transform="translate(44,18)"/>
<path d="" fill="#2D2B2E" transform="translate(0,0)"/>
<path d="" fill="#383537" transform="translate(0,0)"/>
<path d="" fill="#383537" transform="translate(0,0)"/>
</svg>
