<?xml version="1.0" encoding="UTF-8"?>
<svg version="1.1" xmlns="http://www.w3.org/2000/svg" width="62" height="62">
<path d="M0 0 C3.68812113 2.27564921 5.11552893 4.23105787 7 8 C7.639375 8.28875 8.27875 8.5775 8.9375 8.875 C12.16552603 10.63574147 12.7741383 12.56758723 14 16 C15.62917233 26.85460597 11.42674257 37.91329193 5.55859375 46.8984375 C3.18443427 50.09968512 1.48354665 51.95085491 -2 54 C-4.30711234 54.24085239 -6.45600692 54.18626001 -8.76953125 54.03125 C-11.28238861 53.87535505 -11.28238861 53.87535505 -14.625 55.1875 C-19.12712908 56.27134589 -21.05235485 55.30899999 -25 53 C-31.77710761 46.22289239 -31.88747865 37.09377064 -32 28 C-31.24798524 16.75320152 -23.01839859 9.16135961 -15 2 C-10.03844123 -1.51443746 -5.73401414 -1.56574556 0 0 Z " fill="#F831FF" transform="translate(41,4)"/>
<path d="M0 0 C2.07711167 2.5491825 2.0164228 3.83577202 1.6875 7.125 C1 10 1 10 0 12 C-0.1546875 13.546875 -0.1546875 13.546875 -0.3125 15.125 C-1.11340291 19.63918002 -2.78467316 23.03301937 -5 27 C-5.66 26.34 -6.32 25.68 -7 25 C-7.4125 25.495 -7.825 25.99 -8.25 26.5 C-10 28 -10 28 -14 28 C-13.21681311 24.08406554 -11.60820142 20.63593365 -10 17 C-10.33 17 -10.66 17 -11 17 C-11 14.03 -11 11.06 -11 8 C-11.66 10.64 -12.32 13.28 -13 16 C-13.66 16 -14.32 16 -15 16 C-15.85685384 10.43045004 -13.6897833 7.38786005 -10.703125 2.953125 C-7.4862683 -0.73593085 -4.65330749 -1.71437644 0 0 Z " fill="#492E4D" transform="translate(51,19)"/>
<path d="M0 0 C0.66 0 1.32 0 2 0 C1.835 0.99 1.67 1.98 1.5 3 C0.91525483 7.02732942 0.92867976 10.93474623 1 15 C1.66 14.67 2.32 14.34 3 14 C3 15.32 3 16.64 3 18 C4.2375 17.979375 5.475 17.95875 6.75 17.9375 C8.9765625 18.18359375 8.9765625 18.18359375 11 19 C12.34058866 21.25305384 13.12337763 23.49538868 13.9921875 25.96484375 C14.32476562 26.63644531 14.65734375 27.30804688 15 28 C18.116025 29.21790719 18.116025 29.21790719 21 29 C21 29.33 21 29.66 21 30 C20.43152344 29.97679688 19.86304687 29.95359375 19.27734375 29.9296875 C15.24804695 29.83551362 12.2559027 29.9161698 8.375 31.1875 C3.87287092 32.27134589 1.94764515 31.30899999 -2 29 C-6.07896105 25.14152333 -6.91476622 21.33573275 -8 16 C-6.35 16.33 -4.7 16.66 -3 17 C-2.95101563 16.35933594 -2.90203125 15.71867187 -2.8515625 15.05859375 C-2.3959855 9.78803915 -1.6402621 5.03013712 0 0 Z " fill="#322E31" transform="translate(18,28)"/>
<path d="M0 0 C9.10845638 0.34765101 9.10845638 0.34765101 12.5625 2.875 C15.75579556 7.59552387 15.51303976 12.51553274 15 18 C12.49466887 30.35486151 12.49466887 30.35486151 7.75 34.3125 C6.8425 34.869375 5.935 35.42625 5 36 C5.268125 35.34 5.53625 34.68 5.8125 34 C6.204375 33.01 6.59625 32.02 7 31 C7.26425781 30.39542969 7.52851562 29.79085937 7.80078125 29.16796875 C9.86345067 24.21169672 10.28723992 20.36181189 10 15 C10.66 15 11.32 15 12 15 C11.67 12.69 11.34 10.38 11 8 C7.96833229 7.04719015 6.50735215 6.77234199 3.5625 8.09375 C0.42242159 10.42966199 -0.93711722 12.76768434 -2.8125 16.1875 C-3.41707031 17.27417969 -4.02164063 18.36085938 -4.64453125 19.48046875 C-5.09183594 20.31191406 -5.53914063 21.14335938 -6 22 C-6.66 21.67 -7.32 21.34 -8 21 C-8.66 21.66 -9.32 22.32 -10 23 C-12.95662966 22.77256695 -14.55033688 22.38764062 -16.8125 20.4375 C-17.204375 19.963125 -17.59625 19.48875 -18 19 C-17.67 18.34 -17.34 17.68 -17 17 C-15.02 17.66 -13.04 18.32 -11 19 C-7.57711357 15.95743428 -5.52295817 12.67525154 -3.34375 8.70703125 C-1.70049058 6.61951855 -0.58162254 6.36645913 2 6 C2 4.68 2 3.36 2 2 C1.34 2 0.68 2 0 2 C0 1.34 0 0.68 0 0 Z " fill="#F15FF5" transform="translate(40,12)"/>
<path d="M0 0 C2.74832313 2.37692812 3.90931894 4.67667643 5.3125 8 C2.6725 7.67 0.0325 7.34 -2.6875 7 C-1.3675 8.32 -0.0475 9.64 1.3125 11 C0 13 0 13 -1.6875 15 C-2.6775 15 -3.6675 15 -4.6875 15 C-6.39282323 16.94009522 -6.39282323 16.94009522 -7.6875 19 C-12.4375 18.125 -12.4375 18.125 -14.6875 17 C-15.0175 17.66 -15.3475 18.32 -15.6875 19 C-16.3475 18.67 -17.0075 18.34 -17.6875 18 C-16.13409872 13.46924626 -14.24858435 9.38243478 -9.87109375 7.01953125 C-8.16772971 6.28656854 -6.42924351 5.63640628 -4.6875 5 C-10.97321429 7.42857143 -10.97321429 7.42857143 -14.6875 6 C-5.70831526 -2.12402428 -5.70831526 -2.12402428 0 0 Z " fill="#F31EF9" transform="translate(42.6875,5)"/>
<path d="M0 0 C0.66 0.33 1.32 0.66 2 1 C1.979375 2.093125 1.95875 3.18625 1.9375 4.3125 C1.81455548 7.94384191 1.81455548 7.94384191 3 11 C2.00390625 13.48046875 2.00390625 13.48046875 0.5625 16.1875 C0.08941406 17.08855469 -0.38367187 17.98960938 -0.87109375 18.91796875 C-1.24363281 19.60503906 -1.61617187 20.29210937 -2 21 C0.9719385 19.87548273 3.33440687 18.77706209 6 17 C6.33 18.32 6.66 19.64 7 21 C7.66 20.01 8.32 19.02 9 18 C9.66 18.33 10.32 18.66 11 19 C10.09232898 20.44319692 9.17343894 21.87934106 8.25 23.3125 C7.73953125 24.11300781 7.2290625 24.91351563 6.703125 25.73828125 C4.96269819 28.04953612 3.46255132 29.49484291 1 31 C-2.5625 31.4375 -2.5625 31.4375 -6 31 C-8.40462999 28.90564484 -8.91896961 27.64824315 -9.3125 24.5 C-8.98125562 21.85004494 -8.49794105 20.20749207 -7 18 C-6.01 17.67 -5.02 17.34 -4 17 C-3.814375 15.9171875 -3.814375 15.9171875 -3.625 14.8125 C-3 12 -3 12 -2 9.625 C-0.78812551 6.44382947 -0.39655973 3.37075774 0 0 Z " fill="#FC32FE" transform="translate(39,26)"/>
<path d="M0 0 C-3 2 -3 2 -6.0625 3.5 C-9.03112476 4.82567342 -9.03112476 4.82567342 -11 7 C-10.29875 6.855625 -9.5975 6.71125 -8.875 6.5625 C-5.92443859 5.98521625 -2.96729849 5.48304859 0 5 C-1.98611612 6.98611612 -3.44143249 7.91454712 -6 9 C-6.99 9 -7.98 9 -9 9 C-9.226875 9.556875 -9.45375 10.11375 -9.6875 10.6875 C-11.37550036 13.66159588 -13.46676517 15.72008865 -16 18 C-16.66 18 -17.32 18 -18 18 C-18.64453125 16.21484375 -18.64453125 16.21484375 -19 14 C-18.07421875 12.25390625 -18.07421875 12.25390625 -16.6875 10.5625 C-14.99169718 8.38684089 -13.94494151 6.85749568 -12.9375 4.25 C-10.26473978 -2.16462452 -5.8811881 -1.07821782 0 0 Z " fill="#F547FC" transform="translate(40,4)"/>
<path d="M0 0 C0.33 0 0.66 0 1 0 C1.04125 1.010625 1.0825 2.02125 1.125 3.0625 C1.81115805 7.80762116 4.32384102 11.01681811 8 14 C11.21302578 15.04073136 11.21302578 15.04073136 14 15 C13.67 15.99 13.34 16.98 13 18 C9.54916429 19.15027857 7.96969726 18.99043071 4.4375 17.875 C0.22187653 15.57556902 -2.17126478 13.54776885 -3.68359375 8.8984375 C-4.18353521 6.94694186 -4.59848843 4.97409857 -5 3 C-2.525 3.495 -2.525 3.495 0 4 C0 2.68 0 1.36 0 0 Z " fill="#891E9E" transform="translate(15,41)"/>
<path d="M0 0 C0.66 1.32 1.32 2.64 2 4 C2.66 3.01 3.32 2.02 4 1 C4.66 1.33 5.32 1.66 6 2 C0.03416856 11.77904328 0.03416856 11.77904328 -5 14 C-5.66 13.34 -6.32 12.68 -7 12 C-6.01 12 -5.02 12 -4 12 C-3.67 11.01 -3.34 10.02 -3 9 C-3.99 9.495 -3.99 9.495 -5 10 C-6.67654729 9.72057545 -8.34608154 9.39171753 -10 9 C-10.33 7.68 -10.66 6.36 -11 5 C-9.68 4.01 -8.36 3.02 -7 2 C-7 2.66 -7 3.32 -7 4 C-4.08482708 2.92598892 -2.22189824 2.22189824 0 0 Z " fill="#C833CD" transform="translate(44,43)"/>
<path d="M0 0 C0.66 0.33 1.32 0.66 2 1 C0.5775739 4.83984977 -1.18182852 8.25399802 -3.3125 11.75 C-3.88613281 12.71421875 -4.45976562 13.6784375 -5.05078125 14.671875 C-7.35419818 17.42305033 -8.5409782 17.55965552 -12 18 C-12.33 18.66 -12.66 19.32 -13 20 C-13.7578125 17.8125 -13.7578125 17.8125 -14 15 C-12.3046875 12.5 -12.3046875 12.5 -9.875 10 C-8.63556641 8.70449219 -8.63556641 8.70449219 -7.37109375 7.3828125 C-6.58863281 6.59648437 -5.80617188 5.81015625 -5 5 C-4.43410156 4.41992188 -3.86820313 3.83984375 -3.28515625 3.2421875 C-2.20509672 2.14647494 -1.1056003 1.06993578 0 0 Z " fill="#F81DFD" transform="translate(26,6)"/>
<path d="M0 0 C0.33 0 0.66 0 1 0 C1 1.65 1 3.3 1 5 C1.66 5.33 2.32 5.66 3 6 C2.67 7.32 2.34 8.64 2 10 C1.34 10 0.68 10 0 10 C0.33 11.32 0.66 12.64 1 14 C-0.32 14 -1.64 14 -3 14 C-3.12375 14.61875 -3.2475 15.2375 -3.375 15.875 C-4 18 -4 18 -6 20 C-6 19.01 -6 18.02 -6 17 C-8.64 16.67 -11.28 16.34 -14 16 C-14 14.68 -14 13.36 -14 12 C-11.36 12.66 -8.72 13.32 -6 14 C-5.67 13.34 -5.34 12.68 -5 12 C-4.34 11.34 -3.68 10.68 -3 10 C-2.64080332 8.33871537 -2.31088368 6.67099977 -2 5 C-1.36562656 3.3207762 -0.70710678 1.64991582 0 0 Z " fill="#EC34ED" transform="translate(35,30)"/>
<path d="M0 0 C4.75 0.875 4.75 0.875 7 2 C6.01 7.28 5.02 12.56 4 18 C2.35 17.67 0.7 17.34 -1 17 C-1 14.69 -1 12.38 -1 10 C0.32 10.33 1.64 10.66 3 11 C3 10.34 3 9.68 3 9 C2.34 8.67 1.68 8.34 1 8 C0.40644386 5.35139573 0.25790731 2.70802678 0 0 Z " fill="#F636FD" transform="translate(11,27)"/>
<path d="M0 0 C0.99 0 1.98 0 3 0 C3.67554738 8.31298576 2.9110467 18.26858741 -2.6015625 24.9375 C-4.25 26.3125 -4.25 26.3125 -7 28 C-6.731875 27.34 -6.46375 26.68 -6.1875 26 C-5.795625 25.01 -5.40375 24.02 -5 23 C-4.73574219 22.39542969 -4.47148438 21.79085937 -4.19921875 21.16796875 C-2.13654933 16.21169672 -1.71276008 12.36181189 -2 7 C-1.34 7 -0.68 7 0 7 C0 4.69 0 2.38 0 0 Z " fill="#FF4AFF" transform="translate(52,20)"/>
<path d="M0 0 C0.99 0.33 1.98 0.66 3 1 C2.67 1.33 2.34 1.66 2 2 C3.32 2.99 4.64 3.98 6 5 C5.67 6.65 5.34 8.3 5 10 C2.39417629 10.93065133 1.35801776 11.14917407 -1.25 10.0625 C-1.8275 9.711875 -2.405 9.36125 -3 9 C-3.33 9.66 -3.66 10.32 -4 11 C-4.66 10.67 -5.32 10.34 -6 10 C-4.6302836 6.00499382 -2.74277578 3.19990508 0 0 Z " fill="#E01CF9" transform="translate(31,13)"/>
<path d="M0 0 C-3.38853503 6.65605096 -3.38853503 6.65605096 -6 8.125 C-8.73337023 7.95416436 -9.99412644 6.79095853 -12 5 C-12.33 5.66 -12.66 6.32 -13 7 C-12.75668494 3.35027406 -12.58880372 1.55416821 -9.875 -1 C-6.00292566 -2.34680847 -3.76540065 -1.40279632 0 0 Z " fill="#FE27FF" transform="translate(35,24)"/>
<path d="M0 0 C3.25 0.0625 3.25 0.0625 7 1 C8.24300222 2.72662765 9.05609278 4.48631821 9.95703125 6.41015625 C11.00474279 8.38354087 11.00474279 8.38354087 14.25 8.9375 C15.61125 8.9684375 15.61125 8.9684375 17 9 C17 9.33 17 9.66 17 10 C13.7 10 10.4 10 7 10 C7 9.34 7 8.68 7 8 C6.071875 8.061875 5.14375 8.12375 4.1875 8.1875 C1 8 1 8 -0.875 6.5 C-1.24625 6.005 -1.6175 5.51 -2 5 C-1.67 4.01 -1.34 3.02 -1 2 C-0.67 2.33 -0.34 2.66 0 3 C0 2.01 0 1.02 0 0 Z " fill="#191B19" transform="translate(22,48)"/>
<path d="M0 0 C0.66 0.33 1.32 0.66 2 1 C1.63344579 7.10923686 0.32380251 9.87730459 -4 14 C-5.32 14 -6.64 14 -8 14 C-7.37193369 10.8526115 -6.29002627 8.57137632 -4.5625 5.875 C-4.13066406 5.19179688 -3.69882812 4.50859375 -3.25390625 3.8046875 C-2 2 -2 2 0 0 Z " fill="#2A2729" transform="translate(45,33)"/>
<path d="M0 0 C0.66 0 1.32 0 2 0 C2.027193 1.58323688 2.04648306 3.16661062 2.0625 4.75 C2.07410156 5.63171875 2.08570313 6.5134375 2.09765625 7.421875 C2.00826198 9.7818838 1.66912821 11.74498524 1 14 C0.34 14 -0.32 14 -1 14 C-1.33 14.66 -1.66 15.32 -2 16 C-2 13.03 -2 10.06 -2 7 C-2.66 9.64 -3.32 12.28 -4 15 C-4.66 15 -5.32 15 -6 15 C-6.87184104 9.33303323 -4.57430047 6.24643982 -1.5078125 1.7578125 C-0.76144531 0.88769531 -0.76144531 0.88769531 0 0 Z " fill="#5C2463" transform="translate(42,20)"/>
<path d="M0 0 C0.99 1.32 1.98 2.64 3 4 C2.01 5.485 2.01 5.485 1 7 C-5.75 6.125 -5.75 6.125 -8 5 C-7.01 8.63 -6.02 12.26 -5 16 C-6.32 15.67 -7.64 15.34 -9 15 C-10.59789351 10.04653013 -9.28306814 5.86717585 -8 1 C-7.34 1.66 -6.68 2.32 -6 3 C-4.02 2.01 -2.04 1.02 0 0 Z " fill="#DA3CE0" transform="translate(19,22)"/>
<path d="M0 0 C0.33 1.65 0.66 3.3 1 5 C0.01 4.67 -0.98 4.34 -2 4 C-4.2773501 6.81509993 -4.2773501 6.81509993 -4 10 C-4.33 10.99 -4.66 11.98 -5 13 C-5.99 13 -6.98 13 -8 13 C-8.15569823 3.81380417 -8.15569823 3.81380417 -7 0 C-4.3333581 -1.33332095 -2.83319697 -0.67102033 0 0 Z " fill="#2D262E" transform="translate(51,19)"/>
<path d="M0 0 C-5.625 3 -5.625 3 -9 3 C-9.226875 3.556875 -9.45375 4.11375 -9.6875 4.6875 C-11.37550036 7.66159588 -13.46676517 9.72008865 -16 12 C-16.66 12 -17.32 12 -18 12 C-18.6875 10.1875 -18.6875 10.1875 -19 8 C-17.4657452 5.81974318 -16.35666511 5.11209475 -13.8125 4.3125 C-13.214375 4.209375 -12.61625 4.10625 -12 4 C-12 3.34 -12 2.68 -12 2 C-10.75579353 1.4654744 -9.50429064 0.94791389 -8.25 0.4375 C-7.55390625 0.14746094 -6.8578125 -0.14257812 -6.140625 -0.44140625 C-3.69987216 -1.07831803 -2.3596345 -0.80248831 0 0 Z " fill="#F063F1" transform="translate(40,10)"/>
<path d="M0 0 C0.99 0.33 1.98 0.66 3 1 C2.67 2.32 2.34 3.64 2 5 C5.37817425 5.84454356 7.67465243 6.10844919 11 5 C10.67 6.32 10.34 7.64 10 9 C7.23723823 8.47731534 4.6739124 7.89130413 2 7 C1.01 10.465 1.01 10.465 0 14 C-0.33 14 -0.66 14 -1 14 C-1.02705729 12.22925083 -1.04642195 10.45838289 -1.0625 8.6875 C-1.07410156 7.70136719 -1.08570312 6.71523438 -1.09765625 5.69921875 C-1 3 -1 3 0 0 Z " fill="#C81CDB" transform="translate(19,32)"/>
<path d="M0 0 C0.66 0.33 1.32 0.66 2 1 C1.979375 2.093125 1.95875 3.18625 1.9375 4.3125 C1.81455548 7.94384191 1.81455548 7.94384191 3 11 C2.00390625 13.04296875 2.00390625 13.04296875 0.5625 15.1875 C0.08941406 15.90292969 -0.38367187 16.61835937 -0.87109375 17.35546875 C-1.24363281 17.89816406 -1.61617187 18.44085938 -2 19 C-2.66 18.34 -3.32 17.68 -4 17 C-3.70922365 14.31031879 -3.04921172 12.11687785 -2 9.625 C-0.78812551 6.44382947 -0.39655973 3.37075774 0 0 Z " fill="#EF27F9" transform="translate(39,26)"/>
<path d="M0 0 C0.99 0 1.98 0 3 0 C3.21914062 0.53109375 3.43828125 1.0621875 3.6640625 1.609375 C5.99210672 6.79542474 8.00260068 9.27414583 13 12 C12.01 12.495 12.01 12.495 11 13 C5.92291888 11.30763963 2.83038604 9.75504856 0 5 C-0.25 2.1875 -0.25 2.1875 0 0 Z " fill="#2E292E" transform="translate(12,47)"/>
<path d="M0 0 C0.33 0 0.66 0 1 0 C1.144375 0.928125 1.28875 1.85625 1.4375 2.8125 C1.92100111 6.00725111 1.92100111 6.00725111 3 9 C2.22265625 11.04296875 2.22265625 11.04296875 1.0625 13.1875 C0.68222656 13.90292969 0.30195312 14.61835937 -0.08984375 15.35546875 C-0.39019531 15.89816406 -0.69054688 16.44085938 -1 17 C-1.33 17 -1.66 17 -2 17 C-1.67 13.04 -1.34 9.08 -1 5 C-2.98 5.99 -2.98 5.99 -5 7 C-4.6875 5.0625 -4.6875 5.0625 -4 3 C-3.01 2.67 -2.02 2.34 -1 2 C-0.67 1.34 -0.34 0.68 0 0 Z " fill="#2E2A2E" transform="translate(47,29)"/>
<path d="M0 0 C0.99 0 1.98 0 3 0 C3 3.3 3 6.6 3 10 C2.01 10.495 2.01 10.495 1 11 C0.34444881 13.52733235 0.34444881 13.52733235 0 16 C-0.66 15.67 -1.32 15.34 -2 15 C-2 12.36 -2 9.72 -2 7 C-1.34 7 -0.68 7 0 7 C0 4.69 0 2.38 0 0 Z " fill="#F75CF7" transform="translate(52,20)"/>
<path d="M0 0 C0.99 0.33 1.98 0.66 3 1 C2.67 1.33 2.34 1.66 2 2 C3.32 2.99 4.64 3.98 6 5 C5.67 5.66 5.34 6.32 5 7 C2.03 7 -0.94 7 -4 7 C-2 3 -2 3 0 0 Z " fill="#C313ED" transform="translate(31,13)"/>
<path d="M0 0 C2.375 0.25 2.375 0.25 5 1 C6.3125 3.0625 6.3125 3.0625 7 5 C5.8125 6.5625 5.8125 6.5625 4 8 C1.3125 7.6875 1.3125 7.6875 -1 7 C-1 6.01 -1 5.02 -1 4 C-0.01 3.67 0.98 3.34 2 3 C1.34 2.01 0.68 1.02 0 0 Z " fill="#EF3AFD" transform="translate(37,12)"/>
<path d="M0 0 C0 3 0 3 0 3 Z M-10 2 C-9.071875 2.350625 -8.14375 2.70125 -7.1875 3.0625 C-4.0197047 4.32382628 -4.0197047 4.32382628 -1 3 C-1.66 4.65 -2.32 6.3 -3 8 C-6.68754757 7.50168276 -8.60490662 6.89932357 -11 4 C-10.67 3.34 -10.34 2.68 -10 2 Z " fill="#FD75FE" transform="translate(33,27)"/>
<path d="M0 0 C0.33 0.66 0.66 1.32 1 2 C1.66 2.33 2.32 2.66 3 3 C3.625 5.0625 3.625 5.0625 4 7 C1.625 7.625 1.625 7.625 -1 8 C-1.66 7.34 -2.32 6.68 -3 6 C-2.63318342 3.06546739 -2.13562754 2.13562754 0 0 Z " fill="#9919BC" transform="translate(36,45)"/>
<path d="M0 0 C2.97 0.99 5.94 1.98 9 3 C9 4.65 9 6.3 9 8 C8.67 7.01 8.34 6.02 8 5 C5.36 4.67 2.72 4.34 0 4 C0 2.68 0 1.36 0 0 Z " fill="#DB17EA" transform="translate(21,42)"/>
<path d="M0 0 C1.33333333 2 2.66666667 4 4 6 C7.06556598 6.73343428 7.06556598 6.73343428 10 7 C10 7.33 10 7.66 10 8 C6.7 8 3.4 8 0 8 C0 7.34 0 6.68 0 6 C-1.98 6 -3.96 6 -6 6 C-6 5.67 -6 5.34 -6 5 C-4.35 4.67 -2.7 4.34 -1 4 C-0.67 2.68 -0.34 1.36 0 0 Z " fill="#3E2641" transform="translate(29,50)"/>
<path d="M0 0 C2.475 0.99 2.475 0.99 5 2 C5 2.99 5 3.98 5 5 C4.34 5 3.68 5 3 5 C2.67 6.98 2.34 8.96 2 11 C1.67 11 1.34 11 1 11 C1.04125 10.21625 1.0825 9.4325 1.125 8.625 C1.28728734 5.83883881 1.28728734 5.83883881 -1 4 C-0.625 1.875 -0.625 1.875 0 0 Z " fill="#F74FFA" transform="translate(20,20)"/>
<path d="M0 0 C0.99 0.33 1.98 0.66 3 1 C0.525 5.455 0.525 5.455 -2 10 C-2.66 9.67 -3.32 9.34 -4 9 C-3.66666667 7.66666667 -3.33333333 6.33333333 -3 5 C-2.855625 4.278125 -2.71125 3.55625 -2.5625 2.8125 C-2.376875 2.214375 -2.19125 1.61625 -2 1 C-1.34 0.67 -0.68 0.34 0 0 Z " fill="#F45DF9" transform="translate(36,24)"/>
<path d="M0 0 C2.3129482 2.3129482 2.49580975 3.47904875 3.125 6.625 C3.29257813 7.44226562 3.46015625 8.25953125 3.6328125 9.1015625 C3.81457031 10.04128906 3.81457031 10.04128906 4 11 C2.68 10.67 1.36 10.34 0 10 C-0.95024979 6.30458414 -0.95024979 3.69541586 0 0 Z " fill="#BA1FE6" transform="translate(10,27)"/>
<path d="M0 0 C1.9375 0.3125 1.9375 0.3125 4 1 C5 4 5 4 4.0625 6.1875 C3.5365625 7.0846875 3.5365625 7.0846875 3 8 C2.01 8 1.02 8 0 8 C0 5.36 0 2.72 0 0 Z " fill="#372E37" transform="translate(43,24)"/>
<path d="M0 0 C0.66 0.33 1.32 0.66 2 1 C1.01 4.3 0.02 7.6 -1 11 C-1.66 11 -2.32 11 -3 11 C-3.32613618 6.32538149 -2.70582788 3.83325617 0 0 Z " fill="#3B343A" transform="translate(39,24)"/>
<path d="M0 0 C1.32 0 2.64 0 4 0 C3.690625 0.598125 3.38125 1.19625 3.0625 1.8125 C1.89790296 4.08956772 1.89790296 4.08956772 1 7 C0.34 7 -0.32 7 -1 7 C-1.33 7.66 -1.66 8.32 -2 9 C-2.20140476 5.37471432 -1.85776765 3.13498292 0 0 Z " fill="#F11DFA" transform="translate(32,44)"/>
<path d="M0 0 C2.1640625 0.0234375 2.1640625 0.0234375 4.625 0.375 C5.85089844 0.54128906 5.85089844 0.54128906 7.1015625 0.7109375 C7.72804688 0.80632813 8.35453125 0.90171875 9 1 C8.67 1.66 8.34 2.32 8 3 C6.35 2.67 4.7 2.34 3 2 C3 2.99 3 3.98 3 5 C1.68 5 0.36 5 -1 5 C-1.33 4.01 -1.66 3.02 -2 2 C-1.34 1.34 -0.68 0.68 0 0 Z " fill="#2E2B2F" transform="translate(20,47)"/>
<path d="M0 0 C1.485 0.99 1.485 0.99 3 2 C2.67 2.99 2.34 3.98 2 5 C2.99 5 3.98 5 5 5 C5 5.99 5 6.98 5 8 C3.35 7.67 1.7 7.34 0 7 C0 4.69 0 2.38 0 0 Z " fill="#F41CFD" transform="translate(10,37)"/>
<path d="M0 0 C0.33 0.66 0.66 1.32 1 2 C1.99 2.33 2.98 2.66 4 3 C3.34 4.32 2.68 5.64 2 7 C1.01 7 0.02 7 -1 7 C-1.625 5.1875 -1.625 5.1875 -2 3 C-1.34 2.01 -0.68 1.02 0 0 Z " fill="#E2C4DF" transform="translate(23,15)"/>
<path d="M0 0 C2.64 0.33 5.28 0.66 8 1 C5.01353231 2.99097846 2.40312738 3.94124926 -1 5 C-0.67 3.35 -0.34 1.7 0 0 Z " fill="#F65AFA" transform="translate(32,3)"/>
<path d="M0 0 C0.99 0.66 1.98 1.32 3 2 C1.25 6.875 1.25 6.875 -1 8 C-1.625 5.6875 -1.625 5.6875 -2 3 C-1.34 2.01 -0.68 1.02 0 0 Z " fill="#F09DED" transform="translate(37,37)"/>
<path d="M0 0 C0.66 0.33 1.32 0.66 2 1 C2.33 1.99 2.66 2.98 3 4 C1 7 1 7 -1.625 7.6875 C-2.800625 7.8421875 -2.800625 7.8421875 -4 8 C-2.68 5.36 -1.36 2.72 0 0 Z " fill="#392739" transform="translate(41,37)"/>
<path d="M0 0 C0.33 0.99 0.66 1.98 1 3 C-0.65 4.65 -2.3 6.3 -4 8 C-4.99 7.67 -5.98 7.34 -7 7 C-4.66666667 4.66666667 -2.33333333 2.33333333 0 0 Z " fill="#F429FB" transform="translate(44,43)"/>
<path d="M0 0 C0.33 1.32 0.66 2.64 1 4 C3.64 4.33 6.28 4.66 9 5 C9 5.33 9 5.66 9 6 C8.06027344 5.98259766 8.06027344 5.98259766 7.1015625 5.96484375 C5.87566406 5.95130859 5.87566406 5.95130859 4.625 5.9375 C3.40683594 5.92009766 3.40683594 5.92009766 2.1640625 5.90234375 C-0.04937142 5.85533666 -0.04937142 5.85533666 -2 7 C-1.125 1.125 -1.125 1.125 0 0 Z " fill="#452C4A" transform="translate(20,42)"/>
<path d="M0 0 C0.66 0.33 1.32 0.66 2 1 C1.6875 2.875 1.6875 2.875 1 5 C0.01 5.66 -0.98 6.32 -2 7 C-2.6875 5.1875 -2.6875 5.1875 -3 3 C-1.5625 1.25 -1.5625 1.25 0 0 Z " fill="#1B1E1B" transform="translate(45,33)"/>
<path d="M0 0 C0.33 0 0.66 0 1 0 C1 1.65 1 3.3 1 5 C1.66 5.33 2.32 5.66 3 6 C2.67 6.66 2.34 7.32 2 8 C0.68 8 -0.64 8 -2 8 C-1.47731534 5.23723823 -0.89130413 2.6739124 0 0 Z " fill="#BA18CA" transform="translate(35,30)"/>
<path d="M0 0 C-0.66 1.32 -1.32 2.64 -2 4 C-3.32 4 -4.64 4 -6 4 C-6.33 4.66 -6.66 5.32 -7 6 C-7 5.01 -7 4.02 -7 3 C-6.34 3 -5.68 3 -5 3 C-5 2.34 -5 1.68 -5 1 C-3 0 -3 0 0 0 Z " fill="#FE2AFE" transform="translate(20,20)"/>
<path d="M0 0 C0.66 0 1.32 0 2 0 C2 2.31 2 4.62 2 7 C1.01 7.33 0.02 7.66 -1 8 C-2.2077558 4.37673261 -1.54311128 3.35853631 0 0 Z " fill="#FE4CFF" transform="translate(31,35)"/>
<path d="M0 0 C1.9375 0.375 1.9375 0.375 4 1 C4.33 1.66 4.66 2.32 5 3 C4.01 3.495 4.01 3.495 3 4 C2.34444881 6.52733235 2.34444881 6.52733235 2 9 C1.34 8.67 0.68 8.34 0 8 C0 5.36 0 2.72 0 0 Z " fill="#F221F7" transform="translate(50,27)"/>
<path d="M0 0 C0.99 0.33 1.98 0.66 3 1 C2.67 2.32 2.34 3.64 2 5 C0.35 5.33 -1.3 5.66 -3 6 C-1.125 1.125 -1.125 1.125 0 0 Z " fill="#F090F0" transform="translate(38,19)"/>
<path d="M0 0 C2.97 0.33 5.94 0.66 9 1 C6.38058783 2.74627478 4.96175123 3.38722388 2 4 C1.33333333 2.66666667 0.66666667 1.33333333 0 0 Z " fill="#FC78FC" transform="translate(40,12)"/>
<path d="M0 0 C0.66 1.32 1.32 2.64 2 4 C0.68 5.65 -0.64 7.3 -2 9 C-1.125 2.25 -1.125 2.25 0 0 Z " fill="#602864" transform="translate(47,37)"/>
<path d="M0 0 C1.32 0 2.64 0 4 0 C3.67 0.99 3.34 1.98 3 3 C1.02 3.33 -0.96 3.66 -3 4 C-1.75 2 -1.75 2 0 0 Z " fill="#D41BE3" transform="translate(31,8)"/>
<path d="M0 0 C0.99 0.33 1.98 0.66 3 1 C3.33 2.98 3.66 4.96 4 7 C2 5.1875 2 5.1875 0 3 C0 2.01 0 1.02 0 0 Z " fill="#D01CFB" transform="translate(16,49)"/>
<path d="M0 0 C0.66 0 1.32 0 2 0 C1.65120368 3.25543229 0.97866739 4.01873107 -1.5625 6.25 C-2.366875 6.8275 -3.17125 7.405 -4 8 C-2.87548273 5.0280615 -1.77706209 2.66559313 0 0 Z " fill="#F177F5" transform="translate(49,40)"/>
<path d="M0 0 C-0.33 1.32 -0.66 2.64 -1 4 C-2.65 3.67 -4.3 3.34 -6 3 C-6 2.34 -6 1.68 -6 1 C-3 0 -3 0 0 0 Z " fill="#D015FA" transform="translate(30,37)"/>
</svg>
