<?xml version="1.0" encoding="UTF-8"?>
<svg version="1.1" xmlns="http://www.w3.org/2000/svg" width="62" height="62">
<path d="M0 0 C5.12495561 4.83181219 8.63085783 9.24419307 9.3359375 16.41796875 C9.44322996 26.7716908 8.48992083 34.61043923 1.1875 42.4375 C-5.29643235 48.4375568 -12.37830225 50.31073128 -21.08203125 50.21875 C-29.32142695 49.60107107 -35.87213547 46.12786453 -41.6875 40.3125 C-45.8620273 34.90858117 -47.32216646 29.21138257 -46.9375 22.4375 C-45.64317585 12.48651322 -40.7563098 6.86300483 -33 0.8125 C-23.26107704 -6.30019654 -10.03916904 -7.27476017 0 0 Z M-32 10 C-31.34 10.66 -30.68 11.32 -30 12 C-30 11.34 -30 10.68 -30 10 C-30.66 10 -31.32 10 -32 10 Z M-33 11 C-32 13 -32 13 -32 13 Z M-15 28 C-14 31 -14 31 -14 31 Z M-4 31 C-5.61949011 33.57213134 -6.04408751 34.67669159 -5.625 37.75 C-5.41875 38.4925 -5.2125 39.235 -5 40 C-4.01 39.67 -3.02 39.34 -2 39 C-2 38.34 -2 37.68 -2 37 C-1.34 36.67 -0.68 36.34 0 36 C-0.96885372 34.31503702 -1.96986723 32.64821244 -3 31 C-3.33 31 -3.66 31 -4 31 Z " fill="#D16AFD" transform="translate(50,8)"/>
<path d="M0 0 C2.50427199 3.66008983 2.2526758 7.07506006 1.625 11.375 C0.82236065 13.88840779 -0.16861115 16.0124885 -1.375 18.375 C-2.365 18.375 -3.355 18.375 -4.375 18.375 C-5.035 17.385 -5.695 16.395 -6.375 15.375 C-7.21954356 18.75317425 -7.48344919 21.04965243 -6.375 24.375 C-10 27.375 -10 27.375 -13.375 27.375 C-14.035 25.395 -14.695 23.415 -15.375 21.375 C-14.88 20.88 -14.88 20.88 -14.375 20.375 C-14.98988281 20.54257812 -15.60476562 20.71015625 -16.23828125 20.8828125 C-17.04652344 21.08648437 -17.85476562 21.29015625 -18.6875 21.5 C-19.48800781 21.70882812 -20.28851563 21.91765625 -21.11328125 22.1328125 C-23.375 22.375 -23.375 22.375 -26.375 20.375 C-25.57835938 20.22804688 -24.78171875 20.08109375 -23.9609375 19.9296875 C-16.89733708 18.43447281 -12.79207345 17.18693875 -8.375 11.375 C-6.32691168 7.65120306 -6.09365706 4.59514408 -6.375 0.375 C-7.76695915 -2.4089183 -9.53075779 -2.60398997 -12.375 -3.625 C-12.375 -2.965 -12.375 -2.305 -12.375 -1.625 C-11.735625 -1.398125 -11.09625 -1.17125 -10.4375 -0.9375 C-8.375 0.375 -8.375 0.375 -7.4375 2.5625 C-7.32733427 7.51995783 -9.30026782 11.17744128 -12.5625 14.8125 C-13.160625 15.328125 -13.75875 15.84375 -14.375 16.375 C-17.345 15.385 -20.315 14.395 -23.375 13.375 C-21.86836217 10.36172434 -19.34333589 9.76443382 -16.375 8.375 C-16.375 6.725 -16.375 5.075 -16.375 3.375 C-17.1484375 3.5915625 -17.1484375 3.5915625 -17.9375 3.8125 C-21.06009571 4.53309901 -24.20050692 4.94766439 -27.375 5.375 C-27.54177282 8.79156024 -27.54177282 8.79156024 -27.375 12.375 C-26.715 13.035 -26.055 13.695 -25.375 14.375 C-25.375 15.365 -25.375 16.355 -25.375 17.375 C-27.3125 16.5625 -27.3125 16.5625 -29.375 15.375 C-29.705 14.385 -30.035 13.395 -30.375 12.375 C-32.025 13.035 -33.675 13.695 -35.375 14.375 C-35.045 16.355 -34.715 18.335 -34.375 20.375 C-34.045 19.715 -33.715 19.055 -33.375 18.375 C-32.715 18.375 -32.055 18.375 -31.375 18.375 C-28.6875 21.1875 -28.6875 21.1875 -26.375 24.375 C-26.705 25.365 -27.035 26.355 -27.375 27.375 C-28.695 26.385 -30.015 25.395 -31.375 24.375 C-31.81790923 28.37846023 -31.81790923 28.37846023 -29.375 30.625 C-28.385 31.49125 -28.385 31.49125 -27.375 32.375 C-34.87452005 30.76137376 -40.25747739 28.20747062 -45.375 22.375 C-47.24652846 19.205476 -47.57961442 17.05805959 -47.375 13.375 C-47.045 14.035 -46.715 14.695 -46.375 15.375 C-45.385 15.375 -44.395 15.375 -43.375 15.375 C-43.33761719 14.72273438 -43.30023438 14.07046875 -43.26171875 13.3984375 C-42.86517734 8.12676939 -42.38402978 3.88854467 -39.375 -0.625 C-38.385 -0.955 -37.395 -1.285 -36.375 -1.625 C-36.045 0.025 -35.715 1.675 -35.375 3.375 C-34.385 3.705 -33.395 4.035 -32.375 4.375 C-32.189375 3.7975 -32.00375 3.22 -31.8125 2.625 C-29.3474462 -1.23334507 -25.30314754 -2.99965485 -21.0625 -4.375 C-12.60734452 -5.16152609 -7.18493928 -4.91601109 0 0 Z M-17.375 11.375 C-16.375 14.375 -16.375 14.375 -16.375 14.375 Z " fill="#BE49FC" transform="translate(52.375,24.625)"/>
<path d="M0 0 C0.62457273 3.43515002 1 6.49064814 1 10 C2.32 10.33 3.64 10.66 5 11 C2.69 11.66 0.38 12.32 -2 13 C-2 13.66 -2 14.32 -2 15 C-1.45859375 14.83628906 -0.9171875 14.67257813 -0.359375 14.50390625 C2.40222593 13.91409413 4.92818139 13.90390692 7.75 13.9375 C8.73484375 13.94652344 9.7196875 13.95554687 10.734375 13.96484375 C11.85585937 13.98224609 11.85585937 13.98224609 13 14 C13 14.33 13 14.66 13 15 C11.99839844 15.09796875 10.99679688 15.1959375 9.96484375 15.296875 C-0.14634512 16.31976163 -0.14634512 16.31976163 -9 21 C-9.66 21.99 -10.32 22.98 -11 24 C-12.32 24 -13.64 24 -15 24 C-15 22.02 -15 20.04 -15 18 C-18.91155566 21.55595969 -20.1784481 25.1115754 -21.125 30.25 C-21.29257812 31.14203125 -21.46015625 32.0340625 -21.6328125 32.953125 C-21.75398438 33.62859375 -21.87515625 34.3040625 -22 35 C-23.65 35 -25.3 35 -27 35 C-28.54044234 26.27701324 -27.71231463 18.92501585 -22.9375 11.3125 C-17.81188503 4.73800299 -8.55081646 -2.44309042 0 0 Z M-13 13 C-12.34 13.66 -11.68 14.32 -11 15 C-11 14.34 -11 13.68 -11 13 C-11.66 13 -12.32 13 -13 13 Z M-14 14 C-13 16 -13 16 -13 16 Z " fill="#CF57FF" transform="translate(31,5)"/>
<path d="M0 0 C5.0594645 3.66627862 9.02033959 8.37323905 10.88671875 14.3671875 C11.08203125 17.26171875 11.08203125 17.26171875 11.01171875 20.1796875 C10.99367188 21.15550781 10.975625 22.13132812 10.95703125 23.13671875 C10.93382813 23.87277344 10.910625 24.60882812 10.88671875 25.3671875 C9.89671875 25.3671875 8.90671875 25.3671875 7.88671875 25.3671875 C7.80164063 24.77292969 7.7165625 24.17867187 7.62890625 23.56640625 C6.67452076 20.73841134 5.42177688 19.89674356 3.01171875 18.1796875 C2.31304687 17.67050781 1.614375 17.16132813 0.89453125 16.63671875 C-1.1831486 15.21072034 -1.1831486 15.21072034 -4.11328125 14.3671875 C-4.11328125 13.7071875 -4.11328125 13.0471875 -4.11328125 12.3671875 C-9.06328125 12.6971875 -14.01328125 13.0271875 -19.11328125 13.3671875 C-19.11328125 12.7071875 -19.11328125 12.0471875 -19.11328125 11.3671875 C-17.79328125 10.7071875 -16.47328125 10.0471875 -15.11328125 9.3671875 C-15.45773006 6.89451985 -15.45773006 6.89451985 -16.11328125 4.3671875 C-16.77328125 4.0371875 -17.43328125 3.7071875 -18.11328125 3.3671875 C-17.45328125 3.3671875 -16.79328125 3.3671875 -16.11328125 3.3671875 C-16.11328125 2.3771875 -16.11328125 1.3871875 -16.11328125 0.3671875 C-17.43328125 0.0371875 -18.75328125 -0.2928125 -20.11328125 -0.6328125 C-20.11328125 -1.2928125 -20.11328125 -1.9528125 -20.11328125 -2.6328125 C-13.36342353 -4.66086608 -6.10250376 -3.39165523 0 0 Z " fill="#C669F9" transform="translate(48.11328125,6.6328125)"/>
<path d="M0 0 C4.94758065 3.2983871 4.94758065 3.2983871 6.625 5.75 C7.66461482 11.76574866 6.35009155 16.41336237 3.625 21.75 C2.635 21.75 1.645 21.75 0.625 21.75 C-0.035 20.76 -0.695 19.77 -1.375 18.75 C-2.21954356 22.12817425 -2.48344919 24.42465243 -1.375 27.75 C-5 30.75 -5 30.75 -8.375 30.75 C-9.035 28.77 -9.695 26.79 -10.375 24.75 C-10.045 24.42 -9.715 24.09 -9.375 23.75 C-9.98988281 23.91757812 -10.60476562 24.08515625 -11.23828125 24.2578125 C-12.04652344 24.46148437 -12.85476562 24.66515625 -13.6875 24.875 C-14.88826172 25.18824219 -14.88826172 25.18824219 -16.11328125 25.5078125 C-18.375 25.75 -18.375 25.75 -21.375 23.75 C-20.57835938 23.60304688 -19.78171875 23.45609375 -18.9609375 23.3046875 C-11.89733708 21.80947281 -7.79207345 20.56193875 -3.375 14.75 C-1.32691168 11.02620306 -1.09365706 7.97014408 -1.375 3.75 C-2.76695915 0.9660817 -4.53075779 0.77101003 -7.375 -0.25 C-7.375 0.41 -7.375 1.07 -7.375 1.75 C-6.735625 1.976875 -6.09625 2.20375 -5.4375 2.4375 C-3.375 3.75 -3.375 3.75 -2.4375 5.9375 C-2.32733427 10.89495783 -4.30026782 14.55244128 -7.5625 18.1875 C-8.160625 18.703125 -8.75875 19.21875 -9.375 19.75 C-12.345 18.76 -15.315 17.77 -18.375 16.75 C-16.77811734 13.55623468 -13.54116965 12.17408504 -10.375 10.75 C-9.385 10.75 -8.395 10.75 -7.375 10.75 C-7.375 8.11 -7.375 5.47 -7.375 2.75 C-9.293125 2.811875 -9.293125 2.811875 -11.25 2.875 C-13.4296875 2.9453125 -13.4296875 2.9453125 -15.375 2.75 C-16.035 2.09 -16.695 1.43 -17.375 0.75 C-11.88285713 -2.42633148 -5.84590778 -2.16515103 0 0 Z M-12.375 14.75 C-11.375 17.75 -11.375 17.75 -11.375 17.75 Z " fill="#332C41" transform="translate(47.375,21.25)"/>
<path d="M0 0 C3 1 3 1 5 2 C4 5 4 5 2 6.4375 C-0.29189635 8.22804402 -0.61121002 9.18127263 -1 12 C-1.33 11.34 -1.66 10.68 -2 10 C-6.21761069 11.48186322 -8.77321287 12.84957006 -11.01171875 16.7734375 C-12.11567202 19.26060494 -12.63251854 21.57652924 -13.125 24.25 C-13.29257813 25.14203125 -13.46015625 26.0340625 -13.6328125 26.953125 C-13.75398437 27.62859375 -13.87515625 28.3040625 -14 29 C-15.65 29 -17.3 29 -19 29 C-20.43394493 20.8800709 -20.02086307 14.01086782 -15.68359375 6.81640625 C-14.51762016 5.1654408 -13.26679401 3.5749331 -12 2 C-11.67 2.66 -11.34 3.32 -11 4 C-10.01 4.33 -9.02 4.66 -8 5 C-8.66 5 -9.32 5 -10 5 C-10 6.32 -10 7.64 -10 9 C-9.46375 8.2575 -8.9275 7.515 -8.375 6.75 C-5.81184947 3.7821415 -3.42670823 1.89562583 0 0 Z M-5 7 C-4.34 7.66 -3.68 8.32 -3 9 C-3 8.34 -3 7.68 -3 7 C-3.66 7 -4.32 7 -5 7 Z M-6 8 C-5 10 -5 10 -5 10 Z " fill="#C459FA" transform="translate(23,11)"/>
<path d="M0 0 C0.66 0.33 1.32 0.66 2 1 C2 2.32 2 3.64 2 5 C2.99 5 3.98 5 5 5 C4.53929983 13.59973658 1.45166177 18.94293109 -4.8125 24.8125 C-12.16162723 30.81794352 -18.67714871 31.46271505 -28 31 C-28 30.34 -28 29.68 -28 29 C-19.09 28.01 -19.09 28.01 -10 27 C-10.33 25.68 -10.66 24.36 -11 23 C-9.6875 21.25 -9.6875 21.25 -8 20 C-7.34 20 -6.68 20 -6 20 C-6 19.34 -6 18.68 -6 18 C-5.34 18 -4.68 18 -4 18 C-1.72942897 11.95942424 -0.51085812 6.43681228 0 0 Z " fill="#BF43FA" transform="translate(54,27)"/>
<path d="M0 0 C1.40742022 2.81484045 0.66652164 4.56936113 0.0625 7.625 C-0.13214844 8.62789062 -0.32679687 9.63078125 -0.52734375 10.6640625 C-0.68332031 11.43492188 -0.83929688 12.20578125 -1 13 C-1.66 13 -2.32 13 -3 13 C-2.11536306 20.66685349 -0.56147358 23.69719961 5 29 C6.66666667 30.66666667 8.33333333 32.33333333 10 34 C2.50047995 32.38637376 -2.88247739 29.83247062 -8 24 C-9.87152846 20.830476 -10.20461442 18.68305959 -10 15 C-9.67 15.66 -9.34 16.32 -9 17 C-8.01 17 -7.02 17 -6 17 C-5.96261719 16.34773438 -5.92523437 15.69546875 -5.88671875 15.0234375 C-5.48802654 9.72317639 -4.93771538 5.58283599 -2 1 C-1.34 0.67 -0.68 0.34 0 0 Z " fill="#312A3B" transform="translate(15,23)"/>
<path d="M0 0 C4.29 0.33 8.58 0.66 13 1 C12.67 2.32 12.34 3.64 12 5 C12.66 5.66 13.32 6.32 14 7 C14.99 8.485 14.99 8.485 16 10 C17.7179646 11.20482939 17.7179646 11.20482939 19.625 12.1875 C20.73875 12.785625 21.8525 13.38375 23 14 C22.67 14.66 22.34 15.32 22 16 C21.34 15.67 20.68 15.34 20 15 C16.85849194 14.02340076 14.03060885 13.89433409 10.75 13.9375 C9.41195312 13.95103516 9.41195312 13.95103516 8.046875 13.96484375 C7.37140625 13.97644531 6.6959375 13.98804688 6 14 C6 13.34 6 12.68 6 12 C5.34 11.67 4.68 11.34 4 11 C4 9.68 4 8.36 4 7 C3.34 6.67 2.68 6.34 2 6 C2.66 6 3.32 6 4 6 C4 5.01 4 4.02 4 3 C2.68 2.67 1.36 2.34 0 2 C0 1.34 0 0.68 0 0 Z " fill="#D385F6" transform="translate(28,4)"/>
<path d="M0 0 C0.625 2.875 0.625 2.875 1 6 C0.34 6.66 -0.32 7.32 -1 8 C-1.66 8 -2.32 8 -3 8 C-3.33 6.68 -3.66 5.36 -4 4 C-4.7734375 4.2165625 -4.7734375 4.2165625 -5.5625 4.4375 C-8.68509571 5.15809901 -11.82550692 5.57266439 -15 6 C-15.16677282 9.41656024 -15.16677282 9.41656024 -15 13 C-14.34 13.66 -13.68 14.32 -13 15 C-13 15.99 -13 16.98 -13 18 C-14.9375 17.1875 -14.9375 17.1875 -17 16 C-17.33 15.01 -17.66 14.02 -18 13 C-18.99 13.33 -19.98 13.66 -21 14 C-20.46610406 9.09687402 -19.64049547 5.00169119 -16.125 1.375 C-11.25287901 -2.39029096 -5.70250526 -1.03000916 0 0 Z " fill="#A649F8" transform="translate(40,24)"/>
<path d="M0 0 C2.5 1.4375 2.5 1.4375 5 4 C6.27688478 9.90559213 4.67112022 14.76905624 2 20 C1.01 20 0.02 20 -1 20 C-1.66 19.01 -2.32 18.02 -3 17 C-3.66 17.33 -4.32 17.66 -5 18 C-4.69191406 17.30390625 -4.38382813 16.6078125 -4.06640625 15.890625 C-2.93526441 12.82452625 -2.4108229 9.97973273 -1.9375 6.75 C-1.10443491 1.10443491 -1.10443491 1.10443491 0 0 Z " fill="#512D69" transform="translate(49,23)"/>
<path d="M0 0 C0.33 0.99 0.66 1.98 1 3 C-0.32 3 -1.64 3 -3 3 C-3 3.66 -3 4.32 -3 5 C-3.51949219 5.24234375 -4.03898437 5.4846875 -4.57421875 5.734375 C-11.91288537 9.06687418 -11.91288537 9.06687418 -17 15 C-17.66 15 -18.32 15 -19 15 C-18.835 14.4225 -18.67 13.845 -18.5 13.25 C-17.85537969 10.73335631 -17.85537969 10.73335631 -18 7 C-13.10307145 1.92080364 -7.0745533 -2.02130094 0 0 Z " fill="#CF6CFE" transform="translate(31,5)"/>
<path d="M0 0 C0.66 0.33 1.32 0.66 2 1 C0.68 1.99 -0.64 2.98 -2 4 C-1.67 5.65 -1.34 7.3 -1 9 C0.98 8.67 2.96 8.34 5 8 C4 11 4 11 2 12 C0.12620395 12.07033769 -1.75001102 12.0843022 -3.625 12.0625 C-4.62789062 12.05347656 -5.63078125 12.04445313 -6.6640625 12.03515625 C-7.43492188 12.02355469 -8.20578125 12.01195312 -9 12 C-9.33 10.35 -9.66 8.7 -10 7 C-10.66 7 -11.32 7 -12 7 C-12 6.01 -12 5.02 -12 4 C-11.30132813 3.79503906 -10.60265625 3.59007812 -9.8828125 3.37890625 C-8.97273438 3.10949219 -8.06265625 2.84007812 -7.125 2.5625 C-6.22007813 2.29566406 -5.31515625 2.02882812 -4.3828125 1.75390625 C-2.01724619 1.07386174 -2.01724619 1.07386174 0 0 Z " fill="#C04CFB" transform="translate(40,43)"/>
<path d="M0 0 C0.33 0 0.66 0 1 0 C1.21432579 6.64409958 0.51233701 12.53205867 -1 19 C-2.65 19 -4.3 19 -6 19 C-6.33 16.36 -6.66 13.72 -7 11 C-6.34 11 -5.68 11 -5 11 C-4.9175 10.113125 -4.835 9.22625 -4.75 8.3125 C-3.90373668 4.57483702 -2.60176369 2.76437392 0 0 Z " fill="#CF59FF" transform="translate(10,21)"/>
<path d="M0 0 C0.33 0.66 0.66 1.32 1 2 C1.99 2.33 2.98 2.66 4 3 C4 5.66666667 4 8.33333333 4 11 C1 13 1 13 -2 13 C-2.66 11.02 -3.32 9.04 -4 7 C-3.67 6.67 -3.34 6.34 -3 6 C-3.61488281 6.16757812 -4.22976562 6.33515625 -4.86328125 6.5078125 C-5.67152344 6.71148437 -6.47976562 6.91515625 -7.3125 7.125 C-8.51326172 7.43824219 -8.51326172 7.43824219 -9.73828125 7.7578125 C-12 8 -12 8 -15 6 C-14.16855469 5.81824219 -13.33710938 5.63648438 -12.48046875 5.44921875 C-11.39378906 5.19785156 -10.30710937 4.94648437 -9.1875 4.6875 C-7.56908203 4.32205078 -7.56908203 4.32205078 -5.91796875 3.94921875 C-3.0552844 3.01798408 -1.84602934 2.31239465 0 0 Z " fill="#48365B" transform="translate(41,39)"/>
<path d="M0 0 C1.65 0 3.3 0 5 0 C5 1.98 5 3.96 5 6 C2.69 7.32 0.38 8.64 -2 10 C-2.33 9.34 -2.66 8.68 -3 8 C-4.65 8 -6.3 8 -8 8 C-8 6.02 -8 4.04 -8 2 C-5.36 2 -2.72 2 0 2 C0 1.34 0 0.68 0 0 Z " fill="#CD3BFF" transform="translate(32,27)"/>
<path d="M0 0 C3.37462715 0.54723683 5.08235 1.0549 8 3 C7.67 3.99 7.34 4.98 7 6 C7.66 6 8.32 6 9 6 C9.33 7.98 9.66 9.96 10 12 C3.74117647 12.36108597 3.74117647 12.36108597 0.5625 10.8125 C-1 9 -1 9 -1.25 6.3125 C-1.1675 5.549375 -1.085 4.78625 -1 4 C1.475 5.485 1.475 5.485 4 7 C3.67 5.35 3.34 3.7 3 2 C2.01 1.67 1.02 1.34 0 1 C0 0.67 0 0.34 0 0 Z " fill="#B746F8" transform="translate(21,44)"/>
<path d="M0 0 C0.66 0.33 1.32 0.66 2 1 C0 4 0 4 -3 5 C-3.05399736 6.45792884 -3.09279177 7.91642712 -3.125 9.375 C-3.14820313 10.18710937 -3.17140625 10.99921875 -3.1953125 11.8359375 C-3.21370051 14.21342243 -3.21370051 14.21342243 -1 16 C-1 16.99 -1 17.98 -1 19 C-2.9375 18.1875 -2.9375 18.1875 -5 17 C-5.33 16.01 -5.66 15.02 -6 14 C-6.99 14.33 -7.98 14.66 -9 15 C-8.41554702 9.63257464 -7.61765003 6.01161124 -3.375 2.4375 C-2.26645085 1.60269462 -1.14657651 0.78175671 0 0 Z " fill="#C948FF" transform="translate(28,23)"/>
<path d="M0 0 C0.185625 0.5775 0.37125 1.155 0.5625 1.75 C2.70551122 5.10427843 5.48822563 6.17907996 9 8 C8.67 8.66 8.34 9.32 8 10 C7.34 9.67 6.68 9.34 6 9 C2.85849194 8.02340076 0.03060885 7.89433409 -3.25 7.9375 C-4.58804688 7.95103516 -4.58804688 7.95103516 -5.953125 7.96484375 C-6.62859375 7.97644531 -7.3040625 7.98804688 -8 8 C-8 7.34 -8 6.68 -8 6 C-6.68 5.34 -5.36 4.68 -4 4 C-5.65 3.67 -7.3 3.34 -9 3 C-6.38997624 -0.48003168 -4.1689578 -0.27793052 0 0 Z " fill="#D1AEEE" transform="translate(42,10)"/>
<path d="M0 0 C1.98 0.66 3.96 1.32 6 2 C7.34042346 7.36169382 6.96818443 10.30671168 4.2421875 15.12890625 C2.4254234 17.86547858 0.59858197 19.98609898 -2 22 C-4.3125 21.8125 -4.3125 21.8125 -6 21 C-6 20.34 -6 19.68 -6 19 C-5.236875 18.896875 -4.47375 18.79375 -3.6875 18.6875 C-0.70093135 17.92349407 0.07957154 17.33194885 2 15 C3.49718028 11.47524822 4.69947509 7.74691241 3.23046875 4.078125 C2.04050419 2.23907353 2.04050419 2.23907353 0 0 Z " fill="#A440F3" transform="translate(40,21)"/>
<path d="M0 0 C1.32 0 2.64 0 4 0 C4 2.31 4 4.62 4 7 C5.32 7.33 6.64 7.66 8 8 C3.545 9.485 3.545 9.485 -1 11 C-1 10.34 -1 9.68 -1 9 C-1.66 8.67 -2.32 8.34 -3 8 C-2.01 7.01 -1.02 6.02 0 5 C-1.32 4.67 -2.64 4.34 -4 4 C-3.34 4 -2.68 4 -2 4 C-2 3.34 -2 2.68 -2 2 C-1.34 2 -0.68 2 0 2 C0 1.34 0 0.68 0 0 Z " fill="#BD40FB" transform="translate(28,8)"/>
<path d="M0 0 C1.65 0.99 3.3 1.98 5 3 C5.33 2.34 5.66 1.68 6 1 C6.66 1 7.32 1 8 1 C10.6875 3.8125 10.6875 3.8125 13 7 C12.67 7.99 12.34 8.98 12 10 C10.68 9.01 9.36 8.02 8 7 C7.01 8.485 7.01 8.485 6 10 C2.51668565 6.98112756 1.20842856 4.43090471 0 0 Z " fill="#A43AF0" transform="translate(13,42)"/>
<path d="M0 0 C0.33 0.99 0.66 1.98 1 3 C1.99 3.33 2.98 3.66 4 4 C2.35 5.65 0.7 7.3 -1 9 C-3.97 8.01 -6.94 7.02 -10 6 C-8.80702902 3.61405803 -7.85642735 3.16265153 -5.5625 1.875 C-4.94503906 1.52179687 -4.32757813 1.16859375 -3.69140625 0.8046875 C-2 0 -2 0 0 0 Z M-4 4 C-3 7 -3 7 -3 7 Z " fill="#3A2F4A" transform="translate(39,32)"/>
<path d="M0 0 C-2.05372584 3.08058876 -3.65671195 4.48032361 -7 6 C-7.99 6.804375 -7.99 6.804375 -9 7.625 C-11 9 -11 9 -15 9 C-12.8208648 2.46259441 -6.57563012 -0.80190611 0 0 Z " fill="#D260FF" transform="translate(27,6)"/>
<path d="M0 0 C0.66 0.33 1.32 0.66 2 1 C0.75443908 1.81928886 -0.49666635 2.63015186 -1.75 3.4375 C-2.44609375 3.88996094 -3.1421875 4.34242187 -3.859375 4.80859375 C-7.82664894 7.0166568 -11.25251968 7.11604143 -15.75 7.0625 C-16.73484375 7.05347656 -17.7196875 7.04445313 -18.734375 7.03515625 C-19.48203125 7.02355469 -20.2296875 7.01195312 -21 7 C-21 6.34 -21 5.68 -21 5 C-19.90300781 4.89042969 -18.80601563 4.78085937 -17.67578125 4.66796875 C-16.22128484 4.50844334 -14.76686137 4.34825187 -13.3125 4.1875 C-12.59126953 4.11724609 -11.87003906 4.04699219 -11.12695312 3.97460938 C-6.65395054 3.46399264 -3.83961719 2.48613432 0 0 Z " fill="#5A317E" transform="translate(47,51)"/>
<path d="M0 0 C-3.33562767 4.51290803 -5.33289301 6.68206814 -11 8 C-11.33 7.01 -11.66 6.02 -12 5 C-10.625 3.5 -10.625 3.5 -9 2 C-8.34 2 -7.68 2 -7 2 C-7 1.34 -7 0.68 -7 0 C-4.3333581 -1.33332095 -2.83319697 -0.67102033 0 0 Z " fill="#BB53EF" transform="translate(55,45)"/>
<path d="M0 0 C8.23118856 5.22584762 8.23118856 5.22584762 9.5 9.875 C9.665 10.90625 9.83 11.9375 10 13 C5.3539903 10.19078484 2.13783566 7.46903867 -1 3 C-0.67 2.01 -0.34 1.02 0 0 Z " fill="#BD7BE8" transform="translate(49,10)"/>
<path d="M0 0 C-1 3 -1 3 -3 4.4375 C-5.29189635 6.22804402 -5.61121002 7.18127263 -6 10 C-6.33 9.34 -6.66 8.68 -7 8 C-8.65 8.66 -10.3 9.32 -12 10 C-9.16127726 4.89029907 -6.29640662 0 0 0 Z " fill="#6F3892" transform="translate(28,13)"/>
<path d="M0 0 C0.99 0.33 1.98 0.66 3 1 C1.66666667 2.33333333 0.33333333 3.66666667 -1 5 C-1.845625 5.86625 -2.69125 6.7325 -3.5625 7.625 C-6 10 -6 10 -9 12 C-9.66 11.34 -10.32 10.68 -11 10 C-10.34 10 -9.68 10 -9 10 C-8.91492188 9.40832031 -8.82984375 8.81664062 -8.7421875 8.20703125 C-7.78812123 5.36993945 -6.51439996 4.45110473 -4.125 2.6875 C-3.07699219 1.88892578 -3.07699219 1.88892578 -2.0078125 1.07421875 C-1.34523438 0.71972656 -0.68265625 0.36523438 0 0 Z " fill="#9542C8" transform="translate(23,11)"/>
<path d="M0 0 C0.33 0.66 0.66 1.32 1 2 C-0.75 5 -0.75 5 -3 8 C-4.32 8 -5.64 8 -7 8 C-7.36275695 3.52599758 -7.36275695 3.52599758 -5.75 1.1875 C-4 0 -4 0 0 0 Z " fill="#D069FF" transform="translate(23,21)"/>
<path d="M0 0 C2.84042412 0.02954379 5.66508848 -0.06590599 8.50390625 -0.16015625 C11 0 11 0 13 2 C8.71702469 3.05619003 4.57014354 3.11702092 0.1875 3.0625 C-0.50537109 3.05798828 -1.19824219 3.05347656 -1.91210938 3.04882812 C-3.60811068 3.03713156 -5.30406703 3.01919924 -7 3 C-7 2.34 -7 1.68 -7 1 C-3.375 -1.125 -3.375 -1.125 0 0 Z " fill="#D081FD" transform="translate(36,17)"/>
<path d="M0 0 C1.65 0 3.3 0 5 0 C5 0.99 5 1.98 5 3 C6.32 3.66 7.64 4.32 9 5 C9 5.66 9 6.32 9 7 C6.69 6.67 4.38 6.34 2 6 C1.34 4.02 0.68 2.04 0 0 Z " fill="#D59BF3" transform="translate(24,35)"/>
<path d="M0 0 C6.51722911 0.33709806 9.32539218 1.44225737 14 6 C12 7 12 7 9.6875 6.328125 C8.800625 5.97234375 7.91375 5.6165625 7 5.25 C6.113125 4.90453125 5.22625 4.5590625 4.3125 4.203125 C2 3 2 3 0 0 Z " fill="#27252B" transform="translate(11,50)"/>
<path d="M0 0 C1 2 1 2 1 6 C0.34 6.66 -0.32 7.32 -1 8 C-1.16687448 10.58354218 -1.16687448 10.58354218 -1 13 C-3.5 11.625 -3.5 11.625 -6 10 C-6 9.34 -6 8.68 -6 8 C-5 7 -4 6 -3 5 C-1.96642853 3.35394174 -0.95939668 1.69036558 0 0 Z " fill="#C32AFE" transform="translate(18,32)"/>
<path d="M0 0 C3.23356015 1.21258505 4.00856305 2.01284458 6 5 C3 7 3 7 0 7 C-0.66 5.02 -1.32 3.04 -2 1 C-1.34 0.67 -0.68 0.34 0 0 Z " fill="#5F3592" transform="translate(39,45)"/>
<path d="M0 0 C0.33 0.66 0.66 1.32 1 2 C1.99 2 2.98 2 4 2 C4.33 1.34 4.66 0.68 5 0 C5.33 2.64 5.66 5.28 6 8 C3 8 3 8 1.3125 6.8125 C-0.40364695 4.44258278 -0.23187108 2.85974334 0 0 Z " fill="#62338D" transform="translate(5,38)"/>
<path d="M0 0 C3.875 1.875 3.875 1.875 5 3 C5.07179964 4.51928038 5.08392007 6.04167482 5.0625 7.5625 C5.05347656 8.38878906 5.04445313 9.21507812 5.03515625 10.06640625 C5.01775391 11.02353516 5.01775391 11.02353516 5 12 C4.01 12 3.02 12 2 12 C2.04125 10.7625 2.0825 9.525 2.125 8.25 C2.13658291 4.98362038 1.8568702 2.7853053 0 0 Z " fill="#D082FE" transform="translate(54,20)"/>
<path d="M0 0 C2.375 -0.1875 2.375 -0.1875 5 0 C7 3 7 3 7 6 C5.35 5.67 3.7 5.34 2 5 C2 4.34 2 3.68 2 3 C1.34 3 0.68 3 0 3 C0 2.01 0 1.02 0 0 Z " fill="#DBD4E5" transform="translate(28,47)"/>
<path d="M0 0 C1.61949011 2.57213134 2.04408751 3.67669159 1.625 6.75 C1.41875 7.4925 1.2125 8.235 1 9 C0.01 9 -0.98 9 -2 9 C-2.6875 6.75 -2.6875 6.75 -3 4 C-1.5625 1.6875 -1.5625 1.6875 0 0 Z " fill="#9846F8" transform="translate(8,31)"/>
<path d="M0 0 C1.1171875 1.703125 1.1171875 1.703125 2 4 C1.3203125 6.359375 1.3203125 6.359375 0.125 8.75 C-0.26429687 9.54921875 -0.65359375 10.3484375 -1.0546875 11.171875 C-1.36664063 11.77515625 -1.67859375 12.3784375 -2 13 C-2.66 13 -3.32 13 -4 13 C-3.71517632 11.58194169 -3.42181856 10.16559621 -3.125 8.75 C-2.96257813 7.96109375 -2.80015625 7.1721875 -2.6328125 6.359375 C-2.00849925 4.03168856 -1.15161458 2.10968048 0 0 Z " fill="#8D3BD7" transform="translate(7,19)"/>
<path d="M0 0 C0.33 0.99 0.66 1.98 1 3 C-0.32 3 -1.64 3 -3 3 C-2.67 3.99 -2.34 4.98 -2 6 C-2.99 7.485 -2.99 7.485 -4 9 C-4.66 6.69 -5.32 4.38 -6 2 C-2.25 0 -2.25 0 0 0 Z " fill="#CF4AFE" transform="translate(22,37)"/>
<path d="M0 0 C-1.27568089 2.84574968 -2.41496289 5.18089981 -5 7 C-7.6875 6.6875 -7.6875 6.6875 -10 6 C-8.80702902 3.61405803 -7.85642735 3.16265153 -5.5625 1.875 C-4.94503906 1.52179687 -4.32757813 1.16859375 -3.69140625 0.8046875 C-2 0 -2 0 0 0 Z " fill="#6933A0" transform="translate(39,32)"/>
<path d="M0 0 C0.763125 0.495 1.52625 0.99 2.3125 1.5 C4.92363751 3.24368308 4.92363751 3.24368308 8 3 C9.6875 4.5 9.6875 4.5 11 6 C7.52710626 6 5.19201574 5.35830457 2 4 C0.625 1.875 0.625 1.875 0 0 Z " fill="#2F2C32" transform="translate(7,45)"/>
<path d="M0 0 C-1.43333021 0.39063507 -2.87192679 0.76198474 -4.3125 1.125 C-5.51326172 1.43824219 -5.51326172 1.43824219 -6.73828125 1.7578125 C-9 2 -9 2 -12 0 C-3.96428571 -2.41071429 -3.96428571 -2.41071429 0 0 Z " fill="#7B30BD" transform="translate(38,45)"/>
<path d="M0 0 C0.93045933 2.55144824 1.08564091 3.74006478 0.22265625 6.359375 C-0.16019531 7.14828125 -0.54304688 7.9371875 -0.9375 8.75 C-1.50791016 9.94882812 -1.50791016 9.94882812 -2.08984375 11.171875 C-2.39019531 11.77515625 -2.69054688 12.3784375 -3 13 C-3.66 13 -4.32 13 -5 13 C-4.32116957 9.88452559 -3.25893098 7.14862279 -1.9375 4.25 C-1.57527344 3.45078125 -1.21304688 2.6515625 -0.83984375 1.828125 C-0.56269531 1.22484375 -0.28554688 0.6215625 0 0 Z " fill="#1F1F1F" transform="translate(47,28)"/>
<path d="M0 0 C0 0.66 0 1.32 0 2 C-1.49609375 3.21875 -1.49609375 3.21875 -3.4375 4.5 C-6.22531847 6.2865363 -6.22531847 6.2865363 -8 9 C-8.66 9 -9.32 9 -10 9 C-9.6121322 6.51339545 -9.29037521 5.27654781 -7.44140625 3.515625 C-6.82136719 3.09796875 -6.20132812 2.6803125 -5.5625 2.25 C-4.94503906 1.82203125 -4.32757812 1.3940625 -3.69140625 0.953125 C-2 0 -2 0 0 0 Z " fill="#C38CF6" transform="translate(22,11)"/>
<path d="M0 0 C0.66 0 1.32 0 2 0 C2 1.65 2 3.3 2 5 C2.99 5.33 3.98 5.66 5 6 C2.29120665 7.35439668 -0.00933268 7.06501451 -3 7 C-2.67 6.01 -2.34 5.02 -2 4 C-1.01 4.33 -0.02 4.66 1 5 C0.67 3.35 0.34 1.7 0 0 Z " fill="#CF91F5" transform="translate(34,48)"/>
<path d="M0 0 C0.9075 0.61875 1.815 1.2375 2.75 1.875 C5.14948817 3.44389611 7.40961612 4.80443821 10 6 C6.05272412 6.17942163 3.4019487 6.09350689 0 4 C0 2.68 0 1.36 0 0 Z " fill="#CE5DFE" transform="translate(20,48)"/>
<path d="M0 0 C2.97 0 5.94 0 9 0 C9 0.99 9 1.98 9 3 C7.68 3.33 6.36 3.66 5 4 C5 3.34 5 2.68 5 2 C3.35 2 1.7 2 0 2 C0 1.34 0 0.68 0 0 Z " fill="#D350FF" transform="translate(24,33)"/>
<path d="M0 0 C0.66 0.33 1.32 0.66 2 1 C-0.14822047 4.2223307 -1.7274751 5.08437567 -5 7 C-6.75149165 8.58245275 -6.75149165 8.58245275 -8 10 C-6.5682479 4.98886765 -4.01554307 3.05530451 0 0 Z " fill="#63359F" transform="translate(28,23)"/>
<path d="M0 0 C3.16115776 1.36983503 3.9927092 1.9890638 6 5 C5.67 5.99 5.34 6.98 5 8 C2.5 5.6875 2.5 5.6875 0 3 C0 2.01 0 1.02 0 0 Z " fill="#6C36BE" transform="translate(20,44)"/>
<path d="M0 0 C0.99 0.33 1.98 0.66 3 1 C1.35 2.98 -0.3 4.96 -2 7 C-2.99 6.67 -3.98 6.34 -5 6 C-3.35 4.02 -1.7 2.04 0 0 Z " fill="#A925E3" transform="translate(52,44)"/>
<path d="M0 0 C0.66 0.33 1.32 0.66 2 1 C2 3.97 2 6.94 2 10 C1.67 8.68 1.34 7.36 1 6 C0.01 5.67 -0.98 5.34 -2 5 C-1.34 3.35 -0.68 1.7 0 0 Z " fill="#332C3E" transform="translate(52,26)"/>
<path d="M0 0 C1.32 1.65 2.64 3.3 4 5 C3.34 6.32 2.68 7.64 2 9 C-1.07692308 4.56923077 -1.07692308 4.56923077 -0.6875 1.6875 C-0.460625 1.130625 -0.23375 0.57375 0 0 Z " fill="#D165FE" transform="translate(53,19)"/>
<path d="M0 0 C-2.46153846 3.81538462 -2.46153846 3.81538462 -5.1875 4.75 C-5.785625 4.8325 -6.38375 4.915 -7 5 C-7.33 3.68 -7.66 2.36 -8 1 C-5.29120665 -0.35439668 -2.99066732 -0.06501451 0 0 Z " fill="#C04FFF" transform="translate(27,6)"/>
<path d="M0 0 C0.33 0.99 0.66 1.98 1 3 C-0.32 4.32 -1.64 5.64 -3 7 C-3.66 5.68 -4.32 4.36 -5 3 C-4.360625 2.690625 -3.72125 2.38125 -3.0625 2.0625 C-1.06389179 1.1654837 -1.06389179 1.1654837 0 0 Z " fill="#332C39" transform="translate(52,37)"/>
<path d="M0 0 C3 1.75 3 1.75 6 4 C6 5.32 6 6.64 6 8 C4.125 7.375 4.125 7.375 2 6 C0.75 2.875 0.75 2.875 0 0 Z " fill="#6E36BF" transform="translate(21,34)"/>
<path d="M0 0 C0.66 0.33 1.32 0.66 2 1 C1.1875 3.9375 1.1875 3.9375 0 7 C-0.99 7.33 -1.98 7.66 -3 8 C-3 6.68 -3 5.36 -3 4 C-2.34 4 -1.68 4 -1 4 C-0.67 2.68 -0.34 1.36 0 0 Z " fill="#CF4DFF" transform="translate(15,32)"/>
<path d="M0 0 C3.3 0.33 6.6 0.66 10 1 C10 1.66 10 2.32 10 3 C6.04 3 2.08 3 -2 3 C-1.34 2.01 -0.68 1.02 0 0 Z " fill="#862ED8" transform="translate(30,23)"/>
<path d="M0 0 C1.98 1.65 3.96 3.3 6 5 C4.1875 5.6875 4.1875 5.6875 2 6 C0.25 4.5625 0.25 4.5625 -1 3 C-0.67 2.01 -0.34 1.02 0 0 Z " fill="#C9AAE7" transform="translate(49,10)"/>
<path d="M0 0 C3 1 3 1 4.1875 3.0625 C4.455625 3.701875 4.72375 4.34125 5 5 C3.02 5.99 3.02 5.99 1 7 C0 4 0 4 0 0 Z " fill="#3B2F4D" transform="translate(10,42)"/>
<path d="M0 0 C-1.1875 1.5 -1.1875 1.5 -3 3 C-5.6875 3.1875 -5.6875 3.1875 -8 3 C-7.34 2.67 -6.68 2.34 -6 2 C-6 1.34 -6 0.68 -6 0 C-3 -1 -3 -1 0 0 Z " fill="#CB5CFF" transform="translate(45,52)"/>
<path d="M0 0 C1.65 0 3.3 0 5 0 C4.01 1.485 4.01 1.485 3 3 C2.61500109 4.65549531 2.27206865 6.3222433 2 8 C0.23537317 4.91190305 0 3.76687864 0 0 Z " fill="#C83EFA" transform="translate(3,32)"/>
<path d="M0 0 C1.485 0.99 1.485 0.99 3 2 C2.625 3.9375 2.625 3.9375 2 6 C1.01 6.495 1.01 6.495 0 7 C-0.38133299 5.0085944 -0.71325582 3.00720923 -1 1 C-0.67 0.67 -0.34 0.34 0 0 Z " fill="#212321" transform="translate(49,23)"/>
<path d="M0 0 C0.33 0 0.66 0 1 0 C1 2.31 1 4.62 1 7 C0.01 7 -0.98 7 -2 7 C-2.125 4.625 -2.125 4.625 -2 2 C-1.34 1.34 -0.68 0.68 0 0 Z " fill="#D17CFE" transform="translate(10,21)"/>
<path d="M0 0 C1.32 0 2.64 0 4 0 C4 0.66 4 1.32 4 2 C1.6875 3.6875 1.6875 3.6875 -1 5 C-1.99 4.67 -2.98 4.34 -4 4 C-3.34 4 -2.68 4 -2 4 C-2 3.34 -2 2.68 -2 2 C-1.34 2 -0.68 2 0 2 C0 1.34 0 0.68 0 0 Z " fill="#C159F5" transform="translate(28,8)"/>
<path d="M0 0 C0.99 0 1.98 0 3 0 C2.67 2.31 2.34 4.62 2 7 C1.34 6.67 0.68 6.34 0 6 C0 4.02 0 2.04 0 0 Z " fill="#CF4BFF" transform="translate(56,32)"/>
<path d="M0 0 C1.65 0 3.3 0 5 0 C4.67 1.32 4.34 2.64 4 4 C2.02 4 0.04 4 -2 4 C-2 3.34 -2 2.68 -2 2 C-1.34 2 -0.68 2 0 2 C0 1.34 0 0.68 0 0 Z " fill="#C527FF" transform="translate(32,27)"/>
<path d="M0 0 C0 0.33 0 0.66 0 1 C-3.375 1.125 -3.375 1.125 -7 1 C-7.66 0.34 -8.32 -0.32 -9 -1 C-5.79937313 -2.60031344 -3.27728194 -1.03173691 0 0 Z " fill="#55378F" transform="translate(39,23)"/>
<path d="" fill="#353034" transform="translate(0,0)"/>
<path d="" fill="#383537" transform="translate(0,0)"/>
<path d="" fill="#383537" transform="translate(0,0)"/>
<path d="" fill="#332C31" transform="translate(0,0)"/>
<path d="" fill="#2D2B2E" transform="translate(0,0)"/>
<path d="" fill="#332C31" transform="translate(0,0)"/>
<path d="" fill="#2D2B2E" transform="translate(0,0)"/>
</svg>
