<?xml version="1.0" encoding="UTF-8"?>
<svg version="1.1" xmlns="http://www.w3.org/2000/svg" width="62" height="62">
<path d="M0 0 C2 1.875 2 1.875 3 4 C3 4.99 3 5.98 3 7 C3.928125 7.0825 4.85625 7.165 5.8125 7.25 C9 8 9 8 10.671875 9.6875 C14.82925921 16.92623956 11.83747426 27.4660371 9.84765625 35.16552734 C7.85413191 42.17870501 5.23828323 49.84114451 -1 54 C-3.66666667 54 -6.33333333 54 -9 54 C-9.99 54.66 -10.98 55.32 -12 56 C-15.375 56.4375 -15.375 56.4375 -19 56 C-22.15954305 53.45862841 -23.71540886 51.85377341 -25 48 C-25.03954234 45.66700175 -25.04401732 43.33291811 -25 41 C-25.99 40.67 -26.98 40.34 -28 40 C-31.51648171 33.70734853 -30.16226721 28.02027482 -28.3125 21.4375 C-26.60435995 16.20481746 -25.09088651 12.69177563 -21 9 C-20.195625 8.690625 -19.39125 8.38125 -18.5625 8.0625 C-15.14742113 6.64649169 -13.58740139 4.42095005 -11.33203125 1.55859375 C-8.23619585 -2.06380603 -4.21885868 -1.13020549 0 0 Z " fill="#F219F7" transform="translate(40,4)"/>
<path d="M0 0 C0.99 0.66 1.98 1.32 3 2 C3.47324696 7.69125561 2.64048434 12.64064455 1.1875 18.125 C1.02185547 18.80175781 0.85621094 19.47851562 0.68554688 20.17578125 C-0.69099345 25.54688576 -2.37923291 31.53442469 -7 35 C-7.99 35 -8.98 35 -10 35 C-8.68 36.65 -7.36 38.3 -6 40 C-7.0725 40.144375 -8.145 40.28875 -9.25 40.4375 C-14.2963463 41.18818613 -14.2963463 41.18818613 -19 43 C-22.3125 43.375 -22.3125 43.375 -26 43 C-29.15954305 40.45862841 -30.71540886 38.85377341 -32 35 C-32.03954234 32.66700175 -32.04401732 30.33291811 -32 28 C-32.99 27.67 -33.98 27.34 -35 27 C-38.01182085 21.61042584 -37.41197106 15.82438062 -36 10 C-35.67 10.99 -35.34 11.98 -35 13 C-33.35 13 -31.7 13 -30 13 C-29.34 14.32 -28.68 15.64 -28 17 C-27.38125 16.175 -26.7625 15.35 -26.125 14.5 C-25.42375 13.675 -24.7225 12.85 -24 12 C-23.34 12 -22.68 12 -22 12 C-22 13.65 -22 15.3 -22 17 C-18.37 17.66 -14.74 18.32 -11 19 C-10.67 18.34 -10.34 17.68 -10 17 C-10.33 18.98 -10.66 20.96 -11 23 C-10.01 23 -9.02 23 -8 23 C-7.34 18.71 -6.68 14.42 -6 10 C-5.67 10.99 -5.34 11.98 -5 13 C-4.34 13 -3.68 13 -3 13 C-3.61875 11.700625 -3.61875 11.700625 -4.25 10.375 C-5 7 -5 7 -3.1875 3.6875 C-1 1 -1 1 0 0 Z " fill="#E31DEB" transform="translate(47,17)"/>
<path d="M0 0 C8.63502756 -0.4390692 8.63502756 -0.4390692 13 3 C17.10871707 11.21743413 13.30250442 23.738389 10.67675781 32.11816406 C9.02464962 36.71212146 6.61037206 40.89301462 4 45 C2.35 44.34 0.7 43.68 -1 43 C-1 42.34 -1 41.68 -1 41 C-0.2575 40.649375 0.485 40.29875 1.25 39.9375 C7.67770468 35.40888988 8.89068683 26.39498554 10.47265625 19.109375 C11.11920607 15.29712571 11.22662793 11.85267482 11 8 C10.01 8 9.02 8 8 8 C5.53078472 10.99833285 4.94364062 12.40259059 5.3125 16.3125 C5.539375 17.199375 5.76625 18.08625 6 19 C5.34 19 4.68 19 4 19 C3.01 22.3 2.02 25.6 1 29 C0.01 29 -0.98 29 -2 29 C-2 27.68 -2 26.36 -2 25 C-2.93972656 24.90912109 -2.93972656 24.90912109 -3.8984375 24.81640625 C-4.71570312 24.73261719 -5.53296875 24.64882813 -6.375 24.5625 C-7.59316406 24.44068359 -7.59316406 24.44068359 -8.8359375 24.31640625 C-11 24 -11 24 -13 23 C-13 20.36 -13 17.72 -13 15 C-13.66 15 -14.32 15 -15 15 C-14.25 10.25 -14.25 10.25 -12 8 C-11.34 8 -10.68 8 -10 8 C-9.67 9.65 -9.34 11.3 -9 13 C-8.278125 12.649375 -7.55625 12.29875 -6.8125 11.9375 C-3.6877295 10.89590983 -2.11838004 11.10903428 1 12 C1.33 11.01 1.66 10.02 2 9 C2.66 9 3.32 9 4 9 C4.66 7.02 5.32 5.04 6 3 C4.68 3 3.36 3 2 3 C2 2.34 2 1.68 2 1 C1.34 0.67 0.68 0.34 0 0 Z " fill="#F74DF6" transform="translate(38,11)"/>
<path d="M0 0 C1.27832408 4.38857716 1.06690432 8.45050601 1 13 C4.63 13.66 8.26 14.32 12 15 C12.66 18.63 13.32 22.26 14 26 C12.6078125 25.938125 12.6078125 25.938125 11.1875 25.875 C7.84190281 25.72863661 7.84190281 25.72863661 5 28 C0.58003796 28.57295804 -1.28073636 28.54726581 -4.875 25.8125 C-6.99840626 23.00210936 -7.81191672 21.47954074 -8 18 C-7.67 17.34 -7.34 16.68 -7 16 C-5.68 16 -4.36 16 -3 16 C-2.80083984 14.39318359 -2.80083984 14.39318359 -2.59765625 12.75390625 C-2.4194944 11.35674231 -2.24109681 9.95960841 -2.0625 8.5625 C-1.93198242 7.50192383 -1.93198242 7.50192383 -1.79882812 6.41992188 C-1.11328125 1.11328125 -1.11328125 1.11328125 0 0 Z " fill="#3B2F3E" transform="translate(23,32)"/>
<path d="M0 0 C0.99 0.66 1.98 1.32 3 2 C3.47324696 7.69125561 2.64048434 12.64064455 1.1875 18.125 C1.02185547 18.80175781 0.85621094 19.47851562 0.68554688 20.17578125 C-0.71062321 25.62347886 -2.41026699 31.40803503 -7 35 C-7.66 35 -8.32 35 -9 35 C-10.34391564 30.96825309 -9.07912775 28.99774419 -7.59375 25.15625 C-6.74220496 22.84548867 -6.74220496 22.84548867 -8 20 C-7.66015625 17.51953125 -7.66015625 17.51953125 -7.0625 14.8125 C-6.77052734 13.46091797 -6.77052734 13.46091797 -6.47265625 12.08203125 C-6.31667969 11.39496094 -6.16070312 10.70789062 -6 10 C-5.67 10.99 -5.34 11.98 -5 13 C-4.34 13 -3.68 13 -3 13 C-3.4125 12.13375 -3.825 11.2675 -4.25 10.375 C-5 7 -5 7 -3.1875 3.6875 C-1 1 -1 1 0 0 Z " fill="#272626" transform="translate(47,17)"/>
<path d="M0 0 C1.9375 1.375 1.9375 1.375 2.6875 4 C2.81125 5.175625 2.81125 5.175625 2.9375 6.375 C1.9475 6.705 0.9575 7.035 -0.0625 7.375 C-0.0625 8.035 -0.0625 8.695 -0.0625 9.375 C1.2575 9.375 2.5775 9.375 3.9375 9.375 C3.2775 11.355 2.6175 13.335 1.9375 15.375 C1.2775 15.375 0.6175 15.375 -0.0625 15.375 C-0.3925 16.695 -0.7225 18.015 -1.0625 19.375 C-1.97 19.189375 -2.8775 19.00375 -3.8125 18.8125 C-6.74564324 18.41765379 -8.3269657 18.42808428 -11.0625 19.375 C-10.46760265 12.97985349 -7.58830957 9.67451909 -3.0625 5.375 C-6.42841866 6.81753657 -8.57297079 8.70764727 -11.0625 11.375 C-9.57198318 6.76794801 -7.27707741 3.91103516 -4.0625 0.375 C-2.0625 -0.625 -2.0625 -0.625 0 0 Z " fill="#FC13FB" transform="translate(40.0625,4.625)"/>
<path d="M0 0 C0.99 0 1.98 0 3 0 C4.37432457 3.81756824 3.67975039 7.07255329 3 11 C5.64 11.33 8.28 11.66 11 12 C11.66 10.35 12.32 8.7 13 7 C15.10619469 10.46902655 15.10619469 10.46902655 14.625 12.875 C14.315625 13.926875 14.315625 13.926875 14 15 C13.96154557 16.99963028 13.95455719 19.00051633 14 21 C13.01 21 12.02 21 11 21 C11 19.68 11 18.36 11 17 C10.06027344 16.90912109 10.06027344 16.90912109 9.1015625 16.81640625 C8.28429688 16.73261719 7.46703125 16.64882813 6.625 16.5625 C5.40683594 16.44068359 5.40683594 16.44068359 4.1640625 16.31640625 C2 16 2 16 0 15 C0 12.36 0 9.72 0 7 C-0.66 7 -1.32 7 -2 7 C-1.125 2.25 -1.125 2.25 0 0 Z " fill="#F982F9" transform="translate(25,19)"/>
<path d="M0 0 C8.38709677 -0.32258065 8.38709677 -0.32258065 11 2 C11.95024789 4.66069409 12.45974679 7.20869174 13 10 C11.02006459 9.69240822 9.04106401 9.3787932 7.0625 9.0625 C5.40927734 8.80146484 5.40927734 8.80146484 3.72265625 8.53515625 C1 8 1 8 0 7 C-0.04092937 4.66702567 -0.04241723 2.33294775 0 0 Z " fill="#171917" transform="translate(24,48)"/>
<path d="M0 0 C1.65 0.33 3.3 0.66 5 1 C5.33 2.98 5.66 4.96 6 7 C5.01 6.67 4.02 6.34 3 6 C2.34 7.65 1.68 9.3 1 11 C-0.32 10.67 -1.64 10.34 -3 10 C-3 9.01 -3 8.02 -3 7 C-4.65 7 -6.3 7 -8 7 C-8 5.02 -8 3.04 -8 1 C-6.00045254 0.95745644 -3.99958364 0.95919217 -2 1 C-1.67 1.33 -1.34 1.66 -1 2 C-0.67 1.34 -0.34 0.68 0 0 Z " fill="#FE31FF" transform="translate(20,23)"/>
<path d="M0 0 C0.33 0.66 0.66 1.32 1 2 C-0.1446875 2.804375 -0.1446875 2.804375 -1.3125 3.625 C-4.22864474 6.20205814 -5.4705622 8.45814404 -7 12 C-6.21625 11.175 -5.4325 10.35 -4.625 9.5 C-2 7 -2 7 0 7 C-1.23367942 10.70103827 -3.26809601 12.26809601 -6 15 C-6.33 15.99 -6.66 16.98 -7 18 C-9.475 17.01 -9.475 17.01 -12 16 C-10.88059018 11.14922412 -9.8665284 8.222107 -6 5 C-6.99 5 -7.98 5 -9 5 C-6.81610567 0.16423399 -5.20641855 -0.13701101 0 0 Z " fill="#FA55FA" transform="translate(37,3)"/>
<path d="M0 0 C-1.875 6.875 -1.875 6.875 -3 8 C-6.62059232 8.29356154 -8.87703962 7.85064319 -12 6 C-11.67 3.69 -11.34 1.38 -11 -1 C-6.70700357 -2.26264601 -4.12168689 -1.62950412 0 0 Z " fill="#FE1DFF" transform="translate(39,24)"/>
<path d="M0 0 C0.93972656 0.2165625 0.93972656 0.2165625 1.8984375 0.4375 C3.12433594 0.7159375 3.12433594 0.7159375 4.375 1 C5.18710938 1.185625 5.99921875 1.37125 6.8359375 1.5625 C8.95874951 2.06605239 8.95874951 2.06605239 11 2 C11 5.96 11 9.92 11 14 C10.67 13.01 10.34 12.02 10 11 C8.68 11 7.36 11 6 11 C5.67 11.66 5.34 12.32 5 13 C5 11.35 5 9.7 5 8 C4.01 7.67 3.02 7.34 2 7 C0.8125 3.4375 0.8125 3.4375 0 0 Z " fill="#EA22EB" transform="translate(10,37)"/>
<path d="M0 0 C0.33 0.99 0.66 1.98 1 3 C2.65 3 4.3 3 6 3 C6 4.65 6 6.3 6 8 C6.99 8.33 7.98 8.66 9 9 C8.67 10.32 8.34 11.64 8 13 C1.25 12.25 1.25 12.25 -1 10 C-0.9765625 7.6171875 -0.9765625 7.6171875 -0.625 4.875 C-0.51414062 3.96492188 -0.40328125 3.05484375 -0.2890625 2.1171875 C-0.19367187 1.41851563 -0.09828125 0.71984375 0 0 Z " fill="#DF17EB" transform="translate(11,27)"/>
<path d="M0 0 C0.99 0.66 1.98 1.32 3 2 C3.56737589 9.14893617 3.56737589 9.14893617 1 13 C-3.65540541 11.56756757 -3.65540541 11.56756757 -5.0625 9.25 C-4.95861226 5.51004131 -2.59920649 2.59920649 0 0 Z " fill="#373436" transform="translate(47,17)"/>
<path d="M0 0 C1.9375 1.375 1.9375 1.375 2.6875 4 C2.81125 5.175625 2.81125 5.175625 2.9375 6.375 C0.9575 6.705 -1.0225 7.035 -3.0625 7.375 C-3.0625 6.715 -3.0625 6.055 -3.0625 5.375 C-6.42841866 6.81753657 -8.57297079 8.70764727 -11.0625 11.375 C-9.57198318 6.76794801 -7.27707741 3.91103516 -4.0625 0.375 C-2.0625 -0.625 -2.0625 -0.625 0 0 Z " fill="#E71CE9" transform="translate(40.0625,4.625)"/>
<path d="M0 0 C-0.40137545 5.61925626 -2.17974459 8.08656763 -6 12 C-6.66 12 -7.32 12 -8 12 C-9.28799314 8.13602057 -8.42852971 6.47474844 -6.9609375 2.8125 C-6 1 -6 1 -3.9375 -0.5625 C-2 -1 -2 -1 0 0 Z " fill="#492A4B" transform="translate(46,40)"/>
<path d="M0 0 C3.96 0.33 7.92 0.66 12 1 C12.66 2.65 13.32 4.3 14 6 C13.34 6.66 12.68 7.32 12 8 C12 7.34 12 6.68 12 6 C8.7 5.67 5.4 5.34 2 5 C2 4.34 2 3.68 2 3 C1.01 3 0.02 3 -1 3 C-0.67 2.01 -0.34 1.02 0 0 Z " fill="#FE35FF" transform="translate(24,39)"/>
<path d="M0 0 C1.32 0 2.64 0 4 0 C4 2.64 4 5.28 4 8 C4.99 8.33 5.98 8.66 7 9 C7 9.66 7 10.32 7 11 C7.66 11.33 8.32 11.66 9 12 C3.53234266 11.51398601 3.53234266 11.51398601 1.1875 9.25 C-0.11526718 6.78159903 -0.7081389 4.77268046 -1 2 C-0.67 1.34 -0.34 0.68 0 0 Z " fill="#232322" transform="translate(16,48)"/>
<path d="M0 0 C0.33 0 0.66 0 1 0 C2.09580552 6.11997043 1.76334829 10.55528752 0.0625 16.5 C-0.13279297 17.22703125 -0.32808594 17.9540625 -0.52929688 18.703125 C-1.00651212 20.47231323 -1.5014022 22.23671851 -2 24 C-4.19861836 16.46187991 -1.30115268 7.57953019 0 0 Z " fill="#EF32F2" transform="translate(50,21)"/>
<path d="M0 0 C0.66 0.66 1.32 1.32 2 2 C1.625 4.125 1.625 4.125 1 6 C0.34 5.67 -0.32 5.34 -1 5 C-1.66 6.65 -2.32 8.3 -3 10 C-4.32 9.67 -5.64 9.34 -7 9 C-6.67 7.35 -6.34 5.7 -6 4 C-4.68 4 -3.36 4 -2 4 C-2 3.34 -2 2.68 -2 2 C-1.34 2 -0.68 2 0 2 C0 1.34 0 0.68 0 0 Z " fill="#FE58FE" transform="translate(24,24)"/>
<path d="M0 0 C2.625 -0.1875 2.625 -0.1875 5 0 C4.67 2.31 4.34 4.62 4 7 C2.35 7 0.7 7 -1 7 C-1.625 5.1875 -1.625 5.1875 -2 3 C-1.34 2.01 -0.68 1.02 0 0 Z " fill="#F914F9" transform="translate(15,18)"/>
<path d="M0 0 C3 1 3 1 4 3 C7.02934491 3.65772428 7.02934491 3.65772428 10 4 C9.67 4.99 9.34 5.98 9 7 C6.6875 7.6875 6.6875 7.6875 4 8 C1.48017068 6.38010972 1.05657891 5.22117209 0.3125 2.3125 C0.209375 1.549375 0.10625 0.78625 0 0 Z " fill="#E012E0" transform="translate(21,52)"/>
<path d="M0 0 C2.97 0 5.94 0 9 0 C8.34 1.98 7.68 3.96 7 6 C6.01 6 5.02 6 4 6 C4 5.01 4 4.02 4 3 C2.68 3 1.36 3 0 3 C0 2.01 0 1.02 0 0 Z " fill="#B015B8" transform="translate(32,18)"/>
<path d="M0 0 C0.33 0.66 0.66 1.32 1 2 C0.21625 2.61875 -0.5675 3.2375 -1.375 3.875 C-3.96837647 5.89858661 -3.96837647 5.89858661 -6 8 C-6 7.01 -6 6.02 -6 5 C-6.99 5 -7.98 5 -9 5 C-6.81610567 0.16423399 -5.20641855 -0.13701101 0 0 Z " fill="#FD2DFD" transform="translate(37,3)"/>
<path d="M0 0 C0.33 0 0.66 0 1 0 C1.33 1.65 1.66 3.3 2 5 C5.05263664 5.98120464 6.94736336 5.98120464 10 5 C9.34 6.32 8.68 7.64 8 9 C4.37471432 9.20140476 2.13498292 8.85776765 -1 7 C-0.67 4.69 -0.34 2.38 0 0 Z " fill="#FE3BFE" transform="translate(28,23)"/>
<path d="M0 0 C2.625 0.375 2.625 0.375 5 1 C5 1.33 5 1.66 5 2 C3.35 2 1.7 2 0 2 C0 2.99 0 3.98 0 5 C1.32 5 2.64 5 4 5 C3.67 5.99 3.34 6.98 3 8 C1 8 -1 8 -3 8 C-2.25 2.25 -2.25 2.25 0 0 Z " fill="#DE0DEC" transform="translate(32,16)"/>
<path d="M0 0 C0.99 0 1.98 0 3 0 C4.0326802 2.78823655 4.04509293 3.8677274 3.0625 6.75 C2.711875 7.4925 2.36125 8.235 2 9 C0.68 8.34 -0.64 7.68 -2 7 C-1.125 2.25 -1.125 2.25 0 0 Z " fill="#E6BDE5" transform="translate(25,19)"/>
<path d="M0 0 C0.33 0.99 0.66 1.98 1 3 C1.66 3 2.32 3 3 3 C2.34 5.64 1.68 8.28 1 11 C0.34 11 -0.32 11 -1 11 C-1.33 11.66 -1.66 12.32 -2 13 C-1.34 8.71 -0.68 4.42 0 0 Z " fill="#333032" transform="translate(41,27)"/>
<path d="M0 0 C0.99 0.66 1.98 1.32 3 2 C3.1875 4.625 3.1875 4.625 3 7 C1.68 6.67 0.36 6.34 -1 6 C-1.625 4.125 -1.625 4.125 -2 2 C-1.34 1.34 -0.68 0.68 0 0 Z " fill="#2C272B" transform="translate(47,17)"/>
<path d="M0 0 C6.0546875 -0.1953125 6.0546875 -0.1953125 8 0 C8.66 0.66 9.32 1.32 10 2 C7.64561267 3.42944945 6.51967567 4.08661261 3.75 3.625 C3.1725 3.41875 2.595 3.2125 2 3 C2 2.34 2 1.68 2 1 C1.34 0.67 0.68 0.34 0 0 Z " fill="#F966FA" transform="translate(38,11)"/>
<path d="M0 0 C0 0.66 0 1.32 0 2 C1.32 2 2.64 2 4 2 C4 2.66 4 3.32 4 4 C2.72125 4.061875 1.4425 4.12375 0.125 4.1875 C-0.59429687 4.22230469 -1.31359375 4.25710937 -2.0546875 4.29296875 C-2.69664063 4.19628906 -3.33859375 4.09960938 -4 4 C-4.66 3.01 -5.32 2.02 -6 1 C-4 0 -4 0 0 0 Z " fill="#FE23FF" transform="translate(40,12)"/>
<path d="M0 0 C0.99 0 1.98 0 3 0 C3 0.66 3 1.32 3 2 C3.61875 2.12375 4.2375 2.2475 4.875 2.375 C7 3 7 3 9 5 C6.03 4.67 3.06 4.34 0 4 C0 2.68 0 1.36 0 0 Z " fill="#DE18DB" transform="translate(23,42)"/>
<path d="M0 0 C2.475 0.99 2.475 0.99 5 2 C5 3.65 5 5.3 5 7 C4.01 7 3.02 7 2 7 C1.34 4.69 0.68 2.38 0 0 Z " fill="#422B44" transform="translate(10,37)"/>
<path d="M0 0 C0.66 0.66 1.32 1.32 2 2 C0.1875 4.5 0.1875 4.5 -2 7 C-2.99 7 -3.98 7 -5 7 C-4.60196439 4.11424181 -4.20990931 3.17810487 -1.9375 1.25 C-1.298125 0.8375 -0.65875 0.425 0 0 Z " fill="#FE4DFE" transform="translate(48,12)"/>
<path d="M0 0 C1.32 0.33 2.64 0.66 4 1 C3.34 2.32 2.68 3.64 2 5 C0.35 5 -1.3 5 -3 5 C-2.01 3.35 -1.02 1.7 0 0 Z " fill="#EF19F0" transform="translate(27,7)"/>
<path d="M0 0 C1.32 0 2.64 0 4 0 C4.33 1.65 4.66 3.3 5 5 C2.03 4.505 2.03 4.505 -1 4 C-0.67 2.68 -0.34 1.36 0 0 Z " fill="#29242A" transform="translate(32,53)"/>
<path d="M0 0 C0.33 0.66 0.66 1.32 1 2 C1.33 1.34 1.66 0.68 2 0 C2.99 0.33 3.98 0.66 5 1 C4.34 2.98 3.68 4.96 3 7 C1.68 5.68 0.36 4.36 -1 3 C-0.67 2.01 -0.34 1.02 0 0 Z " fill="#FB23FD" transform="translate(18,32)"/>
<path d="M0 0 C0.2475 0.556875 0.495 1.11375 0.75 1.6875 C2.21606015 4.39971127 4.02989471 6.63587365 6 9 C4.68 9.33 3.36 9.66 2 10 C0.39644899 6.49223216 -0.22036864 3.85645121 0 0 Z " fill="#F51BF3" transform="translate(35,48)"/>
<path d="M0 0 C0.33 0.99 0.66 1.98 1 3 C-1.31 3.33 -3.62 3.66 -6 4 C-6.66 3.01 -7.32 2.02 -8 1 C-5.36 1.33 -2.72 1.66 0 2 C0 1.34 0 0.68 0 0 Z " fill="#FE2EFF" transform="translate(36,34)"/>
<path d="M0 0 C1.2065625 0.0309375 1.2065625 0.0309375 2.4375 0.0625 C2.1075 1.7125 1.7775 3.3625 1.4375 5.0625 C0.4475 4.7325 -0.5425 4.4025 -1.5625 4.0625 C-1.5625 3.4025 -1.5625 2.7425 -1.5625 2.0625 C-2.2225 1.7325 -2.8825 1.4025 -3.5625 1.0625 C-2.5625 0.0625 -2.5625 0.0625 0 0 Z " fill="#D10BD4" transform="translate(17.5625,17.9375)"/>
<path d="M0 0 C1.32 1.32 2.64 2.64 4 4 C2.02 4 0.04 4 -2 4 C-2.33 3.01 -2.66 2.02 -3 1 C-2.01 0.67 -1.02 0.34 0 0 Z " fill="#232123" transform="translate(27,52)"/>
<path d="M0 0 C0.33 0 0.66 0 1 0 C0.25 7.625 0.25 7.625 -2 11 C-2.05399736 9.54207116 -2.09279177 8.08357288 -2.125 6.625 C-2.15980469 5.40683594 -2.15980469 5.40683594 -2.1953125 4.1640625 C-2 2 -2 2 0 0 Z " fill="#FB32FA" transform="translate(49,34)"/>
<path d="M0 0 C1.65 0 3.3 0 5 0 C5.33 0.66 5.66 1.32 6 2 C4.02 3.32 2.04 4.64 0 6 C0 4 0 2 0 0 Z " fill="#F25FEF" transform="translate(32,3)"/>
<path d="M0 0 C1.31223496 3.93670488 0.24296256 6.12488144 -1 10 C-1.66 10 -2.32 10 -3 10 C-2.01 6.7 -1.02 3.4 0 0 Z " fill="#EF7DEE" transform="translate(47,38)"/>
<path d="M0 0 C0.99 1.32 1.98 2.64 3 4 C2.01 5.485 2.01 5.485 1 7 C0.67 6.34 0.34 5.68 0 5 C-2.01669827 3.86649466 -2.01669827 3.86649466 -4 3 C-3.01 2.67 -2.02 2.34 -1 2 C-0.67 1.34 -0.34 0.68 0 0 Z " fill="#FE52FF" transform="translate(35,40)"/>
<path d="M0 0 C1.32 0.33 2.64 0.66 4 1 C3.67 1.99 3.34 2.98 3 4 C0.69 3.67 -1.62 3.34 -4 3 C-2.68 2.67 -1.36 2.34 0 2 C0 1.34 0 0.68 0 0 Z " fill="#D40DE5" transform="translate(16,36)"/>
<path d="M0 0 C0.66 0 1.32 0 2 0 C2 2.64 2 5.28 2 8 C1.01 8 0.02 8 -1 8 C-0.67 5.36 -0.34 2.72 0 0 Z " fill="#FC6DFB" transform="translate(37,32)"/>
<path d="M0 0 C1.65 0 3.3 0 5 0 C5 0.99 5 1.98 5 3 C3.68 3.33 2.36 3.66 1 4 C0.67 2.68 0.34 1.36 0 0 Z " fill="#FB1FFF" transform="translate(10,34)"/>
<path d="M0 0 C2 3 2 3 1.625 5.6875 C1.41875 6.450625 1.2125 7.21375 1 8 C0.34 8 -0.32 8 -1 8 C-1.93065133 5.39417629 -2.14917407 4.35801776 -1.0625 1.75 C-0.711875 1.1725 -0.36125 0.595 0 0 Z " fill="#632F62" transform="translate(44,20)"/>
</svg>
