<?xml version="1.0" encoding="UTF-8"?>
<svg version="1.1" xmlns="http://www.w3.org/2000/svg" width="62" height="62">
<path d="M0 0 C2.475 0.495 2.475 0.495 5 1 C5.33 2.65 5.66 4.3 6 6 C6.62648438 6.04898437 7.25296875 6.09796875 7.8984375 6.1484375 C8.71570313 6.22320313 9.53296875 6.29796875 10.375 6.375 C11.59316406 6.47941406 11.59316406 6.47941406 12.8359375 6.5859375 C15 7 15 7 17 9 C17.25878906 10.99267578 17.25878906 10.99267578 17.265625 13.4453125 C17.26973389 14.35015381 17.27384277 15.25499512 17.27807617 16.18725586 C17.26881104 17.15671143 17.2595459 18.12616699 17.25 19.125 C17.24395752 20.11314697 17.23791504 21.10129395 17.23168945 22.11938477 C17.08433997 33.15630786 16.7219167 43.87051841 12 54 C8.37 54 4.74 54 1 54 C0.67 55.65 0.34 57.3 0 59 C-1.65 58.67 -3.3 58.34 -5 58 C-5.33 54.37 -5.66 50.74 -6 47 C-7.464375 46.855625 -8.92875 46.71125 -10.4375 46.5625 C-14.875 46.125 -14.875 46.125 -16 45 C-18.03945871 35.23703563 -17.56947596 20.13895192 -13 11 C-9.37 11 -5.74 11 -2 11 C-1.855625 9.55625 -1.71125 8.1125 -1.5625 6.625 C-1.125 2.25 -1.125 2.25 0 0 Z " fill="#FC44C6" transform="translate(31,3)"/>
<path d="M0 0 C0.33 0 0.66 0 1 0 C1.66 2.31 2.32 4.62 3 7 C5.97 7 8.94 7 12 7 C11.67 7.99 11.34 8.98 11 10 C5.555 9.505 5.555 9.505 0 9 C0 9.99 0 10.98 0 12 C0.886875 11.938125 1.77375 11.87625 2.6875 11.8125 C6.41260904 12.02335523 8.10437976 12.68350381 11 15 C12 16.75 12 16.75 12 19 C11.16212439 21.44512129 10.12452647 23.66098495 9 26 C5.37 26 1.74 26 -2 26 C-2.33 27.65 -2.66 29.3 -3 31 C-4.65 30.67 -6.3 30.34 -8 30 C-8.33 26.37 -8.66 22.74 -9 19 C-10.464375 18.855625 -11.92875 18.71125 -13.4375 18.5625 C-17.875 18.125 -17.875 18.125 -19 17 C-19.28898486 15.07051526 -19.50662879 13.13010372 -19.6875 11.1875 C-19.79449219 10.12917969 -19.90148438 9.07085937 -20.01171875 7.98046875 C-19.99985952 4.96427127 -19.58867798 3.51388507 -18 1 C-18 1.99 -18 2.98 -18 4 C-14.37 4 -10.74 4 -7 4 C-6.67 3.01 -6.34 2.02 -6 1 C-5.67 2.98 -5.34 4.96 -5 7 C-3.68 7 -2.36 7 -1 7 C-0.67 4.69 -0.34 2.38 0 0 Z " fill="#D72B9C" transform="translate(34,31)"/>
<path d="M0 0 C-0.14053872 2.62538284 -0.28718947 5.25017427 -0.4375 7.875 C-0.47681641 8.62136719 -0.51613281 9.36773437 -0.55664062 10.13671875 C-0.88671875 15.7734375 -0.88671875 15.7734375 -2 18 C-3.32 18 -4.64 18 -6 18 C-6.66 17.01 -7.32 16.02 -8 15 C-10.66653905 14.63539547 -10.66653905 14.63539547 -13.625 14.8125 C-14.62789062 14.83957031 -15.63078125 14.86664063 -16.6640625 14.89453125 C-17.43492188 14.92933594 -18.20578125 14.96414062 -19 15 C-20.0070238 9.96488101 -19.97387813 6.76052962 -18 2 C-17.01 2.33 -16.02 2.66 -15 3 C-15 3.99 -15 4.98 -15 6 C-12.69 6 -10.38 6 -8 6 C-7.67 5.34 -7.34 4.68 -7 4 C-6.01 3.67 -5.02 3.34 -4 3 C-4 2.34 -4 1.68 -4 1 C-2 0 -2 0 0 0 Z " fill="#FE3CCB" transform="translate(35,20)"/>
<path d="M0 0 C0.33 0.99 0.66 1.98 1 3 C4.3 3 7.6 3 11 3 C11.05401695 5.91691525 11.09368066 8.83282724 11.125 11.75 C11.15013672 12.9875 11.15013672 12.9875 11.17578125 14.25 C11.18222656 15.04921875 11.18867187 15.8484375 11.1953125 16.671875 C11.20578613 17.4050293 11.21625977 18.13818359 11.22705078 18.89355469 C10.96777544 21.29896076 10.19225925 22.91251494 9 25 C8.29875 24.525625 7.5975 24.05125 6.875 23.5625 C3.83918663 21.91260143 1.40831214 21.39631536 -2 21 C-2 20.01 -2 19.02 -2 18 C1.63 18 5.26 18 9 18 C9.33 17.34 9.66 16.68 10 16 C9.37351562 16.09539063 8.74703125 16.19078125 8.1015625 16.2890625 C7.28429688 16.39992188 6.46703125 16.51078125 5.625 16.625 C4.40683594 16.79902344 4.40683594 16.79902344 3.1640625 16.9765625 C2.44992188 16.98429687 1.73578125 16.99203125 1 17 C-1 15 -1 15 -1.23046875 13.046875 C-1.1472759 8.59983917 -0.89765291 4.37605795 0 0 Z " fill="#D9DCD7" transform="translate(36,22)"/>
<path d="M0 0 C3.3 0 6.6 0 10 0 C10 0.66 10 1.32 10 2 C10.66 2.33 11.32 2.66 12 3 C11.01 5.31 10.02 7.62 9 10 C5.37 10 1.74 10 -2 10 C-2.33 11.65 -2.66 13.3 -3 15 C-4.65 14.67 -6.3 14.34 -8 14 C-8.02712066 12.56260487 -8.04645067 11.12506137 -8.0625 9.6875 C-8.07410156 8.88699219 -8.08570312 8.08648437 -8.09765625 7.26171875 C-8 5 -8 5 -7 2 C-5.33388095 1.957279 -3.66617115 1.95936168 -2 2 C-1.67 2.33 -1.34 2.66 -1 3 C-0.67 2.01 -0.34 1.02 0 0 Z " fill="#272727" transform="translate(34,47)"/>
<path d="M0 0 C1.79133978 -0.05391993 3.58313899 -0.09275571 5.375 -0.125 C6.37273438 -0.14820313 7.37046875 -0.17140625 8.3984375 -0.1953125 C11 0 11 0 13 2 C14.64991582 2.70710678 16.31562256 3.37943989 18 4 C18 7.3 18 10.6 18 14 C17.67 13.34 17.34 12.68 17 12 C15.35 12 13.7 12 12 12 C11.67 12.99 11.34 13.98 11 15 C11 11.7 11 8.4 11 5 C7.37 4.34 3.74 3.68 0 3 C0 2.01 0 1.02 0 0 Z " fill="#F442BC" transform="translate(15,37)"/>
<path d="M0 0 C-0.14053872 2.62538284 -0.28718947 5.25017427 -0.4375 7.875 C-0.47681641 8.62136719 -0.51613281 9.36773437 -0.55664062 10.13671875 C-0.88671875 15.7734375 -0.88671875 15.7734375 -2 18 C-3.32 18 -4.64 18 -6 18 C-7.47193312 15.05613377 -6.84936173 12.62609964 -6.5625 9.375 C-6.46066406 8.18648437 -6.35882812 6.99796875 -6.25390625 5.7734375 C-6.17011719 4.85820312 -6.08632813 3.94296875 -6 3 C-5.34 3 -4.68 3 -4 3 C-4 2.34 -4 1.68 -4 1 C-2 0 -2 0 0 0 Z " fill="#FE5ACD" transform="translate(35,20)"/>
<path d="M0 0 C3.96 0 7.92 0 12 0 C12.26785714 9.10714286 12.26785714 9.10714286 10 13 C9.29875 12.525625 8.5975 12.05125 7.875 11.5625 C4.83918663 9.91260143 2.40831214 9.39631536 -1 9 C-1 8.01 -1 7.02 -1 6 C2.63 6 6.26 6 10 6 C10.33 5.34 10.66 4.68 11 4 C10.37351562 4.09539063 9.74703125 4.19078125 9.1015625 4.2890625 C8.28429688 4.39992188 7.46703125 4.51078125 6.625 4.625 C5.81289063 4.74101563 5.00078125 4.85703125 4.1640625 4.9765625 C3.44992188 4.98429687 2.73578125 4.99203125 2 5 C1.34 4.34 0.68 3.68 0 3 C0 2.01 0 1.02 0 0 Z " fill="#FD60C9" transform="translate(35,34)"/>
<path d="M0 0 C0.7940625 -0.01417969 1.588125 -0.02835938 2.40625 -0.04296875 C4.5 0.1875 4.5 0.1875 6.5 2.1875 C6.72705078 4.43408203 6.72705078 4.43408203 6.6953125 7.1953125 C6.68564453 8.67451172 6.68564453 8.67451172 6.67578125 10.18359375 C6.65902344 11.21613281 6.64226563 12.24867187 6.625 13.3125 C6.61597656 14.35277344 6.60695313 15.39304687 6.59765625 16.46484375 C6.57403747 19.03929092 6.54110149 21.61328212 6.5 24.1875 C6.17 24.1875 5.84 24.1875 5.5 24.1875 C5.5 21.2175 5.5 18.2475 5.5 15.1875 C2.2 15.1875 -1.1 15.1875 -4.5 15.1875 C-4.17 14.1975 -3.84 13.2075 -3.5 12.1875 C-0.53 12.1875 2.44 12.1875 5.5 12.1875 C5.5 9.5475 5.5 6.9075 5.5 4.1875 C3.87509046 4.16051811 2.25005367 4.14111243 0.625 4.125 C-0.27992187 4.11339844 -1.18484375 4.10179687 -2.1171875 4.08984375 C-4.5168585 4.02500743 -4.5168585 4.02500743 -6.5 5.1875 C-6.5 3.8675 -6.5 2.5475 -6.5 1.1875 C-4.14653604 0.01076802 -2.6193967 0.02126134 0 0 Z " fill="#F47BC6" transform="translate(41.5,9.8125)"/>
<path d="M0 0 C0.9075 0.00257812 1.815 0.00515625 2.75 0.0078125 C4.11125 0.00394531 4.11125 0.00394531 5.5 0 C7.75 0.1328125 7.75 0.1328125 8.75 1.1328125 C8.57364548 3.82364122 8.13164079 6.46132696 7.75 9.1328125 C6.10369672 8.99238373 4.45795821 8.84531921 2.8125 8.6953125 C1.43771484 8.57349609 1.43771484 8.57349609 0.03515625 8.44921875 C-2.25 8.1328125 -2.25 8.1328125 -3.25 7.1328125 C-3.375 4.1328125 -3.375 4.1328125 -3.25 1.1328125 C-2.25 0.1328125 -2.25 0.1328125 0 0 Z " fill="#191B19" transform="translate(18.25,40.8671875)"/>
<path d="M0 0 C3.3 0 6.6 0 10 0 C11.4783226 2.95664519 11.06032783 5.74229737 11 9 C10.34 8.67 9.68 8.34 9 8 C6.6670134 7.95977609 4.33293334 7.95679753 2 8 C2 7.01 2 6.02 2 5 C0.68 5 -0.64 5 -2 5 C-2 4.01 -2 3.02 -2 2 C-1.34 2 -0.68 2 0 2 C0 1.34 0 0.68 0 0 Z " fill="#A52A79" transform="translate(18,18)"/>
<path d="M0 0 C1.65 0.33 3.3 0.66 5 1 C5.33 3.31 5.66 5.62 6 8 C5.34 8 4.68 8 4 8 C3.67 10.31 3.34 12.62 3 15 C2.01 15.33 1.02 15.66 0 16 C0 14.68 0 13.36 0 12 C-0.66 11.67 -1.32 11.34 -2 11 C-1.85892253 9.54119891 -1.71197585 8.08296449 -1.5625 6.625 C-1.48128906 5.81289062 -1.40007813 5.00078125 -1.31640625 4.1640625 C-1 2 -1 2 0 0 Z " fill="#F837BE" transform="translate(31,3)"/>
<path d="M0 0 C0.33 0.99 0.66 1.98 1 3 C4.3 3 7.6 3 11 3 C11 5.31 11 7.62 11 10 C10.401875 9.67 9.80375 9.34 9.1875 9 C6.94613529 7.79212012 6.94613529 7.79212012 4 8 C3.01 7.34 2.02 6.68 1 6 C0.67 6.66 0.34 7.32 0 8 C0 5.36 0 2.72 0 0 Z " fill="#ECF3EA" transform="translate(36,22)"/>
<path d="M0 0 C0.33 0.99 0.66 1.98 1 3 C4.63 3 8.26 3 12 3 C12.33 2.01 12.66 1.02 13 0 C13 2.31 13 4.62 13 7 C12.34 6.67 11.68 6.34 11 6 C9.12943209 5.7724985 7.25314042 5.59037189 5.375 5.4375 C3.87066406 5.31181641 3.87066406 5.31181641 2.3359375 5.18359375 C1.56507812 5.12300781 0.79421875 5.06242187 0 5 C0 5.99 0 6.98 0 8 C2.64 8 5.28 8 8 8 C8 8.33 8 8.66 8 9 C1.84765625 9.87890625 1.84765625 9.87890625 0 10 C-0.33 9.67 -0.66 9.34 -1 9 C-0.91062197 7.47480724 -0.75462854 5.95318071 -0.5625 4.4375 C-0.46066406 3.61121094 -0.35882813 2.78492188 -0.25390625 1.93359375 C-0.17011719 1.29550781 -0.08632812 0.65742187 0 0 Z " fill="#A82A76" transform="translate(15,32)"/>
<path d="M0 0 C0.5259375 0.7425 0.5259375 0.7425 1.0625 1.5 C3.94374289 3.73063966 6.47009026 3.19980621 10 3 C10 4.32 10 5.64 10 7 C6.37 7 2.74 7 -1 7 C-1.04254356 5.00045254 -1.04080783 2.99958364 -1 1 C-0.67 0.67 -0.34 0.34 0 0 Z " fill="#FF42C7" transform="translate(17,28)"/>
<path d="M0 0 C3.625 0.375 3.625 0.375 7 1 C7.33 2.65 7.66 4.3 8 6 C5.03 6 2.06 6 -1 6 C-1.33 4.68 -1.66 3.36 -2 2 C-1.34 1.34 -0.68 0.68 0 0 Z " fill="#FF2BBB" transform="translate(39,15)"/>
<path d="M0 0 C1.64574566 -0.02688151 3.29161413 -0.04634123 4.9375 -0.0625 C5.85402344 -0.07410156 6.77054688 -0.08570313 7.71484375 -0.09765625 C10 0 10 0 11 1 C10.82364548 3.69082872 10.38164079 6.32851446 10 9 C9.01 8.34 8.02 7.68 7 7 C7.33 6.67 7.66 6.34 8 6 C7.34 5.34 6.68 4.68 6 4 C5.67 3.34 5.34 2.68 5 2 C3.02 2 1.04 2 -1 2 C-0.67 1.34 -0.34 0.68 0 0 Z " fill="#3B2636" transform="translate(16,41)"/>
<path d="M0 0 C3.96 0 7.92 0 12 0 C12 1.98 12 3.96 12 6 C11.67 5.34 11.34 4.68 11 4 C10.37351562 4.09539063 9.74703125 4.19078125 9.1015625 4.2890625 C8.28429688 4.39992188 7.46703125 4.51078125 6.625 4.625 C5.81289063 4.74101563 5.00078125 4.85703125 4.1640625 4.9765625 C3.44992188 4.98429687 2.73578125 4.99203125 2 5 C1.34 4.34 0.68 3.68 0 3 C0 2.01 0 1.02 0 0 Z " fill="#FF53CE" transform="translate(35,34)"/>
<path d="M0 0 C0.99 0.33 1.98 0.66 3 1 C4.125 7.75 4.125 7.75 3 10 C1.35 9.67 -0.3 9.34 -2 9 C-1.41196203 5.97580475 -0.77321882 2.98241547 0 0 Z " fill="#1C1D1B" transform="translate(28,52)"/>
<path d="M0 0 C1.65 0 3.3 0 5 0 C5.33 2.31 5.66 4.62 6 7 C5.34 7 4.68 7 4 7 C3.34 6.01 2.68 5.02 2 4 C2 4.99 2 5.98 2 7 C1.34 7 0.68 7 0 7 C-0.33 7.66 -0.66 8.32 -1 9 C-0.67 6.03 -0.34 3.06 0 0 Z " fill="#452A3E" transform="translate(27,49)"/>
<path d="M0 0 C0.33 0 0.66 0 1 0 C1.66 2.31 2.32 4.62 3 7 C5.97 7 8.94 7 12 7 C11.67 7.99 11.34 8.98 11 10 C9.3739713 9.93999894 7.74898451 9.8512115 6.125 9.75 C4.76761719 9.68039063 4.76761719 9.68039063 3.3828125 9.609375 C1 9 1 9 -0.34375 7.125 C-1.1741851 4.43597204 -0.74405696 2.67860504 0 0 Z " fill="#F11FA8" transform="translate(34,31)"/>
<path d="M0 0 C0.33 0 0.66 0 1 0 C0.67 4.62 0.34 9.24 0 14 C-1.65 14.33 -3.3 14.66 -5 15 C-5 14.01 -5 13.02 -5 12 C-4.01 12 -3.02 12 -2 12 C-1.855625 10.7625 -1.71125 9.525 -1.5625 8.25 C-1.21311498 5.43495501 -0.79620634 2.7298503 0 0 Z " fill="#DFBCCE" transform="translate(34,20)"/>
<path d="M0 0 C2 3 2 3 1.625 5.6875 C1.41875 6.450625 1.2125 7.21375 1 8 C0.67 7.01 0.34 6.02 0 5 C-2.31 5 -4.62 5 -7 5 C-7 4.01 -7 3.02 -7 2 C-4.69 2 -2.38 2 0 2 C0 1.34 0 0.68 0 0 Z " fill="#F526AC" transform="translate(27,24)"/>
<path d="M0 0 C0.33 0.99 0.66 1.98 1 3 C2.65 3 4.3 3 6 3 C6 5 6 7 6 9 C4.35 8.01 2.7 7.02 1 6 C0.67 6.66 0.34 7.32 0 8 C0 5.36 0 2.72 0 0 Z " fill="#E1E7DE" transform="translate(36,22)"/>
<path d="M0 0 C3.625 0.125 3.625 0.125 6.625 1.125 C6.295 2.115 5.965 3.105 5.625 4.125 C4.51125 3.939375 3.3975 3.75375 2.25 3.5625 C-1.20068861 2.80819343 -1.20068861 2.80819343 -3.375 4.125 C-3.705 3.135 -4.035 2.145 -4.375 1.125 C-3.375 0.125 -3.375 0.125 0 0 Z " fill="#FF43D2" transform="translate(40.375,12.875)"/>
<path d="M0 0 C-2 3 -2 3 -5.125 3.6875 C-6.07375 3.790625 -7.0225 3.89375 -8 4 C-8.33 2.68 -8.66 1.36 -9 0 C-5.52176885 -1.15941038 -3.54104422 -0.70820884 0 0 Z " fill="#151715" transform="translate(43,52)"/>
<path d="M0 0 C2.0625 0.4375 2.0625 0.4375 4 1 C4 1.99 4 2.98 4 4 C3.01 4.66 2.02 5.32 1 6 C1 6.66 1 7.32 1 8 C0.34 8 -0.32 8 -1 8 C-1.04241723 5.66705225 -1.04092937 3.33297433 -1 1 C-0.67 0.67 -0.34 0.34 0 0 Z " fill="#1F201F" transform="translate(34,48)"/>
<path d="M0 0 C1.65 0.33 3.3 0.66 5 1 C4.67 2.32 4.34 3.64 4 5 C3.01 5 2.02 5 1 5 C0.01 5.495 0.01 5.495 -1 6 C-0.67 4.02 -0.34 2.04 0 0 Z " fill="#E265B5" transform="translate(31,3)"/>
<path d="M0 0 C0.33 1.32 0.66 2.64 1 4 C2.32 4 3.64 4 5 4 C5 4.66 5 5.32 5 6 C6.32 6.33 7.64 6.66 9 7 C2.84765625 7.09765625 2.84765625 7.09765625 1 7 C0 6 0 6 -0.0625 2.9375 C-0.041875 1.968125 -0.02125 0.99875 0 0 Z " fill="#DCAFC6" transform="translate(35,28)"/>
<path d="M0 0 C0.4125 0.474375 0.825 0.94875 1.25 1.4375 C3.182185 3.16266518 4.48192275 3.56584875 7 4 C7 4.33 7 4.66 7 5 C4.36 5 1.72 5 -1 5 C-0.67 3.35 -0.34 1.7 0 0 Z " fill="#FF70C8" transform="translate(17,28)"/>
<path d="M0 0 C0.33 1.32 0.66 2.64 1 4 C0.67 3.34 0.34 2.68 0 2 C-1.65 2 -3.3 2 -5 2 C-5.33 2.99 -5.66 3.98 -6 5 C-6 3.35 -6 1.7 -6 0 C-3.50907189 -1.24546405 -2.58919267 -0.7767578 0 0 Z " fill="#E81FA1" transform="translate(32,47)"/>
<path d="M0 0 C3.375 -0.125 3.375 -0.125 7 0 C7.66 0.66 8.32 1.32 9 2 C4.545 2.495 4.545 2.495 0 3 C0 2.01 0 1.02 0 0 Z " fill="#FF51CF" transform="translate(15,37)"/>
<path d="M0 0 C0.99 0 1.98 0 3 0 C3 1.98 3 3.96 3 6 C2.01 6.33 1.02 6.66 0 7 C0 4.69 0 2.38 0 0 Z " fill="#C62786" transform="translate(31,12)"/>
<path d="M0 0 C-0.33 0.99 -0.66 1.98 -1 3 C-3.97 2.505 -3.97 2.505 -7 2 C-7 1.34 -7 0.68 -7 0 C-3.86650268 -1.04449911 -3.01031744 -0.93423645 0 0 Z " fill="#D1D3D2" transform="translate(47,32)"/>
<path d="M0 0 C1.98 0 3.96 0 6 0 C5.67 1.32 5.34 2.64 5 4 C3.35 3.67 1.7 3.34 0 3 C0 2.01 0 1.02 0 0 Z " fill="#383537" transform="translate(21,20)"/>
<path d="M0 0 C0.33 0.99 0.66 1.98 1 3 C1.99 3 2.98 3 4 3 C3.67 3.66 3.34 4.32 3 5 C0.9375 5.625 0.9375 5.625 -1 6 C-1.625 4.125 -1.625 4.125 -2 2 C-1.34 1.34 -0.68 0.68 0 0 Z " fill="#F91CB9" transform="translate(39,15)"/>
<path d="M0 0 C2.375 -0.125 2.375 -0.125 5 0 C5.66 0.66 6.32 1.32 7 2 C6.67 2.99 6.34 3.98 6 5 C2.83884224 3.63016497 2.0072908 3.0109362 0 0 Z " fill="#F35AC0" transform="translate(41,10)"/>
</svg>
