<?xml version="1.0" encoding="UTF-8"?>
<svg version="1.1" xmlns="http://www.w3.org/2000/svg" width="62" height="62">
<path d="M0 0 C2.9375 0.0625 2.9375 0.0625 6 1 C6.474375 1.825 6.94875 2.65 7.4375 3.5 C7.953125 4.325 8.46875 5.15 9 6 C11.32031805 6.41434251 13.65639085 6.74889902 16 7 C19.00312465 8.86400841 19.65825187 11.45258086 20.57006836 14.77490234 C21.46232808 19.39276439 21.3691695 24.06227425 21.375 28.75 C21.39949219 29.7709375 21.42398438 30.791875 21.44921875 31.84375 C21.47691174 39.11777594 20.33204446 45.46519133 17 52 C13.78548731 53.60725635 10.56387464 53.05748185 7 53 C6.690625 53.804375 6.38125 54.60875 6.0625 55.4375 C5 58 5 58 4 59 C2.00041636 59.04080783 -0.00045254 59.04254356 -2 59 C-5.42857143 51.71428571 -5.42857143 51.71428571 -5 47 C-7.01822917 47.09765625 -9.03645833 47.1953125 -11.0546875 47.29296875 C-11.69664063 47.19628906 -12.33859375 47.09960938 -13 47 C-15.41600984 43.37598525 -15.52771126 40.40261541 -15.75 36.1875 C-15.79237793 35.43791016 -15.83475586 34.68832031 -15.87841797 33.91601562 C-16.18048611 26.80464019 -15.5504064 19.96620957 -14 13 C-11.95301586 10.95301586 -7.69588759 11.29954307 -5 11 C-4.80664062 10.37351562 -4.61328125 9.74703125 -4.4140625 9.1015625 C-4.15367188 8.28429688 -3.89328125 7.46703125 -3.625 6.625 C-3.24214844 5.40683594 -3.24214844 5.40683594 -2.8515625 4.1640625 C-2 2 -2 2 0 0 Z " fill="#F358B5" transform="translate(30,3)"/>
<path d="M0 0 C2.8125 0.1875 2.8125 0.1875 6 1 C6.474375 1.825 6.94875 2.65 7.4375 3.5 C7.953125 4.325 8.46875 5.15 9 6 C11.32031805 6.41434251 13.65639085 6.74889902 16 7 C19.65296871 9.26735989 20.03390902 13.00682394 21 17 C21.15373076 19.6212398 21.21609552 22.24941177 21.1875 24.875 C21.18105469 26.19242188 21.17460938 27.50984375 21.16796875 28.8671875 C21 32 21 32 20 33 C17.67206965 33.26189216 15.3368048 33.4601045 13 33.625 C11.72125 33.72039063 10.4425 33.81578125 9.125 33.9140625 C8.09375 33.94242188 7.0625 33.97078125 6 34 C4.34262632 32.34262632 4.57683632 30.24853576 4.31640625 27.96875 C4.19330078 26.92976563 4.07019531 25.89078125 3.94335938 24.8203125 C3.69304186 22.63805723 3.44303262 20.45576657 3.19335938 18.2734375 C2.45762407 12.06733864 1.47397638 6.07456933 0 0 Z " fill="#FB42BB" transform="translate(30,3)"/>
<path d="M0 0 C1.79244141 0.01740234 1.79244141 0.01740234 3.62109375 0.03515625 C5.41740234 0.04869141 5.41740234 0.04869141 7.25 0.0625 C8.17683594 0.07410156 9.10367187 0.08570313 10.05859375 0.09765625 C10.9999663 2.9217739 11.17584757 4.62683657 11.15625 7.546875 C11.15302734 8.39443359 11.14980469 9.24199219 11.14648438 10.11523438 C11.13810547 10.99630859 11.12972656 11.87738281 11.12109375 12.78515625 C11.11658203 13.67783203 11.11207031 14.57050781 11.10742188 15.49023438 C11.09564358 17.69277612 11.07919539 19.89518224 11.05859375 22.09765625 C9.07859375 22.09765625 7.09859375 22.09765625 5.05859375 22.09765625 C7.03859375 22.42765625 9.01859375 22.75765625 11.05859375 23.09765625 C11.05859375 24.74765625 11.05859375 26.39765625 11.05859375 28.09765625 C10.00671875 28.07703125 8.95484375 28.05640625 7.87109375 28.03515625 C3.35924179 28.03586649 3.35924179 28.03586649 -0.94140625 29.09765625 C-2.3160725 31.57401637 -2.3160725 31.57401637 -2.94140625 34.09765625 C-5.80792406 31.23113844 -5.49020675 28.20664582 -5.69140625 24.34765625 C-5.73378418 23.59355469 -5.77616211 22.83945312 -5.81982422 22.0625 C-6.12086475 14.93338097 -5.49573934 8.08150903 -3.94140625 1.09765625 C-2.94140625 0.09765625 -2.94140625 0.09765625 0 0 Z " fill="#FD2AB5" transform="translate(19.94140625,14.90234375)"/>
<path d="M0 0 C4.7608758 4.08319132 4.73398868 10.10038363 5.27929688 16.04443359 C5.4882306 19.25853071 5.63057822 22.46889037 5.75 25.6875 C5.80542969 26.77611328 5.86085938 27.86472656 5.91796875 28.98632812 C6.14882092 34.74014346 6.22563894 39.63621015 4 45 C-1.01392446 48.00835467 -6.46179043 46.80993579 -12 46 C-11.34 43.69 -10.68 41.38 -10 39 C-8.37585622 38.80522261 -6.75063577 38.61940542 -5.125 38.4375 C-3.76761719 38.28087891 -3.76761719 38.28087891 -2.3828125 38.12109375 C-0 38 -0 38 2 39 C2 37.35 2 35.7 2 34 C-0.31 34 -2.62 34 -5 34 C-4.67 33.34 -4.34 32.68 -4 32 C-2.02 32.33 -0.04 32.66 2 33 C1.67 25.74 1.34 18.48 1 11 C0.01 11.33 -0.98 11.66 -2 12 C-2.66 11.34 -3.32 10.68 -4 10 C-3.52449439 8.51965236 -3.04448784 7.04074979 -2.5625 5.5625 C-2.16224609 4.32693359 -2.16224609 4.32693359 -1.75390625 3.06640625 C-1 1 -1 1 0 0 Z " fill="#3F3339" transform="translate(29,4)"/>
<path d="M0 0 C2.97 0 5.94 0 9 0 C10 3 10 3 8.6875 6.625 C7 10 7 10 5 11 C2.3276379 11.13415472 -0.32250488 11.04318541 -3 11 C-3.309375 11.804375 -3.61875 12.60875 -3.9375 13.4375 C-5 16 -5 16 -6 17 C-7.65 17 -9.3 17 -11 17 C-9.68 13.04 -8.36 9.08 -7 5 C-5.35 4.67 -3.7 4.34 -2 4 C-1.34 2.68 -0.68 1.36 0 0 Z " fill="#222321" transform="translate(40,45)"/>
<path d="M0 0 C0.33 0 0.66 0 1 0 C1 1.65 1 3.3 1 5 C1.99 4.67 2.98 4.34 4 4 C5.56118428 3.93259135 7.1250252 3.91485544 8.6875 3.9375 C9.89986328 3.95103516 9.89986328 3.95103516 11.13671875 3.96484375 C12.05904297 3.98224609 12.05904297 3.98224609 13 4 C13 6.64 13 9.28 13 12 C9.7 12.33 6.4 12.66 3 13 C3 16.3 3 19.6 3 23 C2.34 23 1.68 23 1 23 C1 24.65 1 26.3 1 28 C0.67 28 0.34 28 0 28 C-0.125 21.375 -0.125 21.375 1 18 C0.34 18 -0.32 18 -1 18 C-1.33 18.99 -1.66 19.98 -2 21 C-2.33 20.67 -2.66 20.34 -3 20 C-2.96158081 17.7687316 -2.84335377 15.53865011 -2.6875 13.3125 C-2.60886719 12.09175781 -2.53023437 10.87101562 -2.44921875 9.61328125 C-2.02000055 6.16087401 -1.22184133 3.24660697 0 0 Z " fill="#CD288E" transform="translate(17,15)"/>
<path d="M0 0 C0.39832031 0.49113281 0.79664063 0.98226563 1.20703125 1.48828125 C3.5121755 3.43183425 4.7196719 3.316536 7.6875 3.1875 C8.89986328 3.14689453 8.89986328 3.14689453 10.13671875 3.10546875 C10.75160156 3.07066406 11.36648437 3.03585938 12 3 C13.16461426 6.49384279 13.13568319 9.33655389 13 13 C12 14 12 14 9.96875 14.1328125 C9.1540625 14.13023438 8.339375 14.12765625 7.5 14.125 C6.6853125 14.12757812 5.870625 14.13015625 5.03125 14.1328125 C3 14 3 14 2 13 C1.67 13.66 1.34 14.32 1 15 C0.01 15 -0.98 15 -2 15 C-2.05406122 13.06280622 -2.09282025 11.12518079 -2.125 9.1875 C-2.14820313 8.10855469 -2.17140625 7.02960937 -2.1953125 5.91796875 C-2 3 -2 3 0 0 Z " fill="#F2F6F2" transform="translate(38,20)"/>
<path d="M0 0 C0.66 0 1.32 0 2 0 C2 1.65 2 3.3 2 5 C2.66 4.01 3.32 3.02 4 2 C7.52360453 0.56445741 11.25199465 0.92792297 15 1 C15 1.99 15 2.98 15 4 C13.02 4 11.04 4 9 4 C11.97 4.495 11.97 4.495 15 5 C15 6.65 15 8.3 15 10 C13.948125 9.979375 12.89625 9.95875 11.8125 9.9375 C7.30064804 9.93821024 7.30064804 9.93821024 3 11 C1.62533375 13.47636012 1.62533375 13.47636012 1 16 C-1 14 -1 14 -1.23046875 11.50390625 C-1.21628906 10.53324219 -1.20210937 9.56257813 -1.1875 8.5625 C-1.18105469 7.59441406 -1.17460937 6.62632813 -1.16796875 5.62890625 C-1 3 -1 3 0 0 Z " fill="#F946B8" transform="translate(16,33)"/>
<path d="M0 0 C0.33 0 0.66 0 1 0 C1 2.97 1 5.94 1 9 C-4.55139349 11.48351814 -9.16524985 10.85330338 -15 10 C-14.34 7.69 -13.68 5.38 -13 3 C-11.37585622 2.80522261 -9.75063577 2.61940542 -8.125 2.4375 C-7.22007813 2.33308594 -6.31515625 2.22867188 -5.3828125 2.12109375 C-3 2 -3 2 -1 3 C-0.67 2.01 -0.34 1.02 0 0 Z " fill="#191B19" transform="translate(32,40)"/>
<path d="M0 0 C0.33 0 0.66 0 1 0 C1.33 2.64 1.66 5.28 2 8 C6.95 7.67 11.9 7.34 17 7 C16.67 8.65 16.34 10.3 16 12 C15.30132812 11.96519531 14.60265625 11.93039063 13.8828125 11.89453125 C12.97273438 11.86746094 12.06265625 11.84039062 11.125 11.8125 C10.22007813 11.77769531 9.31515625 11.74289063 8.3828125 11.70703125 C7.59648438 11.80371094 6.81015625 11.90039062 6 12 C5.01 13.485 5.01 13.485 4 15 C1.375 16.1875 1.375 16.1875 -1 17 C-0.83628906 16.30519531 -0.67257813 15.61039063 -0.50390625 14.89453125 C0.04095996 11.7647184 0.09738483 8.86201917 0.0625 5.6875 C0.05347656 4.61886719 0.04445312 3.55023437 0.03515625 2.44921875 C0.02355469 1.64097656 0.01195312 0.83273438 0 0 Z " fill="#F429AB" transform="translate(34,28)"/>
<path d="M0 0 C1.67542976 0.28604898 3.34385343 0.61781233 5 1 C5 2.32 5 3.64 5 5 C7.97 5.495 7.97 5.495 11 6 C11 6.33 11 6.66 11 7 C8.36 7 5.72 7 3 7 C2.690625 7.804375 2.38125 8.60875 2.0625 9.4375 C1 12 1 12 0 13 C-1.66617115 13.04063832 -3.33388095 13.042721 -5 13 C-4.35780498 11.01964979 -3.71114356 9.04074744 -3.0625 7.0625 C-2.70285156 5.96035156 -2.34320312 4.85820313 -1.97265625 3.72265625 C-1 1 -1 1 0 0 Z " fill="#1D1E1D" transform="translate(34,49)"/>
<path d="M0 0 C2.84824701 2.38784544 3.54279347 4.24921453 4.1875 7.875 C4.34605469 8.71804688 4.50460938 9.56109375 4.66796875 10.4296875 C4.99806419 12.98501452 5.05995262 15.42664901 5 18 C3 16.1875 3 16.1875 1 14 C1 13.01 1 12.02 1 11 C0.01 11.33 -0.98 11.66 -2 12 C-2.66 11.34 -3.32 10.68 -4 10 C-3.52449439 8.51965236 -3.04448784 7.04074979 -2.5625 5.5625 C-2.29566406 4.73878906 -2.02882813 3.91507812 -1.75390625 3.06640625 C-1 1 -1 1 0 0 Z " fill="#6C2D64" transform="translate(29,4)"/>
<path d="M0 0 C0.33 1.65 0.66 3.3 1 5 C2.32 4.67 3.64 4.34 5 4 C5 5.32 5 6.64 5 8 C-0.94 8.495 -0.94 8.495 -7 9 C-7 6.69 -7 4.38 -7 2 C-2.25 0 -2.25 0 0 0 Z " fill="#FF69BD" transform="translate(26,26)"/>
<path d="M0 0 C-0.42523816 1.60746056 -0.86570126 3.21089836 -1.3125 4.8125 C-1.55613281 5.70582031 -1.79976562 6.59914063 -2.05078125 7.51953125 C-3.0200819 10.05247738 -3.95009604 11.2716496 -6 13 C-9.42857143 5.71428571 -9.42857143 5.71428571 -9 1 C-5.91810344 0.08684546 -3.20344581 -0.04250011 0 0 Z " fill="#F02DAB" transform="translate(34,49)"/>
<path d="M0 0 C2.375 0.25 2.375 0.25 5 1 C5.28875 1.66 5.5775 2.32 5.875 3 C6.431875 3.99 6.431875 3.99 7 5 C9.3260857 5.38063221 11.66055264 5.71269945 14 6 C15.9375 7.5625 15.9375 7.5625 17 9 C16.67 9.99 16.34 10.98 16 12 C13.03 11.67 10.06 11.34 7 11 C6.34 8.69 5.68 6.38 5 4 C4.360625 3.896875 3.72125 3.79375 3.0625 3.6875 C2.381875 3.460625 1.70125 3.23375 1 3 C0.67 2.01 0.34 1.02 0 0 Z " fill="#ED87BF" transform="translate(32,4)"/>
<path d="M0 0 C0.66 0 1.32 0 2 0 C2 3.63 2 7.26 2 11 C2.99 11 3.98 11 5 11 C5.33 9.35 5.66 7.7 6 6 C6.33 7.32 6.66 8.64 7 10 C10.3 9.67 13.6 9.34 17 9 C16.67 9.99 16.34 10.98 16 12 C13.68802845 12.19390729 11.3753971 12.37996367 9.0625 12.5625 C7.77472656 12.66691406 6.48695312 12.77132812 5.16015625 12.87890625 C4.11730469 12.91886719 3.07445312 12.95882812 2 13 C0.18884044 11.18884044 0.61800552 8.38721773 0.4375 5.9375 C0.35371094 4.83277344 0.26992188 3.72804688 0.18359375 2.58984375 C0.09271484 1.30787109 0.09271484 1.30787109 0 0 Z " fill="#F280BF" transform="translate(34,24)"/>
<path d="M0 0 C0.33 0 0.66 0 1 0 C1 2.97 1 5.94 1 9 C-0.32 9 -1.64 9 -3 9 C-3.66 7.68 -4.32 6.36 -5 5 C-7.97 5 -10.94 5 -14 5 C-13.67 4.34 -13.34 3.68 -13 3 C-10.78515625 2.55078125 -10.78515625 2.55078125 -8.0625 2.3125 C-7.16660156 2.22613281 -6.27070313 2.13976563 -5.34765625 2.05078125 C-3 2 -3 2 -1 3 C-0.67 2.01 -0.34 1.02 0 0 Z " fill="#2F2D2F" transform="translate(32,40)"/>
<path d="M0 0 C2.97 0 5.94 0 9 0 C10 3 10 3 9 6 C8.01 5.67 7.02 5.34 6 5 C5.67 5 5.34 5 5 5 C2.81880738 4.50747263 1.00741649 4.00370824 -1 3 C-0.67 2.01 -0.34 1.02 0 0 Z " fill="#5D2E4D" transform="translate(40,45)"/>
<path d="M0 0 C1.32 0.33 2.64 0.66 4 1 C4 1.99 4 2.98 4 4 C4.99 4.66 5.98 5.32 7 6 C6.34 6 5.68 6 5 6 C5.99 7.485 5.99 7.485 7 9 C6.625 12.1875 6.625 12.1875 6 15 C3.61874536 12.61874536 2.99813759 10.66142433 1.875 7.5 C1.52179687 6.5203125 1.16859375 5.540625 0.8046875 4.53125 C0 2 0 2 0 0 Z " fill="#E02D9E" transform="translate(30,3)"/>
<path d="M0 0 C0.99 0 1.98 0 3 0 C3 1.65 3 3.3 3 5 C-0.96 5 -4.92 5 -9 5 C-8.67 4.01 -8.34 3.02 -8 2 C-6.865625 1.855625 -5.73125 1.71125 -4.5625 1.5625 C-1.19222799 1.38828522 -1.19222799 1.38828522 0 0 Z " fill="#D62F96" transform="translate(28,38)"/>
<path d="M0 0 C0.99 0.33 1.98 0.66 3 1 C3 4.96 3 8.92 3 13 C2.01 13 1.02 13 0 13 C-0.33 13.66 -0.66 14.32 -1 15 C-2 14 -2 14 -2.0625 11.4375 C-2.041875 10.633125 -2.02125 9.82875 -2 9 C-0.02 9.495 -0.02 9.495 2 10 C2 7.36 2 4.72 2 2 C0.35 2 -1.3 2 -3 2 C-2.01 1.34 -1.02 0.68 0 0 Z " fill="#EA269E" transform="translate(28,17)"/>
<path d="M0 0 C0.33 1.32 0.66 2.64 1 4 C0 5 0 5 -2.06640625 5.09765625 C-2.89011719 5.08605469 -3.71382812 5.07445312 -4.5625 5.0625 C-5.38878906 5.05347656 -6.21507812 5.04445313 -7.06640625 5.03515625 C-7.70449219 5.02355469 -8.34257813 5.01195312 -9 5 C-9 4.67 -9 4.34 -9 4 C-6.69 4 -4.38 4 -2 4 C-5.10540926 2.78918149 -5.10540926 2.78918149 -9 3 C-9 2.34 -9 1.68 -9 1 C-4.545 0.505 -4.545 0.505 0 0 Z " fill="#FE2FB8" transform="translate(50,35)"/>
<path d="M0 0 C0 0.99 0 1.98 0 3 C-0.886875 2.979375 -1.77375 2.95875 -2.6875 2.9375 C-5.62169631 2.99286219 -8.15493696 3.3305734 -11 4 C-11 3.01 -11 2.02 -11 1 C-7.32589215 -0.17571451 -3.83070817 -0.07366746 0 0 Z " fill="#F426AB" transform="translate(31,34)"/>
<path d="M0 0 C0.99 0.33 1.98 0.66 3 1 C3 2.98 3 4.96 3 7 C2.67 6.01 2.34 5.02 2 4 C-0.97 4 -3.94 4 -7 4 C-7.33 4.66 -7.66 5.32 -8 6 C-8 4.68 -8 3.36 -8 2 C-5.36 2 -2.72 2 0 2 C0 1.34 0 0.68 0 0 Z " fill="#F07CBA" transform="translate(48,19)"/>
<path d="M0 0 C1.65 0.33 3.3 0.66 5 1 C5 2.32 5 3.64 5 5 C7.97 5.495 7.97 5.495 11 6 C11 6.33 11 6.66 11 7 C8.36 7 5.72 7 3 7 C2.67 6.01 2.34 5.02 2 4 C1.01 3.67 0.02 3.34 -1 3 C-0.67 2.01 -0.34 1.02 0 0 Z " fill="#45333D" transform="translate(34,49)"/>
<path d="M0 0 C0 1.98 0 3.96 0 6 C-1.8125 5.8125 -1.8125 5.8125 -4 5 C-5.75 2.4375 -5.75 2.4375 -7 0 C-3.86650268 -1.04449911 -3.01031744 -0.93423645 0 0 Z " fill="#6F2F53" transform="translate(30,21)"/>
<path d="M0 0 C0.33 0 0.66 0 1 0 C1.33 1.98 1.66 3.96 2 6 C2.99 5.67 3.98 5.34 5 5 C5.33 5.66 5.66 6.32 6 7 C5.67 7.66 5.34 8.32 5 9 C4.34 9 3.68 9 3 9 C3 10.65 3 12.3 3 14 C2.34 14 1.68 14 1 14 C0.67 9.38 0.34 4.76 0 0 Z " fill="#FE2BB6" transform="translate(33,10)"/>
<path d="M0 0 C3.63 0.33 7.26 0.66 11 1 C10.67 1.99 10.34 2.98 10 4 C7.03 3.67 4.06 3.34 1 3 C0.67 2.01 0.34 1.02 0 0 Z " fill="#FE68BF" transform="translate(38,12)"/>
<path d="M0 0 C2.64 0 5.28 0 8 0 C8.66 1.98 9.32 3.96 10 6 C9.01 6.495 9.01 6.495 8 7 C7.34 6.34 6.68 5.68 6 5 C6 4.01 6 3.02 6 2 C3.69 2 1.38 2 -1 2 C-0.67 1.34 -0.34 0.68 0 0 Z " fill="#5B2A4D" transform="translate(25,36)"/>
<path d="M0 0 C0 1.98 0 3.96 0 6 C-0.99 6.495 -0.99 6.495 -2 7 C-2.99 6.67 -3.98 6.34 -5 6 C-4.67 4.35 -4.34 2.7 -4 1 C-1 0 -1 0 0 0 Z " fill="#E597C0" transform="translate(25,28)"/>
<path d="M0 0 C1.98 0.495 1.98 0.495 4 1 C3.67 3.31 3.34 5.62 3 8 C0.9375 6.25 0.9375 6.25 -1 4 C-0.75 1.75 -0.75 1.75 0 0 Z " fill="#252423" transform="translate(33,52)"/>
<path d="M0 0 C1.98 0 3.96 0 6 0 C6.33 0.99 6.66 1.98 7 3 C4.125 3.625 4.125 3.625 1 4 C0.34 3.34 -0.32 2.68 -1 2 C-0.67 1.34 -0.34 0.68 0 0 Z " fill="#EF2AA8" transform="translate(19,23)"/>
<path d="M0 0 C2.97 0 5.94 0 9 0 C9 0.66 9 1.32 9 2 C8.0925 2.144375 7.185 2.28875 6.25 2.4375 C3.78523044 2.86409473 1.41152893 3.35074221 -1 4 C-0.67 2.68 -0.34 1.36 0 0 Z " fill="#A12B74" transform="translate(21,19)"/>
<path d="M0 0 C0.33 0 0.66 0 1 0 C1 3.3 1 6.6 1 10 C0.01 9.67 -0.98 9.34 -2 9 C-1.125 1.125 -1.125 1.125 0 0 Z " fill="#303131" transform="translate(33,27)"/>
<path d="M0 0 C0.33 0 0.66 0 1 0 C1.12375 1.134375 1.2475 2.26875 1.375 3.4375 C1.58125 4.613125 1.7875 5.78875 2 7 C2.66 7.33 3.32 7.66 4 8 C3.67 9.32 3.34 10.64 3 12 C2.01 12 1.02 12 0 12 C0 8.04 0 4.08 0 0 Z " fill="#D5D7D5" transform="translate(36,23)"/>
<path d="M0 0 C0.66 0 1.32 0 2 0 C2.33 2.97 2.66 5.94 3 9 C2.01 9.495 2.01 9.495 1 10 C-0.60725635 6.78548731 -0.05748185 3.56387464 0 0 Z " fill="#F9FDF7" transform="translate(37,22)"/>
<path d="M0 0 C0.99 0.33 1.98 0.66 3 1 C2.67 2.32 2.34 3.64 2 5 C0.35 5.33 -1.3 5.66 -3 6 C-2.01 4.02 -1.02 2.04 0 0 Z " fill="#FF32B9" transform="translate(47,15)"/>
<path d="M0 0 C0.33 0 0.66 0 1 0 C1 2.97 1 5.94 1 9 C0.01 9 -0.98 9 -2 9 C-1.125 1.125 -1.125 1.125 0 0 Z " fill="#151815" transform="translate(32,40)"/>
<path d="M0 0 C0.33 0 0.66 0 1 0 C1 2.64 1 5.28 1 8 C0.01 8.33 -0.98 8.66 -2 9 C-1.125 1.125 -1.125 1.125 0 0 Z " fill="#AC2B78" transform="translate(17,15)"/>
<path d="M0 0 C2.375 0.1875 2.375 0.1875 5 1 C6.3125 3.5625 6.3125 3.5625 7 6 C6.34 6 5.68 6 5 6 C5 5.34 5 4.68 5 4 C4.360625 3.896875 3.72125 3.79375 3.0625 3.6875 C2.381875 3.460625 1.70125 3.23375 1 3 C0.67 2.01 0.34 1.02 0 0 Z " fill="#EF6BB5" transform="translate(32,4)"/>
<path d="M0 0 C1.98 0 3.96 0 6 0 C5.67 0.99 5.34 1.98 5 3 C4.01 2.67 3.02 2.34 2 2 C1.67 2.99 1.34 3.98 1 5 C0.67 5 0.34 5 0 5 C0 3.35 0 1.7 0 0 Z " fill="#FD65BC" transform="translate(18,15)"/>
<path d="M0 0 C1.32 1.32 2.64 2.64 4 4 C1.69 4 -0.62 4 -3 4 C-2.67 3.01 -2.34 2.02 -2 1 C-1.34 0.67 -0.68 0.34 0 0 Z " fill="#181A18" transform="translate(41,51)"/>
<path d="M0 0 C0.99 0.99 1.98 1.98 3 3 C2.67 3.66 2.34 4.32 2 5 C1.34 4.67 0.68 4.34 0 4 C-0.99 4.99 -1.98 5.98 -3 7 C-1.125 1.125 -1.125 1.125 0 0 Z " fill="#672F59" transform="translate(29,4)"/>
</svg>
