<?xml version="1.0" encoding="UTF-8"?>
<svg version="1.1" xmlns="http://www.w3.org/2000/svg" width="62" height="62">
<path d="M0 0 C1.35500919 1.31129922 2.68671343 2.64691687 4 4 C5.31684876 4.50374256 6.65308249 4.95827414 8 5.375 C10.96414251 6.43087266 12.0352866 7.03624029 14.3125 9.375 C19.10985225 19.68042335 20.83976272 31.59635829 17.13671875 42.5546875 C15.57160472 45.85411707 13.78127132 48.63627323 11 51 C8.3125 51.1875 8.3125 51.1875 6 51 C5.731875 51.78375 5.46375 52.5675 5.1875 53.375 C4 56 4 56 1 58 C-3.35833028 58.56496874 -5.2599988 58.55911202 -8.8125 55.875 C-11.04870871 52.93598284 -12.09005291 50.55706589 -13 47 C-13.763125 47.061875 -14.52625 47.12375 -15.3125 47.1875 C-18 47 -18 47 -19.55859375 45.88671875 C-24.80213052 39.02322753 -24.29739718 28.01266608 -23.6171875 19.83984375 C-22.93059096 16.68063057 -21.90762506 14.60088393 -20 12 C-19.175 11.71125 -18.35 11.4225 -17.5 11.125 C-13.78874265 9.45493419 -13.51587373 6.6633615 -12 3 C-8.11500079 -1.31666579 -5.5238188 -1.60692911 0 0 Z " fill="#EB3174" transform="translate(36,4)"/>
<path d="M0 0 C1.32 0 2.64 0 4 0 C4 0.66 4 1.32 4 2 C4.66 2 5.32 2 6 2 C6.50196571 4.95801222 7.00165835 7.91637705 7.5 10.875 C7.64308594 11.71675781 7.78617188 12.55851562 7.93359375 13.42578125 C8.06894531 14.23144531 8.20429687 15.03710938 8.34375 15.8671875 C8.46943359 16.61081543 8.59511719 17.35444336 8.72460938 18.12060547 C9 20 9 20 9 22 C10.32 22 11.64 22 13 22 C12.42805835 25.31726155 11.42999536 26.72635823 9 29 C10.41681634 28.68817931 11.83344651 28.37551263 13.25 28.0625 C14.03890625 27.88847656 14.8278125 27.71445312 15.640625 27.53515625 C17.76878703 27.052444 19.88532842 26.53836822 22 26 C19.11929171 36.21342032 19.11929171 36.21342032 15 39 C12.25 39.25 12.25 39.25 10 39 C9.731875 39.78375 9.46375 40.5675 9.1875 41.375 C8 44 8 44 5 46 C0.64166972 46.56496874 -1.2599988 46.55911202 -4.8125 43.875 C-7 41 -7 41 -8.0625 37.75 C-8.371875 36.8425 -8.68125 35.935 -9 35 C-11.03243548 34.03122943 -11.03243548 34.03122943 -13 34 C-10.97046933 29.14677448 -10.97046933 29.14677448 -9 27 C-6.56926558 26.32857336 -4.44297553 26.18856772 -1.92578125 26.16796875 C-1.29027344 26.11253906 -0.65476562 26.05710937 0 26 C0.33 25.34 0.66 24.68 1 24 C1.33 24.66 1.66 25.32 2 26 C2.05449228 23.16640156 2.09390733 20.33387515 2.125 17.5 C2.14175781 16.70851563 2.15851562 15.91703125 2.17578125 15.1015625 C2.21989226 9.72001921 1.50594058 5.17000073 0 0 Z " fill="#F04088" transform="translate(32,16)"/>
<path d="M0 0 C5.6640625 -0.2421875 5.6640625 -0.2421875 8.6875 1.9375 C13.38060751 8.15269643 14.41698872 14.35520679 14 22 C11.98177083 21.90234375 9.96354167 21.8046875 7.9453125 21.70703125 C7.30335937 21.80371094 6.66140625 21.90039062 6 22 C5.34 22.99 4.68 23.98 4 25 C3.01 25 2.02 25 1 25 C0.04541351 16.64736824 -0.11039334 8.40215965 0 0 Z " fill="#F971A0" transform="translate(40,10)"/>
<path d="M0 0 C1.32 0 2.64 0 4 0 C4 0.66 4 1.32 4 2 C4.66 2 5.32 2 6 2 C8.39349762 11.08246866 10.62761108 23.39699149 6 32 C-0.01921884 35.79472492 -6.06216576 35.30758871 -13 35 C-12.0297823 32.0214995 -10.97681119 29.45020545 -9 27 C-6.54560527 26.24909252 -4.48623327 26.12443132 -1.92578125 26.1328125 C-1.29027344 26.08898437 -0.65476562 26.04515625 0 26 C0.33 25.34 0.66 24.68 1 24 C1.33 24.66 1.66 25.32 2 26 C2.05449228 23.16640156 2.09390733 20.33387515 2.125 17.5 C2.14175781 16.70851563 2.15851562 15.91703125 2.17578125 15.1015625 C2.21989226 9.72001921 1.50594058 5.17000073 0 0 Z " fill="#383334" transform="translate(32,16)"/>
<path d="M0 0 C5.24689842 0.40360757 7.5355912 1.05774171 11 5 C13.13309192 6.23512079 13.13309192 6.23512079 15 7 C13.68 7 12.36 7 11 7 C11.16298584 7.72469482 11.32597168 8.44938965 11.49389648 9.19604492 C11.9699033 11.83325585 12.11490366 14.18993341 12.09765625 16.86328125 C12.09443359 17.74951172 12.09121094 18.63574219 12.08789062 19.54882812 C12.07951172 20.46083984 12.07113281 21.37285156 12.0625 22.3125 C12.05798828 23.24384766 12.05347656 24.17519531 12.04882812 25.13476562 C12.03709234 27.42324373 12.02067363 29.71158808 12 32 C12.99 31.67 13.98 31.34 15 31 C15.33 29.35 15.66 27.7 16 26 C16.33 26.99 16.66 27.98 17 29 C19.64 29 22.28 29 25 29 C25.33 28.34 25.66 27.68 26 27 C26.35778443 35.94461078 26.35778443 35.94461078 24 40 C20.09049449 41.57132049 16.18758481 42 12 42 C12.33 41.01 12.66 40.02 13 39 C13.99 38.505 13.99 38.505 15 38 C15.33 37.01 15.66 36.02 16 35 C14.68 35 13.36 35 12 35 C11.90203125 34.46375 11.8040625 33.9275 11.703125 33.375 C10.63736182 27.78893091 9.37171441 22.26739674 8 16.75 C7.8340332 16.07710937 7.66806641 15.40421875 7.49707031 14.7109375 C6.49940007 10.74377726 5.4942949 6.81103118 4 3 C1.96756452 2.03122943 1.96756452 2.03122943 0 2 C0 1.34 0 0.68 0 0 Z " fill="#FC5299" transform="translate(29,3)"/>
<path d="M0 0 C2.75 0.4375 2.75 0.4375 6 2 C7.84227891 4.82591455 9.15549222 7.73262854 10 11 C9.67 11.99 9.34 12.98 9 14 C9 13.34 9 12.68 9 12 C7.68 12 6.36 12 5 12 C5.49113281 13.1034375 5.98226562 14.206875 6.48828125 15.34375 C8.39301118 20.42302981 8.33955814 25.13507679 8.1875 30.5 C8.17396484 31.4178125 8.16042969 32.335625 8.14648438 33.28125 C8.11148097 35.52146803 8.06238869 37.76040594 8 40 C4.35071358 36.35071358 4.89091952 31.49687639 4.6875 26.5625 C4.29592583 21.31184634 3.80194856 17.90470392 0 14 C-3.10014929 12.11431306 -3.10014929 12.11431306 -6 11 C-5.57316368 9.72554546 -5.13302798 8.45554118 -4.6875 7.1875 C-4.44386719 6.47980469 -4.20023438 5.77210937 -3.94921875 5.04296875 C-2.93275742 2.85527627 -1.79179406 1.59103282 0 0 Z " fill="#C4326A" transform="translate(27,4)"/>
<path d="M0 0 C4.70672383 3.57061808 6.02068999 8.38748382 7 14 C6.99513148 17.0866423 6.60095945 19.97735245 6 23 C5.814375 24.010625 5.62875 25.02125 5.4375 26.0625 C5.293125 26.701875 5.14875 27.34125 5 28 C3.0625 27.25 3.0625 27.25 1 26 C0.25 23.875 0.25 23.875 0 22 C-0.99 22 -1.98 22 -3 22 C-4.15242265 18.42923589 -4.00821896 15.2851566 -3.75 11.5625 C-3.68296875 10.45003906 -3.6159375 9.33757813 -3.546875 8.19140625 C-2.96923693 4.82047551 -1.93767419 2.78670885 0 0 Z " fill="#B6305E" transform="translate(16,16)"/>
<path d="M0 0 C-3.34090909 7.15909091 -3.34090909 7.15909091 -6 9 C-8.6875 9.1875 -8.6875 9.1875 -11 9 C-11.268125 9.78375 -11.53625 10.5675 -11.8125 11.375 C-13 14 -13 14 -16 16 C-18.33199388 16.07905064 -20.66832622 16.08798769 -23 16 C-20 14 -20 14 -18 14 C-17.731875 13.278125 -17.46375 12.55625 -17.1875 11.8125 C-15.97381121 8.93797393 -14.91016194 6.47613585 -13 4 C-10.3125 3.6875 -10.3125 3.6875 -8 4 C-8 3.01 -8 2.02 -8 1 C-5.07175348 0.02391783 -3.04386724 -0.08226668 0 0 Z " fill="#312F30" transform="translate(53,46)"/>
<path d="M0 0 C0.99 0 1.98 0 3 0 C3.33 0.99 3.66 1.98 4 3 C5.299375 3.144375 6.59875 3.28875 7.9375 3.4375 C11.875 3.875 11.875 3.875 13 5 C13.04080783 6.99958364 13.04254356 9.00045254 13 11 C10.98177083 10.90234375 8.96354167 10.8046875 6.9453125 10.70703125 C6.30335937 10.80371094 5.66140625 10.90039062 5 11 C4.01 12.485 4.01 12.485 3 14 C2.01 14 1.02 14 0 14 C0 9.38 0 4.76 0 0 Z " fill="#E8EDE5" transform="translate(41,21)"/>
<path d="M0 0 C4.1901634 -0.49882898 5.71226646 -0.19920015 9.25 2.25 C13.14285714 6.14285714 13.14285714 6.14285714 14 9 C13.67 9.99 13.34 10.98 13 12 C10.69 11.67 8.38 11.34 6 11 C6 11.66 6 12.32 6 13 C5.34 13 4.68 13 4 13 C3.32694982 11.39850114 2.66177773 9.79368971 2 8.1875 C1.62875 7.29417969 1.2575 6.40085937 0.875 5.48046875 C0 3 0 3 0 0 Z " fill="#FA3F85" transform="translate(18,15)"/>
<path d="M0 0 C5.24689842 0.40360757 7.5355912 1.05774171 11 5 C13.13309192 6.23512079 13.13309192 6.23512079 15 7 C13.68 7 12.36 7 11 7 C11.20625 7.66 11.4125 8.32 11.625 9 C12.13703763 13.09630108 11.14033701 16.04235979 10 20 C9.67 20 9.34 20 9 20 C8.35284867 17.9170757 7.70732834 15.83364461 7.0625 13.75 C6.70285156 12.58984375 6.34320313 11.4296875 5.97265625 10.234375 C5.24933363 7.82910942 4.57457589 5.44345956 4 3 C2.68 2.67 1.36 2.34 0 2 C0 1.34 0 0.68 0 0 Z " fill="#DB3677" transform="translate(29,3)"/>
<path d="M0 0 C0.99 0 1.98 0 3 0 C4.04892238 1.63631892 5.04906703 3.30485863 6 5 C6.66 5.33 7.32 5.66 8 6 C8 4.35 8 2.7 8 1 C12.455 0.505 12.455 0.505 17 0 C17.33 0.66 17.66 1.32 18 2 C15.03 2.66 12.06 3.32 9 4 C8.8453125 5.670625 8.8453125 5.670625 8.6875 7.375 C8.460625 8.57125 8.23375 9.7675 8 11 C7.01 11.66 6.02 12.32 5 13 C2.03472242 10.5546615 1.44417786 8.55397653 0.8125 4.8125 C0.65394531 3.91144531 0.49539063 3.01039062 0.33203125 2.08203125 C0.22246094 1.39496094 0.11289063 0.70789062 0 0 Z " fill="#F86B9C" transform="translate(13,38)"/>
<path d="M0 0 C1 3 1 3 1 5 C1.66 5.33 2.32 5.66 3 6 C2.34 7.98 1.68 9.96 1 12 C1.66 12 2.32 12 3 12 C5.15305957 15.85756507 6.39253254 18.55129785 6 23 C4.6917422 21.03761331 3.43837744 19.03721846 2.25 17 C-0.22798024 13.69602635 -2.22232318 12.54541324 -6 11 C-5.57316368 9.72554546 -5.13302798 8.45554118 -4.6875 7.1875 C-4.44386719 6.47980469 -4.20023438 5.77210937 -3.94921875 5.04296875 C-2.93275742 2.85527627 -1.79179406 1.59103282 0 0 Z " fill="#863154" transform="translate(27,4)"/>
<path d="M0 0 C0 0.99 0 1.98 0 3 C0.33 3.99 0.66 4.98 1 6 C2.65 6 4.3 6 6 6 C5.4375 7.9375 5.4375 7.9375 4 10 C0.375 10.75 0.375 10.75 -3 11 C-3.83878455 9.71186658 -4.67086783 8.41936744 -5.5 7.125 C-5.9640625 6.40570313 -6.428125 5.68640625 -6.90625 4.9453125 C-8 3 -8 3 -8 1 C-5.36 0.67 -2.72 0.34 0 0 Z " fill="#F03077" transform="translate(31,50)"/>
<path d="M0 0 C0.99 0 1.98 0 3 0 C2.125 5.875 2.125 5.875 1 7 C-1.01964199 7.07244053 -3.04167124 7.08377188 -5.0625 7.0625 C-6.16722656 7.05347656 -7.27195312 7.04445313 -8.41015625 7.03515625 C-9.69212891 7.01775391 -9.69212891 7.01775391 -11 7 C-9.7265625 4.546875 -9.7265625 4.546875 -8 2 C-4.375 1.25 -4.375 1.25 -1 1 C-0.67 0.67 -0.34 0.34 0 0 Z " fill="#20211F" transform="translate(30,44)"/>
<path d="M0 0 C2.31 0 4.62 0 7 0 C7 2.64 7 5.28 7 8 C4.69 8 2.38 8 0 8 C0 5.36 0 2.72 0 0 Z " fill="#FBFEFA" transform="translate(24,26)"/>
<path d="M0 0 C-0.309375 0.7425 -0.61875 1.485 -0.9375 2.25 C-2.03763543 4.86500618 -2.03763543 4.86500618 -2.4375 7.1875 C-3 9 -3 9 -6 11 C-8.33199388 11.07905064 -10.66832622 11.08798769 -13 11 C-10 9 -10 9 -8 9 C-7.7525 8.2575 -7.505 7.515 -7.25 6.75 C-5.75805674 3.46772483 -3.93296349 0 0 0 Z " fill="#252523" transform="translate(43,51)"/>
<path d="M0 0 C0.99 0 1.98 0 3 0 C3.33 4.29 3.66 8.58 4 13 C2.68 13.33 1.36 13.66 0 14 C0 9.38 0 4.76 0 0 Z " fill="#EDEAE6" transform="translate(41,21)"/>
<path d="M0 0 C2.05078125 0.03255208 4.1015625 0.06510417 6.15234375 0.09765625 C6.48234375 2.07765625 6.81234375 4.05765625 7.15234375 6.09765625 C4.18234375 5.76765625 1.21234375 5.43765625 -1.84765625 5.09765625 C-2.17765625 3.77765625 -2.50765625 2.45765625 -2.84765625 1.09765625 C-1.84765625 0.09765625 -1.84765625 0.09765625 0 0 Z " fill="#F87FA3" transform="translate(46.84765625,19.90234375)"/>
<path d="M0 0 C2 1.8125 2 1.8125 4 4 C4 4.99 4 5.98 4 7 C2.68 7.33 1.36 7.66 0 8 C-0.33 9.65 -0.66 11.3 -1 13 C-1.33 13 -1.66 13 -2 13 C-3.35384615 5.73846154 -3.35384615 5.73846154 -1.5625 2 C-1.046875 1.34 -0.53125 0.68 0 0 Z " fill="#902F5C" transform="translate(16,16)"/>
<path d="M0 0 C3.47214266 0.27232491 4.7550428 0.8175428 7.1875 3.25 C7.1875 3.91 7.1875 4.57 7.1875 5.25 C4.2175 5.25 1.2475 5.25 -1.8125 5.25 C-2.4725 3.93 -3.1325 2.61 -3.8125 1.25 C-2.8125 0.25 -2.8125 0.25 0 0 Z " fill="#F44D8E" transform="translate(20.8125,14.75)"/>
<path d="M0 0 C1.5625 1.6875 1.5625 1.6875 3 4 C2.6875 6.75 2.6875 6.75 2 9 C1.34 8.67 0.68 8.34 0 8 C0.33 6.68 0.66 5.36 1 4 C0.484375 4.33 -0.03125 4.66 -0.5625 5 C-3.78026512 6.32010877 -6.5570528 6.13242105 -10 6 C-9.67 5.01 -9.34 4.02 -9 3 C-4.545 2.505 -4.545 2.505 0 2 C0 1.34 0 0.68 0 0 Z " fill="#3E2E32" transform="translate(32,40)"/>
<path d="M0 0 C2.29013653 3.4352048 2.17842973 4.985331 2 9 C-0.99492576 9.68066494 -3.30087749 10.17005683 -6.3125 9.4375 C-8.81035694 7.30969594 -8.72485992 5.16411094 -9 2 C-8.34 1.67 -7.68 1.34 -7 1 C-7 2.98 -7 4.96 -7 7 C-4.69 7 -2.38 7 0 7 C0 4.69 0 2.38 0 0 Z " fill="#F47BA8" transform="translate(31,27)"/>
<path d="M0 0 C1.32 0 2.64 0 4 0 C4 2.31 4 4.62 4 7 C2.35 7.66 0.7 8.32 -1 9 C-0.67 6.03 -0.34 3.06 0 0 Z " fill="#181A18" transform="translate(35,40)"/>
<path d="M0 0 C2.5 1 2.5 1 5 3 C5.46837899 5.79374292 5.23424505 8.14221036 5 11 C4.67 10.01 4.34 9.02 4 8 C2.68 8 1.36 8 0 8 C0 5.36 0 2.72 0 0 Z " fill="#302E30" transform="translate(35,32)"/>
<path d="M0 0 C0.66 0.66 1.32 1.32 2 2 C1.625 4.125 1.625 4.125 1 6 C-1.375 6.125 -1.375 6.125 -4 6 C-4.66 5.34 -5.32 4.68 -6 4 C-6 3.01 -6 2.02 -6 1 C-4.7934375 1.0309375 -4.7934375 1.0309375 -3.5625 1.0625 C-1.06645115 1.29633621 -1.06645115 1.29633621 0 0 Z " fill="#FD509D" transform="translate(50,15)"/>
<path d="M0 0 C1.99954746 -0.04254356 4.00041636 -0.04080783 6 0 C7 1 7 1 7.0625 4.0625 C7.041875 5.031875 7.02125 6.00125 7 7 C5.35 7 3.7 7 2 7 C2.226875 6.401875 2.45375 5.80375 2.6875 5.1875 C2.790625 4.465625 2.89375 3.74375 3 3 C1.64555699 1.22809091 1.64555699 1.22809091 0 0 Z " fill="#D9DEDA" transform="translate(47,25)"/>
<path d="M0 0 C-0.33 1.98 -0.66 3.96 -1 6 C-2.32 6.33 -3.64 6.66 -5 7 C-5 6.01 -5 5.02 -5 4 C-5.66 3.34 -6.32 2.68 -7 2 C-4.35261084 0.5393715 -3.10551666 0 0 0 Z " fill="#101210" transform="translate(33,44)"/>
<path d="M0 0 C6.52307692 0.49230769 6.52307692 0.49230769 8.9375 3.0625 C9.288125 3.701875 9.63875 4.34125 10 5 C9.01 5 8.02 5 7 5 C6.34 5.66 5.68 6.32 5 7 C4.67 5.68 4.34 4.36 4 3 C2.68 2.67 1.36 2.34 0 2 C0 1.34 0 0.68 0 0 Z " fill="#F65C97" transform="translate(29,3)"/>
<path d="M0 0 C2.8125 0.125 2.8125 0.125 6 1 C8.51383097 4.68695208 9.39164373 7.56137104 9 12 C7.67304209 10.00956313 6.36033335 8.00954842 5.0625 6 C3.47516446 3.69114831 2.06263549 1.85637194 0 0 Z " fill="#282523" transform="translate(24,15)"/>
<path d="M0 0 C0 0.66 0 1.32 0 2 C-1.98 2 -3.96 2 -6 2 C-6 2.99 -6 3.98 -6 5 C-7.65 5.33 -9.3 5.66 -11 6 C-9.08100535 0.24301605 -5.72528715 -0.39036049 0 0 Z " fill="#EA9DAD" transform="translate(52,39)"/>
<path d="M0 0 C0.99 0 1.98 0 3 0 C2.625 1.9375 2.625 1.9375 2 4 C-0.95664519 5.4783226 -3.74229737 5.06032783 -7 5 C-7.33 5.66 -7.66 6.32 -8 7 C-8 6.01 -8 5.02 -8 4 C-5.36 3.01 -2.72 2.02 0 1 C0 0.67 0 0.34 0 0 Z " fill="#F73B85" transform="translate(30,38)"/>
<path d="M0 0 C2.31 0 4.62 0 7 0 C4 2 4 2 2 3 C1.34786708 5.02463255 1.34786708 5.02463255 1 7 C2.98 6.67 4.96 6.34 7 6 C7 6.66 7 7.32 7 8 C4.69 8 2.38 8 0 8 C0 5.36 0 2.72 0 0 Z " fill="#E3E9E2" transform="translate(24,26)"/>
<path d="M0 0 C2.89932357 2.39509338 3.50168276 4.31245243 4 8 C3.278125 7.525625 2.55625 7.05125 1.8125 6.5625 C-0.89475226 5.05847097 -2.96194275 4.43400818 -6 4 C-5.67 3.34 -5.34 2.68 -5 2 C-3.35 2 -1.7 2 0 2 C0 1.34 0 0.68 0 0 Z " fill="#D92D6A" transform="translate(28,19)"/>
<path d="M0 0 C2.97 1.98 2.97 1.98 6 4 C5.34 5.32 4.68 6.64 4 8 C0.21284635 5.55667506 0.21284635 5.55667506 -0.8125 2.875 C-0.874375 2.25625 -0.93625 1.6375 -1 1 C-0.67 0.67 -0.34 0.34 0 0 Z " fill="#F6458E" transform="translate(15,43)"/>
<path d="M0 0 C0.33 0.66 0.66 1.32 1 2 C0.67 2.66 0.34 3.32 0 4 C-2.64860427 4.59355614 -5.29197322 4.74209269 -8 5 C-8 4.01 -8 3.02 -8 2 C-5.36 1.34 -2.72 0.68 0 0 Z " fill="#C72D67" transform="translate(53,42)"/>
<path d="M0 0 C2 1.4375 2 1.4375 4 4 C4.35442445 7.02824418 4.23347235 9.96485939 4 13 C0.90576832 9.90576832 0.06293995 6.4476188 -0.125 2.125 C-0.08375 1.42375 -0.0425 0.7225 0 0 Z " fill="#F6367F" transform="translate(35,7)"/>
<path d="M0 0 C0.66 0 1.32 0 2 0 C1.67 1.65 1.34 3.3 1 5 C-1.31 5.33 -3.62 5.66 -6 6 C-6 5.01 -6 4.02 -6 3 C-4.02 3 -2.04 3 0 3 C0 2.01 0 1.02 0 0 Z " fill="#FB669E" transform="translate(52,38)"/>
<path d="M0 0 C0.33 0 0.66 0 1 0 C1.04241723 2.33294775 1.04092937 4.66702567 1 7 C0 8 0 8 -1.84765625 8.09765625 C-3.8984375 8.06510417 -5.94921875 8.03255208 -8 8 C-7.67 7.34 -7.34 6.68 -7 6 C-4.67843403 5.59270772 -2.3431213 5.25561323 0 5 C0 3.35 0 1.7 0 0 Z " fill="#EC2D72" transform="translate(54,30)"/>
<path d="M0 0 C1.32 0.66 2.64 1.32 4 2 C3.01 2 2.02 2 1 2 C1.33 3.65 1.66 5.3 2 7 C0.68 7 -0.64 7 -2 7 C-2.33 7.99 -2.66 8.98 -3 10 C-3.36629408 5.72656908 -2.40814077 3.51187196 0 0 Z " fill="#F67BAA" transform="translate(43,14)"/>
<path d="M0 0 C1.65 0 3.3 0 5 0 C5.33 1.98 5.66 3.96 6 6 C5.67 5.34 5.34 4.68 5 4 C3.35 4.33 1.7 4.66 0 5 C-0.33 4.01 -0.66 3.02 -1 2 C-0.67 1.34 -0.34 0.68 0 0 Z " fill="#A62F61" transform="translate(31,12)"/>
<path d="M0 0 C1.32 0 2.64 0 4 0 C4 0.99 4 1.98 4 3 C5.32 3.33 6.64 3.66 8 4 C7 5 7 5 4.4375 5.0625 C3.2309375 5.0315625 3.2309375 5.0315625 2 5 C1.67 5.66 1.34 6.32 1 7 C1 4 1 4 3 1 C1.68 1.33 0.36 1.66 -1 2 C-0.67 1.34 -0.34 0.68 0 0 Z " fill="#473825" transform="translate(40,50)"/>
<path d="M0 0 C0.33 0.66 0.66 1.32 1 2 C2.32 2 3.64 2 5 2 C4.67 3.32 4.34 4.64 4 6 C2.68 6.33 1.36 6.66 0 7 C0 4.69 0 2.38 0 0 Z " fill="#E03172" transform="translate(40,36)"/>
<path d="M0 0 C0.66 0 1.32 0 2 0 C2 0.66 2 1.32 2 2 C3.32 1.67 4.64 1.34 6 1 C6 1.99 6 2.98 6 4 C5.401875 4.12375 4.80375 4.2475 4.1875 4.375 C1.73768652 4.95475985 1.73768652 4.95475985 -1 7 C-0.67 4.69 -0.34 2.38 0 0 Z " fill="#F85598" transform="translate(39,43)"/>
<path d="M0 0 C1.98 0.495 1.98 0.495 4 1 C4 2.32 4 3.64 4 5 C2.35 5 0.7 5 -1 5 C-0.67 3.35 -0.34 1.7 0 0 Z " fill="#1E211E" transform="translate(45,48)"/>
<path d="M0 0 C1.485 0.99 1.485 0.99 3 2 C3.1875 4.625 3.1875 4.625 3 7 C1.68 7 0.36 7 -1 7 C-0.67 4.69 -0.34 2.38 0 0 Z " fill="#C8376F" transform="translate(14,31)"/>
<path d="M0 0 C4.455 0.99 4.455 0.99 9 2 C8.67 2.66 8.34 3.32 8 4 C5.36 3.67 2.72 3.34 0 3 C0 2.01 0 1.02 0 0 Z " fill="#E1ACB8" transform="translate(45,22)"/>
<path d="M0 0 C1.32 1.32 2.64 2.64 4 4 C3.67 4.99 3.34 5.98 3 7 C3 6.34 3 5.68 3 5 C1.35 4.67 -0.3 4.34 -2 4 C-1.34 2.68 -0.68 1.36 0 0 Z " fill="#4F3B2D" transform="translate(16,16)"/>
<path d="M0 0 C2.64 0 5.28 0 8 0 C8 0.99 8 1.98 8 3 C5.36 2.67 2.72 2.34 0 2 C0 1.34 0 0.68 0 0 Z " fill="#F18BAD" transform="translate(46,32)"/>
<path d="M0 0 C1.32 0 2.64 0 4 0 C4 0.66 4 1.32 4 2 C4.66 2.33 5.32 2.66 6 3 C4.35 3.66 2.7 4.32 1 5 C0.67 3.35 0.34 1.7 0 0 Z " fill="#46352D" transform="translate(32,16)"/>
</svg>
