<?xml version="1.0" encoding="UTF-8"?>
<svg version="1.1" xmlns="http://www.w3.org/2000/svg" width="62" height="62">
<path d="M0 0 C2.30549107 1.50594366 4.50202808 3.10133311 6.6953125 4.765625 C7.27667969 5.15878906 7.85804687 5.55195313 8.45703125 5.95703125 C13.94951897 9.92767099 16.39652418 16.28405283 17.6953125 22.765625 C18.27203452 29.80828813 17.93876206 36.38251627 14.6953125 42.765625 C12.3828125 45.390625 12.3828125 45.390625 9.6953125 47.765625 C8.68378835 48.98532562 7.68425291 50.21504279 6.6953125 51.453125 C4.22140462 54.32786859 2.54654751 56.04911616 -1.3046875 56.765625 C-5.86145244 56.8156078 -9.29354181 56.36800967 -13.2421875 54.015625 C-15.3046875 51.765625 -15.3046875 51.765625 -16.3671875 49.078125 C-16.6765625 48.315 -16.9859375 47.551875 -17.3046875 46.765625 C-18.63265041 46.41150156 -19.96685357 46.08040946 -21.3046875 45.765625 C-28.1708359 38.8994766 -28.64154967 31.34858752 -28.703125 22.1328125 C-28.2591575 18.38085189 -27.31829478 15.95147313 -25.3046875 12.765625 C-24.3146875 12.435625 -23.3246875 12.105625 -22.3046875 11.765625 C-22.0159375 10.693125 -21.7271875 9.620625 -21.4296875 8.515625 C-19.91315898 3.46052993 -17.47991 1.05900054 -12.9921875 -1.609375 C-8.17121433 -2.73053155 -4.31478018 -2.31096701 0 0 Z " fill="#EE3638" transform="translate(39.3046875,5.234375)"/>
<path d="M0 0 C3.22848329 1.71785851 6.09096948 3.79259094 9 6 C9.58136719 6.39316406 10.16273437 6.78632813 10.76171875 7.19140625 C16.2434533 11.15427228 18.71928959 17.52256082 20 24 C20.41913173 30.364954 20.14025773 35.98052513 18 42 C16.35 42 14.7 42 13 42 C13 42.66 13 43.32 13 44 C12.4225 44.020625 11.845 44.04125 11.25 44.0625 C7.61609879 45.5766255 6.75149584 48.55956175 5 52 C2.69 51.34 0.38 50.68 -2 50 C-1.8125 47.1875 -1.8125 47.1875 -1 44 C0.1446875 43.319375 0.1446875 43.319375 1.3125 42.625 C5.21316351 40.26645928 6.72359274 37.32770036 8 33 C8.46832729 24.98166918 5.18275566 15.72228589 1 9 C-0.79264311 7.32766851 -2.63213074 5.79264465 -4.57421875 4.296875 C-5.04472656 3.86890625 -5.51523437 3.4409375 -6 3 C-6 2.34 -6 1.68 -6 1 C-6.99 1.33 -7.98 1.66 -9 2 C-9.66 1.34 -10.32 0.68 -11 0 C-7.08293487 -1.30568838 -3.9133128 -1.10741317 0 0 Z " fill="#FB4447" transform="translate(37,4)"/>
<path d="M0 0 C4.04701265 1.60194251 5.37156558 3.75593285 8 7.1875 C8.66 7.1875 9.32 7.1875 10 7.1875 C11 9.1875 12 11.1875 13 13.1875 C13.515625 14.115625 14.03125 15.04375 14.5625 16 C17.0009261 21.40694483 18.46193712 27.22851113 18 33.1875 C17.01171875 35.609375 17.01171875 35.609375 15.6875 37.9375 C15.25824219 38.71609375 14.82898438 39.4946875 14.38671875 40.296875 C13 42.1875 13 42.1875 10 43.1875 C10.02618408 42.63400879 10.05236816 42.08051758 10.0793457 41.51025391 C10.75596103 26.63250547 10.75596103 26.63250547 5 13.1875 C5 12.5275 5 11.8675 5 11.1875 C3.35 11.1875 1.7 11.1875 0 11.1875 C0.763125 11.579375 1.52625 11.97125 2.3125 12.375 C5.28870481 14.38220789 6.47171467 15.97005719 8 19.1875 C8 20.1775 8 21.1675 8 22.1875 C7.01 22.1875 6.02 22.1875 5 22.1875 C4.401875 21.259375 3.80375 20.33125 3.1875 19.375 C0.0655331 14.82584823 -3.058828 13.58292393 -8.375 12.5 C-9.24125 12.396875 -10.1075 12.29375 -11 12.1875 C-6.61355082 0.41334693 -6.61355082 0.41334693 0 0 Z " fill="#E13E22" transform="translate(28,3.8125)"/>
<path d="M0 0 C0.66 0 1.32 0 2 0 C2.33 2.64 2.66 5.28 3 8 C2.34 8 1.68 8 1 8 C1.33 8.99 1.66 9.98 2 11 C1.01 12.485 1.01 12.485 0 14 C2.31 14.33 4.62 14.66 7 15 C8.32 12.69 9.64 10.38 11 8 C12.32 8 13.64 8 15 8 C15 7.34 15 6.68 15 6 C16.32 6 17.64 6 19 6 C17.62581378 10.49733673 15.68527603 12.19217064 12 15 C11.34 15.86625 10.68 16.7325 10 17.625 C7.66551446 20.39720157 6.53053555 21.21543654 3 22 C-1.55078396 22.06631379 -4.99701521 21.59752286 -8.9375 19.25 C-11.0956995 16.89560054 -11.88365033 14.9503527 -13 12 C-13.99 11.67 -14.98 11.34 -16 11 C-15.2575 10.773125 -14.515 10.54625 -13.75 10.3125 C-10.82353671 9.16699846 -10.82353671 9.16699846 -9 6.4375 C-6.63460338 3.55467287 -5.5500666 3.56053683 -2 3 C-1.34 2.01 -0.68 1.02 0 0 Z " fill="#F62D3B" transform="translate(35,40)"/>
<path d="M0 0 C1.67542976 0.28604898 3.34385343 0.61781233 5 1 C5 1.66 5 2.32 5 3 C5.99 3.33 6.98 3.66 8 4 C9.203125 6.14453125 9.203125 6.14453125 10.25 8.8125 C10.60578125 9.68519531 10.9615625 10.55789062 11.328125 11.45703125 C12.03604136 14.13641236 11.9337741 15.43212123 11 18 C10.67 17.01 10.34 16.02 10 15 C9.34 16.32 8.68 17.64 8 19 C8 18.01 8 17.02 8 16 C7.01 16 6.02 16 5 16 C5 16.66 5 17.32 5 18 C5.66 18 6.32 18 7 18 C8.23921302 20.97411124 9.30058404 23.85262818 10 27 C9.01 27.33 8.02 27.66 7 28 C6.67 27.34 6.34 26.68 6 26 C5.01 26 4.02 26 3 26 C3 25.34 3 24.68 3 24 C2.21625 23.690625 1.4325 23.38125 0.625 23.0625 C-2 22 -2 22 -4 21 C-4.08165496 18.79229195 -4.13948488 16.58369575 -4.1875 14.375 C-4.23970703 12.53035156 -4.23970703 12.53035156 -4.29296875 10.6484375 C-3.96573355 6.57326854 -2.97849003 2.97849003 0 0 Z " fill="#91461A" transform="translate(15,17)"/>
<path d="M0 0 C6.0839798 -0.45977352 9.29129858 2.52254912 14 6 C14.58523437 6.39445313 15.17046875 6.78890625 15.7734375 7.1953125 C20.33713665 10.50804843 22.34941482 14.75417469 24 20 C24.25 23.0625 24.25 23.0625 24 25 C23.071875 25.268125 22.14375 25.53625 21.1875 25.8125 C18.14815711 26.94480421 17.09926383 27.69900511 15 30 C14.76925781 28.70964844 14.53851563 27.41929688 14.30078125 26.08984375 C13.97227391 24.37221967 13.64279506 22.6547812 13.3125 20.9375 C13.16361328 20.08994141 13.01472656 19.24238281 12.86132812 18.36914062 C11.69059439 12.42364968 9.97842755 8.60915387 6 4 C2.85676522 2.50361586 2.85676522 2.50361586 0 2 C0 1.34 0 0.68 0 0 Z " fill="#FD878A" transform="translate(32,4)"/>
<path d="M0 0 C0.721875 0.12375 1.44375 0.2475 2.1875 0.375 C2.3125 7.125 2.3125 7.125 1.1875 9.375 C-0.4625 9.375 -2.1125 9.375 -3.8125 9.375 C-3.8125 10.035 -3.8125 10.695 -3.8125 11.375 C-4.39 11.395625 -4.9675 11.41625 -5.5625 11.4375 C-9.19640121 12.9516255 -10.06100416 15.93456175 -11.8125 19.375 C-14.1225 18.715 -16.4325 18.055 -18.8125 17.375 C-18.6875 14.625 -18.6875 14.625 -17.8125 11.375 C-15.19714314 9.22459547 -13.12149097 7.61299836 -9.75 7 C-7.40294909 6.44020399 -7.40294909 6.44020399 -5.375 3.3125 C-2.8125 0.375 -2.8125 0.375 0 0 Z " fill="#FE6262" transform="translate(53.8125,36.625)"/>
<path d="M0 0 C5.17142888 0.45378432 8.54084404 0.94121016 12.109375 5.01953125 C14.64079104 9.4744904 16.78540123 13.78032793 16.109375 19.01953125 C15.119375 19.01953125 14.129375 19.01953125 13.109375 19.01953125 C12.779375 19.67953125 12.449375 20.33953125 12.109375 21.01953125 C11.119375 20.68953125 10.129375 20.35953125 9.109375 20.01953125 C7.828125 17.18359375 7.828125 17.18359375 6.609375 13.64453125 C4.74412669 8.25058451 4.74412669 8.25058451 1.109375 4.01953125 C1.109375 3.35953125 1.109375 2.69953125 1.109375 2.01953125 C-0.210625 1.68953125 -1.530625 1.35953125 -2.890625 1.01953125 C-1.890625 0.01953125 -1.890625 0.01953125 0 0 Z " fill="#FB565F" transform="translate(18.890625,15.98046875)"/>
<path d="M0 0 C1.65 0 3.3 0 5 0 C12.9712246 13.041606 12.9712246 13.041606 12 20 C10.7367311 23.30393404 9.23501991 26.24920626 7 29 C6.01 29.33 5.02 29.66 4 30 C4.02094727 29.44650879 4.04189453 28.89301758 4.06347656 28.32275391 C4.81520083 13.63249614 4.81520083 13.63249614 0 0 Z " fill="#45343A" transform="translate(34,17)"/>
<path d="M0 0 C2.03833424 1.2739589 4.03852126 2.61061923 6 4 C6 4.66 6 5.32 6 6 C7.32 5.67 8.64 5.34 10 5 C10 5.99 10 6.98 10 8 C10.61488281 7.48308594 11.22976562 6.96617188 11.86328125 6.43359375 C12.67152344 5.77488281 13.47976562 5.11617187 14.3125 4.4375 C15.11300781 3.77621094 15.91351563 3.11492188 16.73828125 2.43359375 C17.48464844 1.96050781 18.23101563 1.48742188 19 1 C19.99 1.33 20.98 1.66 22 2 C21.67 3.65 21.34 5.3 21 7 C20.0925 7.226875 19.185 7.45375 18.25 7.6875 C14.8450042 8.74900424 14.8450042 8.74900424 12.9375 11.625 C11 14 11 14 8.5 14.625 C4.33035708 13.58258927 2.92437636 10.47900217 0.75 7 C-0.16040138 4.57226299 -0.14287008 2.57166137 0 0 Z " fill="#FB6963" transform="translate(12,37)"/>
<path d="M0 0 C1.32 0.66 2.64 1.32 4 2 C3.67 2.99 3.34 3.98 3 5 C2.34 4.67 1.68 4.34 1 4 C1 5.65 1 7.3 1 9 C1.66 9 2.32 9 3 9 C3.33 10.65 3.66 12.3 4 14 C2.02 14.99 2.02 14.99 0 16 C0 15.34 0 14.68 0 14 C-0.78375 13.690625 -1.5675 13.38125 -2.375 13.0625 C-5 12 -5 12 -7 11 C-7 7.7 -7 4.4 -7 1 C-4.69 1.33 -2.38 1.66 0 2 C0 1.34 0 0.68 0 0 Z " fill="#DC3135" transform="translate(18,27)"/>
<path d="M0 0 C0.66 0 1.32 0 2 0 C3.26953125 5.859375 3.26953125 5.859375 3 8 C0.22248162 11.07663574 -1.40868868 11.93494925 -5.55078125 12.390625 C-6.79214844 12.34421875 -8.03351562 12.2978125 -9.3125 12.25 C-10.56675781 12.21390625 -11.82101563 12.1778125 -13.11328125 12.140625 C-14.06589844 12.09421875 -15.01851562 12.0478125 -16 12 C-15.39027344 11.73316406 -14.78054687 11.46632813 -14.15234375 11.19140625 C-11.68458799 10.00487471 -11.68458799 10.00487471 -9.5625 6.9375 C-6.78048306 3.74835863 -5.98126467 3.53800874 -2 3 C-1.34 2.01 -0.68 1.02 0 0 Z " fill="#1A1C1A" transform="translate(35,40)"/>
<path d="M0 0 C2.97 0 5.94 0 9 0 C10.88343932 3.76687864 11.22057835 5.02958963 11 9 C10.071875 9.268125 9.14375 9.53625 8.1875 9.8125 C5.14815711 10.94480421 4.09926383 11.69900511 2 14 C-0.29612756 4.58997722 -0.29612756 4.58997722 0 0 Z " fill="#F09B9C" transform="translate(45,20)"/>
<path d="M0 0 C1.32 0 2.64 0 4 0 C2.62581378 4.49733673 0.68527603 6.19217064 -3 9 C-3.66 9.86625 -4.32 10.7325 -5 11.625 C-7.2703863 14.32108373 -8.61644658 15.11383125 -12 16 C-15.3125 16.125 -15.3125 16.125 -18 16 C-17.195625 15.6596875 -17.195625 15.6596875 -16.375 15.3125 C-10.21995505 11.91102779 -7.13389338 8.1472524 -4 2 C-2.68 2 -1.36 2 0 2 C0 1.34 0 0.68 0 0 Z " fill="#6A3E1A" transform="translate(50,46)"/>
<path d="M0 0 C0.33 0 0.66 0 1 0 C1 3.63 1 7.26 1 11 C0.67 10.34 0.34 9.68 0 9 C-1.65 9 -3.3 9 -5 9 C-5.33 9.99 -5.66 10.98 -6 12 C-7.87617698 13.84499398 -9.92737609 15.3683599 -12 17 C-12.66 16.34 -13.32 15.68 -14 15 C-12.68 12.36 -11.36 9.72 -10 7 C-9.01 7 -8.02 7 -7 7 C-6.525625 6.505 -6.05125 6.01 -5.5625 5.5 C-4 4 -4 4 0 4 C0 2.68 0 1.36 0 0 Z " fill="#FA333E" transform="translate(56,28)"/>
<path d="M0 0 C2.625 0.375 2.625 0.375 5 1 C5 1.66 5 2.32 5 3 C5.99 3.33 6.98 3.66 8 4 C8.33 6.31 8.66 8.62 9 11 C8.236875 10.505 7.47375 10.01 6.6875 9.5 C4.07636249 7.75631692 4.07636249 7.75631692 1 8 C0.01 8.495 0.01 8.495 -1 9 C-1 8.34 -1 7.68 -1 7 C-1.66 7 -2.32 7 -3 7 C-2.25 2.25 -2.25 2.25 0 0 Z " fill="#793449" transform="translate(15,17)"/>
<path d="M0 0 C4.31496496 -0.3451972 4.31496496 -0.3451972 7 1 C12.09022123 7.74647543 13.99504346 14.67111771 13 23 C9.90407165 19.4912812 8.25805377 16.50802601 7 12 C7.99 12 8.98 12 10 12 C8.18546088 7.50634723 6.98067867 4.60349457 2.75 2 C1.8425 1.67 0.935 1.34 0 1 C0 0.67 0 0.34 0 0 Z " fill="#ED3E3B" transform="translate(26,14)"/>
<path d="M0 0 C2 1.125 2 1.125 4 3 C4.7187324 7.04286975 4.13068535 8.76476636 2.125 12.375 C1.42375 13.24125 0.7225 14.1075 0 15 C-0.66 15 -1.32 15 -2 15 C-1.85973717 12.68715544 -1.71264442 10.37472409 -1.5625 8.0625 C-1.48128906 6.77472656 -1.40007813 5.48695312 -1.31640625 4.16015625 C-1 1 -1 1 0 0 Z " fill="#2F2C2E" transform="translate(40,32)"/>
<path d="M0 0 C1.65 0 3.3 0 5 0 C6.42944945 2.35438733 7.08661261 3.48032433 6.625 6.25 C6.41875 6.8275 6.2125 7.405 6 8 C4.33388095 8.042721 2.66617115 8.04063832 1 8 C0 7 0 7 -0.0625 3.4375 C-0.041875 2.303125 -0.02125 1.16875 0 0 Z " fill="#F0F6F2" transform="translate(28,26)"/>
<path d="M0 0 C3.8287833 0.17016815 5.53034494 0.54303832 8.3125 3.25 C9.97118528 5.95304268 10.64290612 7.87542858 11 11 C10.01 11 9.02 11 8 11 C6.6459068 9.01399663 5.31542376 7.01182457 4 5 C1.3908613 2.67722584 1.3908613 2.67722584 -1 1 C-0.67 0.67 -0.34 0.34 0 0 Z " fill="#2C2726" transform="translate(25,15)"/>
<path d="M0 0 C0.721875 0.12375 1.44375 0.2475 2.1875 0.375 C1.375 2.3125 1.375 2.3125 0.1875 4.375 C-0.8025 4.705 -1.7925 5.035 -2.8125 5.375 C-3.1425 6.365 -3.4725 7.355 -3.8125 8.375 C-6.4525 8.375 -9.0925 8.375 -11.8125 8.375 C-11.255625 8.16875 -10.69875 7.9625 -10.125 7.75 C-7.52052732 6.39098198 -7.52052732 6.39098198 -5.375 3.25 C-2.8125 0.375 -2.8125 0.375 0 0 Z " fill="#312A2A" transform="translate(30.8125,43.625)"/>
<path d="M0 0 C3.51303641 -0.53227824 5.72687619 0.12891809 8.6875 1.9375 C12.43787739 4.75843604 13.1097625 7.69773067 13.80859375 12.20703125 C13.87175781 12.79871094 13.93492188 13.39039063 14 14 C13.01 14.495 13.01 14.495 12 15 C11.608125 13.948125 11.21625 12.89625 10.8125 11.8125 C9.20146528 8.06608436 7.16682834 5.62615033 4 3 C1.82653432 2.13880866 1.82653432 2.13880866 0 2 C0 1.34 0 0.68 0 0 Z " fill="#FE6F68" transform="translate(32,4)"/>
<path d="M0 0 C2.0625 0.4375 2.0625 0.4375 4 1 C3.67 3.64 3.34 6.28 3 9 C0.69 8.67 -1.62 8.34 -4 8 C-1.125 1.125 -1.125 1.125 0 0 Z " fill="#B04F02" transform="translate(21,8)"/>
<path d="M0 0 C0.33 1.32 0.66 2.64 1 4 C-3.34242429 8.34242429 -7.13551546 8.7444669 -13 9 C-12.43796875 8.74476562 -11.8759375 8.48953125 -11.296875 8.2265625 C-8.70613518 6.84307219 -6.54892155 5.20061417 -4.25 3.375 C-3.45078125 2.74335937 -2.6515625 2.11171875 -1.828125 1.4609375 C-1.22484375 0.97882812 -0.6215625 0.49671875 0 0 Z " fill="#252321" transform="translate(45,53)"/>
<path d="M0 0 C2.97 0.495 2.97 0.495 6 1 C6 1.99 6 2.98 6 4 C4.02 4.33 2.04 4.66 0 5 C-0.33 5.99 -0.66 6.98 -1 8 C-1.99 7.67 -2.98 7.34 -4 7 C-4 5.02 -4 3.04 -4 1 C-3.01 2.485 -3.01 2.485 -2 4 C-1.34 2.68 -0.68 1.36 0 0 Z " fill="#FD8381" transform="translate(50,28)"/>
<path d="M0 0 C0 1.32 0 2.64 0 4 C-1.98 4.33 -3.96 4.66 -6 5 C-6 5.66 -6 6.32 -6 7 C-6.99 7 -7.98 7 -9 7 C-8.02086745 1.32103121 -5.73500486 -0.46500039 0 0 Z " fill="#F69093" transform="translate(56,37)"/>
<path d="M0 0 C3 2 3 2 4 5 C4.34710744 11.47933884 4.34710744 11.47933884 2 15 C2 12.69 2 10.38 2 8 C1.34 8 0.68 8 0 8 C0 5.36 0 2.72 0 0 Z " fill="#883237" transform="translate(35,32)"/>
<path d="M0 0 C1.9375 1.0625 1.9375 1.0625 4 3 C4.9375 6.5 4.9375 6.5 5 10 C3.50390625 11.71875 3.50390625 11.71875 2 13 C1.66127487 11.58461283 1.32925376 10.16762037 1 8.75 C0.814375 7.96109375 0.62875 7.1721875 0.4375 6.359375 C0 4 0 4 0 0 Z " fill="#DFE1DA" transform="translate(45,21)"/>
<path d="M0 0 C4.75 0.875 4.75 0.875 7 2 C7 2.99 7 3.98 7 5 C6.34 5 5.68 5 5 5 C4.67 5.99 4.34 6.98 4 8 C3.34 8 2.68 8 2 8 C0.23537317 4.91190305 0 3.76687864 0 0 Z " fill="#CA4712" transform="translate(11,24)"/>
<path d="M0 0 C0 1.98 0 3.96 0 6 C-0.33 5.34 -0.66 4.68 -1 4 C-4.34373475 4.55728913 -7.03312999 5.35173889 -10 7 C-9.67 6.01 -9.34 5.02 -9 4 C-8.34 4 -7.68 4 -7 4 C-7 3.01 -7 2.02 -7 1 C-4.50935112 0.31292445 -2.62113708 0 0 0 Z " fill="#F9343D" transform="translate(35,35)"/>
<path d="M0 0 C1.45945288 0.08708669 2.91765868 0.19526907 4.375 0.3125 C5.59316406 0.39951172 5.59316406 0.39951172 6.8359375 0.48828125 C9 1 9 1 11 4 C9.125 4.625 9.125 4.625 7 5 C6.34 4.34 5.68 3.68 5 3 C3.01178687 2.60235737 1.01055661 2.26224651 -1 2 C-0.67 1.34 -0.34 0.68 0 0 Z " fill="#FD5C58" transform="translate(17,16)"/>
<path d="M0 0 C1.32 0 2.64 0 4 0 C3.75 2.375 3.75 2.375 3 5 C0.9375 6.3125 0.9375 6.3125 -1 7 C-0.67 4.69 -0.34 2.38 0 0 Z " fill="#1B1E1C" transform="translate(39,40)"/>
<path d="M0 0 C1.32 0 2.64 0 4 0 C4 1.65 4 3.3 4 5 C2.35 5.33 0.7 5.66 -1 6 C-0.67 4.02 -0.34 2.04 0 0 Z " fill="#D4B7BA" transform="translate(52,24)"/>
<path d="M0 0 C1.32 0 2.64 0 4 0 C3.67 1.65 3.34 3.3 3 5 C1.35 5 -0.3 5 -2 5 C-1.34 3.35 -0.68 1.7 0 0 Z " fill="#EC3526" transform="translate(52,41)"/>
<path d="M0 0 C0.66 0 1.32 0 2 0 C3.4606285 2.64738916 4 3.89448334 4 7 C3.01 7 2.02 7 1 7 C-1 4 -1 4 -0.625 1.8125 C-0.41875 1.214375 -0.2125 0.61625 0 0 Z " fill="#49332E" transform="translate(32,19)"/>
<path d="M0 0 C5.75 -0.125 5.75 -0.125 8 1 C7.67 1.99 7.34 2.98 7 4 C5.824375 3.9690625 5.824375 3.9690625 4.625 3.9375 C2.01885039 3.81315937 2.01885039 3.81315937 0 5 C0 3.35 0 1.7 0 0 Z " fill="#DB4606" transform="translate(24,11)"/>
<path d="M0 0 C0.33 0.66 0.66 1.32 1 2 C1.66 2 2.32 2 3 2 C3.33 3.32 3.66 4.64 4 6 C2.02 6 0.04 6 -2 6 C-1.34 4.02 -0.68 2.04 0 0 Z " fill="#753D37" transform="translate(19,10)"/>
<path d="M0 0 C1.32 0 2.64 0 4 0 C3.1875 2.4375 3.1875 2.4375 2 5 C1.01 5.33 0.02 5.66 -1 6 C-0.67 4.02 -0.34 2.04 0 0 Z " fill="#423434" transform="translate(50,46)"/>
<path d="M0 0 C3.71599191 -0.20086443 4.77208445 -0.1519437 8 2 C8 2.66 8 3.32 8 4 C5.69 3.67 3.38 3.34 1 3 C0.67 2.01 0.34 1.02 0 0 Z " fill="#F47879" transform="translate(32,4)"/>
<path d="M0 0 C-0.33 0.99 -0.66 1.98 -1 3 C-2.65 2.67 -4.3 2.34 -6 2 C-6 1.34 -6 0.68 -6 0 C-3.50907189 -1.24546405 -2.58919267 -0.7767578 0 0 Z " fill="#1E180E" transform="translate(34,49)"/>
</svg>
