<?xml version="1.0" encoding="UTF-8"?>
<svg version="1.1" xmlns="http://www.w3.org/2000/svg" width="62" height="62">
<path d="M0 0 C8.25171618 6.2784797 12.86089406 11.69465943 14.47265625 22.03125 C15.13289924 31.92289046 11.52915546 40.64115012 5.1875 48.14453125 C0.65252385 52.30496696 -3.60837704 54 -9.8125 54 C-18.89925101 52.44523272 -24.60220396 45.59412001 -30.15234375 38.78125 C-34.48013025 32.26669612 -34.86567142 25.60167714 -34 18 C-31.88251131 9.80418441 -28.585816 2.51028005 -22 -3 C-14.71024466 -6.96182355 -6.37376725 -4.7671565 0 0 Z " fill="#ED6419" transform="translate(44,8)"/>
<path d="M0 0 C1.5 1.3125 1.5 1.3125 3 3 C3 3.99 3 4.98 3 6 C4.0209375 5.6596875 4.0209375 5.6596875 5.0625 5.3125 C9.15959596 4.87663873 11.44873419 5.98984954 15 8 C16.4375 10.6875 16.4375 10.6875 17 13 C15.25 13.75 15.25 13.75 13 14 C11.62298702 12.71182656 10.29355827 11.37195574 9 10 C4.66912262 7.59395701 0.83159704 7.83621705 -4 8 C-2.948125 8.061875 -1.89625 8.12375 -0.8125 8.1875 C3.83674314 9.17832231 5.11655663 10.25931671 8 14 C11.08724333 19.38754228 12.52761197 23.80055936 12 30 C11.01 30.33 10.02 30.66 9 31 C9 32.32 9 33.64 9 35 C5.3732057 36.32646643 3.47187589 35.65982318 0 34.125 C-3.53801234 32.56608816 -3.53801234 32.56608816 -7.25 31.5546875 C-7.8275 31.37164062 -8.405 31.18859375 -9 31 C-12.24279048 21.27162855 -9.37824223 11.88915847 -5 3 C-4.34 2.34 -3.68 1.68 -3 1 C-2.01 1.33 -1.02 1.66 0 2 C0 1.34 0 0.68 0 0 Z " fill="#814F0F" transform="translate(20,10)"/>
<path d="M0 0 C5.62719476 -0.2910618 9.12123345 -0.144094 14 3 C15.68615782 4.64694485 17.35570171 6.31126121 19 8 C19.99 8.33 20.98 8.66 22 9 C22 7.35 22 5.7 22 4 C25.13732013 6.56689829 25.95250293 9.13509701 27 13 C27.1953125 16.6484375 27.1953125 16.6484375 27.125 20.375 C27.10695313 21.62023437 27.08890625 22.86546875 27.0703125 24.1484375 C27.04710938 25.08945312 27.02390625 26.03046875 27 27 C27.99 27 28.98 27 30 27 C30.66 27.66 31.32 28.32 32 29 C32.66 29 33.32 29 34 29 C33.54786421 33.86045979 32.46858739 36.53141261 29 40 C26.625 41.5 26.625 41.5 24 42 C20.6875 40.625 20.6875 40.625 18 39 C18.57801238 35.09841646 20.58286221 33.02142223 23 30 C24.05623169 26.89109162 24.10547345 24.01598223 24.0625 20.75 C24.05347656 19.85796875 24.04445313 18.9659375 24.03515625 18.046875 C24.02355469 17.37140625 24.01195313 16.6959375 24 16 C23.34 16.33 22.68 16.66 22 17 C21.78735595 18.51508888 21.63032845 20.03812265 21.5 21.5625 C20.42152616 27.50266543 17.48713861 30.19013372 12.6640625 33.609375 C9.40894779 35.30852579 7.39094631 35.84773658 3.828125 34.95703125 C0.36998857 33.14668205 -2.06420497 30.35831107 -4 27 C-4 26.01 -4 25.02 -4 24 C0.5927822 24.58881823 4.70611248 25.83601617 9.046875 27.37890625 C10.9760751 28.10101544 10.9760751 28.10101544 13 28 C13 26.68 13 25.36 13 24 C13.66 23.67 14.32 23.34 15 23 C15.65334913 16.98918797 13.98992765 13.39006321 11.09375 8.13671875 C10 6 10 6 10 4 C6.37 3.34 2.74 2.68 -1 2 C-0.67 1.34 -0.34 0.68 0 0 Z " fill="#E37530" transform="translate(16,17)"/>
<path d="M0 0 C3.69403559 0.9235089 4.93086924 1.90782565 7.25 5 C10.11038183 10.52389527 10.79324557 17.0453296 9 23 C9.804375 23.12375 10.60875 23.2475 11.4375 23.375 C12.7059375 23.684375 12.7059375 23.684375 14 24 C14.495 24.99 14.495 24.99 15 26 C16.65 25.34 18.3 24.68 20 24 C16.1363751 32.74622779 12.81606046 39.15384275 4.0625 43.4375 C-3.50352958 44.8271789 -7.95559818 42.84367998 -14.1171875 38.66796875 C-16.10390184 36.90795418 -16.99649039 35.43483122 -18 33 C-17.01 33.144375 -16.02 33.28875 -15 33.4375 C-11.16797553 33.49213171 -9.47307459 32.03095168 -6.6875 29.5 C-6.03136719 28.8503125 -5.37523437 28.200625 -4.69921875 27.53125 C-3 26 -3 26 -1 26 C-0.67 22.37 -0.34 18.74 0 15 C1.32 14.67 2.64 14.34 4 14 C4.33278764 20.81598387 4.24201565 25.92122066 1 32 C0.34 32 -0.32 32 -1 32 C-1.33 33.65 -1.66 35.3 -2 37 C1.42606294 39.57497445 1.42606294 39.57497445 5.5625 39.625 C9.09160356 37.27226429 10.21619049 34.84205125 12 31 C11.67 30.34 11.34 29.68 11 29 C10.34 29 9.68 29 9 29 C8.34 28.34 7.68 27.68 7 27 C6.34 27 5.68 27 5 27 C5.04640625 26.03320312 5.0928125 25.06640625 5.140625 24.0703125 C5.37058049 15.77548938 4.93891576 9.51399593 1 2 C0.67 1.34 0.34 0.68 0 0 Z " fill="#E5580C" transform="translate(37,18)"/>
<path d="M0 0 C0.33 0.99 0.66 1.98 1 3 C2.98 2.67 4.96 2.34 7 2 C6.67 3.32 6.34 4.64 6 6 C5.34 6 4.68 6 4 6 C4.33 6.33 4.66 6.66 5 7 C5.598125 6.67 6.19625 6.34 6.8125 6 C9 5 9 5 12 5 C12.66 6.65 13.32 8.3 14 10 C14.66 8.68 15.32 7.36 16 6 C16.33 6.33 16.66 6.66 17 7 C16.90982004 9.19050021 16.75333792 11.378466 16.5625 13.5625 C16.46066406 14.76003906 16.35882812 15.95757812 16.25390625 17.19140625 C16.17011719 18.11824219 16.08632813 19.04507813 16 20 C12.3732057 21.32646643 10.47187589 20.65982318 7 19.125 C3.46198766 17.56608816 3.46198766 17.56608816 -0.25 16.5546875 C-0.8275 16.37164062 -1.405 16.18859375 -2 16 C-3.34422204 11.96733389 -3.45703395 8.21994677 -3 4 C-1.5 1.4375 -1.5 1.4375 0 0 Z " fill="#DF5A0D" transform="translate(13,25)"/>
<path d="M0 0 C5.12039872 0.45313263 7.73500297 1.94076309 11.625 5.25 C13.00558594 6.40242187 13.00558594 6.40242187 14.4140625 7.578125 C20.19760603 12.99473676 23.53749129 18.34147855 24.32421875 26.265625 C24.61537872 35.2213042 24.61537872 35.2213042 22.16015625 38.328125 C20 40 20 40 17 41 C16.96261719 39.92621094 16.92523438 38.85242187 16.88671875 37.74609375 C16.82100888 36.3098638 16.75456332 34.87366738 16.6875 33.4375 C16.66494141 32.73302734 16.64238281 32.02855469 16.61914062 31.30273438 C16.360344 26.19738277 15.13801617 22.63144283 13 18 C12.70006329 16.48822224 12.44151446 14.96679926 12.25 13.4375 C11.19137974 8.17131278 8.26660381 5.96476701 4 3 C3.195625 2.38125 2.39125 1.7625 1.5625 1.125 C1.046875 0.75375 0.53125 0.3825 0 0 Z " fill="#EE9254" transform="translate(34,4)"/>
<path d="M0 0 C3.69403559 0.9235089 4.93086924 1.90782565 7.25 5 C10.11038183 10.52389527 10.79324557 17.0453296 9 23 C9.804375 23.12375 10.60875 23.2475 11.4375 23.375 C12.7059375 23.684375 12.7059375 23.684375 14 24 C14.33 24.66 14.66 25.32 15 26 C16.65 25.34 18.3 24.68 20 24 C16.1363751 32.74622779 12.81606046 39.15384275 4.0625 43.4375 C0.07755236 44.16942916 -3.01309303 43.68739775 -7 43 C-7 42.67 -7 42.34 -7 42 C-6.33613281 41.96261719 -5.67226563 41.92523438 -4.98828125 41.88671875 C2.05185288 41.46509717 2.05185288 41.46509717 8 38 C9.65777709 35.70992973 10.77695146 33.58721807 12 31 C11.67 30.34 11.34 29.68 11 29 C10.34 29 9.68 29 9 29 C8.34 28.34 7.68 27.68 7 27 C6.34 27 5.68 27 5 27 C5.04640625 26.03320312 5.0928125 25.06640625 5.140625 24.0703125 C5.37058049 15.77548938 4.93891576 9.51399593 1 2 C0.67 1.34 0.34 0.68 0 0 Z " fill="#EB6B1F" transform="translate(37,18)"/>
<path d="M0 0 C6.27642826 3.94518348 9.08367067 10.1551955 10.7578125 17.1796875 C11.51106447 21.51884319 12 25.59010147 12 30 C9.69 30 7.38 30 5 30 C5.10699219 29.38253906 5.21398438 28.76507813 5.32421875 28.12890625 C6.22585977 21.75924875 5.93086886 16.80264762 3 11 C1.00213319 8.49319339 1.00213319 8.49319339 -1 7 C-1 7.66 -1 8.32 -1 9 C-1.31802943 10.66965451 -1.64984951 12.33678518 -2 14 C-3.32 13.67 -4.64 13.34 -6 13 C-5.4740625 12.1028125 -5.4740625 12.1028125 -4.9375 11.1875 C-3.66695302 8.89186786 -3.66695302 8.89186786 -5 6 C-7.00016466 4.79117904 -7.00016466 4.79117904 -9 4 C-5.98968256 3.06576355 -5.13349732 2.95550089 -2 4 C-2 3.34 -2 2.68 -2 2 C-1.34 2 -0.68 2 0 2 C0 1.34 0 0.68 0 0 Z " fill="#E55708" transform="translate(40,12)"/>
<path d="M0 0 C0.66 0.33 1.32 0.66 2 1 C2.99 0.67 3.98 0.34 5 0 C5.16225982 4.54327505 4.99500301 6.83884115 1.98828125 10.34765625 C-5.26933241 16.6494433 -5.26933241 16.6494433 -10.25 16.4375 C-14.25738003 15.43565499 -16.45194908 12.93506365 -18.96875 9.7890625 C-20 8 -20 8 -20 5 C-15.4072178 5.58881823 -11.29388752 6.83601617 -6.953125 8.37890625 C-5.0239249 9.10101544 -5.0239249 9.10101544 -3 9 C-3 7.68 -3 6.36 -3 5 C-2.34 4.67 -1.68 4.34 -1 4 C-0.34786708 1.97536745 -0.34786708 1.97536745 0 0 Z " fill="#E97026" transform="translate(32,36)"/>
<path d="M0 0 C0.33 0.99 0.66 1.98 1 3 C2.98 2.67 4.96 2.34 7 2 C6.67 3.32 6.34 4.64 6 6 C5.34 6 4.68 6 4 6 C4.33 6.33 4.66 6.66 5 7 C7.05396726 6.59070014 7.05396726 6.59070014 9 6 C9.33 7.65 9.66 9.3 10 11 C10.66 11 11.32 11 12 11 C12.33 13.64 12.66 16.28 13 19 C12.01 18.67 11.02 18.34 10 18 C10 16.68 10 15.36 10 14 C9.34 14 8.68 14 8 14 C7.67 14.66 7.34 15.32 7 16 C7 14.35 7 12.7 7 11 C6.01 11.495 6.01 11.495 5 12 C4.67 12.99 4.34 13.98 4 15 C2.68 15 1.36 15 0 15 C0.33 14.34 0.66 13.68 1 13 C1.66 13.33 2.32 13.66 3 14 C2.67 12.35 2.34 10.7 2 9 C1.319375 9.99 1.319375 9.99 0.625 11 C0.08875 11.66 -0.4475 12.32 -1 13 C-1.66 13 -2.32 13 -3 13 C-3.4726477 4.80743982 -3.4726477 4.80743982 -1.5 1.4375 C-0.7575 0.7259375 -0.7575 0.7259375 0 0 Z " fill="#AC5605" transform="translate(13,25)"/>
<path d="M0 0 C0.32792227 6.71633385 0.5033907 12.11930846 -3 18 C-6.39895163 20.89540324 -10.76124669 20.14129178 -15 20 C-13.33333333 18.33333333 -11.66666667 16.66666667 -10 15 C-9.443125 14.401875 -8.88625 13.80375 -8.3125 13.1875 C-7 12 -7 12 -5 12 C-4.67 8.37 -4.34 4.74 -4 1 C-1 0 -1 0 0 0 Z " fill="#272526" transform="translate(41,32)"/>
<path d="M0 0 C2.14673568 3.50347263 2.32832389 6.42984282 2.375 10.5 C2.40335938 11.6240625 2.43171875 12.748125 2.4609375 13.90625 C1.9057098 17.63286305 0.95335292 18.73967213 -2 21 C-2.99 21.33 -3.98 21.66 -5 22 C-5 17.38 -5 12.76 -5 8 C-4.34 8 -3.68 8 -3 8 C-3 5.69 -3 3.38 -3 1 C-2.01 1.33 -1.02 1.66 0 2 C0 1.34 0 0.68 0 0 Z " fill="#E7580E" transform="translate(56,23)"/>
<path d="M0 0 C1.32 0.66 2.64 1.32 4 2 C3.01 3.485 3.01 3.485 2 5 C3.98 4.34 5.96 3.68 8 3 C8.66 3.66 9.32 4.32 10 5 C7.40705156 8.64933484 5.51643177 11.13972728 1 12 C-2.3125 10.625 -2.3125 10.625 -5 9 C-4.42647107 5.12867972 -2.51295648 2.91827204 0 0 Z " fill="#E86E22" transform="translate(39,47)"/>
<path d="M0 0 C1.65 0 3.3 0 5 0 C6.84566532 3.98393611 7.36022829 7.44376683 7.625 11.8125 C7.69976562 12.97394531 7.77453125 14.13539062 7.8515625 15.33203125 C7.90054688 16.21246094 7.94953125 17.09289062 8 18 C5.69 18 3.38 18 1 18 C1.09539063 17.3709375 1.19078125 16.741875 1.2890625 16.09375 C2.06207796 10.12535154 1.80742532 5.74123337 0 0 Z " fill="#A05404" transform="translate(44,24)"/>
<path d="M0 0 C3.69403559 0.9235089 4.93086924 1.90782565 7.25 5 C9.51802507 9.47098384 10.36529598 14.00244007 10 19 C8.96147322 21.98999105 7.66539295 24.27481153 6 27 C4.93057648 23.79172943 5.02586136 21.78822528 5.1875 18.4375 C5.27323221 11.38173879 3.10018862 6.20037725 0 0 Z " fill="#3A3533" transform="translate(37,18)"/>
<path d="M0 0 C0.66 0.33 1.32 0.66 2 1 C2.99 0.67 3.98 0.34 5 0 C4.63076923 7.38461538 4.63076923 7.38461538 1.4375 10.5 C0.633125 10.995 -0.17125 11.49 -1 12 C-2.32 11.34 -3.64 10.68 -5 10 C-4.34 9.67 -3.68 9.34 -3 9 C-3 7.68 -3 6.36 -3 5 C-2.34 4.67 -1.68 4.34 -1 4 C-0.34786708 1.97536745 -0.34786708 1.97536745 0 0 Z " fill="#E06A25" transform="translate(32,36)"/>
<path d="M0 0 C1.99609375 1.0703125 1.99609375 1.0703125 3.55859375 3.7578125 C3.70296875 4.5209375 3.84734375 5.2840625 3.99609375 6.0703125 C2.24609375 6.8203125 2.24609375 6.8203125 -0.00390625 7.0703125 C-1.36042265 5.76057252 -2.68948263 4.42229108 -4.00390625 3.0703125 C-6.29154888 1.88449342 -8.59244713 0.99779678 -11.00390625 0.0703125 C-6.80139965 -2.54905805 -4.44239384 -1.6193948 0 0 Z " fill="#383533" transform="translate(33.00390625,16.9296875)"/>
<path d="M0 0 C0.66 0.33 1.32 0.66 2 1 C2 1.66 2 2.32 2 3 C2.66 3 3.32 3 4 3 C5.125 4.75 5.125 4.75 6 7 C5.125 9.25 5.125 9.25 4 11 C3.01 11 2.02 11 1 11 C0.34 9.35 -0.32 7.7 -1 6 C-2.32 6.33 -3.64 6.66 -5 7 C-3.70700306 4.11562221 -2.34058637 2.12780579 0 0 Z " fill="#DE4E0A" transform="translate(22,5)"/>
<path d="M0 0 C5.60109448 -0.28971178 9.14750673 -0.15976306 14 3 C15.875 5.1875 15.875 5.1875 17 7 C15.35 7.66 13.7 8.32 12 9 C11.78601562 8.20207031 11.57203125 7.40414063 11.3515625 6.58203125 C10.24418405 3.75510016 10.24418405 3.75510016 7.3984375 3.07421875 C6.40070312 2.94660156 5.40296875 2.81898437 4.375 2.6875 C3.37210938 2.54699219 2.36921875 2.40648437 1.3359375 2.26171875 C0.17964844 2.13216797 0.17964844 2.13216797 -1 2 C-0.67 1.34 -0.34 0.68 0 0 Z " fill="#E66419" transform="translate(16,17)"/>
<path d="M0 0 C2.31 0.33 4.62 0.66 7 1 C7.33 2.65 7.66 4.3 8 6 C7.34 6 6.68 6 6 6 C5.67 7.98 5.34 9.96 5 12 C4.34 12 3.68 12 3 12 C1.57499941 8.00999834 0.59924224 4.19469571 0 0 Z " fill="#DDCDBB" transform="translate(48,19)"/>
<path d="M0 0 C0.66 0.66 1.32 1.32 2 2 C2.66 2 3.32 2 4 2 C3.67 3.65 3.34 5.3 3 7 C0.36 7.33 -2.28 7.66 -5 8 C-4.67 7.01 -4.34 6.02 -4 5 C-4.66 4.34 -5.32 3.68 -6 3 C-3.375 0 -3.375 0 0 0 Z " fill="#EE9052" transform="translate(46,44)"/>
<path d="M0 0 C0.33 0.99 0.66 1.98 1 3 C2.98 2.67 4.96 2.34 7 2 C6.67 3.32 6.34 4.64 6 6 C3.69 6.33 1.38 6.66 -1 7 C-1.33 8.65 -1.66 10.3 -2 12 C-2.33 12 -2.66 12 -3 12 C-3.36923077 4.61538462 -3.36923077 4.61538462 -1.5 1.5 C-1.005 1.005 -0.51 0.51 0 0 Z " fill="#AC5304" transform="translate(13,25)"/>
<path d="M0 0 C0.99 0 1.98 0 3 0 C1.10691907 4.81875145 -2.21037584 7.16484206 -6.8125 9.3125 C-10.89810041 10.19370793 -13.89249633 9.70819029 -18 9 C-18 8.67 -18 8.34 -18 8 C-17.33613281 7.96261719 -16.67226563 7.92523438 -15.98828125 7.88671875 C-9.00004697 7.40260083 -9.00004697 7.40260083 -3 4 C-2.195625 2.9171875 -2.195625 2.9171875 -1.375 1.8125 C-0.92125 1.214375 -0.4675 0.61625 0 0 Z " fill="#483420" transform="translate(48,52)"/>
<path d="M0 0 C0 3.3 0 6.6 0 10 C-2 11 -2 11 -5 12 C-4.67 8.37 -4.34 4.74 -4 1 C-1 0 -1 0 0 0 Z " fill="#322E2F" transform="translate(41,32)"/>
<path d="M0 0 C0.66 0 1.32 0 2 0 C2.33074549 3.63820044 2.48805542 5.3773086 0.1875 8.3125 C-2 10 -2 10 -5 11 C-4.46968862 6.4923533 -2.74778884 3.58045212 0 0 Z " fill="#EA9664" transform="translate(56,34)"/>
<path d="M0 0 C2.3125 2 2.3125 2 4 4 C3.34 4.66 2.68 5.32 2 6 C1.34 5.34 0.68 4.68 0 4 C-2.65537372 3.43479997 -5.29144713 3.26211802 -8 3 C-8.33 3.66 -8.66 4.32 -9 5 C-9.33 4.01 -9.66 3.02 -10 2 C-6.53269093 0.41494443 -3.81875349 -0.58750054 0 0 Z " fill="#DE6B20" transform="translate(33,3)"/>
<path d="M0 0 C3.38082062 0.25043116 4.2814127 1.2814127 6.75 3.75 C9.01128327 7.01629806 9.56337087 8.1690781 9 12 C8.443125 11.278125 7.88625 10.55625 7.3125 9.8125 C5.0270024 6.92913577 5.0270024 6.92913577 2.25 4.3125 C0 2 0 2 0 0 Z " fill="#EA691E" transform="translate(38,8)"/>
<path d="M0 0 C0.66 0.66 1.32 1.32 2 2 C1.67 2.66 1.34 3.32 1 4 C1.66 4 2.32 4 3 4 C3.93423645 7.01031744 4.04449911 7.86650268 3 11 C1.35 10.67 -0.3 10.34 -2 10 C-1.62875 9.443125 -1.2575 8.88625 -0.875 8.3125 C0.29515863 5.94283647 0.29515863 5.94283647 -0.875 3.25 C-1.24625 2.5075 -1.6175 1.765 -2 1 C-1.34 0.67 -0.68 0.34 0 0 Z " fill="#E25D10" transform="translate(27,5)"/>
<path d="M0 0 C1.5625 1.25 1.5625 1.25 3 3 C2.6875 5.1875 2.6875 5.1875 2 7 C-0.31 7.33 -2.62 7.66 -5 8 C-4.67 7.01 -4.34 6.02 -4 5 C-3.01 5 -2.02 5 -1 5 C-1.99 4.34 -2.98 3.68 -4 3 C-3.67 2.34 -3.34 1.68 -3 1 C-2.01 1.33 -1.02 1.66 0 2 C0 1.34 0 0.68 0 0 Z " fill="#B05102" transform="translate(20,10)"/>
<path d="M0 0 C0.66 0.33 1.32 0.66 2 1 C-0.475 5.455 -0.475 5.455 -3 10 C-3.99 10 -4.98 10 -6 10 C-5.58578031 5.16743695 -3.53586014 3.17320782 0 0 Z " fill="#BA5511" transform="translate(55,42)"/>
<path d="M0 0 C5.875 4.625 5.875 4.625 7 8 C5.02 8 3.04 8 1 8 C0.17361624 5.10765685 0 3.11257569 0 0 Z " fill="#E4A381" transform="translate(48,12)"/>
<path d="M0 0 C2.86299506 2.86299506 2.99421225 4.65852284 3.0625 8.6875 C3.041875 9.780625 3.02125 10.87375 3 12 C2.01 12.33 1.02 12.66 0 13 C-0.33 13.66 -0.66 14.32 -1 15 C-0.91621094 14.24074219 -0.83242188 13.48148438 -0.74609375 12.69921875 C-0.64425781 11.70535156 -0.54242187 10.71148437 -0.4375 9.6875 C-0.33308594 8.70136719 -0.22867187 7.71523438 -0.12109375 6.69921875 C0.16602527 3.90069653 0.16602527 3.90069653 -1 1 C-0.67 0.67 -0.34 0.34 0 0 Z " fill="#935209" transform="translate(29,28)"/>
<path d="M0 0 C4 1 4 1 5 2 C5.25 4.4375 5.25 4.4375 5 7 C4.01 7.66 3.02 8.32 2 9 C1.34 6.03 0.68 3.06 0 0 Z " fill="#DACCBE" transform="translate(31,26)"/>
<path d="M0 0 C6.4 -0.49230769 6.4 -0.49230769 9.4375 2 C10.2109375 2.99 10.2109375 2.99 11 4 C7.71023192 5.09658936 6.28696233 4.79953138 3 4 C3 3.34 3 2.68 3 2 C2.01 1.34 1.02 0.68 0 0 Z " fill="#B74F01" transform="translate(16,19)"/>
<path d="M0 0 C1.8141927 0.28094582 3.62635001 0.57506433 5.4375 0.875 C6.95150391 1.11863281 6.95150391 1.11863281 8.49609375 1.3671875 C9.32238281 1.57601562 10.14867187 1.78484375 11 2 C11.33 2.66 11.66 3.32 12 4 C10.5629191 4.05422947 9.12524538 4.09289723 7.6875 4.125 C6.88699219 4.14820313 6.08648437 4.17140625 5.26171875 4.1953125 C3 4 3 4 0 2 C0 1.34 0 0.68 0 0 Z " fill="#EE9255" transform="translate(17,44)"/>
<path d="M0 0 C0.103125 0.639375 0.20625 1.27875 0.3125 1.9375 C0.539375 2.618125 0.76625 3.29875 1 4 C1.99 4.33 2.98 4.66 4 5 C3.67 6.98 3.34 8.96 3 11 C1.68 10.67 0.36 10.34 -1 10 C-0.4740625 9.1028125 -0.4740625 9.1028125 0.0625 8.1875 C1.33304698 5.89186786 1.33304698 5.89186786 0 3 C-2.00016466 1.79117904 -2.00016466 1.79117904 -4 1 C-2 0 -2 0 0 0 Z " fill="#B45B14" transform="translate(35,15)"/>
<path d="M0 0 C0.33 0 0.66 0 1 0 C1 1.65 1 3.3 1 5 C0.01 5.495 0.01 5.495 -1 6 C-1.72159424 7.64363134 -2.39351421 9.31050386 -3 11 C-3.66 11 -4.32 11 -5 11 C-5 10.01 -5 9.02 -5 8 C-4.34 8 -3.68 8 -3 8 C-3 5.69 -3 3.38 -3 1 C-2.01 1.33 -1.02 1.66 0 2 C0 1.34 0 0.68 0 0 Z " fill="#EE945A" transform="translate(56,23)"/>
<path d="M0 0 C1.9375 0.5 1.9375 0.5 4 2 C4.68790422 4.69658452 4.81946464 7.2017019 5 10 C4.01 9.67 3.02 9.34 2 9 C2 7.68 2 6.36 2 5 C1.34 5 0.68 5 0 5 C-0.33 5.66 -0.66 6.32 -1 7 C-0.67 4.69 -0.34 2.38 0 0 Z " fill="#994D0F" transform="translate(21,34)"/>
<path d="M0 0 C0.33 1.32 0.66 2.64 1 4 C-3.21912747 3.5205537 -5.79663178 2.83374881 -9 0 C-5.67465243 -1.10844919 -3.37817425 -0.84454356 0 0 Z " fill="#322B29" transform="translate(31,16)"/>
<path d="M0 0 C1.98 0 3.96 0 6 0 C6 1.32 6 2.64 6 4 C3.69 4 1.38 4 -1 4 C-0.67 2.68 -0.34 1.36 0 0 Z " fill="#CD4A05" transform="translate(46,38)"/>
<path d="M0 0 C0.99 0 1.98 0 3 0 C3.33 1.98 3.66 3.96 4 6 C2.35 6 0.7 6 -1 6 C-0.67 4.02 -0.34 2.04 0 0 Z " fill="#82520E" transform="translate(47,32)"/>
<path d="M0 0 C1.65 0.33 3.3 0.66 5 1 C5 2.32 5 3.64 5 5 C3.68 4.67 2.36 4.34 1 4 C0.67 4.66 0.34 5.32 0 6 C-1.125 2.25 -1.125 2.25 0 0 Z " fill="#D5B7A3" transform="translate(51,20)"/>
<path d="M0 0 C1.5 1.375 1.5 1.375 3 3 C3 3.66 3 4.32 3 5 C1.02 5.33 -0.96 5.66 -3 6 C-2.42655063 3.13275314 -2.1385485 2.1385485 0 0 Z " fill="#0F120F" transform="translate(35,45)"/>
<path d="M0 0 C0 1.65 0 3.3 0 5 C-0.66 5 -1.32 5 -2 5 C-3.37310707 6.29233607 -4.71034824 7.62437146 -6 9 C-6.33 8.34 -6.66 7.68 -7 7 C-6.34 7 -5.68 7 -5 7 C-4.67 5.02 -4.34 3.04 -4 1 C-1 0 -1 0 0 0 Z " fill="#EC6D20" transform="translate(58,27)"/>
<path d="M0 0 C2.31 0.33 4.62 0.66 7 1 C6.67 2.32 6.34 3.64 6 5 C5.01 5 4.02 5 3 5 C1.3125 2.5 1.3125 2.5 0 0 Z " fill="#A54C17" transform="translate(19,51)"/>
<path d="M0 0 C2.4320057 1.21600285 4.7272325 2.50475822 7 4 C7 4.66 7 5.32 7 6 C3.75791433 5.64950425 2.38472296 5.43778819 0.1875 2.9375 C-0.4003125 1.9784375 -0.4003125 1.9784375 -1 1 C-0.67 0.67 -0.34 0.34 0 0 Z " fill="#ED5C11" transform="translate(33,54)"/>
<path d="M0 0 C0.66 0.66 1.32 1.32 2 2 C1.34 3.98 0.68 5.96 0 8 C-3 6 -3 6 -4 3 C-3.01 2.34 -2.02 1.68 -1 1 C-0.67 0.67 -0.34 0.34 0 0 Z " fill="#1F211F" transform="translate(39,41)"/>
<path d="M0 0 C5.35048061 0.37328935 7.50912907 1.9957657 11 6 C7.61121488 6 6.60242783 5.35638802 3.8125 3.5625 C2.73935547 2.88380859 2.73935547 2.88380859 1.64453125 2.19140625 C1.10183594 1.79824219 0.55914062 1.40507813 0 1 C0 0.67 0 0.34 0 0 Z " fill="#ED813E" transform="translate(34,4)"/>
<path d="M0 0 C0.66 0 1.32 0 2 0 C2 1.32 2 2.64 2 4 C3.65 4.33 5.3 4.66 7 5 C6.67 5.66 6.34 6.32 6 7 C3.0625 6.1875 3.0625 6.1875 0 5 C-0.33 4.01 -0.66 3.02 -1 2 C-0.67 1.34 -0.34 0.68 0 0 Z " fill="#CB4E0F" transform="translate(21,39)"/>
<path d="M0 0 C0.66 0.33 1.32 0.66 2 1 C1.74438677 3.3431213 1.40729228 5.67843403 1 8 C0.01 8.495 0.01 8.495 -1 9 C-1.09765625 2.84765625 -1.09765625 2.84765625 -1 1 C-0.67 0.67 -0.34 0.34 0 0 Z " fill="#E04D09" transform="translate(11,28)"/>
<path d="M0 0 C3.00617269 3.00617269 2.59585316 5.82381598 3 10 C2.67 9.34 2.34 8.68 2 8 C1.34 8 0.68 8 0 8 C0 5.36 0 2.72 0 0 Z " fill="#D0560B" transform="translate(48,24)"/>
<path d="M0 0 C1.65 0 3.3 0 5 0 C5.33 1.32 5.66 2.64 6 4 C4.35 3.67 2.7 3.34 1 3 C0.67 2.01 0.34 1.02 0 0 Z " fill="#CA4706" transform="translate(42,20)"/>
<path d="M0 0 C0.99 0 1.98 0 3 0 C3.33 1.32 3.66 2.64 4 4 C2 4 0 4 -2 4 C-1.34 2.68 -0.68 1.36 0 0 Z M4 1 C6 2 6 2 6 2 Z " fill="#D84206" transform="translate(19,8)"/>
<path d="M0 0 C0.66 0.33 1.32 0.66 2 1 C2 2.65 2 4.3 2 6 C0.68 6 -0.64 6 -2 6 C-1.34 4.02 -0.68 2.04 0 0 Z " fill="#E25007" transform="translate(14,33)"/>
<path d="M0 0 C1.32 0.33 2.64 0.66 4 1 C3.67 2.32 3.34 3.64 3 5 C2.67 4.34 2.34 3.68 2 3 C-0.16666667 3.83333333 -0.16666667 3.83333333 -1 6 C-1.33 4.68 -1.66 3.36 -2 2 C-1.34 2 -0.68 2 0 2 C0 1.34 0 0.68 0 0 Z " fill="#874C0E" transform="translate(19,29)"/>
<path d="M0 0 C0.66 0.66 1.32 1.32 2 2 C1.67 2.66 1.34 3.32 1 4 C1.66 4 2.32 4 3 4 C3 4.66 3 5.32 3 6 C1.68 5.67 0.36 5.34 -1 5 C-1.33 3.68 -1.66 2.36 -2 1 C-1.34 0.67 -0.68 0.34 0 0 Z " fill="#EB580A" transform="translate(27,5)"/>
</svg>
