<?xml version="1.0" encoding="UTF-8"?>
<svg version="1.1" xmlns="http://www.w3.org/2000/svg" width="62" height="62">
<path d="M0 0 C7.90849483 5.43331706 12.8500195 13.43774695 14.859375 22.78125 C15.68060341 31.40414831 13.79805803 38.90668234 8.234375 45.65625 C2.69361501 51.35848933 -2.68714294 53.91519016 -10.640625 54.28125 C-19.02921658 53.91856333 -25.27588128 50.4216092 -31.3515625 44.76953125 C-37.44786608 37.99438164 -40.69094259 29.35694826 -40.45703125 20.25 C-39.52296679 12.96199087 -37.00659178 6.3902239 -31.140625 1.78125 C-21.32960057 -5.68365989 -10.56097746 -6.01281928 0 0 Z " fill="#CF9324" transform="translate(46.140625,7.21875)"/>
<path d="M0 0 C1.98 0 3.96 0 6 0 C6.625 1.8125 6.625 1.8125 7 4 C6.01 5.485 6.01 5.485 5 7 C6.670625 6.7215625 6.670625 6.7215625 8.375 6.4375 C13.34064255 5.79677193 18.06061137 6.34208963 23 7 C20.4345406 4.4345406 18.52313332 4.45953913 15 4 C16.32 3.34 17.64 2.68 19 2 C17.68 1.34 16.36 0.68 15 0 C16.58323688 -0.027193 18.16661062 -0.04648306 19.75 -0.0625 C21.07257812 -0.07990234 21.07257812 -0.07990234 22.421875 -0.09765625 C26.98118425 0.07504486 28.46347306 0.45127926 31.75 3.8125 C34 7 34 7 34 11 C33.34 11 32.68 11 32 11 C31.505 10.01 31.505 10.01 31 9 C30.01 8.67 29.02 8.34 28 8 C28 8.99 28 9.98 28 11 C29.90336809 12.65670412 29.90336809 12.65670412 32 14 C32.495 14.495 32.495 14.495 33 15 C33 14.01 33 13.02 33 12 C35.59372458 13.07326534 36.82425055 13.72838721 38.375 16.125 C38.91125 16.74375 39.4475 17.3625 40 18 C42.95826106 18.16670273 42.95826106 18.16670273 46 18 C48.375 19 48.375 19 50 20 C49.67 21.98 49.34 23.96 49 26 C46.4782018 26.90064221 45.42696982 27.19407719 42.9375 26.0625 C42.298125 25.711875 41.65875 25.36125 41 25 C40.01 25 39.02 25 38 25 C36.63584135 26.70458563 36.63584135 26.70458563 35.5 28.875 C33.78740943 31.93790236 33.02993057 32.98004629 30 35 C29.01 34.67 28.02 34.34 27 34 C27.433125 33.52949219 27.86625 33.05898438 28.3125 32.57421875 C29.1478125 31.64029297 29.1478125 31.64029297 30 30.6875 C30.556875 30.07261719 31.11375 29.45773438 31.6875 28.82421875 C33.29201498 26.96868665 33.29201498 26.96868665 33 24 C32.46375 24.78375 31.9275 25.5675 31.375 26.375 C28.69757158 29.33426299 26.81566975 30.04608256 23 31 C23 30.34 23 29.68 23 29 C20.02148438 29.09765625 20.02148438 29.09765625 17.04296875 29.1953125 C15 29 15 29 12 27 C10.8125 24.875 10.8125 24.875 10 23 C9.01 23 8.02 23 7 23 C4.48916886 21.74458443 4.12874554 20.49936512 3 18 C2.38125 18.185625 1.7625 18.37125 1.125 18.5625 C-1 19 -1 19 -3 18 C-3.31985731 11.28299653 -2.4793824 6.24273068 0 0 Z " fill="#AF5E07" transform="translate(9,16)"/>
<path d="M0 0 C5.37993253 3.1873927 10.33345147 7.22634275 13 13 C13.64326315 16.00509501 13.92344198 18.93071947 14 22 C12 19 12 19 11.2109375 16.9921875 C10.32144146 14.73935173 9.48808824 12.91817155 8 11 C5.16315904 9.96743337 3.07650033 10 0 10 C0 9.34 0 8.68 0 8 C-0.66 8 -1.32 8 -2 8 C-1.505 11.465 -1.505 11.465 -1 15 C0.32 15.33 1.64 15.66 3 16 C2.34 16 1.68 16 1 16 C1.495 16.886875 1.99 17.77375 2.5 18.6875 C3.94378674 21.87586238 4.30159922 23.58187546 4 27 C2.02 25.35 0.04 23.7 -2 22 C-1.505 26.455 -1.505 26.455 -1 31 C-2.01263716 28.97472567 -3.02352717 26.94667174 -3.9375 24.875 C-4.99740267 22.67642241 -4.99740267 22.67642241 -8 21 C-7.67 20.01 -7.34 19.02 -7 18 C-5.68 18.33 -4.36 18.66 -3 19 C-3 19.66 -3 20.32 -3 21 C-2.34 21 -1.68 21 -1 21 C-1.77030122 17.51190809 -1.77030122 17.51190809 -3 14 C-3.99 13.67 -4.98 13.34 -6 13 C-6 12.34 -6 11.68 -6 11 C-9.3 11 -12.6 11 -16 11 C-15.01 11.66 -14.02 12.32 -13 13 C-13.33 13.33 -13.66 13.66 -14 14 C-12.35 15.32 -10.7 16.64 -9 18 C-9.99 18 -10.98 18 -12 18 C-12.94875 18.020625 -13.8975 18.04125 -14.875 18.0625 C-18 18 -18 18 -20.5625 17.4375 C-23.33006493 16.94075758 -25.27748398 17.41134789 -28 18 C-28.66 17.67 -29.32 17.34 -30 17 C-29.814375 16.360625 -29.62875 15.72125 -29.4375 15.0625 C-29.2209375 14.0415625 -29.2209375 14.0415625 -29 13 C-30.44197868 11.55802132 -32.17691571 10.88213756 -34 10 C-32.05633431 5.22918421 -29.15123967 2.02740813 -24.47265625 -0.20703125 C-15.63833502 -3.63654141 -8.6737286 -3.97110466 0 0 Z " fill="#D0952A" transform="translate(44,6)"/>
<path d="M0 0 C0.8971875 1.0828125 0.8971875 1.0828125 1.8125 2.1875 C2.4725 2.8475 3.1325 3.5075 3.8125 4.1875 C4.4725 3.5275 5.1325 2.8675 5.8125 2.1875 C5.8125 3.8375 5.8125 5.4875 5.8125 7.1875 C6.8025 7.5175 7.7925 7.8475 8.8125 8.1875 C9.8025 8.5175 10.7925 8.8475 11.8125 9.1875 C18.57534361 10.50737368 18.57534361 10.50737368 24.8125 8.1875 C26.18336915 6.89279025 27.52590837 5.56599103 28.8125 4.1875 C28.67640751 9.63119955 26.41803326 12.68315879 22.8671875 16.55078125 C19.56885521 19.17816001 16.96114658 19.1875 12.8125 19.1875 C13.1425 20.5075 13.4725 21.8275 13.8125 23.1875 C15.1325 23.5175 16.4525 23.8475 17.8125 24.1875 C17.8125 23.5275 17.8125 22.8675 17.8125 22.1875 C23.7525 23.1775 23.7525 23.1775 29.8125 24.1875 C25.30609614 27.19176924 21.09454199 26.74760915 15.8125 26.1875 C7.26521772 23.90366617 0.36103351 18.232777 -4.125 10.6875 C-6.10341283 6.81698094 -6.91162508 3.50954045 -7.1875 -0.8125 C-2.76127049 -2.28790984 -2.76127049 -2.28790984 0 0 Z " fill="#C2851C" transform="translate(14.1875,34.8125)"/>
<path d="M0 0 C0.45375 0.495 0.9075 0.99 1.375 1.5 C2.87635519 3.22609337 2.87635519 3.22609337 5 3 C5 4.32 5 5.64 5 7 C5.99 6.67 6.98 6.34 8 6 C9.32 6 10.64 6 12 6 C13.34164079 5.7018576 14.67851173 5.37756808 16 5 C16.33 5.66 16.66 6.32 17 7 C16.01 7 15.02 7 14 7 C14.33 7.33 14.66 7.66 15 8 C16.69141656 7.91036938 18.37959602 7.75422324 20.0625 7.5625 C20.98160156 7.46066406 21.90070312 7.35882812 22.84765625 7.25390625 C23.91306641 7.12822266 23.91306641 7.12822266 25 7 C24.67 8.32 24.34 9.64 24 11 C24.99 11.33 25.98 11.66 27 12 C27.33 11.34 27.66 10.68 28 10 C28.66 10 29.32 10 30 10 C31.0326802 12.78823655 31.04509293 13.8677274 30.0625 16.75 C29.5365625 17.86375 29.5365625 17.86375 29 19 C28.01 19 27.02 19 26 19 C25.67 19.66 25.34 20.32 25 21 C24.34 21 23.68 21 23 21 C23.33 19.35 23.66 17.7 24 16 C23.34 16 22.68 16 22 16 C22 17.98 22 19.96 22 22 C21.01 22 20.02 22 19 22 C18.34 22.66 17.68 23.32 17 24 C13.9890638 21.9927092 13.36983503 21.16115776 12 18 C11.01 18 10.02 18 9 18 C6.48916886 16.74458443 6.12874554 15.49936512 5 13 C4.38125 13.185625 3.7625 13.37125 3.125 13.5625 C1 14 1 14 -1 13 C-1.0272415 11.58344207 -1.04650467 10.16672955 -1.0625 8.75 C-1.07410156 7.96109375 -1.08570313 7.1721875 -1.09765625 6.359375 C-1.00385306 4.09308998 -0.63241063 2.1711105 0 0 Z " fill="#7C4F12" transform="translate(7,21)"/>
<path d="M0 0 C-0.33 0.66 -0.66 1.32 -1 2 C-1.91523437 1.96519531 -2.83046875 1.93039062 -3.7734375 1.89453125 C-4.96195313 1.86746094 -6.15046875 1.84039062 -7.375 1.8125 C-8.55835937 1.77769531 -9.74171875 1.74289062 -10.9609375 1.70703125 C-11.96382812 1.80371094 -12.96671875 1.90039062 -14 2 C-14.99 3.485 -14.99 3.485 -16 5 C-14.68 6.32 -13.36 7.64 -12 9 C-12.33 9.33 -12.66 9.66 -13 10 C-10.525 10.495 -10.525 10.495 -8 11 C-9.98 11.99 -9.98 11.99 -12 13 C-11.01 13.66 -10.02 14.32 -9 15 C-9.33 15.33 -9.66 15.66 -10 16 C-8.35 17.32 -6.7 18.64 -5 20 C-5.99 20 -6.98 20 -8 20 C-8.94875 20.020625 -9.8975 20.04125 -10.875 20.0625 C-14 20 -14 20 -16.5625 19.4375 C-19.33006493 18.94075758 -21.27748398 19.41134789 -24 20 C-24.66 19.67 -25.32 19.34 -26 19 C-25.814375 18.360625 -25.62875 17.72125 -25.4375 17.0625 C-25.2209375 16.0415625 -25.2209375 16.0415625 -25 15 C-26.44197868 13.55802132 -28.17691571 12.88213756 -30 12 C-28.05633431 7.22918421 -25.15123967 4.02740813 -20.47265625 1.79296875 C-13.34215283 -0.9751142 -7.51902286 -1.82279342 0 0 Z " fill="#C98316" transform="translate(40,4)"/>
<path d="M0 0 C0.66 0 1.32 0 2 0 C2 0.66 2 1.32 2 2 C4.64 2 7.28 2 10 2 C13.21050067 7.15973322 15.42485896 10.76873522 15 17 C15.91257306 19.78566059 15.91257306 19.78566059 17 22 C16.28972656 21.9278125 15.57945313 21.855625 14.84765625 21.78125 C13.46900391 21.64203125 13.46900391 21.64203125 12.0625 21.5 C11.14597656 21.4071875 10.22945312 21.314375 9.28515625 21.21875 C7.64507518 21.05708522 7.64507518 21.05708522 6 21 C5.80083984 19.96939453 5.80083984 19.96939453 5.59765625 18.91796875 C5.42105469 18.01691406 5.24445312 17.11585937 5.0625 16.1875 C4.88847656 15.29417969 4.71445312 14.40085937 4.53515625 13.48046875 C3.78906094 9.61977006 3.78906094 9.61977006 1.4375 6.625 C0 5 0 5 -0.1875 2.3125 C-0.125625 1.549375 -0.06375 0.78625 0 0 Z " fill="#CC7E11" transform="translate(42,14)"/>
<path d="M0 0 C0.6953125 1.7421875 0.6953125 1.7421875 1 4 C-1.34915422 7.8666203 -4.60578201 11.08275132 -8.375 13.5625 C-13.68076568 14.44679428 -18.51074191 13.99283873 -23 11 C-23 10.34 -23 9.68 -23 9 C-24.32 8.67 -25.64 8.34 -27 8 C-27.33 6.68 -27.66 5.36 -28 4 C-17.38825645 4.90190225 -17.38825645 4.90190225 -13 5.5625 C-8.89290203 6.16145179 -6.52622019 6.20388762 -3 4 C-1.26574227 1.96682993 -1.26574227 1.96682993 0 0 Z " fill="#D29C30" transform="translate(42,39)"/>
<path d="M0 0 C3.828125 1.734375 3.828125 1.734375 5.375 4.125 C5.91125 4.74375 6.4475 5.3625 7 6 C9.95826106 6.16670273 9.95826106 6.16670273 13 6 C15.375 7 15.375 7 17 8 C16.67 9.98 16.34 11.96 16 14 C13.4782018 14.90064221 12.42696982 15.19407719 9.9375 14.0625 C9.298125 13.711875 8.65875 13.36125 8 13 C7.01 13 6.02 13 5 13 C3.63584135 14.70458563 3.63584135 14.70458563 2.5 16.875 C0.78740943 19.93790236 0.02993057 20.98004629 -3 23 C-3.99 22.67 -4.98 22.34 -6 22 C-5.01 21.154375 -4.02 20.30875 -3 19.4375 C1.23645039 14.64414533 0.49995998 9.03162009 0.2109375 3.03515625 C0.10652344 1.53275391 0.10652344 1.53275391 0 0 Z " fill="#985A05" transform="translate(42,28)"/>
<path d="M0 0 C3.5360172 3.5360172 3.91517369 7.96511903 4.3125 12.8125 C4.11963096 19.00841805 2.8013533 25.62339428 -1.6875 30.125 C-2.450625 30.74375 -3.21375 31.3625 -4 32 C-3.67 30.02 -3.34 28.04 -3 26 C-3.78375 25.855625 -4.5675 25.71125 -5.375 25.5625 C-8 25 -8 25 -10 24 C-10.33 24.66 -10.66 25.32 -11 26 C-11.66 26 -12.32 26 -13 26 C-12.01 23.03 -11.02 20.06 -10 17 C-7.96651298 18.01674351 -5.93340226 19.03632604 -3.9375 20.125 C-1.89863452 21.20579336 -1.89863452 21.20579336 1 21 C1 17.7 1 14.4 1 11 C0.34 10.67 -0.32 10.34 -1 10 C-0.835 8.906875 -0.67 7.81375 -0.5 6.6875 C0.06718184 3.12474127 0.06718184 3.12474127 0 0 Z " fill="#C9851F" transform="translate(57,21)"/>
<path d="M0 0 C1.58323688 -0.027193 3.16661062 -0.04648306 4.75 -0.0625 C6.07257812 -0.07990234 6.07257812 -0.07990234 7.421875 -0.09765625 C11.98118425 0.07504486 13.46347306 0.45127926 16.75 3.8125 C19 7 19 7 19 11 C18.34 11 17.68 11 17 11 C16.67 10.34 16.34 9.68 16 9 C15.01 8.67 14.02 8.34 13 8 C13 8.66 13 9.32 13 10 C12.34 10 11.68 10 11 10 C11 9.01 11 8.02 11 7 C7.34920174 5.38935371 3.9492568 4.55105909 0 4 C1.32 3.34 2.64 2.68 4 2 C2.68 1.34 1.36 0.68 0 0 Z " fill="#C98013" transform="translate(24,16)"/>
<path d="M0 0 C1.38294718 0.01329757 2.76582404 0.03715018 4.1484375 0.0703125 C4.85484375 0.07933594 5.56125 0.08835937 6.2890625 0.09765625 C8.03399848 0.12123647 9.77876045 0.15710789 11.5234375 0.1953125 C10.8634375 1.8453125 10.2034375 3.4953125 9.5234375 5.1953125 C8.8015625 5.1334375 8.0796875 5.0715625 7.3359375 5.0078125 C3.99484776 5.23055182 2.25310995 6.3235371 -0.4765625 8.1953125 C-2.9765625 6.8828125 -2.9765625 6.8828125 -5.4765625 5.1953125 C-5.4765625 0.69398297 -4.39850689 0.24710713 0 0 Z " fill="#D4A036" transform="translate(29.4765625,4.8046875)"/>
<path d="M0 0 C0.8971875 1.0828125 0.8971875 1.0828125 1.8125 2.1875 C2.4725 2.8475 3.1325 3.5075 3.8125 4.1875 C4.4725 3.5275 5.1325 2.8675 5.8125 2.1875 C5.8125 3.8375 5.8125 5.4875 5.8125 7.1875 C6.8025 7.5175 7.7925 7.8475 8.8125 8.1875 C9.1425 8.8475 9.4725 9.5075 9.8125 10.1875 C7.8325 10.1875 5.8525 10.1875 3.8125 10.1875 C3.8125 9.5275 3.8125 8.8675 3.8125 8.1875 C2.86375 8.105 1.915 8.0225 0.9375 7.9375 C-2.1875 7.1875 -2.1875 7.1875 -3.5625 5.125 C-3.871875 4.1659375 -3.871875 4.1659375 -4.1875 3.1875 C-5.1775 3.5175 -6.1675 3.8475 -7.1875 4.1875 C-7.1875 2.5375 -7.1875 0.8875 -7.1875 -0.8125 C-2.76127049 -2.28790984 -2.76127049 -2.28790984 0 0 Z " fill="#AF6506" transform="translate(14.1875,34.8125)"/>
<path d="M0 0 C2.1640625 0.0234375 2.1640625 0.0234375 4.625 0.375 C5.85089844 0.54128906 5.85089844 0.54128906 7.1015625 0.7109375 C7.72804688 0.80632813 8.35453125 0.90171875 9 1 C8.67 1.66 8.34 2.32 8 3 C9.65 4.32 11.3 5.64 13 7 C12.01 7 11.02 7 10 7 C9.05125 7.020625 8.1025 7.04125 7.125 7.0625 C4 7 4 7 1.4375 6.4375 C-1.33006493 5.94075758 -3.27748398 6.41134789 -6 7 C-6.66 6.67 -7.32 6.34 -8 6 C-7.67 4.68 -7.34 3.36 -7 2 C-6.34 2.66 -5.68 3.32 -5 4 C-2.03268602 2.16343011 -2.03268602 2.16343011 0 0 Z " fill="#CB7A10" transform="translate(22,17)"/>
<path d="M0 0 C3.625 0.375 3.625 0.375 7 1 C7.144375 1.7425 7.28875 2.485 7.4375 3.25 C7.90199226 5.52085106 8.42905436 7.75460033 9 10 C8.28972656 9.9278125 7.57945313 9.855625 6.84765625 9.78125 C5.92855469 9.6884375 5.00945313 9.595625 4.0625 9.5 C2.68771484 9.36078125 2.68771484 9.36078125 1.28515625 9.21875 C-0.35492482 9.05708522 -0.35492482 9.05708522 -2 9 C-2.125 5.625 -2.125 5.625 -2 2 C-1.34 1.34 -0.68 0.68 0 0 Z " fill="#BA5E07" transform="translate(50,26)"/>
<path d="M0 0 C-3.13498292 1.85776765 -5.37471432 2.20140476 -9 2 C-8.67 3.32 -8.34 4.64 -8 6 C-6.68 6.33 -5.36 6.66 -4 7 C-4 6.34 -4 5.68 -4 5 C1.94 5.99 1.94 5.99 8 7 C3.53444222 9.97703852 -0.76052176 9.50281502 -6 9 C-8.58099426 8.23411319 -10.61002277 7.27465452 -13 6 C-12.34 4.02 -11.68 2.04 -11 0 C-9.54263913 -0.19491452 -8.08405407 -0.38069358 -6.625 -0.5625 C-5.81289063 -0.66691406 -5.00078125 -0.77132812 -4.1640625 -0.87890625 C-2 -1 -2 -1 0 0 Z " fill="#7E5416" transform="translate(36,52)"/>
<path d="M0 0 C2.8125 0.1875 2.8125 0.1875 6 1 C8.82199293 4.40585354 9.49580031 7.66388269 10 12 C8 11 8 11 7 8 C6.01 8.99 5.02 9.98 4 11 C4 8.69 4 6.38 4 4 C3.34 4 2.68 4 2 4 C1.67 5.98 1.34 7.96 1 10 C0.87625 9.360625 0.7525 8.72125 0.625 8.0625 C0.315625 7.0415625 0.315625 7.0415625 0 6 C-0.66 5.67 -1.32 5.34 -2 5 C-1.34 3.35 -0.68 1.7 0 0 Z " fill="#B0600C" transform="translate(33,27)"/>
<path d="M0 0 C1.9375 1 1.9375 1 4 3 C4.66549451 5.69924572 4.81680763 8.20631637 5 11 C3.02 9.35 1.04 7.7 -1 6 C-0.67 8.97 -0.34 11.94 0 15 C-1.01263716 12.97472567 -2.02352717 10.94667174 -2.9375 8.875 C-3.99740267 6.67642241 -3.99740267 6.67642241 -7 5 C-6.67 4.01 -6.34 3.02 -6 2 C-4.02 2.495 -4.02 2.495 -2 3 C-2 3.66 -2 4.32 -2 5 C-1.34 5 -0.68 5 0 5 C0 3.35 0 1.7 0 0 Z " fill="#D3AA63" transform="translate(43,22)"/>
<path d="M0 0 C1.98 0.66 3.96 1.32 6 2 C6.33 1.67 6.66 1.34 7 1 C7.66 1 8.32 1 9 1 C10.0326802 3.78823655 10.04509293 4.8677274 9.0625 7.75 C8.711875 8.4925 8.36125 9.235 8 10 C7.01 10 6.02 10 5 10 C4.67 10.66 4.34 11.32 4 12 C3.34 12 2.68 12 2 12 C2.66 9.36 3.32 6.72 4 4 C3.34 4 2.68 4 2 4 C2 3.34 2 2.68 2 2 C1.34 2 0.68 2 0 2 C0 1.34 0 0.68 0 0 Z " fill="#67461C" transform="translate(28,30)"/>
<path d="M0 0 C0.66 0 1.32 0 2 0 C2 0.66 2 1.32 2 2 C4.64 2 7.28 2 10 2 C10.99 3.98 11.98 5.96 13 8 C10.6875 8.25 10.6875 8.25 8 8 C6.1875 6 6.1875 6 5 4 C5 4.66 5 5.32 5 6 C3.68 6.33 2.36 6.66 1 7 C0.67 4.69 0.34 2.38 0 0 Z " fill="#D0861A" transform="translate(42,14)"/>
<path d="M0 0 C0.66 0.33 1.32 0.66 2 1 C1.56509678 6.43629023 0.3898616 9.7128221 -3 14 C-3.99 14.66 -4.98 15.32 -6 16 C-6.99 15.67 -7.98 15.34 -9 15 C-8.38511719 14.31164062 -8.38511719 14.31164062 -7.7578125 13.609375 C-7.21898437 12.99578125 -6.68015625 12.3821875 -6.125 11.75 C-5.59132812 11.14671875 -5.05765625 10.5434375 -4.5078125 9.921875 C-2.08249696 6.83054017 -0.81948185 3.82424862 0 0 Z " fill="#312E29" transform="translate(45,35)"/>
<path d="M0 0 C-0.33 0.99 -0.66 1.98 -1 3 C-1.99 2.67 -2.98 2.34 -4 2 C-4 2.66 -4 3.32 -4 4 C-3.34 4 -2.68 4 -2 4 C-2 4.66 -2 5.32 -2 6 C-1.34 6 -0.68 6 0 6 C-0.33 6.99 -0.66 7.98 -1 9 C-1.66 9 -2.32 9 -3 9 C-3 10.98 -3 12.96 -3 15 C-5.32590854 11.36576791 -5.16265833 8.22911669 -5 4 C-5.99 4 -6.98 4 -8 4 C-8 3.01 -8 2.02 -8 1 C-5.07175348 0.02391783 -3.04386724 -0.08226668 0 0 Z " fill="#7E4F11" transform="translate(32,28)"/>
<path d="M0 0 C0.598125 0.33 1.19625 0.66 1.8125 1 C4.05386471 2.20787988 4.05386471 2.20787988 7 2 C1.59696035 6.67289916 -3.04769059 6.44534366 -10 6 C-10.33 5.34 -10.66 4.68 -11 4 C-4.375 2 -4.375 2 -1 2 C-0.67 1.34 -0.34 0.68 0 0 Z " fill="#AA7919" transform="translate(45,53)"/>
<path d="M0 0 C0.66 0.99 1.32 1.98 2 3 C1.67 3.99 1.34 4.98 1 6 C-0.65 6 -2.3 6 -4 6 C-4 6.66 -4 7.32 -4 8 C-6.97 7.505 -6.97 7.505 -10 7 C-9.78515625 5.109375 -9.78515625 5.109375 -9 3 C-6.93359375 1.953125 -6.93359375 1.953125 -4.4375 1.25 C-3.61121094 1.00765625 -2.78492188 0.7653125 -1.93359375 0.515625 C-1.29550781 0.34546875 -0.65742187 0.1753125 0 0 Z " fill="#CA880E" transform="translate(36,51)"/>
<path d="M0 0 C0.33 1.32 0.66 2.64 1 4 C0.01 4.66 -0.98 5.32 -2 6 C-2.99 5.34 -3.98 4.68 -5 4 C-7.11280345 3.36707617 -7.11280345 3.36707617 -9 3 C-9 2.01 -9 1.02 -9 0 C-5.93109813 -1.53445094 -3.29905734 -0.54984289 0 0 Z " fill="#D5A03A" transform="translate(54,46)"/>
<path d="M0 0 C1.32 0.33 2.64 0.66 4 1 C4.66 3.64 5.32 6.28 6 9 C5.01 9.33 4.02 9.66 3 10 C3 9.34 3 8.68 3 8 C1.02 7.34 -0.96 6.68 -3 6 C-2 4 -1 2 0 0 Z " fill="#C97A0F" transform="translate(13,10)"/>
<path d="M0 0 C2.9719385 1.12451727 5.33440687 2.22293791 8 4 C8 4.99 8 5.98 8 7 C6.3125 7.8125 6.3125 7.8125 4 8 C1.25 5.5625 1.25 5.5625 -1 3 C-0.34 2.67 0.32 2.34 1 2 C0.67 1.34 0.34 0.68 0 0 Z " fill="#AE7311" transform="translate(17,49)"/>
<path d="M0 0 C6.64615385 1.47692308 6.64615385 1.47692308 8.4375 4.125 C8.7159375 5.053125 8.7159375 5.053125 9 6 C7.35 6.66 5.7 7.32 4 8 C2 6.25 2 6.25 0 4 C0 2.68 0 1.36 0 0 Z " fill="#CC972F" transform="translate(44,48)"/>
<path d="M0 0 C5.69051363 0.5381371 11.34865884 1.1400133 17 2 C16.67 2.99 16.34 3.98 16 5 C4.10324186 4.39578636 4.10324186 4.39578636 0 1 C0 0.67 0 0.34 0 0 Z " fill="#CC8915" transform="translate(15,43)"/>
<path d="M0 0 C0.66 0 1.32 0 2 0 C1.67 1.65 1.34 3.3 1 5 C3.475 5.99 3.475 5.99 6 7 C6 7.66 6 8.32 6 9 C5.01 9.33 4.02 9.66 3 10 C3 9.34 3 8.68 3 8 C1.02 8 -0.96 8 -3 8 C-3.33 6.02 -3.66 4.04 -4 2 C-2.68 3.32 -1.36 4.64 0 6 C0 4.02 0 2.04 0 0 Z " fill="#B3690D" transform="translate(29,37)"/>
<path d="M0 0 C3.96 0.33 7.92 0.66 12 1 C11.67 2.32 11.34 3.64 11 5 C8.44980222 5.91078492 7.40445022 6.17843392 4.875 5.0625 C4.25625 4.711875 3.6375 4.36125 3 4 C2.34 4 1.68 4 1 4 C0.67 2.68 0.34 1.36 0 0 Z " fill="#B36006" transform="translate(47,37)"/>
<path d="M0 0 C0.66 0.99 1.32 1.98 2 3 C0.35 3.66 -1.3 4.32 -3 5 C-4.65 3.35 -6.3 1.7 -8 0 C-4.97786398 -0.97140086 -2.9812093 -1.19248372 0 0 Z " fill="#D19523" transform="translate(31,8)"/>
<path d="M0 0 C0.33 1.32 0.66 2.64 1 4 C1.99 3.67 2.98 3.34 4 3 C4.33 3.99 4.66 4.98 5 6 C5.99 6.33 6.98 6.66 8 7 C6.68 7 5.36 7 4 7 C3.67 7.99 3.34 8.98 3 10 C1.68 9.34 0.36 8.68 -1 8 C-0.67 5.36 -0.34 2.72 0 0 Z " fill="#6A4719" transform="translate(15,30)"/>
<path d="M0 0 C4 2 4 2 4.8125 4 C5 6 5 6 4 8 C3.64830932 9.32860925 3.31229724 10.66158328 3 12 C2.34 12 1.68 12 1 12 C0.67 8.04 0.34 4.08 0 0 Z " fill="#7D4F16" transform="translate(42,28)"/>
<path d="M0 0 C0.66 0 1.32 0 2 0 C5.44935617 4.27720165 5.6663273 8.71876659 6 14 C4.21178226 11.31767339 2.79857396 8.69711039 1.375 5.8125 C0.92898437 4.91144531 0.48296875 4.01039062 0.0234375 3.08203125 C-0.31429687 2.39496094 -0.65203125 1.70789062 -1 1 C-0.67 0.67 -0.34 0.34 0 0 Z " fill="#D6C5A9" transform="translate(52,14)"/>
<path d="M0 0 C0.33 0.66 0.66 1.32 1 2 C-2.41176471 8.70588235 -2.41176471 8.70588235 -5 10 C-4.67 8.02 -4.34 6.04 -4 4 C-4.99 3.67 -5.98 3.34 -7 3 C-4.66785852 1.79371992 -2.50357861 0.8345262 0 0 Z " fill="#AB771F" transform="translate(58,43)"/>
<path d="M0 0 C0.75 1.75 0.75 1.75 1 4 C-1.18771055 7.06279477 -2.56114062 7.89872476 -6.25 8.75 C-7.61125 8.87375 -7.61125 8.87375 -9 9 C-9 8.34 -9 7.68 -9 7 C-8.071875 6.5875 -7.14375 6.175 -6.1875 5.75 C-3.11945319 4.06558214 -1.80959535 2.91545917 0 0 Z " fill="#CD871A" transform="translate(42,39)"/>
<path d="M0 0 C0.66 0.33 1.32 0.66 2 1 C2.6328125 3.06640625 2.6328125 3.06640625 3.125 5.5625 C3.29257812 6.38878906 3.46015625 7.21507812 3.6328125 8.06640625 C3.75398438 8.70449219 3.87515625 9.34257813 4 10 C2 9 2 9 1 6 C0.01 6.99 -0.98 7.98 -2 9 C-2 6.69 -2 4.38 -2 2 C-1.34 2 -0.68 2 0 2 C0 1.34 0 0.68 0 0 Z " fill="#C07112" transform="translate(39,29)"/>
<path d="M0 0 C-0.61875 0.04125 -1.2375 0.0825 -1.875 0.125 C-2.57625 0.41375 -3.2775 0.7025 -4 1 C-5.3045656 3.99615946 -5.3045656 3.99615946 -6 7 C-6.66 7 -7.32 7 -8 7 C-8 5.02 -8 3.04 -8 1 C-4.93251126 -0.86240388 -3.40254489 -1.2151946 0 0 Z " fill="#89560C" transform="translate(24,27)"/>
<path d="M0 0 C0.33 0.66 0.66 1.32 1 2 C2.98 2 4.96 2 7 2 C7.33 4.64 7.66 7.28 8 10 C4.125 7.375 4.125 7.375 3 4 C2.01 3.67 1.02 3.34 0 3 C0 2.01 0 1.02 0 0 Z " fill="#975C0D" transform="translate(20,33)"/>
<path d="M0 0 C1.60332791 -0.08121924 3.20784026 -0.13929134 4.8125 -0.1875 C6.15248047 -0.23970703 6.15248047 -0.23970703 7.51953125 -0.29296875 C10.41647515 0.04918998 11.22555028 0.75393573 13 3 C9.44757118 4.18414294 8.30169438 3.69535532 4.8125 2.5625 C3.91144531 2.27503906 3.01039062 1.98757812 2.08203125 1.69140625 C1.39496094 1.46324219 0.70789063 1.23507813 0 1 C0 0.67 0 0.34 0 0 Z " fill="#353634" transform="translate(24,16)"/>
<path d="M0 0 C1.98 0.495 1.98 0.495 4 1 C4 4 4 4 2 7 C1.01 6.34 0.02 5.68 -1 5 C-0.67 3.35 -0.34 1.7 0 0 Z " fill="#BE6006" transform="translate(11,16)"/>
<path d="M0 0 C0.66 0.33 1.32 0.66 2 1 C1.67 3.31 1.34 5.62 1 8 C-0.32 8.33 -1.64 8.66 -3 9 C-2.5359375 7.88625 -2.5359375 7.88625 -2.0625 6.75 C-1.1905075 4.49307824 -0.52332993 2.3549847 0 0 Z " fill="#3B3632" transform="translate(45,35)"/>
<path d="M0 0 C-0.33 0.99 -0.66 1.98 -1 3 C-1.99 2.67 -2.98 2.34 -4 2 C-4 3.65 -4 5.3 -4 7 C-4.33 6.01 -4.66 5.02 -5 4 C-5.99 4 -6.98 4 -8 4 C-8 3.01 -8 2.02 -8 1 C-5.07175348 0.02391783 -3.04386724 -0.08226668 0 0 Z " fill="#93540C" transform="translate(32,28)"/>
<path d="M0 0 C0.66 0.33 1.32 0.66 2 1 C2 2.32 2 3.64 2 5 C2.66 5 3.32 5 4 5 C4 5.66 4 6.32 4 7 C2.35 6.67 0.7 6.34 -1 6 C-1.625 4.125 -1.625 4.125 -2 2 C-1.34 1.34 -0.68 0.68 0 0 Z " fill="#CD8B19" transform="translate(10,37)"/>
<path d="M0 0 C0.66 0 1.32 0 2 0 C4 3 4 3 4 6 C0.85262818 5.30058404 -2.02588876 4.23921302 -5 3 C-4.01 2.67 -3.02 2.34 -2 2 C-1.34 1.67 -0.68 1.34 0 1 C0 0.67 0 0.34 0 0 Z " fill="#7E4D11" transform="translate(36,17)"/>
<path d="M0 0 C1.32 0.66 2.64 1.32 4 2 C4 2.99 4 3.98 4 5 C3.01 5 2.02 5 1 5 C0.34 3.68 -0.32 2.36 -1 1 C-0.67 0.67 -0.34 0.34 0 0 Z " fill="#D5A03F" transform="translate(48,10)"/>
<path d="M0 0 C0.33 0.66 0.66 1.32 1 2 C1.99 2 2.98 2 4 2 C4.33 3.32 4.66 4.64 5 6 C4.01 6.495 4.01 6.495 3 7 C2.01 6.34 1.02 5.68 0 5 C-0.1875 2.375 -0.1875 2.375 0 0 Z " fill="#935A0B" transform="translate(32,38)"/>
<path d="M0 0 C1.22589844 0.15275391 1.22589844 0.15275391 2.4765625 0.30859375 C3.41628906 0.43427734 3.41628906 0.43427734 4.375 0.5625 C4.375 0.8925 4.375 1.2225 4.375 1.5625 C1.075 1.8925 -2.225 2.2225 -5.625 2.5625 C-5.955 1.9025 -6.285 1.2425 -6.625 0.5625 C-4.10446405 -0.69776798 -2.7707902 -0.35624445 0 0 Z " fill="#B17512" transform="translate(26.625,17.4375)"/>
<path d="M0 0 C0.99 0.33 1.98 0.66 3 1 C2.67 2.32 2.34 3.64 2 5 C0.68 4.67 -0.64 4.34 -2 4 C-2 3.01 -2 2.02 -2 1 C-1.34 0.67 -0.68 0.34 0 0 Z " fill="#D8A346" transform="translate(47,45)"/>
<path d="M0 0 C2 2 2 2 2.1953125 4.1640625 C2.16050781 5.38222656 2.16050781 5.38222656 2.125 6.625 C2.10695312 7.44226563 2.08890625 8.25953125 2.0703125 9.1015625 C2.04710937 9.72804688 2.02390625 10.35453125 2 11 C1.01 10.67 0.02 10.34 -1 10 C-0.835 8.906875 -0.67 7.81375 -0.5 6.6875 C0.06718184 3.12474127 0.06718184 3.12474127 0 0 Z " fill="#CD8924" transform="translate(57,21)"/>
<path d="M0 0 C0.66 0.99 1.32 1.98 2 3 C0.68 4.32 -0.64 5.64 -2 7 C-2 5 -2 3 -2 1 C-1.34 0.67 -0.68 0.34 0 0 Z " fill="#CD8E1A" transform="translate(39,50)"/>
</svg>
