<?xml version="1.0" encoding="UTF-8"?>
<svg version="1.1" xmlns="http://www.w3.org/2000/svg" width="62" height="62">
<path d="M0 0 C7.9130954 6.36488108 12.42694859 13.31089635 14.25390625 23.40625 C14.74315955 31.10804385 11.40867019 38.87166844 6.625 44.75 C0.84160479 50.80643103 -5.57831459 52.92054436 -13.75 53.625 C-22.07911628 53.46784686 -29.4732919 49.94068198 -35.40625 44.2265625 C-41.70785351 37.20886768 -44.55137821 29.84145984 -44.0625 20.375 C-43.00369078 12.54954797 -39.53752557 5.41725817 -33.20703125 0.5625 C-21.89242018 -6.23051228 -11.47398273 -6.19595067 0 0 Z " fill="#C3830A" transform="translate(48.125,7.6875)"/>
<path d="M0 0 C4.84333386 3.89572506 9.44267887 8.503267 11.875 14.3125 C12 17.0625 12 17.0625 11.875 19.3125 C11.215 18.9825 10.555 18.6525 9.875 18.3125 C9.875 17.6525 9.875 16.9925 9.875 16.3125 C9.215 16.3125 8.555 16.3125 7.875 16.3125 C7.875 14.9925 7.875 13.6725 7.875 12.3125 C6.885 12.6425 5.895 12.9725 4.875 13.3125 C4.38 11.8275 4.38 11.8275 3.875 10.3125 C1.895 9.9825 -0.085 9.6525 -2.125 9.3125 C-2.125 10.3025 -2.125 11.2925 -2.125 12.3125 C-1.465 12.3125 -0.805 12.3125 -0.125 12.3125 C0.37 16.2725 0.37 16.2725 0.875 20.3125 C0.215 19.9825 -0.445 19.6525 -1.125 19.3125 C-1.125 18.6525 -1.125 17.9925 -1.125 17.3125 C-2.115 16.9825 -3.105 16.6525 -4.125 16.3125 C-4.57875 15.52875 -5.0325 14.745 -5.5 13.9375 C-7.44299345 10.79881827 -8.728887 9.74641438 -12.125 8.3125 C-15.60177244 7.94476445 -18.92901935 7.71450967 -22.125 9.3125 C-21.55652344 9.45171875 -20.98804687 9.5909375 -20.40234375 9.734375 C-8.45243778 12.76797034 -8.45243778 12.76797034 -4.125 18.3125 C-3.3125 20.625 -3.3125 20.625 -3.125 22.3125 C-3.640625 21.9825 -4.15625 21.6525 -4.6875 21.3125 C-7.89398439 19.99701922 -10.69054703 20.247699 -14.125 20.3125 C-14.455 19.9825 -14.785 19.6525 -15.125 19.3125 C-17.24508116 19.13436646 -19.37291612 19.04460772 -21.5 19 C-22.66273437 18.96261719 -23.82546875 18.92523437 -25.0234375 18.88671875 C-28.22550667 18.99686404 -28.22550667 18.99686404 -30.0390625 21.33203125 C-30.39742187 21.98558594 -30.75578125 22.63914062 -31.125 23.3125 C-31.125 22.3225 -31.125 21.3325 -31.125 20.3125 C-32.445 20.3125 -33.765 20.3125 -35.125 20.3125 C-35.125 19.3225 -35.125 18.3325 -35.125 17.3125 C-37.435 16.9825 -39.745 16.6525 -42.125 16.3125 C-41.51539207 9.91161675 -38.99745646 6.23062613 -34.5625 1.6875 C-23.79973902 -6.73197631 -11.51807737 -6.21976178 0 0 Z " fill="#C58003" transform="translate(48.125,7.6875)"/>
<path d="M0 0 C2.97 0.33 5.94 0.66 9 1 C8.67 2.32 8.34 3.64 8 5 C11.62885324 5.15149298 11.62885324 5.15149298 15 4 C17.125 4.4375 17.125 4.4375 19 5 C18.67 7.64 18.34 10.28 18 13 C18.33 11.68 18.66 10.36 19 9 C19.61875 9.185625 20.2375 9.37125 20.875 9.5625 C23.04160178 10.23686176 23.04160178 10.23686176 25 9 C25 10.32 25 11.64 25 13 C26.57273568 10.1575146 26.57273568 10.1575146 27 7 C27.66 7 28.32 7 29 7 C29 7.66 29 8.32 29 9 C32.465 8.505 32.465 8.505 36 8 C36.495 10.475 36.495 10.475 37 13 C37.66 12.01 38.32 11.02 39 10 C41 12 41 12 41.5625 14.8125 C40.95908953 18.23182598 40.66097549 18.80131359 38.125 20.9375 C33.51800481 23.907924 29.154524 23.04749884 24 22 C24 21.01 24 20.02 24 19 C23.67 19.99 23.34 20.98 23 22 C20.36 21.67 17.72 21.34 15 21 C15 20.34 15 19.68 15 19 C13.02 19.33 11.04 19.66 9 20 C8.67 17.69 8.34 15.38 8 13 C5.91456287 12.97507002 5.91456287 12.97507002 3.5 13.1875 C2.2625 13.0946875 2.2625 13.0946875 1 13 C-1.30143236 9.54785147 -1.13833854 8.76520676 -0.625 4.8125 C-0.51414062 3.91144531 -0.40328125 3.01039062 -0.2890625 2.08203125 C-0.19367187 1.39496094 -0.09828125 0.70789063 0 0 Z " fill="#9B6006" transform="translate(5,23)"/>
<path d="M0 0 C5.68315586 3.71670157 10.22561572 8.77391696 13 15 C13.3125 18 13.3125 18 13 20 C12.34 19.67 11.68 19.34 11 19 C11 18.34 11 17.68 11 17 C10.34 17 9.68 17 9 17 C9 15.68 9 14.36 9 13 C8.01 13.33 7.02 13.66 6 14 C5.67 13.01 5.34 12.02 5 11 C2.03 10.505 2.03 10.505 -1 10 C-1 10.99 -1 11.98 -1 13 C-0.34 13 0.32 13 1 13 C1.33 15.64 1.66 18.28 2 21 C1.34 20.67 0.68 20.34 0 20 C0 19.34 0 18.68 0 18 C-0.99 17.67 -1.98 17.34 -3 17 C-3.45375 16.21625 -3.9075 15.4325 -4.375 14.625 C-6.29755573 11.51933306 -7.689429 10.504805 -11 9 C-13.32817964 8.63239269 -15.6618385 8.29758419 -18 8 C-20.4375 6.9375 -20.4375 6.9375 -22 6 C-22 5.01 -22 4.02 -22 3 C-22.99 3 -23.98 3 -25 3 C-25.33 2.01 -25.66 1.02 -26 0 C-18.38224505 -3.50305519 -7.77020936 -3.26174833 0 0 Z " fill="#CFB55B" transform="translate(47,7)"/>
<path d="M0 0 C1.68437744 0.62056011 3.35008418 1.29289322 5 2 C6.32676508 2.35858516 7.65835921 2.7018576 9 3 C9 3.66 9 4.32 9 5 C11.64 4.67 14.28 4.34 17 4 C17 4.66 17 5.32 17 6 C18.04800781 5.89171875 18.04800781 5.89171875 19.1171875 5.78125 C20.02726562 5.6884375 20.93734375 5.595625 21.875 5.5 C23.23238281 5.36078125 23.23238281 5.36078125 24.6171875 5.21875 C27 5 27 5 29 5 C28.67 6.32 28.34 7.64 28 9 C21.76647981 11.3548854 16.54311329 10.87557031 10 10 C10.66 10.66 11.32 11.32 12 12 C12.66 11.67 13.32 11.34 14 11 C17.87571866 10.82486929 21.62493694 10.86462683 24.703125 13.40625 C26.0625 15.0625 26.0625 15.0625 28 18 C27 19 27 19 23.625 19.3125 C14.91944796 19.15648652 7.8199218 15.52836775 1.55859375 9.68359375 C-1.31580239 6.57866959 -2 5.33671324 -2 1 C-1.34 0.67 -0.68 0.34 0 0 Z " fill="#A98419" transform="translate(11,42)"/>
<path d="M0 0 C0.33 0.66 0.66 1.32 1 2 C-0.11375 1.7525 -0.11375 1.7525 -1.25 1.5 C-11.46358396 0.05672302 -11.46358396 0.05672302 -21 3 C-20.34 3.66 -19.68 4.32 -19 5 C-18.01 5 -17.02 5 -16 5 C-16.99 5.495 -16.99 5.495 -18 6 C-17.34 6.66 -16.68 7.32 -16 8 C-15.34 8.66 -14.68 9.32 -14 10 C-14.99 10.66 -15.98 11.32 -17 12 C-16.43152344 12.13921875 -15.86304688 12.2784375 -15.27734375 12.421875 C-3.32743778 15.45547034 -3.32743778 15.45547034 1 21 C1.8125 23.3125 1.8125 23.3125 2 25 C1.29875 24.236875 0.5975 23.47375 -0.125 22.6875 C-4.23260409 18.84778314 -7.20862909 17.08667924 -12.875 16.8125 C-14.421875 16.9053125 -14.421875 16.9053125 -16 17 C-16 16.34 -16 15.68 -16 15 C-16.86625 15.474375 -17.7325 15.94875 -18.625 16.4375 C-21.85387374 17.93234895 -24.49033826 18.58218313 -28 19 C-27.360625 18.0925 -26.72125 17.185 -26.0625 16.25 C-24.38571047 13.60778619 -23.46310002 12.0101501 -23 9 C-25.64 8.67 -28.28 8.34 -31 8 C-28.93018779 3.0324507 -25.9710766 1.74440387 -21.25390625 -0.203125 C-13.95115359 -2.78503409 -7.22785617 -2.65513084 0 0 Z " fill="#BD921A" transform="translate(43,5)"/>
<path d="M0 0 C0.66 0.33 1.32 0.66 2 1 C2 1.66 2 2.32 2 3 C5.465 2.505 5.465 2.505 9 2 C8.34 3.65 7.68 5.3 7 7 C6.01 7 5.02 7 4 7 C4 7.33 4 7.66 4 8 C3.67449498 9.66821323 3.34153937 11.33499557 3 13 C-4.42857143 13.28571429 -4.42857143 13.28571429 -8 11 C-7.49268371 6.60325886 -4.88085945 4.16191891 -2 1 C-1.34 0.67 -0.68 0.34 0 0 Z " fill="#C3A536" transform="translate(48,43)"/>
<path d="M0 0 C2.10409639 -0.02701408 4.20829178 -0.04640223 6.3125 -0.0625 C7.48425781 -0.07410156 8.65601563 -0.08570312 9.86328125 -0.09765625 C13 0 13 0 16 1 C17.66362417 1.34820041 19.32995171 1.68404492 21 2 C21 2.99 21 3.98 21 5 C20.01 5.495 20.01 5.495 19 6 C18.34444881 8.52733235 18.34444881 8.52733235 18 11 C17.67 11 17.34 11 17 11 C17 9.35 17 7.7 17 6 C16.01 6 15.02 6 14 6 C13.67 5.67 13.34 5.34 13 5 C12.8453125 5.86625 12.8453125 5.86625 12.6875 6.75 C11.90207202 9.32049158 10.69495803 10.93657284 9 13 C9 11.35 9 9.7 9 8 C6.525 7.01 6.525 7.01 4 6 C4.33 7.32 4.66 8.64 5 10 C4.34 10 3.68 10 3 10 C2.67 11.32 2.34 12.64 2 14 C2.14168137 12.56208484 2.28851043 11.1246763 2.4375 9.6875 C2.51871094 8.88699219 2.59992187 8.08648437 2.68359375 7.26171875 C3 5 3 5 4 2 C2.68 2 1.36 2 0 2 C0 1.34 0 0.68 0 0 Z " fill="#B1660E" transform="translate(20,26)"/>
<path d="M0 0 C0.33 0.66 0.66 1.32 1 2 C2.65 2 4.3 2 6 2 C6.33 1.34 6.66 0.68 7 0 C9.5654594 2.5654594 9.54046087 4.47686668 10 8 C11.65 8 13.3 8 15 8 C15 8.66 15 9.32 15 10 C17.31 10 19.62 10 22 10 C22.66 8.68 23.32 7.36 24 6 C25.5625 7.8125 25.5625 7.8125 27 10 C26.67 10.99 26.34 11.98 26 13 C22.37 13 18.74 13 15 13 C15 12.34 15 11.68 15 11 C13.6078125 11.3403125 13.6078125 11.3403125 12.1875 11.6875 C9 12 9 12 7.25 10.5625 C6.63125 9.7890625 6.63125 9.7890625 6 9 C5.34 9 4.68 9 4 9 C3.67 9.99 3.34 10.98 3 12 C2.49166409 10.75336669 1.99368855 9.50250613 1.5 8.25 C1.2215625 7.55390625 0.943125 6.8578125 0.65625 6.140625 C0 4 0 4 0 0 Z " fill="#BA7808" transform="translate(5,34)"/>
<path d="M0 0 C0 3 0 3 -2 5.1875 C-2.66 5.785625 -3.32 6.38375 -4 7 C-3.67 7.99 -3.34 8.98 -3 10 C-2.01 10.33 -1.02 10.66 0 11 C1.34090759 11.65129797 2.67592331 12.31513275 4 13 C-1.19304666 16.01921317 -1.19304666 16.01921317 -4.625 15.9375 C-7 15 -7 15 -8.6875 13 C-12.86704113 9.38526173 -18.67000297 10 -24 10 C-24 9.01 -24 8.02 -24 7 C-23.28714844 7.09539063 -22.57429688 7.19078125 -21.83984375 7.2890625 C-16.02623245 7.9619704 -11.39015337 8.47048696 -6 6 C-4.22851628 3.52066803 -4.22851628 3.52066803 -3 1 C-2.01 0.67 -1.02 0.34 0 0 Z " fill="#A2801E" transform="translate(45,44)"/>
<path d="M0 0 C2.475 0.495 2.475 0.495 5 1 C5 1.66 5 2.32 5 3 C7.64 2.67 10.28 2.34 13 2 C13 2.66 13 3.32 13 4 C14.04800781 3.89171875 14.04800781 3.89171875 15.1171875 3.78125 C16.02726562 3.6884375 16.93734375 3.595625 17.875 3.5 C19.23238281 3.36078125 19.23238281 3.36078125 20.6171875 3.21875 C23 3 23 3 25 3 C24.67 4.32 24.34 5.64 24 7 C18.42164039 9.01770454 13.80399768 9.48254289 8 8 C5.60780289 6.87743209 4.04737743 5.73239629 2 4 C2 3.34 2 2.68 2 2 C1.34 2 0.68 2 0 2 C0 1.34 0 0.68 0 0 Z " fill="#CDAD3A" transform="translate(15,44)"/>
<path d="M0 0 C9.27734375 -0.09765625 9.27734375 -0.09765625 12 0 C12.33 0.33 12.66 0.66 13 1 C12.91062197 2.52519276 12.75462854 4.04681929 12.5625 5.5625 C12.46066406 6.38878906 12.35882813 7.21507812 12.25390625 8.06640625 C12.17011719 8.70449219 12.08632813 9.34257813 12 10 C8.44219804 9.39009109 5.3171411 8.4216319 2 7 C1.67 8.65 1.34 10.3 1 12 C0.34 12 -0.32 12 -1 12 C-0.67 8.04 -0.34 4.08 0 0 Z " fill="#925917" transform="translate(47,32)"/>
<path d="M0 0 C5.75 1.75 5.75 1.75 8 4 C8.66 4 9.32 4 10 4 C10 5.32 10 6.64 10 8 C10.66 8 11.32 8 12 8 C12.33 8.66 12.66 9.32 13 10 C13.66 9.67 14.32 9.34 15 9 C15 11.31 15 13.62 15 16 C14.46375 15.34 13.9275 14.68 13.375 14 C11.11021468 11.73298958 11.11021468 11.73298958 7.875 11.5625 C6.451875 11.7790625 6.451875 11.7790625 5 12 C4.01 13.485 4.01 13.485 3 15 C2.12132271 11.26562152 1.91087781 7.83225427 2 4 C1.34 4 0.68 4 0 4 C-0.33 3.01 -0.66 2.02 -1 1 C-0.67 0.67 -0.34 0.34 0 0 Z " fill="#C9880B" transform="translate(46,16)"/>
<path d="M0 0 C0.33 0.66 0.66 1.32 1 2 C-0.11375 1.7525 -0.11375 1.7525 -1.25 1.5 C-11.46358396 0.05672302 -11.46358396 0.05672302 -21 3 C-20.34 3.66 -19.68 4.32 -19 5 C-18.01 5 -17.02 5 -16 5 C-16.99 5.495 -16.99 5.495 -18 6 C-17.34 6.66 -16.68 7.32 -16 8 C-15.34 8.66 -14.68 9.32 -14 10 C-15 11 -15 11 -18.0625 11.0625 C-19.031875 11.041875 -20.00125 11.02125 -21 11 C-20.67 10.01 -20.34 9.02 -20 8 C-22.31 7.34 -24.62 6.68 -27 6 C-26.81640625 4.140625 -26.81640625 4.140625 -26 2 C-17.60116364 -2.78246569 -8.95341222 -3.28900857 0 0 Z " fill="#C49323" transform="translate(43,5)"/>
<path d="M0 0 C7.38461538 -0.49230769 7.38461538 -0.49230769 10.5 2 C10.995 2.66 11.49 3.32 12 4 C12.66 3.67 13.32 3.34 14 3 C16.15305957 6.85756507 17.39253254 9.55129785 17 14 C16.34 13.67 15.68 13.34 15 13 C15 12.34 15 11.68 15 11 C14.34 11 13.68 11 13 11 C13 9.68 13 8.36 13 7 C12.01 7.33 11.02 7.66 10 8 C9.67 7.01 9.34 6.02 9 5 C6.03 4.505 6.03 4.505 3 4 C3 4.99 3 5.98 3 7 C3.66 7 4.32 7 5 7 C5.33 8.32 5.66 9.64 6 11 C2.52308207 9.84102736 1.77984405 9.1359157 0 6 C-0.1875 2.75 -0.1875 2.75 0 0 Z " fill="#C9AB4D" transform="translate(43,13)"/>
<path d="M0 0 C0.33 0.66 0.66 1.32 1 2 C4.02934491 2.65772428 4.02934491 2.65772428 7 3 C7 3.66 7 4.32 7 5 C7.99 5 8.98 5 10 5 C10.33 3.35 10.66 1.7 11 0 C11.99333958 2.62656048 12.07747985 3.7760514 11.14453125 6.47265625 C10.70496094 7.32730469 10.26539063 8.18195312 9.8125 9.0625 C9.17248047 10.34833984 9.17248047 10.34833984 8.51953125 11.66015625 C6.93322814 14.10281836 5.42160104 15.41844043 3 17 C3 16.01 3 15.02 3 14 C2.34 13.67 1.68 13.34 1 13 C1.99 13 2.98 13 4 13 C4.66 12.67 5.32 12.34 6 12 C6.33 11.01 6.66 10.02 7 9 C5.576875 9.0928125 5.576875 9.0928125 4.125 9.1875 C3.09375 9.125625 2.0625 9.06375 1 9 C-1 6 -1 6 -0.625 2.8125 C-0.41875 1.884375 -0.2125 0.95625 0 0 Z " fill="#BB8716" transform="translate(49,37)"/>
<path d="M0 0 C0.5625 1.9375 0.5625 1.9375 1 4 C0.67 4.33 0.34 4.66 0 5 C0.495 5.45375 0.99 5.9075 1.5 6.375 C3 8 3 8 3 10 C-0.94727588 10.17942163 -3.5980513 10.09350689 -7 8 C-7 7.01 -7 6.02 -7 5 C-7.99 5 -8.98 5 -10 5 C-10.33 4.01 -10.66 3.02 -11 2 C-7.17010894 0.19769832 -4.21878192 -0.19622241 0 0 Z " fill="#D0B045" transform="translate(32,5)"/>
<path d="M0 0 C0.66 0 1.32 0 2 0 C2 0.66 2 1.32 2 2 C5.465 1.505 5.465 1.505 9 1 C10.18771723 4.42943519 9.80226223 6.37784675 8.5625 9.75 C8.27503906 10.54921875 7.98757812 11.3484375 7.69140625 12.171875 C7.46324219 12.77515625 7.23507813 13.3784375 7 14 C5.33333333 14 3.66666667 14 2 14 C1.875 8.25 1.875 8.25 3 6 C2.34 5.67 1.68 5.34 1 5 C0.375 2.4375 0.375 2.4375 0 0 Z " fill="#8A590A" transform="translate(32,30)"/>
<path d="M0 0 C2.64 0 5.28 0 8 0 C8 1.65 8 3.3 8 5 C9.32 4.34 10.64 3.68 12 3 C11.67 6.3 11.34 9.6 11 13 C10.67 13 10.34 13 10 13 C9.34 11.02 8.68 9.04 8 7 C7.67 7.33 7.34 7.66 7 8 C4.5625 8.25 4.5625 8.25 2 8 C-0.1519437 4.77208445 -0.20086443 3.71599191 0 0 Z " fill="#6D4817" transform="translate(4,28)"/>
<path d="M0 0 C4.23998354 -0.39259107 7.36733941 -0.32490278 11 2 C11 4.64 11 7.28 11 10 C10.34 10 9.68 10 9 10 C8.67 8.68 8.34 7.36 8 6 C3.71 5.67 -0.58 5.34 -5 5 C-5 3.68 -5 2.36 -5 1 C-4.34 1 -3.68 1 -3 1 C-2.67 1.66 -2.34 2.32 -2 3 C-1.34 2.01 -0.68 1.02 0 0 Z " fill="#B37004" transform="translate(51,27)"/>
<path d="M0 0 C0.66 0.33 1.32 0.66 2 1 C2 1.66 2 2.32 2 3 C5.465 2.505 5.465 2.505 9 2 C8.34 3.65 7.68 5.3 7 7 C6.01 7 5.02 7 4 7 C3.67 7.66 3.34 8.32 3 9 C0.69 9 -1.62 9 -4 9 C-2.68 6.03 -1.36 3.06 0 0 Z " fill="#CEB351" transform="translate(48,43)"/>
<path d="M0 0 C3 2 3 2 3.625 4.8125 C2.93399752 8.33661266 2.52266775 8.82368725 -0.1875 10.9375 C-2.86192599 12.64434911 -3.67873593 13.02050622 -6.9375 12.8125 C-7.618125 12.544375 -8.29875 12.27625 -9 12 C-8.67 10.35 -8.34 8.7 -8 7 C-6.68 8.32 -5.36 9.64 -4 11 C-3.67 9.02 -3.34 7.04 -3 5 C-2.34 5 -1.68 5 -1 5 C-0.67 3.35 -0.34 1.7 0 0 Z " fill="#A86B04" transform="translate(43,33)"/>
<path d="M0 0 C0.7425 0.495 0.7425 0.495 1.5 1 C1.5 1.99 1.5 2.98 1.5 4 C-0.0625 4.6875 -0.0625 4.6875 -2.5 5 C-4.83556463 4.00522247 -7.16875071 3.00484883 -9.5 2 C-12.79285101 1.74730583 -12.79285101 1.74730583 -15.5 2 C-11.4398483 -2.0601517 -5.1299656 -2.05198624 0 0 Z " fill="#9C6608" transform="translate(38.5,16)"/>
<path d="M0 0 C3.875 2.625 3.875 2.625 5 6 C6.49985609 7.66710346 6.49985609 7.66710346 8 9 C7.01 9.495 7.01 9.495 6 10 C6.33 11.65 6.66 13.3 7 15 C4.03 14.505 4.03 14.505 1 14 C1 12.35 1 10.7 1 9 C1.99 9 2.98 9 4 9 C3.34608221 5.8891846 3.34608221 5.8891846 1 4.9375 C0.34 4.628125 -0.32 4.31875 -1 4 C-1.33 3.34 -1.66 2.68 -2 2 C-1.34 2 -0.68 2 0 2 C0 1.34 0 0.68 0 0 Z " fill="#C58E13" transform="translate(40,18)"/>
<path d="M0 0 C0.33 0.66 0.66 1.32 1 2 C2.65 2 4.3 2 6 2 C6.33 1.34 6.66 0.68 7 0 C7.66 1.32 8.32 2.64 9 4 C8.360625 4.20625 7.72125 4.4125 7.0625 4.625 C4.65074923 5.89538209 4.65074923 5.89538209 4.25 9.125 C4.1675 10.07375 4.085 11.0225 4 12 C0.46209597 8.30827405 0.40884117 4.90609405 0 0 Z " fill="#B0760A" transform="translate(5,34)"/>
<path d="M0 0 C2.97 0.33 5.94 0.66 9 1 C8.67 3.31 8.34 5.62 8 8 C4.65626525 7.44271087 1.96687001 6.64826111 -1 5 C-0.67 3.35 -0.34 1.7 0 0 Z " fill="#9C6105" transform="translate(51,34)"/>
<path d="M0 0 C1.125 1.8125 1.125 1.8125 1 3.75 C0.00920853 6.08543703 -1.2689811 7.85734656 -2.875 9.8125 C-2.875 8.1625 -2.875 6.5125 -2.875 4.8125 C-5.35 3.8225 -5.35 3.8225 -7.875 2.8125 C-7.545 4.1325 -7.215 5.4525 -6.875 6.8125 C-7.535 6.8125 -8.195 6.8125 -8.875 6.8125 C-9.205 8.1325 -9.535 9.4525 -9.875 10.8125 C-9.76090407 9.35327307 -9.63334456 7.89509402 -9.5 6.4375 C-9.43039063 5.62539063 -9.36078125 4.81328125 -9.2890625 3.9765625 C-8.875 1.8125 -8.875 1.8125 -6.875 -0.1875 C-2.56465517 -1.62428161 -2.56465517 -1.62428161 0 0 Z " fill="#A46703" transform="translate(31.875,29.1875)"/>
<path d="M0 0 C8.77578475 0.03408072 8.77578475 0.03408072 11.77734375 2.40234375 C13.125 4.0625 13.125 4.0625 15 7 C9.92387682 7.61528766 7.17017994 5.61658349 3 3 C2.67 3.66 2.34 4.32 2 5 C2 4.34 2 3.68 2 3 C1.01 2.67 0.02 2.34 -1 2 C-0.67 1.34 -0.34 0.68 0 0 Z " fill="#C59011" transform="translate(24,53)"/>
<path d="M0 0 C7.17882323 -0.55221717 13.48730418 2.2688695 20 5 C20 5.33 20 5.66 20 6 C13.03353618 6.52577085 7.30716757 5.03719493 1 2 C0.67 1.34 0.34 0.68 0 0 Z " fill="#845F0E" transform="translate(18,55)"/>
<path d="M0 0 C0.99 0.33 1.98 0.66 3 1 C2.67 4.63 2.34 8.26 2 12 C0.35 11.67 -1.3 11.34 -3 11 C-3 3 -3 3 0 0 Z " fill="#915F08" transform="translate(32,34)"/>
<path d="M0 0 C1.65 0 3.3 0 5 0 C5.33 0.66 5.66 1.32 6 2 C8.01669827 3.13350534 8.01669827 3.13350534 10 4 C7.50935112 4.68707555 5.62113708 5 3 5 C3 5.66 3 6.32 3 7 C3.66 7 4.32 7 5 7 C5.33 8.32 5.66 9.64 6 11 C2.52308207 9.84102736 1.77984405 9.1359157 0 6 C-0.1875 2.75 -0.1875 2.75 0 0 Z " fill="#CFA130" transform="translate(43,13)"/>
<path d="M0 0 C4.455 0.99 4.455 0.99 9 2 C8.67 3.65 8.34 5.3 8 7 C7.01 7 6.02 7 5 7 C4.67 5.68 4.34 4.36 4 3 C2.02 3.33 0.04 3.66 -2 4 C-1.34 2.68 -0.68 1.36 0 0 Z " fill="#C89014" transform="translate(11,12)"/>
<path d="M0 0 C1.32 0.33 2.64 0.66 4 1 C4.66 0.67 5.32 0.34 6 0 C5.34 3.63 4.68 7.26 4 11 C3 7 3 7 3 5 C2.01 5 1.02 5 0 5 C0 6.65 0 8.3 0 10 C-0.66 10 -1.32 10 -2 10 C-1.34 6.7 -0.68 3.4 0 0 Z " fill="#80540D" transform="translate(24,32)"/>
<path d="M0 0 C2.475 0.99 2.475 0.99 5 2 C5 4.64 5 7.28 5 10 C4.34 10 3.68 10 3 10 C2.9071875 9.1028125 2.9071875 9.1028125 2.8125 8.1875 C1.6763243 5.12856542 -0.17330142 4.44958901 -3 3 C-2.01 2.01 -1.02 1.02 0 0 Z " fill="#BF7B02" transform="translate(57,27)"/>
<path d="M0 0 C0.66 0.33 1.32 0.66 2 1 C1.67 1.66 1.34 2.32 1 3 C3.31 3.33 5.62 3.66 8 4 C8 4.99 8 5.98 8 7 C4.37 6.34 0.74 5.68 -3 5 C-2.01 3.35 -1.02 1.7 0 0 Z " fill="#C59E22" transform="translate(15,8)"/>
<path d="M0 0 C0.66 0 1.32 0 2 0 C2 0.66 2 1.32 2 2 C2.99 2 3.98 2 5 2 C4.14285714 10.57142857 4.14285714 10.57142857 2 14 C1.875 8.25 1.875 8.25 3 6 C2.34 5.67 1.68 5.34 1 5 C0.375 2.4375 0.375 2.4375 0 0 Z " fill="#7C520F" transform="translate(32,30)"/>
<path d="M0 0 C-1.25 1.5 -1.25 1.5 -3 3 C-4.32 3 -5.64 3 -7 3 C-7.66 1.68 -8.32 0.36 -9 -1 C-5.22102349 -2.0497157 -3.35080929 -2.10976881 0 0 Z " fill="#D0B147" transform="translate(35,50)"/>
<path d="M0 0 C1.32 1.32 2.64 2.64 4 4 C3.67 4.66 3.34 5.32 3 6 C1.35 5.67 -0.3 5.34 -2 5 C-2 3.68 -2 2.36 -2 1 C-1.34 0.67 -0.68 0.34 0 0 Z " fill="#C5A225" transform="translate(11,42)"/>
<path d="M0 0 C3.44730584 -0.39397781 4.75613114 -0.1644697 7.6875 1.8125 C10 4 10 4 12 7 C11.67 7.99 11.34 8.98 11 10 C10.29875 9.071875 9.5975 8.14375 8.875 7.1875 C6.32684378 4.09904705 3.71648553 2.55573813 0 1 C0 0.67 0 0.34 0 0 Z " fill="#CFBF76" transform="translate(33,20)"/>
<path d="M0 0 C0.99 0.495 0.99 0.495 2 1 C1.01 1.495 1.01 1.495 0 2 C0 1.34 0 0.68 0 0 Z M-2 1 C-0.68 2.32 0.64 3.64 2 5 C-0.31 5.33 -2.62 5.66 -5 6 C-5 4.68 -5 3.36 -5 2 C-4.01 1.67 -3.02 1.34 -2 1 Z " fill="#C07903" transform="translate(11,18)"/>
<path d="M0 0 C0 0.99 0 1.98 0 3 C-3.96 2.67 -7.92 2.34 -12 2 C-8.17961144 -1.82038856 -4.9914244 -0.84760037 0 0 Z " fill="#504026" transform="translate(35,16)"/>
<path d="M0 0 C0.99 0 1.98 0 3 0 C3 0.66 3 1.32 3 2 C3.99 2.33 4.98 2.66 6 3 C4.68 3.33 3.36 3.66 2 4 C2 4.99 2 5.98 2 7 C0.68 6.34 -0.64 5.68 -2 5 C-1.34 3.35 -0.68 1.7 0 0 Z " fill="#CAA82F" transform="translate(25,46)"/>
<path d="M0 0 C0.103125 0.639375 0.20625 1.27875 0.3125 1.9375 C0.539375 2.618125 0.76625 3.29875 1 4 C1.99 4.33 2.98 4.66 4 5 C3.67 6.32 3.34 7.64 3 9 C2.34 9 1.68 9 1 9 C-1 6 -1 6 -0.625 2.8125 C-0.41875 1.884375 -0.2125 0.95625 0 0 Z " fill="#C5981B" transform="translate(49,37)"/>
<path d="M0 0 C5.94 0.99 5.94 0.99 12 2 C12 2.33 12 2.66 12 3 C8 3 4 3 0 3 C0 2.01 0 1.02 0 0 Z " fill="#805B1A" transform="translate(21,51)"/>
<path d="M0 0 C1.31625194 2.63250388 0.74813658 3.80179056 0.0625 6.625 C-0.13214844 7.44226562 -0.32679687 8.25953125 -0.52734375 9.1015625 C-0.68332031 9.72804688 -0.83929687 10.35453125 -1 11 C-2.20628008 8.66785852 -3.1654738 6.50357861 -4 4 C-2.68 2.68 -1.36 1.36 0 0 Z " fill="#7D530E" transform="translate(23,29)"/>
<path d="M0 0 C1 2 2 4 3 6 C2.34 6.66 1.68 7.32 1 8 C-1.2477975 5.94766315 -2.0022242 4.99332739 -3 2 C-2.01 1.34 -1.02 0.68 0 0 Z " fill="#C48507" transform="translate(13,38)"/>
<path d="M0 0 C0.99 0.66 1.98 1.32 3 2 C2.625 3.9375 2.625 3.9375 2 6 C1.01 6.495 1.01 6.495 0 7 C-0.99 6.34 -1.98 5.68 -3 5 C-2.34 5 -1.68 5 -1 5 C-0.67 3.35 -0.34 1.7 0 0 Z " fill="#9A6300" transform="translate(43,33)"/>
<path d="M0 0 C1.98 0.99 3.96 1.98 6 3 C5.01 3.99 4.02 4.98 3 6 C2.01 5.67 1.02 5.34 0 5 C0 3.35 0 1.7 0 0 Z " fill="#CBA733" transform="translate(44,6)"/>
<path d="M0 0 C1.9375 0.1875 1.9375 0.1875 4 1 C5.25 3.0625 5.25 3.0625 6 5 C3.625 4.6875 3.625 4.6875 1 4 C0.34 3.01 -0.32 2.02 -1 1 C-0.67 0.67 -0.34 0.34 0 0 Z " fill="#C69314" transform="translate(17,51)"/>
<path d="M0 0 C-0.33 3.3 -0.66 6.6 -1 10 C-1.33 10 -1.66 10 -2 10 C-2.66 7.36 -3.32 4.72 -4 2 C-1 0 -1 0 0 0 Z " fill="#7F500F" transform="translate(16,31)"/>
<path d="M0 0 C2.97 0.33 5.94 0.66 9 1 C8.34 1.66 7.68 2.32 7 3 C6.35232207 5.57061311 6.35232207 5.57061311 6 8 C5.67 8 5.34 8 5 8 C5 6.35 5 4.7 5 3 C4.01 3 3.02 3 2 3 C2 2.34 2 1.68 2 1 C1.34 0.67 0.68 0.34 0 0 Z " fill="#B77409" transform="translate(32,29)"/>
<path d="M0 0 C0.99 0.33 1.98 0.66 3 1 C3 1.66 3 2.32 3 3 C3.66 3 4.32 3 5 3 C5.33 3.99 5.66 4.98 6 6 C3.03 5.505 3.03 5.505 0 5 C0 3.35 0 1.7 0 0 Z " fill="#C89433" transform="translate(41,27)"/>
<path d="M0 0 C3.39417765 3.12621626 5.6062718 5.56541027 7 10 C6.34 9.67 5.68 9.34 5 9 C5 8.34 5 7.68 5 7 C4.01 6.67 3.02 6.34 2 6 C0.8125 2.9375 0.8125 2.9375 0 0 Z " fill="#D1C99B" transform="translate(42,18)"/>
<path d="M0 0 C0 0.66 0 1.32 0 2 C-1.98 2.33 -3.96 2.66 -6 3 C-6 2.34 -6 1.68 -6 1 C-6.99 0.67 -7.98 0.34 -9 0 C-5.62182575 -0.84454356 -3.32534757 -1.10844919 0 0 Z " fill="#CBA32C" transform="translate(33,19)"/>
<path d="M0 0 C0.33 0.66 0.66 1.32 1 2 C2.65 2 4.3 2 6 2 C5.67 3.32 5.34 4.64 5 6 C2.525 5.01 2.525 5.01 0 4 C0 2.68 0 1.36 0 0 Z " fill="#A46604" transform="translate(5,34)"/>
<path d="M0 0 C2.69082872 0.17635452 5.32851446 0.61835921 8 1 C8 1.66 8 2.32 8 3 C5.75 3.6875 5.75 3.6875 3 4 C0.6875 2.5625 0.6875 2.5625 -1 1 C-0.67 0.67 -0.34 0.34 0 0 Z " fill="#A66209" transform="translate(33,27)"/>
<path d="M0 0 C7.75 0.75 7.75 0.75 10 3 C7.03 3 4.06 3 1 3 C0.67 2.01 0.34 1.02 0 0 Z " fill="#C88A0A" transform="translate(29,21)"/>
<path d="M0 0 C5.75 -0.125 5.75 -0.125 8 1 C8 1.99 8 2.98 8 4 C5.64828869 3.40138258 3.3140622 2.73075648 1 2 C0.67 1.34 0.34 0.68 0 0 Z " fill="#92640D" transform="translate(18,55)"/>
</svg>
