<?xml version="1.0" encoding="UTF-8"?>
<svg version="1.1" xmlns="http://www.w3.org/2000/svg" width="62" height="62">
<path d="M0 0 C2.875 2.4375 2.875 2.4375 5 5 C5.70125 5.680625 6.4025 6.36125 7.125 7.0625 C11.84633942 14.45926509 12.75348202 22.63643827 10.9140625 31.11328125 C8.11519116 39.95245184 3.00286972 46.32518452 -5 51 C-12.58814154 54.54849985 -20.2558387 54.86433305 -28.2265625 52.27734375 C-35.15417602 49.18800259 -40.28318099 44.20773069 -43.4375 37.3125 C-46.39918034 28.8633773 -46.03450501 20.457905 -42.33203125 12.3203125 C-38.25293353 5.21478744 -32.76403024 0.26858583 -25.375 -3.25 C-16.39332194 -5.24592846 -8.06026639 -4.57193747 0 0 Z " fill="#809400" transform="translate(49,7)"/>
<path d="M0 0 C2.93891801 1.66701058 4.97016945 3.60936334 7.12109375 6.203125 C7.84296875 7.0075 8.56484375 7.811875 9.30859375 8.640625 C12.22511127 12.76397736 13.82691739 17.12119483 13.12109375 22.203125 C10.12109375 24.203125 10.12109375 24.203125 7.12109375 24.203125 C7.12109375 24.863125 7.12109375 25.523125 7.12109375 26.203125 C5.12109375 25.203125 5.12109375 25.203125 4.12109375 22.203125 C2.47109375 23.523125 0.82109375 24.843125 -0.87890625 26.203125 C-1.86890625 25.213125 -2.85890625 24.223125 -3.87890625 23.203125 C-4.86890625 23.533125 -5.85890625 23.863125 -6.87890625 24.203125 C-6.87890625 23.543125 -6.87890625 22.883125 -6.87890625 22.203125 C-9.84956134 22.54540072 -9.84956134 22.54540072 -12.87890625 23.203125 C-13.20890625 23.863125 -13.53890625 24.523125 -13.87890625 25.203125 C-16.51890625 24.213125 -19.15890625 23.223125 -21.87890625 22.203125 C-22.00265625 23.3478125 -22.00265625 23.3478125 -22.12890625 24.515625 C-23.02506419 27.72685761 -24.0950165 28.49686999 -26.87890625 30.203125 C-27.17519886 25.16615055 -26.94995115 22.26129148 -23.87890625 18.203125 C-22.54557292 16.86979167 -21.21223958 15.53645833 -19.87890625 14.203125 C-19.87890625 13.543125 -19.87890625 12.883125 -19.87890625 12.203125 C-24.90361299 14.57590318 -26.43921608 17.41410355 -28.87890625 22.203125 C-29.53890625 22.203125 -30.19890625 22.203125 -30.87890625 22.203125 C-30.87890625 21.213125 -30.87890625 20.223125 -30.87890625 19.203125 C-31.78640625 19.409375 -32.69390625 19.615625 -33.62890625 19.828125 C-36.98918522 20.2158495 -38.1196644 20.00724467 -40.87890625 18.203125 C-40.20549124 10.87038382 -36.14460625 7.02243912 -30.87890625 2.203125 C-21.30022816 -4.11121873 -10.38396407 -4.71847327 0 0 Z " fill="#A7B106" transform="translate(46.87890625,5.796875)"/>
<path d="M0 0 C0.66 0.99 1.32 1.98 2 3 C2.99 3 3.98 3 5 3 C3.90263497 10.17701958 -0.16130753 15.82922783 -5.75 20.375 C-12.82160542 25.19227959 -19.93369558 26.67108173 -28.3828125 25.58203125 C-33.87123021 24.36147268 -38.15950294 22.09809137 -42 18 C-40.55746343 14.63408134 -38.66735273 12.48952921 -36 10 C-34.68 10.66 -33.36 11.32 -32 12 C-31.90754997 10.53774984 -31.90754997 10.53774984 -34 8 C-33.625 5.8125 -33.625 5.8125 -33 4 C-32.01 5.65 -31.02 7.3 -30 9 C-28.35 8.67 -26.7 8.34 -25 8 C-24.67 8.66 -24.34 9.32 -24 10 C-23.38511719 10 -22.77023438 10 -22.13671875 10 C-18.7578125 10 -15.37890625 10 -12 10 C-10.33178677 9.67449498 -8.66500443 9.34153937 -7 9 C-6.34 9 -5.68 9 -5 9 C-4.67 8.01 -4.34 7.02 -4 6 C-3.34 5.67 -2.68 5.34 -2 5 C-1.27840576 3.35636866 -0.60648579 1.68949614 0 0 Z " fill="#9AA702" transform="translate(54,35)"/>
<path d="M0 0 C2.3857372 1.93131106 4.08899548 3.47965889 5.625 6.125 C5.625 7.115 5.625 8.105 5.625 9.125 C3.645 9.455 1.665 9.785 -0.375 10.125 C-0.375 11.775 -0.375 13.425 -0.375 15.125 C-1.1175 14.939375 -1.86 14.75375 -2.625 14.5625 C-7.08734967 14.04189254 -11.12597669 14.51793224 -15.5703125 15.06640625 C-18.52093457 15.12804877 -19.90988082 14.67601996 -22.375 13.125 C-21.55 12.485625 -20.725 11.84625 -19.875 11.1875 C-18.6375 10.1665625 -18.6375 10.1665625 -17.375 9.125 C-17.375 8.795 -17.375 8.465 -17.375 8.125 C-18.81291516 8.26668137 -20.2503237 8.41351043 -21.6875 8.5625 C-22.48800781 8.64371094 -23.28851563 8.72492187 -24.11328125 8.80859375 C-26.53587179 9.07765693 -26.53587179 9.07765693 -29.375 10.125 C-29.705 10.785 -30.035 11.445 -30.375 12.125 C-30.375 10.805 -30.375 9.485 -30.375 8.125 C-33.015 8.125 -35.655 8.125 -38.375 8.125 C-35.56214059 1.97187005 -30.37016535 -0.53673463 -24.4375 -3.1875 C-16.1395786 -5.05029868 -7.45188773 -4.13993763 0 0 Z " fill="#E7F0E2" transform="translate(50.375,7.875)"/>
<path d="M0 0 C0.33 0.99 0.66 1.98 1 3 C-0.423125 4.2684375 -0.423125 4.2684375 -1.875 5.5625 C-6.00849482 9.71549244 -6.80734018 13.80367811 -7.3125 19.5625 C-6.85567869 24.58753442 -4.75531901 27.86702148 -2 32 C-4.49361571 30.79618552 -6.68143083 29.54571278 -9 28 C-9.33 28.99 -9.66 29.98 -10 31 C-11.95597184 32.39712274 -13.95436401 33.73779907 -16 35 C-22.25287437 28.10027655 -23.33572809 21.72736182 -23.30078125 12.734375 C-23.00150198 10.01365438 -22.39254904 8.33016174 -21 6 C-20.21625 6.350625 -19.4325 6.70125 -18.625 7.0625 C-17.325625 7.5265625 -17.325625 7.5265625 -16 8 C-15.34 7.67 -14.68 7.34 -14 7 C-13.01 7.33 -12.02 7.66 -11 8 C-11 8.99 -11 9.98 -11 11 C-10.34 11 -9.68 11 -9 11 C-8.9071875 10.195625 -8.9071875 10.195625 -8.8125 9.375 C-7.6193416 5.8873062 -5.49312007 3.67120008 -3 1 C-2.01 0.67 -1.02 0.34 0 0 Z " fill="#899703" transform="translate(27,17)"/>
<path d="M0 0 C0.66 0.99 1.32 1.98 2 3 C2.99 3 3.98 3 5 3 C4.53497103 7.96030902 2.52742429 12.48079814 -1 16 C-4.03033927 16.95427769 -6.83719672 17.11025022 -10 17 C-9.67 16.34 -9.34 15.68 -9 15 C-9.99 15.495 -9.99 15.495 -11 16 C-15.55559408 17.51853136 -19.94101317 17.82359473 -24.5 16 C-24.995 15.67 -25.49 15.34 -26 15 C-25 13 -25 13 -24 12 C-21.22441577 11.71520878 -18.44872155 11.55156981 -15.6640625 11.37890625 C-12.77821914 11.16415406 -12.77821914 11.16415406 -10 9 C-7.3125 8.875 -7.3125 8.875 -5 9 C-4.67 8.01 -4.34 7.02 -4 6 C-3.34 5.67 -2.68 5.34 -2 5 C-1.27840576 3.35636866 -0.60648579 1.68949614 0 0 Z " fill="#B3B610" transform="translate(54,35)"/>
<path d="M0 0 C1.04027344 -0.01417969 2.08054687 -0.02835937 3.15234375 -0.04296875 C6.01296613 0.18357718 7.63920151 0.71016381 10.0625 2.1875 C9.15628906 2.14109375 8.25007813 2.0946875 7.31640625 2.046875 C-0.58851881 1.812655 -6.02917031 2.39526796 -12.9375 6.1875 C-13.906875 6.5175 -14.87625 6.8475 -15.875 7.1875 C-18.41904612 8.42097691 -18.98089834 9.57858639 -19.9375 12.1875 C-18.803125 12.31125 -17.66875 12.435 -16.5 12.5625 C-15.324375 12.76875 -14.14875 12.975 -12.9375 13.1875 C-12.6075 13.8475 -12.2775 14.5075 -11.9375 15.1875 C-11.2775 15.1875 -10.6175 15.1875 -9.9375 15.1875 C-9.6075 14.5275 -9.2775 13.8675 -8.9375 13.1875 C-9.51433662 17.08114717 -11.48571777 19.19939041 -13.9375 22.1875 C-14.2675 23.1775 -14.5975 24.1675 -14.9375 25.1875 C-15.5975 25.1875 -16.2575 25.1875 -16.9375 25.1875 C-16.9375 24.1975 -16.9375 23.2075 -16.9375 22.1875 C-17.845 22.39375 -18.7525 22.6 -19.6875 22.8125 C-23.04777897 23.2002245 -24.17825815 22.99161967 -26.9375 21.1875 C-26.26408499 13.85475882 -22.2032 10.00681412 -16.9375 5.1875 C-11.57176272 1.65036165 -6.38807419 0.0394813 0 0 Z " fill="#B0B605" transform="translate(32.9375,2.8125)"/>
<path d="M0 0 C3.50714051 1.89575163 5.94461059 3.53829152 8 7 C8 7.99 8 8.98 8 10 C6.02 10.33 4.04 10.66 2 11 C2 12.65 2 14.3 2 16 C1.2575 15.814375 0.515 15.62875 -0.25 15.4375 C-4.71234967 14.91689254 -8.75097669 15.39293224 -13.1953125 15.94140625 C-16.14593457 16.00304877 -17.53488082 15.55101996 -20 14 C-19.175 13.360625 -18.35 12.72125 -17.5 12.0625 C-16.675 11.381875 -15.85 10.70125 -15 10 C-15 9.67 -15 9.34 -15 9 C-14.37351562 8.96261719 -13.74703125 8.92523438 -13.1015625 8.88671875 C-12.28429688 8.82097656 -11.46703125 8.75523438 -10.625 8.6875 C-9.81289063 8.62949219 -9.00078125 8.57148438 -8.1640625 8.51171875 C-5.62078662 8.17009472 -5.62078662 8.17009472 -4 5 C-0.875 4.8125 -0.875 4.8125 2 5 C1.34 4.67 0.68 4.34 0 4 C0 2.68 0 1.36 0 0 Z " fill="#C1C184" transform="translate(48,7)"/>
<path d="M0 0 C1.2375 0.09667969 2.475 0.19335938 3.75 0.29296875 C7 0.8125 7 0.8125 10 2.8125 C12 5.8125 12 5.8125 12 8.8125 C10.02 8.8125 8.04 8.8125 6 8.8125 C5.67 9.8025 5.34 10.7925 5 11.8125 C1.37 11.1525 -2.26 10.4925 -6 9.8125 C-6 7.8325 -6 5.8525 -6 3.8125 C-7.32 3.4825 -8.64 3.1525 -10 2.8125 C-7.26595449 -1.07748386 -4.43721802 -0.39287868 0 0 Z " fill="#FBFEFA" transform="translate(38,4.1875)"/>
<path d="M0 0 C1.83832664 3.10217621 2.47446226 5.39408679 2 9 C-1 11 -1 11 -4 11 C-4 11.66 -4 12.32 -4 13 C-6 12 -6 12 -7 9 C-8.65 10.32 -10.3 11.64 -12 13 C-12.99 12.01 -13.98 11.02 -15 10 C-15.99 10.33 -16.98 10.66 -18 11 C-18.33 10.34 -18.66 9.68 -19 9 C-19.99 8.34 -20.98 7.68 -22 7 C-14.85078777 3.79518072 -14.85078777 3.79518072 -10.625 4.8125 C-9.75875 5.204375 -8.8925 5.59625 -8 6 C-5.7862684 6.22798038 -5.7862684 6.22798038 -4 4.125 C-3.34 3.42375 -2.68 2.7225 -2 2 C-1.34 1.34 -0.68 0.68 0 0 Z " fill="#94AA02" transform="translate(58,19)"/>
<path d="M0 0 C2.46800047 1.15173355 4.04783565 2.04783565 6 4 C6 4.99 6 5.98 6 7 C7.32 7.33 8.64 7.66 10 8 C4.03892944 12.13625304 4.03892944 12.13625304 -0.8125 11.5 C-4 10 -4 10 -5.4375 7.875 C-5.7159375 6.946875 -5.7159375 6.946875 -6 6 C-5.195625 5.38125 -4.39125 4.7625 -3.5625 4.125 C-0.96125481 2.25835959 -0.96125481 2.25835959 0 0 Z " fill="#B0BA01" transform="translate(18,45)"/>
<path d="M0 0 C0.33 0.99 0.66 1.98 1 3 C-0.423125 4.2684375 -0.423125 4.2684375 -1.875 5.5625 C-6.00849482 9.71549244 -6.80734018 13.80367811 -7.3125 19.5625 C-6.85567869 24.58753442 -4.75531901 27.86702148 -2 32 C-5.79831159 30.77911413 -7.36204163 28.45712854 -9.171875 24.98828125 C-11.19377408 20.13381601 -11.54562939 15.88688818 -9.875 10.875 C-8.17878984 6.93014426 -5.99496836 4.06984257 -3 1 C-2.01 0.67 -1.02 0.34 0 0 Z " fill="#2D2B2B" transform="translate(27,17)"/>
<path d="M0 0 C0.66 0.33 1.32 0.66 2 1 C2.5546875 3.6171875 2.5546875 3.6171875 2.875 6.875 C2.99617188 7.94492187 3.11734375 9.01484375 3.2421875 10.1171875 C3 13 3 13 1.171875 14.93359375 C-1 16 -1 16 -3.625 15.1875 C-4.40875 14.795625 -5.1925 14.40375 -6 14 C-6.66 14 -7.32 14 -8 14 C-8 11 -8 11 -6.125 9.125 C-5.42375 8.42375 -4.7225 7.7225 -4 7 C-3.29289322 5.35008418 -2.62056011 3.68437744 -2 2 C-1.34 1.34 -0.68 0.68 0 0 Z " fill="#627300" transform="translate(15,29)"/>
<path d="M0 0 C0.94875 0.350625 1.8975 0.70125 2.875 1.0625 C5.87060172 2.35026777 5.87060172 2.35026777 8 1 C8.99 1.33 9.98 1.66 11 2 C11 2.99 11 3.98 11 5 C11.66 5.33 12.32 5.66 13 6 C12.195625 6.45375 11.39125 6.9075 10.5625 7.375 C7.91143428 8.74725665 7.91143428 8.74725665 7 11 C5.02 11 3.04 11 1 11 C0.12132271 7.26562152 -0.08912219 3.83225427 0 0 Z " fill="#9BAC07" transform="translate(5,23)"/>
<path d="M0 0 C1.32 0.99 2.64 1.98 4 3 C3.67 4.65 3.34 6.3 3 8 C2.01 8.33 1.02 8.66 0 9 C-0.33 10.32 -0.66 11.64 -1 13 C-5.95 13 -10.9 13 -16 13 C-15.67 11.68 -15.34 10.36 -15 9 C-14.37351563 8.96261719 -13.74703125 8.92523438 -13.1015625 8.88671875 C-12.28429688 8.82097656 -11.46703125 8.75523438 -10.625 8.6875 C-9.81289063 8.62949219 -9.00078125 8.57148438 -8.1640625 8.51171875 C-5.62078662 8.17009472 -5.62078662 8.17009472 -4 5 C-0.875 4.8125 -0.875 4.8125 2 5 C1.34 4.67 0.68 4.34 0 4 C0 2.68 0 1.36 0 0 Z " fill="#D7DBC6" transform="translate(48,7)"/>
<path d="M0 0 C-0.90621094 -0.04640625 -1.81242187 -0.0928125 -2.74609375 -0.140625 C-10.65101881 -0.374845 -16.09167031 0.20776796 -23 4 C-23.969375 4.33 -24.93875 4.66 -25.9375 5 C-28.56822643 6.27550372 -28.8649181 7.35147556 -30 10 C-30.680625 10.845625 -31.36125 11.69125 -32.0625 12.5625 C-34.16384349 14.92026019 -34.16384349 14.92026019 -35 18 C-35.66 18 -36.32 18 -37 18 C-35.38023489 10.80104397 -30.61652395 6.02914102 -24.9375 1.625 C-17.6484858 -2.40722062 -7.57112315 -4.56440917 0 0 Z " fill="#92A30D" transform="translate(43,5)"/>
<path d="M0 0 C0.66 0.66 1.32 1.32 2 2 C1.875 4.4375 1.875 4.4375 1 7 C-1 8.6875 -1 8.6875 -3 10 C-3.33 10.66 -3.66 11.32 -4 12 C-4.99 11.34 -5.98 10.68 -7 10 C-8.65549531 9.61500109 -10.3222433 9.27206865 -12 9 C-11.67 8.01 -11.34 7.02 -11 6 C-9.02 6.495 -9.02 6.495 -7 7 C-7.33 6.67 -7.66 6.34 -8 6 C-7.34 5.67 -6.68 5.34 -6 5 C-6 4.34 -6 3.68 -6 3 C-4.02 2.67 -2.04 2.34 0 2 C0 1.34 0 0.68 0 0 Z " fill="#B3B31A" transform="translate(56,15)"/>
<path d="M0 0 C0.33 0 0.66 0 1 0 C1.28571429 7.42857143 1.28571429 7.42857143 -1 11 C-2.32 10.67 -3.64 10.34 -5 10 C-5.33 10.66 -5.66 11.32 -6 12 C-5.01 12.33 -4.02 12.66 -3 13 C-5.375 13.625 -5.375 13.625 -8 14 C-8.66 13.34 -9.32 12.68 -10 12 C-10 10.68 -10 9.36 -10 8 C-9.01 8 -8.02 8 -7 8 C-7 6.35 -7 4.7 -7 3 C-6.01 4.485 -6.01 4.485 -5 6 C-4.67 5.34 -4.34 4.68 -4 4 C-3.01 4 -2.02 4 -1 4 C-0.67 2.68 -0.34 1.36 0 0 Z " fill="#768300" transform="translate(38,32)"/>
<path d="M0 0 C1.62600941 0.0870005 3.25089678 0.1951781 4.875 0.3125 C5.77992187 0.37050781 6.68484375 0.42851562 7.6171875 0.48828125 C10 1 10 1 12 4 C11.67 4.66 11.34 5.32 11 6 C9.33333333 6.33333333 7.66666667 6.66666667 6 7 C5.67 7.66 5.34 8.32 5 9 C5 7.68 5 6.36 5 5 C2.36 5 -0.28 5 -3 5 C-2.01 3.35 -1.02 1.7 0 0 Z " fill="#CED4CE" transform="translate(15,11)"/>
<path d="M0 0 C2.64 0 5.28 0 8 0 C8.33 0.66 8.66 1.32 9 2 C9.66 2 10.32 2 11 2 C11.33 1.34 11.66 0.68 12 0 C11.40312566 3.34249629 10.26396123 5.46436342 8 8 C7.34 8 6.68 8 6 8 C6 7.34 6 6.68 6 6 C4.68 6 3.36 6 2 6 C2 5.34 2 4.68 2 4 C1.34 3.67 0.68 3.34 0 3 C1.32 2.67 2.64 2.34 4 2 C2.68 2 1.36 2 0 2 C0 1.34 0 0.68 0 0 Z " fill="#B4BE42" transform="translate(12,16)"/>
<path d="M0 0 C0.99 0 1.98 0 3 0 C3.66 1.32 4.32 2.64 5 4 C5.66 3.34 6.32 2.68 7 2 C7.6875 3.625 7.6875 3.625 8 6 C6.5625 9.25 6.5625 9.25 5 12 C4.67 11.34 4.34 10.68 4 10 C3.34 10 2.68 10 2 10 C2.99 11.32 3.98 12.64 5 14 C3.68 13.67 2.36 13.34 1 13 C0.875 5.375 0.875 5.375 2 2 C1.34 2 0.68 2 0 2 C0 1.34 0 0.68 0 0 Z " fill="#6D7F00" transform="translate(43,29)"/>
<path d="M0 0 C2 3 2 3 2 7 C2.61875 6.814375 3.2375 6.62875 3.875 6.4375 C6 6 6 6 8 7 C7.25 9.4375 7.25 9.4375 6 12 C4 12.875 4 12.875 2 13 C1.34 12.67 0.68 12.34 0 12 C0 8.04 0 4.08 0 0 Z " fill="#759001" transform="translate(4,27)"/>
<path d="M0 0 C1.3921875 0.2784375 1.3921875 0.2784375 2.8125 0.5625 C6.01343771 1.24123881 6.01343771 1.24123881 9 0 C9 0.66 9 1.32 9 2 C12.89459074 2.21081851 12.89459074 2.21081851 16 1 C16.33 1.99 16.66 2.98 17 4 C17.66 4.66 18.32 5.32 19 6 C11.64576595 5.72962375 6.37848752 4.73081346 0 1 C0 0.67 0 0.34 0 0 Z " fill="#6F7C09" transform="translate(15,55)"/>
<path d="M0 0 C3.16115776 1.36983503 3.9927092 1.9890638 6 5 C6 5.99 6 6.98 6 8 C4.02 8 2.04 8 0 8 C-0.33 8.99 -0.66 9.98 -1 11 C-1.99 11 -2.98 11 -4 11 C-4 7 -4 7 -2 4.9375 C-1.34 4.298125 -0.68 3.65875 0 3 C0 2.01 0 1.02 0 0 Z " fill="#E6EFE1" transform="translate(44,5)"/>
<path d="M0 0 C1.07765625 0.01804687 2.1553125 0.03609375 3.265625 0.0546875 C4.49539062 0.08949219 4.49539062 0.08949219 5.75 0.125 C2.02095098 4.18274939 -2.88977273 6.05295455 -8.25 7.125 C-7.92 5.805 -7.59 4.485 -7.25 3.125 C-8.24 2.795 -9.23 2.465 -10.25 2.125 C-6.7733662 -0.01836161 -4.03770805 -0.08777626 0 0 Z " fill="#8B9D03" transform="translate(34.25,14.875)"/>
<path d="M0 0 C0.680625 0.165 1.36125 0.33 2.0625 0.5 C7.83182218 1.48201229 13.25592489 0.93780818 19 0 C14.19831387 3.80823383 10.07758362 4.52582715 4 4 C1.5 3 1.5 3 0 2 C0 1.34 0 0.68 0 0 Z " fill="#BCBB74" transform="translate(28,48)"/>
<path d="M0 0 C1.32 0.99 2.64 1.98 4 3 C3.195625 3.45375 2.39125 3.9075 1.5625 4.375 C-1.08856572 5.74725665 -1.08856572 5.74725665 -2 8 C-3.98 8 -5.96 8 -8 8 C-8.33 6.68 -8.66 5.36 -9 4 C-7.88625 3.896875 -6.7725 3.79375 -5.625 3.6875 C-4.42875 3.460625 -3.2325 3.23375 -2 3 C-1.34 2.01 -0.68 1.02 0 0 Z " fill="#8BA701" transform="translate(14,26)"/>
<path d="M0 0 C1.32 0.66 2.64 1.32 4 2 C2.73046875 3.49739583 1.4609375 4.99479167 0.19140625 6.4921875 C-1.0878152 8.00594079 -1.0878152 8.00594079 -2 10 C-3.32 9.34 -4.64 8.68 -6 8 C-4.55746343 4.63408134 -2.66735273 2.48952921 0 0 Z " fill="#A1AC06" transform="translate(18,45)"/>
<path d="M0 0 C-0.61277612 2.96175123 -1.25372522 4.38058783 -3 7 C-5.625 7.6875 -5.625 7.6875 -8 8 C-7.63487253 5.2980567 -7.30130763 3.41609148 -5.6875 1.1875 C-4 0 -4 0 0 0 Z " fill="#A3A55F" transform="translate(56,44)"/>
<path d="M0 0 C0.66 0.99 1.32 1.98 2 3 C2.99 3 3.98 3 5 3 C4.25 7.75 4.25 7.75 2 10 C1.34 9.34 0.68 8.68 0 8 C-2.58354218 7.83312552 -2.58354218 7.83312552 -5 8 C-4.54625 7.608125 -4.0925 7.21625 -3.625 6.8125 C-1.72357081 4.69167513 -0.93795972 2.66957765 0 0 Z " fill="#A1B002" transform="translate(54,35)"/>
<path d="M0 0 C0.33 0.99 0.66 1.98 1 3 C0.09972412 4.03531726 -0.82093035 5.05294165 -1.75 6.0625 C-2.51570313 6.91521484 -2.51570313 6.91521484 -3.296875 7.78515625 C-5 9 -5 9 -7.203125 8.68359375 C-7.79609375 8.45800781 -8.3890625 8.23242188 -9 8 C-8.07038578 6.84775972 -7.1309875 5.70340824 -6.1875 4.5625 C-5.66542969 3.92441406 -5.14335937 3.28632813 -4.60546875 2.62890625 C-3 1 -3 1 0 0 Z " fill="#373A2D" transform="translate(27,17)"/>
<path d="M0 0 C1.32 0.66 2.64 1.32 4 2 C3.01 2 2.02 2 1 2 C1 2.66 1 3.32 1 4 C-3.1219364 5.99851462 -6.44452917 6.25785684 -11 6 C-11.66 5.67 -12.32 5.34 -13 5 C-13 4.34 -13 3.68 -13 3 C-12.22914062 2.95101562 -11.45828125 2.90203125 -10.6640625 2.8515625 C-9.66117188 2.77679688 -8.65828125 2.70203125 -7.625 2.625 C-6.62726562 2.55539063 -5.62953125 2.48578125 -4.6015625 2.4140625 C-1.84491121 2.23636036 -1.84491121 2.23636036 0 0 Z " fill="#A8B700" transform="translate(43,44)"/>
<path d="M0 0 C0.433125 0.495 0.86625 0.99 1.3125 1.5 C2.99740483 3.33218192 2.99740483 3.33218192 6 3 C5.67 5.97 5.34 8.94 5 12 C2.5 9.9375 2.5 9.9375 0 7 C-0.3125 3.1875 -0.3125 3.1875 0 0 Z " fill="#5B6B00" transform="translate(19,33)"/>
<path d="M0 0 C0.66 0.66 1.32 1.32 2 2 C1.875 4.5 1.875 4.5 1 7 C-1.0625 8.3125 -1.0625 8.3125 -3 9 C-3.66 8.34 -4.32 7.68 -5 7 C-5 6.01 -5 5.02 -5 4 C-4.360625 3.71125 -3.72125 3.4225 -3.0625 3.125 C-0.84793921 2.17176549 -0.84793921 2.17176549 0 0 Z " fill="#AAAE0A" transform="translate(56,15)"/>
<path d="M0 0 C0.268125 0.639375 0.53625 1.27875 0.8125 1.9375 C1.88667752 4.33131686 1.88667752 4.33131686 5 5 C5 5.66 5 6.32 5 7 C1.04 6.67 -2.92 6.34 -7 6 C-2.25 1.125 -2.25 1.125 0 0 Z " fill="#D7DCD4" transform="translate(23,6)"/>
<path d="M0 0 C3.3 0 6.6 0 10 0 C9.67 0.66 9.34 1.32 9 2 C6.03 1.67 3.06 1.34 0 1 C0 0.67 0 0.34 0 0 Z M4 3 C5.32 3 6.64 3 8 3 C8 3.66 8 4.32 8 5 C8.99 5.33 9.98 5.66 11 6 C10.01 6.66 9.02 7.32 8 8 C7.01 7.67 6.02 7.34 5 7 C5.33 6.67 5.66 6.34 6 6 C5.34 5.67 4.68 5.34 4 5 C4 4.34 4 3.68 4 3 Z " fill="#7B860B" transform="translate(31,52)"/>
<path d="M0 0 C1.32 0.99 2.64 1.98 4 3 C3.67 4.65 3.34 6.3 3 8 C1.02 8.66 -0.96 9.32 -3 10 C-2.75 8.125 -2.75 8.125 -2 6 C0.0625 4.75 0.0625 4.75 2 4 C1.34 4 0.68 4 0 4 C0 2.68 0 1.36 0 0 Z " fill="#C9D0C4" transform="translate(48,7)"/>
<path d="M0 0 C0.33 0 0.66 0 1 0 C1 2.97 1 5.94 1 9 C1.99 9.33 2.98 9.66 4 10 C1.625 10.625 1.625 10.625 -1 11 C-1.66 10.34 -2.32 9.68 -3 9 C-3 7.68 -3 6.36 -3 5 C-2.01 5 -1.02 5 0 5 C0 3.35 0 1.7 0 0 Z " fill="#657B00" transform="translate(31,35)"/>
<path d="M0 0 C0.66 0.99 1.32 1.98 2 3 C0.68 3 -0.64 3 -2 3 C-1.34 3.66 -0.68 4.32 0 5 C-0.804375 5.12375 -1.60875 5.2475 -2.4375 5.375 C-3.7059375 5.684375 -3.7059375 5.684375 -5 6 C-5.33 6.66 -5.66 7.32 -6 8 C-6 7.01 -6 6.02 -6 5 C-5.34 5 -4.68 5 -4 5 C-5.84188612 2.94729537 -5.84188612 2.94729537 -8 2 C-6.03177114 0.03177114 -2.65191291 0.33751619 0 0 Z " fill="#A4B010" transform="translate(39,23)"/>
<path d="M0 0 C2 2 2 2 3 5 C-1.625 9 -1.625 9 -5 9 C-5 8.34 -5 7.68 -5 7 C-4.34 6.67 -3.68 6.34 -3 6 C-3.33 5.01 -3.66 4.02 -4 3 C-3.01 3.33 -2.02 3.66 -1 4 C-0.67 2.68 -0.34 1.36 0 0 Z " fill="#8A9E00" transform="translate(49,36)"/>
<path d="M0 0 C0.33 1.32 0.66 2.64 1 4 C2.98 4 4.96 4 7 4 C7.33 4.99 7.66 5.98 8 7 C7.34 7 6.68 7 6 7 C5.67 7.66 5.34 8.32 5 9 C5 7.68 5 6.36 5 5 C2.36 5 -0.28 5 -3 5 C-2.01 3.35 -1.02 1.7 0 0 Z " fill="#C9C287" transform="translate(15,11)"/>
<path d="M0 0 C0.66 0.33 1.32 0.66 2 1 C1.34 1.66 0.68 2.32 0 3 C0.66 3.66 1.32 4.32 2 5 C0.35 5.33 -1.3 5.66 -3 6 C-3.66 4.68 -4.32 3.36 -5 2 C-2.625 0.9375 -2.625 0.9375 0 0 Z " fill="#EEF5E7" transform="translate(29,4)"/>
<path d="M0 0 C0.66 0 1.32 0 2 0 C1.64950425 3.24208567 1.43778819 4.61527704 -1.0625 6.8125 C-1.701875 7.204375 -2.34125 7.59625 -3 8 C-2.45276317 4.62537285 -1.9451 2.91765 0 0 Z " fill="#8DA701" transform="translate(23,28)"/>
<path d="M0 0 C0.99 0.99 1.98 1.98 3 3 C2.34 3 1.68 3 1 3 C0.67 3.99 0.34 4.98 0 6 C-1.65 6.33 -3.3 6.66 -5 7 C-4.67 6.01 -4.34 5.02 -4 4 C-3.01 3.67 -2.02 3.34 -1 3 C-0.67 2.01 -0.34 1.02 0 0 Z " fill="#93A000" transform="translate(17,42)"/>
<path d="M0 0 C0 1.65 0 3.3 0 5 C-1.32 5.33 -2.64 5.66 -4 6 C-3.625 3.5625 -3.625 3.5625 -3 1 C-1 0 -1 0 0 0 Z " fill="#C9C58C" transform="translate(52,46)"/>
<path d="M0 0 C0.45375 0.474375 0.9075 0.94875 1.375 1.4375 C2.93258204 3.09027808 2.93258204 3.09027808 5 4 C4.67 4.99 4.34 5.98 4 7 C2.68 7 1.36 7 0 7 C0 4.69 0 2.38 0 0 Z " fill="#6F7A00" transform="translate(19,33)"/>
<path d="M0 0 C2.64 0 5.28 0 8 0 C8 0.99 8 1.98 8 3 C5.36 2.67 2.72 2.34 0 2 C0 1.34 0 0.68 0 0 Z " fill="#C2D1B4" transform="translate(16,13)"/>
<path d="M0 0 C2.475 0.495 2.475 0.495 5 1 C4.67 2.65 4.34 4.3 4 6 C2.68 5.67 1.36 5.34 0 5 C0.99 4.01 1.98 3.02 3 2 C2.01 2 1.02 2 0 2 C0 1.34 0 0.68 0 0 Z " fill="#B2B920" transform="translate(44,46)"/>
</svg>
