<?xml version="1.0" encoding="UTF-8"?>
<svg version="1.1" xmlns="http://www.w3.org/2000/svg" width="62" height="62">
<path d="M0 0 C0.825 0.804375 1.65 1.60875 2.5 2.4375 C3.01949219 2.93507813 3.53898437 3.43265625 4.07421875 3.9453125 C9.93846682 10.05094609 11.63122123 16.47381359 11.9375 24.8125 C11.61663717 35.41331426 8.24479394 42.74146179 0.859375 50.33203125 C-4.2631441 54.90328588 -9.17607008 57.23575946 -16.1328125 56.88671875 C-22.10353151 55.75366151 -26.93177392 52.86935859 -31.375 48.8125 C-36.99858121 39.88092985 -38.89195487 30.95042232 -37.5 20.4375 C-34.95687371 12.27924089 -29.28621875 4.42838368 -21.9375 -0.0625 C-15.21582378 -3.0089882 -6.63115317 -2.96033624 0 0 Z " fill="#6D9400" transform="translate(44.5,4.5625)"/>
<path d="M0 0 C5.34101348 2.76288276 8.95963098 7.42943772 11.390625 12.8671875 C12.44836817 16.56928859 12.31734754 20.19182958 12 24 C11.01 24.495 11.01 24.495 10 25 C10 23.68 10 22.36 10 21 C9.34 21 8.68 21 8 21 C7.67 24.63 7.34 28.26 7 32 C6.67 32 6.34 32 6 32 C5.77213542 29.94921875 5.54427083 27.8984375 5.31640625 25.84765625 C5.18113386 23.98859771 5.18113386 23.98859771 4 23 C3.89042969 23.60328125 3.78085937 24.2065625 3.66796875 24.828125 C2.09314587 32.76625659 2.09314587 32.76625659 -1 36 C-2.485 35.505 -2.485 35.505 -4 35 C-4 31.37 -4 27.74 -4 24 C-5.65 24.33 -7.3 24.66 -9 25 C-8.67 25.99 -8.34 26.98 -8 28 C-8.66 28.99 -9.32 29.98 -10 31 C-10 30.01 -10 29.02 -10 28 C-10.66 28 -11.32 28 -12 28 C-12 28.66 -12 29.32 -12 30 C-12.99 30 -13.98 30 -15 30 C-14.69609287 24.07381099 -11.91964246 19.33588768 -8 15 C-5.296875 13.734375 -5.296875 13.734375 -3 13 C-3 12.01 -3 11.02 -3 10 C-9.14839165 10.70475636 -13.70785951 11.54771458 -17.8828125 16.3359375 C-19.50266833 18.74872976 -20.33072756 21.18905574 -21 24 C-21.33 22.68 -21.66 21.36 -22 20 C-22.37125 20.639375 -22.7425 21.27875 -23.125 21.9375 C-25.59052393 24.64957633 -27.44582792 24.5462759 -31 25 C-31.66 25.66 -32.32 26.32 -33 27 C-31.76650006 17.4580982 -27.45632551 9.41194858 -20.02734375 3.3046875 C-13.79265247 -0.70761864 -7.22807972 -1.12611387 0 0 Z " fill="#7FA705" transform="translate(43,4)"/>
<path d="M0 0 C0 0.99 0 1.98 0 3 C-0.886875 3.53625 -1.77375 4.0725 -2.6875 4.625 C-7.51756002 7.57797508 -10.14455156 12.93508043 -11.63671875 18.28125 C-11.81654297 19.13203125 -11.81654297 19.13203125 -12 20 C-11.01 20 -10.02 20 -9 20 C-9 19.34 -9 18.68 -9 18 C-8.01 17.67 -7.02 17.34 -6 17 C-6 16.34 -6 15.68 -6 15 C-6.66 14.67 -7.32 14.34 -8 14 C-5.69 14 -3.38 14 -1 14 C-0.67 17.63 -0.34 21.26 0 25 C0.66 25 1.32 25 2 25 C2.12375 24.236875 2.2475 23.47375 2.375 22.6875 C3 20 3 20 5 17 C5.38499891 15.34450469 5.72793135 13.6777567 6 12 C7.32 12.66 8.64 13.32 10 14 C10.33 13.01 10.66 12.02 11 11 C11.66 11 12.32 11 13 11 C13.495 12.485 13.495 12.485 14 14 C14.33 12.35 14.66 10.7 15 9 C15.33 9 15.66 9 16 9 C16.08078641 11.12438339 16.13909141 13.2496323 16.1875 15.375 C16.23970703 17.15003906 16.23970703 17.15003906 16.29296875 18.9609375 C16.19628906 19.96382812 16.09960938 20.96671875 16 22 C15.01 22.66 14.02 23.32 13 24 C13 22.02 13 20.04 13 18 C12.26919734 19.97746603 11.60578253 21.98072489 11 24 C11.495 24.99 11.495 24.99 12 26 C10.35 25.67 8.7 25.34 7 25 C6.67 25.99 6.34 26.98 6 28 C3.36 28 0.72 28 -2 28 C-1.01 28.66 -0.02 29.32 1 30 C-0.32 30.33 -1.64 30.66 -3 31 C-3 30.34 -3 29.68 -3 29 C-3.99 29.66 -4.98 30.32 -6 31 C-6.66 31.33 -7.32 31.66 -8 32 C-8 32.66 -8 33.32 -8 34 C-7.34 34 -6.68 34 -6 34 C-6 34.66 -6 35.32 -6 36 C-5.34 36.33 -4.68 36.66 -4 37 C-7.94727588 37.17942163 -10.5980513 37.09350689 -14 35 C-14 34.34 -14 33.68 -14 33 C-14.66 33 -15.32 33 -16 33 C-16.99 30.03 -17.98 27.06 -19 24 C-19.66 24.99 -20.32 25.98 -21 27 C-21.96070434 24.11788698 -22.10581883 22.30149956 -22.0625 19.3125 C-22.05347656 18.50425781 -22.04445313 17.69601563 -22.03515625 16.86328125 C-22.02355469 16.24839844 -22.01195313 15.63351563 -22 15 C-21.34 15 -20.68 15 -20 15 C-19.67 15.99 -19.34 16.98 -19 18 C-18.93683594 17.35933594 -18.87367187 16.71867187 -18.80859375 16.05859375 C-17.81656629 9.05174718 -15.6050624 5.32277218 -10 1 C-6.78548731 -0.60725635 -3.56387464 -0.05748185 0 0 Z " fill="#6A8E00" transform="translate(40,14)"/>
<path d="M0 0 C1.74216797 0.02707031 1.74216797 0.02707031 3.51953125 0.0546875 C4.39996094 0.07789063 5.28039063 0.10109375 6.1875 0.125 C6.6825 2.105 6.6825 2.105 7.1875 4.125 C6.1975 4.125 5.2075 4.125 4.1875 4.125 C3.8575 6.105 3.5275 8.085 3.1875 10.125 C2.53523438 10.19976562 1.88296875 10.27453125 1.2109375 10.3515625 C-4.32681928 11.18467635 -7.95854298 12.17526398 -11.6953125 16.4609375 C-13.31516833 18.87372976 -14.14322756 21.31405574 -14.8125 24.125 C-15.1425 22.805 -15.4725 21.485 -15.8125 20.125 C-16.18375 20.764375 -16.555 21.40375 -16.9375 22.0625 C-19.40302393 24.77457633 -21.25832792 24.6712759 -24.8125 25.125 C-25.4725 25.785 -26.1325 26.445 -26.8125 27.125 C-25.57900006 17.5830982 -21.26882551 9.53694858 -13.83984375 3.4296875 C-9.19372381 0.43969894 -5.50213673 -0.11115428 0 0 Z " fill="#D3D6D4" transform="translate(36.8125,3.875)"/>
<path d="M0 0 C2.0625 0.4375 2.0625 0.4375 4 1 C3.67 1.99 3.34 2.98 3 4 C2.34 4 1.68 4 1 4 C1 10.6 1 17.2 1 24 C1.66 24 2.32 24 3 24 C5.125 25.875 5.125 25.875 7 28 C7 28.66 7 29.32 7 30 C7.66 30.33 8.32 30.66 9 31 C5.05272412 31.17942163 2.4019487 31.09350689 -1 29 C-1 28.34 -1 27.68 -1 27 C-1.66 27 -2.32 27 -3 27 C-3.99 24.03 -4.98 21.06 -6 18 C-6.66 18.99 -7.32 19.98 -8 21 C-8.96070434 18.11788698 -9.10581883 16.30149956 -9.0625 13.3125 C-9.05347656 12.50425781 -9.04445313 11.69601563 -9.03515625 10.86328125 C-9.02355469 10.24839844 -9.01195313 9.63351563 -9 9 C-8.34 9 -7.68 9 -7 9 C-6.67 9.99 -6.34 10.98 -6 12 C-5.67 9.69 -5.34 7.38 -5 5 C-4.34 5 -3.68 5 -3 5 C-2.690625 4.360625 -2.38125 3.72125 -2.0625 3.0625 C-1 1 -1 1 0 0 Z " fill="#333530" transform="translate(27,20)"/>
<path d="M0 0 C6.60166981 5.01589012 6.60166981 5.01589012 8.0625 8.625 C7.99265375 11.27915732 7.40511213 12.76835132 6 15 C5.67 14.67 5.34 14.34 5 14 C1.27775401 13.70613847 0.22213757 13.85190829 -3 16 C-3.66 16 -4.32 16 -5 16 C-5.33 16.99 -5.66 17.98 -6 19 C-7.64821244 20.03013277 -9.31503702 21.03114628 -11 22 C-11.33 22.66 -11.66 23.32 -12 24 C-11.34 24 -10.68 24 -10 24 C-9.67 24.99 -9.34 25.98 -9 27 C-9.66 27.99 -10.32 28.98 -11 30 C-11 29.01 -11 28.02 -11 27 C-11.66 27 -12.32 27 -13 27 C-13 27.66 -13 28.32 -13 29 C-13.99 29 -14.98 29 -16 29 C-15.69609287 23.07381099 -12.91964246 18.33588768 -9 14 C-6.296875 12.734375 -6.296875 12.734375 -4 12 C-3.67 9.03 -3.34 6.06 -3 3 C-2.01 3 -1.02 3 0 3 C0 2.01 0 1.02 0 0 Z " fill="#92B205" transform="translate(44,5)"/>
<path d="M0 0 C2.90500011 2.90500011 2.86861966 4.92720957 3 9 C2.01119772 12.82897905 0.56803955 15.90872923 -2.734375 18.20703125 C-7.89460144 20.46721043 -12.5696845 20.0433245 -18 19 C-18 18.34 -18 17.68 -18 17 C-18.66 17 -19.32 17 -20 17 C-19.34 15.35 -18.68 13.7 -18 12 C-17.01 12 -16.02 12 -15 12 C-15 12.66 -15 13.32 -15 14 C-14.67 13.67 -14.34 13.34 -14 13 C-14 12.34 -14 11.68 -14 11 C-10.535 10.505 -10.535 10.505 -7 10 C-6.34 7.03 -5.68 4.06 -5 1 C-4.67 1 -4.34 1 -4 1 C-3.67 3.31 -3.34 5.62 -3 8 C-0.4345406 5.4345406 -0.45953913 3.52313332 0 0 Z " fill="#78A000" transform="translate(52,31)"/>
<path d="M0 0 C0 0.99 0 1.98 0 3 C-0.886875 3.53625 -1.77375 4.0725 -2.6875 4.625 C-7.51756002 7.57797508 -10.14455156 12.93508043 -11.63671875 18.28125 C-11.81654297 19.13203125 -11.81654297 19.13203125 -12 20 C-11.01 20 -10.02 20 -9 20 C-9 19.34 -9 18.68 -9 18 C-8.01 17.67 -7.02 17.34 -6 17 C-6 16.34 -6 15.68 -6 15 C-6.66 14.67 -7.32 14.34 -8 14 C-5.69 14 -3.38 14 -1 14 C-1.33 16.64 -1.66 19.28 -2 22 C-2.99 22 -3.98 22 -5 22 C-5.66 22.99 -6.32 23.98 -7 25 C-6.67 25.33 -6.34 25.66 -6 26 C-6 26.66 -6 27.32 -6 28 C-7.65 28.33 -9.3 28.66 -11 29 C-13.23177054 25.65234419 -13.24633323 24.52938715 -13.1875 20.625 C-13.18105469 19.68914063 -13.17460937 18.75328125 -13.16796875 17.7890625 C-12.75137023 10.87158947 -12.75137023 10.87158947 -10.4375 8.1875 C-9.963125 7.795625 -9.48875 7.40375 -9 7 C-12.68754757 7.49831724 -14.60490662 8.10067643 -17 11 C-16.27323093 6.3732448 -13.73331199 4.34897979 -10.27734375 1.41796875 C-6.67483597 -0.82510213 -4.14075444 -0.51759431 0 0 Z " fill="#759E00" transform="translate(40,14)"/>
<path d="M0 0 C0.66 0.33 1.32 0.66 2 1 C2 1.66 2 2.32 2 3 C2.66 3 3.32 3 4 3 C4 3.66 4 4.32 4 5 C9.27913453 7.08386889 14.39538469 7.57910004 20 8 C20 8.66 20 9.32 20 10 C14.97143045 13.01714173 11.70388605 13.37402531 6 13 C5.01 12.67 4.02 12.34 3 12 C2.34 12.66 1.68 13.32 1 14 C-5.42857143 9.85714286 -5.42857143 9.85714286 -8 7 C-7.25 5.0625 -7.25 5.0625 -6 3 C-4 2.1875 -4 2.1875 -2 2 C-1.34 2.33 -0.68 2.66 0 3 C0 2.01 0 1.02 0 0 Z " fill="#93C205" transform="translate(22,44)"/>
<path d="M0 0 C0.70125 0.7425 1.4025 1.485 2.125 2.25 C4.97718006 4.97817223 7.6763063 6.91302954 11 9 C11.99 8.34 12.98 7.68 14 7 C14.66 7.33 15.32 7.66 16 8 C21.2372694 8.26186347 25.06215348 7.97513861 30 6 C30 5.34 30 4.68 30 4 C26.7 4 23.4 4 20 4 C24.33483367 1.83258316 26.27389273 2 31 2 C33.40418671 1.47613052 35.65587575 0.76542833 38 0 C35.58781673 5.61605747 30.74499901 9.38115443 25.5625 12.4375 C17.14666841 14.28487767 11.26085584 12.54944109 4 8 C1.375 5.9375 1.375 5.9375 0 4 C0 2.68 0 1.36 0 0 Z " fill="#91AD35" transform="translate(12,48)"/>
<path d="M0 0 C2.5625 0.1875 2.5625 0.1875 5.5625 1.1875 C5.2325 2.8375 4.9025 4.4875 4.5625 6.1875 C2.2525 6.1875 -0.0575 6.1875 -2.4375 6.1875 C-2.7675 7.1775 -3.0975 8.1675 -3.4375 9.1875 C-4.4275 9.5175 -5.4175 9.8475 -6.4375 10.1875 C-6.4375 12.8275 -6.4375 15.4675 -6.4375 18.1875 C-6.7675 18.1875 -7.0975 18.1875 -7.4375 18.1875 C-7.4375 15.5475 -7.4375 12.9075 -7.4375 10.1875 C-9.7475 10.1875 -12.0575 10.1875 -14.4375 10.1875 C-13.14784824 8.81187146 -11.81060707 7.47983607 -10.4375 6.1875 C-9.7775 6.1875 -9.1175 6.1875 -8.4375 6.1875 C-8.1075 4.5375 -7.7775 2.8875 -7.4375 1.1875 C-6.4475 1.5175 -5.4575 1.8475 -4.4375 2.1875 C-2.4375 0.1875 -2.4375 0.1875 0 0 Z " fill="#8BAF04" transform="translate(46.4375,17.8125)"/>
<path d="M0 0 C0.99 0.99 1.98 1.98 3 3 C2.01 5.97 1.02 8.94 0 12 C-0.33 10.68 -0.66 9.36 -1 8 C-1.556875 8.9590625 -1.556875 8.9590625 -2.125 9.9375 C-4.59052393 12.64957633 -6.44582792 12.5462759 -10 13 C-10.66 13.66 -11.32 14.32 -12 15 C-11.125 9.25 -11.125 9.25 -10 7 C-9.34 7 -8.68 7 -8 7 C-7.79375 6.21625 -7.5875 5.4325 -7.375 4.625 C-6 2 -6 2 -2.875 0.6875 C-1.451875 0.3471875 -1.451875 0.3471875 0 0 Z " fill="#C0CAB0" transform="translate(22,16)"/>
<path d="M0 0 C1.27230469 0.00902344 2.54460938 0.01804688 3.85546875 0.02734375 C5.31919922 0.04474609 5.31919922 0.04474609 6.8125 0.0625 C6.8125 0.3925 6.8125 0.7225 6.8125 1.0625 C6.11125 1.08828125 5.41 1.1140625 4.6875 1.140625 C-3.47876182 1.62882543 -9.62941474 3.04401255 -15.375 9.125 C-18.93551106 13.59270977 -21.040623 18.80930098 -23.1875 24.0625 C-23.5175 24.0625 -23.8475 24.0625 -24.1875 24.0625 C-25.43571875 20.23462918 -25.77313602 18.26210926 -23.9765625 14.58203125 C-17.71698509 5.22098901 -11.45559782 -0.10509723 0 0 Z " fill="#8AB014" transform="translate(34.1875,2.9375)"/>
<path d="M0 0 C2 2 2 2 2.25 5.875 C2.18064077 9.05396475 1.80254921 11.29617618 0 14 C0 11.69 0 9.38 0 7 C-0.66 7 -1.32 7 -2 7 C-1.87625 8.3921875 -1.87625 8.3921875 -1.75 9.8125 C-2 13 -2 13 -4 14.875 C-4.99 15.431875 -4.99 15.431875 -6 16 C-8.47128202 15.0433747 -9.72986449 14.54027102 -10.9375 12.125 C-11 10 -11 10 -9.9375 7.75 C-8 6 -8 6 -4.8125 5.75 C-3.884375 5.8325 -2.95625 5.915 -2 6 C-1.34 4.02 -0.68 2.04 0 0 Z " fill="#83AC0A" transform="translate(20,22)"/>
<path d="M0 0 C-3.08809695 1.76462683 -4.23312136 2 -8 2 C-8.061875 2.928125 -8.12375 3.85625 -8.1875 4.8125 C-9 8 -9 8 -11.5 9.75 C-12.7375 10.36875 -12.7375 10.36875 -14 11 C-14.33 11.66 -14.66 12.32 -15 13 C-14.34 13 -13.68 13 -13 13 C-12.67 13.99 -12.34 14.98 -12 16 C-12.66 16.99 -13.32 17.98 -14 19 C-14 18.01 -14 17.02 -14 16 C-14.66 16 -15.32 16 -16 16 C-16 16.66 -16 17.32 -16 18 C-16.99 18 -17.98 18 -19 18 C-18.68801037 11.91620231 -15.82872014 7.55162534 -12 3 C-7.91232559 0.18972384 -4.91652965 -0.35118069 0 0 Z " fill="#98BB27" transform="translate(47,16)"/>
<path d="M0 0 C0 0.99 0 1.98 0 3 C-1.97321053 4.3726682 -3.97543152 5.70427617 -6 7 C-6.99 8.485 -6.99 8.485 -8 10 C-8.66 9.67 -9.32 9.34 -10 9 C-9.67 8.34 -9.34 7.68 -9 7 C-12.68754757 7.49831724 -14.60490662 8.10067643 -17 11 C-16.27323093 6.3732448 -13.73331199 4.34897979 -10.27734375 1.41796875 C-6.67483597 -0.82510213 -4.14075444 -0.51759431 0 0 Z " fill="#729600" transform="translate(40,14)"/>
<path d="M0 0 C2.0625 0.4375 2.0625 0.4375 4 1 C3.67 1.99 3.34 2.98 3 4 C2.34 4 1.68 4 1 4 C0.67 7.63 0.34 11.26 0 15 C-4 13 -4 13 -5 12 C-5.04092937 9.66702567 -5.04241723 7.33294775 -5 5 C-4.34 5 -3.68 5 -3 5 C-2.5359375 4.0409375 -2.5359375 4.0409375 -2.0625 3.0625 C-1 1 -1 1 0 0 Z " fill="#353A32" transform="translate(27,20)"/>
<path d="M0 0 C-2 3 -2 3 -4.0625 4 C-6.35342991 4.89698316 -6.35342991 4.89698316 -7 8 C-8.98567708 7.93489583 -10.97135417 7.86979167 -12.95703125 7.8046875 C-15.31359719 7.86745538 -15.31359719 7.86745538 -18 10 C-16.13985108 4.97759793 -12.03107313 2.08984412 -7.4375 -0.375 C-4.60290716 -1.10181868 -2.78943572 -0.79698163 0 0 Z " fill="#D9DCD9" transform="translate(35,5)"/>
<path d="M0 0 C0.66 0.33 1.32 0.66 2 1 C1.71875 2.88671875 1.71875 2.88671875 1 5 C-5.01157693 8.11313805 -9.42733376 8.26280393 -16 7 C-16.33 6.01 -16.66 5.02 -17 4 C-15.86111328 4.01740234 -15.86111328 4.01740234 -14.69921875 4.03515625 C-13.70535156 4.04417969 -12.71148437 4.05320312 -11.6875 4.0625 C-10.70136719 4.07410156 -9.71523438 4.08570313 -8.69921875 4.09765625 C-5.54263005 3.98345261 -3.6587839 3.60998509 -1.3125 1.4375 C-0.879375 0.963125 -0.44625 0.48875 0 0 Z " fill="#AAC178" transform="translate(50,43)"/>
<path d="M0 0 C2.04119788 1.61594832 4.04072937 3.2856382 6 5 C6 5.66 6 6.32 6 7 C2.6828589 8.4216319 -0.44219804 9.39009109 -4 10 C-3.67 7.69 -3.34 5.38 -3 3 C-2.01 3 -1.02 3 0 3 C0 2.01 0 1.02 0 0 Z " fill="#A3C557" transform="translate(44,5)"/>
<path d="M0 0 C0.66 0 1.32 0 2 0 C1.97679687 0.74765625 1.95359375 1.4953125 1.9296875 2.265625 C1.91164063 3.25046875 1.89359375 4.2353125 1.875 5.25 C1.84019531 6.71179688 1.84019531 6.71179688 1.8046875 8.203125 C2.00462794 11.06627213 2.37332298 12.65155238 4 15 C4.99 15.33 5.98 15.66 7 16 C7 16.66 7 17.32 7 18 C5.35 18.33 3.7 18.66 2 19 C-0.79102638 13.53424001 -1.61767656 9.12925207 -1 3 C-0.67 2.01 -0.34 1.02 0 0 Z " fill="#6A8B02" transform="translate(8,22)"/>
<path d="M0 0 C1.65 0 3.3 0 5 0 C5.33 1.32 5.66 2.64 6 4 C5.01 4 4.02 4 3 4 C2.67 5.98 2.34 7.96 2 10 C0.68 10 -0.64 10 -2 10 C-2.6875 8.375 -2.6875 8.375 -3 6 C-1.5625 2.75 -1.5625 2.75 0 0 Z " fill="#B7CB9E" transform="translate(38,4)"/>
<path d="M0 0 C0.598125 0.33 1.19625 0.66 1.8125 1 C4.05386471 2.20787988 4.05386471 2.20787988 7 2 C7.66 2 8.32 2 9 2 C9.625 4.875 9.625 4.875 10 8 C9.34 8.66 8.68 9.32 8 10 C1.57142857 5.85714286 1.57142857 5.85714286 -1 3 C-0.67 2.01 -0.34 1.02 0 0 Z " fill="#A2C445" transform="translate(15,48)"/>
<path d="M0 0 C4.28806873 0.47645208 6.26647487 1.65902484 9 5 C9 5.66 9 6.32 9 7 C9.66 7.33 10.32 7.66 11 8 C7.05272412 8.17942163 4.4019487 8.09350689 1 6 C1 5.34 1 4.68 1 4 C0.34 4 -0.32 4 -1 4 C-0.67 2.68 -0.34 1.36 0 0 Z " fill="#2D2B2A" transform="translate(25,43)"/>
<path d="M0 0 C2.78159039 1.39079519 2.92225922 2.93712128 4 5.8125 C5.19411528 8.97037517 6.4366633 12.00593105 8 15 C6.68 15.33 5.36 15.66 4 16 C3.32320342 14.274773 2.65898 12.54461061 2 10.8125 C1.443125 9.36810547 1.443125 9.36810547 0.875 7.89453125 C0.02363228 5.07817642 -0.17072647 2.91835561 0 0 Z " fill="#7C9E02" transform="translate(7,34)"/>
<path d="M0 0 C0.99 0 1.98 0 3 0 C3 0.66 3 1.32 3 2 C8.445 1.505 8.445 1.505 14 1 C13.67 1.99 13.34 2.98 13 4 C7.9752761 4.62529897 3.07471573 5.13012092 -2 5 C-1.34 3.35 -0.68 1.7 0 0 Z " fill="#8DB508" transform="translate(34,43)"/>
<path d="M0 0 C2.99332739 0.9977758 3.94766315 1.7522025 6 4 C5.01 5.485 5.01 5.485 4 7 C2.00714063 7.37366113 0.00636471 7.70740515 -2 8 C-2.66 8.66 -3.32 9.32 -4 10 C-3.125 4.25 -3.125 4.25 -2 2 C-1.34 2 -0.68 2 0 2 C0 1.34 0 0.68 0 0 Z " fill="#ACCB7F" transform="translate(14,21)"/>
<path d="M0 0 C0.59425781 0.22042969 1.18851563 0.44085938 1.80078125 0.66796875 C1.14078125 2.64796875 0.48078125 4.62796875 -0.19921875 6.66796875 C-0.94171875 6.42046875 -1.68421875 6.17296875 -2.44921875 5.91796875 C-3.35671875 5.83546875 -4.26421875 5.75296875 -5.19921875 5.66796875 C-7.53376536 7.5015521 -7.53376536 7.5015521 -9.19921875 9.66796875 C-8.6159748 6.44255946 -7.67707077 4.69220765 -5.38671875 2.35546875 C-4.88527344 1.82308594 -4.38382813 1.29070313 -3.8671875 0.7421875 C-2.19921875 -0.33203125 -2.19921875 -0.33203125 0 0 Z " fill="#647D07" transform="translate(32.19921875,15.33203125)"/>
<path d="M0 0 C0.99 0.33 1.98 0.66 3 1 C3 4.63 3 8.26 3 12 C1.68 11.67 0.36 11.34 -1 11 C-0.67 7.37 -0.34 3.74 0 0 Z " fill="#739C00" transform="translate(40,28)"/>
<path d="M0 0 C0.639375 0.70125 1.27875 1.4025 1.9375 2.125 C5.49799687 5.71636823 9.74812946 8.30436965 14 11 C11 12 11 12 9.0625 11.109375 C8.381875 10.66078125 7.70125 10.2121875 7 9.75 C6.319375 9.31171875 5.63875 8.8734375 4.9375 8.421875 C3.04688639 7.03440856 1.45767935 5.84032018 0 4 C0 2.68 0 1.36 0 0 Z " fill="#3A4221" transform="translate(12,48)"/>
<path d="M0 0 C2.8293078 2.8293078 2.73345379 5.06844341 3 9 C2.0625 11.9375 2.0625 11.9375 1 14 C-0.65 13.67 -2.3 13.34 -4 13 C-3.67 12.34 -3.34 11.68 -3 11 C-2.34 11 -1.68 11 -1 11 C-1.20625 10.484375 -1.4125 9.96875 -1.625 9.4375 C-2.15887026 5.96734329 -1.07676761 3.29364209 0 0 Z " fill="#8EB50A" transform="translate(52,31)"/>
<path d="M0 0 C2 2 2 2 3 5 C1.68 5.99 0.36 6.98 -1 8 C-1.33 6.68 -1.66 5.36 -2 4 C-3.98 4.66 -5.96 5.32 -8 6 C-7.67 5.01 -7.34 4.02 -7 3 C-3.4375 1.3125 -3.4375 1.3125 0 0 Z " fill="#CED2CE" transform="translate(25,13)"/>
<path d="M0 0 C0.66 0.33 1.32 0.66 2 1 C1.071875 1.8971875 1.071875 1.8971875 0.125 2.8125 C-2.13676954 5.00811144 -2.13676954 5.00811144 -4 8 C-6 8.625 -6 8.625 -8 9 C-8.99 9.495 -8.99 9.495 -10 10 C-8.26548969 5.31682216 -4.40759243 2.20379621 0 0 Z " fill="#ECF4EA" transform="translate(27,5)"/>
<path d="M0 0 C-3.50538557 1.96301592 -7.13351728 2.95902388 -11 4 C-11 4.99 -11 5.98 -11 7 C-12.82193842 8.9249647 -14.89235283 10.37535531 -17 12 C-15.3852403 6.86212823 -12.49946114 3.69318335 -8.0625 0.6875 C-5.3232407 -0.22558643 -2.86493481 -0.13022431 0 0 Z " fill="#C8DAB6" transform="translate(47,16)"/>
<path d="M0 0 C0.66 0.33 1.32 0.66 2 1 C2 1.66 2 2.32 2 3 C2.66 3.33 3.32 3.66 4 4 C-0.455 5.485 -0.455 5.485 -5 7 C-5.33 5.68 -5.66 4.36 -6 3 C-2.25 1.875 -2.25 1.875 0 3 C0 2.01 0 1.02 0 0 Z " fill="#89B105" transform="translate(22,44)"/>
<path d="M0 0 C1.67542976 0.28604898 3.34385343 0.61781233 5 1 C2.80734628 2.70539734 0.67055249 4.18718609 -1.75 5.5625 C-2.4925 6.036875 -3.235 6.51125 -4 7 C-4 7.66 -4 8.32 -4 9 C-4.66 9 -5.32 9 -6 9 C-6.33 9.66 -6.66 10.32 -7 11 C-6.58485103 6.1565954 -4.53791301 4.18412171 -1 1 C-0.67 0.67 -0.34 0.34 0 0 Z " fill="#DBDEDB" transform="translate(20,12)"/>
<path d="M0 0 C0.66 0.33 1.32 0.66 2 1 C1.5205537 5.21912747 0.83374881 7.79663178 -2 11 C-3.35384615 4.6 -3.35384615 4.6 -1.5625 1.5625 C-1.046875 1.046875 -0.53125 0.53125 0 0 Z " fill="#93BE12" transform="translate(12,16)"/>
<path d="M0 0 C-0.66 1.32 -1.32 2.64 -2 4 C-7.28 4 -12.56 4 -18 4 C-13.69664491 1.84832245 -11.68467161 2 -7 2 C-1.375 0 -1.375 0 0 0 Z " fill="#7B9C13" transform="translate(50,48)"/>
<path d="M0 0 C0 3 0 6 0 9 C-1.32 8.67 -2.64 8.34 -4 8 C-4.36780384 3.46375267 -4.36780384 3.46375267 -2.5625 1.1875 C-1 0 -1 0 0 0 Z " fill="#658300" transform="translate(52,31)"/>
<path d="M0 0 C0.66 0.33 1.32 0.66 2 1 C1.67 2.32 1.34 3.64 1 5 C-0.8125 5.625 -0.8125 5.625 -3 6 C-3.99 5.34 -4.98 4.68 -6 4 C-5.01 3.67 -4.02 3.34 -3 3 C-1.33289654 1.50014391 -1.33289654 1.50014391 0 0 Z " fill="#A5C438" transform="translate(50,43)"/>
<path d="M0 0 C1.9375 0.3125 1.9375 0.3125 4 1 C4.33 1.99 4.66 2.98 5 4 C4.34 4.66 3.68 5.32 3 6 C2.01 5.34 1.02 4.68 0 4 C0 2.68 0 1.36 0 0 Z " fill="#C0CFAA" transform="translate(20,52)"/>
<path d="M0 0 C2.625 -0.1875 2.625 -0.1875 5 0 C3.6875 2 3.6875 2 2 4 C1.01 4 0.02 4 -1 4 C-1.33 4.66 -1.66 5.32 -2 6 C-2 3 -2 3 0 0 Z " fill="#8EB707" transform="translate(12,28)"/>
<path d="M0 0 C0.495 0.37125 0.99 0.7425 1.5 1.125 C1.17 1.785 0.84 2.445 0.5 3.125 C0.17 2.795 -0.16 2.465 -0.5 2.125 C-4.22224599 1.83113847 -5.27786243 1.97690829 -8.5 4.125 C-9.16 3.135 -9.82 2.145 -10.5 1.125 C-3.11538462 -1.09038462 -3.11538462 -1.09038462 0 0 Z " fill="#A5C655" transform="translate(49.5,16.875)"/>
<path d="M0 0 C1.32 0.33 2.64 0.66 4 1 C3.01 2.485 3.01 2.485 2 4 C-1.125 4.1875 -1.125 4.1875 -4 4 C-3.67 3.34 -3.34 2.68 -3 2 C-2.01 2 -1.02 2 0 2 C0 1.34 0 0.68 0 0 Z " fill="#A3C458" transform="translate(16,24)"/>
<path d="M0 0 C0.99 0.495 0.99 0.495 2 1 C2.40729228 3.32156597 2.74438677 5.6568787 3 8 C2.01 8.495 2.01 8.495 1 9 C0.67 6.03 0.34 3.06 0 0 Z " fill="#86AB02" transform="translate(7,34)"/>
</svg>
