<?xml version="1.0" encoding="UTF-8"?>
<svg version="1.1" xmlns="http://www.w3.org/2000/svg" width="62" height="62">
<path d="M0 0 C7.40578483 5.62554809 12.13085117 14.45187631 13.54296875 23.55859375 C13.93301069 35.98613687 9.77633968 42.47783872 1.6015625 51.47265625 C-2.33536773 55.03575334 -5.63147549 56.69742969 -10.90625 57.29296875 C-17.03642283 56.96726697 -21.10866576 54.77805299 -25.4296875 50.45703125 C-32.21207544 42.62106849 -35.70113663 35.78054683 -35.3125 25.3359375 C-34.43365849 17.58504363 -31.5524274 12.27271811 -26.03125 6.85546875 C-25.22494141 6.03369141 -25.22494141 6.03369141 -24.40234375 5.1953125 C-17.74730562 -1.08914346 -8.51572221 -4.79828194 0 0 Z " fill="#A6C872" transform="translate(42.03125,4.14453125)"/>
<path d="M0 0 C5.06525999 4.56021941 7.5875127 10.85041476 8.4609375 17.51953125 C8.66728214 24.84476597 7.95667494 30.76164251 4 37 C3.360625 38.03125 2.72125 39.0625 2.0625 40.125 C-2.96893613 43.2054711 -8.37853051 42.2244785 -14 41 C-18.55927119 38.7330998 -20.16007316 36.78380977 -22 32 C-22.6875 28.6875 -22.6875 28.6875 -23 25 C-23.06445312 24.28585938 -23.12890625 23.57171875 -23.1953125 22.8359375 C-23.56283082 15.70608206 -21.46007101 10.89420118 -16.875 5.5 C-12.64089132 3.29089982 -8.68228301 3.67269478 -4 4 C-4 4.66 -4 5.32 -4 6 C-4.9075 6.680625 -5.815 7.36125 -6.75 8.0625 C-11.68075732 12.0024432 -13.48232663 17.54105149 -14.75 23.5625 C-14.8325 24.366875 -14.915 25.17125 -15 26 C-13.68 26 -12.36 26 -11 26 C-10.855625 25.4225 -10.71125 24.845 -10.5625 24.25 C-10.04166667 22.16666667 -9.52083333 20.08333333 -9 18 C-8.34 18 -7.68 18 -7 18 C-7 16.68 -7 15.36 -7 14 C-6.8125 11 -6.8125 11 -6 8 C-4.37373596 6.61767557 -2.7074998 5.28062485 -1 4 C-0.13034494 1.87053397 -0.13034494 1.87053397 0 0 Z " fill="#69A703" transform="translate(47,10)"/>
<path d="M0 0 C-0.515625 0.37125 -1.03125 0.7425 -1.5625 1.125 C-2.366875 1.74375 -3.17125 2.3625 -4 3 C-4.79857422 3.56847656 -4.79857422 3.56847656 -5.61328125 4.1484375 C-11.19046687 8.42716527 -13.96324508 13.74851185 -17 20 C-17.66 20 -18.32 20 -19 20 C-18.67 22.97 -18.34 25.94 -18 29 C-17.62875 28.175 -17.2575 27.35 -16.875 26.5 C-15.946875 25.2625 -15.946875 25.2625 -15 24 C-11.8828125 23.84375 -11.8828125 23.84375 -9 24 C-8.93941406 24.96421875 -8.87882812 25.9284375 -8.81640625 26.921875 C-8.69072266 28.81679688 -8.69072266 28.81679688 -8.5625 30.75 C-8.44068359 32.62945312 -8.44068359 32.62945312 -8.31640625 34.546875 C-8.07484478 37.18317553 -7.75716066 39.48037294 -7 42 C-7.969375 41.979375 -8.93875 41.95875 -9.9375 41.9375 C-12.87465895 41.64381501 -12.87465895 41.64381501 -14 43 C-14.33374277 45.41583753 -14.33374277 45.41583753 -14 48 C-12.56249809 49.68798827 -12.56249809 49.68798827 -11 51 C-11 51.66 -11 52.32 -11 53 C-9.02 53.66 -7.04 54.32 -5 55 C-5 55.66 -5 56.32 -5 57 C-9.82057615 56.57465505 -12.76938522 54.42570021 -16 51 C-22.85676701 42.52228179 -26.05933851 34.98012768 -25 24 C-23.10933845 14.26070981 -16.79796935 7.75055731 -9 2 C-5.80276607 0.18088414 -3.69179432 -0.20509968 0 0 Z " fill="#7AC201" transform="translate(32,3)"/>
<path d="M0 0 C0.66 0.33 1.32 0.66 2 1 C2.60728509 3.46962605 2.95743178 5.94350793 3.33984375 8.45703125 C4.08648674 11.33315306 4.91268689 12.88869479 7 15 C9.02537532 15.65869302 9.02537532 15.65869302 11.25 15.6875 C12.03761719 15.74164063 12.82523438 15.79578125 13.63671875 15.8515625 C14.41660156 15.90054688 15.19648437 15.94953125 16 16 C17.35610686 16.1729098 18.71068084 16.35876351 20.0625 16.5625 C21.031875 16.706875 22.00125 16.85125 23 17 C21.43989422 21.21228561 18.5154607 23.34546845 15 26 C12.24921116 26.91692961 10.64051087 27.10886083 7.8125 27.0625 C5.9253125 27.0315625 5.9253125 27.0315625 4 27 C4 26.01 4 25.02 4 24 C3.1646875 23.9071875 3.1646875 23.9071875 2.3125 23.8125 C-0.956767 22.66383862 -2.67659558 20.51178856 -5 18 C-5.33 17.67 -5.66 17.34 -6 17 C-6.25 14.5625 -6.25 14.5625 -6 12 C-3 10 -3 10 1 10 C0.67 9.01 0.34 8.02 0 7 C-0.03954234 4.66700175 -0.04401732 2.33291811 0 0 Z " fill="#7EC400" transform="translate(23,34)"/>
<path d="M0 0 C6.17761989 3.5062167 6.17761989 3.5062167 8 6 C8.125 8.5625 8.125 8.5625 8 11 C8.33 11.66 8.66 12.32 9 13 C6.69 13.66 4.38 14.32 2 15 C1.67 16.98 1.34 18.96 1 21 C1.66 21.33 2.32 21.66 3 22 C2.34 22.99 1.68 23.98 1 25 C0.34 25 -0.32 25 -1 25 C-0.938125 26.1446875 -0.938125 26.1446875 -0.875 27.3125 C-1 30 -1 30 -3 33 C-4.32 33 -5.64 33 -7 33 C-6.80289624 25.25919767 -4.60792449 20.0474686 0.5390625 14.2734375 C2 13 2 13 4 13 C4 12.34 4 11.68 4 11 C3.01 11 2.02 11 1 11 C0.67 7.37 0.34 3.74 0 0 Z " fill="#98C547" transform="translate(39,3)"/>
<path d="M0 0 C1.65 0 3.3 0 5 0 C4.67 0.99 4.34 1.98 4 3 C3.6946182 7.654797 3.6946182 7.654797 5 12 C4.34 12 3.68 12 3 12 C4.40550846 16.47207238 6.6364143 18.80049165 10 22 C11.02813611 23.31175986 12.04084432 24.6369893 13 26 C9.59566828 26.87087556 7.62390601 27.24666051 4.3125 25.9375 C0.54261993 22.77895183 -0.70140669 19.43867687 -1.6875 14.6875 C-2.04730183 10.44183836 -2.08688097 6.25716757 -2 2 C-1.34 2 -0.68 2 0 2 C0 1.34 0 0.68 0 0 Z " fill="#373E30" transform="translate(26,24)"/>
<path d="M0 0 C2.71372659 2.00579792 3.03939963 3.17275223 3.8125 6.5625 C3.874375 7.696875 3.93625 8.83125 4 10 C3.34 10.66 2.68 11.32 2 12 C2.3185177 14.10820797 2.3185177 14.10820797 3 16 C2.01 16 1.02 16 0 16 C-0.33 16.66 -0.66 17.32 -1 18 C-1.99 17.67 -2.98 17.34 -4 17 C-3.79375 18.11375 -3.5875 19.2275 -3.375 20.375 C-3.25125 21.57125 -3.1275 22.7675 -3 24 C-3.66 24.66 -4.32 25.32 -5 26 C-5.33 25.67 -5.66 25.34 -6 25 C-6.99 25.33 -7.98 25.66 -9 26 C-9 27.98 -9 29.96 -9 32 C-9.33 32 -9.66 32 -10 32 C-10.18451025 22.58997722 -10.18451025 22.58997722 -9 18 C-8.34 18 -7.68 18 -7 18 C-7 16.68 -7 15.36 -7 14 C-6.8125 11 -6.8125 11 -6 8 C-4.37373596 6.61767557 -2.7074998 5.28062485 -1 4 C-0.13034494 1.87053397 -0.13034494 1.87053397 0 0 Z " fill="#75BB03" transform="translate(47,10)"/>
<path d="M0 0 C0.91007812 0.00902344 1.82015625 0.01804687 2.7578125 0.02734375 C3.80582031 0.04474609 3.80582031 0.04474609 4.875 0.0625 C4.875 0.7225 4.875 1.3825 4.875 2.0625 C3.988125 2.68125 3.10125 3.3 2.1875 3.9375 C-2.5994109 7.67834011 -4.12856897 13.52372897 -6.125 19.0625 C-7.115 19.0625 -8.105 19.0625 -9.125 19.0625 C-9.25 13.3125 -9.25 13.3125 -8.125 11.0625 C-9.445 10.7325 -10.765 10.4025 -12.125 10.0625 C-12.455 10.7225 -12.785 11.3825 -13.125 12.0625 C-12.67896127 7.00739444 -10.47799176 4.66083262 -7.125 1.0625 C-4.60024538 -0.19987731 -2.81299534 -0.03606404 0 0 Z " fill="#76C000" transform="translate(38.125,13.9375)"/>
<path d="M0 0 C0.32382475 5.3970791 -0.57868963 8.25423168 -3 13 C-3.52456874 15.67627199 -3.76517604 18.27604206 -4 21 C-4.33 21 -4.66 21 -5 21 C-5 18.69 -5 16.38 -5 14 C-7.9042893 14.10792821 -7.9042893 14.10792821 -11 15 C-12.84434349 17.46115547 -12.84434349 17.46115547 -14 20 C-14.33 20 -14.66 20 -15 20 C-15.22245393 18.39773045 -15.42746669 16.79303233 -15.625 15.1875 C-15.74101562 14.29417969 -15.85703125 13.40085937 -15.9765625 12.48046875 C-16 10 -16 10 -14 7 C-13.34 7.66 -12.68 8.32 -12 9 C-11.38125 8.175 -10.7625 7.35 -10.125 6.5 C-9.42375 5.675 -8.7225 4.85 -8 4 C-7.34 4 -6.68 4 -6 4 C-0.875 0 -0.875 0 0 0 Z " fill="#A0C855" transform="translate(28,13)"/>
<path d="M0 0 C-0.515625 0.37125 -1.03125 0.7425 -1.5625 1.125 C-2.366875 1.74375 -3.17125 2.3625 -4 3 C-4.79857422 3.56847656 -4.79857422 3.56847656 -5.61328125 4.1484375 C-11.19046687 8.42716527 -13.96324508 13.74851185 -17 20 C-17.66 20 -18.32 20 -19 20 C-19 22.31 -19 24.62 -19 27 C-21.475 26.01 -21.475 26.01 -24 25 C-23.7104128 16.89155833 -20.68718953 12.60226386 -14.96484375 7.01171875 C-10.1759587 2.68829542 -6.69443486 -0.37191305 0 0 Z " fill="#79C202" transform="translate(32,3)"/>
<path d="M0 0 C0.99 0 1.98 0 3 0 C2.71080122 6.37683303 1.74240394 10.76063448 -2 16 C-4.94916469 18.18808993 -7.38830465 18.20064974 -11 18 C-11 14 -11 14 -9 12 C-8.38125 11.731875 -7.7625 11.46375 -7.125 11.1875 C-4.25640177 9.58445981 -2.82976687 7.71310261 -1 5 C-0.21053391 2.31492671 -0.21053391 2.31492671 0 0 Z " fill="#79BB08" transform="translate(52,32)"/>
<path d="M0 0 C1.32 0 2.64 0 4 0 C4.66 4.29 5.32 8.58 6 13 C3 13 0 13 -3 13 C-4.125 10.1875 -4.125 10.1875 -5 7 C-4.34 6.01 -3.68 5.02 -3 4 C-2.34 4 -1.68 4 -1 4 C-0.67 2.68 -0.34 1.36 0 0 Z " fill="#5C9700" transform="translate(19,32)"/>
<path d="M0 0 C0.33 0 0.66 0 1 0 C1.144375 0.9075 1.28875 1.815 1.4375 2.75 C1.90623358 5.86064554 1.90623358 5.86064554 2.6875 8.25 C2.8421875 9.11625 2.8421875 9.11625 3 10 C2.34 10.66 1.68 11.32 1 12 C1 11.34 1 10.68 1 10 C0.34 10 -0.32 10 -1 10 C-1.33 11.32 -1.66 12.64 -2 14 C-4.31 14.66 -6.62 15.32 -9 16 C-10.28571429 7.57142857 -10.28571429 7.57142857 -9 3 C-8.34 4.32 -7.68 5.64 -7 7 C-6.34 6.67 -5.68 6.34 -5 6 C-4.67 5.01 -4.34 4.02 -4 3 C-3.34 3.66 -2.68 4.32 -2 5 C-1.34 3.35 -0.68 1.7 0 0 Z " fill="#509002" transform="translate(45,29)"/>
<path d="M0 0 C2.31 0.33 4.62 0.66 7 1 C7.87867729 4.73437848 8.08912219 8.16774573 8 12 C5.36 12.33 2.72 12.66 0 13 C0 10 0 10 1 8 C0.34 7.34 -0.32 6.68 -1 6 C-0.625 2.875 -0.625 2.875 0 0 Z " fill="#A4C867" transform="translate(32,2)"/>
<path d="M0 0 C0.721875 0.185625 1.44375 0.37125 2.1875 0.5625 C5.12826973 1.01995307 7.14103058 0.73516357 10 0 C10.28875 0.78375 10.5775 1.5675 10.875 2.375 C11.84912254 5.09671632 11.84912254 5.09671632 14 7 C14 7.99 14 8.98 14 10 C6.80558276 9.63418217 6.80558276 9.63418217 3.0625 6.6875 C1.21738963 4.28326527 0.32900748 2.9610673 0 0 Z " fill="#B1D089" transform="translate(18,49)"/>
<path d="M0 0 C6.17761989 3.5062167 6.17761989 3.5062167 8 6 C8.125 8.5625 8.125 8.5625 8 11 C8.33 11.66 8.66 12.32 9 13 C4.545 14.485 4.545 14.485 0 16 C0.66 15.01 1.32 14.02 2 13 C2.66 13 3.32 13 4 13 C4 12.34 4 11.68 4 11 C3.01 11 2.02 11 1 11 C0.67 7.37 0.34 3.74 0 0 Z " fill="#8FC61F" transform="translate(39,3)"/>
<path d="M0 0 C0.33 0.66 0.66 1.32 1 2 C-0.32 2 -1.64 2 -3 2 C-3 2.99 -3 3.98 -3 5 C-3.66 5 -4.32 5 -5 5 C-5.309375 5.639375 -5.61875 6.27875 -5.9375 6.9375 C-7 9 -7 9 -8 10 C-9.66617115 10.04063832 -11.33388095 10.042721 -13 10 C-13.33 10.66 -13.66 11.32 -14 12 C-13.55396127 6.94489444 -11.35299176 4.59833262 -8 1 C-5.29120665 -0.35439668 -2.99066732 -0.06501451 0 0 Z " fill="#5C7602" transform="translate(39,14)"/>
<path d="M0 0 C-1.56010578 4.21228561 -4.4845393 6.34546845 -8 9 C-10.75078884 9.91692961 -12.35948913 10.10886083 -15.1875 10.0625 C-17.0746875 10.0315625 -17.0746875 10.0315625 -19 10 C-19 9.34 -19 8.68 -19 8 C-17.35 8 -15.7 8 -14 8 C-14 7.01 -14 6.02 -14 5 C-12.6696875 4.87625 -12.6696875 4.87625 -11.3125 4.75 C-6.7021123 3.70613863 -4.65462825 0 0 0 Z " fill="#86B537" transform="translate(46,51)"/>
<path d="M0 0 C0.9075 0.12375 1.815 0.2475 2.75 0.375 C2.75 2.025 2.75 3.675 2.75 5.375 C1.43 5.375 0.11 5.375 -1.25 5.375 C-1.58 6.695 -1.91 8.015 -2.25 9.375 C-2.91 9.375 -3.57 9.375 -4.25 9.375 C-4.58 10.695 -4.91 12.015 -5.25 13.375 C-6.5 10.25 -6.5 10.25 -7.25 6.375 C-5.42060002 2.18262506 -4.65763458 0.53741937 0 0 Z " fill="#73B903" transform="translate(20.25,26.625)"/>
<path d="M0 0 C-0.66 0 -1.32 0 -2 0 C-2 0.99 -2 1.98 -2 3 C-4.43859694 4.74185496 -6.62319267 5.88872408 -9.5 6.73828125 C-12.85796227 8.43300283 -13.41359212 10.18768349 -14.8125 13.625 C-15.44091797 15.12933594 -15.44091797 15.12933594 -16.08203125 16.6640625 C-16.38496094 17.43492188 -16.68789063 18.20578125 -17 19 C-18.0662628 15.8153343 -18.04185251 14.20145054 -16.5625 11.1875 C-13.36550309 5.19733736 -7.16984116 -2.15095235 0 0 Z " fill="#C0D6B0" transform="translate(34,5)"/>
<path d="M0 0 C0.66 0.33 1.32 0.66 2 1 C2.59765625 3.1796875 2.59765625 3.1796875 3.0625 5.875 C3.56270702 8.7108844 4.08689283 11.26067849 5 14 C2.36 14 -0.28 14 -3 14 C-3.33 14.66 -3.66 15.32 -4 16 C-4.66 16.33 -5.32 16.66 -6 17 C-6.1875 14.625 -6.1875 14.625 -6 12 C-3 10 -3 10 1 10 C0.67 9.01 0.34 8.02 0 7 C-0.03954234 4.66700175 -0.04401732 2.33291811 0 0 Z " fill="#69AB03" transform="translate(23,34)"/>
<path d="M0 0 C2.375 0.625 2.375 0.625 5 2 C6.45505179 5.04238103 7.15446097 7.0217472 6.625 10.375 C6.41875 10.91125 6.2125 11.4475 6 12 C5.34 11.67 4.68 11.34 4 11 C4 10.01 4 9.02 4 8 C3.01 8 2.02 8 1 8 C0.67 8.66 0.34 9.32 0 10 C0 6.7 0 3.4 0 0 Z " fill="#587501" transform="translate(7,27)"/>
<path d="M0 0 C1.65 1.65 3.3 3.3 5 5 C5 3.68 5 2.36 5 1 C8.36720387 2.39332574 9.9859524 3.9789286 12 7 C8.49835238 7.89577032 6.61870251 8.26716699 3.25 6.8125 C0.97263411 4.97795525 0.02568864 3.70408823 -1 1 C-0.67 0.67 -0.34 0.34 0 0 Z " fill="#302D30" transform="translate(27,43)"/>
<path d="M0 0 C1 3 1 3 0.0625 5.125 C-3.05918061 7.96289147 -5.84181206 7.72733194 -10 8 C-10.33 7.01 -10.66 6.02 -11 5 C-9.9275 4.54625 -8.855 4.0925 -7.75 3.625 C-5.11937683 2.49911463 -2.53999604 1.32079794 0 0 Z " fill="#9EC759" transform="translate(51,42)"/>
<path d="M0 0 C1.32 0 2.64 0 4 0 C4.66 4.29 5.32 8.58 6 13 C2 11 2 11 0.75 9.3125 C-0.27095909 6.16454282 -0.12632947 3.28456632 0 0 Z " fill="#30332E" transform="translate(19,32)"/>
<path d="M0 0 C1.32 0 2.64 0 4 0 C5.90919353 2.61630224 6.97544426 4.92633278 8 8 C11.00847418 9.22520264 11.00847418 9.22520264 14 10 C14 10.66 14 11.32 14 12 C9.25793287 11.58158231 6.15881739 9.43112923 3 6 C1.125 2.6875 1.125 2.6875 0 0 Z " fill="#2A3124" transform="translate(13,48)"/>
<path d="M0 0 C0.66 0.66 1.32 1.32 2 2 C1.34 2 0.68 2 0 2 C-0.33 5.3 -0.66 8.6 -1 12 C-1.99 12 -2.98 12 -4 12 C-4 13.98 -4 15.96 -4 18 C-4.33 18 -4.66 18 -5 18 C-5.18451025 8.58997722 -5.18451025 8.58997722 -4 4 C-3.34 4 -2.68 4 -2 4 C-1.34 2.68 -0.68 1.36 0 0 Z " fill="#6A9F00" transform="translate(42,24)"/>
<path d="M0 0 C0.721875 0.185625 1.44375 0.37125 2.1875 0.5625 C5.12826973 1.01995307 7.14103058 0.73516357 10 0 C9.67 0.99 9.34 1.98 9 3 C8.01 3 7.02 3 6 3 C6 4.65 6 6.3 6 8 C2.57701423 6.85900474 1.85241234 5.99914379 0 3 C0 2.01 0 1.02 0 0 Z " fill="#9EC859" transform="translate(18,49)"/>
<path d="M0 0 C1.485 0.99 1.485 0.99 3 2 C3.5177665 7.43654822 3.5177665 7.43654822 3 10 C1.4765625 11.75390625 1.4765625 11.75390625 0 13 C-0.19551338 11.39679026 -0.38111983 9.79237014 -0.5625 8.1875 C-0.71912109 6.84751953 -0.71912109 6.84751953 -0.87890625 5.48046875 C-1 3 -1 3 0 0 Z " fill="#9BCC49" transform="translate(13,20)"/>
<path d="M0 0 C0.99 0 1.98 0 3 0 C3 0.66 3 1.32 3 2 C3.639375 2.2475 4.27875 2.495 4.9375 2.75 C7 4 7 4 7.75 6.125 C7.8325 6.74375 7.915 7.3625 8 8 C5.6875 7.9375 5.6875 7.9375 3 7 C1.1875 3.4375 1.1875 3.4375 0 0 Z " fill="#528005" transform="translate(8,40)"/>
<path d="M0 0 C1.4540625 0.0309375 1.4540625 0.0309375 2.9375 0.0625 C2.9375 1.7125 2.9375 3.3625 2.9375 5.0625 C1.2875 5.0625 -0.3625 5.0625 -2.0625 5.0625 C-2.7225 3.7425 -3.3825 2.4225 -4.0625 1.0625 C-3.0625 0.0625 -3.0625 0.0625 0 0 Z " fill="#6EA000" transform="translate(20.0625,26.9375)"/>
<path d="M0 0 C1.32 0 2.64 0 4 0 C3.34 4.29 2.68 8.58 2 13 C1.67 13 1.34 13 1 13 C1 10.36 1 7.72 1 5 C0.01 4.67 -0.98 4.34 -2 4 C-1.34 2.68 -0.68 1.36 0 0 Z " fill="#D8E0D2" transform="translate(22,21)"/>
<path d="M0 0 C0.66 0 1.32 0 2 0 C2 1.32 2 2.64 2 4 C2.66 4 3.32 4 4 4 C4 5.32 4 6.64 4 8 C3.01 8 2.02 8 1 8 C1 9.65 1 11.3 1 13 C0.67 13 0.34 13 0 13 C0 8.71 0 4.42 0 0 Z " fill="#578F00" transform="translate(51,24)"/>
<path d="M0 0 C1.32 0 2.64 0 4 0 C4.33 1.65 4.66 3.3 5 5 C4.34 5 3.68 5 3 5 C2.67 5.99 2.34 6.98 2 8 C1.01 7.34 0.02 6.68 -1 6 C-0.67 4.02 -0.34 2.04 0 0 Z " fill="#9BC15B" transform="translate(32,2)"/>
<path d="M0 0 C0 0.66 0 1.32 0 2 C-1.75 3.5078125 -1.75 3.5078125 -4 5.125 C-4.7425 5.66382813 -5.485 6.20265625 -6.25 6.7578125 C-6.8275 7.16773438 -7.405 7.57765625 -8 8 C-8.33 7.01 -8.66 6.02 -9 5 C-8.34 5 -7.68 5 -7 5 C-7 4.01 -7 3.02 -7 2 C-4 0 -4 0 0 0 Z " fill="#60A602" transform="translate(43,14)"/>
<path d="M0 0 C1.65 0 3.3 0 5 0 C5.33 0.66 5.66 1.32 6 2 C5.34 2 4.68 2 4 2 C4.33 2.66 4.66 3.32 5 4 C7.31 4 9.62 4 12 4 C11.01 5.485 11.01 5.485 10 7 C3.51020408 6.51020408 3.51020408 6.51020408 1.0625 4.0625 C0 2 0 2 0 0 Z " fill="#71A31C" transform="translate(36,45)"/>
<path d="M0 0 C1.875 0.125 1.875 0.125 4 1 C5.40666215 4.01427603 6.14845728 6.05977053 5.625 9.375 C5.41875 9.91125 5.2125 10.4475 5 11 C4.34 10.67 3.68 10.34 3 10 C3.061875 9.236875 3.12375 8.47375 3.1875 7.6875 C2.96666486 4.52219632 2.30301466 4.01513783 0 2 C0 1.34 0 0.68 0 0 Z " fill="#4C9301" transform="translate(8,28)"/>
<path d="M0 0 C0.99 0.33 1.98 0.66 3 1 C2.67 1.99 2.34 2.98 2 4 C2.66 4.66 3.32 5.32 4 6 C1.69 6.33 -0.62 6.66 -3 7 C-3 3 -3 3 -1.5 1.25 C-1.005 0.8375 -0.51 0.425 0 0 Z " fill="#92C01C" transform="translate(19,21)"/>
<path d="M0 0 C0.125 2.375 0.125 2.375 0 5 C-0.66 5.66 -1.32 6.32 -2 7 C-4.125 6.625 -4.125 6.625 -6 6 C-6 5.34 -6 4.68 -6 4 C-1.41176471 0 -1.41176471 0 0 0 Z " fill="#80BD1F" transform="translate(28,13)"/>
<path d="M0 0 C0.99 0.33 1.98 0.66 3 1 C2.375 2.875 2.375 2.875 1 5 C-2.19201574 6.35830457 -4.52710626 7 -8 7 C-6 5 -6 5 -4 4.0625 C-1.67868591 3.03213141 -1.67868591 3.03213141 0 0 Z " fill="#7AC300" transform="translate(49,39)"/>
<path d="M0 0 C2.97 0 5.94 0 9 0 C9 0.66 9 1.32 9 2 C6.36 2.33 3.72 2.66 1 3 C0.67 2.01 0.34 1.02 0 0 Z " fill="#ACCC90" transform="translate(40,47)"/>
<path d="M0 0 C0.33 1.98 0.66 3.96 1 6 C0.34 6 -0.32 6 -1 6 C-1 5.01 -1 4.02 -1 3 C-1.66 3 -2.32 3 -3 3 C-3.33 4.32 -3.66 5.64 -4 7 C-4.33 7 -4.66 7 -5 7 C-5 5.02 -5 3.04 -5 1 C-3 0 -3 0 0 0 Z " fill="#6CA300" transform="translate(48,26)"/>
<path d="M0 0 C4.875 2.625 4.875 2.625 6 6 C4.35 5.67 2.7 5.34 1 5 C0.67 3.35 0.34 1.7 0 0 Z " fill="#70AF00" transform="translate(29,36)"/>
<path d="M0 0 C0.98120464 3.05263664 0.98120464 4.94736336 0 8 C-1.32 8 -2.64 8 -4 8 C-3.34 6.02 -2.68 4.04 -2 2 C-1.34 2 -0.68 2 0 2 C0 1.34 0 0.68 0 0 Z " fill="#6FB202" transform="translate(36,28)"/>
<path d="M0 0 C0.99 0.33 1.98 0.66 3 1 C1.70700306 3.88437779 0.34058637 5.87219421 -2 8 C-2.20086443 4.28400809 -2.1519437 3.22791555 0 0 Z " fill="#6BAD02" transform="translate(20,7)"/>
<path d="M0 0 C4.875 2.75 4.875 2.75 6 5 C4.35 5.66 2.7 6.32 1 7 C0.67 4.69 0.34 2.38 0 0 Z " fill="#96C53D" transform="translate(39,3)"/>
<path d="M0 0 C3.36720387 1.39332574 4.9859524 2.9789286 7 6 C4.0625 5.25 4.0625 5.25 1 4 C0.125 1.875 0.125 1.875 0 0 Z " fill="#282627" transform="translate(32,44)"/>
<path d="M0 0 C2.50037734 2.17424117 3.43628586 3.73045798 4 7 C3.01 7 2.02 7 1 7 C1 6.34 1 5.68 1 5 C0.34 4.67 -0.32 4.34 -1 4 C-0.67 2.68 -0.34 1.36 0 0 Z " fill="#65A506" transform="translate(47,10)"/>
<path d="M0 0 C0.66 1.32 1.32 2.64 2 4 C1.01 4 0.02 4 -1 4 C-1 5.98 -1 7.96 -1 10 C-1.33 10 -1.66 10 -2 10 C-2 7.03 -2 4.06 -2 1 C-1.34 0.67 -0.68 0.34 0 0 Z " fill="#70AC04" transform="translate(39,32)"/>
<path d="M0 0 C0.33 0.66 0.66 1.32 1 2 C1.99 2 2.98 2 4 2 C4.33 3.65 4.66 5.3 5 7 C2.525 6.01 2.525 6.01 0 5 C0 3.35 0 1.7 0 0 Z " fill="#6EB202" transform="translate(8,23)"/>
</svg>
