<?xml version="1.0" encoding="UTF-8"?>
<svg version="1.1" xmlns="http://www.w3.org/2000/svg" width="62" height="62">
<path d="M0 0 C3.73099562 3.3918142 6.18210827 7.18988085 8.75 11.5 C9.678125 12.9540625 9.678125 12.9540625 10.625 14.4375 C13.32531853 21.78836712 11.94032182 28.71427183 9.07421875 35.82421875 C5.38301471 43.28284638 0.37997317 49.00751743 -7.25 52.5 C-12.58319518 54.12314636 -17.81078822 53.19323287 -23.25 52.5 C-24.3225 52.4175 -25.395 52.335 -26.5 52.25 C-31.62829307 50.85137462 -34.36652892 47.88410469 -37.125 43.5625 C-39.94792743 35.73993 -39.14001234 26.80751535 -36.1875 19.1875 C-31.54339867 9.44526508 -25.99643119 3.2709803 -16.25 -1.5 C-10.76634208 -3.32788597 -5.18811037 -2.39451248 0 0 Z M-5.25 21.5 C-4.25 23.5 -4.25 23.5 -4.25 23.5 Z M-3.25 21.5 C-2.25 23.5 -2.25 23.5 -2.25 23.5 Z M6.75 21.5 C6.42 22.16 6.09 22.82 5.75 23.5 C6.74 23.17 7.73 22.84 8.75 22.5 C8.09 22.17 7.43 21.84 6.75 21.5 Z M4.75 23.5 C4.75 24.49 4.75 25.48 4.75 26.5 C5.74 25.84 6.73 25.18 7.75 24.5 C6.76 24.17 5.77 23.84 4.75 23.5 Z M-8.25 24.5 C-8.58 25.16 -8.91 25.82 -9.25 26.5 C-8.59 26.5 -7.93 26.5 -7.25 26.5 C-7.58 25.84 -7.91 25.18 -8.25 24.5 Z M-6.25 24.5 C-5.92 25.16 -5.59 25.82 -5.25 26.5 C-4.92 25.84 -4.59 25.18 -4.25 24.5 C-4.91 24.5 -5.57 24.5 -6.25 24.5 Z M0.75 25.5 C0.75 28.5 0.75 28.5 0.75 28.5 Z M-28.25 28.5 C-27.25 31.5 -27.25 31.5 -27.25 31.5 Z M-34.25 31.5 C-33.25 34.5 -33.25 34.5 -33.25 34.5 Z M-30.25 35.5 C-30.25 36.49 -30.25 37.48 -30.25 38.5 C-29.59 38.17 -28.93 37.84 -28.25 37.5 C-28.91 36.84 -29.57 36.18 -30.25 35.5 Z M-7.25 40.5 C-7.25 41.82 -7.25 43.14 -7.25 44.5 C-6.59 44.17 -5.93 43.84 -5.25 43.5 C-5.25 42.51 -5.25 41.52 -5.25 40.5 C-5.91 40.5 -6.57 40.5 -7.25 40.5 Z M-23.25 45.5 C-22.25 47.5 -22.25 47.5 -22.25 47.5 Z " fill="#EE39FB" transform="translate(45.25,5.5)"/>
<path d="M0 0 C3.83154933 1.27718311 4.13271795 2.49884616 6 6 C6.556875 6.886875 7.11375 7.77375 7.6875 8.6875 C10.62812262 16.10907138 9.23008515 23.06508887 6.33984375 30.31640625 C3.45042754 36.10366263 -0.48658946 41.49442597 -6 45 C-9.25 45.1875 -9.25 45.1875 -12 45 C-12 43.02 -12 41.04 -12 39 C-11.37351562 38.97421875 -10.74703125 38.9484375 -10.1015625 38.921875 C-8.87566406 38.83679687 -8.87566406 38.83679687 -7.625 38.75 C-6.81289063 38.70359375 -6.00078125 38.6571875 -5.1640625 38.609375 C-2.86395316 38.22112561 -2.86395316 38.22112561 -1.87109375 36.2265625 C-1.58363281 35.49179687 -1.29617187 34.75703125 -1 34 C-0.14809267 32.54034569 0.70615909 31.08205767 1.5625 29.625 C3.55546069 26.0787023 4.68358875 23.11334619 5 19 C4.34 18.67 3.68 18.34 3 18 C3.99 18 4.98 18 6 18 C5.5504955 16.68445015 5.09010284 15.37261642 4.625 14.0625 C4.36976562 13.33160156 4.11453125 12.60070312 3.8515625 11.84765625 C3.14728587 9.81317884 3.14728587 9.81317884 1 9 C-1.11620405 9.02308617 -1.11620405 9.02308617 -3.4375 9.3125 C-4.61119141 9.43044922 -4.61119141 9.43044922 -5.80859375 9.55078125 C-8.27847118 9.91386649 -8.27847118 9.91386649 -11 12 C-11.73606499 15.56769552 -11.73606499 15.56769552 -12 19 C-12.66 17.68 -13.32 16.36 -14 15 C-16.25885324 18.25397508 -16.25885324 18.25397508 -17 22 C-16.01 22 -15.02 22 -14 22 C-14.66 23.32 -15.32 24.64 -16 26 C-18.33333333 26 -20.66666667 26 -23 26 C-23 25.01 -23 24.02 -23 23 C-23.66 23.33 -24.32 23.66 -25 24 C-26.32 23.01 -27.64 22.02 -29 21 C-28.67 19.68 -28.34 18.36 -28 17 C-26.35 16.67 -24.7 16.34 -23 16 C-23 16.66 -23 17.32 -23 18 C-21.9790625 16.9790625 -21.9790625 16.9790625 -20.9375 15.9375 C-20.47988281 15.48632812 -20.02226562 15.03515625 -19.55078125 14.5703125 C-18.45953575 13.46532335 -17.39655699 12.33205595 -16.35546875 11.1796875 C-12.43588752 6.95043281 -9.69973164 5.04688948 -4 4 C-4.33 3.34 -4.66 2.68 -5 2 C-2.525 2.495 -2.525 2.495 0 3 C0 2.01 0 1.02 0 0 Z " fill="#DE52EF" transform="translate(48,11)"/>
<path d="M0 0 C0.88945313 0.07863281 1.77890625 0.15726562 2.6953125 0.23828125 C3.41460937 0.38652344 4.13390625 0.53476562 4.875 0.6875 C5.37 1.6775 5.37 1.6775 5.875 2.6875 C5.06675781 2.79707031 4.25851563 2.90664062 3.42578125 3.01953125 C1.82283203 3.25736328 1.82283203 3.25736328 0.1875 3.5 C-0.86824219 3.65082031 -1.92398438 3.80164063 -3.01171875 3.95703125 C-6.22693753 4.71141759 -8.40600323 5.84624987 -11.125 7.6875 C-10.3 7.543125 -9.475 7.39875 -8.625 7.25 C-4.79813722 6.63496848 -0.97283293 6.15189363 2.875 5.6875 C0.93175935 6.68281838 -0.99002793 7.63378946 -3.01953125 8.44140625 C-10.81760363 11.72898463 -15.15015433 18.43925201 -19.125 25.6875 C-20.125 22.6875 -20.125 22.6875 -19.1875 20.5 C-18.836875 19.901875 -18.48625 19.30375 -18.125 18.6875 C-18.785 18.6875 -19.445 18.6875 -20.125 18.6875 C-24.85873979 28.00085782 -25.5920539 35.41812269 -24.125 45.6875 C-25.115 44.3675 -26.105 43.0475 -27.125 41.6875 C-27.785 42.6775 -28.445 43.6675 -29.125 44.6875 C-32.05046174 35.91111477 -30.56656702 26.62794506 -26.6640625 18.44140625 C-21.12706558 8.53383561 -12.32112899 -1.20337557 0 0 Z " fill="#F834FD" transform="translate(37.125,3.3125)"/>
<path d="M0 0 C2.3125 1.125 2.3125 1.125 4 3 C4.75 6.1875 4.75 6.1875 5 9 C3.02 9.99 3.02 9.99 1 11 C1.99 11.33 2.98 11.66 4 12 C3.54704353 19.2473035 0.54395036 23.89956049 -4 29.4375 C-6.33101253 31.25860354 -8.08640998 31.67626778 -11 32 C-8.25 25.25 -8.25 25.25 -6 23 C-6 21.68 -6 20.36 -6 19 C-6.99 19 -7.98 19 -9 19 C-8.34 15.7 -7.68 12.4 -7 9 C-7.33 9.66 -7.66 10.32 -8 11 C-10.5625 11.625 -10.5625 11.625 -13 12 C-13 9.36 -13 6.72 -13 4 C-5.4301676 -0.84469274 -5.4301676 -0.84469274 0 0 Z M-3 12 C-3 15 -3 15 -3 15 Z " fill="#2D282F" transform="translate(49,19)"/>
<path d="M0 0 C0.99 0.33 1.98 0.66 3 1 C2.071875 2.670625 2.071875 2.670625 1.125 4.375 C-1.25489246 9.08414891 -2.19295163 13.81789994 -3 19 C-1.18585949 17.18585949 -1.3649546 14.45040946 -1 12 C-0.34 12.33 0.32 12.66 1 13 C1.35824773 16.33306429 1.44460769 19.6463745 1.55859375 22.99609375 C1.70425781 23.98738281 1.84992187 24.97867188 2 26 C2.99 26.66 3.98 27.32 5 28 C5.66 27.67 6.32 27.34 7 27 C7.45375 28.11375 7.9075 29.2275 8.375 30.375 C9.84360299 33.02813314 10.60283195 33.85495273 13.4921875 34.91015625 C15.99602577 35.38893552 18.46245001 35.76271002 21 36 C21 36.33 21 36.66 21 37 C15.47204904 38.30925154 10.55192537 37.70759833 5 37 C3.9275 36.9175 2.855 36.835 1.75 36.75 C-2.14747175 35.68705316 -4.08037957 33.78382413 -7 31 C-8.4783226 28.04335481 -8.06032783 25.25770263 -8 22 C-7.01 23.32 -6.02 24.64 -5 26 C-4.89234095 22.07737994 -4.89234095 22.07737994 -5.5625 18.5625 C-6.2333633 13.09975595 -4.94905358 9.51741072 -2.4375 4.6875 C-1.98246094 3.80449219 -1.52742187 2.92148437 -1.05859375 2.01171875 C-0.53458984 1.01591797 -0.53458984 1.01591797 0 0 Z M-2 20 C-2 20.99 -2 21.98 -2 23 C-1.34 22.67 -0.68 22.34 0 22 C-0.66 21.34 -1.32 20.68 -2 20 Z M5 30 C6 32 6 32 6 32 Z " fill="#73257F" transform="translate(17,21)"/>
<path d="M0 0 C1 3 1 3 0 6 C-0.495 5.835 -0.99 5.67 -1.5 5.5 C-6.695788 4.4608424 -10.46422792 4.0721377 -15 6.8125 C-17.3373846 8.87501834 -17.3373846 8.87501834 -17 12 C-18.32 11.67 -19.64 11.34 -21 11 C-23.97 14.465 -23.97 14.465 -27 18 C-27.33 17.34 -27.66 16.68 -28 16 C-24.14729638 10.6654873 -20.7858359 6.24571282 -15 3 C-15.99 3.33 -16.98 3.66 -18 4 C-19.66621616 4.03874921 -21.33394172 4.0450286 -23 4 C-18.40919229 -1.10089745 -13.82805182 -2.40133508 -7.15625 -3.03515625 C-4.04265363 -2.98439109 -2.31736717 -2.02769627 0 0 Z " fill="#F93CFE" transform="translate(48,8)"/>
<path d="M0 0 C0 0.33 0 0.66 0 1 C-0.61488281 1.12117188 -1.22976562 1.24234375 -1.86328125 1.3671875 C-2.67152344 1.53476562 -3.47976562 1.70234375 -4.3125 1.875 C-5.51326172 2.11863281 -5.51326172 2.11863281 -6.73828125 2.3671875 C-9.25301118 2.94478999 -9.25301118 2.94478999 -12 5 C-12.73606499 8.56769552 -12.73606499 8.56769552 -13 12 C-13.66 10.68 -14.32 9.36 -15 8 C-17.25885324 11.25397508 -17.25885324 11.25397508 -18 15 C-17.01 15 -16.02 15 -15 15 C-15.66 16.32 -16.32 17.64 -17 19 C-19.33333333 19 -21.66666667 19 -24 19 C-24 18.01 -24 17.02 -24 16 C-24.66 16.33 -25.32 16.66 -26 17 C-27.32 16.01 -28.64 15.02 -30 14 C-29.67 12.68 -29.34 11.36 -29 10 C-27.35 9.67 -25.7 9.34 -24 9 C-24 9.66 -24 10.32 -24 11 C-23.278125 10.278125 -22.55625 9.55625 -21.8125 8.8125 C-20.4203125 7.4203125 -20.4203125 7.4203125 -19 6 C-18.21625 5.0925 -17.4325 4.185 -16.625 3.25 C-11.83232526 -0.85800692 -6.05363275 -0.12354353 0 0 Z " fill="#E565F4" transform="translate(49,18)"/>
<path d="M0 0 C0 0.66 0 1.32 0 2 C2.97 2.495 2.97 2.495 6 3 C6 3.33 6 3.66 6 4 C4.948125 3.98646484 4.948125 3.98646484 3.875 3.97265625 C-2.90658857 4.18458089 -6.51120357 5.38294034 -11.3671875 10.140625 C-13.16672102 12.11607042 -13.16672102 12.11607042 -15.0625 15 C-15.701875 15.66 -16.34125 16.32 -17 17 C-20.75 16.8125 -20.75 16.8125 -24 16 C-22.5666944 10.98343041 -20.09436048 8.98547118 -16 6 C-15.34 6 -14.68 6 -14 6 C-13.67 5.01 -13.34 4.02 -13 3 C-8.72300487 -0.49935965 -5.27904928 -0.26842623 0 0 Z " fill="#F935FF" transform="translate(44,12)"/>
<path d="M0 0 C0.66 0.33 1.32 0.66 2 1 C1.67 1.99 1.34 2.98 1 4 C4.93420682 5.31333218 4.93420682 5.31333218 9 6 C10.8354799 4.66621425 10.8354799 4.66621425 12 3 C12.99 3.33 13.98 3.66 15 4 C13.4375 5.20442708 11.875 6.40885417 10.3125 7.61328125 C8.65629795 9.04491137 8.65629795 9.04491137 9 12 C8.34 12 7.68 12 7 12 C7 12.66 7 13.32 7 14 C7.99 14.33 8.98 14.66 10 15 C7.07459065 15.29254094 4.8485973 15.51100791 2 15 C-1.27005194 11.72994806 -2.2179004 9.13499415 -2.25 4.625 C-2.1675 3.42875 -2.085 2.2325 -2 1 C-1.34 0.67 -0.68 0.34 0 0 Z " fill="#D736F1" transform="translate(29,38)"/>
<path d="M0 0 C3.83154933 1.27718311 4.13271795 2.49884616 6 6 C6.556875 6.99 7.11375 7.98 7.6875 9 C8.99530815 11.98927577 9.28325774 13.78974558 9 17 C8.34 17 7.68 17 7 17 C7 17.99 7 18.98 7 20 C5.68 19.34 4.36 18.68 3 18 C3.99 18 4.98 18 6 18 C5.5504955 16.68445015 5.09010284 15.37261642 4.625 14.0625 C4.36976562 13.33160156 4.11453125 12.60070312 3.8515625 11.84765625 C3.14728587 9.81317884 3.14728587 9.81317884 1 9 C1 8.34 1 7.68 1 7 C-2.96 7.66 -6.92 8.32 -11 9 C-11 8.01 -11 7.02 -11 6 C-8.69 5.34 -6.38 4.68 -4 4 C-4.33 3.34 -4.66 2.68 -5 2 C-3.35 2.33 -1.7 2.66 0 3 C0 2.01 0 1.02 0 0 Z " fill="#DA72EB" transform="translate(48,11)"/>
<path d="M0 0 C0.66 0.33 1.32 0.66 2 1 C2.35824773 4.33306429 2.44460769 7.6463745 2.55859375 10.99609375 C2.70425781 11.98738281 2.84992187 12.97867188 3 14 C3.99 14.66 4.98 15.32 6 16 C6.66 15.67 7.32 15.34 8 15 C8.45375 16.11375 8.9075 17.2275 9.375 18.375 C10.84360299 21.02813314 11.60283195 21.85495273 14.4921875 22.91015625 C16.99602577 23.38893552 19.46245001 23.76271002 22 24 C22 24.33 22 24.66 22 25 C17.24495171 26.13215435 14.49538658 25.88806236 10 24 C9.33484375 23.7421875 8.6696875 23.484375 7.984375 23.21875 C2.49558914 20.86060497 0.4943763 18.40448199 -2 13 C-1.34 12.01 -0.68 11.02 0 10 C-0.32248257 8.66400079 -0.65772583 7.33106622 -1 6 C-0.72949547 3.99053778 -0.40632091 1.98645776 0 0 Z M6 18 C7 20 7 20 7 20 Z " fill="#332935" transform="translate(16,33)"/>
<path d="M0 0 C0.88945313 0.07863281 1.77890625 0.15726562 2.6953125 0.23828125 C3.77425781 0.46064453 3.77425781 0.46064453 4.875 0.6875 C5.205 1.3475 5.535 2.0075 5.875 2.6875 C5.06675781 2.79707031 4.25851563 2.90664062 3.42578125 3.01953125 C1.82283203 3.25736328 1.82283203 3.25736328 0.1875 3.5 C-0.86824219 3.65082031 -1.92398438 3.80164063 -3.01171875 3.95703125 C-6.22693753 4.71141759 -8.40600323 5.84624987 -11.125 7.6875 C-10.3 7.543125 -9.475 7.39875 -8.625 7.25 C-4.79813722 6.63496848 -0.97283293 6.15189363 2.875 5.6875 C0.89034229 6.69311897 -1.09374997 7.67352294 -3.125 8.58203125 C-7.63735881 10.65313344 -10.16137322 12.58401677 -13.125 16.6875 C-13.785 16.6875 -14.445 16.6875 -15.125 16.6875 C-13.97326645 14.21949953 -13.07716435 12.63966435 -11.125 10.6875 C-12.445 10.0275 -13.765 9.3675 -15.125 8.6875 C-13.125 5.6875 -13.125 5.6875 -10.125 4.6875 C-9.795 4.0275 -9.465 3.3675 -9.125 2.6875 C-7.20737183 -1.14775635 -3.73493926 -0.3647827 0 0 Z " fill="#DD93ED" transform="translate(37.125,3.3125)"/>
<path d="M0 0 C1.32 0 2.64 0 4 0 C2.65786771 5.00249306 0.72037475 9.34709318 -3 13 C-5.38948828 14.12533992 -7.36659035 14.53528065 -10 15 C-7.51373626 8.28708791 -7.51373626 8.28708791 -4.875 6.8125 C-4.25625 6.544375 -3.6375 6.27625 -3 6 C-2.33820153 4.01954441 -2.33820153 4.01954441 -2 2 C-1.34 1.34 -0.68 0.68 0 0 Z " fill="#212021" transform="translate(48,36)"/>
<path d="M0 0 C0.66 0.33 1.32 0.66 2 1 C2 1.99 2 2.98 2 4 C2.66 4 3.32 4 4 4 C3.979375 5.134375 3.95875 6.26875 3.9375 7.4375 C3.9293241 12.00782755 4.41308664 16.47238262 5 21 C4.01 19.68 3.02 18.36 2 17 C1.34 17.99 0.68 18.98 0 20 C-1.16698437 16.49904689 -1.13268287 13.6877768 -1.125 10 C-1.12886719 8.14375 -1.12886719 8.14375 -1.1328125 6.25 C-1 3 -1 3 0 0 Z " fill="#DD23F6" transform="translate(8,28)"/>
<path d="M0 0 C4.875 1.75 4.875 1.75 6 4 C6.66 4 7.32 4 8 4 C8 5.65 8 7.3 8 9 C6.35 9 4.7 9 3 9 C2.01 10.98 1.02 12.96 0 15 C-0.99 14.67 -1.98 14.34 -3 14 C-3 13.01 -3 12.02 -3 11 C-3.66 11 -4.32 11 -5 11 C-4.34 8.69 -3.68 6.38 -3 4 C-2.34 4 -1.68 4 -1 4 C-0.67 2.68 -0.34 1.36 0 0 Z M1 4 C1 7 1 7 1 7 Z " fill="#502E59" transform="translate(45,27)"/>
<path d="M0 0 C1 3 1 3 1.375 5.125 C1.684375 6.053125 1.684375 6.053125 2 7 C2.99 7.33 3.98 7.66 5 8 C5.66 7.67 6.32 7.34 7 7 C6.34 8.32 5.68 9.64 5 11 C4.34 11 3.68 11 3 11 C3.33 11.99 3.66 12.98 4 14 C1.03 13.505 1.03 13.505 -2 13 C-2 11.02 -2 9.04 -2 7 C-2.66 9.64 -3.32 12.28 -4 15 C-4.33 15 -4.66 15 -5 15 C-5.19294408 10.17639811 -4.75747614 6.50353262 -3 2 C-2.34 2 -1.68 2 -1 2 C-0.67 1.34 -0.34 0.68 0 0 Z " fill="#B92AE6" transform="translate(19,26)"/>
<path d="M0 0 C0.33 0 0.66 0 1 0 C0.938125 0.78375 0.87625 1.5675 0.8125 2.375 C0.874375 3.24125 0.93625 4.1075 1 5 C1.99 5.66 2.98 6.32 4 7 C4.33 6.34 4.66 5.68 5 5 C5.66 5.33 6.32 5.66 7 6 C6.1875 8.9375 6.1875 8.9375 5 12 C2 13 2 13 -0.1875 12.0625 C-0.785625 11.711875 -1.38375 11.36125 -2 11 C-1.67 10.34 -1.34 9.68 -1 9 C-1.99 8.67 -2.98 8.34 -4 8 C-2.87548273 5.0280615 -1.77706209 2.66559313 0 0 Z " fill="#4D2958" transform="translate(34,25)"/>
<path d="M0 0 C0.99 0.33 1.98 0.66 3 1 C2.071875 2.670625 2.071875 2.670625 1.125 4.375 C-1.74747078 10.11994156 -4.01477131 16.68028567 -2 23 C-2.66 23.33 -3.32 23.66 -4 24 C-4.36708396 22.60750796 -4.71806563 21.21076667 -5.0625 19.8125 C-5.25972656 19.03519531 -5.45695313 18.25789063 -5.66015625 17.45703125 C-6.33606841 12.57026402 -4.66287573 8.96706871 -2.4375 4.6875 C-1.98246094 3.80449219 -1.52742187 2.92148437 -1.05859375 2.01171875 C-0.53458984 1.01591797 -0.53458984 1.01591797 0 0 Z " fill="#462E4F" transform="translate(17,21)"/>
<path d="M0 0 C0 0.33 0 0.66 0 1 C-0.61488281 1.10957031 -1.22976562 1.21914062 -1.86328125 1.33203125 C-2.67152344 1.49058594 -3.47976562 1.64914062 -4.3125 1.8125 C-5.11300781 1.96332031 -5.91351563 2.11414063 -6.73828125 2.26953125 C-9.28415813 3.09177473 -10.40402551 3.86686904 -12 6 C-12 6.99 -12 7.98 -12 9 C-13.32 8.67 -14.64 8.34 -16 8 C-17.98 10.31 -19.96 12.62 -22 15 C-22.33 14.34 -22.66 13.68 -23 13 C-16.26968819 3.68110673 -11.87129634 -0.84459816 0 0 Z " fill="#D11EEA" transform="translate(43,11)"/>
<path d="M0 0 C0.33 0.66 0.66 1.32 1 2 C-0.21484375 4.8203125 -0.21484375 4.8203125 -1.9375 8.125 C-2.50339844 9.22070312 -3.06929687 10.31640625 -3.65234375 11.4453125 C-4.09707031 12.28835937 -4.54179687 13.13140625 -5 14 C-5.66 14 -6.32 14 -7 14 C-7.81163525 10.23696384 -8.32502401 7.81256003 -6.875 4.1875 C-4.74711947 1.70497271 -3.10331257 0.92260644 0 0 Z " fill="#F24BFF" transform="translate(17,18)"/>
<path d="M0 0 C2 0.1875 2 0.1875 4 1 C4.66 1.99 5.32 2.98 6 4 C5.01 5.32 4.02 6.64 3 8 C0.69 7.67 -1.62 7.34 -4 7 C-2.92598892 4.08482708 -2.22189824 2.22189824 0 0 Z " fill="#FD30FF" transform="translate(24,21)"/>
<path d="M0 0 C0.99 0.33 1.98 0.66 3 1 C2.67 2.32 2.34 3.64 2 5 C2.99 5 3.98 5 5 5 C4.34 6.32 3.68 7.64 3 9 C0.66666667 9 -1.66666667 9 -4 9 C-2.25 2.25 -2.25 2.25 0 0 Z " fill="#F156FC" transform="translate(29,28)"/>
<path d="M0 0 C1.98 0 3.96 0 6 0 C5.45773019 3.79588866 3.79872437 5.47211993 1 8 C-1.46800047 6.84826645 -3.04783565 5.95216435 -5 4 C-2 2 -2 2 0 2 C0 1.34 0 0.68 0 0 Z " fill="#DC3EFF" transform="translate(30,16)"/>
<path d="M0 0 C0.66 0.33 1.32 0.66 2 1 C2.75 3.9375 2.75 3.9375 3 7 C1.04783565 8.95216435 -0.53199953 9.84826645 -3 11 C-4.10493755 7.68518735 -4.05432279 5.33868884 -3 2 C-2.01 1.34 -1.02 0.68 0 0 Z " fill="#352938" transform="translate(40,20)"/>
<path d="M0 0 C-2.81762207 4.2264331 -6.2040867 4.80929049 -11 6 C-14.0625 6.1875 -14.0625 6.1875 -16 6 C-11.11991845 0.57768717 -7.20927272 -0.28271658 0 0 Z " fill="#E82DF7" transform="translate(41,6)"/>
<path d="M0 0 C0.88945313 0.07863281 1.77890625 0.15726562 2.6953125 0.23828125 C3.77425781 0.46064453 3.77425781 0.46064453 4.875 0.6875 C5.205 1.3475 5.535 2.0075 5.875 2.6875 C0.925 3.3475 -4.025 4.0075 -9.125 4.6875 C-8.795 3.3675 -8.465 2.0475 -8.125 0.6875 C-4.98117176 -0.36044275 -3.25296561 -0.31770947 0 0 Z " fill="#E268F1" transform="translate(37.125,3.3125)"/>
<path d="M0 0 C0.66 0 1.32 0 2 0 C1.85831863 1.43791516 1.71148957 2.8753237 1.5625 4.3125 C1.48128906 5.11300781 1.40007813 5.91351563 1.31640625 6.73828125 C1 9 1 9 0 12 C-1.65 12.66 -3.3 13.32 -5 14 C-4.01 10.37 -3.02 6.74 -2 3 C-1.34 3 -0.68 3 0 3 C0 2.01 0 1.02 0 0 Z " fill="#EC63FF" transform="translate(55,28)"/>
<path d="M0 0 C1.65 0 3.3 0 5 0 C5 0.66 5 1.32 5 2 C5.99 2.33 6.98 2.66 8 3 C8.35412344 4.32796291 8.68521554 5.66216607 9 7 C10.47890069 8.73026102 10.47890069 8.73026102 12 10 C11.34 10.66 10.68 11.32 10 12 C6 6.25 6 6.25 6 4 C5.01 4.33 4.02 4.66 3 5 C1.5 3.625 1.5 3.625 0 2 C0 1.34 0 0.68 0 0 Z " fill="#E721F3" transform="translate(18,44)"/>
<path d="M0 0 C0.66 0.66 1.32 1.32 2 2 C1.75 4.5625 1.75 4.5625 1 7 C0.01 7.495 0.01 7.495 -1 8 C-2.32 7.01 -3.64 6.02 -5 5 C-4.67 3.68 -4.34 2.36 -4 1 C-2.125 0.375 -2.125 0.375 0 0 Z " fill="#ED6BFE" transform="translate(24,27)"/>
<path d="M0 0 C2.02184857 2.57326181 3.54139397 5.08278794 5 8 C7.17986832 11.52931061 9.06292575 12.72311105 13 14 C11.26171875 14.67578125 11.26171875 14.67578125 9 15 C6.89453125 13.85546875 6.89453125 13.85546875 4.8125 12.1875 C4.11769531 11.64480469 3.42289063 11.10210937 2.70703125 10.54296875 C1 9 1 9 0 7 C-0.04022391 4.6670134 -0.04320247 2.33293334 0 0 Z " fill="#352844" transform="translate(9,43)"/>
<path d="M0 0 C0.8353125 0.556875 0.8353125 0.556875 1.6875 1.125 C0.6975 1.62 0.6975 1.62 -0.3125 2.125 C-0.3125 2.785 -0.3125 3.445 -0.3125 4.125 C0.6775 4.455 1.6675 4.785 2.6875 5.125 C0.0475 5.125 -2.5925 5.125 -5.3125 5.125 C-5.9725 3.805 -6.6325 2.485 -7.3125 1.125 C-2.88173077 -1.09038462 -2.88173077 -1.09038462 0 0 Z " fill="#9C15A8" transform="translate(36.3125,47.875)"/>
<path d="M0 0 C0.33 0.99 0.66 1.98 1 3 C0.3503125 3.8353125 0.3503125 3.8353125 -0.3125 4.6875 C-2.69387816 7.95087007 -3.14708683 11.06347766 -4 15 C-4.33 15 -4.66 15 -5 15 C-5.19294408 10.17639811 -4.75747614 6.50353262 -3 2 C-2.34 2 -1.68 2 -1 2 C-0.67 1.34 -0.34 0.68 0 0 Z " fill="#C12FD0" transform="translate(19,26)"/>
<path d="M0 0 C0.144375 0.598125 0.28875 1.19625 0.4375 1.8125 C0.8872439 3.56150404 1.42892341 5.28677023 2 7 C-0.31 7.66 -2.62 8.32 -5 9 C-2.25 2.25 -2.25 2.25 0 0 Z " fill="#332B36" transform="translate(43,42)"/>
<path d="M0 0 C1.65 0.99 3.3 1.98 5 3 C3.3125 5.0625 3.3125 5.0625 1 7 C-1.75 6.75 -1.75 6.75 -4 6 C-3.67 5.01 -3.34 4.02 -3 3 C-0.525 3.99 -0.525 3.99 2 5 C1.34 3.35 0.68 1.7 0 0 Z " fill="#EC47FF" transform="translate(21,35)"/>
<path d="M0 0 C0.33 0.66 0.66 1.32 1 2 C0.06553465 4.03144641 -0.93224776 6.03533587 -2 8 C-2.33 7.34 -2.66 6.68 -3 6 C-5.02463255 5.34786708 -5.02463255 5.34786708 -7 5 C-4.78065836 1.67098753 -3.65316671 1.24976756 0 0 Z " fill="#E859FC" transform="translate(17,18)"/>
<path d="M0 0 C0.66 0.66 1.32 1.32 2 2 C1.625 5.125 1.625 5.125 1 8 C0.01 8 -0.98 8 -2 8 C-2.33 8.99 -2.66 9.98 -3 11 C-3.66 11 -4.32 11 -5 11 C-4.34 8.69 -3.68 6.38 -3 4 C-2.34 4 -1.68 4 -1 4 C-0.67 2.68 -0.34 1.36 0 0 Z " fill="#752A7F" transform="translate(45,27)"/>
<path d="M0 0 C0.66 0.33 1.32 0.66 2 1 C2 1.99 2 2.98 2 4 C2.66 4 3.32 4 4 4 C3.67 5.32 3.34 6.64 3 8 C1.68 7.67 0.36 7.34 -1 7 C-0.67 4.69 -0.34 2.38 0 0 Z " fill="#9D3AD7" transform="translate(8,28)"/>
<path d="M0 0 C0.66 0.33 1.32 0.66 2 1 C3.1577506 4.47325181 3.06866652 7.36067448 3 11 C2.34 11 1.68 11 1 11 C0.63890458 9.35567294 0.28629924 7.7094792 -0.0625 6.0625 C-0.25972656 5.14597656 -0.45695312 4.22945312 -0.66015625 3.28515625 C-0.77230469 2.53105469 -0.88445313 1.77695312 -1 1 C-0.67 0.67 -0.34 0.34 0 0 Z " fill="#0E110E" transform="translate(42,20)"/>
<path d="M0 0 C1.65 0.33 3.3 0.66 5 1 C2.525 5.455 2.525 5.455 0 10 C-1 7 -1 7 -0.0625 4.8125 C0.288125 4.214375 0.63875 3.61625 1 3 C0.34 2.34 -0.32 1.68 -1 1 C-0.67 0.67 -0.34 0.34 0 0 Z " fill="#DC47F9" transform="translate(18,19)"/>
<path d="M0 0 C0.66 0.33 1.32 0.66 2 1 C0.68 1.99 -0.64 2.98 -2 4 C-1.34 2.68 -0.68 1.36 0 0 Z M-4 5 C-3.67 5 -3.34 5 -3 5 C-3 6.65 -3 8.3 -3 10 C-4.32 9.67 -5.64 9.34 -7 9 C-6.02727325 7.64664105 -5.0260734 6.31337396 -4 5 Z " fill="#E52FEA" transform="translate(19,10)"/>
<path d="M0 0 C0.66 0 1.32 0 2 0 C1.979375 0.9075 1.95875 1.815 1.9375 2.75 C1.9889755 5.42672588 2.2215017 7.46988052 3 10 C2.01 10.495 2.01 10.495 1 11 C0.63743142 9.5437328 0.28520207 8.08488815 -0.0625 6.625 C-0.35833984 5.40683594 -0.35833984 5.40683594 -0.66015625 4.1640625 C-1 2 -1 2 0 0 Z " fill="#322933" transform="translate(12,34)"/>
<path d="M0 0 C1.98 0 3.96 0 6 0 C4.8125 2 4.8125 2 3 4 C0.3125 4.25 0.3125 4.25 -2 4 C-1.34 2.68 -0.68 1.36 0 0 Z " fill="#F066F7" transform="translate(21,13)"/>
<path d="M0 0 C0.66 0 1.32 0 2 0 C2 0.99 2 1.98 2 3 C3.32 3.33 4.64 3.66 6 4 C2.7 4 -0.6 4 -4 4 C-4.33 3.34 -4.66 2.68 -5 2 C-3.35 2 -1.7 2 0 2 C0 1.34 0 0.68 0 0 Z " fill="#E42CF7" transform="translate(34,53)"/>
<path d="M0 0 C1.98 0 3.96 0 6 0 C6 0.99 6 1.98 6 3 C4.35 3.66 2.7 4.32 1 5 C0.67 3.35 0.34 1.7 0 0 Z " fill="#212220" transform="translate(43,19)"/>
<path d="M0 0 C1.98 0 3.96 0 6 0 C5.6875 1.875 5.6875 1.875 5 4 C4.01 4.66 3.02 5.32 2 6 C1.34 4.02 0.68 2.04 0 0 Z " fill="#D243FB" transform="translate(30,16)"/>
<path d="M0 0 C0.495 0.309375 0.99 0.61875 1.5 0.9375 C4.97986781 2.41644382 8.24028509 2.62402851 12 3 C12 3.33 12 3.66 12 4 C7.31034294 5.11658501 4.46236469 4.80619523 0 3 C0 2.01 0 1.02 0 0 Z " fill="#46264B" transform="translate(26,54)"/>
<path d="M0 0 C0.70576172 0.54140625 0.70576172 0.54140625 1.42578125 1.09375 C2.04839844 1.5578125 2.67101562 2.021875 3.3125 2.5 C3.92738281 2.9640625 4.54226562 3.428125 5.17578125 3.90625 C7.07433005 5.25711283 7.07433005 5.25711283 10 5 C10 5.66 10 6.32 10 7 C7.8125 7.3125 7.8125 7.3125 5 7 C2.1875 4.625 2.1875 4.625 0 2 C0 1.34 0 0.68 0 0 Z " fill="#20211F" transform="translate(16,48)"/>
<path d="M0 0 C1.65 0 3.3 0 5 0 C5.33 1.32 5.66 2.64 6 4 C5.01 4.33 4.02 4.66 3 5 C1.5 3.625 1.5 3.625 0 2 C0 1.34 0 0.68 0 0 Z " fill="#9926C2" transform="translate(18,44)"/>
<path d="M0 0 C0.66 1.32 1.32 2.64 2 4 C1.34 4.66 0.68 5.32 0 6 C-2.625 5.625 -2.625 5.625 -5 5 C-3.35 3.35 -1.7 1.7 0 0 Z " fill="#E686F3" transform="translate(37,39)"/>
<path d="M0 0 C0.66 0.33 1.32 0.66 2 1 C1.67 1.99 1.34 2.98 1 4 C1.99 4.33 2.98 4.66 4 5 C2.35 5.33 0.7 5.66 -1 6 C-1.33 4.35 -1.66 2.7 -2 1 C-1.34 0.67 -0.68 0.34 0 0 Z " fill="#B314CE" transform="translate(29,38)"/>
<path d="M0 0 C1.32 0 2.64 0 4 0 C4 1.65 4 3.3 4 5 C2.35 4.67 0.7 4.34 -1 4 C-0.67 2.68 -0.34 1.36 0 0 Z " fill="#3D2B45" transform="translate(49,31)"/>
<path d="M0 0 C0.66 0.66 1.32 1.32 2 2 C-0.31 4.64 -2.62 7.28 -5 10 C-5.33 9.34 -5.66 8.68 -6 8 C-4.02 5.36 -2.04 2.72 0 0 Z " fill="#84249A" transform="translate(26,16)"/>
<path d="M0 0 C4.33168317 -0.26252625 7.8803623 0.70756464 12 2 C12 2.33 12 2.66 12 3 C7.545 3.495 7.545 3.495 3 4 C3 3.01 3 2.02 3 1 C2.01 0.67 1.02 0.34 0 0 Z " fill="#F554FD" transform="translate(38,13)"/>
<path d="M0 0 C1.98 0.495 1.98 0.495 4 1 C4 1.99 4 2.98 4 4 C2.35 4 0.7 4 -1 4 C-0.67 2.68 -0.34 1.36 0 0 Z " fill="#F344FF" transform="translate(31,38)"/>
<path d="M0 0 C1.32 0.33 2.64 0.66 4 1 C3.67 1.99 3.34 2.98 3 4 C0.4375 5.1875 0.4375 5.1875 -2 6 C-1.34 4.02 -0.68 2.04 0 0 Z " fill="#E754FF" transform="translate(52,36)"/>
<path d="M0 0 C0.33 0 0.66 0 1 0 C1 1.65 1 3.3 1 5 C-0.32 5.33 -1.64 5.66 -3 6 C-3 4.35 -3 2.7 -3 1 C-2.01 1.33 -1.02 1.66 0 2 C0 1.34 0 0.68 0 0 Z " fill="#EE4EFF" transform="translate(10,34)"/>
<path d="M0 0 C0 0.66 0 1.32 0 2 C-2.31 2.66 -4.62 3.32 -7 4 C-7 3.01 -7 2.02 -7 1 C-4.53721199 -0.231394 -2.7204945 -0.07159196 0 0 Z " fill="#DCA2E8" transform="translate(44,16)"/>
<path d="M0 0 C0.99 0.33 1.98 0.66 3 1 C0.03 3.475 0.03 3.475 -3 6 C-3.66 5.67 -4.32 5.34 -5 5 C-3.35 3.35 -1.7 1.7 0 0 Z " fill="#B01CCF" transform="translate(41,41)"/>
<path d="M0 0 C1.0625 1.875 1.0625 1.875 2 4 C1.67 4.66 1.34 5.32 1 6 C-0.32 6 -1.64 6 -3 6 C-1.125 1.125 -1.125 1.125 0 0 Z " fill="#F337FB" transform="translate(23,22)"/>
<path d="" fill="#323032" transform="translate(0,0)"/>
<path d="" fill="#2D2B2E" transform="translate(0,0)"/>
</svg>
