<?xml version="1.0" encoding="UTF-8"?>
<svg version="1.1" xmlns="http://www.w3.org/2000/svg" width="62" height="62">
<path d="M0 0 C0.804375 0.99 1.60875 1.98 2.4375 3 C4.74241586 6.29637607 4.74241586 6.29637607 8.4375 6.8125 C13.77180573 8.59060191 15.54434422 12.11101258 18 17 C20.67072945 23.51617825 22.58962666 30.5717543 20.125 37.4375 C19 39 19 39 17 40 C16.64538376 41.96049862 16.64538376 41.96049862 16.5625 44.25 C16.20980793 48.20518964 15.49984611 50.80019699 13 54 C10.23749964 55.38125018 8.05268901 55.19079306 5 55 C4.34 54.34 3.68 53.68 3 53 C0.75657388 53.0243083 0.75657388 53.0243083 -1.75 53.3125 C-6.37685011 53.34573887 -6.37685011 53.34573887 -8.78125 52.01171875 C-16.7831296 43.77574161 -21.19243049 26.80212302 -21.4375 15.6875 C-21.47746094 14.68074219 -21.51742188 13.67398437 -21.55859375 12.63671875 C-21 10 -21 10 -18.66015625 8.14453125 C-16 7 -16 7 -13 7 C-12.896875 6.236875 -12.79375 5.47375 -12.6875 4.6875 C-11.94405866 1.78132022 -11.34113037 0.80086951 -9 -1 C-5.09415641 -2.30194786 -3.71345493 -1.70818927 0 0 Z " fill="#1B9A8D" transform="translate(34,4)"/>
<path d="M0 0 C3.1875 1.4375 3.1875 1.4375 5.625 4.4375 C7.92991586 7.73387607 7.92991586 7.73387607 11.625 8.25 C16.95930573 10.02810191 18.73184422 13.54851258 21.1875 18.4375 C23.85822945 24.95367825 25.77712666 32.0092543 23.3125 38.875 C22.1875 40.4375 22.1875 40.4375 20.1875 41.4375 C19.78020772 43.75906597 19.44311323 46.0943787 19.1875 48.4375 C12.57262962 42.73502553 11.16869294 34.1325403 9.08203125 26.02148438 C8.12569238 22.42455379 7.14604085 19.35467593 5.46875 16.00390625 C4.83453125 14.73353516 4.83453125 14.73353516 4.1875 13.4375 C4.5175 12.7775 4.8475 12.1175 5.1875 11.4375 C6.5075 11.7675 7.8275 12.0975 9.1875 12.4375 C8.5275 11.65375 7.8675 10.87 7.1875 10.0625 C5.1875 7.4375 5.1875 7.4375 5.1875 5.4375 C4.28 5.499375 3.3725 5.56125 2.4375 5.625 C-1.10488832 5.42063144 -2.33903696 4.91096304 -4.8125 2.4375 C-4.8125 1.7775 -4.8125 1.1175 -4.8125 0.4375 C-2.8125 -0.5625 -2.8125 -0.5625 0 0 Z " fill="#42B39F" transform="translate(30.8125,2.5625)"/>
<path d="M0 0 C2.64425104 0.35256681 3.75110855 0.71355205 5.52734375 2.7578125 C11.48360325 12.75640878 14.72810379 23.64051895 17 35 C17.33 35.99 17.66 36.98 18 38 C19.485 38.495 19.485 38.495 21 39 C22.03321725 42.28750944 22.20141923 43.57797876 20.6875 46.75 C19 49 19 49 17 50 C14 50.1875 14 50.1875 11 50 C10.34 49.34 9.68 48.68 9 48 C6.55987051 47.75712511 6.55987051 47.75712511 3.875 47.875 C2.96492188 47.89304688 2.05484375 47.91109375 1.1171875 47.9296875 C0.41851563 47.95289063 -0.28015625 47.97609375 -1 48 C-0.34 47.34 0.32 46.68 1 46 C1.46006346 43.79749008 1.46006346 43.79749008 1.625 41.375 C1.73714844 40.14910156 1.73714844 40.14910156 1.8515625 38.8984375 C1.90054687 38.27195313 1.94953125 37.64546875 2 37 C3.98567708 36.77213542 5.97135417 36.54427083 7.95703125 36.31640625 C10.19396393 36.02829265 10.19396393 36.02829265 13 35 C11.42959359 21.9914096 7.18531441 10.93846832 0 0 Z " fill="#1E201D" transform="translate(28,9)"/>
<path d="M0 0 C1.84375 0.23046875 1.84375 0.23046875 4 1 C11.06207939 10.79247636 13.75399089 23.18747609 13 35 C12.34 35 11.68 35 11 35 C5.21650359 27.67974597 2.38887166 18.70723387 0.51953125 9.6796875 C0.34808594 9.12539063 0.17664063 8.57109375 0 8 C-0.66 7.67 -1.32 7.34 -2 7 C-1.34 4.69 -0.68 2.38 0 0 Z " fill="#0E110D" transform="translate(15,18)"/>
<path d="M0 0 C0.33 0.66 0.66 1.32 1 2 C3.69939685 3.01977214 6.26508761 3.89192465 9.125 4.3125 C12.05846624 5.38810429 13.27926033 7.48034548 15 10 C15 10.66 15 11.32 15 12 C14.01 12.33 13.02 12.66 12 13 C11.21625 12.175 10.4325 11.35 9.625 10.5 C7.36278736 7.77011494 7.36278736 7.77011494 5 8 C5.66 8.886875 6.32 9.77375 7 10.6875 C8.98860067 13.98111986 9.43735074 15.28251873 9 19 C8.236875 18.979375 7.47375 18.95875 6.6875 18.9375 C3.89814214 18.87057159 3.89814214 18.87057159 1 20 C-1.125 19.375 -1.125 19.375 -3 18 C-4.0625 15.6875 -4.0625 15.6875 -4 13 C-1.5625 10.1875 -1.5625 10.1875 1 8 C-0.65 8 -2.3 8 -4 8 C-3.50168276 4.31245243 -2.89932357 2.39509338 0 0 Z " fill="#1D9D81" transform="translate(25,3)"/>
<path d="M0 0 C3.39219986 5.08829979 3.28356341 10.04516845 3 16 C1.99124788 18.81009519 1.66604583 19.66697708 -1 21 C-1.40729228 23.32156597 -1.74438677 25.6568787 -2 28 C-8.78475989 22.15106906 -9.70430978 14.42960814 -11 6 C-10.34 6 -9.68 6 -9 6 C-9 6.99 -9 7.98 -9 9 C-7.68 9 -6.36 9 -5 9 C-5 8.34 -5 7.68 -5 7 C-4.01 7 -3.02 7 -2 7 C-2 6.34 -2 5.68 -2 5 C-1.34 4.67 -0.68 4.34 0 4 C0 2.68 0 1.36 0 0 Z " fill="#41B293" transform="translate(52,23)"/>
<path d="M0 0 C-0.8125 1.9375 -0.8125 1.9375 -2 4 C-2.99 4.33 -3.98 4.66 -5 5 C-4.37466625 7.52363988 -4.37466625 7.52363988 -3 10 C0.53609457 11.33798173 3.41113423 11.06696009 7 10 C7.66 9.34 8.32 8.68 9 8 C9.70365602 9.5552912 10.38729378 11.11964827 11.0625 12.6875 C11.44535156 13.55761719 11.82820313 14.42773438 12.22265625 15.32421875 C13.0935848 18.32213864 12.85006226 20.03280153 12 23 C9.82145293 19.7321794 8.50239966 16.61941735 7 13 C3.62537285 13.54723683 1.91765 14.0549 -1 16 C-1.66 16.33 -2.32 16.66 -3 17 C-4.65 14.03 -6.3 11.06 -8 8 C-8.99 8 -9.98 8 -11 8 C-11.33 9.98 -11.66 11.96 -12 14 C-12.33 14 -12.66 14 -13 14 C-13.28331067 10.29177816 -13.42034243 6.70119701 -13 3 C-9.41320785 -0.92305392 -4.97709837 -0.2530728 0 0 Z " fill="#2EAA96" transform="translate(26,11)"/>
<path d="M0 0 C3.3 0.33 6.6 0.66 10 1 C10.66 3.31 11.32 5.62 12 8 C11.01 8.33 10.02 8.66 9 9 C9 9.66 9 10.32 9 11 C8.01 11 7.02 11 6 11 C6 11.66 6 12.32 6 13 C4.68 13 3.36 13 2 13 C-1.62870159 4.738041 -1.62870159 4.738041 0 0 Z " fill="#E8EFED" transform="translate(41,19)"/>
<path d="M0 0 C3.43161564 3.91900453 4.57400767 8.45598888 6.01757812 13.3359375 C7.40489985 17.78973411 9.3502982 21.18577958 12 25 C12 25.66 12 26.32 12 27 C12.66 27 13.32 27 14 27 C14.495 22.545 14.495 22.545 15 18 C16.051875 18.0825 17.10375 18.165 18.1875 18.25 C22.53763669 17.96474513 23.9315153 16.97550031 27 14 C27 15.32 27 16.64 27 18 C23.77208445 20.1519437 22.71599191 20.20086443 19 20 C18.67 20.66 18.34 21.32 18 22 C18 21.34 18 20.68 18 20 C17.34 20 16.68 20 16 20 C16 22.97 16 25.94 16 29 C14.68 29.33 13.36 29.66 12 30 C7.99299412 25.62500379 5.72308573 21.6941936 3.75 16.125 C3.49476562 15.45597656 3.23953125 14.78695312 2.9765625 14.09765625 C1.25515817 9.39550442 0.46829684 4.98401632 0 0 Z " fill="#1A9A7A" transform="translate(14,26)"/>
<path d="M0 0 C2.64425104 0.35256681 3.75110855 0.71355205 5.52734375 2.7578125 C11.40772597 12.62903583 15.3931979 23.47076014 16 35 C11.61487125 38.31558515 8.62541841 39.54996653 3 40 C2.505 38.515 2.505 38.515 2 37 C3.98567708 36.77213542 5.97135417 36.54427083 7.95703125 36.31640625 C10.19396393 36.02829265 10.19396393 36.02829265 13 35 C11.42959359 21.9914096 7.18531441 10.93846832 0 0 Z " fill="#303737" transform="translate(28,9)"/>
<path d="M0 0 C0.66 0.33 1.32 0.66 2 1 C2 1.66 2 2.32 2 3 C2.99 3.33 3.98 3.66 5 4 C6.03321725 7.28750944 6.20141923 8.57797876 4.6875 11.75 C3 14 3 14 1 15 C-1.9375 15.3125 -1.9375 15.3125 -5 15 C-6.875 13 -6.875 13 -8 11 C-7.195625 10.87625 -6.39125 10.7525 -5.5625 10.625 C-4.716875 10.41875 -3.87125 10.2125 -3 10 C-2.67 9.34 -2.34 8.68 -2 8 C-1.34 8 -0.68 8 0 8 C0.33 8.66 0.66 9.32 1 10 C1.5534764 7.92446352 2 6.15634036 2 4 C1.34 4 0.68 4 0 4 C0 2.68 0 1.36 0 0 Z " fill="#2C2E2F" transform="translate(44,44)"/>
<path d="M0 0 C1.65 1.65 3.3 3.3 5 5 C4.67 5.99 4.34 6.98 4 8 C-2.24 9.2 -2.24 9.2 -5.375 8.375 C-7.60797683 6.48555807 -7.70101879 4.84032146 -8 2 C-5.36 2 -2.72 2 0 2 C0 1.34 0 0.68 0 0 Z " fill="#107B59" transform="translate(29,14)"/>
<path d="M0 0 C-0.33 0.99 -0.66 1.98 -1 3 C-1.78375 3.0825 -2.5675 3.165 -3.375 3.25 C-6.14749104 3.72806339 -6.14749104 3.72806339 -7.3125 6.0625 C-7.539375 6.701875 -7.76625 7.34125 -8 8 C-8.99 8 -9.98 8 -11 8 C-11.33 9.98 -11.66 11.96 -12 14 C-12.33 14 -12.66 14 -13 14 C-13.28331067 10.29177816 -13.42034243 6.70119701 -13 3 C-9.41320785 -0.92305392 -4.97709837 -0.2530728 0 0 Z " fill="#40AF93" transform="translate(26,11)"/>
<path d="M0 0 C3.25195722 4.87793583 3.11325659 9.22391379 3 15 C-0.3 14.67 -3.6 14.34 -7 14 C-6 12 -6 12 -4.5 10.0625 C-2.82441763 7.97699265 -2.82441763 7.97699265 -2 5 C-1.34 4.67 -0.68 4.34 0 4 C0 2.68 0 1.36 0 0 Z " fill="#40AA96" transform="translate(52,23)"/>
<path d="M0 0 C2.64 0 5.28 0 8 0 C8 2 8 4 8 6 C5.60236815 8.39763185 4.66726502 8.34280586 1.375 8.625 C0.55773437 8.69976562 -0.25953125 8.77453125 -1.1015625 8.8515625 C-1.72804688 8.90054688 -2.35453125 8.94953125 -3 9 C-2.34 8.34 -1.68 7.68 -1 7 C-0.59952556 4.67724823 -0.2602896 2.34260643 0 0 Z " fill="#232522" transform="translate(30,48)"/>
<path d="M0 0 C0.99 0 1.98 0 3 0 C4.25664978 2.90600261 5 4.79604584 5 8 C-1.15234375 8.87890625 -1.15234375 8.87890625 -3 9 C-4 8 -4 8 -4.0625 5.4375 C-4.041875 4.633125 -4.02125 3.82875 -4 3 C-3.01 2.67 -2.02 2.34 -1 2 C-0.67 1.34 -0.34 0.68 0 0 Z " fill="#D4D9D7" transform="translate(32,26)"/>
<path d="M0 0 C1.8125 0.125 1.8125 0.125 4 1 C5.75 4.0625 5.75 4.0625 7 7 C6.38125 7.268125 5.7625 7.53625 5.125 7.8125 C2.7004767 8.95556848 2.7004767 8.95556848 1 12 C0.87625 11.360625 0.7525 10.72125 0.625 10.0625 C0.41875 9.381875 0.2125 8.70125 0 8 C-0.66 7.67 -1.32 7.34 -2 7 C-1.34 4.69 -0.68 2.38 0 0 Z " fill="#2F3838" transform="translate(15,18)"/>
<path d="M0 0 C2.45823172 3.68734758 3.01242616 6.69699971 4 11 C1.00667261 10.0022242 0.05233685 9.2477975 -2 7 C-1.34 8.32 -0.68 9.64 0 11 C-1.32 11 -2.64 11 -4 11 C-4.33 9.35 -4.66 7.7 -5 6 C-3.68 5.34 -2.36 4.68 -1 4 C-1.66 3.34 -2.32 2.68 -3 2 C-2.01 1.34 -1.02 0.68 0 0 Z " fill="#161B17" transform="translate(23,29)"/>
<path d="M0 0 C0 0.66 0 1.32 0 2 C-0.66 2 -1.32 2 -2 2 C-2.33 2.99 -2.66 3.98 -3 5 C-3.66 5 -4.32 5 -5 5 C-5.33 6.65 -5.66 8.3 -6 10 C-8.6855594 7.3144406 -9.06049974 4.62378672 -10 1 C-3.71428571 -1.42857143 -3.71428571 -1.42857143 0 0 Z " fill="#52BCA2" transform="translate(34,24)"/>
<path d="M0 0 C0 0.99 0 1.98 0 3 C-0.66 3 -1.32 3 -2 3 C-1.525625 3.86625 -1.05125 4.7325 -0.5625 5.625 C0.93234895 8.85387374 1.58218313 11.49033826 2 15 C1.34 15 0.68 15 0 15 C-2.95047835 10.38987758 -4.5497272 7.63470383 -4 2 C-2.68 1.34 -1.36 0.68 0 0 Z " fill="#2BAA9A" transform="translate(23,13)"/>
<path d="M0 0 C0.33 1.65 0.66 3.3 1 5 C-0.98 5.33 -2.96 5.66 -5 6 C-5.33 4.02 -5.66 2.04 -6 0 C-3.50907189 -1.24546405 -2.58919267 -0.7767578 0 0 Z " fill="#FAFCF9" transform="translate(52,23)"/>
<path d="M0 0 C2.97 0 5.94 0 9 0 C8.67 1.32 8.34 2.64 8 4 C5.6875 4.625 5.6875 4.625 3 5 C2.01 4.34 1.02 3.68 0 3 C0 2.01 0 1.02 0 0 Z " fill="#72C3A8" transform="translate(29,40)"/>
<path d="M0 0 C1.65 1.65 3.3 3.3 5 5 C4.67 5.99 4.34 6.98 4 8 C3.67 7.67 3.34 7.34 3 7 C1.65252916 6.76924918 0.29622435 6.58846937 -1.0625 6.4375 C-2.361875 6.293125 -3.66125 6.14875 -5 6 C-4.360625 5.566875 -3.72125 5.13375 -3.0625 4.6875 C-0.73253997 3.08760823 -0.73253997 3.08760823 0 0 Z " fill="#334150" transform="translate(29,14)"/>
<path d="M0 0 C1.32 1.32 2.64 2.64 4 4 C3.01 5.485 3.01 5.485 2 7 C1.01 7 0.02 7 -1 7 C-1 6.34 -1 5.68 -1 5 C-1.66 5 -2.32 5 -3 5 C-3 4.01 -3 3.02 -3 2 C-2.01 1.34 -1.02 0.68 0 0 Z " fill="#1AA38D" transform="translate(45,12)"/>
<path d="M0 0 C0.33 0 0.66 0 1 0 C1 3.96 1 7.92 1 12 C0.34 12 -0.32 12 -1 12 C-1.99 10.02 -2.98 8.04 -4 6 C-3.01 5.34 -2.02 4.68 -1 4 C-0.27617533 1.94074861 -0.27617533 1.94074861 0 0 Z " fill="#2E403B" transform="translate(27,41)"/>
<path d="M0 0 C0.33 0.99 0.66 1.98 1 3 C0.01 3.66 -0.98 4.32 -2 5 C-2 4.34 -2 3.68 -2 3 C-4.64 3.33 -7.28 3.66 -10 4 C-10.33 3.34 -10.66 2.68 -11 2 C-10.28972656 1.93941406 -9.57945313 1.87882812 -8.84765625 1.81640625 C-7.46900391 1.69072266 -7.46900391 1.69072266 -6.0625 1.5625 C-5.14597656 1.48128906 -4.22945312 1.40007813 -3.28515625 1.31640625 C-1.03840268 1.23955024 -1.03840268 1.23955024 0 0 Z " fill="#2AA991" transform="translate(40,37)"/>
<path d="M0 0 C0 1.65 0 3.3 0 5 C-2.97 4.505 -2.97 4.505 -6 4 C-6 2.68 -6 1.36 -6 0 C-2.25 -1.125 -2.25 -1.125 0 0 Z " fill="#68C0A3" transform="translate(55,33)"/>
<path d="M0 0 C0.33 1.32 0.66 2.64 1 4 C-2.22791555 6.1519437 -3.28400809 6.20086443 -7 6 C-7.33 6.66 -7.66 7.32 -8 8 C-8.33 7.01 -8.66 6.02 -9 5 C-8.071875 4.731875 -7.14375 4.46375 -6.1875 4.1875 C-3.23759634 3.08851629 -1.94384814 2.37581439 0 0 Z " fill="#199F7D" transform="translate(40,40)"/>
<path d="M0 0 C2.97 0 5.94 0 9 0 C8.67 0.99 8.34 1.98 8 3 C5.69 3.33 3.38 3.66 1 4 C0.67 2.68 0.34 1.36 0 0 Z " fill="#77C3A6" transform="translate(28,34)"/>
<path d="M0 0 C1.32 0.66 2.64 1.32 4 2 C3.67 2.99 3.34 3.98 3 5 C1.02 5.33 -0.96 5.66 -3 6 C-2 4 -1 2 0 0 Z " fill="#17A372" transform="translate(26,11)"/>
<path d="M0 0 C-0.33 0.99 -0.66 1.98 -1 3 C-3.47739354 3.90837763 -5.33579484 4 -8 4 C-8.66 3.01 -9.32 2.02 -10 1 C-6.78548731 -0.60725635 -3.56387464 -0.05748185 0 0 Z " fill="#57BBA3" transform="translate(26,11)"/>
<path d="M0 0 C0.66 0 1.32 0 2 0 C1.67 1.65 1.34 3.3 1 5 C-0.65 5.33 -2.3 5.66 -4 6 C-4.66 5.01 -5.32 4.02 -6 3 C-5.195625 2.87625 -4.39125 2.7525 -3.5625 2.625 C-2.716875 2.41875 -1.87125 2.2125 -1 2 C-0.67 1.34 -0.34 0.68 0 0 Z " fill="#0E7A39" transform="translate(42,52)"/>
<path d="M0 0 C-0.8125 2.4375 -0.8125 2.4375 -2 5 C-2.99 5.33 -3.98 5.66 -5 6 C-5.33 4.02 -5.66 2.04 -6 0 C-3 -1 -3 -1 0 0 Z " fill="#264D32" transform="translate(55,38)"/>
<path d="M0 0 C3.3 0.33 6.6 0.66 10 1 C10.33 1.99 10.66 2.98 11 4 C8.36 4 5.72 4 3 4 C3 3.34 3 2.68 3 2 C2.01 2 1.02 2 0 2 C-0.33 2.99 -0.66 3.98 -1 5 C-0.67 3.35 -0.34 1.7 0 0 Z " fill="#AFD1C7" transform="translate(41,19)"/>
<path d="M0 0 C1.98 0.66 3.96 1.32 6 2 C6 4.31 6 6.62 6 9 C2.91910327 6.22719294 1.31224548 3.93673644 0 0 Z " fill="#22A47D" transform="translate(44,42)"/>
<path d="M0 0 C4.67692308 1.47692308 4.67692308 1.47692308 6.3125 4.125 C6.539375 4.74375 6.76625 5.3625 7 6 C6.01 6.33 5.02 6.66 4 7 C0 1.125 0 1.125 0 0 Z " fill="#13796F" transform="translate(33,9)"/>
<path d="M0 0 C0.33 0.66 0.66 1.32 1 2 C0.34 2 -0.32 2 -1 2 C-1 2.99 -1 3.98 -1 5 C-0.01 5.33 0.98 5.66 2 6 C1.34 6 0.68 6 0 6 C0 6.66 0 7.32 0 8 C-1.32 8 -2.64 8 -4 8 C-3.50168276 4.31245243 -2.89932357 2.39509338 0 0 Z " fill="#1D7663" transform="translate(25,3)"/>
<path d="M0 0 C0.99 0.33 1.98 0.66 3 1 C3 2.98 3 4.96 3 7 C1.68 6.67 0.36 6.34 -1 6 C-1 3 -1 3 0 0 Z " fill="#161716" transform="translate(38,48)"/>
<path d="M0 0 C0.33 0.66 0.66 1.32 1 2 C0.34 2 -0.32 2 -1 2 C-1.33 2.99 -1.66 3.98 -2 5 C-2.66 5 -3.32 5 -4 5 C-4.33 6.65 -4.66 8.3 -5 10 C-5.33 10 -5.66 10 -6 10 C-6.33 7.69 -6.66 5.38 -7 3 C-4.69 2.01 -2.38 1.02 0 0 Z " fill="#96C8B0" transform="translate(33,24)"/>
<path d="M0 0 C0.99 0.33 1.98 0.66 3 1 C1.6875 3.5 1.6875 3.5 0 6 C-0.99 6 -1.98 6 -3 6 C-3.33 4.68 -3.66 3.36 -4 2 C-2.68 2 -1.36 2 0 2 C0 1.34 0 0.68 0 0 Z " fill="#69BFA7" transform="translate(47,30)"/>
<path d="M0 0 C-3.96 1.98 -3.96 1.98 -8 4 C-8.33 2.68 -8.66 1.36 -9 0 C-5.32431536 -0.91892116 -3.83619425 -0.95904856 0 0 Z " fill="#17A17C" transform="translate(33,22)"/>
<path d="M0 0 C-0.33 0.66 -0.66 1.32 -1 2 C-1.66 2 -2.32 2 -3 2 C-3.33 3.32 -3.66 4.64 -4 6 C-4.66 4.02 -5.32 2.04 -6 0 C-3.50907189 -1.24546405 -2.58919267 -0.7767578 0 0 Z " fill="#5BBEA5" transform="translate(45,12)"/>
<path d="M0 0 C0.639375 0.2475 1.27875 0.495 1.9375 0.75 C2.2675 1.74 2.5975 2.73 2.9375 3.75 C1.125 4.375 1.125 4.375 -1.0625 4.75 C-2.0525 4.09 -3.0425 3.43 -4.0625 2.75 C-4.0625 2.09 -4.0625 1.43 -4.0625 0.75 C-2.0625 -0.25 -2.0625 -0.25 0 0 Z " fill="#56AF98" transform="translate(30.0625,2.25)"/>
<path d="M0 0 C0.33 0.66 0.66 1.32 1 2 C2.98 1.34 4.96 0.68 7 0 C7.33 0.99 7.66 1.98 8 3 C2.25 4.125 2.25 4.125 0 3 C0 2.01 0 1.02 0 0 Z " fill="#35AFA5" transform="translate(43,17)"/>
<path d="M0 0 C2.475 0.99 2.475 0.99 5 2 C5 3.32 5 4.64 5 6 C4.01 6 3.02 6 2 6 C1.34 4.02 0.68 2.04 0 0 Z " fill="#19201A" transform="translate(20,41)"/>
<path d="M0 0 C2.475 0.495 2.475 0.495 5 1 C4.67 2.65 4.34 4.3 4 6 C3.34 6 2.68 6 2 6 C1.34 4.02 0.68 2.04 0 0 Z " fill="#22A797" transform="translate(35,14)"/>
</svg>
