<?xml version="1.0" encoding="UTF-8"?>
<svg version="1.1" xmlns="http://www.w3.org/2000/svg" width="62" height="62">
<path d="M0 0 C6.70270604 4.59212112 12.09193293 11.6668776 13.734375 19.71484375 C14.72473726 27.48850914 13.09924362 33.21964138 8.734375 39.71484375 C2.90064315 45.95558015 -5.89965947 49.16729625 -14.328125 50.02734375 C-22.27379758 49.39673482 -29.76372287 46.60059952 -35.265625 40.71484375 C-41.83573686 32.8586015 -42.68357128 24.5824535 -42.265625 14.71484375 C-41.43269753 8.60098441 -38.91023762 4.35299307 -34.34765625 0.22265625 C-23.1872366 -7.85974897 -11.55719049 -6.55571668 0 0 Z " fill="#3E7DF4" transform="translate(48.265625,8.28515625)"/>
<path d="M0 0 C6.70270604 4.59212112 12.09193293 11.6668776 13.734375 19.71484375 C13.9734589 23.06721583 14.14299606 26.37376563 13.734375 29.71484375 C13.074375 30.37484375 12.414375 31.03484375 11.734375 31.71484375 C10.414375 31.05484375 9.094375 30.39484375 7.734375 29.71484375 C7.239375 30.70484375 7.239375 30.70484375 6.734375 31.71484375 C6.67830078 30.71904297 6.67830078 30.71904297 6.62109375 29.703125 C6.23506146 24.51818156 5.72834188 21.08104545 2.734375 16.71484375 C2.59 15.91046875 2.445625 15.10609375 2.296875 14.27734375 C1.35770418 9.99889892 -0.54256025 6.85445489 -4.23828125 4.41015625 C-6.23666169 3.35837707 -8.11007234 2.39137002 -10.265625 1.71484375 C-11.255625 2.20984375 -11.255625 2.20984375 -12.265625 2.71484375 C-14.30580712 2.84488369 -16.34798583 2.94440596 -18.390625 3.02734375 C-24.35782626 3.42471564 -28.18495796 4.62659516 -33.265625 7.71484375 C-33.265625 8.04484375 -33.265625 8.37484375 -33.265625 8.71484375 C-32.0590625 8.00328125 -32.0590625 8.00328125 -30.828125 7.27734375 C-21.54547965 3.20600807 -14.57846452 5.36107001 -5.265625 8.71484375 C-5.265625 9.37484375 -5.265625 10.03484375 -5.265625 10.71484375 C-4.70875 10.90046875 -4.151875 11.08609375 -3.578125 11.27734375 C0.1909271 13.62026803 2.93083256 17.37281153 4.375 21.58203125 C4.82271424 24.23911796 4.82893811 26.77154222 4.796875 29.46484375 C4.78785156 30.4496875 4.77882812 31.43453125 4.76953125 32.44921875 C4.75792969 33.196875 4.74632812 33.94453125 4.734375 34.71484375 C2.2414943 32.53442221 1.31208587 31.01569196 0.671875 27.77734375 C0.02507308 24.82597029 -0.72882106 22.34936478 -2.265625 19.71484375 C-2.925625 19.71484375 -3.585625 19.71484375 -4.265625 19.71484375 C-4.265625 19.05484375 -4.265625 18.39484375 -4.265625 17.71484375 C-4.94625 17.63234375 -5.626875 17.54984375 -6.328125 17.46484375 C-9.265625 16.71484375 -9.265625 16.71484375 -12.265625 14.65234375 C-18.73297635 10.72929106 -28.1792028 12.11936273 -35.265625 13.71484375 C-36.50737296 15.61496145 -36.50737296 15.61496145 -37.265625 17.71484375 C-38.255625 18.37484375 -39.245625 19.03484375 -40.265625 19.71484375 C-39.935625 18.39484375 -39.605625 17.07484375 -39.265625 15.71484375 C-39.925625 15.71484375 -40.585625 15.71484375 -41.265625 15.71484375 C-41.15092101 9.29142005 -39.67887551 6.11775856 -35.23828125 1.4765625 C-24.54895261 -8.06974882 -11.88868599 -6.74375464 0 0 Z " fill="#5797FE" transform="translate(48.265625,8.28515625)"/>
<path d="M0 0 C5.23590943 2.9481472 9.49156484 6.39918831 12.1015625 11.90234375 C12.9140625 15.33984375 12.9140625 15.33984375 13.1015625 17.90234375 C12.1115625 18.39734375 12.1115625 18.39734375 11.1015625 18.90234375 C9.7815625 15.60234375 8.4615625 12.30234375 7.1015625 8.90234375 C3.29296875 9 3.29296875 9 -0.515625 9.09765625 C-2.8984375 8.90234375 -2.8984375 8.90234375 -4.8984375 6.90234375 C-6.00384676 9.69152524 -6.00384676 9.69152524 -5.8984375 11.90234375 C-4.34084407 12.43767198 -2.77705705 12.95499753 -1.2109375 13.46484375 C-0.34082031 13.75488281 0.52929688 14.04492188 1.42578125 14.34375 C4.34787324 14.95376336 6.24556803 14.67938008 9.1015625 13.90234375 C7.70343243 17.28115809 6.27268459 19.05252253 3.1015625 20.90234375 C-0.1484375 21.58984375 -0.1484375 21.58984375 -2.8984375 21.90234375 C-1.46117879 22.07107853 -0.02361912 22.23725112 1.4140625 22.40234375 C2.61482422 22.5415625 2.61482422 22.5415625 3.83984375 22.68359375 C6.22052805 22.95047838 6.22052805 22.95047838 9.1015625 22.90234375 C10.78955077 21.46484184 10.78955077 21.46484184 12.1015625 19.90234375 C11.5951771 24.33321596 10.39103727 26.85957959 7.1015625 29.90234375 C4.1431627 30.99346459 1.22104214 31.49806793 -1.8984375 31.90234375 C-2.9090625 32.04671875 -3.9196875 32.19109375 -4.9609375 32.33984375 C-9.37694406 31.68214065 -12.37114858 29.54955662 -15.8984375 26.90234375 C-16.51847656 26.44472656 -17.13851563 25.98710938 -17.77734375 25.515625 C-19.50613584 24.05156674 -20.75407413 22.86087869 -21.8984375 20.90234375 C-22.09623207 17.94611686 -21.60535567 15.83100474 -20.8984375 12.90234375 C-22.2184375 12.57234375 -23.5384375 12.24234375 -24.8984375 11.90234375 C-24.36588315 7.37563179 -22.68283878 4.48228825 -19.8984375 0.90234375 C-14.23091591 -2.79606121 -6.11671585 -2.31643821 0 0 Z " fill="#374672" transform="translate(34.8984375,21.09765625)"/>
<path d="M0 0 C6.06155745 0.37884734 10.26464995 2.16024877 15 6 C17.96055556 9.64376069 19.27582287 12.41354486 20 17 C20.495 17.8971875 20.495 17.8971875 21 18.8125 C22.51269059 22.12151067 22.63883225 25.38832248 23 29 C23.639375 29.12375 24.27875 29.2475 24.9375 29.375 C25.9584375 29.684375 25.9584375 29.684375 27 30 C27.495 30.99 27.495 30.99 28 32 C24.23932094 40.27349394 18.6464734 43.97956113 10.40234375 47.16796875 C1.52660985 50.24200342 -5.57929661 48.92458122 -14 45 C-17.61712663 42.68357749 -20.86868702 39.76114056 -23 36 C-22.67 35.01 -22.34 34.02 -22 33 C-18 37.75 -18 37.75 -18 40 C-17.40960937 40.11214844 -16.81921875 40.22429688 -16.2109375 40.33984375 C-13.8108138 41.05648846 -12.57179519 42.01651559 -10.625 43.5625 C-4.94143612 47.32272858 1.4544679 46.41369234 8 46 C8.33 45.01 8.66 44.02 9 43 C9.825 42.54625 10.65 42.0925 11.5 41.625 C14.24852772 40.22066726 14.24852772 40.22066726 14.8125 37.3125 C14.9053125 36.1678125 14.9053125 36.1678125 15 35 C16.98 34.505 16.98 34.505 19 34 C19.41442724 25.51191611 18.98175609 20.15638728 13.9375 13.125 C12.17758772 10.93894789 12.17758772 10.93894789 10 10 C10 9.34 10 8.68 10 8 C9.28328125 7.85949219 8.5665625 7.71898437 7.828125 7.57421875 C6.02052037 7.2072051 4.21750888 6.81623315 2.421875 6.39453125 C-4.88767563 4.8022461 -11.06790939 4.50647912 -17.5625 8.625 C-18.036875 9.07875 -18.51125 9.5325 -19 10 C-19.66 9.67 -20.32 9.34 -21 9 C-14.67737868 2.92569916 -8.5800867 1.75860523 0 1 C0 0.67 0 0.34 0 0 Z " fill="#272933" transform="translate(33,9)"/>
<path d="M0 0 C5.23590943 2.9481472 9.49156484 6.39918831 12.1015625 11.90234375 C12.9140625 15.33984375 12.9140625 15.33984375 13.1015625 17.90234375 C12.1115625 18.39734375 12.1115625 18.39734375 11.1015625 18.90234375 C10.83601563 18.21527344 10.57046875 17.52820313 10.296875 16.8203125 C9.94367187 15.91925781 9.59046875 15.01820312 9.2265625 14.08984375 C8.87851562 13.19652344 8.53046875 12.30320312 8.171875 11.3828125 C7.11324095 8.72522784 7.11324095 8.72522784 5.1015625 5.90234375 C1.55984272 5.73565057 1.55984272 5.73565057 -1.8984375 5.90234375 C-2.2284375 5.57234375 -2.5584375 5.24234375 -2.8984375 4.90234375 C-4.89802114 4.86153592 -6.89889004 4.85980019 -8.8984375 4.90234375 C-8.6715625 5.97484375 -8.4446875 7.04734375 -8.2109375 8.15234375 C-7.8984375 11.90234375 -7.8984375 11.90234375 -9.3359375 14.33984375 C-9.8515625 14.85546875 -10.3671875 15.37109375 -10.8984375 15.90234375 C-13.95038555 11.62961648 -13.95038555 11.62961648 -13.7109375 8.27734375 C-12.8984375 5.90234375 -12.8984375 5.90234375 -10.8984375 2.90234375 C-10.2384375 2.90234375 -9.5784375 2.90234375 -8.8984375 2.90234375 C-9.2284375 2.24234375 -9.5584375 1.58234375 -9.8984375 0.90234375 C-12.33561008 1.17269009 -12.33561008 1.17269009 -14.8984375 1.90234375 C-15.8884375 3.38734375 -15.8884375 3.38734375 -16.8984375 4.90234375 C-17.5584375 4.90234375 -18.2184375 4.90234375 -18.8984375 4.90234375 C-18.7540625 5.505625 -18.6096875 6.10890625 -18.4609375 6.73046875 C-18.2753125 7.5296875 -18.0896875 8.32890625 -17.8984375 9.15234375 C-17.7128125 9.94125 -17.5271875 10.73015625 -17.3359375 11.54296875 C-16.8984375 13.90234375 -16.8984375 13.90234375 -16.8984375 17.90234375 C-17.5584375 17.90234375 -18.2184375 17.90234375 -18.8984375 17.90234375 C-19.1459375 17.28359375 -19.3934375 16.66484375 -19.6484375 16.02734375 C-21.10472389 13.55165688 -22.27656256 12.95109373 -24.8984375 11.90234375 C-24.36588315 7.37563179 -22.68283878 4.48228825 -19.8984375 0.90234375 C-14.23091591 -2.79606121 -6.11671585 -2.31643821 0 0 Z " fill="#364579" transform="translate(34.8984375,21.09765625)"/>
<path d="M0 0 C2.6648391 0.10450349 4.66099153 0.39149754 7.1875 1.125 C8.074375 1.269375 8.96125 1.41375 9.875 1.5625 C10.638125 1.748125 11.40125 1.93375 12.1875 2.125 C12.5175 2.785 12.8475 3.445 13.1875 4.125 C11.56425914 4.34662329 9.938779 4.55189803 8.3125 4.75 C6.95511719 4.92402344 6.95511719 4.92402344 5.5703125 5.1015625 C4.78398438 5.10929687 3.99765625 5.11703125 3.1875 5.125 C2.5275 4.465 1.8675 3.805 1.1875 3.125 C0.08209074 5.91418149 0.08209074 5.91418149 0.1875 8.125 C1.74509343 8.66032823 3.30888045 9.17765378 4.875 9.6875 C5.74511719 9.97753906 6.61523438 10.26757812 7.51171875 10.56640625 C10.43381074 11.17641961 12.33150553 10.90203633 15.1875 10.125 C13.78083697 13.52443566 12.3188687 15.19425971 9.1875 17.125 C4.05299416 18.04324248 -0.38694616 18.09558985 -4.75 15.125 C-7.16919571 11.60616988 -9.08133584 8.02253718 -10.8125 4.125 C-10.1525 3.795 -9.4925 3.465 -8.8125 3.125 C-7.4925 5.765 -6.1725 8.405 -4.8125 11.125 C-2.6080823 6.7161646 -2.89545563 5.71022186 -3.8125 1.125 C-2.8125 0.125 -2.8125 0.125 0 0 Z " fill="#2862D7" transform="translate(28.8125,24.875)"/>
<path d="M0 0 C6.04251322 0.37765708 10.294585 2.14176384 15 6 C16.62395119 7.93782411 17.76006035 9.77844146 19 12 C18.34 13.32 17.68 14.64 17 16 C15.8274869 15.04882866 14.66212985 14.08882991 13.5 13.125 C12.8503125 12.59132813 12.200625 12.05765625 11.53125 11.5078125 C11.0259375 11.01023437 10.520625 10.51265625 10 10 C10 9.34 10 8.68 10 8 C9.28328125 7.85949219 8.5665625 7.71898437 7.828125 7.57421875 C6.02052037 7.2072051 4.21750888 6.81623315 2.421875 6.39453125 C-4.88767563 4.8022461 -11.06790939 4.50647912 -17.5625 8.625 C-18.036875 9.07875 -18.51125 9.5325 -19 10 C-19.66 9.67 -20.32 9.34 -21 9 C-14.67737868 2.92569916 -8.5800867 1.75860523 0 1 C0 0.67 0 0.34 0 0 Z " fill="#3878EE" transform="translate(33,9)"/>
<path d="M0 0 C0.66 0 1.32 0 2 0 C2.33 0.66 2.66 1.32 3 2 C4.2375 2.495 4.2375 2.495 5.5 3 C8 4 8 4 9 6 C9.66 5.67 10.32 5.34 11 5 C13.19599193 10.21548084 13.68430858 15.404771 13 21 C12.34 21.66 11.68 22.32 11 23 C9.68 22.34 8.36 21.68 7 21 C6.67 21.66 6.34 22.32 6 23 C5.96261719 22.33613281 5.92523438 21.67226563 5.88671875 20.98828125 C5.50068646 15.80333781 4.99396688 12.3662017 2 8 C1.375 5.375 1.375 5.375 1 3 C0.67 2.01 0.34 1.02 0 0 Z " fill="#5696FD" transform="translate(49,17)"/>
<path d="M0 0 C-1.32 0.33 -2.64 0.66 -4 1 C-1.02952435 2.07862102 -1.02952435 2.07862102 2.0625 2.5 C5 3 5 3 7 4 C7 4.66 7 5.32 7 6 C5.91460937 6.06058594 4.82921875 6.12117188 3.7109375 6.18359375 C2.26561514 6.26806064 0.82030318 6.35270551 -0.625 6.4375 C-1.33785156 6.47681641 -2.05070312 6.51613281 -2.78515625 6.55664062 C-6.90562162 6.80235645 -10.96592415 7.07333633 -15 8 C-16.24174796 9.9001177 -16.24174796 9.9001177 -17 12 C-17.99 12.66 -18.98 13.32 -20 14 C-19.67 12.68 -19.34 11.36 -19 10 C-19.66 10 -20.32 10 -21 10 C-20.67 7.36 -20.34 4.72 -20 2 C-19.67 2.66 -19.34 3.32 -19 4 C-16.11700748 5.35199895 -16.11700748 5.35199895 -13.984375 4.00390625 C-13.24703125 3.52824219 -12.5096875 3.05257813 -11.75 2.5625 C-7.48398701 0.03500949 -4.89242412 -0.52047065 0 0 Z " fill="#4C8CFA" transform="translate(28,14)"/>
<path d="M0 0 C4.4114727 3.23507998 4.84694558 6.84557192 5.703125 11.953125 C5.85007812 12.96632813 5.85007812 12.96632813 6 14 C6.639375 14.12375 7.27875 14.2475 7.9375 14.375 C8.618125 14.58125 9.29875 14.7875 10 15 C10.33 15.66 10.66 16.32 11 17 C9.80092489 20.37921168 8.12512066 22.25360904 5 24 C2.64809002 23.72330471 1.11312926 23.05656463 -1 22 C-1.103125 22.763125 -1.20625 23.52625 -1.3125 24.3125 C-2.05039701 27.19700648 -2.53243984 28.35495989 -5 30 C-7.1875 29.6875 -7.1875 29.6875 -9 29 C-8.030625 28.443125 -7.06125 27.88625 -6.0625 27.3125 C-2.81008721 25.31964195 -2.81008721 25.31964195 -2.125 22.25 C-2.08375 21.5075 -2.0425 20.765 -2 20 C-0.68 19.67 0.64 19.34 2 19 C2.22262303 12.2718373 1.95021536 6.46008837 0 0 Z " fill="#343F5A" transform="translate(50,24)"/>
<path d="M0 0 C1.32 0.33 2.64 0.66 4 1 C4 1.66 4 2.32 4 3 C4.53625 2.835 5.0725 2.67 5.625 2.5 C8.45886009 1.90339788 11.1119806 1.9343632 14 2 C15.125 4.3125 15.125 4.3125 16 7 C15.01 8.485 15.01 8.485 14 10 C4.96551724 8.68965517 4.96551724 8.68965517 1.375 6.125 C0 4 0 4 0 0 Z " fill="#4184FD" transform="translate(28,27)"/>
<path d="M0 0 C0.98484375 0.01804687 1.9696875 0.03609375 2.984375 0.0546875 C4.10585938 0.08949219 4.10585938 0.08949219 5.25 0.125 C4.92 0.785 4.59 1.445 4.25 2.125 C2.991875 2.0425 1.73375 1.96 0.4375 1.875 C-1.74323074 1.80777201 -1.74323074 1.80777201 -3.75 2.125 C-5.66256712 4.00577873 -5.66256712 4.00577873 -6.75 6.125 C-7.41 6.125 -8.07 6.125 -8.75 6.125 C-8.605625 6.72828125 -8.46125 7.3315625 -8.3125 7.953125 C-8.126875 8.75234375 -7.94125 9.5515625 -7.75 10.375 C-7.564375 11.16390625 -7.37875 11.9528125 -7.1875 12.765625 C-6.75 15.125 -6.75 15.125 -6.75 19.125 C-7.41 19.125 -8.07 19.125 -8.75 19.125 C-8.9975 18.50625 -9.245 17.8875 -9.5 17.25 C-10.95628639 14.77431313 -12.12812506 14.17374998 -14.75 13.125 C-14.21744565 8.59828804 -12.53440128 5.7049445 -9.75 2.125 C-6.4896847 -0.01749291 -3.84798057 -0.09161859 0 0 Z " fill="#31333A" transform="translate(24.75,19.875)"/>
<path d="M0 0 C0.99 0.66 1.98 1.32 3 2 C4.65583225 2.69313908 6.32110979 3.36474424 8 4 C7.01 4.66 6.02 5.32 5 6 C5 5.34 5 4.68 5 4 C4.01 4.33 3.02 4.66 2 5 C2 4.34 2 3.68 2 3 C1.01 3.495 1.01 3.495 0 4 C-2.04018212 4.13003994 -4.08236083 4.22956221 -6.125 4.3125 C-13.51000282 4.82716281 -18.80508419 6.49024081 -24 12 C-24.66 11.67 -25.32 11.34 -26 11 C-19.32900471 3.13617774 -10.62385182 -1.86840748 0 0 Z " fill="#4D8EFB" transform="translate(35,3)"/>
<path d="M0 0 C5.18125367 1.37150832 8.15472937 4.6233576 11 9 C11.875 12.4375 11.875 12.4375 12 15 C11.608125 14.54625 11.21625 14.0925 10.8125 13.625 C8.69167513 11.72357081 6.66957765 10.93795972 4 10 C4 9.34 4 8.68 4 8 C3.360625 7.773125 2.72125 7.54625 2.0625 7.3125 C0 6 0 6 -0.8125 3.4375 C-0.874375 2.633125 -0.93625 1.82875 -1 1 C-0.67 0.67 -0.34 0.34 0 0 Z " fill="#609CFF" transform="translate(47,9)"/>
<path d="M0 0 C0.66 0 1.32 0 2 0 C1.731875 0.515625 1.46375 1.03125 1.1875 1.5625 C-0.32349407 4.66401415 -1.65572726 7.82262806 -3 11 C-1.68 11.66 -0.36 12.32 1 13 C0.01 13.33 -0.98 13.66 -2 14 C-2.33 16.31 -2.66 18.62 -3 21 C-6.55285394 17.38047052 -6.53872077 13.56194538 -6.6875 8.75 C-6.72166016 8.00492188 -6.75582031 7.25984375 -6.79101562 6.4921875 C-6.87314054 4.66197508 -6.93825653 2.83101331 -7 1 C-6.01 1.33 -5.02 1.66 -4 2 C-4 2.99 -4 3.98 -4 5 C-3.38125 4.175 -2.7625 3.35 -2.125 2.5 C-1.42375 1.675 -0.7225 0.85 0 0 Z " fill="#3B78EF" transform="translate(13,22)"/>
<path d="M0 0 C1 3 1 3 0.42578125 4.82421875 C-0.89275416 7.03103065 -1.93415229 8.44228419 -4 10 C-8.07108482 10.72543267 -11.92280769 10.68053579 -16 10 C-16.66 9.34 -17.32 8.68 -18 8 C-18 7.01 -18 6.02 -18 5 C-17.19175781 5.03480469 -16.38351563 5.06960937 -15.55078125 5.10546875 C-13.94783203 5.14607422 -13.94783203 5.14607422 -12.3125 5.1875 C-10.72888672 5.23970703 -10.72888672 5.23970703 -9.11328125 5.29296875 C-5.60934385 4.96323813 -3.80301489 4.08584712 -1 2 C-0.67 1.34 -0.34 0.68 0 0 Z " fill="#1D1F1D" transform="translate(46,41)"/>
<path d="M0 0 C1.90625 1.10546875 1.90625 1.10546875 4.65625 3.10546875 C1.21985864 4.26695301 -1.04011562 3.88426665 -4.53125 3.04296875 C-10.97338156 1.7683224 -16.29433827 2.17169546 -21.90625 5.73046875 C-22.380625 6.18421875 -22.855 6.63796875 -23.34375 7.10546875 C-24.00375 6.77546875 -24.66375 6.44546875 -25.34375 6.10546875 C-24.07674277 5.12135625 -22.8049881 4.14335378 -21.53125 3.16796875 C-20.82355469 2.62269531 -20.11585937 2.07742187 -19.38671875 1.515625 C-14.13479582 -2.10950727 -5.87249938 -2.24133726 0 0 Z " fill="#313047" transform="translate(37.34375,11.89453125)"/>
<path d="M0 0 C0.66 0 1.32 0 2 0 C3.52491998 3.04983996 3.23562548 5.6423369 3 9 C1.83203125 10.765625 1.83203125 10.765625 0 12 C-2.62890625 11.92578125 -2.62890625 11.92578125 -5.5625 11.3125 C-6.53316406 11.12300781 -7.50382812 10.93351562 -8.50390625 10.73828125 C-11 10 -11 10 -13 8 C-11.96939453 7.83564453 -11.96939453 7.83564453 -10.91796875 7.66796875 C-10.01691406 7.50941406 -9.11585937 7.35085937 -8.1875 7.1875 C-6.84751953 6.96126953 -6.84751953 6.96126953 -5.48046875 6.73046875 C-2.77682454 5.93427746 -1.65024056 5.26428356 0 3 C0 2.01 0 1.02 0 0 Z " fill="#3977EF" transform="translate(43,34)"/>
<path d="M0 0 C2.625 -0.1875 2.625 -0.1875 5 0 C5 0.66 5 1.32 5 2 C5.8971875 2.37125 5.8971875 2.37125 6.8125 2.75 C9.38438757 4.21965004 10.53194377 5.43090159 12 8 C12.1875 10.75 12.1875 10.75 12 13 C11.57589844 12.61328125 11.15179688 12.2265625 10.71484375 11.828125 C6.69695194 8.2605903 2.74596229 5.51826571 -2 3 C-1.34 2.01 -0.68 1.02 0 0 Z " fill="#88B4F6" transform="translate(38,17)"/>
<path d="M0 0 C0.66 1.32 1.32 2.64 2 4 C-0.625 7.875 -0.625 7.875 -4 9 C-4.33 9.66 -4.66 10.32 -5 11 C-9.68395246 12.14242743 -14.21355271 12.08252495 -19 12 C-19 11.67 -19 11.34 -19 11 C-18.195625 10.87625 -17.39125 10.7525 -16.5625 10.625 C-15.716875 10.41875 -14.87125 10.2125 -14 10 C-13.67 9.34 -13.34 8.68 -13 8 C-11.07421875 7.578125 -11.07421875 7.578125 -8.6875 7.25 C-5.24485497 6.594014 -5.24485497 6.594014 -2.515625 4.5390625 C-1.29399286 2.7209685 -1.29399286 2.7209685 0 0 Z " fill="#3D76E9" transform="translate(46,44)"/>
<path d="M0 0 C0 3 0 3 -2 5.1875 C-6.10610218 7.66827007 -8.25000522 7.53628973 -13 7 C-15 5.5 -15 5.5 -16 4 C-12.45418087 2.58167235 -9.53703626 1.8894296 -5.75 2 C-4.5125 2 -3.275 2 -2 2 C-1.34 1.34 -0.68 0.68 0 0 Z " fill="#212324" transform="translate(43,35)"/>
<path d="M0 0 C0.33 0.66 0.66 1.32 1 2 C4 3.33333333 4 3.33333333 7 2 C7 2.66 7 3.32 7 4 C8.32 4.33 9.64 4.66 11 5 C10.05125 5.0825 9.1025 5.165 8.125 5.25 C4.91161165 5.63171522 4.91161165 5.63171522 3.8125 7.9375 C3.544375 8.618125 3.27625 9.29875 3 10 C2.01 10.66 1.02 11.32 0 12 C0.33 10.68 0.66 9.36 1 8 C0.34 8 -0.32 8 -1 8 C-0.67 5.36 -0.34 2.72 0 0 Z " fill="#4B8EFF" transform="translate(8,16)"/>
<path d="M0 0 C2.80478513 2.80478513 2.96108361 4.88543472 3.09765625 8.796875 C3.08605469 9.77140625 3.07445312 10.7459375 3.0625 11.75 C3.05347656 12.73484375 3.04445313 13.7196875 3.03515625 14.734375 C3.02355469 15.48203125 3.01195312 16.2296875 3 17 C0.4547544 14.78764756 -0.42774656 13.23452027 -1.0625 9.9375 C-1.63899392 6.98914538 -1.79708396 6.20291604 -4 4 C-3.67 3.01 -3.34 2.02 -3 1 C-2.34 1.66 -1.68 2.32 -1 3 C-0.67 2.01 -0.34 1.02 0 0 Z " fill="#518FFB" transform="translate(50,26)"/>
<path d="M0 0 C0.66 0 1.32 0 2 0 C3.32 2.64 4.64 5.28 6 8 C6.33 7.34 6.66 6.68 7 6 C8.32 6 9.64 6 11 6 C11.625 7.875 11.625 7.875 12 10 C11.34 10.66 10.68 11.32 10 12 C10.66 12.66 11.32 13.32 12 14 C7.69560075 13.52173342 5.69131402 11.24337843 3 8 C1.769924 5.36412285 0.89506063 2.77939881 0 0 Z " fill="#3670DF" transform="translate(18,28)"/>
<path d="M0 0 C-1.04800781 0.59748047 -1.04800781 0.59748047 -2.1171875 1.20703125 C-3.02726562 1.73683594 -3.93734375 2.26664063 -4.875 2.8125 C-5.77992187 3.33457031 -6.68484375 3.85664063 -7.6171875 4.39453125 C-10.23273183 5.93733799 -10.23273183 5.93733799 -12 9 C-12.99 8.67 -13.98 8.34 -15 8 C-15 4 -15 4 -13.5 2.375 C-9.13670957 -0.02480974 -4.81384766 -1.60461589 0 0 Z " fill="#5B98FE" transform="translate(24,11)"/>
<path d="M0 0 C0 2 0 2 -1.875 4 C-2.57625 4.66 -3.2775 5.32 -4 6 C-4.66 6.66 -5.32 7.32 -6 8 C-6 7.34 -6 6.68 -6 6 C-7.32 6 -8.64 6 -10 6 C-9.63088042 3.32388302 -9.15144437 2.1568531 -7.25 0.1875 C-4.3995411 -1.31690887 -3.01911587 -0.92250763 0 0 Z " fill="#344B8C" transform="translate(26,22)"/>
<path d="M0 0 C2.83444974 2.83444974 2.79638309 5.06340644 3 9 C1.5625 11.4375 1.5625 11.4375 0 13 C-3.05194805 8.72727273 -3.05194805 8.72727273 -2.8125 5.375 C-2 3 -2 3 0 0 Z " fill="#232423" transform="translate(24,24)"/>
<path d="M0 0 C1.32 0.33 2.64 0.66 4 1 C4.33 1.66 4.66 2.32 5 3 C3.80068344 6.37989213 2.09895713 8.21575195 -1 10 C-1.99 9.67 -2.98 9.34 -4 9 C-2.68 6.03 -1.36 3.06 0 0 Z " fill="#34497D" transform="translate(56,38)"/>
<path d="M0 0 C6.03678645 0.37729915 10.22420009 2.26089812 15 6 C15.33 6.66 15.66 7.32 16 8 C3.45945946 5.18918919 3.45945946 5.18918919 0 0 Z " fill="#496DC7" transform="translate(33,9)"/>
<path d="M0 0 C2.64 1.65 5.28 3.3 8 5 C3.90909091 7.72727273 3.90909091 7.72727273 1 8 C-0.8125 6.8125 -0.8125 6.8125 -2 5 C-1.74853421 2.86254078 -1.54074221 1.54074221 0 0 Z " fill="#2F71E5" transform="translate(20,39)"/>
<path d="M0 0 C2.56641809 1.23188068 4.93828789 2.57339815 7.375 4.0625 C10.53477395 5.89830819 13.33293044 6.64223712 17 7 C16.67 7.66 16.34 8.32 16 9 C10.81905476 9.64761816 7.97561093 8.14747663 3.734375 5.484375 C1.79552401 3.82499803 0.97816123 2.33560948 0 0 Z " fill="#5896FC" transform="translate(16,46)"/>
<path d="M0 0 C3.89081843 1.29693948 6.48181674 2.70699112 9 6 C8.67 7.32 8.34 8.64 8 10 C5.03 7.36 2.06 4.72 -1 2 C-0.67 1.34 -0.34 0.68 0 0 Z " fill="#9FBBE3" transform="translate(47,9)"/>
<path d="M0 0 C0 3 0 3 -1.6875 5.1875 C-4.3961577 7.31050198 -5.64708882 7.37254569 -9 7 C-8.67 5.02 -8.34 3.04 -8 1 C-6.576875 1.309375 -6.576875 1.309375 -5.125 1.625 C-4.09375 1.74875 -3.0625 1.8725 -2 2 C-1.34 1.34 -0.68 0.68 0 0 Z " fill="#313135" transform="translate(57,45)"/>
<path d="M0 0 C0.12246094 0.63421875 0.24492187 1.2684375 0.37109375 1.921875 C0.80696091 4.19716567 0.80696091 4.19716567 3.0625 5.25 C3.701875 5.4975 4.34125 5.745 5 6 C4.01 6.33 3.02 6.66 2 7 C1.67 9.31 1.34 11.62 1 14 C-0.55078125 12.328125 -0.55078125 12.328125 -2 10 C-1.85546875 7.421875 -1.85546875 7.421875 -1.1875 4.75 C-0.97480469 3.85796875 -0.76210937 2.9659375 -0.54296875 2.046875 C-0.36378906 1.37140625 -0.18460938 0.6959375 0 0 Z " fill="#3061D1" transform="translate(9,29)"/>
<path d="M0 0 C0.33 0 0.66 0 1 0 C1.33820166 1.5823006 1.67035939 3.16589375 2 4.75 C2.185625 5.63171875 2.37125 6.5134375 2.5625 7.421875 C3 10 3 10 3 14 C2.34 14 1.68 14 1 14 C-2.2 6.86153846 -2.2 6.86153846 -1.1875 2.5 C-0.795625 1.675 -0.40375 0.85 0 0 Z " fill="#1D1F1D" transform="translate(15,25)"/>
<path d="M0 0 C4 4.75 4 4.75 4 7 C4.556875 7.0825 5.11375 7.165 5.6875 7.25 C8.69714206 8.22610013 10.62154752 9.95188814 13 12 C9.19822098 12.55908515 8.06969895 12.05018324 4.875 9.75 C0.39873418 5.46835443 0.39873418 5.46835443 -1 3 C-0.67 2.01 -0.34 1.02 0 0 Z " fill="#333E6E" transform="translate(11,42)"/>
<path d="M0 0 C2.00925805 0.98126556 4.00757511 1.9849911 6 3 C8.31671045 3.77068925 10.63473553 4.38503124 13 5 C13 5.33 13 5.66 13 6 C9.37 6 5.74 6 2 6 C1.67 4.68 1.34 3.36 1 2 C0.01 1.67 -0.98 1.34 -2 1 C-1.34 0.67 -0.68 0.34 0 0 Z " fill="#365191" transform="translate(28,32)"/>
<path d="M0 0 C0.33 0.66 0.66 1.32 1 2 C-4.94 2.495 -4.94 2.495 -11 3 C-10.67 1.68 -10.34 0.36 -10 -1 C-6.19010598 -2.46534385 -3.6758821 -1.55203911 0 0 Z " fill="#36426A" transform="translate(36,22)"/>
<path d="M0 0 C0.33 0.99 0.66 1.98 1 3 C-0.9375 6.1875 -0.9375 6.1875 -3 9 C-6.3 8.34 -9.6 7.68 -13 7 C-13 6.67 -13 6.34 -13 6 C-11.96939453 5.85304688 -11.96939453 5.85304688 -10.91796875 5.703125 C-10.01691406 5.55359375 -9.11585937 5.4040625 -8.1875 5.25 C-7.29417969 5.11078125 -6.40085937 4.9715625 -5.48046875 4.828125 C-2.49427342 3.831159 -1.61619656 2.6417565 0 0 Z " fill="#22262B" transform="translate(46,41)"/>
<path d="M0 0 C1.32 1.65 2.64 3.3 4 5 C5.65 4.67 7.3 4.34 9 4 C8.34 5.98 7.68 7.96 7 10 C4.37098712 8.47793991 2.15634036 7.15634036 0 5 C-0.125 2.375 -0.125 2.375 0 0 Z " fill="#37498A" transform="translate(17,41)"/>
<path d="M0 0 C4.29 0.66 8.58 1.32 13 2 C12.67 2.66 12.34 3.32 12 4 C10.58376784 4.05447047 9.16691809 4.09300508 7.75 4.125 C6.96109375 4.14820313 6.1721875 4.17140625 5.359375 4.1953125 C2.79268059 3.9828378 1.2083933 3.28654105 -1 2 C-0.67 1.34 -0.34 0.68 0 0 Z " fill="#323337" transform="translate(28,42)"/>
<path d="M0 0 C1.32 0.33 2.64 0.66 4 1 C4.625 2.875 4.625 2.875 5 5 C4.34 5.66 3.68 6.32 3 7 C1.68 6.34 0.36 5.68 -1 5 C-1.33 5.66 -1.66 6.32 -2 7 C-2 5.68 -2 4.36 -2 3 C-1.34 3 -0.68 3 0 3 C0 2.01 0 1.02 0 0 Z " fill="#336DE6" transform="translate(57,33)"/>
<path d="M0 0 C9.41002278 -0.3690205 9.41002278 -0.3690205 14 2 C14 2.66 14 3.32 14 4 C9.38 3.34 4.76 2.68 0 2 C0 1.34 0 0.68 0 0 Z " fill="#619DFF" transform="translate(21,16)"/>
<path d="M0 0 C0.33 0.66 0.66 1.32 1 2 C3.02463255 2.65213292 3.02463255 2.65213292 5 3 C4.25 4.9375 4.25 4.9375 3 7 C0.875 7.75 0.875 7.75 -1 8 C-0.67 5.36 -0.34 2.72 0 0 Z " fill="#4785F3" transform="translate(8,16)"/>
<path d="M0 0 C3.95820859 0.56545837 6.6659053 1.80902348 10 4 C5.47907032 5.45606519 2.48351204 4.27032841 -2 3 C-1.34 2.01 -0.68 1.02 0 0 Z " fill="#344573" transform="translate(32,11)"/>
<path d="M0 0 C2.0625 0.4375 2.0625 0.4375 4 1 C4.33 2.32 4.66 3.64 5 5 C3.68 5 2.36 5 1 5 C1 6.32 1 7.64 1 9 C0.34 8.67 -0.32 8.34 -1 8 C-1.04241723 5.66705225 -1.04092937 3.33297433 -1 1 C-0.67 0.67 -0.34 0.34 0 0 Z " fill="#1F61D3" transform="translate(47,39)"/>
<path d="M0 0 C0.99 0.66 1.98 1.32 3 2 C2.67 2.66 2.34 3.32 2 4 C-0.28515625 4.4140625 -0.28515625 4.4140625 -3.0625 4.625 C-3.98160156 4.69976563 -4.90070312 4.77453125 -5.84765625 4.8515625 C-6.91306641 4.92503906 -6.91306641 4.92503906 -8 5 C-5.51586907 2.37866417 -3.53878682 0.97316637 0 0 Z " fill="#77B3FF" transform="translate(22,7)"/>
<path d="M0 0 C0.66 0 1.32 0 2 0 C5 4.38461538 5 4.38461538 5 7 C5.99 7.33 6.98 7.66 8 8 C6.68 8.99 5.36 9.98 4 11 C2.50859979 7.37802806 1.2125738 3.72433382 0 0 Z " fill="#4276E3" transform="translate(49,17)"/>
<path d="M0 0 C6.875 1.875 6.875 1.875 8 3 C8.04063832 4.66617115 8.042721 6.33388095 8 8 C6.85073734 7.04578192 5.70569459 6.08647955 4.5625 5.125 C3.92441406 4.59132813 3.28632812 4.05765625 2.62890625 3.5078125 C1 2 1 2 0 0 Z " fill="#BFCCDA" transform="translate(42,22)"/>
<path d="M0 0 C3.88862987 1.26117725 5.89375599 2.45264167 8 6 C8 6.66 8 7.32 8 8 C4.27382578 6.75794193 2.60708543 4.8889325 0 2 C0 1.34 0 0.68 0 0 Z " fill="#93BBF3" transform="translate(44,15)"/>
<path d="M0 0 C4.1424367 1.38081223 5.32203099 3.59825558 8 7 C7.01 7.495 7.01 7.495 6 8 C1.125 3.375 1.125 3.375 0 0 Z " fill="#363E58" transform="translate(20,36)"/>
<path d="M0 0 C0.99 0.33 1.98 0.66 3 1 C3 2.98 3 4.96 3 7 C2.01 7 1.02 7 0 7 C-0.38133299 5.0085944 -0.71325582 3.00720923 -1 1 C-0.67 0.67 -0.34 0.34 0 0 Z " fill="#3565DB" transform="translate(26,25)"/>
<path d="M0 0 C3 0 3 0 4.75 1.25 C6 3 6 3 5.6875 5.1875 C5.460625 5.785625 5.23375 6.38375 5 7 C4.34 6.01 3.68 5.02 3 4 C0.94996045 2.80767387 0.94996045 2.80767387 -1 2 C-0.67 1.34 -0.34 0.68 0 0 Z " fill="#7FABF3" transform="translate(53,17)"/>
<path d="M0 0 C1.32 0.66 2.64 1.32 4 2 C-2.625 5 -2.625 5 -6 5 C-6 4.34 -6 3.68 -6 3 C-5.195625 2.690625 -4.39125 2.38125 -3.5625 2.0625 C-1.10919595 1.23664655 -1.10919595 1.23664655 0 0 Z " fill="#222321" transform="translate(47,51)"/>
<path d="M0 0 C3 3.75 3 3.75 3 6 C2.34 6 1.68 6 1 6 C0.67 6.66 0.34 7.32 0 8 C-0.66 8 -1.32 8 -2 8 C-1.125 1.125 -1.125 1.125 0 0 Z " fill="#3D80FF" transform="translate(57,28)"/>
<path d="M0 0 C0.33 0 0.66 0 1 0 C1.125 2.875 1.125 2.875 1 6 C0.34 6.66 -0.32 7.32 -1 8 C-2.5625 6.1875 -2.5625 6.1875 -4 4 C-3.67 3.01 -3.34 2.02 -3 1 C-2.34 1.66 -1.68 2.32 -1 3 C-0.67 2.01 -0.34 1.02 0 0 Z " fill="#5F9EFF" transform="translate(50,26)"/>
<path d="M0 0 C3.3 0 6.6 0 10 0 C10.33 0.66 10.66 1.32 11 2 C6.70700357 3.26264601 4.12168689 2.62950412 0 1 C0 0.67 0 0.34 0 0 Z " fill="#3354A3" transform="translate(27,24)"/>
<path d="M0 0 C0.78375 0.04125 1.5675 0.0825 2.375 0.125 C2.375 0.785 2.375 1.445 2.375 2.125 C3.035 2.455 3.695 2.785 4.375 3.125 C1.5625 3.75 1.5625 3.75 -1.625 4.125 C-2.615 3.465 -3.605 2.805 -4.625 2.125 C-2.625 0.125 -2.625 0.125 0 0 Z " fill="#6BA3FE" transform="translate(40.625,16.875)"/>
<path d="M0 0 C1.32 0.33 2.64 0.66 4 1 C4 2.32 4 3.64 4 5 C2.68 4.34 1.36 3.68 0 3 C0 2.01 0 1.02 0 0 Z " fill="#4482FA" transform="translate(19,42)"/>
<path d="M0 0 C1.9375 0.3125 1.9375 0.3125 4 1 C4.33 1.99 4.66 2.98 5 4 C3.02 4.99 3.02 4.99 1 6 C0.67 4.02 0.34 2.04 0 0 Z " fill="#3C7EFD" transform="translate(28,27)"/>
<path d="M0 0 C6.75 0.75 6.75 0.75 9 3 C6.75 3.75 6.75 3.75 4 4 C1.6875 2.0625 1.6875 2.0625 0 0 Z " fill="#3A64B5" transform="translate(33,9)"/>
<path d="M0 0 C2 2 2 2 2.125 5.625 C2.08375 6.73875 2.0425 7.8525 2 9 C1.01 8.34 0.02 7.68 -1 7 C-0.67 4.69 -0.34 2.38 0 0 Z " fill="#363B4C" transform="translate(14,35)"/>
<path d="M0 0 C0.66 0 1.32 0 2 0 C2.33 1.98 2.66 3.96 3 6 C1.68 5.67 0.36 5.34 -1 5 C-0.67 3.35 -0.34 1.7 0 0 Z " fill="#373D64" transform="translate(11,28)"/>
<path d="M0 0 C2.79872437 2.52788007 4.45773019 4.20411134 5 8 C4.01 8 3.02 8 2 8 C1.34 5.36 0.68 2.72 0 0 Z " fill="#34466A" transform="translate(50,24)"/>
</svg>
