<?xml version="1.0" encoding="UTF-8"?>
<svg version="1.1" xmlns="http://www.w3.org/2000/svg" width="62" height="62">
<path d="M0 0 C5.44728648 4.88178428 8.36136015 10.84039829 9.3125 18.08203125 C9.56720057 25.06507197 7.75113914 30.35205692 3.46875 35.90234375 C2.64375 36.74796875 1.81875 37.59359375 0.96875 38.46484375 C-0.02125 38.46484375 -1.01125 38.46484375 -2.03125 38.46484375 C-2.40636719 39.38716797 -2.40636719 39.38716797 -2.7890625 40.328125 C-4.24553336 42.83343808 -5.30714622 43.45087125 -7.90625 44.65234375 C-8.92332031 45.13767578 -8.92332031 45.13767578 -9.9609375 45.6328125 C-17.89751038 48.82241632 -24.73350011 47.75729274 -32.4921875 44.63671875 C-40.9601477 40.72842943 -44.45593992 33.8594759 -48.03125 25.46484375 C-49.90598131 18.75577992 -49.28816562 12.63408664 -46.03125 6.46484375 C-41.33723783 -0.19190398 -35.62707526 -5.5524062 -27.42578125 -7.27734375 C-17.01261667 -8.39850013 -8.33050077 -6.29593616 0 0 Z M-26.03125 1.46484375 C-25.03125 3.46484375 -25.03125 3.46484375 -25.03125 3.46484375 Z M-8.03125 15.46484375 C-7.70125 16.45484375 -7.37125 17.44484375 -7.03125 18.46484375 C-7.03125 17.47484375 -7.03125 16.48484375 -7.03125 15.46484375 C-7.36125 15.46484375 -7.69125 15.46484375 -8.03125 15.46484375 Z M-38.03125 21.46484375 C-37.03125 23.46484375 -37.03125 23.46484375 -37.03125 23.46484375 Z M-18.03125 37.46484375 C-18.03125 38.12484375 -18.03125 38.78484375 -18.03125 39.46484375 C-17.37125 39.13484375 -16.71125 38.80484375 -16.03125 38.46484375 C-16.69125 38.13484375 -17.35125 37.80484375 -18.03125 37.46484375 Z M-19.03125 39.46484375 C-20.02125 40.94984375 -20.02125 40.94984375 -21.03125 42.46484375 C-19.71125 42.13484375 -18.39125 41.80484375 -17.03125 41.46484375 C-17.69125 40.80484375 -18.35125 40.14484375 -19.03125 39.46484375 Z M-14.03125 38.46484375 C-15.02125 38.95984375 -15.02125 38.95984375 -16.03125 39.46484375 C-16.03125 40.12484375 -16.03125 40.78484375 -16.03125 41.46484375 C-15.04125 41.46484375 -14.05125 41.46484375 -13.03125 41.46484375 C-13.36125 40.47484375 -13.69125 39.48484375 -14.03125 38.46484375 Z " fill="#7740F2" transform="translate(53.03125,10.53515625)"/>
<path d="M0 0 C6.17264513 4.91292163 11.51114997 10.47964891 13.0625 18.4375 C13.27380249 21.78952587 13.24797604 25.08519229 13.0625 28.4375 C12.4025 28.4375 11.7425 28.4375 11.0625 28.4375 C11.0625 27.7775 11.0625 27.1175 11.0625 26.4375 C10.43859375 26.36660156 9.8146875 26.29570313 9.171875 26.22265625 C7.0625 25.4375 7.0625 25.4375 6.015625 23.37109375 C5.66757813 22.13552734 5.66757813 22.13552734 5.3125 20.875 C5.07015625 20.04871094 4.8278125 19.22242187 4.578125 18.37109375 C4.40796875 17.73300781 4.2378125 17.09492188 4.0625 16.4375 C4.59372363 18.20524419 5.11214073 19.97684083 5.625 21.75 C5.91503906 22.73613281 6.20507812 23.72226562 6.50390625 24.73828125 C7.0625 27.4375 7.0625 27.4375 6.0625 30.4375 C6.0625 29.7775 6.0625 29.1175 6.0625 28.4375 C5.0725 28.1075 4.0825 27.7775 3.0625 27.4375 C2.4375 25.5625 2.4375 25.5625 2.0625 23.4375 C1.5675 21.9525 1.5675 21.9525 1.0625 20.4375 C0.485 20.293125 -0.0925 20.14875 -0.6875 20 C-2.9375 19.4375 -2.9375 19.4375 -5.3125 17.5 C-11.30140983 12.79442799 -17.80458829 12.88284471 -25.0703125 13.66796875 C-26.69706919 13.8951878 -28.31824084 14.16188142 -29.9375 14.4375 C-29.9375 15.0975 -29.9375 15.7575 -29.9375 16.4375 C-32.5775 17.0975 -35.2175 17.7575 -37.9375 18.4375 C-36.61645779 14.2159086 -35.1846908 12.49907874 -31.4375 10.1875 C-30.6434375 9.68734375 -29.849375 9.1871875 -29.03125 8.671875 C-25.15775771 6.38824895 -22.33596494 6.16285686 -17.8125 5.875 C-16.53117187 5.79121094 -15.24984375 5.70742187 -13.9296875 5.62109375 C-12.94226563 5.56050781 -11.95484375 5.49992188 -10.9375 5.4375 C-10.9375 4.4475 -10.9375 3.4575 -10.9375 2.4375 C-18.7605602 0.87288796 -24.68882832 2.20539075 -31.4375 6.5 C-33.99632201 8.1942954 -33.99632201 8.1942954 -34.9375 10.4375 C-36.9375 11.10416667 -38.9375 11.77083333 -40.9375 12.4375 C-40.2775 11.1175 -39.6175 9.7975 -38.9375 8.4375 C-38.2775 8.4375 -37.6175 8.4375 -36.9375 8.4375 C-36.73125 7.86 -36.525 7.2825 -36.3125 6.6875 C-34.39759388 3.55401726 -32.11402523 2.21635413 -28.9375 0.4375 C-27.6175 0.4375 -26.2975 0.4375 -24.9375 0.4375 C-24.9375 -0.2225 -24.9375 -0.8825 -24.9375 -1.5625 C-24.36902344 -1.46710937 -23.80054687 -1.37171875 -23.21484375 -1.2734375 C-14.73718184 -0.05627736 -7.94489246 -4.22600663 0 0 Z " fill="#A269FC" transform="translate(48.9375,7.5625)"/>
<path d="M0 0 C-0.33 0.66 -0.66 1.32 -1 2 C-2.98 2 -4.96 2 -7 2 C-7.33 2.66 -7.66 3.32 -8 4 C-10.97 3.34 -13.94 2.68 -17 2 C-17 2.66 -17 3.32 -17 4 C-17.99 4.350625 -18.98 4.70125 -20 5.0625 C-24.99953357 7.18475098 -30.52938816 11.05877631 -33 16 C-31.68 15.01 -30.36 14.02 -29 13 C-28.34 13.33 -27.68 13.66 -27 14 C-26.690625 13.13375 -26.690625 13.13375 -26.375 12.25 C-23.70062746 7.87375403 -19.55883546 5.95274926 -14.75 4.625 C-9.57989319 3.60330939 -5.01947837 4.63771986 0 6 C-0.99 6.33 -1.98 6.66 -3 7 C-2.505 8.485 -2.505 8.485 -2 10 C-2.88300781 9.91878906 -3.76601563 9.83757813 -4.67578125 9.75390625 C-12.93625979 9.31914422 -17.96149343 10.27934855 -24.79296875 14.98046875 C-27.13623708 17.12466296 -28.51838148 19.20567713 -30 22 C-29.01 21.34 -28.02 20.68 -27 20 C-24.3125 19.875 -24.3125 19.875 -22 20 C-22 19.34 -22 18.68 -22 18 C-13.96393014 15.97001158 -7.29037307 15.23788249 0.5 18.4375 C3 20 3 20 4 22 C4.50872093 28.10465114 4.06705978 31.11952826 0 36 C-3.6441774 38.4294516 -5.71241272 38.16179575 -10 38 C-10.495 35.525 -10.495 35.525 -11 33 C-8 33 -8 33 -5.625 33.3125 C-2.75275759 33.19561072 -2.75275759 33.19561072 -0.125 30.8125 C2.32228543 28.21137197 2.32228543 28.21137197 1.8125 25.1875 C1.544375 24.465625 1.27625 23.74375 1 23 C0.34 23 -0.32 23 -1 23 C-6.66666667 23 -12.33333333 23 -18 23 C-17.74919678 23.57331055 -17.49839355 24.14662109 -17.23999023 24.73730469 C-14.80558134 30.40178873 -14.80558134 30.40178873 -15.8125 33.5 C-16.204375 33.995 -16.59625 34.49 -17 35 C-18.6990169 32.9316316 -19.89762624 31.44788522 -20.5 28.8125 C-20.665 28.214375 -20.83 27.61625 -21 27 C-21.99 26.67 -22.98 26.34 -24 26 C-24 26.66 -24 27.32 -24 28 C-24.66 28 -25.32 28 -26 28 C-25.62875 28.70125 -25.2575 29.4025 -24.875 30.125 C-23.76734541 33.76443651 -24.55874591 35.55700411 -26 39 C-28.39073445 35.17482487 -28.55966552 31.40334476 -29 27 C-29.268125 27.639375 -29.53625 28.27875 -29.8125 28.9375 C-31 31 -31 31 -34 32 C-33.835 31.195625 -33.67 30.39125 -33.5 29.5625 C-32.96808161 27.2715557 -32.96808161 27.2715557 -33 26 C-33.99 26 -34.98 26 -36 26 C-36.62425021 20.00719795 -36.14196789 15.88095493 -32.60546875 10.91796875 C-23.2744104 -0.22935399 -14.08618105 -1.83252826 0 0 Z " fill="#A365FC" transform="translate(41,4)"/>
<path d="M0 0 C2.0343459 1.41519715 2.90410393 2.54982123 3.421875 4.98046875 C3.66273952 6.98176954 3.83532741 8.9909944 4 11 C5.32 11.33 6.64 11.66 8 12 C8.96684467 15.07632396 9.21940102 16.51244217 7.875 19.5 C5.78341664 22.28877781 3.59461035 24.67150353 1 27 C0.34 27 -0.32 27 -1 27 C-1.25007813 27.61488281 -1.50015625 28.22976562 -1.7578125 28.86328125 C-3.21428336 31.36859433 -4.27589622 31.9860275 -6.875 33.1875 C-7.89207031 33.67283203 -7.89207031 33.67283203 -8.9296875 34.16796875 C-14.22920494 36.29777481 -20.09927441 37.16029024 -25.5 35 C-25.995 34.67 -26.49 34.34 -27 34 C-23.99686252 32.49843126 -21.20932478 32.90718796 -17.875 32.9375 C-16.59367187 32.94652344 -15.31234375 32.95554688 -13.9921875 32.96484375 C-12.51105469 32.98224609 -12.51105469 32.98224609 -11 33 C-11 32.34 -11 31.68 -11 31 C-11.99 31.33 -12.98 31.66 -14 32 C-14.99 31.34 -15.98 30.68 -17 30 C-19.42797311 30 -21.62907005 30.50085685 -24 31 C-22.41513631 27.56518866 -21.6014492 26.23132662 -18.00390625 24.84765625 C-16.30041016 24.45900391 -16.30041016 24.45900391 -14.5625 24.0625 C-9.38036296 22.60097955 -9.38036296 22.60097955 -5.125 19.375 C-3.56772263 14.70316788 -4.13015984 10.78412089 -5 6 C-4.01 6 -3.02 6 -2 6 C1 10.22222222 1 10.22222222 1 13 C1.66 13 2.32 13 3 13 C2.7834375 12.31292969 2.566875 11.62585937 2.34375 10.91796875 C2.0653125 10.01691406 1.786875 9.11585937 1.5 8.1875 C1.2215625 7.29417969 0.943125 6.40085937 0.65625 5.48046875 C0 3 0 3 0 0 Z M-17 26 C-17 26.66 -17 27.32 -17 28 C-16.34 27.67 -15.68 27.34 -15 27 C-15.66 26.67 -16.32 26.34 -17 26 Z M-13 27 C-13.99 27.495 -13.99 27.495 -15 28 C-15 28.66 -15 29.32 -15 30 C-14.01 30 -13.02 30 -12 30 C-12.33 29.01 -12.66 28.02 -13 27 Z " fill="#7741E0" transform="translate(52,22)"/>
<path d="M0 0 C4.30220896 2.45840512 7.60630672 5.4066777 11 9 C10.67 9.99 10.34 10.98 10 12 C8.35 11.01 6.7 10.02 5 9 C5.495 11.475 5.495 11.475 6 14 C5.01 13.67 4.02 13.34 3 13 C3.350625 13.598125 3.70125 14.19625 4.0625 14.8125 C5 17 5 17 4 20 C3.02160156 19.49339844 3.02160156 19.49339844 2.0234375 18.9765625 C-2.57761806 16.6285312 -7.01772085 14.4422387 -12 13 C-11.34 11.68 -10.68 10.36 -10 9 C-8.68 9 -7.36 9 -6 9 C-6 8.01 -6 7.02 -6 6 C-6.66 5.67 -7.32 5.34 -8 5 C-8 4.67 -8 4.34 -8 4 C-15.8230602 2.43538796 -21.75132832 3.76789075 -28.5 8.0625 C-31.05882201 9.7567954 -31.05882201 9.7567954 -32 12 C-34 12.66666667 -36 13.33333333 -38 14 C-37.34 12.68 -36.68 11.36 -36 10 C-35.34 10 -34.68 10 -34 10 C-33.79375 9.4225 -33.5875 8.845 -33.375 8.25 C-31.46009388 5.11651726 -29.17652523 3.77885413 -26 2 C-24.68 2 -23.36 2 -22 2 C-22 1.34 -22 0.68 -22 0 C-21.43152344 0.09539063 -20.86304687 0.19078125 -20.27734375 0.2890625 C-13.13856188 1.31399612 -6.8097694 -2.02844195 0 0 Z " fill="#AB75FE" transform="translate(46,6)"/>
<path d="M0 0 C1.60632723 3.21265446 1.47931944 6.51521812 1 10 C-1.01502889 13.75212276 -2.45466142 15.63644095 -6 18 C-8.33199388 18.07905064 -10.66832622 18.08798769 -13 18 C-13.495 15.525 -13.495 15.525 -14 13 C-11 13 -11 13 -8.625 13.3125 C-5.75275759 13.19561072 -5.75275759 13.19561072 -3.125 10.8125 C-0.67771457 8.21137197 -0.67771457 8.21137197 -1.1875 5.1875 C-1.455625 4.465625 -1.72375 3.74375 -2 3 C-2.66 3 -3.32 3 -4 3 C-9.66666667 3 -15.33333333 3 -21 3 C-20.74919678 3.57331055 -20.49839355 4.14662109 -20.23999023 4.73730469 C-17.80558134 10.40178873 -17.80558134 10.40178873 -18.8125 13.5 C-19.204375 13.995 -19.59625 14.49 -20 15 C-21.6990169 12.9316316 -22.89762624 11.44788522 -23.5 8.8125 C-23.665 8.214375 -23.83 7.61625 -24 7 C-24.99 6.67 -25.98 6.34 -27 6 C-27 6.66 -27 7.32 -27 8 C-27.66 8 -28.32 8 -29 8 C-28.62875 8.70125 -28.2575 9.4025 -27.875 10.125 C-26.76734541 13.76443651 -27.55874591 15.55700411 -29 19 C-31.29028294 15.33554729 -32.21469422 11.29388435 -32 7 C-29.43294685 2.04925463 -26.55849652 0.03899768 -22 -3 C-14.19798941 -5.45296479 -6.93505441 -4.24152881 0 0 Z " fill="#4F3990" transform="translate(44,24)"/>
<path d="M0 0 C2.0625 1.6875 2.0625 1.6875 4 4 C4.125 6.5 4.125 6.5 3 9 C0.04911528 11.48142579 -1.9522627 12.88358474 -5.8125 13.3125 C-8 13 -8 13 -9 12 C-9.33 12.99 -9.66 13.98 -10 15 C-10.66 15.66 -11.32 16.32 -12 17 C-15.21657217 16.83504758 -16.56790954 16.47838586 -18.75 14.0625 C-20 12 -20 12 -21 10 C-21.66 10.99 -22.32 11.98 -23 13 C-24.125 7.25 -24.125 7.25 -23 5 C-22.01 5 -21.02 5 -20 5 C-18.68 7.64 -17.36 10.28 -16 13 C-14.86242052 8.44968209 -15.5716221 6.36915594 -17 2 C-11.49017726 0.62254432 -5.45954909 0.1801503 0 2 C0 1.34 0 0.68 0 0 Z " fill="#9152F8" transform="translate(40,25)"/>
<path d="M0 0 C2.57061106 1.90001687 3.0489541 3.17297117 3.9375 6.3125 C4.01597352 10.94243773 3.04757766 12.56170726 0 16 C-4.76462025 19.24860472 -8.43426871 19.28788265 -14 19 C-14.12375 19.639375 -14.2475 20.27875 -14.375 20.9375 C-14.58125 21.618125 -14.7875 22.29875 -15 23 C-15.66 23.33 -16.32 23.66 -17 24 C-16.814375 23.401875 -16.62875 22.80375 -16.4375 22.1875 C-15.77906313 19.83591238 -15.77906313 19.83591238 -17 17 C-20.51190809 15.77030122 -20.51190809 15.77030122 -24 15 C-24 16.98 -24 18.96 -24 21 C-25.875 20.4375 -25.875 20.4375 -28 19 C-29.4375 15.6875 -29.4375 15.6875 -30 12 C-28.69868726 9.00698071 -27.93517013 7.46758506 -25 6 C-24.7525 6.78375 -24.505 7.5675 -24.25 8.375 C-23.22415156 11.06332101 -23.22415156 11.06332101 -21.125 12.375 C-18.62856665 13.1092451 -17.39172729 12.98968026 -15 12 C-14.67 11.34 -14.34 10.68 -14 10 C-14 10.99 -14 11.98 -14 13 C-9.79377564 13.41237494 -7.68936206 13.49021302 -4.1875 11 C-1.47349299 7.27793325 -0.83904123 4.50031206 0 0 Z " fill="#6A3DCB" transform="translate(45,28)"/>
<path d="M0 0 C0.66 0.66 1.32 1.32 2 2 C1.34 2.33 0.68 2.66 0 3 C2.475 4.98 2.475 4.98 5 7 C4.01 7.33 3.02 7.66 2 8 C1.505 7.505 1.505 7.505 1 7 C0.34 7.33 -0.32 7.66 -1 8 C-1.495 7.01 -1.495 7.01 -2 6 C-9.38625924 2.93740471 -15.45881324 2.23900742 -22.8828125 5.0390625 C-26.47570642 6.66978557 -30.1768829 8.3537658 -32 12 C-34 12.66666667 -36 13.33333333 -38 14 C-37.34 12.68 -36.68 11.36 -36 10 C-35.34 10 -34.68 10 -34 10 C-33.79375 9.4225 -33.5875 8.845 -33.375 8.25 C-31.46009388 5.11651726 -29.17652523 3.77885413 -26 2 C-24.68 2 -23.36 2 -22 2 C-22 1.34 -22 0.68 -22 0 C-21.43152344 0.09539063 -20.86304687 0.19078125 -20.27734375 0.2890625 C-13.1287471 1.31540526 -6.8665233 -1.91623906 0 0 Z " fill="#B390FE" transform="translate(46,6)"/>
<path d="M0 0 C-0.99 0.33 -1.98 0.66 -3 1 C-2.67 1.99 -2.34 2.98 -2 4 C-2.88300781 3.91878906 -3.76601563 3.83757813 -4.67578125 3.75390625 C-14.13096167 3.25626518 -19.72421551 4.93273564 -27 11 C-28.35382496 12.31252182 -29.69402419 13.63985929 -31 15 C-29.43425378 9.02169625 -26.62711026 4.98808344 -21.6875 1.25 C-13.7957875 -2.42056395 -8.32297303 -1.98894576 0 0 Z " fill="#9B5FF8" transform="translate(41,10)"/>
<path d="M0 0 C2.53853515 2.20742187 3.48522637 3.6773702 4 7 C3.66015625 9.578125 3.66015625 9.578125 3.0625 12.25 C2.86785156 13.14203125 2.67320313 14.0340625 2.47265625 14.953125 C2.31667969 15.62859375 2.16070312 16.3040625 2 17 C1.34 17 0.68 17 0 17 C-0.33 17.99 -0.66 18.98 -1 20 C-1.66 20 -2.32 20 -3 20 C-3.33 20.99 -3.66 21.98 -4 23 C-6.375 23.125 -6.375 23.125 -9 23 C-9.66 22.34 -10.32 21.68 -11 21 C-11.86625 22.0209375 -11.86625 22.0209375 -12.75 23.0625 C-13.4925 23.701875 -14.235 24.34125 -15 25 C-17.25 24.75 -17.25 24.75 -19 24 C-16.02290767 20.35066102 -14.19067973 18.7987468 -9.5 18 C-4.96602567 17.176328 -2.74799508 15.86436808 0 12 C1.07838724 7.68645102 1.16890469 4.28598387 0 0 Z " fill="#2B2937" transform="translate(47,28)"/>
<path d="M0 0 C2.57061106 1.90001687 3.0489541 3.17297117 3.9375 6.3125 C4.01365024 10.80536418 2.77068575 12.55763285 0 16 C-0.99 15.67 -1.98 15.34 -3 15 C-3.33 15.33 -3.66 15.66 -4 16 C-5.51928038 16.07179964 -7.04167482 16.08392007 -8.5625 16.0625 C-9.38878906 16.05347656 -10.21507812 16.04445313 -11.06640625 16.03515625 C-12.02353516 16.01775391 -12.02353516 16.01775391 -13 16 C-11 14 -11 14 -7.5625 12.6875 C-3.64955673 10.83400056 -2.64134683 9.92099519 -1 6 C-0.28598768 2.80604974 -0.28598768 2.80604974 0 0 Z " fill="#8C48F7" transform="translate(45,28)"/>
<path d="M0 0 C0 0.66 0 1.32 0 2 C-3.3 2.66 -6.6 3.32 -10 4 C-10 4.66 -10 5.32 -10 6 C-10.99 6 -11.98 6 -13 6 C-13 6.66 -13 7.32 -13 8 C-15.64 8.66 -18.28 9.32 -21 10 C-19.32988559 4.90267166 -17.03141431 2.91982017 -12.59765625 0.09375 C-8.29644427 -1.71728662 -4.4482515 -1.02151913 0 0 Z " fill="#A465FF" transform="translate(32,16)"/>
<path d="M0 0 C1.32 1.32 2.64 2.64 4 4 C3.67 4.99 3.34 5.98 3 7 C2.278125 6.814375 1.55625 6.62875 0.8125 6.4375 C-2.15710817 5.97556095 -4.08924744 6.40292255 -7 7 C-9.0625 6.625 -9.0625 6.625 -11 6 C-12.051875 5.7525 -12.051875 5.7525 -13.125 5.5 C-15 5 -15 5 -17 4 C-17 3.34 -17 2.68 -17 2 C-11.49017726 0.62254432 -5.45954909 0.1801503 0 2 C0 1.34 0 0.68 0 0 Z " fill="#7F3FFB" transform="translate(40,25)"/>
<path d="M0 0 C0.66 0 1.32 0 2 0 C2 3 2 3 0 5.1875 C-0.66 5.785625 -1.32 6.38375 -2 7 C-0.7625 7.4125 0.475 7.825 1.75 8.25 C5.30819824 9.56855219 7.54193297 11.02983567 10 14 C9.67 14.66 9.34 15.32 9 16 C7.6328125 14.76302083 6.265625 13.52604167 4.8984375 12.2890625 C0.2460362 9.13002458 -4.37908252 8.76283842 -9.875 8.875 C-11.02742188 8.89304687 -12.17984375 8.91109375 -13.3671875 8.9296875 C-14.23601563 8.95289063 -15.10484375 8.97609375 -16 9 C-12.55549263 6.70366176 -10.06187717 6.45983515 -6 6 C-6 5.34 -6 4.68 -6 4 C-7.98 4.33 -9.96 4.66 -12 5 C-12 4.34 -12 3.68 -12 3 C-12.66 2.67 -13.32 2.34 -14 2 C-9.38 1.67 -4.76 1.34 0 1 C0 0.67 0 0.34 0 0 Z " fill="#904EFA" transform="translate(38,12)"/>
<path d="M0 0 C3 1 3 1 4 3 C4.50872093 9.10465114 4.06705978 12.11952826 0 17 C-3.6441774 19.4294516 -5.71241272 19.16179575 -10 19 C-10.33 17.35 -10.66 15.7 -11 14 C-8 14 -8 14 -5.625 14.3125 C-2.75275759 14.19561072 -2.75275759 14.19561072 -0.125 11.8125 C2.27779844 9.23817136 2.27779844 9.23817136 1.9375 6.375 C1.01541649 3.79513045 1.01541649 3.79513045 -1 1 C-0.67 0.67 -0.34 0.34 0 0 Z " fill="#26272E" transform="translate(41,23)"/>
<path d="M0 0 C2.5625 -0.4375 2.5625 -0.4375 6 0 C8.6203019 2.08682726 10.8158151 4.46686248 13 7 C12.67 7.99 12.34 8.98 12 10 C10.35 9.01 8.7 8.02 7 7 C7.33 8.65 7.66 10.3 8 12 C7.01 11.67 6.02 11.34 5 11 C5 10.34 5 9.68 5 9 C3.865625 8.731875 2.73125 8.46375 1.5625 8.1875 C0.386875 7.795625 -0.78875 7.40375 -2 7 C-2.33 6.01 -2.66 5.02 -3 4 C-1.8553125 4.2784375 -1.8553125 4.2784375 -0.6875 4.5625 C2.08967375 5.22819173 2.08967375 5.22819173 5 4 C3.35 2.68 1.7 1.36 0 0 Z " fill="#C1ABEC" transform="translate(44,8)"/>
<path d="M0 0 C0.33 0.99 0.66 1.98 1 3 C6.55493924 4.02703748 6.55493924 4.02703748 12 3 C11.21625 3.70125 10.4325 4.4025 9.625 5.125 C6.89035386 8.12008862 6.20433478 10.21494784 5 14 C4.01 14.33 3.02 14.66 2 15 C2.165 14.195625 2.33 13.39125 2.5 12.5625 C3.03191839 10.2715557 3.03191839 10.2715557 3 9 C2.01 9 1.02 9 0 9 C0 6.03 0 3.06 0 0 Z " fill="#9050F6" transform="translate(5,21)"/>
<path d="M0 0 C3.465 1.485 3.465 1.485 7 3 C6.01 3.495 6.01 3.495 5 4 C4.6278958 5.32303717 4.29369827 6.65737935 4 8 C3.67 8.33 3.34 8.66 3 9 C3.66 9.66 4.32 10.32 5 11 C2.1875 11.25 2.1875 11.25 -1 11 C-2.875 9 -2.875 9 -4 7 C-3.67 6.34 -3.34 5.68 -3 5 C-2.34 5.33 -1.68 5.66 -1 6 C-1.020625 5.195625 -1.04125 4.39125 -1.0625 3.5625 C-1 1 -1 1 0 0 Z " fill="#A974FD" transform="translate(21,42)"/>
<path d="M0 0 C1.32 0.66 2.64 1.32 4 2 C3.34 3.65 2.68 5.3 2 7 C6.29 7 10.58 7 15 7 C15 7.66 15 8.32 15 9 C12.20807795 9.05380578 9.4171859 9.09357669 6.625 9.125 C5.8309375 9.14175781 5.036875 9.15851562 4.21875 9.17578125 C2.14507985 9.19335473 0.07116759 9.10335168 -2 9 C-2.66 8.34 -3.32 7.68 -4 7 C-3.34 6.67 -2.68 6.34 -2 6 C-2.66 5.34 -3.32 4.68 -4 4 C-3.01 3.67 -2.02 3.34 -1 3 C-0.67 2.01 -0.34 1.02 0 0 Z " fill="#9051FB" transform="translate(26,46)"/>
<path d="M0 0 C3.0747688 1.76070971 3.96065743 2.90170266 5.30078125 6.25 C5.63464844 7.4875 5.96851563 8.725 6.3125 10 C6.83263672 11.85625 6.83263672 11.85625 7.36328125 13.75 C8 17 8 17 7 20 C7 19.34 7 18.68 7 18 C6.01 17.67 5.02 17.34 4 17 C3.375 15.125 3.375 15.125 3 13 C2.67 12.01 2.34 11.02 2 10 C1.34 10 0.68 10 0 10 C-0.33 8.68 -0.66 7.36 -1 6 C-0.01 6.33 0.98 6.66 2 7 C1.67 6.401875 1.34 5.80375 1 5.1875 C0 3 0 3 0 0 Z " fill="#995CFA" transform="translate(48,18)"/>
<path d="M0 0 C0.598125 0.165 1.19625 0.33 1.8125 0.5 C4.11344336 1.1114124 4.11344336 1.1114124 7 1 C8.35439668 3.70879335 8.06501451 6.00933268 8 9 C6.35 9.33 4.7 9.66 3 10 C0.59185923 6.48812804 -0.36629408 4.27343092 0 0 Z " fill="#A571F9" transform="translate(51,15)"/>
<path d="M0 0 C0.66 0.33 1.32 0.66 2 1 C2.28875 1.969375 2.5775 2.93875 2.875 3.9375 C3.66698162 7.07136304 3.66698162 7.07136304 5.9375 8.1875 C6.618125 8.455625 7.29875 8.72375 8 9 C9.5625 10.4375 9.5625 10.4375 11 12 C11.556875 12.556875 12.11375 13.11375 12.6875 13.6875 C13.120625 14.120625 13.55375 14.55375 14 15 C8.59992646 14.6624954 4.88427557 11.48997546 1 8 C-1.0625 5.25 -1.0625 5.25 -2 3 C-1 1 -1 1 0 0 Z " fill="#633BBB" transform="translate(11,41)"/>
<path d="M0 0 C-1.24735567 0.6509259 -2.49801832 1.29551669 -3.75 1.9375 C-4.44609375 2.29714844 -5.1421875 2.65679687 -5.859375 3.02734375 C-10.48712244 5.1300976 -14.97545276 5.44273674 -20 5 C-22.5 4 -22.5 4 -24 3 C-20.229231 1.1146155 -15.63906805 1.58486428 -11.48046875 1.37890625 C-7.04011427 0.89550066 -4.26531672 -1.42177224 0 0 Z " fill="#452F75" transform="translate(49,53)"/>
<path d="M0 0 C0.66 0.99 1.32 1.98 2 3 C-2.49656104 5.24828052 -6.07872966 5.16682272 -11 5 C-11.12375 5.639375 -11.2475 6.27875 -11.375 6.9375 C-11.58125 7.618125 -11.7875 8.29875 -12 9 C-12.99 9.495 -12.99 9.495 -14 10 C-13.79375 9.4225 -13.5875 8.845 -13.375 8.25 C-12.70744585 5.60482214 -12.70744585 5.60482214 -15 2 C-10.38 2 -5.76 2 -1 2 C-0.67 1.34 -0.34 0.68 0 0 Z " fill="#5D399F" transform="translate(42,42)"/>
<path d="M0 0 C-0.33 0.99 -0.66 1.98 -1 3 C-3.375 3.125 -3.375 3.125 -6 3 C-6.66 2.34 -7.32 1.68 -8 1 C-8.5775 1.680625 -9.155 2.36125 -9.75 3.0625 C-10.4925 3.701875 -11.235 4.34125 -12 5 C-14.25 4.75 -14.25 4.75 -16 4 C-13.45733185 1.08341006 -11.73629289 -0.76990847 -8 -1.9375 C-4.78417984 -2.00449625 -2.8554598 -1.4277299 0 0 Z " fill="#2E2932" transform="translate(44,48)"/>
<path d="M0 0 C4.23708212 0.4707869 6.09434427 0.96801142 9 4 C11.60611077 4.72197162 11.60611077 4.72197162 14 5 C13.67 5.66 13.34 6.32 13 7 C4.76119403 7.32309043 4.76119403 7.32309043 1 5 C0.1875 2.375 0.1875 2.375 0 0 Z " fill="#9956FF" transform="translate(24,29)"/>
<path d="M0 0 C3.94827146 0.03153571 7.12913861 0.67637738 10.8125 2.1875 C9.6875 3.6875 9.6875 3.6875 7.8125 5.1875 C4.625 5.375 4.625 5.375 1.8125 5.1875 C1.8125 4.5275 1.8125 3.8675 1.8125 3.1875 C0.8225 3.5175 -0.1675 3.8475 -1.1875 4.1875 C-3.375 2.75 -3.375 2.75 -5.1875 1.1875 C-3.6358498 -0.3641502 -2.15020239 0.0180084 0 0 Z " fill="#3D3661" transform="translate(30.1875,19.8125)"/>
<path d="M0 0 C0.66 0 1.32 0 2 0 C2.144375 1.093125 2.28875 2.18625 2.4375 3.3125 C2.88288104 6.93122987 2.88288104 6.93122987 4 10 C3.0625 12.1875 3.0625 12.1875 2 14 C-1.54583971 10.29999334 -1.76051177 6.94942337 -2 2 C-1.34 1.34 -0.68 0.68 0 0 Z " fill="#342D3C" transform="translate(22,25)"/>
<path d="M0 0 C0.7425 0.391875 1.485 0.78375 2.25 1.1875 C2.25 1.8475 2.25 2.5075 2.25 3.1875 C1.26 3.1875 0.27 3.1875 -0.75 3.1875 C-0.75 3.8475 -0.75 4.5075 -0.75 5.1875 C-3.39 5.8475 -6.03 6.5075 -8.75 7.1875 C-7.83178464 4.35633598 -6.98342141 2.43701943 -4.9375 0.25 C-2.75 -0.8125 -2.75 -0.8125 0 0 Z " fill="#9E5EFD" transform="translate(19.75,18.8125)"/>
<path d="M0 0 C0.99 0.33 1.98 0.66 3 1 C0.09448452 4.12901667 -3.26705888 6.21091768 -6.84375 8.5 C-8.8029842 9.86294553 -10.38078597 11.25623104 -12 13 C-11.47361886 9.40306221 -10.47060247 7.41595712 -7.74609375 5.0078125 C-2.7907485 1.41572817 -2.7907485 1.41572817 0 0 Z " fill="#2F2937" transform="translate(22,12)"/>
<path d="M0 0 C2.0625 -0.4375 2.0625 -0.4375 5 0 C7.57260172 2.12080183 9.79254499 4.50627561 12 7 C11.67 7.99 11.34 8.98 11 10 C10.0925 9.236875 9.185 8.47375 8.25 7.6875 C6.42735806 6.16216844 4.60914733 4.71478318 2.6875 3.3125 C1 2 1 2 0 0 Z " fill="#C7BBEA" transform="translate(39,16)"/>
<path d="M0 0 C1.60332791 -0.08121924 3.20784026 -0.13929134 4.8125 -0.1875 C6.15248047 -0.23970703 6.15248047 -0.23970703 7.51953125 -0.29296875 C10 0 10 0 13 3 C8.38 3 3.76 3 -1 3 C-0.67 2.01 -0.34 1.02 0 0 Z " fill="#483875" transform="translate(26,11)"/>
<path d="M0 0 C2.5625 -0.4375 2.5625 -0.4375 6 0 C8.6203019 2.08682726 10.8158151 4.46686248 13 7 C12.67 7.99 12.34 8.98 12 10 C11.46890625 9.52949219 10.9378125 9.05898438 10.390625 8.57421875 C9.68421875 7.95160156 8.9778125 7.32898438 8.25 6.6875 C7.20585938 5.76517578 7.20585938 5.76517578 6.140625 4.82421875 C4.14885494 3.12685266 2.11101085 1.54522191 0 0 Z " fill="#C0B2DB" transform="translate(44,8)"/>
<path d="M0 0 C3.29485231 3.29485231 3.71211884 4.48986176 4 9 C3.34 9.66 2.68 10.32 2 11 C1.01 10.67 0.02 10.34 -1 10 C-0.67 6.7 -0.34 3.4 0 0 Z " fill="#7D3DF8" transform="translate(45,28)"/>
<path d="M0 0 C3 1 3 1 4 3 C4.039992 4.99960012 4.04346799 7.00047242 4 9 C2.68 9 1.36 9 0 9 C0 6.03 0 3.06 0 0 Z " fill="#8544FE" transform="translate(52,35)"/>
<path d="M0 0 C0.66 0 1.32 0 2 0 C4.33693288 2.51003902 5.00718508 4.36052808 4.96875 7.78125 C4.71327919 10.53465764 4.39773993 13.26374099 4 16 C2.35982771 13.08487597 1.70197168 10.76309069 1.4375 7.4375 C1.20957595 4.67915381 0.88649112 2.65947335 0 0 Z " fill="#7537ED" transform="translate(48,28)"/>
<path d="M0 0 C4.29 0.33 8.58 0.66 13 1 C12.67 1.66 12.34 2.32 12 3 C10.02 3 8.04 3 6 3 C5.67 3.66 5.34 4.32 5 5 C3.33333333 3.33333333 1.66666667 1.66666667 0 0 Z " fill="#9862F1" transform="translate(28,3)"/>
<path d="M0 0 C0.33 1.32 0.66 2.64 1 4 C1.99 4 2.98 4 4 4 C4.33 3.01 4.66 2.02 5 1 C5.33 1.66 5.66 2.32 6 3 C5.01 4.485 5.01 4.485 4 6 C3.60986284 7.9896995 3.26797351 9.99019869 3 12 C0.50494038 9.50494038 0.64051624 8.32671112 0.375 4.875 C0.30023437 3.96492188 0.22546875 3.05484375 0.1484375 2.1171875 C0.09945313 1.41851563 0.05046875 0.71984375 0 0 Z " fill="#7238EA" transform="translate(4,26)"/>
<path d="M0 0 C0.99 0 1.98 0 3 0 C3.66 1.98 4.32 3.96 5 6 C4.01 5.67 3.02 5.34 2 5 C1.34 5.99 0.68 6.98 0 8 C-1.125 2.25 -1.125 2.25 0 0 Z " fill="#8443F7" transform="translate(17,30)"/>
<path d="M0 0 C1.5625 1.25 1.5625 1.25 3 3 C2.625 4.9375 2.625 4.9375 2 7 C2.37907282 9.18703385 2.37907282 9.18703385 3 11 C0 9 0 9 -0.75 6.0625 C-1 3 -1 3 0 0 Z " fill="#5B3AB0" transform="translate(16,37)"/>
<path d="M0 0 C1.32 0 2.64 0 4 0 C2.44499019 3.81684226 -0.03595495 6.19195732 -3 9 C-3.33 8.01 -3.66 7.02 -4 6 C-3.01 5.34 -2.02 4.68 -1 4 C-0.27617533 1.94074861 -0.27617533 1.94074861 0 0 Z " fill="#4E3885" transform="translate(56,40)"/>
<path d="M0 0 C0.99 0 1.98 0 3 0 C2.34 1.98 1.68 3.96 1 6 C0.01 6 -0.98 6 -2 6 C-2 6.66 -2 7.32 -2 8 C-2.66 7.67 -3.32 7.34 -4 7 C-2.68 4.69 -1.36 2.38 0 0 Z " fill="#5A3AB3" transform="translate(19,24)"/>
<path d="M0 0 C4.61513112 1.31860889 8.09897612 3.21355437 12 6 C11.01 6.33 10.02 6.66 9 7 C6.73828125 5.8203125 6.73828125 5.8203125 4.3125 4.125 C3.50425781 3.57070313 2.69601563 3.01640625 1.86328125 2.4453125 C1.24839844 1.96835937 0.63351562 1.49140625 0 1 C0 0.67 0 0.34 0 0 Z " fill="#312D3B" transform="translate(13,49)"/>
<path d="M0 0 C3.269209 1.6346045 3.73207281 4.71491593 5 8 C5 8.66 5 9.32 5 10 C4.34 10 3.68 10 3 10 C0.96564469 6.27034861 0 4.33094958 0 0 Z " fill="#9D5EFD" transform="translate(12,38)"/>
<path d="M0 0 C0.66 0.33 1.32 0.66 2 1 C1.67 2.98 1.34 4.96 1 7 C0.01 6.34 -0.98 5.68 -2 5 C-1.125 1.125 -1.125 1.125 0 0 Z M-2 7 C-1.34 7 -0.68 7 0 7 C-0.33 7.66 -0.66 8.32 -1 9 C-1.33 8.34 -1.66 7.68 -2 7 Z " fill="#8142FF" transform="translate(11,34)"/>
<path d="M0 0 C0.99 0 1.98 0 3 0 C3 0.99 3 1.98 3 3 C-0.13498292 4.85776765 -2.37471432 5.20140476 -6 5 C-5.67 4.34 -5.34 3.68 -5 3 C-3.66666667 2.66666667 -2.33333333 2.33333333 -1 2 C-0.67 1.34 -0.34 0.68 0 0 Z " fill="#854CEA" transform="translate(38,33)"/>
<path d="M0 0 C0 0.33 0 0.66 0 1 C-4.53701494 2.45184478 -8.18061476 3.23509196 -13 3 C-13 2.34 -13 1.68 -13 1 C-8.59085217 -0.10228696 -4.51617599 -0.07654536 0 0 Z " fill="#7939F0" transform="translate(36,26)"/>
<path d="M0 0 C3 1 3 1 4 3 C4.13415472 5.6723621 4.04318541 8.32250488 4 11 C1.60351761 8.60351761 1.63467629 7.25271597 1 4 C0.34 3.01 -0.32 2.02 -1 1 C-0.67 0.67 -0.34 0.34 0 0 Z " fill="#3F3261" transform="translate(41,23)"/>
<path d="M0 0 C0.99 0.33 1.98 0.66 3 1 C0.69 3.64 -1.62 6.28 -4 9 C-4.33 8.34 -4.66 7.68 -5 7 C-1.125 1.125 -1.125 1.125 0 0 Z " fill="#9456F8" transform="translate(11,12)"/>
<path d="M0 0 C-1.26418246 0.69965443 -2.53665402 1.38434763 -3.8125 2.0625 C-4.52019531 2.44535156 -5.22789063 2.82820313 -5.95703125 3.22265625 C-8 4 -8 4 -11 3 C-9.73581754 2.30034557 -8.46334598 1.61565237 -7.1875 0.9375 C-6.47980469 0.55464844 -5.77210937 0.17179687 -5.04296875 -0.22265625 C-3 -1 -3 -1 0 0 Z " fill="#2E2E3C" transform="translate(49,53)"/>
<path d="M0 0 C2.97 1.65 5.94 3.3 9 5 C9 5.33 9 5.66 9 6 C6.1875 6.25 6.1875 6.25 3 6 C1.125 4.125 1.125 4.125 0 2 C0 1.34 0 0.68 0 0 Z " fill="#AF87F7" transform="translate(17,47)"/>
<path d="M0 0 C0.66 0.33 1.32 0.66 2 1 C1.67 2.32 1.34 3.64 1 5 C-0.65 5 -2.3 5 -4 5 C-4.33 4.34 -4.66 3.68 -5 3 C-2.625 1.4375 -2.625 1.4375 0 0 Z " fill="#1A1C1A" transform="translate(45,43)"/>
<path d="M0 0 C1.32 1.32 2.64 2.64 4 4 C3.67 4.33 3.34 4.66 3 5 C2.95919217 6.99958364 2.95745644 9.00045254 3 11 C2.34 11 1.68 11 1 11 C0.34 9.02 -0.32 7.04 -1 5 C-0.34 5 0.32 5 1 5 C0.67 3.35 0.34 1.7 0 0 Z " fill="#8B4AFF" transform="translate(18,38)"/>
<path d="M0 0 C0.66 0 1.32 0 2 0 C2 0.66 2 1.32 2 2 C3.11375 1.690625 3.11375 1.690625 4.25 1.375 C7.32330841 0.95591249 8.42786866 1.38050989 11 3 C3.375 4.25 3.375 4.25 0 2 C0 1.34 0 0.68 0 0 Z " fill="#6C42B4" transform="translate(35,50)"/>
<path d="M0 0 C2.31 0 4.62 0 7 0 C7 0.99 7 1.98 7 3 C5.02 3 3.04 3 1 3 C0.67 2.01 0.34 1.02 0 0 Z " fill="#A562FF" transform="translate(30,33)"/>
<path d="M0 0 C3 3.625 3 3.625 3 7 C2.34 7 1.68 7 1 7 C1 6.34 1 5.68 1 5 C-0.32 4.34 -1.64 3.68 -3 3 C-2.01 2.01 -1.02 1.02 0 0 Z " fill="#9151F4" transform="translate(59,29)"/>
<path d="M0 0 C1.31602523 0.61754259 2.62773556 1.24428742 3.9375 1.875 C4.66839844 2.22304688 5.39929687 2.57109375 6.15234375 2.9296875 C8 4 8 4 9 6 C5.33118845 5.29445932 2.29549466 3.72264494 -1 2 C-0.67 1.34 -0.34 0.68 0 0 Z " fill="#B087FD" transform="translate(39,18)"/>
<path d="M0 0 C1.32 0.33 2.64 0.66 4 1 C4.33 2.65 4.66 4.3 5 6 C4.01 5.67 3.02 5.34 2 5 C2 4.34 2 3.68 2 3 C1.34 3 0.68 3 0 3 C0 2.01 0 1.02 0 0 Z " fill="#B592FC" transform="translate(51,15)"/>
<path d="M0 0 C1.32 0.66 2.64 1.32 4 2 C2.75 3.5625 2.75 3.5625 1 5 C-1.1875 4.6875 -1.1875 4.6875 -3 4 C-2.01 2.68 -1.02 1.36 0 0 Z " fill="#3F3A5C" transform="translate(31,48)"/>
<path d="M0 0 C2.97 0.495 2.97 0.495 6 1 C5.01 1.495 5.01 1.495 4 2 C4 2.66 4 3.32 4 4 C2.68 4 1.36 4 0 4 C0 2.68 0 1.36 0 0 Z " fill="#C1B2E4" transform="translate(22,44)"/>
<path d="M0 0 C1.32 0 2.64 0 4 0 C3.67 1.65 3.34 3.3 3 5 C2.01 5 1.02 5 0 5 C0 3.35 0 1.7 0 0 Z " fill="#9853FF" transform="translate(5,25)"/>
<path d="M0 0 C2.97 0 5.94 0 9 0 C9 0.99 9 1.98 9 3 C6.03 2.67 3.06 2.34 0 2 C0 1.34 0 0.68 0 0 Z " fill="#5D3BB4" transform="translate(31,24)"/>
<path d="M0 0 C-1.38081223 4.1424367 -3.59825558 5.32203099 -7 8 C-4.73913043 0 -4.73913043 0 0 0 Z " fill="#342C46" transform="translate(17,17)"/>
<path d="M0 0 C1.65 0 3.3 0 5 0 C5 0.66 5 1.32 5 2 C1.92677456 2.91058531 -0.80097361 3.08886184 -4 3 C-4.33 2.34 -4.66 1.68 -5 1 C-2.525 1.495 -2.525 1.495 0 2 C0 1.34 0 0.68 0 0 Z " fill="#AD7DFF" transform="translate(27,16)"/>
<path d="M0 0 C2.31 1.65 4.62 3.3 7 5 C5.68 5.33 4.36 5.66 3 6 C1.68 4.35 0.36 2.7 -1 1 C-0.67 0.67 -0.34 0.34 0 0 Z " fill="#9B5AFF" transform="translate(21,36)"/>
<path d="M0 0 C0.66 0 1.32 0 2 0 C2.33 2.64 2.66 5.28 3 8 C2.67 7.34 2.34 6.68 2 6 C1.01 5.67 0.02 5.34 -1 5 C-0.67 3.35 -0.34 1.7 0 0 Z " fill="#A26DFE" transform="translate(53,30)"/>
<path d="M0 0 C0.33 0.99 0.66 1.98 1 3 C-0.3125 5.1875 -0.3125 5.1875 -2 7 C-2.66 7 -3.32 7 -4 7 C-2.92598892 4.08482708 -2.22189824 2.22189824 0 0 Z " fill="#3E3A62" transform="translate(17,24)"/>
<path d="M0 0 C0.598125 0.350625 1.19625 0.70125 1.8125 1.0625 C1.4825 1.7225 1.1525 2.3825 0.8125 3.0625 C-1.625 2.6875 -1.625 2.6875 -4.1875 2.0625 C-4.5175 1.4025 -4.8475 0.7425 -5.1875 0.0625 C-2.1875 -0.9375 -2.1875 -0.9375 0 0 Z " fill="#44357A" transform="translate(24.1875,21.9375)"/>
<path d="M0 0 C6.625 -0.25 6.625 -0.25 10 2 C5.94568308 3.15837626 3.78187881 2.83691257 0 1 C0 0.67 0 0.34 0 0 Z " fill="#9254FF" transform="translate(31,9)"/>
<path d="M0 0 C0.66 0.33 1.32 0.66 2 1 C1.01 1 0.02 1 -1 1 C-0.67 0.67 -0.34 0.34 0 0 Z " fill="#282628" transform="translate(51,49)"/>
<path d="" fill="#332C31" transform="translate(0,0)"/>
<path d="" fill="#383537" transform="translate(0,0)"/>
</svg>
