<?xml version="1.0" encoding="UTF-8"?>
<svg version="1.1" xmlns="http://www.w3.org/2000/svg" width="62" height="62">
<path d="M0 0 C5.53158573 5.38208341 8.3895494 11.24198291 8.625 18.9375 C8.57626784 24.44423451 6.91841149 28.47092767 4.3125 33.25 C3.77625 34.260625 3.24 35.27125 2.6875 36.3125 C2.23375 36.951875 1.78 37.59125 1.3125 38.25 C0.6525 38.25 -0.0075 38.25 -0.6875 38.25 C-0.935 38.889375 -1.1825 39.52875 -1.4375 40.1875 C-2.6875 42.25 -2.6875 42.25 -4.8125 43 C-5.43125 43.0825 -6.05 43.165 -6.6875 43.25 C-6.6875 43.91 -6.6875 44.57 -6.6875 45.25 C-15.05587623 48.73682343 -22.76815546 49.57086435 -31.41796875 46.359375 C-37.89585996 43.1929015 -43.29127243 38.65058272 -46.6875 32.25 C-47.0071875 31.69054688 -47.326875 31.13109375 -47.65625 30.5546875 C-50.75239431 24.17556259 -49.58733002 17.87504827 -47.6875 11.25 C-44.15076927 3.27455353 -37.97669035 -1.48885136 -30.07421875 -4.8671875 C-19.15669929 -8.90541892 -9.3287828 -6.07455624 0 0 Z M-31.6875 5.25 C-30.6875 7.25 -30.6875 7.25 -30.6875 7.25 Z M-28.6875 13.25 C-28.6875 16.25 -28.6875 16.25 -28.6875 16.25 Z M-31.6875 20.25 C-30.6875 22.25 -30.6875 22.25 -30.6875 22.25 Z M-17.6875 30.25 C-16.6875 32.25 -16.6875 32.25 -16.6875 32.25 Z M-10.6875 36.25 C-11.6775 37.735 -11.6775 37.735 -12.6875 39.25 C-11.2025 40.24 -11.2025 40.24 -9.6875 41.25 C-9.3575 39.93 -9.0275 38.61 -8.6875 37.25 C-9.3475 36.92 -10.0075 36.59 -10.6875 36.25 Z " fill="#B079F9" transform="translate(52.6875,9.75)"/>
<path d="M0 0 C5.53158573 5.38208341 8.3895494 11.24198291 8.625 18.9375 C8.55974934 26.31082476 5.24052855 32.16155575 1.3125 38.25 C0.3225 37.755 0.3225 37.755 -0.6875 37.25 C-0.4090625 35.6721875 -0.4090625 35.6721875 -0.125 34.0625 C0.27245992 30.5989207 0.09728565 28.5635394 -0.6875 25.25 C-0.666875 24.425 -0.64625 23.6 -0.625 22.75 C-0.73837934 18.21482653 -2.1332738 15.83126163 -5.25 12.5625 C-6.054375 11.799375 -6.85875 11.03625 -7.6875 10.25 C-8.1825 9.26 -8.1825 9.26 -8.6875 8.25 C-9.6775 8.58 -10.6675 8.91 -11.6875 9.25 C-14.25384861 9.47718496 -16.80428107 9.66608184 -19.375 9.8125 C-20.4278418 9.87727539 -20.4278418 9.87727539 -21.50195312 9.94335938 C-23.23025206 10.0491736 -24.9588511 10.15006581 -26.6875 10.25 C-25.6975 8.27 -24.7075 6.29 -23.6875 4.25 C-22.6975 4.25 -21.7075 4.25 -20.6875 4.25 C-20.6875 3.26 -20.6875 2.27 -20.6875 1.25 C-21.27917969 1.45496094 -21.87085937 1.65992188 -22.48046875 1.87109375 C-23.27066406 2.14050781 -24.06085937 2.40992188 -24.875 2.6875 C-25.65230469 2.95433594 -26.42960937 3.22117187 -27.23046875 3.49609375 C-29.6875 4.25 -29.6875 4.25 -32.2578125 4.55859375 C-37.09385839 5.93476758 -39.31468588 11.09145978 -41.6875 15.25 C-42.64280046 17.62987132 -43.19309718 19.72305224 -43.6875 22.25 C-44.3475 21.26 -45.0075 20.27 -45.6875 19.25 C-46.6775 20.24 -47.6675 21.23 -48.6875 22.25 C-49.34895158 15.10632289 -47.64848194 10.22657022 -43.6875 4.25 C-38.70425209 -1.53699757 -32.04901711 -4.51739734 -24.8125 -6.5625 C-15.01760057 -7.15019397 -8.12580483 -5.29122175 0 0 Z " fill="#AD6AFF" transform="translate(52.6875,9.75)"/>
<path d="M0 0 C0 0.66 0 1.32 0 2 C0.61875 2.12375 1.2375 2.2475 1.875 2.375 C4 3 4 3 6 5 C6 5.99 6 6.98 6 8 C6.66 8 7.32 8 8 8 C7.98839844 8.60328125 7.97679687 9.2065625 7.96484375 9.828125 C7.95582031 10.62734375 7.94679687 11.4265625 7.9375 12.25 C7.92589844 13.03890625 7.91429687 13.8278125 7.90234375 14.640625 C7.90592813 16.97503555 7.90592813 16.97503555 8.5859375 19.0390625 C9.10888754 21.51567496 8.62242823 22.79432583 7.6875 25.125 C7.29111328 26.14980469 7.29111328 26.14980469 6.88671875 27.1953125 C6 29 6 29 4 31 C3.01 31 2.02 31 1 31 C1 31.66 1 32.32 1 33 C-8.61842533 37.00767722 -16.30829582 36.84918748 -26 33 C-25.67 32.34 -25.34 31.68 -25 31 C-24.31550781 31.16371094 -23.63101562 31.32742187 -22.92578125 31.49609375 C-19.6256722 32.06447034 -16.53445931 32.09630767 -13.1875 32.0625 C-11.44533203 32.04896484 -11.44533203 32.04896484 -9.66796875 32.03515625 C-8.34732422 32.01775391 -8.34732422 32.01775391 -7 32 C-8.65 31.67 -10.3 31.34 -12 31 C-11.67 29.02 -11.34 27.04 -11 25 C-10.01 24.67 -9.02 24.34 -8 24 C-9.04800781 24.03480469 -9.04800781 24.03480469 -10.1171875 24.0703125 C-11.02726562 24.08835937 -11.93734375 24.10640625 -12.875 24.125 C-14.23238281 24.15980469 -14.23238281 24.15980469 -15.6171875 24.1953125 C-18 24 -18 24 -20 22 C-19.23816406 21.98582031 -18.47632813 21.97164062 -17.69140625 21.95703125 C-10.2482807 21.61321646 -5.15722441 20.2136561 1 16 C0.34 17.32 -0.32 18.64 -1 20 C-0.67 20 -0.34 20 0 20 C3.58655099 16.41344901 3.59659171 12.84089953 4 8 C2.68 7.67 1.36 7.34 0 7 C-0.103125 7.886875 -0.20625 8.77375 -0.3125 9.6875 C-1.03955027 13.1905604 -1.75923274 15.21835789 -4 18 C-6.875 19.5625 -6.875 19.5625 -10 20 C-12.875 18.125 -12.875 18.125 -15 16 C-14.36191406 15.80664062 -13.72382813 15.61328125 -13.06640625 15.4140625 C-12.24011719 15.15367188 -11.41382813 14.89328125 -10.5625 14.625 C-9.73878906 14.36976562 -8.91507813 14.11453125 -8.06640625 13.8515625 C-5.82201984 13.19117773 -5.82201984 13.19117773 -5 11 C-4.34 11 -3.68 11 -3 11 C-3.33 8.69 -3.66 6.38 -4 4 C-9.94 4.495 -9.94 4.495 -16 5 C-16 5.66 -16 6.32 -16 7 C-17.670625 7.2165625 -17.670625 7.2165625 -19.375 7.4375 C-22.82142047 7.78372035 -22.82142047 7.78372035 -25 9 C-25.66 7.68 -26.32 6.36 -27 5 C-25.35 4.01 -23.7 3.02 -22 2 C-21.67 2.33 -21.34 2.66 -21 3 C-20.7525 2.360625 -20.505 1.72125 -20.25 1.0625 C-19 -1 -19 -1 -17.23046875 -1.6171875 C-11.41800463 -2.61477329 -5.30613415 -2.82993821 0 0 Z M-3 24 C-3.99 25.485 -3.99 25.485 -5 27 C-3.515 27.99 -3.515 27.99 -2 29 C-1.67 27.68 -1.34 26.36 -1 25 C-1.66 24.67 -2.32 24.34 -3 24 Z " fill="#7839F1" transform="translate(45,22)"/>
<path d="M0 0 C0 0.99 0 1.98 0 3 C-0.99 3.33 -1.98 3.66 -3 4 C-2.34 4.66 -1.68 5.32 -1 6 C-2.32 6 -3.64 6 -5 6 C-5 6.66 -5 7.32 -5 8 C-3.19402344 7.87431641 -3.19402344 7.87431641 -1.3515625 7.74609375 C0.22393916 7.6429359 1.79946109 7.54008734 3.375 7.4375 C4.1690625 7.38142578 4.963125 7.32535156 5.78125 7.26757812 C11.7734375 6.88671875 11.7734375 6.88671875 14 8 C14 8.99 14 9.98 14 11 C16.475 11.99 16.475 11.99 19 13 C18.34 13.66 17.68 14.32 17 15 C16.071875 14.360625 15.14375 13.72125 14.1875 13.0625 C8.80284915 9.57831416 4.2341063 9.60911552 -2 10 C-4.74858021 10.63215742 -4.74858021 10.63215742 -7 12 C-8.051875 12.5775 -9.10375 13.155 -10.1875 13.75 C-13.50069778 16.40055822 -14.25464732 17.85915179 -15 22 C-14.78249417 25.55259526 -14.25268151 27.59182217 -12.375 30.625 C-11 33 -11 33 -11.3125 35.3125 C-11.539375 35.869375 -11.76625 36.42625 -12 37 C-14 35.1875 -14 35.1875 -16 33 C-16 32.01 -16 31.02 -16 30 C-17.38383384 33.03489399 -17.38383384 33.03489399 -15.6875 36 C-14.0236066 39.04642631 -14.0236066 39.04642631 -12 42 C-12.99 42.495 -12.99 42.495 -14 43 C-21.91141997 37.58490186 -26.13526229 32.1973158 -29 23 C-28.00102287 20.00306862 -27.34869747 18.97290587 -25 17 C-24.34 17 -23.68 17 -23 17 C-22.46375 16.01 -21.9275 15.02 -21.375 14 C-18.94369402 9.72335027 -16.0192913 5.87475717 -13 2 C-12.3915625 2.19464844 -11.783125 2.38929687 -11.15625 2.58984375 C-7.17926985 3.34633454 -4.39504723 0 0 0 Z M-11 4 C-10 6 -10 6 -10 6 Z " fill="#9A58E9" transform="translate(32,11)"/>
<path d="M0 0 C5.10002772 4.41083479 7.43089516 8.69701216 8.3203125 15.421875 C8.70924295 23.77091542 5.44709104 30.10700889 1 37 C0.34 36.67 -0.32 36.34 -1 36 C-0.814375 34.948125 -0.62875 33.89625 -0.4375 32.8125 C-0.04004008 29.3489207 -0.21521435 27.3135394 -1 24 C-0.979375 23.154375 -0.95875 22.30875 -0.9375 21.4375 C-1.00622149 18.75736177 -1.64717359 17.28289457 -3 15 C-2.34 15 -1.68 15 -1 15 C0.2890625 16.53125 0.2890625 16.53125 1.625 18.5 C2.29402344 19.47453125 2.29402344 19.47453125 2.9765625 20.46875 C3.31429687 20.9740625 3.65203125 21.479375 4 22 C3.67 20.35 3.34 18.7 3 17 C2.01 16.67 1.02 16.34 0 16 C-0.0928125 14.948125 -0.0928125 14.948125 -0.1875 13.875 C-1.29201202 9.9667267 -3.28230992 7.99642752 -6 5 C-5.195625 4.731875 -4.39125 4.46375 -3.5625 4.1875 C-2.716875 3.795625 -1.87125 3.40375 -1 3 C-0.67 2.01 -0.34 1.02 0 0 Z " fill="#A55FF7" transform="translate(53,11)"/>
<path d="M0 0 C0 2.31 0 4.62 0 7 C-0.66 7 -1.32 7 -2 7 C-2.33 7.99 -2.66 8.98 -3 10 C-4.92578125 10.984375 -4.92578125 10.984375 -7.3125 11.75 C-8.09238281 12.01296875 -8.87226562 12.2759375 -9.67578125 12.546875 C-12.16921091 13.03298902 -13.6181897 12.80665429 -16 12 C-16 12.66 -16 13.32 -16 14 C-17.9375 13.375 -17.9375 13.375 -20 12 C-20.99184231 8.41410857 -21.18429132 6.55287397 -20 3 C-18.5459375 2.814375 -18.5459375 2.814375 -17.0625 2.625 C-15.5465625 2.315625 -15.5465625 2.315625 -14 2 C-13.67 1.34 -13.34 0.68 -13 0 C-10.56640625 -0.44921875 -10.56640625 -0.44921875 -7.5625 -0.6875 C-6.57378906 -0.77386719 -5.58507812 -0.86023438 -4.56640625 -0.94921875 C-2 -1 -2 -1 0 0 Z " fill="#8F43FF" transform="translate(42,26)"/>
<path d="M0 0 C6.625 0.75 6.625 0.75 10 3 C9.75 5.375 9.75 5.375 9 8 C6.9375 9.3125 6.9375 9.3125 5 10 C5.433125 10.38671875 5.86625 10.7734375 6.3125 11.171875 C6.869375 11.69265625 7.42625 12.2134375 8 12.75 C8.556875 13.26046875 9.11375 13.7709375 9.6875 14.296875 C11 16 11 16 11 20 C12.39588754 21.64594139 12.39588754 21.64594139 14 23 C15.35439668 25.70879335 15.06501451 28.00933268 15 31 C14.67 31 14.34 31 14 31 C13.731875 30.0925 13.46375 29.185 13.1875 28.25 C12.09683752 25.26502899 10.93197145 23.45887276 9 21 C9 20.34 9 19.68 9 19 C8.34 18.67 7.68 18.34 7 18 C2.23255814 13.46511628 2.23255814 13.46511628 1 11 C0.01 11.33 -0.98 11.66 -2 12 C-4.56634861 12.22718496 -7.11678107 12.41608184 -9.6875 12.5625 C-10.38939453 12.60568359 -11.09128906 12.64886719 -11.81445312 12.69335938 C-13.54275206 12.7991736 -15.2713511 12.90006581 -17 13 C-16.67 12.01 -16.34 11.02 -16 10 C-13.93359375 9.26953125 -13.93359375 9.26953125 -11.4375 8.8125 C-10.61121094 8.65394531 -9.78492188 8.49539063 -8.93359375 8.33203125 C-8.29550781 8.22246094 -7.65742187 8.11289063 -7 8 C-7 6.35 -7 4.7 -7 3 C-4.69 3 -2.38 3 0 3 C0 2.01 0 1.02 0 0 Z " fill="#BC9DF4" transform="translate(43,7)"/>
<path d="M0 0 C0.66 0.66 1.32 1.32 2 2 C1.86328125 4.05859375 1.86328125 4.05859375 1.3125 6.4375 C1.14363281 7.21996094 0.97476563 8.00242187 0.80078125 8.80859375 C-0.09486073 11.25959449 -0.92545292 12.4302089 -3 14 C-3.99 14 -4.98 14 -6 14 C-6 14.66 -6 15.32 -6 16 C-15.61842533 20.00767722 -23.30829582 19.84918748 -33 16 C-32.67 15.34 -32.34 14.68 -32 14 C-31.31550781 14.16371094 -30.63101562 14.32742187 -29.92578125 14.49609375 C-26.6256722 15.06447034 -23.53445931 15.09630767 -20.1875 15.0625 C-18.44533203 15.04896484 -18.44533203 15.04896484 -16.66796875 15.03515625 C-15.78753906 15.02355469 -14.90710938 15.01195312 -14 15 C-16.475 14.505 -16.475 14.505 -19 14 C-18.67 12.02 -18.34 10.04 -18 8 C-16.02 7.67 -14.04 7.34 -12 7 C-11.34 8.32 -10.68 9.64 -10 11 C-4.76482597 8.60677759 -2.70111357 4.83901623 0 0 Z " fill="#A054FB" transform="translate(52,39)"/>
<path d="M0 0 C0.99 0.33 1.98 0.66 3 1 C2.27683594 2.06927734 2.27683594 2.06927734 1.5390625 3.16015625 C-4.36245435 11.55755452 -4.36245435 11.55755452 -5.74609375 21.40625 C-4.86969034 24.4530137 -3.57562289 26.18916316 -1.5625 28.625 C0.41936067 31.04957276 2.25990001 33.38985002 4 36 C3.01 36.495 3.01 36.495 2 37 C-5.91141997 31.58490186 -10.13526229 26.1973158 -13 17 C-12.00102287 14.00306862 -11.34869747 12.97290587 -9 11 C-8.34 11 -7.68 11 -7 11 C-6.401875 9.9275 -5.80375 8.855 -5.1875 7.75 C-3.62598931 5.01041007 -1.97394497 2.46743122 0 0 Z " fill="#8540F4" transform="translate(16,17)"/>
<path d="M0 0 C2.86724686 0.57344937 3.8614515 0.8614515 6 3 C6 3.99 6 4.98 6 6 C6.66 6 7.32 6 8 6 C7.9735492 13.19461661 7.10181703 17.95525955 2.5703125 23.63671875 C1 25 1 25 -2 25 C-2.33 24.34 -2.66 23.68 -3 23 C-7.18969316 21.64848608 -11.45008795 21.99737961 -15.79296875 22.16015625 C-18 22 -18 22 -20 20 C-19.23816406 19.98582031 -18.47632812 19.97164062 -17.69140625 19.95703125 C-10.2482807 19.61321646 -5.15722441 18.2136561 1 14 C0.34 15.32 -0.32 16.64 -1 18 C-0.67 18 -0.34 18 0 18 C3.04173643 14.95826357 3.62383634 12.03002102 4.0078125 7.8984375 C3.99275022 4.23830401 2.49867616 2.49867616 0 0 Z " fill="#262628" transform="translate(45,24)"/>
<path d="M0 0 C3.63 0 7.26 0 11 0 C11.66 1.32 12.32 2.64 13 4 C10.23735711 4.59732819 7.83967231 5 5 5 C6.58272601 6.58272601 8.38034003 6.34735747 10.5625 6.5625 C11.38878906 6.64628906 12.21507812 6.73007812 13.06640625 6.81640625 C13.70449219 6.87699219 14.34257813 6.93757813 15 7 C12.4013299 9.5986701 10.60157242 9.63249261 7 10 C6.01 9.67 5.02 9.34 4 9 C4 9.66 4 10.32 4 11 C2.0625 10.375 2.0625 10.375 0 9 C-0.99184231 5.41410857 -1.18429132 3.55287397 0 0 Z " fill="#A250FE" transform="translate(22,29)"/>
<path d="M0 0 C0.93094748 2.68940383 1.00234098 3.99042325 0.3125 6.8125 C-0.0273679 10.27915258 0.24267395 10.82407418 2 13.625 C4 17 4 17 3.75 19.4375 C3.5025 19.953125 3.255 20.46875 3 21 C1 19.1875 1 19.1875 -1 17 C-1 16.01 -1 15.02 -1 14 C-2.04449911 17.13349732 -1.93423645 17.98968256 -1 21 C-3.64752004 18.42215154 -5.94432065 16.08351902 -8 13 C-8 11.68 -8 10.36 -8 9 C-7.38125 8.773125 -6.7625 8.54625 -6.125 8.3125 C-3.36681217 6.6089134 -3.05034149 5.00097569 -2 2 C-1.34 1.34 -0.68 0.68 0 0 Z " fill="#8B42FE" transform="translate(17,27)"/>
<path d="M0 0 C-1.98 0.33 -3.96 0.66 -6 1 C-6 2.65 -6 4.3 -6 6 C-4.35 6.33 -2.7 6.66 -1 7 C-1.33 7.66 -1.66 8.32 -2 9 C-6.29 9 -10.58 9 -15 9 C-15.33 8.01 -15.66 7.02 -16 6 C-15.01 6 -14.02 6 -13 6 C-13.99 5.01 -14.98 4.02 -16 3 C-14 0 -14 0 -11.50390625 -0.546875 C-10.04791016 -0.64742187 -10.04791016 -0.64742187 -8.5625 -0.75 C-7.11037109 -0.86601563 -7.11037109 -0.86601563 -5.62890625 -0.984375 C-3 -1 -3 -1 0 0 Z " fill="#BC94F4" transform="translate(40,46)"/>
<path d="M0 0 C0.66 0.33 1.32 0.66 2 1 C2.76681614 8.66816143 2.76681614 8.66816143 0.88671875 11.93359375 C-0.5 13.5625 -0.5 13.5625 -3 16 C-3.66 15.67 -4.32 15.34 -5 15 C-4.34 14.01 -3.68 13.02 -3 12 C-4.051875 12.680625 -5.10375 13.36125 -6.1875 14.0625 C-8.90327009 15.6356595 -9.70477974 16.02512513 -12.9375 15.75 C-13.618125 15.5025 -14.29875 15.255 -15 15 C-14.67 13.68 -14.34 12.36 -14 11 C-13.67 11.66 -13.34 12.32 -13 13 C-9.535 12.505 -9.535 12.505 -6 12 C-4.87513913 9.26819504 -3.86968672 6.57648184 -3 3.75 C-2 1 -2 1 0 0 Z " fill="#8845E5" transform="translate(47,28)"/>
<path d="M0 0 C6.625 0.75 6.625 0.75 10 3 C9.67 4.65 9.34 6.3 9 8 C7.1875 8.625 7.1875 8.625 5 9 C4.01 8.34 3.02 7.68 2 7 C0.65737935 7.29369827 -0.67696283 7.6278958 -2 8 C-2.99 7.67 -3.98 7.34 -5 7 C-5 6.34 -5 5.68 -5 5 C-5.66 4.34 -6.32 3.68 -7 3 C-4.69 3 -2.38 3 0 3 C0 2.01 0 1.02 0 0 Z " fill="#C0A5F3" transform="translate(43,7)"/>
<path d="M0 0 C0.66 0 1.32 0 2 0 C4.83258179 2.97850267 6.87464318 5.8216459 7.3125 9.9375 C7.209375 10.618125 7.10625 11.29875 7 12 C7.66 12 8.32 12 9 12 C7.66511872 15.59391114 6.03977277 18.75490696 4 22 C3.34 21.67 2.68 21.34 2 21 C2.2784375 19.4221875 2.2784375 19.4221875 2.5625 17.8125 C2.95995992 14.3489207 2.78478565 12.3135394 2 9 C2.020625 8.154375 2.04125 7.30875 2.0625 6.4375 C1.99377851 3.75736177 1.35282641 2.28289457 0 0 Z " fill="#8343E2" transform="translate(50,26)"/>
<path d="M0 0 C5.93909701 5.78681247 5.93909701 5.78681247 6.09765625 8.9453125 C6.04882812 11.97265625 6.04882812 11.97265625 6 15 C5.01 15.33 4.02 15.66 3 16 C2.95875 15.278125 2.9175 14.55625 2.875 13.8125 C1.61647835 9.76725183 -0.63589117 8.50518743 -4 6 C-3.525625 5.566875 -3.05125 5.13375 -2.5625 4.6875 C-0.76313043 2.97690387 -0.76313043 2.97690387 0 0 Z " fill="#B488FE" transform="translate(53,11)"/>
<path d="M0 0 C0.66 0 1.32 0 2 0 C2.2506888 4.26170968 2.41752537 7.90979486 0.875 11.9375 C-1.62076911 14.68284602 -3.32571797 15.48560052 -7 16 C-9.875 14.125 -9.875 14.125 -12 12 C-11.36191406 11.80664062 -10.72382813 11.61328125 -10.06640625 11.4140625 C-9.24011719 11.15367188 -8.41382813 10.89328125 -7.5625 10.625 C-6.73878906 10.36976562 -5.91507813 10.11453125 -5.06640625 9.8515625 C-2.82201984 9.19117773 -2.82201984 9.19117773 -2 7 C-1.34 7 -0.68 7 0 7 C0 4.69 0 2.38 0 0 Z " fill="#2E2B34" transform="translate(42,26)"/>
<path d="M0 0 C1.9375 0.375 1.9375 0.375 4 1 C4.33 1.66 4.66 2.32 5 3 C4.4225 3.350625 3.845 3.70125 3.25 4.0625 C-0.47647501 7.27140903 -2.44639604 11.33918811 -4 16 C-4.99 16 -5.98 16 -7 16 C-5.99586692 9.39070617 -4.21048225 5.20770173 0 0 Z " fill="#A458FF" transform="translate(17,20)"/>
<path d="M0 0 C0.66 0 1.32 0 2 0 C2.99 1.98 3.98 3.96 5 6 C5.99 5.01 6.98 4.02 8 3 C11 7.75 11 7.75 11 10 C12.32 10.66 13.64 11.32 15 12 C11.875 12.8125 11.875 12.8125 8 13 C3.62818483 10.36041348 2.39217524 9.06956883 0.625 4.25 C0 1 0 1 0 0 Z " fill="#A35BFE" transform="translate(14,41)"/>
<path d="M0 0 C4.33491809 0.35532116 6.94156883 1.41653371 10.8125 3.3125 C10.19375 3.60125 9.575 3.89 8.9375 4.1875 C6.67924235 5.24970042 6.67924235 5.24970042 4.8125 7.3125 C2.4296875 7.0703125 2.4296875 7.0703125 -0.3125 6.4375 C-1.67761719 6.13199219 -1.67761719 6.13199219 -3.0703125 5.8203125 C-3.76898438 5.65273437 -4.46765625 5.48515625 -5.1875 5.3125 C-5.1875 1.00335579 -4.21920764 0.41364781 0 0 Z " fill="#B083F9" transform="translate(38.1875,3.6875)"/>
<path d="M0 0 C0.72018311 0.16298584 1.44036621 0.32597168 2.18237305 0.49389648 C4.89402117 0.98096403 7.33219353 1.11452642 10.08203125 1.09765625 C11.01337891 1.09443359 11.94472656 1.09121094 12.90429688 1.08789062 C14.34385742 1.07532227 14.34385742 1.07532227 15.8125 1.0625 C16.79154297 1.05798828 17.77058594 1.05347656 18.77929688 1.04882812 C21.18626111 1.03708684 23.59309857 1.02066419 26 1 C22.81237635 3.12508244 20.73487777 3.5020163 17 4 C17 4.33 17 4.66 17 5 C10.28299653 5.31985731 5.24273068 4.4793824 -1 2 C-0.67 1.34 -0.34 0.68 0 0 Z " fill="#4B3077" transform="translate(20,53)"/>
<path d="M0 0 C0.886875 -0.02578125 1.77375 -0.0515625 2.6875 -0.078125 C3.450625 0.03015625 4.21375 0.1384375 5 0.25 C5.66 1.24 6.32 2.23 7 3.25 C6.01 3.25 5.02 3.25 4 3.25 C4 4.24 4 5.23 4 6.25 C5.32 6.58 6.64 6.91 8 7.25 C4.04 7.25 0.08 7.25 -4 7.25 C-3.67 6.59 -3.34 5.93 -3 5.25 C-2.01 5.25 -1.02 5.25 0 5.25 C0 4.26 0 3.27 0 2.25 C-0.78375 2.45625 -1.5675 2.6625 -2.375 2.875 C-3.24125 2.99875 -4.1075 3.1225 -5 3.25 C-5.66 2.59 -6.32 1.93 -7 1.25 C-4.53183586 0.01591793 -2.75338799 0.04802421 0 0 Z " fill="#9D52FD" transform="translate(32,8.75)"/>
<path d="M0 0 C1.1446875 0.0928125 1.1446875 0.0928125 2.3125 0.1875 C2.3125 1.1775 2.3125 2.1675 2.3125 3.1875 C1.6525 3.1875 0.9925 3.1875 0.3125 3.1875 C-0.0175 4.1775 -0.3475 5.1675 -0.6875 6.1875 C-2.47843191 6.26836147 -4.27039628 6.32662702 -6.0625 6.375 C-7.55910156 6.42720703 -7.55910156 6.42720703 -9.0859375 6.48046875 C-9.94445312 6.38378906 -10.80296875 6.28710938 -11.6875 6.1875 C-12.3475 5.1975 -13.0075 4.2075 -13.6875 3.1875 C-10.6875 3.1875 -10.6875 3.1875 -8.1875 3.375 C-5.63039211 3.45651306 -5.63039211 3.45651306 -4.1875 1.6875 C-2.6875 0.1875 -2.6875 0.1875 0 0 Z " fill="#A256FF" transform="translate(39.6875,29.8125)"/>
<path d="M0 0 C0.66 0 1.32 0 2 0 C2.66 0.99 3.32 1.98 4 3 C4.63421875 3.30679688 5.2684375 3.61359375 5.921875 3.9296875 C8.493643 5.2542447 9.58512948 6.77904608 11.25 9.125 C11.77078125 9.84945312 12.2915625 10.57390625 12.828125 11.3203125 C13.40820312 12.15175781 13.40820312 12.15175781 14 13 C13.01 13.495 13.01 13.495 12 14 C6.90933889 10.51561546 2.97957284 7.4625502 0 2 C0 1.34 0 0.68 0 0 Z " fill="#41315F" transform="translate(6,40)"/>
<path d="M0 0 C0.66 0.99 1.32 1.98 2 3 C1.01 4.485 1.01 4.485 0 6 C1.32 6.66 2.64 7.32 4 8 C3.34 10.31 2.68 12.62 2 15 C1.34 14.01 0.68 13.02 0 12 C-0.99 12.99 -1.98 13.98 -3 15 C-3.3152595 9.01006953 -2.68219822 5.36439644 0 0 Z " fill="#AB5CFF" transform="translate(7,17)"/>
<path d="M0 0 C0.309375 0.639375 0.61875 1.27875 0.9375 1.9375 C1.8345163 3.93610821 1.8345163 3.93610821 3 5 C3.66 4.67 4.32 4.34 5 4 C4.38722388 6.96175123 3.74627478 8.38058783 2 11 C-1.125 11.1875 -1.125 11.1875 -4 11 C-3.690625 10.278125 -3.38125 9.55625 -3.0625 8.8125 C-2.07446889 6.19712353 -1.53166153 3.73425932 -1 1 C-0.67 0.67 -0.34 0.34 0 0 Z " fill="#A86BF9" transform="translate(10,13)"/>
<path d="M0 0 C0 3.5747073 -0.55352838 4.46916729 -3 7 C-7.52241755 8.64451547 -13.23869737 8.49719797 -18 8 C-18.66 7.34 -19.32 6.68 -20 6 C-19.2265625 5.98582031 -18.453125 5.97164062 -17.65625 5.95703125 C-10.44630703 5.62687297 -5.67919778 4.5266547 0 0 Z " fill="#49356F" transform="translate(45,38)"/>
<path d="M0 0 C0 0.66 0 1.32 0 2 C-1.97946592 3.36363208 -3.9819245 4.69418644 -6 6 C-7.01868662 6.98095748 -8.02351983 7.97702078 -9 9 C-9.99 9.66 -10.98 10.32 -12 11 C-12.33 9.68 -12.66 8.36 -13 7 C-11.70982586 6.01886757 -10.41780894 5.04015801 -9.125 4.0625 C-8.04605469 3.24458984 -8.04605469 3.24458984 -6.9453125 2.41015625 C-4.29417837 0.48835018 -3.35056938 0 0 0 Z " fill="#B792FE" transform="translate(24,9)"/>
<path d="M0 0 C0.33 1.65 0.66 3.3 1 5 C-3.455 5.495 -3.455 5.495 -8 6 C-7.67 4.02 -7.34 2.04 -7 0 C-3.98968256 -0.93423645 -3.13349732 -1.04449911 0 0 Z " fill="#533889" transform="translate(41,47)"/>
<path d="M0 0 C0.99 0.33 1.98 0.66 3 1 C2.27683594 2.10408203 2.27683594 2.10408203 1.5390625 3.23046875 C0.59160156 4.69419922 0.59160156 4.69419922 -0.375 6.1875 C-1.00148438 7.15042969 -1.62796875 8.11335938 -2.2734375 9.10546875 C-3.81988312 11.69803936 -4.97508075 14.16853116 -6 17 C-6.33 17 -6.66 17 -7 17 C-6.96586242 9.62628201 -4.87106829 5.46691762 0 0 Z " fill="#2C2935" transform="translate(16,17)"/>
<path d="M0 0 C0.8971875 0.99 0.8971875 0.99 1.8125 2 C6.44161669 4.90454381 10.67268974 4.33587245 16 4 C13.4013299 6.5986701 11.60157242 6.63249261 8 7 C7.01 6.67 6.02 6.34 5 6 C5 6.66 5 7.32 5 8 C3.0625 7.375 3.0625 7.375 1 6 C0.25 2.875 0.25 2.875 0 0 Z " fill="#813FDE" transform="translate(21,32)"/>
<path d="M0 0 C3.96 1.98 3.96 1.98 8 4 C8 5.32 8 6.64 8 8 C9.39588754 9.64594139 9.39588754 9.64594139 11 11 C12.35439668 13.70879335 12.06501451 16.00933268 12 19 C11.67 19 11.34 19 11 19 C10.5978125 17.63875 10.5978125 17.63875 10.1875 16.25 C9.09683752 13.26502899 7.93197145 11.45887276 6 9 C6 8.34 6 7.68 6 7 C5.34 6.67 4.68 6.34 4 6 C1.875 4.625 1.875 4.625 0 3 C0 2.01 0 1.02 0 0 Z " fill="#B27DFE" transform="translate(46,19)"/>
<path d="M0 0 C1 2 1 2 0.3125 4.6875 C-0.02292875 8.24304478 0.2025504 8.77239227 2 11.625 C4 15 4 15 3.75 17.4375 C3.5025 17.953125 3.255 18.46875 3 19 C-0.6216259 15.72885403 -1.81858261 13.88512175 -2.12109375 9.07421875 C-2.24240674 5.17079486 -2.20886079 3.31329119 0 0 Z " fill="#5C359D" transform="translate(17,29)"/>
<path d="M0 0 C2.1640625 0.0234375 2.1640625 0.0234375 4.625 0.375 C5.85089844 0.54128906 5.85089844 0.54128906 7.1015625 0.7109375 C7.72804688 0.80632813 8.35453125 0.90171875 9 1 C8.67 1.66 8.34 2.32 8 3 C4.9375 3.625 4.9375 3.625 2 4 C2 4.66 2 5.32 2 6 C-0.64738916 7.4606285 -1.89448334 8 -5 8 C-5 7.34 -5 6.68 -5 6 C-3.68 5.67 -2.36 5.34 -1 5 C-1.33 4.01 -1.66 3.02 -2 2 C-1.34 1.34 -0.68 0.68 0 0 Z " fill="#AE75FD" transform="translate(25,6)"/>
<path d="M0 0 C2.12508244 3.18762365 2.5020163 5.26512223 3 9 C2.01 9 1.02 9 0 9 C0 9.66 0 10.32 0 11 C-0.66 11 -1.32 11 -2 11 C-2.94693195 7.2983569 -3.30443767 5.60887535 -1.5625 2.125 C-1.046875 1.42375 -0.53125 0.7225 0 0 Z " fill="#9A4DF9" transform="translate(19,28)"/>
<path d="M0 0 C2.31 0.66 4.62 1.32 7 2 C7 2.99 7 3.98 7 5 C7.99 5.33 8.98 5.66 10 6 C9.67 6.99 9.34 7.98 9 9 C8.34 9 7.68 9 7 9 C6.67 9.99 6.34 10.98 6 12 C5.67 10.02 5.34 8.04 5 6 C4.34 6 3.68 6 3 6 C2.01 4.02 1.02 2.04 0 0 Z " fill="#5C38A1" transform="translate(38,20)"/>
<path d="M0 0 C0.66 0.99 1.32 1.98 2 3 C-0.88211302 3.96070434 -2.69850044 4.10581883 -5.6875 4.0625 C-6.89986328 4.04896484 -6.89986328 4.04896484 -8.13671875 4.03515625 C-9.05904297 4.01775391 -9.05904297 4.01775391 -10 4 C-10.33 3.01 -10.66 2.02 -11 1 C-7.30992118 -0.18082522 -3.85119054 -0.28527337 0 0 Z " fill="#463169" transform="translate(37,20)"/>
<path d="M0 0 C0 0.66 0 1.32 0 2 C-4.62 2.33 -9.24 2.66 -14 3 C-13.67 2.01 -13.34 1.02 -13 0 C-9.12663067 -1.63873318 -3.75321084 -1.87660542 0 0 Z " fill="#B382FD" transform="translate(40,17)"/>
<path d="M0 0 C2.86724686 0.57344937 3.8614515 0.8614515 6 3 C6 3.99 6 4.98 6 6 C6.66 6 7.32 6 8 6 C8 7.65 8 9.3 8 11 C7.01 11.495 7.01 11.495 6 12 C5.34 11.67 4.68 11.34 4 11 C4.04125 10.2575 4.0825 9.515 4.125 8.75 C3.94471208 4.78366581 2.77842595 2.77842595 0 0 Z " fill="#302C3F" transform="translate(45,24)"/>
<path d="M0 0 C0.66 0.33 1.32 0.66 2 1 C2 3.64 2 6.28 2 9 C0.35 8.67 -1.3 8.34 -3 8 C-2.74438677 5.6568787 -2.40729228 3.32156597 -2 1 C-1.34 0.67 -0.68 0.34 0 0 Z " fill="#974BFF" transform="translate(47,28)"/>
<path d="M0 0 C-0.5 1.8125 -0.5 1.8125 -2 4 C-5.31738334 5.81213892 -8.46663529 7.28916393 -12.2578125 6.57421875 C-12.83273438 6.38472656 -13.40765625 6.19523437 -14 6 C-13.67 5.34 -13.34 4.68 -13 4 C-12.29875 4.0825 -11.5975 4.165 -10.875 4.25 C-6.49127828 3.86880681 -4.15483282 0 0 0 Z " fill="#7441BF" transform="translate(52,48)"/>
<path d="M0 0 C1.5 1 1.5 1 3 3 C3.27345479 5.71846235 3.13491285 8.25677199 3 11 C2.01 11.33 1.02 11.66 0 12 C-0.19477739 10.37585622 -0.38059458 8.75063577 -0.5625 7.125 C-0.66691406 6.22007813 -0.77132812 5.31515625 -0.87890625 4.3828125 C-1 2 -1 2 0 0 Z " fill="#AB7BF8" transform="translate(56,15)"/>
<path d="M0 0 C2.0625 0.25 2.0625 0.25 4 1 C4.33 1.66 4.66 2.32 5 3 C4.0409375 3.680625 4.0409375 3.680625 3.0625 4.375 C0.90297594 5.83921726 0.90297594 5.83921726 0 8 C-0.99 7.67 -1.98 7.34 -3 7 C-2.25 2.25 -2.25 2.25 0 0 Z " fill="#B071FF" transform="translate(17,20)"/>
<path d="M0 0 C1.15810065 2.31620131 1.50512238 4.46375217 2 7 C2.33 7.99 2.66 8.98 3 10 C1.68 9.34 0.36 8.68 -1 8 C-1 7.34 -1 6.68 -1 6 C-1.99 6 -2.98 6 -4 6 C-4.33 4.68 -4.66 3.36 -5 2 C-3.35 1.34 -1.7 0.68 0 0 Z " fill="#6437B6" transform="translate(9,34)"/>
<path d="M0 0 C3.46518731 1.54008325 6.27562776 3.34925944 9 6 C9.8125 9.25 9.8125 9.25 10 12 C8.68 11.67 7.36 11.34 6 11 C5.9071875 9.948125 5.9071875 9.948125 5.8125 8.875 C4.70798798 4.9667267 2.71769008 2.99642752 0 0 Z " fill="#9149F2" transform="translate(47,16)"/>
<path d="M0 0 C4.95 0 9.9 0 15 0 C15 0.99 15 1.98 15 3 C9.72 3 4.44 3 -1 3 C-0.67 2.01 -0.34 1.02 0 0 Z " fill="#5B3AA6" transform="translate(25,23)"/>
<path d="M0 0 C0.66 0 1.32 0 2 0 C4.83258179 2.97850267 6.87464318 5.8216459 7.3125 9.9375 C7.209375 10.618125 7.10625 11.29875 7 12 C3.0521638 9.63129828 2.18399317 7.37166708 1 3 C0.67 2.01 0.34 1.02 0 0 Z " fill="#9C4EFE" transform="translate(50,26)"/>
<path d="M0 0 C0 0.66 0 1.32 0 2 C-7.44230769 3.36442308 -7.44230769 3.36442308 -10.265625 1.51953125 C-10.83796875 1.01808594 -11.4103125 0.51664063 -12 0 C-10.37585622 -0.19477739 -8.75063577 -0.38059458 -7.125 -0.5625 C-6.22007813 -0.66691406 -5.31515625 -0.77132813 -4.3828125 -0.87890625 C-2 -1 -2 -1 0 0 Z " fill="#7A3AF6" transform="translate(42,26)"/>
<path d="M0 0 C0.886875 -0.02578125 1.77375 -0.0515625 2.6875 -0.078125 C3.450625 0.03015625 4.21375 0.1384375 5 0.25 C5.66 1.24 6.32 2.23 7 3.25 C5.68 3.58 4.36 3.91 3 4.25 C3 3.59 3 2.93 3 2.25 C1.72125 2.45625 0.4425 2.6625 -0.875 2.875 C-3.0546875 3.2265625 -3.0546875 3.2265625 -5 3.25 C-5.66 2.59 -6.32 1.93 -7 1.25 C-4.53183586 0.01591793 -2.75338799 0.04802421 0 0 Z " fill="#A660FF" transform="translate(32,8.75)"/>
<path d="M0 0 C-0.33 0.66 -0.66 1.32 -1 2 C-0.34 2.66 0.32 3.32 1 4 C-6.75 4.125 -6.75 4.125 -9 3 C-9 2.34 -9 1.68 -9 1 C-5.92677456 0.08941469 -3.19902639 -0.08886184 0 0 Z " fill="#A75DFC" transform="translate(36,3)"/>
<path d="M0 0 C-1.98 0.33 -3.96 0.66 -6 1 C-6 2.65 -6 4.3 -6 6 C-6.66 5.67 -7.32 5.34 -8 5 C-8 4.01 -8 3.02 -8 2 C-9.32 1.67 -10.64 1.34 -12 1 C-9.22036907 -1.77963093 -3.39894022 -1.13298007 0 0 Z " fill="#9D56FA" transform="translate(40,46)"/>
<path d="M0 0 C6.75 0.75 6.75 0.75 9 3 C8.67 3.66 8.34 4.32 8 5 C5.03 4.505 5.03 4.505 2 4 C2 3.34 2 2.68 2 2 C1.34 1.34 0.68 0.68 0 0 Z " fill="#CCC4E4" transform="translate(36,10)"/>
<path d="M0 0 C2.64 0.33 5.28 0.66 8 1 C7.67 1.66 7.34 2.32 7 3 C2.71 3 -1.58 3 -6 3 C-6 2.67 -6 2.34 -6 2 C-4.02 2 -2.04 2 0 2 C0 1.34 0 0.68 0 0 Z " fill="#A962FE" transform="translate(31,52)"/>
<path d="M0 0 C0 0.99 0 1.98 0 3 C-4.455 3.495 -4.455 3.495 -9 4 C-6.25137935 -0.12293098 -4.89482776 0 0 0 Z " fill="#493A74" transform="translate(32,11)"/>
<path d="M0 0 C0.99 0.33 1.98 0.66 3 1 C3 2.32 3 3.64 3 5 C2.01 5.495 2.01 5.495 1 6 C0.01 5.01 -0.98 4.02 -2 3 C-1.34 2.01 -0.68 1.02 0 0 Z " fill="#D2D2D6" transform="translate(26,46)"/>
<path d="M0 0 C1.84765625 0.33984375 1.84765625 0.33984375 4.0625 0.9375 C5.16271484 1.22947266 5.16271484 1.22947266 6.28515625 1.52734375 C7.13400391 1.76130859 7.13400391 1.76130859 8 2 C8 2.66 8 3.32 8 4 C4.625 4.1875 4.625 4.1875 1 4 C0.34 3.01 -0.32 2.02 -1 1 C-0.67 0.67 -0.34 0.34 0 0 Z " fill="#B168FF" transform="translate(27,32)"/>
<path d="M0 0 C-0.66 0 -1.32 0 -2 0 C-1.34 1.32 -0.68 2.64 0 4 C-0.99 4.66 -1.98 5.32 -3 6 C-3.66 5.01 -4.32 4.02 -5 3 C-5.66 2.34 -6.32 1.68 -7 1 C-3.375 -1.125 -3.375 -1.125 0 0 Z " fill="#2D2C2F" transform="translate(47,44)"/>
<path d="M0 0 C0.33 0.99 0.66 1.98 1 3 C3.50447516 4.21869929 3.50447516 4.21869929 6 5 C5.34 5.66 4.68 6.32 4 7 C1 5 -2 3 -5 1 C-3.35 0.67 -1.7 0.34 0 0 Z " fill="#9853F7" transform="translate(45,19)"/>
<path d="M0 0 C0.99 0.33 1.98 0.66 3 1 C2.67 2.65 2.34 4.3 2 6 C-0.475 5.01 -0.475 5.01 -3 4 C-2.67 3.34 -2.34 2.68 -2 2 C-1.34 2 -0.68 2 0 2 C0 1.34 0 0.68 0 0 Z " fill="#BBAADF" transform="translate(50,9)"/>
<path d="M0 0 C0 0.66 0 1.32 0 2 C-3.96 3.98 -3.96 3.98 -8 6 C-7 2 -7 2 -5.125 0.75 C-3 0 -3 0 0 0 Z " fill="#BAA3F6" transform="translate(24,9)"/>
<path d="M0 0 C0 0.33 0 0.66 0 1 C-3.3 1.33 -6.6 1.66 -10 2 C-8 -1 -8 -1 -6.125 -1.8125 C-3.50147776 -2.04398726 -2.21976911 -1.34771696 0 0 Z " fill="#934CE8" transform="translate(31,16)"/>
<path d="M0 0 C0.99 0.33 1.98 0.66 3 1 C3.33 2.65 3.66 4.3 4 6 C2.68 6 1.36 6 0 6 C-0.38218767 4.34385343 -0.71395102 2.67542976 -1 1 C-0.67 0.67 -0.34 0.34 0 0 Z " fill="#383A4D" transform="translate(38,46)"/>
<path d="M0 0 C0.66 0.99 1.32 1.98 2 3 C0.68 5.64 -0.64 8.28 -2 11 C-3.28485596 5.86057616 -2.22194431 4.62164416 0 0 Z " fill="#8948E0" transform="translate(7,17)"/>
<path d="M0 0 C1.84765625 0.33984375 1.84765625 0.33984375 4.0625 0.9375 C5.16271484 1.22947266 5.16271484 1.22947266 6.28515625 1.52734375 C7.13400391 1.76130859 7.13400391 1.76130859 8 2 C7.67 2.66 7.34 3.32 7 4 C1.25 3.25 1.25 3.25 -1 1 C-0.67 0.67 -0.34 0.34 0 0 Z " fill="#3D2D5D" transform="translate(20,53)"/>
<path d="M0 0 C1.65 1.65 3.3 3.3 5 5 C4.01 5.66 3.02 6.32 2 7 C0 4 0 4 0 0 Z " fill="#413463" transform="translate(21,32)"/>
<path d="M0 0 C0.6875 1.8125 0.6875 1.8125 1 4 C-0.4375 5.75 -0.4375 5.75 -2 7 C-2.66 5.68 -3.32 4.36 -4 3 C-2.68 2.01 -1.36 1.02 0 0 Z " fill="#443466" transform="translate(22,24)"/>
<path d="M0 0 C2.31 0.66 4.62 1.32 7 2 C7 2.66 7 3.32 7 4 C5.02 4.99 5.02 4.99 3 6 C2.01 4.02 1.02 2.04 0 0 Z " fill="#3B305B" transform="translate(38,20)"/>
<path d="M0 0 C0.66 0.33 1.32 0.66 2 1 C2 1.99 2 2.98 2 4 C0.02 4.99 0.02 4.99 -2 6 C-2.33 5.34 -2.66 4.68 -3 4 C-2.67 3.01 -2.34 2.02 -2 1 C-1.34 0.67 -0.68 0.34 0 0 Z " fill="#813FFB" transform="translate(47,28)"/>
<path d="" fill="#383537" transform="translate(0,0)"/>
<path d="" fill="#383537" transform="translate(0,0)"/>
</svg>
