<?xml version="1.0" encoding="UTF-8"?>
<svg version="1.1" xmlns="http://www.w3.org/2000/svg" width="62" height="62">
<path d="M0 0 C3.125 0.375 3.125 0.375 6 1 C6.33 2.98 6.66 4.96 7 7 C7.63808594 7.06058594 8.27617188 7.12117187 8.93359375 7.18359375 C9.75988281 7.26738281 10.58617188 7.35117188 11.4375 7.4375 C12.67306641 7.55931641 12.67306641 7.55931641 13.93359375 7.68359375 C16 8 16 8 17 9 C17.93459619 17.36540194 16.60581732 25.52441767 15.1875 33.75 C15.0222583 34.71953613 14.8570166 35.68907227 14.68676758 36.68798828 C12.36844828 49.46329135 12.36844828 49.46329135 10 54 C6.30581799 55.231394 3.7943739 54.64432764 0 54 C-0.37125 54.66 -0.7425 55.32 -1.125 56 C-3 58 -3 58 -6.0625 58.4375 C-7.031875 58.293125 -8.00125 58.14875 -9 58 C-11.10827055 54.83759418 -11.33817465 53.49342531 -11.625 49.8125 C-11.73714844 48.46091797 -11.73714844 48.46091797 -11.8515625 47.08203125 C-11.90054687 46.39496094 -11.94953125 45.70789062 -12 45 C-12.94875 44.9175 -13.8975 44.835 -14.875 44.75 C-18 44 -18 44 -19.17578125 42.26171875 C-22.15233372 34.09383305 -19.56907219 23.97152441 -17 16 C-14.48617052 11.20387796 -14.48617052 11.20387796 -12.0625 10.1875 C-10.04900352 10.00445487 -8.0217996 10 -6 10 C-5.73445313 9.44570312 -5.46890625 8.89140625 -5.1953125 8.3203125 C-4.84210937 7.59585937 -4.48890625 6.87140625 -4.125 6.125 C-3.77695312 5.40570312 -3.42890625 4.68640625 -3.0703125 3.9453125 C-2 2 -2 2 0 0 Z " fill="#EE42CD" transform="translate(32,3)"/>
<path d="M0 0 C0.33 0.99 0.66 1.98 1 3 C1.99 3 2.98 3 4 3 C3.6875 4.9375 3.6875 4.9375 3 7 C2.01 7.33 1.02 7.66 0 8 C-0.33 10.31 -0.66 12.62 -1 15 C0.32 15 1.64 15 3 15 C3.33 14.01 3.66 13.02 4 12 C4.66 12 5.32 12 6 12 C5.47694567 16.40860079 4.87251184 20.63744078 4 25 C7.96 25.33 11.92 25.66 16 26 C16 29.96 16 33.92 16 38 C13.36 37.67 10.72 37.34 8 37 C7.62875 37.66 7.2575 38.32 6.875 39 C5 41 5 41 1.9375 41.4375 C0.968125 41.293125 -0.00125 41.14875 -1 41 C-3.10827055 37.83759418 -3.33817465 36.49342531 -3.625 32.8125 C-3.73714844 31.46091797 -3.73714844 31.46091797 -3.8515625 30.08203125 C-3.90054687 29.39496094 -3.94953125 28.70789063 -4 28 C-4.94875 27.9175 -5.8975 27.835 -6.875 27.75 C-10 27 -10 27 -11.1796875 25.27734375 C-13.73625767 18.179818 -11.85180659 10.06001264 -10 3 C-7.03 3.99 -4.06 4.98 -1 6 C-0.67 4.02 -0.34 2.04 0 0 Z " fill="#FD3DEA" transform="translate(24,20)"/>
<path d="M0 0 C0.33 0 0.66 0 1 0 C1 2.64 1 5.28 1 8 C1.66 8 2.32 8 3 8 C2.62023491 17.85490398 1.48847911 30.02304178 -3 39 C-3.66 39 -4.32 39 -5 39 C-5 35.37 -5 31.74 -5 28 C-6.953125 28.03255208 -8.90625 28.06510417 -10.859375 28.09765625 C-13.03292403 27.99849799 -14.91306537 27.59693851 -17 27 C-16.85769192 25.58297487 -16.71099254 24.1663904 -16.5625 22.75 C-16.48128906 21.96109375 -16.40007813 21.1721875 -16.31640625 20.359375 C-16.02365007 18.17635361 -15.57935581 16.1226818 -15 14 C-15.4125 14.495 -15.825 14.99 -16.25 15.5 C-18 17 -18 17 -22 17 C-22 14.69 -22 12.38 -22 10 C-21.38125 9.79375 -20.7625 9.5875 -20.125 9.375 C-17.15346355 7.45224112 -16.86975341 5.33405473 -16 2 C-15.34 2.66 -14.68 3.32 -14 4 C-13.34 3.34 -12.68 2.68 -12 2 C-12 4.64 -12 7.28 -12 10 C-9.03 10 -6.06 10 -3 10 C-2.86722656 9.36191406 -2.73445313 8.72382813 -2.59765625 8.06640625 C-2.42105469 7.24011719 -2.24445312 6.41382813 -2.0625 5.5625 C-1.80146484 4.32693359 -1.80146484 4.32693359 -1.53515625 3.06640625 C-1 1 -1 1 0 0 Z " fill="#EF5FD4" transform="translate(45,18)"/>
<path d="M0 0 C0.66 0 1.32 0 2 0 C1.47694567 4.40860079 0.87251184 8.63744078 0 13 C3.96 13.33 7.92 13.66 12 14 C12 17.96 12 21.92 12 26 C9.36 25.67 6.72 25.34 4 25 C3.62875 25.66 3.2575 26.32 2.875 27 C1 29 1 29 -2.0625 29.4375 C-3.031875 29.293125 -4.00125 29.14875 -5 29 C-7.10827055 25.83759418 -7.33817465 24.49342531 -7.625 20.8125 C-7.69976563 19.91144531 -7.77453125 19.01039062 -7.8515625 18.08203125 C-7.92503906 17.05142578 -7.92503906 17.05142578 -8 16 C-5.69 16 -3.38 16 -1 16 C-1.01160156 15.43152344 -1.02320313 14.86304688 -1.03515625 14.27734375 C-1.09223194 9.39329516 -0.81956772 4.81496035 0 0 Z " fill="#782C5F" transform="translate(28,32)"/>
<path d="M0 0 C0.33 0 0.66 0 1 0 C1 2.64 1 5.28 1 8 C1.66 8 2.32 8 3 8 C3 9.32 3 10.64 3 12 C2.01 11.67 1.02 11.34 0 11 C-0.33 11.99 -0.66 12.98 -1 14 C-1.66 14 -2.32 14 -3 14 C-3.33 15.32 -3.66 16.64 -4 18 C-7.3 17.67 -10.6 17.34 -14 17 C-14.33 16.01 -14.66 15.02 -15 14 C-15.4125 14.495 -15.825 14.99 -16.25 15.5 C-18 17 -18 17 -22 17 C-22 14.69 -22 12.38 -22 10 C-21.38125 9.79375 -20.7625 9.5875 -20.125 9.375 C-17.15346355 7.45224112 -16.86975341 5.33405473 -16 2 C-15.34 2.66 -14.68 3.32 -14 4 C-13.34 3.34 -12.68 2.68 -12 2 C-12 4.64 -12 7.28 -12 10 C-9.03 10 -6.06 10 -3 10 C-2.86722656 9.36191406 -2.73445313 8.72382813 -2.59765625 8.06640625 C-2.42105469 7.24011719 -2.24445312 6.41382813 -2.0625 5.5625 C-1.80146484 4.32693359 -1.80146484 4.32693359 -1.53515625 3.06640625 C-1 1 -1 1 0 0 Z " fill="#EC8CD3" transform="translate(45,18)"/>
<path d="M0 0 C4.95 0.99 4.95 0.99 10 2 C10.33 3.32 10.66 4.64 11 6 C11.99 6.33 12.98 6.66 14 7 C14 7.66 14 8.32 14 9 C12.35 9 10.7 9 9 9 C9 10.98 9 12.96 9 15 C6.52221994 15.88492145 5.33943414 16.11637742 2.8125 15.25 C1 14 1 14 0 11 C-0.0685495 9.10529184 -0.08480372 7.2083166 -0.0625 5.3125 C-0.05347656 4.31863281 -0.04445313 3.32476562 -0.03515625 2.30078125 C-0.02355469 1.54152344 -0.01195312 0.78226563 0 0 Z " fill="#F12ED4" transform="translate(12,32)"/>
<path d="M0 0 C3.96388638 -0.07622858 7.1273408 0.0318352 11 1 C11 4.3 11 7.6 11 11 C7.37 10.67 3.74 10.34 0 10 C0 6.7 0 3.4 0 0 Z " fill="#252323" transform="translate(29,47)"/>
<path d="M0 0 C1.32 0.66 2.64 1.32 4 2 C3.67 4.64 3.34 7.28 3 10 C2.67 10 2.34 10 2 10 C2 8.35 2 6.7 2 5 C1.34 5 0.68 5 0 5 C0 7.97 0 10.94 0 14 C-0.99 13.67 -1.98 13.34 -3 13 C-4.89212737 12.77820215 -6.78884472 12.59385985 -8.6875 12.4375 C-9.68136719 12.35371094 -10.67523438 12.26992188 -11.69921875 12.18359375 C-12.45847656 12.12300781 -13.21773437 12.06242187 -14 12 C-14.625 10.125 -14.625 10.125 -15 8 C-14.34 7.34 -13.68 6.68 -13 6 C-10.6171875 6.0234375 -10.6171875 6.0234375 -7.875 6.375 C-6.96492188 6.48585938 -6.05484375 6.59671875 -5.1171875 6.7109375 C-4.41851562 6.80632813 -3.71984375 6.90171875 -3 7 C-2.67 6.01 -2.34 5.02 -2 4 C-1.34 4 -0.68 4 0 4 C0 2.68 0 1.36 0 0 Z " fill="#FF48E4" transform="translate(44,28)"/>
<path d="M0 0 C0.33 0 0.66 0 1 0 C1 2.64 1 5.28 1 8 C1.66 8 2.32 8 3 8 C3 9.32 3 10.64 3 12 C2.01 11.67 1.02 11.34 0 11 C-0.33 11.99 -0.66 12.98 -1 14 C-2.32 14 -3.64 14 -5 14 C-5.33 14.66 -5.66 15.32 -6 16 C-8.31 15.67 -10.62 15.34 -13 15 C-12.67 13.35 -12.34 11.7 -12 10 C-9.03 10 -6.06 10 -3 10 C-2.86722656 9.36191406 -2.73445313 8.72382813 -2.59765625 8.06640625 C-2.42105469 7.24011719 -2.24445312 6.41382813 -2.0625 5.5625 C-1.88847656 4.73878906 -1.71445312 3.91507813 -1.53515625 3.06640625 C-1 1 -1 1 0 0 Z " fill="#FA7CDC" transform="translate(45,18)"/>
<path d="M0 0 C1.46726798 3.81489674 0.43336419 6.29011622 -1 10 C-3.64 9.67 -6.28 9.34 -9 9 C-10 6 -10 6 -9.1875 3.375 C-7.07448355 -0.85103291 -4.34846102 -0.09453176 0 0 Z " fill="#E61FB2" transform="translate(24,16)"/>
<path d="M0 0 C3.8125 0.1875 3.8125 0.1875 9.8125 2.1875 C9.8125 6.4775 9.8125 10.7675 9.8125 15.1875 C7.8325 16.1775 7.8325 16.1775 5.8125 17.1875 C5.83570313 16.58421875 5.85890625 15.9809375 5.8828125 15.359375 C5.90085937 14.56015625 5.91890625 13.7609375 5.9375 12.9375 C5.96070313 12.14859375 5.98390625 11.3596875 6.0078125 10.546875 C5.7903981 7.92050906 5.28828153 6.36696543 3.8125 4.1875 C0.82599195 3.5230782 0.82599195 3.5230782 -2.1875 3.1875 C-2.8475 2.5275 -3.5075 1.8675 -4.1875 1.1875 C-3.1875 0.1875 -3.1875 0.1875 0 0 Z " fill="#FC69D9" transform="translate(39.1875,9.8125)"/>
<path d="M0 0 C-0.66 3.63 -1.32 7.26 -2 11 C-3.32 11 -4.64 11 -6 11 C-6.33 9.02 -6.66 7.04 -7 5 C-9.31 5 -11.62 5 -14 5 C-13.67 4.01 -13.34 3.02 -13 2 C-11.3125 1.375 -11.3125 1.375 -9 1 C-7.989375 0.814375 -6.97875 0.62875 -5.9375 0.4375 C-3 0 -3 0 0 0 Z " fill="#FE2AD7" transform="translate(31,12)"/>
<path d="M0 0 C3.63 0 7.26 0 11 0 C10.01 0.33 9.02 0.66 8 1 C8 2.98 8 4.96 8 7 C5.55492066 7.87324262 4.32299678 8.10151327 1.8125 7.3125 C0 6 0 6 -0.8125 4 C-1 2 -1 2 0 0 Z " fill="#372430" transform="translate(13,40)"/>
<path d="M0 0 C1.65 0.33 3.3 0.66 5 1 C5.33 4.63 5.66 8.26 6 12 C4.35 11.67 2.7 11.34 1 11 C0.63890458 9.35567294 0.28629924 7.7094792 -0.0625 6.0625 C-0.25972656 5.14597656 -0.45695312 4.22945312 -0.66015625 3.28515625 C-0.77230469 2.53105469 -0.88445313 1.77695312 -1 1 C-0.67 0.67 -0.34 0.34 0 0 Z " fill="#1B1E1B" transform="translate(21,49)"/>
<path d="M0 0 C-0.33 1.65 -0.66 3.3 -1 5 C-5.455 5.495 -5.455 5.495 -10 6 C-10.33 4.68 -10.66 3.36 -11 2 C-7.36576791 -0.32590854 -4.22911669 -0.16265833 0 0 Z " fill="#FF37EF" transform="translate(43,23)"/>
<path d="M0 0 C2.64 0.33 5.28 0.66 8 1 C7.67 2.98 7.34 4.96 7 7 C3.26512223 6.5020163 1.18762365 6.12508244 -2 4 C-1.34 2.68 -0.68 1.36 0 0 Z " fill="#D81DA6" transform="translate(36,16)"/>
<path d="M0 0 C0 2.64 0 5.28 0 8 C-2.31 8 -4.62 8 -7 8 C-6.67 5.69 -6.34 3.38 -6 1 C-1.125 0 -1.125 0 0 0 Z " fill="#FB33DD" transform="translate(27,40)"/>
<path d="M0 0 C0.33 0.66 0.66 1.32 1 2 C3.58605332 2.4683265 3.58605332 2.4683265 6.5625 2.625 C8.08037109 2.73714844 8.08037109 2.73714844 9.62890625 2.8515625 C10.80259766 2.92503906 10.80259766 2.92503906 12 3 C12.33 2.34 12.66 1.68 13 1 C13 2.65 13 4.3 13 6 C8.71 5.67 4.42 5.34 0 5 C0 3.35 0 1.7 0 0 Z " fill="#FD5EDE" transform="translate(29,38)"/>
<path d="M0 0 C3.5786304 1.65167557 6.74820188 3.78286492 10 6 C9.34 6.66 8.68 7.32 8 8 C5.27130593 7.96712417 2.7033382 7.43602229 0 7 C0 4.69 0 2.38 0 0 Z " fill="#141614" transform="translate(29,48)"/>
<path d="M0 0 C0.33 0.99 0.66 1.98 1 3 C1.99 3 2.98 3 4 3 C3.67 4.32 3.34 5.64 3 7 C1.329375 7.2165625 1.329375 7.2165625 -0.375 7.4375 C-3.82142047 7.78372035 -3.82142047 7.78372035 -6 9 C-6.66 8.34 -7.32 7.68 -8 7 C-8 6.34 -8 5.68 -8 5 C-5.69 5.33 -3.38 5.66 -1 6 C-0.67 4.02 -0.34 2.04 0 0 Z " fill="#FE31E4" transform="translate(24,20)"/>
<path d="M0 0 C1.96713413 2.95070119 2.65358161 4.53581611 3 8 C2.01 9.485 2.01 9.485 1 11 C0.67 10.01 0.34 9.02 0 8 C-1.32 8.33 -2.64 8.66 -4 9 C-3.46930939 5.17902761 -2.50298434 2.93828597 0 0 Z " fill="#F932DB" transform="translate(31,4)"/>
<path d="M0 0 C4.95 0.99 4.95 0.99 10 2 C10.33 3.32 10.66 4.64 11 6 C11.99 6.33 12.98 6.66 14 7 C14 7.66 14 8.32 14 9 C12.35 8.67 10.7 8.34 9 8 C9 7.01 9 6.02 9 5 C4.545 4.01 4.545 4.01 0 3 C0 2.01 0 1.02 0 0 Z " fill="#BF1EA4" transform="translate(12,32)"/>
<path d="M0 0 C1.53445094 3.06890187 0.54984289 5.70094266 0 9 C-1.32 9 -2.64 9 -4 9 C-4 6.69 -4 4.38 -4 2 C-2.68 1.34 -1.36 0.68 0 0 Z " fill="#FB73DA" transform="translate(27,26)"/>
<path d="M0 0 C0.33 0 0.66 0 1 0 C1 4.29 1 8.58 1 13 C-0.98 13.99 -0.98 13.99 -3 15 C-2.68917128 13.24970238 -2.37626821 11.49977306 -2.0625 9.75 C-1.88847656 8.77546875 -1.71445312 7.8009375 -1.53515625 6.796875 C-1.09620271 4.50278205 -0.59651408 2.25708029 0 0 Z " fill="#AB3299" transform="translate(48,12)"/>
<path d="M0 0 C0 1.65 0 3.3 0 5 C-0.33 4.34 -0.66 3.68 -1 3 C-3.32156597 2.59270772 -5.6568787 2.25561323 -8 2 C-8 1.34 -8 0.68 -8 0 C-8.99 0.33 -9.98 0.66 -11 1 C-11 0.34 -11 -0.32 -11 -1 C-6.99799622 -2.60080151 -3.95443764 -1.29279692 0 0 Z " fill="#FF3AE6" transform="translate(45,14)"/>
<path d="M0 0 C1.4540625 0.0309375 1.4540625 0.0309375 2.9375 0.0625 C2.9375 1.7125 2.9375 3.3625 2.9375 5.0625 C0.9575 5.0625 -1.0225 5.0625 -3.0625 5.0625 C-3.625 3.125 -3.625 3.125 -4.0625 1.0625 C-3.0625 0.0625 -3.0625 0.0625 0 0 Z " fill="#872E60" transform="translate(21.0625,17.9375)"/>
<path d="M0 0 C0.33 0 0.66 0 1 0 C1 1.98 1 3.96 1 6 C0.01 6.495 0.01 6.495 -1 7 C-3.125 6.0625 -3.125 6.0625 -5 5 C-5 4.01 -5 3.02 -5 2 C-3.35 2 -1.7 2 0 2 C0 1.34 0 0.68 0 0 Z " fill="#FE32EB" transform="translate(27,33)"/>
<path d="M0 0 C-0.33 1.65 -0.66 3.3 -1 5 C-1.66 4.34 -2.32 3.68 -3 3 C-6.58343976 2.83322718 -6.58343976 2.83322718 -10 3 C-9.67 2.01 -9.34 1.02 -9 0 C-5.93109813 -1.53445094 -3.29905734 -0.54984289 0 0 Z " fill="#FA34E7" transform="translate(27,14)"/>
<path d="M0 0 C1.485 0.99 1.485 0.99 3 2 C4.65549531 2.38499891 6.3222433 2.72793135 8 3 C8 3.99 8 4.98 8 6 C5.36 5.67 2.72 5.34 0 5 C0 3.35 0 1.7 0 0 Z " fill="#F825CD" transform="translate(28,40)"/>
<path d="M0 0 C0.33 0 0.66 0 1 0 C1 1.98 1 3.96 1 6 C1.66 6 2.32 6 3 6 C3 7.32 3 8.64 3 10 C2.01 9.67 1.02 9.34 0 9 C-0.66 9.99 -1.32 10.98 -2 12 C-1 3.42857143 -1 3.42857143 0 0 Z " fill="#FF5DDF" transform="translate(45,20)"/>
<path d="M0 0 C2.66666667 1.33333333 5.33333333 2.66666667 8 4 C7.67 4.66 7.34 5.32 7 6 C4.36 5.67 1.72 5.34 -1 5 C-0.67 3.35 -0.34 1.7 0 0 Z " fill="#C7268F" transform="translate(16,20)"/>
<path d="M0 0 C0.66 0 1.32 0 2 0 C2.33 1.98 2.66 3.96 3 6 C1.68 6.33 0.36 6.66 -1 7 C-2 4 -2 4 -1.0625 1.8125 C-0.5365625 0.9153125 -0.5365625 0.9153125 0 0 Z " fill="#FD2AE4" transform="translate(36,4)"/>
<path d="M0 0 C1.32 0.66 2.64 1.32 4 2 C3.67 4.64 3.34 7.28 3 10 C2.67 10 2.34 10 2 10 C2 8.35 2 6.7 2 5 C1.34 5 0.68 5 0 5 C-0.33 5.66 -0.66 6.32 -1 7 C-0.67 4.69 -0.34 2.38 0 0 Z " fill="#F035CC" transform="translate(44,28)"/>
<path d="M0 0 C-0.33 1.98 -0.66 3.96 -1 6 C-1.99 6 -2.98 6 -4 6 C-4.33 4.35 -4.66 2.7 -5 1 C-3 0 -3 0 0 0 Z " fill="#BF2691" transform="translate(31,12)"/>
<path d="M0 0 C0.515625 0.309375 1.03125 0.61875 1.5625 0.9375 C4.66665423 2.29059287 7.65115007 2.61359424 11 3 C11 3.66 11 4.32 11 5 C7.7 4.67 4.4 4.34 1 4 C0.67 2.68 0.34 1.36 0 0 Z " fill="#E319B9" transform="translate(29,36)"/>
<path d="M0 0 C2.475 0.99 2.475 0.99 5 2 C4.6875 3.9375 4.6875 3.9375 4 6 C3.01 6.33 2.02 6.66 1 7 C0.67 4.69 0.34 2.38 0 0 Z " fill="#E632C0" transform="translate(26,54)"/>
<path d="M0 0 C1.67542976 0.28604898 3.34385343 0.61781233 5 1 C5 1.66 5 2.32 5 3 C4.01 3 3.02 3 2 3 C1.67 4.98 1.34 6.96 1 9 C0.67 9 0.34 9 0 9 C-0.87890625 2.84765625 -0.87890625 2.84765625 -1 1 C-0.67 0.67 -0.34 0.34 0 0 Z " fill="#2F2B2F" transform="translate(21,49)"/>
<path d="M0 0 C0.99 0.495 0.99 0.495 2 1 C3.27536232 6.44927536 3.27536232 6.44927536 2 9 C1.34 9 0.68 9 0 9 C0 6.03 0 3.06 0 0 Z " fill="#F12AC5" transform="translate(40,48)"/>
<path d="M0 0 C2.31 0 4.62 0 7 0 C7.33 0.66 7.66 1.32 8 2 C7.01 2 6.02 2 5 2 C4.67 2.66 4.34 3.32 4 4 C1.525 3.01 1.525 3.01 -1 2 C-0.67 1.34 -0.34 0.68 0 0 Z " fill="#EF6ED2" transform="translate(36,10)"/>
<path d="M0 0 C1.32 0 2.64 0 4 0 C3.45276317 3.37462715 2.9451 5.08235 1 8 C0.67 5.36 0.34 2.72 0 0 Z " fill="#F074D0" transform="translate(32,3)"/>
<path d="M0 0 C0.33 0.99 0.66 1.98 1 3 C0 4 0 4 -2.5625 4.0625 C-3.7690625 4.0315625 -3.7690625 4.0315625 -5 4 C-5 3.01 -5 2.02 -5 1 C-3.35 0.67 -1.7 0.34 0 0 Z " fill="#FF5EE2" transform="translate(26,40)"/>
<path d="M0 0 C1.1875 1.5 1.1875 1.5 2 4 C1.27101296 6.78824238 0.1843275 9.37665092 -1 12 C-2.45606519 7.47907032 -1.27032841 4.48351204 0 0 Z " fill="#DFCBD7" transform="translate(29,20)"/>
<path d="M0 0 C1.98 0.66 3.96 1.32 6 2 C3.35261084 3.4606285 2.10551666 4 -1 4 C-0.67 2.68 -0.34 1.36 0 0 Z " fill="#FD1BBB" transform="translate(34,20)"/>
<path d="M0 0 C2.31 0.33 4.62 0.66 7 1 C6.67 1.66 6.34 2.32 6 3 C3.69 3 1.38 3 -1 3 C-0.67 2.01 -0.34 1.02 0 0 Z " fill="#AF2B88" transform="translate(35,17)"/>
</svg>
